<svg width="674" height="112" viewBox="0 0 674 112" fill="none" xmlns="http://www.w3.org/2000/svg">
<path d="M139.194 20.0791H145.987V44H139.194V42.182C138.141 42.9794 136.977 43.5854 135.701 44C134.458 44.4465 133.198 44.6698 131.922 44.6698C129.434 44.6698 127.281 44.1276 125.463 43.0432C123.677 41.9588 122.306 40.4757 121.349 38.5939C120.392 36.6802 119.914 34.5114 119.914 32.0874C119.914 29.6634 120.392 27.4946 121.349 25.5809C122.306 23.6354 123.677 22.1204 125.463 21.0359C127.281 19.9515 129.434 19.4093 131.922 19.4093C133.23 19.4093 134.505 19.6326 135.749 20.0791C136.993 20.5256 138.141 21.1476 139.194 21.9449V20.0791ZM132.831 38.1633C134.617 38.1633 136.116 37.5892 137.328 36.441C138.54 35.2928 139.146 33.8097 139.146 31.9917C139.146 30.2375 138.54 28.8023 137.328 27.686C136.116 26.5696 134.617 26.0115 132.831 26.0115C131.045 26.0115 129.578 26.5696 128.43 27.686C127.281 28.8023 126.707 30.2694 126.707 32.0874C126.707 33.9054 127.281 35.3725 128.43 36.4888C129.578 37.6051 131.045 38.1633 132.831 38.1633ZM165.457 20.0791H172.298V44H165.457V42.3734C163.639 43.9043 161.709 44.6698 159.668 44.6698C158.265 44.6698 156.845 44.3668 155.41 43.7608C153.975 43.1548 152.747 42.0863 151.726 40.5554C150.706 39.0245 150.195 36.9673 150.195 34.3838V20.0791H157.037V34.3838C157.037 35.8828 157.467 36.9832 158.328 37.6849C159.19 38.3547 160.21 38.6896 161.39 38.6896C162.538 38.6896 163.495 38.2749 164.261 37.4457C165.058 36.6164 165.457 35.2928 165.457 33.4748V20.0791ZM198.841 39.3115C197.661 40.97 196.162 42.2936 194.344 43.2824C192.558 44.2392 190.628 44.7176 188.555 44.7176C186.259 44.7176 184.138 44.1595 182.192 43.0432C180.278 41.895 178.747 40.3481 177.599 38.4025C176.483 36.4569 175.925 34.3519 175.925 32.0874C175.925 29.791 176.483 27.686 177.599 25.7723C178.747 23.8267 180.278 22.2958 182.192 21.1795C184.138 20.0313 186.259 19.4572 188.555 19.4572C190.628 19.4572 192.558 19.9356 194.344 20.8924C196.13 21.8493 197.613 23.141 198.793 24.7676L193.148 28.4993C191.808 27.0002 190.277 26.2507 188.555 26.2507C186.96 26.2507 185.589 26.8248 184.441 27.973C183.292 29.1212 182.718 30.4927 182.718 32.0874C182.718 33.6821 183.292 35.0536 184.441 36.2018C185.589 37.3181 186.96 37.8763 188.555 37.8763C190.277 37.8763 191.808 37.1267 193.148 35.6277L198.841 39.3115ZM211.204 35.4842C211.204 36.3772 211.443 36.9992 211.922 37.35C212.432 37.7008 213.197 37.8763 214.218 37.8763C214.856 37.8763 215.558 37.8284 216.323 37.7327V44C214.728 44.1595 213.405 44.2392 212.352 44.2392C209.673 44.2392 207.664 43.6492 206.324 42.4691C205.016 41.2571 204.363 39.0723 204.363 35.9147V26.155H200.248V20.0791H204.363V14.5295L211.204 12.2331V20.0791H216.227V26.155H211.204V35.4842ZM231.585 44.7176C229.288 44.7176 227.167 44.1595 225.222 43.0432C223.308 41.895 221.777 40.3481 220.629 38.4025C219.513 36.4569 218.954 34.3519 218.954 32.0874C218.954 29.791 219.513 27.686 220.629 25.7723C221.777 23.8267 223.308 22.2958 225.222 21.1795C227.167 20.0313 229.288 19.4572 231.585 19.4572C233.849 19.4572 235.938 20.0313 237.852 21.1795C239.797 22.2958 241.328 23.8267 242.445 25.7723C243.593 27.686 244.167 29.791 244.167 32.0874C244.167 34.3519 243.593 36.4569 242.445 38.4025C241.328 40.3481 239.797 41.895 237.852 43.0432C235.938 44.1595 233.849 44.7176 231.585 44.7176ZM231.537 37.8763C233.131 37.8763 234.503 37.3181 235.651 36.2018C236.799 35.0536 237.373 33.6821 237.373 32.0874C237.373 30.4927 236.799 29.1212 235.651 27.973C234.503 26.8248 233.131 26.2507 231.537 26.2507C229.942 26.2507 228.571 26.8248 227.422 27.973C226.306 29.1212 225.748 30.4927 225.748 32.0874C225.748 33.6821 226.306 35.0536 227.422 36.2018C228.571 37.3181 229.942 37.8763 231.537 37.8763ZM288.592 19.4093C289.996 19.4093 291.415 19.7123 292.85 20.3183C294.285 20.9243 295.513 21.9928 296.534 23.5237C297.555 25.0547 298.065 27.1119 298.065 29.6953V44H291.271V29.6953C291.271 28.1644 290.841 27.064 289.98 26.3942C289.118 25.7244 288.098 25.3896 286.918 25.3896C285.929 25.3896 285.068 25.6925 284.334 26.2985C283.633 26.8726 283.17 27.7816 282.947 29.0255V29.6953V44H276.105V29.6953C276.105 28.1644 275.675 27.064 274.814 26.3942C273.953 25.7244 272.932 25.3896 271.752 25.3896C270.763 25.3896 269.902 25.6925 269.168 26.2985C268.435 26.9045 267.972 27.8773 267.781 29.2169V44H260.94V20.0791H267.781V21.6101C269.535 20.1429 271.433 19.4093 273.474 19.4093C274.878 19.4093 276.297 19.7123 277.732 20.3183C279.199 20.9243 280.395 21.929 281.32 23.3324C282.149 22.216 283.202 21.2911 284.478 20.5575C285.754 19.7921 287.125 19.4093 288.592 19.4093ZM320.376 20.0791H327.169V44H320.376V42.182C319.323 42.9794 318.159 43.5854 316.883 44C315.64 44.4465 314.38 44.6698 313.104 44.6698C310.616 44.6698 308.463 44.1276 306.645 43.0432C304.859 41.9588 303.488 40.4757 302.531 38.5939C301.574 36.6802 301.096 34.5114 301.096 32.0874C301.096 29.6634 301.574 27.4946 302.531 25.5809C303.488 23.6354 304.859 22.1204 306.645 21.0359C308.463 19.9515 310.616 19.4093 313.104 19.4093C314.412 19.4093 315.687 19.6326 316.931 20.0791C318.175 20.5256 319.323 21.1476 320.376 21.9449V20.0791ZM314.013 38.1633C315.799 38.1633 317.298 37.5892 318.51 36.441C319.722 35.2928 320.328 33.8097 320.328 31.9917C320.328 30.2375 319.722 28.8023 318.51 27.686C317.298 26.5696 315.799 26.0115 314.013 26.0115C312.227 26.0115 310.76 26.5696 309.612 27.686C308.463 28.8023 307.889 30.2694 307.889 32.0874C307.889 33.9054 308.463 35.3725 309.612 36.4888C310.76 37.6051 312.227 38.1633 314.013 38.1633ZM348.052 19.6007L347.573 26.0593C347.35 25.9637 346.983 25.9158 346.473 25.9158C344.527 25.9158 342.933 26.474 341.689 27.5903C340.477 28.6747 339.871 30.1099 339.871 31.896V44H333.029V20.0791H339.871V23.9543C340.445 22.7104 341.37 21.6738 342.646 20.8446C343.921 20.0153 345.468 19.6007 347.286 19.6007H348.052ZM376.403 44H367.887L361.763 35.7234L358.606 39.168V44H351.764V10.5108H358.606V29.1212L366.547 20.0791H376.068L366.404 30.6043L376.403 44ZM388.425 19.4572C390.754 19.4572 392.827 20.0153 394.645 21.1316C396.495 22.2479 397.93 23.7629 398.95 25.6766C399.971 27.5903 400.481 29.7113 400.481 32.0396C400.481 32.9326 400.418 33.7459 400.29 34.4795H382.589C383.195 35.9466 384.008 37.047 385.028 37.7806C386.049 38.4822 387.373 38.8331 388.999 38.8331C389.988 38.8331 390.945 38.6258 391.87 38.2111C392.827 37.7965 393.576 37.2384 394.118 36.5367L399.285 39.5986C398.169 41.2252 396.718 42.4691 394.932 43.3302C393.178 44.1914 391.152 44.6219 388.856 44.6219C386.272 44.6219 383.992 44.0797 382.014 42.9953C380.037 41.879 378.506 40.364 377.422 38.4504C376.337 36.5367 375.795 34.3998 375.795 32.0396C375.795 29.6794 376.321 27.5424 377.374 25.6288C378.458 23.7151 379.957 22.216 381.871 21.1316C383.785 20.0153 385.969 19.4572 388.425 19.4572ZM394.071 29.1691C393.847 27.9571 393.209 27.0162 392.157 26.3464C391.136 25.6766 389.876 25.3417 388.377 25.3417C386.815 25.3417 385.459 25.7244 384.311 26.4899C383.163 27.2235 382.557 28.1165 382.493 29.1691H394.071ZM412.756 35.4842C412.756 36.3772 412.995 36.9992 413.474 37.35C413.984 37.7008 414.75 37.8763 415.77 37.8763C416.408 37.8763 417.11 37.8284 417.875 37.7327V44C416.28 44.1595 414.957 44.2392 413.904 44.2392C411.225 44.2392 409.216 43.6492 407.876 42.4691C406.569 41.2571 405.915 39.0723 405.915 35.9147V26.155H401.8V20.0791H405.915V14.5295L412.756 12.2331V20.0791H417.78V26.155H412.756V35.4842ZM436.144 19.4572C438.632 19.4572 440.769 19.9994 442.555 21.0838C444.373 22.1682 445.76 23.6672 446.717 25.5809C447.674 27.4627 448.152 29.6156 448.152 32.0396C448.152 34.4635 447.674 36.6324 446.717 38.546C445.76 40.4597 444.373 41.9747 442.555 43.091C440.769 44.1754 438.632 44.7176 436.144 44.7176C434.868 44.7176 433.608 44.4944 432.365 44.0478C431.121 43.6332 429.972 43.0272 428.92 42.2299V53.5684H422.079V20.0791H428.92V21.9449C429.972 21.1476 431.105 20.5416 432.317 20.127C433.561 19.6804 434.836 19.4572 436.144 19.4572ZM435.235 38.0676C437.021 38.0676 438.472 37.5254 439.589 36.441C440.737 35.3247 441.311 33.8575 441.311 32.0396C441.311 30.2216 440.737 28.7544 439.589 27.6381C438.472 26.5218 437.021 25.9637 435.235 25.9637C433.449 25.9637 431.95 26.5378 430.738 27.686C429.526 28.8342 428.92 30.3013 428.92 32.0874C428.92 33.8735 429.51 35.3247 430.69 36.441C431.902 37.5254 433.417 38.0676 435.235 38.0676ZM458.914 36.441C458.914 36.9513 459.026 37.3181 459.249 37.5414C459.505 37.7646 459.919 37.8763 460.493 37.8763C460.908 37.8763 461.402 37.8284 461.976 37.7327V44C460.414 44.2233 459.202 44.3349 458.34 44.3349C456.267 44.3349 454.704 43.7927 453.652 42.7083C452.599 41.592 452.073 39.6464 452.073 36.8716V10.5108H458.914V36.441ZM483.664 20.0791H490.458V44H483.664V42.182C482.611 42.9794 481.447 43.5854 480.172 44C478.928 44.4465 477.668 44.6698 476.392 44.6698C473.904 44.6698 471.751 44.1276 469.933 43.0432C468.147 41.9588 466.776 40.4757 465.819 38.5939C464.862 36.6802 464.384 34.5114 464.384 32.0874C464.384 29.6634 464.862 27.4946 465.819 25.5809C466.776 23.6354 468.147 22.1204 469.933 21.0359C471.751 19.9515 473.904 19.4093 476.392 19.4093C477.7 19.4093 478.976 19.6326 480.219 20.0791C481.463 20.5256 482.611 21.1476 483.664 21.9449V20.0791ZM477.301 38.1633C479.087 38.1633 480.586 37.5892 481.798 36.441C483.01 35.2928 483.616 33.8097 483.616 31.9917C483.616 30.2375 483.01 28.8023 481.798 27.686C480.586 26.5696 479.087 26.0115 477.301 26.0115C475.515 26.0115 474.048 26.5696 472.9 27.686C471.751 28.8023 471.177 30.2694 471.177 32.0874C471.177 33.9054 471.751 35.3725 472.9 36.4888C474.048 37.6051 475.515 38.1633 477.301 38.1633ZM516.821 39.3115C515.64 40.97 514.141 42.2936 512.323 43.2824C510.537 44.2392 508.608 44.7176 506.535 44.7176C504.238 44.7176 502.117 44.1595 500.172 43.0432C498.258 41.895 496.727 40.3481 495.579 38.4025C494.463 36.4569 493.904 34.3519 493.904 32.0874C493.904 29.791 494.463 27.686 495.579 25.7723C496.727 23.8267 498.258 22.2958 500.172 21.1795C502.117 20.0313 504.238 19.4572 506.535 19.4572C508.608 19.4572 510.537 19.9356 512.323 20.8924C514.11 21.8493 515.593 23.141 516.773 24.7676L511.127 28.4993C509.788 27.0002 508.257 26.2507 506.535 26.2507C504.94 26.2507 503.568 26.8248 502.42 27.973C501.272 29.1212 500.698 30.4927 500.698 32.0874C500.698 33.6821 501.272 35.0536 502.42 36.2018C503.568 37.3181 504.94 37.8763 506.535 37.8763C508.257 37.8763 509.788 37.1267 511.127 35.6277L516.821 39.3115ZM531.016 19.4572C533.344 19.4572 535.418 20.0153 537.236 21.1316C539.085 22.2479 540.521 23.7629 541.541 25.6766C542.562 27.5903 543.072 29.7113 543.072 32.0396C543.072 32.9326 543.008 33.7459 542.881 34.4795H525.179C525.785 35.9466 526.599 37.047 527.619 37.7806C528.64 38.4822 529.964 38.8331 531.59 38.8331C532.579 38.8331 533.536 38.6258 534.461 38.2111C535.418 37.7965 536.167 37.2384 536.709 36.5367L541.876 39.5986C540.76 41.2252 539.309 42.4691 537.523 43.3302C535.768 44.1914 533.743 44.6219 531.447 44.6219C528.863 44.6219 526.583 44.0797 524.605 42.9953C522.628 41.879 521.097 40.364 520.013 38.4504C518.928 36.5367 518.386 34.3998 518.386 32.0396C518.386 29.6794 518.912 27.5424 519.965 25.6288C521.049 23.7151 522.548 22.216 524.462 21.1316C526.375 20.0153 528.56 19.4572 531.016 19.4572ZM536.661 29.1691C536.438 27.9571 535.8 27.0162 534.748 26.3464C533.727 25.6766 532.467 25.3417 530.968 25.3417C529.405 25.3417 528.05 25.7244 526.902 26.4899C525.754 27.2235 525.148 28.1165 525.084 29.1691H536.661Z" fill="white"/>
<path d="M10.7738 103.461C8.31659 103.461 6.24925 102.917 4.57176 101.83C2.91789 100.744 1.74837 99.267 1.0632 97.4005L5.56408 94.7779C6.03661 95.9593 6.69816 96.8334 7.54872 97.4005C8.42291 97.9675 9.54517 98.251 10.9155 98.251C12.026 98.251 12.8765 97.9911 13.4672 97.4714C14.0815 96.9516 14.3886 96.3727 14.3886 95.7348C14.3886 95.2623 14.2469 94.8606 13.9634 94.5298C13.6798 94.1991 13.1955 93.8919 12.5103 93.6084C11.8251 93.3013 10.8328 92.9587 9.53336 92.5806C7.2652 91.9191 5.45776 91.0213 4.11104 89.8872C2.76432 88.7531 2.09096 87.1347 2.09096 85.0319C2.09096 83.5434 2.45717 82.2558 3.1896 81.169C3.94565 80.0585 4.93797 79.2079 6.16656 78.6173C7.41877 78.0266 8.76549 77.7313 10.2067 77.7313C12.215 77.7313 13.9752 78.2156 15.4873 79.1843C16.9994 80.1294 18.1807 81.4761 19.0313 83.2245L14.4241 85.847C13.9752 84.8547 13.4081 84.1341 12.723 83.6852C12.0378 83.2127 11.199 82.9764 10.2067 82.9764C9.45067 82.9764 8.80093 83.189 8.25752 83.6143C7.71411 84.016 7.4424 84.4885 7.4424 85.0319C7.4424 85.4808 7.54872 85.8707 7.76136 86.2014C7.99763 86.5086 8.41109 86.8039 9.00176 87.0874C9.61605 87.371 10.5139 87.6899 11.6952 88.0443C13.2782 88.5405 14.6367 89.0957 15.7708 89.71C16.9285 90.3007 17.8736 91.1158 18.606 92.1554C19.3621 93.1949 19.7401 94.4944 19.7401 96.0538C19.7401 97.5422 19.3502 98.8535 18.5706 99.9876C17.7909 101.098 16.7159 101.96 15.3455 102.575C13.9988 103.165 12.4749 103.461 10.7738 103.461ZM32.5508 84.8193C34.3937 84.8193 35.9767 85.2209 37.2998 86.0242C38.6465 86.8275 39.6742 87.938 40.383 89.3556C41.0918 90.7496 41.4462 92.3444 41.4462 94.14C41.4462 95.9356 41.0918 97.5422 40.383 98.9598C39.6742 100.377 38.6465 101.5 37.2998 102.327C35.9767 103.13 34.3937 103.532 32.5508 103.532C31.6057 103.532 30.6725 103.366 29.751 103.035C28.8296 102.728 27.979 102.279 27.1994 101.689V110.088H22.1314V85.28H27.1994V86.6622C27.979 86.0715 28.8178 85.6226 29.7156 85.3154C30.637 84.9847 31.5821 84.8193 32.5508 84.8193ZM31.8774 98.6054C33.2005 98.6054 34.2756 98.2038 35.1025 97.4005C35.953 96.5735 36.3783 95.4867 36.3783 94.14C36.3783 92.7933 35.953 91.7065 35.1025 90.8795C34.2756 90.0526 33.2005 89.6391 31.8774 89.6391C30.5544 89.6391 29.4439 90.0644 28.5461 90.915C27.6483 91.7655 27.1994 92.8523 27.1994 94.1754C27.1994 95.4985 27.6365 96.5735 28.5106 97.4005C29.4085 98.2038 30.5307 98.6054 31.8774 98.6054ZM52.7499 84.8193C54.4747 84.8193 56.0104 85.2327 57.3571 86.0597C58.7275 86.8866 59.7907 88.0089 60.5467 89.4265C61.3028 90.8441 61.6808 92.4153 61.6808 94.14C61.6808 94.8015 61.6336 95.404 61.5391 95.9474H48.4263C48.8752 97.0343 49.4777 97.8494 50.2337 98.3928C50.9898 98.9126 51.9703 99.1725 53.1752 99.1725C53.9077 99.1725 54.6165 99.0189 55.3016 98.7118C56.0104 98.4046 56.5657 97.9911 56.9673 97.4714L60.7948 99.7395C59.9679 100.944 58.8929 101.866 57.5698 102.504C56.2703 103.142 54.77 103.461 53.0689 103.461C51.1551 103.461 49.4658 103.059 48.001 102.256C46.5361 101.429 45.4021 100.307 44.5987 98.889C43.7954 97.4714 43.3938 95.8884 43.3938 94.14C43.3938 92.3916 43.7836 90.8086 44.5633 89.391C45.3666 87.9734 46.4771 86.863 47.8947 86.0597C49.3123 85.2327 50.9307 84.8193 52.7499 84.8193ZM56.9319 92.0136C56.7665 91.1158 56.2939 90.4188 55.5143 89.9226C54.7582 89.4265 53.825 89.1784 52.7145 89.1784C51.5568 89.1784 50.5527 89.4619 49.7021 90.029C48.8515 90.5724 48.4026 91.2339 48.3554 92.0136H56.9319ZM80.3392 99.5269C79.465 100.755 78.3545 101.736 77.0078 102.468C75.6847 103.177 74.2553 103.532 72.7196 103.532C71.0184 103.532 69.4473 103.118 68.006 102.291C66.5884 101.441 65.4544 100.295 64.6038 98.8535C63.7769 97.4123 63.3634 95.8529 63.3634 94.1754C63.3634 92.4743 63.7769 90.915 64.6038 89.4974C65.4544 88.0561 66.5884 86.9221 68.006 86.0951C69.4473 85.2446 71.0184 84.8193 72.7196 84.8193C74.2553 84.8193 75.6847 85.1737 77.0078 85.8825C78.3309 86.5913 79.4295 87.5482 80.3037 88.7531L76.1218 91.5174C75.1295 90.407 73.9954 89.8518 72.7196 89.8518C71.5382 89.8518 70.5223 90.277 69.6717 91.1276C68.8212 91.9782 68.3959 92.9941 68.3959 94.1754C68.3959 95.3568 68.8212 96.3727 69.6717 97.2233C70.5223 98.0502 71.5382 98.4637 72.7196 98.4637C73.9954 98.4637 75.1295 97.9085 76.1218 96.798L80.3392 99.5269ZM85.355 82.8701C84.41 82.8701 83.6657 82.622 83.1223 82.1258C82.6025 81.6061 82.3426 80.9091 82.3426 80.0349C82.3426 79.1371 82.6025 78.4283 83.1223 77.9085C83.6657 77.3887 84.41 77.1288 85.355 77.1288C86.2765 77.1288 87.0089 77.3887 87.5523 77.9085C88.0957 78.4283 88.3674 79.1371 88.3674 80.0349C88.3674 80.9091 88.0957 81.6061 87.5523 82.1258C87.0089 82.622 86.2765 82.8701 85.355 82.8701ZM82.8033 103V85.28H87.8713V103H82.8033ZM105.58 85.28H110.613V103H105.58V101.653C104.801 102.244 103.938 102.693 102.993 103C102.072 103.331 101.139 103.496 100.194 103.496C98.3507 103.496 96.7559 103.095 95.4092 102.291C94.0861 101.488 93.0701 100.389 92.3613 98.9953C91.6525 97.5777 91.2981 95.9711 91.2981 94.1754C91.2981 92.3798 91.6525 90.7732 92.3613 89.3556C93.0701 87.9144 94.0861 86.7921 95.4092 85.9888C96.7559 85.1855 98.3507 84.7838 100.194 84.7838C101.162 84.7838 102.107 84.9492 103.029 85.28C103.95 85.6108 104.801 86.0715 105.58 86.6622V85.28ZM100.867 98.6763C102.19 98.6763 103.3 98.251 104.198 97.4005C105.096 96.5499 105.545 95.4513 105.545 94.1046C105.545 92.8051 105.096 91.7419 104.198 90.915C103.3 90.088 102.19 89.6746 100.867 89.6746C99.5438 89.6746 98.457 90.088 97.6065 90.915C96.7559 91.7419 96.3306 92.8287 96.3306 94.1754C96.3306 95.5222 96.7559 96.609 97.6065 97.4359C98.457 98.2629 99.5438 98.6763 100.867 98.6763ZM119.537 97.4005C119.537 97.7785 119.62 98.0502 119.785 98.2156C119.974 98.381 120.281 98.4637 120.707 98.4637C121.014 98.4637 121.38 98.4282 121.805 98.3574V103C120.648 103.165 119.75 103.248 119.112 103.248C117.576 103.248 116.418 102.846 115.639 102.043C114.859 101.216 114.469 99.775 114.469 97.7194V78.192H119.537V97.4005ZM127.648 82.8701C126.703 82.8701 125.958 82.622 125.415 82.1258C124.895 81.6061 124.635 80.9091 124.635 80.0349C124.635 79.1371 124.895 78.4283 125.415 77.9085C125.958 77.3887 126.703 77.1288 127.648 77.1288C128.569 77.1288 129.302 77.3887 129.845 77.9085C130.388 78.4283 130.66 79.1371 130.66 80.0349C130.66 80.9091 130.388 81.6061 129.845 82.1258C129.302 82.622 128.569 82.8701 127.648 82.8701ZM125.096 103V85.28H130.164V103H125.096ZM138.421 90.3125C138.421 90.7141 138.67 91.0213 139.166 91.2339C139.662 91.4229 140.453 91.6238 141.54 91.8364C142.934 92.1199 144.092 92.4389 145.013 92.7933C145.935 93.1241 146.738 93.6911 147.423 94.4944C148.132 95.2741 148.486 96.3609 148.486 97.7549C148.486 98.9598 148.12 99.9994 147.388 100.874C146.655 101.724 145.687 102.374 144.482 102.823C143.277 103.248 141.977 103.461 140.583 103.461C138.67 103.461 137.039 103.118 135.693 102.433C134.346 101.724 133.33 100.685 132.645 99.3142L136.791 97.1878C137.358 98.6999 138.622 99.456 140.583 99.456C141.387 99.456 142.084 99.3142 142.674 99.0307C143.289 98.7236 143.596 98.2983 143.596 97.7549C143.596 97.2823 143.312 96.9279 142.745 96.6917C142.202 96.4554 141.328 96.2073 140.123 95.9474C138.752 95.6403 137.606 95.3213 136.685 94.9906C135.763 94.6362 134.972 94.1046 134.31 93.3958C133.649 92.6633 133.318 91.6946 133.318 90.4897C133.318 89.332 133.649 88.3278 134.31 87.4773C134.972 86.6031 135.858 85.9415 136.968 85.4926C138.102 85.0437 139.331 84.8193 140.654 84.8193C142.214 84.8193 143.619 85.1382 144.872 85.7762C146.124 86.4141 147.104 87.3355 147.813 88.5405L143.702 90.5606C143.418 89.9699 143.029 89.5328 142.532 89.2493C142.06 88.9658 141.434 88.824 140.654 88.824C139.969 88.824 139.426 88.9658 139.024 89.2493C138.622 89.5092 138.421 89.8636 138.421 90.3125ZM159.416 84.8193C161.141 84.8193 162.677 85.2327 164.023 86.0597C165.394 86.8866 166.457 88.0089 167.213 89.4265C167.969 90.8441 168.347 92.4153 168.347 94.14C168.347 94.8015 168.3 95.404 168.205 95.9474H155.092C155.541 97.0343 156.144 97.8494 156.9 98.3928C157.656 98.9126 158.636 99.1725 159.841 99.1725C160.574 99.1725 161.283 99.0189 161.968 98.7118C162.677 98.4046 163.232 97.9911 163.633 97.4714L167.461 99.7395C166.634 100.944 165.559 101.866 164.236 102.504C162.936 103.142 161.436 103.461 159.735 103.461C157.821 103.461 156.132 103.059 154.667 102.256C153.202 101.429 152.068 100.307 151.265 98.889C150.462 97.4714 150.06 95.8884 150.06 94.14C150.06 92.3916 150.45 90.8086 151.229 89.391C152.033 87.9734 153.143 86.863 154.561 86.0597C155.978 85.2327 157.597 84.8193 159.416 84.8193ZM163.598 92.0136C163.433 91.1158 162.96 90.4188 162.18 89.9226C161.424 89.4265 160.491 89.1784 159.381 89.1784C158.223 89.1784 157.219 89.4619 156.368 90.029C155.518 90.5724 155.069 91.2339 155.021 92.0136H163.598ZM184.489 78.192H189.521V103H184.489V101.653C183.709 102.244 182.859 102.693 181.937 103C181.04 103.331 180.106 103.496 179.138 103.496C177.295 103.496 175.7 103.095 174.353 102.291C173.03 101.488 172.014 100.389 171.305 98.9953C170.597 97.5777 170.242 95.9711 170.242 94.1754C170.242 92.3798 170.597 90.7732 171.305 89.3556C172.014 87.9144 173.03 86.7921 174.353 85.9888C175.7 85.1855 177.295 84.7838 179.138 84.7838C180.083 84.7838 181.016 84.9492 181.937 85.28C182.859 85.5871 183.709 86.0361 184.489 86.6267V78.192ZM179.811 98.6763C181.134 98.6763 182.244 98.251 183.142 97.4005C184.04 96.5499 184.489 95.4513 184.489 94.1046C184.489 92.8051 184.04 91.7419 183.142 90.915C182.244 90.088 181.134 89.6746 179.811 89.6746C178.488 89.6746 177.401 90.088 176.55 90.915C175.7 91.7419 175.275 92.8287 175.275 94.1754C175.275 95.5222 175.7 96.609 176.55 97.4359C177.401 98.2629 178.488 98.6763 179.811 98.6763ZM222.493 78.2274V78.192H227.809V103H222.493V87.9734L216.185 98.5346H214.873L208.53 87.938V103H203.214V78.192H208.53V78.2274L208.6 78.192L215.511 89.8163L222.422 78.192L222.493 78.2274ZM244.918 85.28H249.95V103H244.918V101.653C244.138 102.244 243.276 102.693 242.331 103C241.409 103.331 240.476 103.496 239.531 103.496C237.688 103.496 236.093 103.095 234.747 102.291C233.423 101.488 232.407 100.389 231.699 98.9953C230.99 97.5777 230.635 95.9711 230.635 94.1754C230.635 92.3798 230.99 90.7732 231.699 89.3556C232.407 87.9144 233.423 86.7921 234.747 85.9888C236.093 85.1855 237.688 84.7838 239.531 84.7838C240.5 84.7838 241.445 84.9492 242.366 85.28C243.288 85.6108 244.138 86.0715 244.918 86.6622V85.28ZM240.204 98.6763C241.527 98.6763 242.638 98.251 243.536 97.4005C244.433 96.5499 244.882 95.4513 244.882 94.1046C244.882 92.8051 244.433 91.7419 243.536 90.915C242.638 90.088 241.527 89.6746 240.204 89.6746C238.881 89.6746 237.794 90.088 236.944 90.915C236.093 91.7419 235.668 92.8287 235.668 94.1754C235.668 95.5222 236.093 96.609 236.944 97.4359C237.794 98.2629 238.881 98.6763 240.204 98.6763ZM265.419 84.9256L265.065 89.71C264.9 89.6391 264.628 89.6037 264.25 89.6037C262.809 89.6037 261.627 90.0171 260.706 90.8441C259.808 91.6474 259.359 92.7106 259.359 94.0337V103H254.291V85.28H259.359V88.1506C259.784 87.2292 260.47 86.4613 261.415 85.847C262.36 85.2327 263.506 84.9256 264.852 84.9256H265.419ZM286.421 103H280.113L275.576 96.8689L273.237 99.4206V103H268.169V78.192H273.237V91.9782L279.12 85.28H286.173L279.014 93.0768L286.421 103ZM295.327 84.8193C297.052 84.8193 298.588 85.2327 299.934 86.0597C301.305 86.8866 302.368 88.0089 303.124 89.4265C303.88 90.8441 304.258 92.4153 304.258 94.14C304.258 94.8015 304.211 95.404 304.116 95.9474H291.003C291.452 97.0343 292.055 97.8494 292.811 98.3928C293.567 98.9126 294.547 99.1725 295.752 99.1725C296.485 99.1725 297.194 99.0189 297.879 98.7118C298.588 98.4046 299.143 97.9911 299.544 97.4714L303.372 99.7395C302.545 100.944 301.47 101.866 300.147 102.504C298.847 103.142 297.347 103.461 295.646 103.461C293.732 103.461 292.043 103.059 290.578 102.256C289.113 101.429 287.979 100.307 287.176 98.889C286.373 97.4714 285.971 95.8884 285.971 94.14C285.971 92.3916 286.361 90.8086 287.14 89.391C287.944 87.9734 289.054 86.863 290.472 86.0597C291.889 85.2327 293.508 84.8193 295.327 84.8193ZM299.509 92.0136C299.344 91.1158 298.871 90.4188 298.091 89.9226C297.335 89.4265 296.402 89.1784 295.292 89.1784C294.134 89.1784 293.13 89.4619 292.279 90.029C291.429 90.5724 290.98 91.2339 290.932 92.0136H299.509ZM313.351 96.6917C313.351 97.3532 313.528 97.8139 313.882 98.0738C314.26 98.3337 314.827 98.4637 315.584 98.4637C316.056 98.4637 316.576 98.4282 317.143 98.3574V103C315.962 103.118 314.981 103.177 314.201 103.177C312.217 103.177 310.728 102.74 309.736 101.866C308.767 100.968 308.283 99.3497 308.283 97.0106V89.7809H305.235V85.28H308.283V81.169L313.351 79.4678V85.28H317.072V89.7809H313.351V96.6917ZM330.676 84.8193C332.519 84.8193 334.102 85.2209 335.425 86.0242C336.772 86.8275 337.799 87.938 338.508 89.3556C339.217 90.7496 339.571 92.3444 339.571 94.14C339.571 95.9356 339.217 97.5422 338.508 98.9598C337.799 100.377 336.772 101.5 335.425 102.327C334.102 103.13 332.519 103.532 330.676 103.532C329.731 103.532 328.798 103.366 327.876 103.035C326.955 102.728 326.104 102.279 325.325 101.689V110.088H320.257V85.28H325.325V86.6622C326.104 86.0715 326.943 85.6226 327.841 85.3154C328.762 84.9847 329.707 84.8193 330.676 84.8193ZM330.003 98.6054C331.326 98.6054 332.401 98.2038 333.228 97.4005C334.078 96.5735 334.503 95.4867 334.503 94.14C334.503 92.7933 334.078 91.7065 333.228 90.8795C332.401 90.0526 331.326 89.6391 330.003 89.6391C328.68 89.6391 327.569 90.0644 326.671 90.915C325.773 91.7655 325.325 92.8523 325.325 94.1754C325.325 95.4985 325.762 96.5735 326.636 97.4005C327.534 98.2038 328.656 98.6054 330.003 98.6054ZM347.544 97.4005C347.544 97.7785 347.626 98.0502 347.792 98.2156C347.981 98.381 348.288 98.4637 348.713 98.4637C349.02 98.4637 349.387 98.4282 349.812 98.3574V103C348.654 103.165 347.756 103.248 347.118 103.248C345.583 103.248 344.425 102.846 343.645 102.043C342.866 101.216 342.476 99.775 342.476 97.7194V78.192H347.544V97.4005ZM365.878 85.28H370.91V103H365.878V101.653C365.098 102.244 364.236 102.693 363.29 103C362.369 103.331 361.436 103.496 360.491 103.496C358.648 103.496 357.053 103.095 355.706 102.291C354.383 101.488 353.367 100.389 352.658 98.9953C351.95 97.5777 351.595 95.9711 351.595 94.1754C351.595 92.3798 351.95 90.7732 352.658 89.3556C353.367 87.9144 354.383 86.7921 355.706 85.9888C357.053 85.1855 358.648 84.7838 360.491 84.7838C361.459 84.7838 362.404 84.9492 363.326 85.28C364.247 85.6108 365.098 86.0715 365.878 86.6622V85.28ZM361.164 98.6763C362.487 98.6763 363.598 98.251 364.495 97.4005C365.393 96.5499 365.842 95.4513 365.842 94.1046C365.842 92.8051 365.393 91.7419 364.495 90.915C363.598 90.088 362.487 89.6746 361.164 89.6746C359.841 89.6746 358.754 90.088 357.904 90.915C357.053 91.7419 356.628 92.8287 356.628 94.1754C356.628 95.5222 357.053 96.609 357.904 97.4359C358.754 98.2629 359.841 98.6763 361.164 98.6763ZM390.439 99.5269C389.565 100.755 388.455 101.736 387.108 102.468C385.785 103.177 384.355 103.532 382.82 103.532C381.118 103.532 379.547 103.118 378.106 102.291C376.688 101.441 375.554 100.295 374.704 98.8535C373.877 97.4123 373.463 95.8529 373.463 94.1754C373.463 92.4743 373.877 90.915 374.704 89.4974C375.554 88.0561 376.688 86.9221 378.106 86.0951C379.547 85.2446 381.118 84.8193 382.82 84.8193C384.355 84.8193 385.785 85.1737 387.108 85.8825C388.431 86.5913 389.53 87.5482 390.404 88.7531L386.222 91.5174C385.229 90.407 384.095 89.8518 382.82 89.8518C381.638 89.8518 380.622 90.277 379.772 91.1276C378.921 91.9782 378.496 92.9941 378.496 94.1754C378.496 95.3568 378.921 96.3727 379.772 97.2233C380.622 98.0502 381.638 98.4637 382.82 98.4637C384.095 98.4637 385.229 97.9085 386.222 96.798L390.439 99.5269ZM400.955 84.8193C402.68 84.8193 404.215 85.2327 405.562 86.0597C406.932 86.8866 407.996 88.0089 408.752 89.4265C409.508 90.8441 409.886 92.4153 409.886 94.14C409.886 94.8015 409.838 95.404 409.744 95.9474H396.631C397.08 97.0343 397.683 97.8494 398.439 98.3928C399.195 98.9126 400.175 99.1725 401.38 99.1725C402.113 99.1725 402.821 99.0189 403.507 98.7118C404.215 98.4046 404.771 97.9911 405.172 97.4714L409 99.7395C408.173 100.944 407.098 101.866 405.775 102.504C404.475 103.142 402.975 103.461 401.274 103.461C399.36 103.461 397.671 103.059 396.206 102.256C394.741 101.429 393.607 100.307 392.804 98.889C392 97.4714 391.599 95.8884 391.599 94.14C391.599 92.3916 391.989 90.8086 392.768 89.391C393.572 87.9734 394.682 86.863 396.1 86.0597C397.517 85.2327 399.136 84.8193 400.955 84.8193ZM405.137 92.0136C404.971 91.1158 404.499 90.4188 403.719 89.9226C402.963 89.4265 402.03 89.1784 400.919 89.1784C399.762 89.1784 398.758 89.4619 397.907 90.029C397.056 90.5724 396.608 91.2339 396.56 92.0136H405.137ZM432.563 82.5157C431.996 82.4448 431.476 82.4094 431.003 82.4094C430.247 82.4094 429.68 82.5393 429.302 82.7992C428.948 83.0591 428.771 83.5198 428.771 84.1814V85.28H432.527V89.7809H428.771V103H423.703V89.7809H420.938V85.28H423.703V83.8624C423.703 81.5234 424.187 79.9167 425.156 79.0426C426.148 78.1447 427.648 77.6958 429.657 77.6958C430.46 77.6958 431.429 77.7549 432.563 77.873V82.5157ZM442.832 103.532C441.131 103.532 439.56 103.118 438.119 102.291C436.701 101.441 435.567 100.295 434.716 98.8535C433.889 97.4123 433.476 95.8529 433.476 94.1754C433.476 92.4743 433.889 90.915 434.716 89.4974C435.567 88.0561 436.701 86.9221 438.119 86.0951C439.56 85.2446 441.131 84.8193 442.832 84.8193C444.51 84.8193 446.057 85.2446 447.475 86.0951C448.916 86.9221 450.05 88.0561 450.877 89.4974C451.728 90.915 452.153 92.4743 452.153 94.1754C452.153 95.8529 451.728 97.4123 450.877 98.8535C450.05 100.295 448.916 101.441 447.475 102.291C446.057 103.118 444.51 103.532 442.832 103.532ZM442.797 98.4637C443.978 98.4637 444.994 98.0502 445.845 97.2233C446.695 96.3727 447.12 95.3568 447.12 94.1754C447.12 92.9941 446.695 91.9782 445.845 91.1276C444.994 90.277 443.978 89.8518 442.797 89.8518C441.615 89.8518 440.599 90.277 439.749 91.1276C438.922 91.9782 438.508 92.9941 438.508 94.1754C438.508 95.3568 438.922 96.3727 439.749 97.2233C440.599 98.0502 441.615 98.4637 442.797 98.4637ZM465.946 84.9256L465.592 89.71C465.426 89.6391 465.155 89.6037 464.776 89.6037C463.335 89.6037 462.154 90.0171 461.232 90.8441C460.335 91.6474 459.886 92.7106 459.886 94.0337V103H454.818V85.28H459.886V88.1506C460.311 87.2292 460.996 86.4613 461.941 85.847C462.886 85.2327 464.032 84.9256 465.379 84.9256H465.946ZM476.842 90.6669C476.842 88.3515 477.409 86.2133 478.544 84.2522C479.701 82.2912 481.261 80.7437 483.222 79.6096C485.183 78.4519 487.321 77.873 489.636 77.873C491.999 77.873 494.184 78.4873 496.193 79.7159C498.201 80.9445 499.76 82.5629 500.871 84.5712L496.193 87.0874C495.531 85.9061 494.621 84.9729 493.464 84.2877C492.306 83.5789 491.03 83.2245 489.636 83.2245C488.29 83.2245 487.037 83.5553 485.88 84.2168C484.746 84.8783 483.848 85.788 483.186 86.9457C482.525 88.0798 482.194 89.3202 482.194 90.6669C482.194 92.0136 482.525 93.2658 483.186 94.4235C483.871 95.5576 484.781 96.4672 485.915 97.1524C487.049 97.8139 488.29 98.1447 489.636 98.1447C491.03 98.1447 492.318 97.7903 493.499 97.0815C494.681 96.3491 495.59 95.3804 496.228 94.1754L500.942 96.7271C499.831 98.759 498.26 100.401 496.228 101.653C494.22 102.882 492.023 103.496 489.636 103.496C487.321 103.496 485.183 102.917 483.222 101.76C481.261 100.602 479.701 99.0425 478.544 97.0815C477.409 95.1205 476.842 92.9823 476.842 90.6669ZM511.497 103.532C509.796 103.532 508.225 103.118 506.784 102.291C505.366 101.441 504.232 100.295 503.381 98.8535C502.554 97.4123 502.141 95.8529 502.141 94.1754C502.141 92.4743 502.554 90.915 503.381 89.4974C504.232 88.0561 505.366 86.9221 506.784 86.0951C508.225 85.2446 509.796 84.8193 511.497 84.8193C513.175 84.8193 514.722 85.2446 516.14 86.0951C517.581 86.9221 518.715 88.0561 519.542 89.4974C520.393 90.915 520.818 92.4743 520.818 94.1754C520.818 95.8529 520.393 97.4123 519.542 98.8535C518.715 100.295 517.581 101.441 516.14 102.291C514.722 103.118 513.175 103.532 511.497 103.532ZM511.462 98.4637C512.643 98.4637 513.659 98.0502 514.51 97.2233C515.36 96.3727 515.785 95.3568 515.785 94.1754C515.785 92.9941 515.36 91.9782 514.51 91.1276C513.659 90.277 512.643 89.8518 511.462 89.8518C510.28 89.8518 509.264 90.277 508.414 91.1276C507.587 91.9782 507.174 92.9941 507.174 94.1754C507.174 95.3568 507.587 96.3727 508.414 97.2233C509.264 98.0502 510.28 98.4637 511.462 98.4637ZM528.551 97.4005C528.551 97.7785 528.633 98.0502 528.799 98.2156C528.988 98.381 529.295 98.4637 529.72 98.4637C530.027 98.4637 530.394 98.4282 530.819 98.3574V103C529.661 103.165 528.763 103.248 528.125 103.248C526.59 103.248 525.432 102.846 524.652 102.043C523.873 101.216 523.483 99.775 523.483 97.7194V78.192H528.551V97.4005ZM538.484 97.4005C538.484 97.7785 538.566 98.0502 538.732 98.2156C538.921 98.381 539.228 98.4637 539.653 98.4637C539.96 98.4637 540.327 98.4282 540.752 98.3574V103C539.594 103.165 538.696 103.248 538.058 103.248C536.523 103.248 535.365 102.846 534.585 102.043C533.806 101.216 533.416 99.775 533.416 97.7194V78.192H538.484V97.4005ZM551.54 84.8193C553.265 84.8193 554.801 85.2327 556.147 86.0597C557.518 86.8866 558.581 88.0089 559.337 89.4265C560.093 90.8441 560.471 92.4153 560.471 94.14C560.471 94.8015 560.424 95.404 560.329 95.9474H547.217C547.665 97.0343 548.268 97.8494 549.024 98.3928C549.78 98.9126 550.761 99.1725 551.966 99.1725C552.698 99.1725 553.407 99.0189 554.092 98.7118C554.801 98.4046 555.356 97.9911 555.758 97.4714L559.585 99.7395C558.758 100.944 557.683 101.866 556.36 102.504C555.061 103.142 553.56 103.461 551.859 103.461C549.945 103.461 548.256 103.059 546.791 102.256C545.326 101.429 544.192 100.307 543.389 98.889C542.586 97.4714 542.184 95.8884 542.184 94.14C542.184 92.3916 542.574 90.8086 543.354 89.391C544.157 87.9734 545.267 86.863 546.685 86.0597C548.103 85.2327 549.721 84.8193 551.54 84.8193ZM555.722 92.0136C555.557 91.1158 555.084 90.4188 554.305 89.9226C553.549 89.4265 552.615 89.1784 551.505 89.1784C550.347 89.1784 549.343 89.4619 548.492 90.029C547.642 90.5724 547.193 91.2339 547.146 92.0136H555.722ZM579.129 99.5269C578.255 100.755 577.145 101.736 575.798 102.468C574.475 103.177 573.046 103.532 571.51 103.532C569.809 103.532 568.238 103.118 566.796 102.291C565.379 101.441 564.245 100.295 563.394 98.8535C562.567 97.4123 562.154 95.8529 562.154 94.1754C562.154 92.4743 562.567 90.915 563.394 89.4974C564.245 88.0561 565.379 86.9221 566.796 86.0951C568.238 85.2446 569.809 84.8193 571.51 84.8193C573.046 84.8193 574.475 85.1737 575.798 85.8825C577.121 86.5913 578.22 87.5482 579.094 88.7531L574.912 91.5174C573.92 90.407 572.786 89.8518 571.51 89.8518C570.329 89.8518 569.313 90.277 568.462 91.1276C567.611 91.9782 567.186 92.9941 567.186 94.1754C567.186 95.3568 567.611 96.3727 568.462 97.2233C569.313 98.0502 570.329 98.4637 571.51 98.4637C572.786 98.4637 573.92 97.9085 574.912 96.798L579.129 99.5269ZM588.288 96.6917C588.288 97.3532 588.465 97.8139 588.819 98.0738C589.197 98.3337 589.764 98.4637 590.52 98.4637C590.993 98.4637 591.513 98.4282 592.08 98.3574V103C590.898 103.118 589.918 103.177 589.138 103.177C587.154 103.177 585.665 102.74 584.673 101.866C583.704 100.968 583.22 99.3497 583.22 97.0106V89.7809H580.172V85.28H583.22V81.169L588.288 79.4678V85.28H592.009V89.7809H588.288V96.6917ZM598.266 82.8701C597.321 82.8701 596.577 82.622 596.033 82.1258C595.513 81.6061 595.254 80.9091 595.254 80.0349C595.254 79.1371 595.513 78.4283 596.033 77.9085C596.577 77.3887 597.321 77.1288 598.266 77.1288C599.187 77.1288 599.92 77.3887 600.463 77.9085C601.007 78.4283 601.278 79.1371 601.278 80.0349C601.278 80.9091 601.007 81.6061 600.463 82.1258C599.92 82.622 599.187 82.8701 598.266 82.8701ZM595.714 103V85.28H600.782V103H595.714ZM615.833 84.7838C617.676 84.7838 619.259 85.1855 620.582 85.9888C621.929 86.7921 622.957 87.9144 623.666 89.3556C624.374 90.7732 624.729 92.3798 624.729 94.1754C624.729 95.9711 624.374 97.5777 623.666 98.9953C622.957 100.389 621.929 101.488 620.582 102.291C619.259 103.095 617.676 103.496 615.833 103.496C614.77 103.496 613.742 103.307 612.75 102.929C611.758 102.551 610.848 102.008 610.021 101.299V103H604.953V78.192H610.021V87.0166C610.848 86.3078 611.758 85.7643 612.75 85.3863C613.742 84.9847 614.77 84.7838 615.833 84.7838ZM615.16 98.6763C616.483 98.6763 617.558 98.2629 618.385 97.4359C619.236 96.609 619.661 95.5222 619.661 94.1754C619.661 92.8287 619.236 91.7419 618.385 90.915C617.558 90.088 616.483 89.6746 615.16 89.6746C613.837 89.6746 612.726 90.088 611.829 90.915C610.931 91.7419 610.482 92.8051 610.482 94.1046C610.482 95.4513 610.931 96.5499 611.829 97.4005C612.726 98.251 613.837 98.6763 615.16 98.6763ZM632.76 97.4005C632.76 97.7785 632.842 98.0502 633.008 98.2156C633.197 98.381 633.504 98.4637 633.929 98.4637C634.236 98.4637 634.602 98.4282 635.028 98.3574V103C633.87 103.165 632.972 103.248 632.334 103.248C630.799 103.248 629.641 102.846 628.861 102.043C628.081 101.216 627.692 99.775 627.692 97.7194V78.192H632.76V97.4005ZM645.816 84.8193C647.541 84.8193 649.077 85.2327 650.423 86.0597C651.794 86.8866 652.857 88.0089 653.613 89.4265C654.369 90.8441 654.747 92.4153 654.747 94.14C654.747 94.8015 654.7 95.404 654.605 95.9474H641.493C641.941 97.0343 642.544 97.8494 643.3 98.3928C644.056 98.9126 645.037 99.1725 646.241 99.1725C646.974 99.1725 647.683 99.0189 648.368 98.7118C649.077 98.4046 649.632 97.9911 650.034 97.4714L653.861 99.7395C653.034 100.944 651.959 101.866 650.636 102.504C649.337 103.142 647.836 103.461 646.135 103.461C644.221 103.461 642.532 103.059 641.067 102.256C639.602 101.429 638.468 100.307 637.665 98.889C636.862 97.4714 636.46 95.8884 636.46 94.14C636.46 92.3916 636.85 90.8086 637.63 89.391C638.433 87.9734 639.543 86.863 640.961 86.0597C642.379 85.2327 643.997 84.8193 645.816 84.8193ZM649.998 92.0136C649.833 91.1158 649.36 90.4188 648.581 89.9226C647.824 89.4265 646.891 89.1784 645.781 89.1784C644.623 89.1784 643.619 89.4619 642.768 90.029C641.918 90.5724 641.469 91.2339 641.422 92.0136H649.998ZM661.923 90.3125C661.923 90.7141 662.171 91.0213 662.667 91.2339C663.163 91.4229 663.955 91.6238 665.042 91.8364C666.436 92.1199 667.593 92.4389 668.515 92.7933C669.436 93.1241 670.239 93.6911 670.925 94.4944C671.633 95.2741 671.988 96.3609 671.988 97.7549C671.988 98.9598 671.622 99.9994 670.889 100.874C670.157 101.724 669.188 102.374 667.983 102.823C666.778 103.248 665.479 103.461 664.085 103.461C662.171 103.461 660.541 103.118 659.194 102.433C657.847 101.724 656.831 100.685 656.146 99.3142L660.293 97.1878C660.86 98.6999 662.124 99.456 664.085 99.456C664.888 99.456 665.585 99.3142 666.176 99.0307C666.79 98.7236 667.097 98.2983 667.097 97.7549C667.097 97.2823 666.814 96.9279 666.247 96.6917C665.703 96.4554 664.829 96.2073 663.624 95.9474C662.254 95.6403 661.108 95.3213 660.186 94.9906C659.265 94.6362 658.473 94.1046 657.812 93.3958C657.15 92.6633 656.819 91.6946 656.819 90.4897C656.819 89.332 657.15 88.3278 657.812 87.4773C658.473 86.6031 659.359 85.9415 660.47 85.4926C661.604 85.0437 662.832 84.8193 664.156 84.8193C665.715 84.8193 667.121 85.1382 668.373 85.7762C669.625 86.4141 670.606 87.3355 671.314 88.5405L667.203 90.5606C666.92 89.9699 666.53 89.5328 666.034 89.2493C665.561 88.9658 664.935 88.824 664.156 88.824C663.47 88.824 662.927 88.9658 662.525 89.2493C662.124 89.5092 661.923 89.8636 661.923 90.3125Z" fill="white"/>
</svg>
