<svg width="63" height="57" viewBox="0 0 63 57" fill="none" xmlns="http://www.w3.org/2000/svg">
<path d="M15.0704 7.74207H15.7205L16.8434 7.91936L17.6117 8.21486L18.2027 8.56946L18.7937 9.10135L19.3255 9.69235L19.6801 10.2833L19.9756 11.1698L20.1529 12.2336V12.9428L19.9756 14.243L19.6801 15.1295L19.3255 15.7205L18.971 16.1342L18.38 16.4888L17.9663 16.607H17.4935L16.7843 16.3706L16.2524 16.016L15.9569 15.6614L15.8387 15.3659L15.8978 14.834L16.2524 14.3021L16.6661 13.8884L16.9025 13.2974V12.2336L16.7252 11.7608L16.3115 11.288L15.8387 11.0516L15.6614 10.9925H15.0113L14.4203 11.2289L13.8293 11.7608L13.4747 12.2336L13.2383 12.8246L13.1201 13.4747V14.7749L13.2974 15.6023L13.8293 16.7252L14.243 17.3162L14.6567 17.789L15.425 18.3209L16.1342 18.6164L16.9616 18.7937H18.5573L19.4437 18.5573L20.1529 18.2027L20.803 17.6708L21.3349 16.9025L21.8077 15.8387L22.1032 14.6567L22.2214 13.5338H41.3105L41.4287 13.652L41.5469 14.7158L41.8424 15.8978L42.2561 16.8434L42.6698 17.4344L42.9653 17.789L43.6745 18.3209L44.3837 18.6164L45.0929 18.7937L46.0385 18.8528L47.0432 18.7346L47.8706 18.4982L48.6389 18.0845L49.3481 17.4344L49.88 16.607L50.2937 15.7205L50.471 15.1295L50.5301 14.7158V13.5929L50.3528 12.7064L49.9982 11.9972L49.5254 11.4653L48.9344 11.1107L48.5207 10.9925H47.9297L47.2205 11.3471L46.8659 11.8199L46.6886 12.2927L46.6295 12.5291V13.061L46.8068 13.652L47.0432 14.0066L47.516 14.4794L47.7524 14.9522V15.4841L47.4569 15.9569L46.925 16.3115L46.3931 16.5479L46.1567 16.607H45.6839L45.0338 16.3706L44.561 16.016L44.0882 15.4841L43.7927 14.834L43.5563 13.8884L43.4972 13.4747V11.9381L43.6745 11.0516L43.97 10.2242L44.3837 9.57415L44.9156 8.98315L45.4475 8.51036L46.0385 8.15576L46.925 7.86026L47.7524 7.74207H48.4616L49.5845 7.91936L50.4119 8.21486L51.0619 8.56946L51.6529 9.04225L52.2439 9.63325L52.8349 10.5197L53.3077 11.7017L53.5441 12.6473L53.6032 13.061V14.5385L53.4259 15.5432L53.1304 16.5479L52.6576 17.4935L52.2439 18.1436L51.5347 18.9119L50.9437 19.4438L50.1755 19.9165L49.1708 20.3893L47.9297 20.803L47.6342 21.0394L47.5751 24.2308V46.8068L21.2167 46.925L20.5666 47.1023L20.0347 47.3978L19.5028 47.8706L19.0892 48.698L18.971 49.3481V50.471L19.1482 51.653L19.4437 52.4803L19.9165 53.1304L20.3893 53.485L21.0985 53.7214L21.8668 53.7805L22.576 53.6623L23.2852 53.3077L23.758 52.7758L23.9944 52.2439L24.1126 51.7711V51.2393L23.9353 50.5301L23.758 50.0573L24.0535 49.7027L24.1717 49.6436L48.698 49.5845L49.289 49.7618L49.7618 50.1755L49.9391 50.6483V52.0075L49.7027 53.0713L49.4072 53.7805L49.0526 54.3715L48.5798 54.9034L47.8115 55.4944L46.8659 55.9672L45.8612 56.2627L44.4428 56.44H22.8715L21.6304 56.3809L20.4484 56.1445L19.4437 55.7899L18.7346 55.3762L18.1436 54.9034L17.5526 54.3124L16.9616 53.4259L16.5479 52.4803L16.2524 51.2984L16.0751 49.7027V21.2167L15.9569 20.8621L15.3659 20.6848L14.4794 20.3893L13.2383 19.7984L12.5291 19.2665L11.8199 18.6164L11.1698 17.789L10.697 16.9616L10.2833 15.8387L10.0469 14.5976V12.8837L10.2833 11.7017L10.5788 10.8152L11.0516 9.92874L11.7017 9.16045L12.2927 8.68766L13.1201 8.21486L13.9475 7.91936L15.0704 7.74207Z" fill="#FEFEFE"/>
<path d="M27.0085 36.8781H27.9541L28.5451 37.0554L29.1952 37.4099L29.727 37.9418L30.1998 38.7692L30.4953 39.8921L30.6726 41.606L30.7317 41.9015L31.2045 41.7833L31.9728 41.3696L32.9184 40.7786L34.2186 40.0694L35.1051 39.833L35.4597 39.7739H36.228L36.9372 39.9512L37.8828 40.424L39.0057 41.015L39.8331 41.1923L40.7195 41.1332L41.7242 40.8968L42.2561 40.9559L42.5516 41.1332L42.7289 41.4878V41.9015L42.4334 42.4334L42.1379 42.788L41.5469 43.2017L40.6013 43.6745L40.0694 43.7927H38.8875L38.1192 43.6154L36.7599 42.9653L35.9325 42.5516H35.2233L34.2777 43.0244L32.682 44.0882L31.6773 44.561L30.7908 44.7383L30.0225 44.6792L29.4315 44.4428L29.077 44.2064L28.7224 43.9109L28.3087 43.3199L28.0132 42.5516L27.5404 40.3649L27.4222 39.6557L27.1267 39.7148L26.6539 40.1285L26.0038 40.9559L25.1764 42.3743L24.7036 43.379L24.4081 44.0882L24.1717 44.3837L23.3443 44.7974H22.6351L22.1623 44.5019L21.9259 44.2064L21.8668 44.0291V43.6154L22.2214 42.3743L22.6942 41.1332L23.167 40.1876L23.758 39.3011L24.2899 38.651L25.1764 37.7645L25.7674 37.3508L26.5357 36.9963L27.0085 36.8781Z" fill="#010101"/>
<path d="M22.8124 26.0038H40.8377L41.4287 26.2993L41.8424 26.7721L42.0197 27.1858V27.8359L41.7242 28.4269L41.2514 28.8406L40.6604 29.0179H23.1079L22.3987 28.8406L21.9259 28.486L21.6304 28.0132L21.5713 27.7768V27.2449L21.7486 26.7721L22.1623 26.2993L22.576 26.0629L22.8124 26.0038Z" fill="#010101"/>
<path d="M22.8124 20.212H40.9559L41.4287 20.4484L41.8424 20.9212L42.0197 21.3349V22.1032L41.7833 22.576L41.3105 22.9897L40.7786 23.167H23.0488L22.4578 22.9897L21.985 22.6351L21.6895 22.1032L21.6304 21.5713L21.8077 21.0394L22.1623 20.5666L22.6351 20.2711L22.8124 20.212Z" fill="#010101"/>
<path d="M23.0488 31.7365H32.9184L33.3912 31.8546L33.864 32.1501L34.1595 32.5047L34.3368 32.9184V33.5685L34.1595 34.0413L33.9231 34.3368L33.4503 34.6323L33.0366 34.7505H22.9306L22.3396 34.5732L21.9259 34.2777L21.6304 33.8049L21.5713 33.6276V32.9184L21.8668 32.3274L22.2805 31.9728L22.6942 31.7955L23.0488 31.7365Z" fill="#010101"/>
<path d="M0 0H63V0.118199L0.118199 0.177298L0 0.236398V0Z" fill="#212121"/>
</svg>
