<svg width="47" height="50" viewBox="0 0 47 50" fill="none" xmlns="http://www.w3.org/2000/svg">
<path d="M22.7818 0H24.4198L25.6547 0.0756048L26.6627 0.176411L27.444 0.302419L27.8724 0.428427L28.326 0.63004L28.6788 0.831653L29.0064 1.08367L29.334 1.38609L29.5609 1.6381L29.8129 1.99093L30.0649 2.46976L30.2161 2.87298L30.3421 3.42742L30.3925 4.08266L30.4429 4.6875L30.5437 5.29234L30.6949 5.79637L30.9469 6.40121L31.2493 6.93044L31.5517 7.33367L31.7786 7.58569L31.955 7.7873L32.2322 8.03931L32.5598 8.29133L33.0386 8.59375L33.6182 8.87097L34.2231 9.07258L34.8531 9.19859L35.3319 9.24899H35.8863L36.5416 9.17339L37.1464 9.02218L37.6252 8.84577L38.2552 8.54335L38.6584 8.34173L39.0617 8.19052L39.4901 8.08972L39.9437 8.03931H40.3721L40.8257 8.08972L41.3046 8.21573L41.8086 8.41734L42.2118 8.64415L42.5142 8.87097L42.8166 9.14819L43.0686 9.4002L43.3458 9.75302L43.6987 10.2319L44.0011 10.6603L44.2783 11.0635L44.6059 11.5675L44.9083 12.0464L45.2863 12.7016L45.6139 13.3065L45.9668 13.9869L46.3448 14.7933L46.7228 15.7006L46.8992 16.2298L46.9748 16.6079L47 16.8095V17.5403L46.9496 17.8931L46.8236 18.372L46.622 18.8508L46.4456 19.1784L46.1936 19.5312L45.8912 19.8589L45.6895 20.0605L45.3115 20.3377L44.8327 20.6401L44.4799 20.8921L44.1019 21.2198L43.8247 21.497L43.5475 21.8498L43.2954 22.2026L43.0434 22.6562L42.8418 23.1099L42.6906 23.5635L42.5646 24.0927L42.489 24.7732V25.252L42.5646 25.8821L42.6906 26.4365L42.8418 26.8901L43.119 27.495L43.3962 27.9486L43.6483 28.2762L43.9507 28.629L44.1271 28.8054L44.4043 29.0323L44.7319 29.2843L45.2863 29.6371L45.5887 29.8639L45.8408 30.0907L45.9416 30.1663V30.2167H45.992L46.2188 30.494L46.4708 30.8468L46.6724 31.25L46.8236 31.6028L46.9496 32.0817L47 32.4093V33.2157L46.9244 33.6694L46.7732 34.1734L46.5464 34.7278L46.2692 35.3579L45.9668 36.0131L45.7147 36.4919L45.3871 37.122L45.0343 37.7268L44.7319 38.2308L44.3287 38.8609L44.0515 39.2641L43.7995 39.6169L43.4467 40.0958L43.119 40.5242L43.0434 40.625H42.993L42.9426 40.7258L42.6906 40.9778L42.3378 41.255L42.0102 41.4567L41.6574 41.6331L41.229 41.7843L40.6745 41.9103L40.4477 41.9355H39.8177L39.3137 41.8599L38.8097 41.7087L37.5496 41.1038L37.0204 40.9274L36.466 40.8014L36.0879 40.751H35.0799L34.4499 40.8518L33.845 41.0282L33.467 41.1794L33.0638 41.3811L32.6102 41.6583L32.2574 41.9355L31.8794 42.2883L31.6021 42.5907L31.2493 43.0696L30.9469 43.5988L30.7201 44.128L30.5689 44.6069L30.4681 45.0857L30.4177 45.5393L30.3673 46.3206L30.2917 46.7994L30.1909 47.1774L30.0397 47.5554L29.8633 47.9083L29.5861 48.3115L29.3592 48.5887L29.1576 48.7651L28.9056 48.9919L28.4772 49.2692L27.9984 49.496L27.6204 49.622L27.0156 49.748L25.9823 49.874L25.0751 49.9496L23.815 50H23.0842L22.2525 49.9748L21.2445 49.8992L20.4885 49.8236L19.7828 49.7228L19.3544 49.622L18.8756 49.4456L18.4472 49.2188L18.0944 48.9667L17.792 48.6895L17.5147 48.4123L17.2123 47.9839L16.9855 47.5806L16.8343 47.2026L16.7335 46.8498L16.6579 46.371L16.5823 45.3125L16.4815 44.7329L16.3303 44.2288L16.1287 43.7248L15.8263 43.1452L15.5239 42.7167L15.2214 42.3639L14.919 42.0615L14.6418 41.8347L14.2134 41.5323L13.7598 41.2802L13.1802 41.0282L12.5501 40.8518L11.9201 40.751H10.9121L10.282 40.8518L9.72761 41.003L9.24879 41.2046L8.84558 41.4062L8.26595 41.6835L7.78713 41.8347L7.38391 41.9103L7.1571 41.9355H6.52708L6.14906 41.8851L5.67024 41.7591L5.14102 41.5323L4.7126 41.2802L4.30938 40.9526L4.03217 40.6754L3.75496 40.3226L3.40214 39.869L3.07453 39.4153L2.4193 38.4325L2.11689 37.9536L1.76408 37.3488L1.43646 36.744L1.18445 36.2651L0.907239 35.7107L0.579625 34.9798L0.277212 34.249L0.151206 33.871L0.0504021 33.4425L0 33.0141V32.6613L0.0504021 32.2077L0.176408 31.6784L0.378016 31.1744L0.630027 30.7208L0.907239 30.3679L1.20965 30.0403L1.61287 29.7127L2.09169 29.4103L2.49491 29.1331L2.84772 28.8306L3.04933 28.6542L3.07453 28.6038H3.12493L3.17534 28.503L3.37694 28.2762L3.67936 27.873L3.90617 27.495L4.15818 26.9405L4.35979 26.3357L4.46059 25.8569L4.51099 25.4788V24.5716L4.43539 24.0171L4.30938 23.4879L4.10777 22.9335L3.90617 22.505L3.62895 22.0514L3.32654 21.6482L3.02413 21.3206L2.79732 21.0938L2.4445 20.8165L2.06649 20.5645L1.71367 20.3377L1.41126 20.1109L1.15925 19.8841L0.907239 19.6321L0.579625 19.1784L0.352815 18.7752L0.176408 18.3216L0.0504021 17.8175L0 17.3891V16.9859L0.0504021 16.5575L0.176408 16.0282L0.428418 15.373L0.781233 14.5665L1.20965 13.6845L1.56247 13.004L1.91528 12.3992L2.19249 11.9204L2.49491 11.4415L2.79732 10.9879L3.07453 10.5847L3.40214 10.131L3.70456 9.72782L4.03217 9.3246L4.43539 8.92137L4.81341 8.64415L5.21662 8.41734L5.61984 8.24093L6.09866 8.11492L6.40107 8.06452L6.70349 8.03931H7.0815L7.66113 8.11492L8.08954 8.24093L8.46756 8.39214L9.09759 8.71976L9.57641 8.92137L10.03 9.07258L10.6601 9.19859L11.1893 9.24899H11.6933L12.3485 9.17339L12.9786 9.02218L13.4574 8.84577L13.9362 8.61895L14.415 8.31653L14.7426 8.06452L14.9946 7.8377L15.0954 7.7369H15.1458L15.1962 7.63609L15.4231 7.40927L15.7507 6.95565L16.0027 6.52722L16.2295 6.04839L16.3807 5.64516L16.5319 5.04032L16.6075 4.43548L16.6579 3.57863L16.7839 2.94859L16.9603 2.46976L17.2123 1.99093L17.5903 1.4869H17.6408L17.6912 1.38609L17.918 1.15927L18.3212 0.856855L18.6488 0.655242L19.0268 0.478831L19.5056 0.327621L20.0349 0.226815L21.0933 0.100806L22.1013 0.0252016L22.7818 0ZM23.059 17.5907L22.5046 17.6411L21.7233 17.7923L21.0429 17.994L20.3625 18.2712L19.7828 18.5736L19.43 18.8004L19.0016 19.1028L18.674 19.38L18.4724 19.5565L17.9684 20.0605L17.7416 20.3377L17.5651 20.5645L17.2627 20.9929L16.9855 21.4718L16.7083 22.0262L16.4815 22.631L16.3051 23.2359L16.1791 23.8659L16.1287 24.2692L16.1035 24.622V25.3528L16.1539 25.9325L16.2799 26.6381L16.4563 27.2933L16.7083 27.9486L17.0107 28.5786L17.3131 29.0827L17.5651 29.4355L17.8928 29.8387L18.17 30.1411L18.5228 30.494L19.0772 30.9476L19.682 31.3508L20.2365 31.6532L20.7405 31.88L21.2949 32.0817L21.8745 32.2329L22.4038 32.3337L23.1598 32.4093H23.815L24.4198 32.3589L25.0247 32.2581L25.7051 32.0817L26.3351 31.8548L26.9903 31.5524L27.4692 31.2752L27.8724 30.998L28.2 30.746L28.578 30.4183L29.0064 29.9899L29.2332 29.7127L29.5105 29.3599L29.6869 29.1079L29.8885 28.7802L30.1405 28.3266L30.3925 27.7722L30.6697 26.9405L30.7957 26.3609L30.8713 25.9073L30.8965 25.63V24.3952L30.7957 23.6391L30.6445 22.9839L30.4177 22.3034L30.1405 21.6734L29.9137 21.245L29.6113 20.7661L29.3845 20.4637L29.1576 20.1865L28.9308 19.9345L28.7544 19.7329L28.4268 19.4304L27.9984 19.0776L27.3936 18.6744L26.9399 18.4224L26.5367 18.2208L25.9067 17.9688L25.2767 17.7923L24.8231 17.6915L24.2938 17.6159L23.9662 17.5907H23.059Z" fill="white"/>
</svg>
