<svg width="571" height="183" viewBox="0 0 571 183" fill="none" xmlns="http://www.w3.org/2000/svg">
<path d="M255.28 68.296C251.867 68.296 249.179 67.4 247.216 65.608C245.339 63.7307 244.4 61.2133 244.4 58.056C244.4 54.8133 245.339 52.2533 247.216 50.376C249.179 48.4987 251.867 47.56 255.28 47.56C258.608 47.56 261.253 48.4987 263.216 50.376C265.179 52.2533 266.16 54.8133 266.16 58.056C266.16 61.2133 265.179 63.7307 263.216 65.608C261.253 67.4 258.608 68.296 255.28 68.296ZM246.064 141V77H264.368V141H246.064ZM325.701 51.4H343.877V141H325.701V136.136C322.885 138.269 319.813 139.891 316.485 141C313.242 142.195 309.872 142.792 306.373 142.792C299.717 142.792 293.957 141.341 289.093 138.44C284.314 135.539 280.645 131.571 278.085 126.536C275.525 121.416 274.245 115.613 274.245 109.128C274.245 102.643 275.525 96.84 278.085 91.72C280.645 86.5147 284.314 82.4613 289.093 79.56C293.957 76.6587 299.717 75.208 306.373 75.208C309.786 75.208 313.157 75.8053 316.485 77C319.813 78.1093 322.885 79.7307 325.701 81.864V51.4ZM308.805 125.384C313.584 125.384 317.594 123.848 320.837 120.776C324.08 117.704 325.701 113.736 325.701 108.872C325.701 104.179 324.08 100.339 320.837 97.352C317.594 94.3653 313.584 92.872 308.805 92.872C304.026 92.872 300.101 94.3653 297.029 97.352C293.957 100.339 292.421 104.264 292.421 109.128C292.421 113.992 293.957 117.917 297.029 120.904C300.101 123.891 304.026 125.384 308.805 125.384ZM387.519 75.336C393.748 75.336 399.295 76.8293 404.159 79.816C409.108 82.8027 412.948 86.856 415.679 91.976C418.41 97.096 419.775 102.771 419.775 109C419.775 111.389 419.604 113.565 419.263 115.528H371.903C373.524 119.453 375.7 122.397 378.431 124.36C381.162 126.237 384.703 127.176 389.055 127.176C391.7 127.176 394.26 126.621 396.735 125.512C399.295 124.403 401.3 122.909 402.751 121.032L416.575 129.224C413.588 133.576 409.706 136.904 404.927 139.208C400.234 141.512 394.815 142.664 388.671 142.664C381.759 142.664 375.658 141.213 370.367 138.312C365.076 135.325 360.98 131.272 358.079 126.152C355.178 121.032 353.727 115.315 353.727 109C353.727 102.685 355.135 96.968 357.951 91.848C360.852 86.728 364.863 82.7173 369.983 79.816C375.103 76.8293 380.948 75.336 387.519 75.336ZM402.623 101.32C402.026 98.0773 400.319 95.56 397.503 93.768C394.772 91.976 391.402 91.08 387.391 91.08C383.21 91.08 379.583 92.104 376.511 94.152C373.439 96.1147 371.818 98.504 371.647 101.32H402.623ZM470.72 77H489.024V141H470.72V136.648C465.856 140.744 460.693 142.792 455.232 142.792C451.477 142.792 447.68 141.981 443.84 140.36C440 138.739 436.715 135.88 433.984 131.784C431.253 127.688 429.888 122.184 429.888 115.272V77H448.192V115.272C448.192 119.283 449.344 122.227 451.648 124.104C453.952 125.896 456.683 126.792 459.84 126.792C462.912 126.792 465.472 125.683 467.52 123.464C469.653 121.245 470.72 117.704 470.72 112.84V77ZM538.475 75.208C542.23 75.208 546.027 76.0187 549.867 77.64C553.707 79.2613 556.992 82.12 559.723 86.216C562.454 90.312 563.819 95.816 563.819 102.728V141H545.515V102.728C545.515 98.632 544.363 95.688 542.059 93.896C539.84 92.104 537.152 91.208 533.995 91.208C530.838 91.208 528.192 92.3173 526.059 94.536C524.011 96.7547 522.987 100.296 522.987 105.16V141H504.683V77H522.987V81.352C527.851 77.256 533.014 75.208 538.475 75.208Z" fill="white"/>
<path d="M29.3342 0H33.4295L35.9058 0.31528L38.8583 0.94584L41.144 1.68149L43.525 2.62733L45.4299 3.57317L47.3347 4.7292L48.6681 5.67504L50.0014 6.72597L51.3348 7.882L52.4777 9.03802L53.7158 10.2991L55.1444 11.9806L56.0016 13.1367L57.335 15.1334L58.4779 17.1302L59.5255 19.2321L60.5732 21.8594L61.5256 25.0122L62.097 27.5344L62.478 30.2669L62.6685 33.1044V34.4706L60.4779 34.5757H55.2397L54.9539 34.3655L54.7635 31.6331L54.2873 28.5854L53.8111 26.5886L52.8586 23.8562L51.9062 21.7543L50.9538 20.0728L50.1919 18.9168L49.43 17.8659L48.5728 16.8149L46.7632 14.8182L45.1441 13.4519L43.4298 12.1908L40.8583 10.7195L38.9535 9.87877L36.9534 9.24821L34.4772 8.72274L31.5247 8.51256L29.2389 8.61765L27.1436 8.93293L24.7626 9.56349L22.8578 10.2991L20.953 11.245L19.0482 12.401L17.5243 13.557L16.1909 14.7131L14.6671 16.2895L13.3337 17.8659L12.3813 19.2321L11.1432 21.3339L9.90504 23.9613L8.95264 26.6937L8.57167 28.2701L8.09547 31.2127L7.71451 34.4706L7.33354 34.5757H0.190482L0 34.3655L0.190482 31.4229L0.571445 28.2701L1.14289 25.5377L2.28578 21.7543L3.33343 19.2321L4.1906 17.4455L5.23824 15.5538L7.2383 12.6112L8.28595 11.3501L8.95264 10.5093L10.5717 8.72274L12.667 6.83107L14.2861 5.56995L15.7147 4.62411L17.6195 3.46808L20.0006 2.31205L22.8578 1.26112L25.2388 0.63056L28.096 0.105093L29.3342 0Z" fill="white"/>
<path d="M30.4401 17.2881H32.1343L34.205 17.6094L35.9933 18.0378L37.7816 18.7875L39.2875 19.6444L40.7935 20.7154L41.8288 21.6794L43.0524 22.9646L44.0877 24.2498L45.2172 26.1777L46.2525 28.4269L47.0996 31.3187L47.4761 33.675V37.5307L47.1938 39.5657L46.7232 41.4936L46.1584 43.1002L45.4055 44.8138L44.4642 46.5275L43.4289 47.9198L42.77 48.7767L41.6406 49.9548L40.0405 51.2401L37.8757 52.5253L36.0874 53.275L34.1108 53.8106L32.8873 54.0248H29.6871L27.24 53.4892L25.2634 52.7395L23.6633 51.8827L22.1574 50.8116L20.9338 49.7406L19.7102 48.4554L18.769 47.2772L17.6395 45.4564L16.7925 43.7428L16.0395 41.6007L15.5689 39.7799L15.2865 37.9592L15.1924 36.3526V34.9602L15.3806 32.7111L15.7571 30.7832L16.3218 28.8553L17.1689 26.8203L18.1102 25.1067L19.8043 22.7504L20.8397 21.6794L22.3456 20.3941L23.7575 19.4302L25.3575 18.5733L27.0517 17.9307L29.3106 17.3952L30.4401 17.2881ZM31.1931 25.8564L29.3106 26.1777L27.8988 26.7132L26.8635 27.3559L26.0164 28.1056L25.0752 29.0695L24.3222 30.1406L23.4751 31.8542L23.0045 33.4608L22.9104 34.1034V37.2094L23.2869 38.9231L23.7575 40.2083L24.4163 41.3865L25.2634 42.5646L26.2987 43.5286L27.3341 44.2783L28.3694 44.8138L29.593 45.2422L30.0636 45.3493H32.6049L34.1108 44.9209L35.8992 43.957L37.1227 42.8859L37.8757 42.0291L38.7228 40.6368L39.4758 38.816L39.8523 36.8881V34.5318L39.5699 32.8182L38.9111 31.1045L38.3463 30.0335L37.4992 28.9624L36.6521 27.9985L35.3344 27.0346L34.0167 26.3919L32.9814 26.0706L31.6637 25.8564H31.1931Z" fill="white"/>
<path d="M82.624 12.9658C98.4808 12.9659 113.044 16.7683 126.312 24.373C139.741 31.8161 150.34 42.0911 158.106 55.1973C166.035 68.1416 169.999 82.5426 169.999 98.3994C169.999 114.256 166.116 128.658 158.35 141.603C150.583 154.385 139.984 164.497 126.554 171.94C113.124 179.222 98.4808 182.863 82.624 182.863H12.9658V71.3125H49.3721V148.155H82.624C91.8468 148.155 100.342 145.971 108.108 141.603C116.037 137.072 122.266 131.004 126.797 123.399C131.327 115.795 133.593 107.38 133.593 98.1572C133.593 88.9344 131.327 80.4395 126.797 72.6729C122.266 64.9063 116.037 58.7571 108.108 54.2266C100.342 49.6961 91.8468 47.4307 82.624 47.4307H75.6348V12.9658H82.624Z" fill="white"/>
</svg>
