<svg width="45" height="12" viewBox="0 0 45 12" fill="none" xmlns="http://www.w3.org/2000/svg">
<path d="M10.848 11.2H8.28798L7.50398 9.08795H3.35998L2.57598 11.2H-1.70842e-05L4.14398 -4.95911e-05H6.71998L10.848 11.2ZM5.43998 3.48795L4.19198 6.81595H6.67198L5.43998 3.48795ZM16.8236 2.97595C17.6556 2.97595 18.3703 3.15728 18.9676 3.51995C19.5756 3.88262 20.0396 4.38928 20.3596 5.03995C20.6796 5.67995 20.8396 6.40528 20.8396 7.21595C20.8396 8.02662 20.6796 8.75195 20.3596 9.39195C20.0396 10.0213 19.5756 10.5173 18.9676 10.88C18.3703 11.2426 17.6556 11.424 16.8236 11.424C16.3436 11.424 15.8796 11.3386 15.4316 11.168C14.9836 10.9973 14.5729 10.752 14.1996 10.432V11.2H11.9116V-4.95911e-05H14.1996V3.98395C14.5729 3.66395 14.9836 3.41862 15.4316 3.24795C15.8796 3.06662 16.3436 2.97595 16.8236 2.97595ZM16.5196 9.24795C17.1169 9.24795 17.6023 9.06128 17.9756 8.68795C18.3596 8.31462 18.5516 7.82395 18.5516 7.21595C18.5516 6.60795 18.3596 6.11728 17.9756 5.74395C17.6023 5.37062 17.1169 5.18395 16.5196 5.18395C15.9223 5.18395 15.4209 5.37062 15.0156 5.74395C14.6103 6.11728 14.4076 6.59728 14.4076 7.18395C14.4076 7.79195 14.6103 8.28795 15.0156 8.67195C15.4209 9.05595 15.9223 9.24795 16.5196 9.24795ZM25.9692 11.44C25.2012 11.44 24.4919 11.2533 23.8412 10.88C23.2012 10.496 22.6892 9.97862 22.3052 9.32795C21.9319 8.67728 21.7452 7.97328 21.7452 7.21595C21.7452 6.44795 21.9319 5.74395 22.3052 5.10395C22.6892 4.45328 23.2012 3.94128 23.8412 3.56795C24.4919 3.18395 25.2012 2.99195 25.9692 2.99195C26.7266 2.99195 27.4252 3.18395 28.0652 3.56795C28.7159 3.94128 29.2279 4.45328 29.6012 5.10395C29.9852 5.74395 30.1772 6.44795 30.1772 7.21595C30.1772 7.97328 29.9852 8.67728 29.6012 9.32795C29.2279 9.97862 28.7159 10.496 28.0652 10.88C27.4252 11.2533 26.7266 11.44 25.9692 11.44ZM25.9532 9.15195C26.4866 9.15195 26.9452 8.96528 27.3292 8.59195C27.7132 8.20795 27.9052 7.74928 27.9052 7.21595C27.9052 6.68262 27.7132 6.22395 27.3292 5.83995C26.9452 5.45595 26.4866 5.26395 25.9532 5.26395C25.4199 5.26395 24.9612 5.45595 24.5772 5.83995C24.2039 6.22395 24.0172 6.68262 24.0172 7.21595C24.0172 7.74928 24.2039 8.20795 24.5772 8.59195C24.9612 8.96528 25.4199 9.15195 25.9532 9.15195ZM36.2444 3.19995H38.5324V11.2H36.2444V10.656C35.6364 11.168 34.991 11.424 34.3084 11.424C33.839 11.424 33.3644 11.3226 32.8844 11.12C32.4044 10.9173 31.9937 10.56 31.6524 10.048C31.311 9.53595 31.1404 8.84795 31.1404 7.98395V3.19995H33.4284V7.98395C33.4284 8.48528 33.5724 8.85328 33.8604 9.08795C34.1484 9.31195 34.4897 9.42395 34.8844 9.42395C35.2684 9.42395 35.5884 9.28528 35.8444 9.00795C36.111 8.73062 36.2444 8.28795 36.2444 7.67995V3.19995ZM43.0907 8.35195C43.0907 8.65062 43.1707 8.85862 43.3307 8.97595C43.5014 9.09328 43.7574 9.15195 44.0987 9.15195C44.3121 9.15195 44.5467 9.13595 44.8027 9.10395V11.2C44.2694 11.2533 43.8267 11.28 43.4747 11.28C42.5787 11.28 41.9067 11.0826 41.4587 10.688C41.0214 10.2826 40.8027 9.55195 40.8027 8.49595V5.23195H39.4267V3.19995H40.8027V1.34395L43.0907 0.575951V3.19995H44.7707V5.23195H43.0907V8.35195Z" fill="#EAEAEA"/>
</svg>
