<svg width="217" height="35" viewBox="0 0 217 35" fill="none" xmlns="http://www.w3.org/2000/svg">
<path d="M32.4367 33.4893H24.782L22.4377 27.1741H10.0467L7.70248 33.4893H-4.89447e-05L12.391 1.64107e-05H20.0935L32.4367 33.4893ZM16.2662 10.4295L12.5345 20.3806H19.95L16.2662 10.4295ZM50.3045 8.89859C52.7922 8.89859 54.9292 9.44079 56.7153 10.5252C58.5332 11.6096 59.9206 13.1246 60.8775 15.0702C61.8343 16.9838 62.3127 19.1527 62.3127 21.5767C62.3127 24.0006 61.8343 26.1695 60.8775 28.0831C59.9206 29.9649 58.5332 31.448 56.7153 32.5324C54.9292 33.6168 52.7922 34.159 50.3045 34.159C48.8692 34.159 47.4818 33.9039 46.1422 33.3936C44.8026 32.8833 43.5747 32.1497 42.4584 31.1929V33.4893H35.617V1.64107e-05H42.4584V11.9126C43.5747 10.9558 44.8026 10.2222 46.1422 9.7119C47.4818 9.16969 48.8692 8.89859 50.3045 8.89859ZM49.3955 27.6526C51.1816 27.6526 52.6328 27.0944 53.7491 25.9781C54.8973 24.8618 55.4714 23.3946 55.4714 21.5767C55.4714 19.7587 54.8973 18.2915 53.7491 17.1752C52.6328 16.0589 51.1816 15.5008 49.3955 15.5008C47.6094 15.5008 46.1103 16.0589 44.8983 17.1752C43.6863 18.2915 43.0803 19.7268 43.0803 21.481C43.0803 23.299 43.6863 24.7821 44.8983 25.9303C46.1103 27.0785 47.6094 27.6526 49.3955 27.6526ZM77.6509 34.2069C75.3545 34.2069 73.2335 33.6487 71.2879 32.5324C69.3743 31.3842 67.8433 29.8373 66.6951 27.8918C65.5788 25.9462 65.0207 23.8412 65.0207 21.5767C65.0207 19.2803 65.5788 17.1752 66.6951 15.2615C67.8433 13.316 69.3743 11.785 71.2879 10.6687C73.2335 9.52053 75.3545 8.94643 77.6509 8.94643C79.9154 8.94643 82.0045 9.52053 83.9182 10.6687C85.8637 11.785 87.3947 13.316 88.511 15.2615C89.6592 17.1752 90.2333 19.2803 90.2333 21.5767C90.2333 23.8412 89.6592 25.9462 88.511 27.8918C87.3947 29.8373 85.8637 31.3842 83.9182 32.5324C82.0045 33.6487 79.9154 34.2069 77.6509 34.2069ZM77.603 27.3655C79.1978 27.3655 80.5692 26.8074 81.7174 25.691C82.8656 24.5428 83.4397 23.1714 83.4397 21.5767C83.4397 19.9819 82.8656 18.6105 81.7174 17.4623C80.5692 16.3141 79.1978 15.74 77.603 15.74C76.0083 15.74 74.6369 16.3141 73.4886 17.4623C72.3723 18.6105 71.8142 19.9819 71.8142 21.5767C71.8142 23.1714 72.3723 24.5428 73.4886 25.691C74.6369 26.8074 76.0083 27.3655 77.603 27.3655ZM108.375 9.56837H115.216V33.4893H108.375V31.8626C106.557 33.3936 104.627 34.159 102.586 34.159C101.182 34.159 99.7631 33.856 98.3279 33.25C96.8926 32.6441 95.6647 31.5756 94.6441 30.0447C93.6234 28.5137 93.1131 26.4565 93.1131 23.8731V9.56837H99.9545V23.8731C99.9545 25.3721 100.385 26.4725 101.246 27.1741C102.107 27.8439 103.128 28.1788 104.308 28.1788C105.456 28.1788 106.413 27.7642 107.179 26.9349C107.976 26.1057 108.375 24.7821 108.375 22.9641V9.56837ZM128.846 24.9734C128.846 25.8665 129.085 26.4884 129.564 26.8393C130.074 27.1901 130.839 27.3655 131.86 27.3655C132.498 27.3655 133.2 27.3177 133.965 27.222V33.4893C132.37 33.6487 131.047 33.7285 129.994 33.7285C127.315 33.7285 125.306 33.1384 123.966 31.9583C122.659 30.7463 122.005 28.5616 122.005 25.404V15.6443H117.89V9.56837H122.005V4.01872L128.846 1.72232V9.56837H133.869V15.6443H128.846V24.9734ZM178.903 8.89859C180.306 8.89859 181.725 9.20159 183.161 9.80758C184.596 10.4136 185.824 11.482 186.844 13.013C187.865 14.5439 188.375 16.6011 188.375 19.1846V33.4893H181.582V19.1846C181.582 17.6536 181.151 16.5533 180.29 15.8835C179.429 15.2137 178.408 14.8788 177.228 14.8788C176.24 14.8788 175.378 15.1818 174.645 15.7878C173.943 16.3619 173.481 17.2709 173.257 18.5148V19.1846V33.4893H166.416V19.1846C166.416 17.6536 165.985 16.5533 165.124 15.8835C164.263 15.2137 163.243 14.8788 162.062 14.8788C161.074 14.8788 160.213 15.1818 159.479 15.7878C158.745 16.3938 158.283 17.3666 158.092 18.7062V33.4893H151.25V9.56837H158.092V11.0993C159.846 9.63216 161.744 8.89859 163.785 8.89859C165.188 8.89859 166.607 9.20159 168.043 9.80758C169.51 10.4136 170.706 11.4183 171.631 12.8216C172.46 11.7053 173.513 10.7804 174.788 10.0468C176.064 9.28132 177.436 8.89859 178.903 8.89859ZM204.17 8.94643C206.498 8.94643 208.571 9.50458 210.389 10.6209C212.239 11.7372 213.674 13.2522 214.695 15.1659C215.716 17.0795 216.226 19.2005 216.226 21.5288C216.226 22.4219 216.162 23.2352 216.035 23.9687H198.333C198.939 25.4359 199.753 26.5363 200.773 27.2698C201.794 27.9715 203.117 28.3223 204.744 28.3223C205.733 28.3223 206.69 28.115 207.615 27.7004C208.571 27.2858 209.321 26.7276 209.863 26.0259L215.03 29.0878C213.914 30.7144 212.463 31.9583 210.676 32.8195C208.922 33.6806 206.897 34.1112 204.601 34.1112C202.017 34.1112 199.737 33.569 197.759 32.4846C195.782 31.3683 194.251 29.8533 193.166 27.9396C192.082 26.0259 191.54 23.889 191.54 21.5288C191.54 19.1686 192.066 17.0317 193.118 15.118C194.203 13.2043 195.702 11.7053 197.616 10.6209C199.529 9.50458 201.714 8.94643 204.17 8.94643ZM209.815 18.6583C209.592 17.4463 208.954 16.5054 207.902 15.8356C206.881 15.1659 205.621 14.831 204.122 14.831C202.559 14.831 201.204 15.2137 200.056 15.9792C198.907 16.7127 198.301 17.6058 198.238 18.6583H209.815Z" fill="white"/>
</svg>
