<svg width="179" height="168" viewBox="0 0 179 168" fill="none" xmlns="http://www.w3.org/2000/svg">
<path d="M70.6822 156.217C70.6822 154.944 70.994 153.768 71.6178 152.689C72.2545 151.611 73.1121 150.76 74.1906 150.136C75.2691 149.499 76.4451 149.181 77.7185 149.181C79.0179 149.181 80.2198 149.519 81.3243 150.194C82.4288 150.87 83.2864 151.76 83.8971 152.865L81.3243 154.248C80.9605 153.599 80.4602 153.086 79.8235 152.709C79.1868 152.319 78.4851 152.124 77.7185 152.124C76.9778 152.124 76.2891 152.306 75.6524 152.67C75.0287 153.034 74.5349 153.534 74.1711 154.171C73.8073 154.794 73.6253 155.476 73.6253 156.217C73.6253 156.958 73.8073 157.646 74.1711 158.283C74.5479 158.907 75.0482 159.407 75.6719 159.784C76.2956 160.148 76.9778 160.33 77.7185 160.33C78.4851 160.33 79.1933 160.135 79.843 159.745C80.4927 159.342 80.993 158.809 81.3438 158.147L83.9361 159.55C83.3254 160.668 82.4613 161.571 81.3438 162.259C80.2393 162.935 79.0309 163.273 77.7185 163.273C76.4451 163.273 75.2691 162.955 74.1906 162.318C73.1121 161.681 72.2545 160.823 71.6178 159.745C70.994 158.666 70.6822 157.491 70.6822 156.217ZM94.5828 163H91.7956V157.25C91.7956 156.626 91.6202 156.178 91.2693 155.905C90.9185 155.619 90.5027 155.476 90.0219 155.476C89.6191 155.476 89.2683 155.606 88.9694 155.866C88.6705 156.113 88.4821 156.503 88.4042 157.036V163H85.6169V149.356H88.4042V153.956C89.1188 153.358 89.892 153.06 90.7236 153.06C91.2823 153.06 91.8476 153.183 92.4193 153.43C93.0041 153.664 93.5043 154.086 93.9201 154.697C94.3489 155.308 94.5698 156.133 94.5828 157.172V163ZM98.2514 151.929C97.7317 151.929 97.3223 151.793 97.0235 151.52C96.7376 151.234 96.5947 150.851 96.5947 150.37C96.5947 149.876 96.7376 149.486 97.0235 149.2C97.3223 148.914 97.7317 148.772 98.2514 148.772C98.7582 148.772 99.161 148.914 99.4599 149.2C99.7587 149.486 99.9082 149.876 99.9082 150.37C99.9082 150.851 99.7587 151.234 99.4599 151.52C99.161 151.793 98.7582 151.929 98.2514 151.929ZM96.8481 163V153.254H99.6353V163H96.8481ZM107.075 152.982C107.647 152.982 108.225 153.105 108.81 153.352C109.394 153.599 109.895 154.034 110.31 154.658C110.726 155.282 110.934 156.12 110.934 157.172V163H108.147V157.172C108.147 156.548 107.972 156.1 107.621 155.827C107.283 155.554 106.874 155.418 106.393 155.418C105.912 155.418 105.509 155.587 105.184 155.925C104.872 156.263 104.717 156.802 104.717 157.542V163H101.929V153.254H104.717V153.917C105.457 153.293 106.243 152.982 107.075 152.982ZM120.205 153.254H122.993V162.513C122.993 163.422 122.752 164.228 122.271 164.93C121.804 165.631 121.154 166.177 120.322 166.567C119.491 166.957 118.555 167.152 117.516 167.152C116.385 167.152 115.346 166.931 114.397 166.489C113.461 166.06 112.805 165.501 112.428 164.813L114.806 163.429C114.975 163.767 115.313 164.046 115.82 164.267C116.327 164.488 116.918 164.598 117.594 164.598C118.347 164.598 118.971 164.403 119.465 164.014C119.959 163.624 120.205 163.123 120.205 162.513V162.259C119.777 162.584 119.309 162.831 118.802 163C118.308 163.182 117.795 163.273 117.262 163.273C116.249 163.273 115.372 163.052 114.631 162.61C113.903 162.168 113.345 161.564 112.955 160.798C112.565 160.018 112.37 159.134 112.37 158.147C112.37 157.159 112.565 156.276 112.955 155.496C113.345 154.703 113.903 154.086 114.631 153.644C115.372 153.202 116.249 152.982 117.262 152.982C117.782 152.982 118.295 153.073 118.802 153.254C119.309 153.423 119.777 153.67 120.205 153.995V153.254ZM117.633 160.622C118.36 160.622 118.971 160.388 119.465 159.92C119.959 159.453 120.205 158.848 120.205 158.108C120.205 157.393 119.959 156.808 119.465 156.354C118.971 155.899 118.36 155.671 117.633 155.671C116.905 155.671 116.307 155.899 115.839 156.354C115.385 156.808 115.157 157.406 115.157 158.147C115.157 158.887 115.385 159.485 115.839 159.94C116.307 160.395 116.905 160.622 117.633 160.622ZM130.924 153.254H133.711V163H130.924V162.337C130.183 162.961 129.397 163.273 128.566 163.273C127.994 163.273 127.416 163.149 126.831 162.903C126.246 162.656 125.746 162.22 125.33 161.597C124.914 160.973 124.706 160.135 124.706 159.082V153.254H127.494V159.082C127.494 159.693 127.669 160.141 128.02 160.427C128.371 160.7 128.787 160.836 129.267 160.836C129.735 160.836 130.125 160.668 130.437 160.33C130.762 159.992 130.924 159.453 130.924 158.712V153.254Z" fill="white"/>
<mask id="mask0_27_3429" style="mask-type:luminance" maskUnits="userSpaceOnUse" x="23" y="0" width="156" height="156">
<path d="M179 0H23V156H179V0Z" fill="white"/>
</mask>
<g mask="url(#mask0_27_3429)">
<path d="M160.642 34.1578H94.8786L80.2645 19.5437H43.7293C35.6916 19.5437 29.1152 26.12 29.1152 34.1578V92.5392C89.4248 121.181 103.122 134.004 175.256 92.5392V48.7718C175.256 40.7341 168.68 34.1578 160.642 34.1578Z" fill="#5D5D5D"/>
<rect x="61" y="30" width="85.2134" height="85.2134" rx="14.247" fill="white"/>
<path d="M121.491 55.6886L128.719 61.7503C125.125 61.9788 108.252 63.1831 107.733 67.5809C107.37 70.6507 115.117 74.0754 120.093 75.9759C119.002 77.1909 117.391 79.293 116.362 82.2714C115.765 83.9972 113.343 91.0213 117.529 96.497C120.34 100.174 125.934 102.892 129.187 101.161C133.06 99.0991 134.087 90.4836 129.652 80.1747C127.63 78.7769 125.609 77.3764 123.59 75.9785C125.609 76.0511 141.3 76.5215 142.246 72.312C142.853 69.605 137.125 66.0244 133.617 64.0863C134.087 62.503 134.73 59.4601 133.617 56.159C132.289 52.2156 129.251 50.229 125.483 47.764C121.628 45.2399 118.623 43.2722 114.728 43.7937C114.09 43.8797 108.623 44.6888 107.542 48.6914C106.685 51.8688 109.109 55.1644 111.695 56.6187C114.655 58.2827 118.504 57.9198 121.488 55.6859L121.491 55.6886Z" fill="black"/>
<path d="M77.5753 48.2263C76.871 48.6645 75.785 49.1886 74.4652 49.1591C73.0324 49.1295 72.6937 48.4763 71.355 48.2263C68.9438 47.7747 65.7825 49.0946 64.9815 51.3338C64.8954 51.5703 64.5917 52.4628 64.8954 53.5111C65.5137 55.6428 67.976 56.0783 71.8227 58.4868C73.3066 59.4142 74.4248 60.2825 75.0861 60.8174C73.4356 59.6185 71.2932 59.5003 69.6695 60.4868C68.2771 61.3336 67.347 62.9437 67.468 64.3926C67.6696 66.7878 70.7771 69.1856 75.0861 68.9006C74.2044 69.5323 72.898 70.4839 71.355 71.6989C66.6562 75.3951 66.4357 76.2419 66.3793 76.6747C66.0728 79.0966 69.261 82.2364 72.2878 82.5831C76.2743 83.0374 81.051 78.766 82.8602 71.5457C83.6666 73.1344 86.8413 78.9354 92.653 79.9407C95.4997 80.4326 99.1233 79.7982 99.4942 78.387C99.7308 77.4811 98.5211 76.6854 94.9863 72.9462C93.6879 71.5726 92.6315 70.3898 91.8761 69.5269C95.0024 68.8038 95.6341 67.8065 95.7631 67.1963C96.3411 64.4356 88.4568 60.7395 86.5913 59.89C88.2955 59.8874 89.2794 59.5755 89.5455 58.9573C90.2202 57.3793 86.2311 53.8041 77.5753 48.2317V48.2263Z" fill="black"/>
<path d="M97.161 72.3065C102 78.172 103.954 78.2688 104.779 77.9166C106.142 77.336 105.914 72.57 105.4 63.0594C105.123 57.9278 104.744 54.0569 102.166 50.2424C101.535 49.3097 100.922 48.6 100.489 48.1349C99.6905 48.4091 98.5776 48.9226 97.6287 49.9333C95.7901 51.8929 95.6234 54.6133 96.1422 61.7772C96.3492 64.6615 96.6664 68.2233 97.1637 72.3065H97.161Z" fill="black"/>
<path d="M102.293 82.6155C104.613 81.4005 107.317 81.3387 109.287 82.6155C112.126 84.4542 113.163 88.895 110.973 92.6503C103.811 96.0131 97.8627 96.0292 94.8305 95.7954C87.7043 95.2524 76.6857 91.8169 75.8658 85.6907C75.6185 83.8386 76.3631 82.1935 76.9975 81.129C79.6775 82.6585 82.3576 84.1854 85.0376 85.7149C87.9596 85.7149 91.5268 85.4595 95.4998 84.602C98.0562 84.051 100.328 83.3467 102.293 82.6128V82.6155Z" fill="black"/>
<path d="M160.642 83.6784H43.7293C35.6916 83.6784 29.1152 87.072 29.1152 91.2199V128.927C29.1152 133.075 35.6916 136.469 43.7293 136.469H160.642C168.68 136.469 175.256 133.075 175.256 128.927V91.2199C175.256 87.072 168.68 83.6784 160.642 83.6784Z" fill="#3F3F3F"/>
</g>
</svg>
