<svg width="179" height="168" viewBox="0 0 179 168" fill="none" xmlns="http://www.w3.org/2000/svg">
<path d="M70.6822 156.217C70.6822 154.944 70.994 153.768 71.6178 152.689C72.2545 151.611 73.1121 150.76 74.1906 150.136C75.2691 149.499 76.4451 149.181 77.7185 149.181C79.0179 149.181 80.2198 149.519 81.3243 150.194C82.4288 150.87 83.2864 151.76 83.8971 152.865L81.3243 154.248C80.9605 153.599 80.4602 153.086 79.8235 152.709C79.1868 152.319 78.4851 152.124 77.7185 152.124C76.9778 152.124 76.2891 152.306 75.6524 152.67C75.0287 153.034 74.5349 153.534 74.1711 154.171C73.8073 154.794 73.6253 155.476 73.6253 156.217C73.6253 156.958 73.8073 157.646 74.1711 158.283C74.5479 158.907 75.0482 159.407 75.6719 159.784C76.2956 160.148 76.9778 160.33 77.7185 160.33C78.4851 160.33 79.1933 160.135 79.843 159.745C80.4927 159.342 80.993 158.809 81.3438 158.147L83.9361 159.55C83.3254 160.668 82.4613 161.571 81.3438 162.259C80.2393 162.935 79.0309 163.273 77.7185 163.273C76.4451 163.273 75.2691 162.955 74.1906 162.318C73.1121 161.681 72.2545 160.823 71.6178 159.745C70.994 158.666 70.6822 157.491 70.6822 156.217ZM94.5828 163H91.7956V157.25C91.7956 156.626 91.6202 156.178 91.2693 155.905C90.9185 155.619 90.5027 155.476 90.0219 155.476C89.6191 155.476 89.2683 155.606 88.9694 155.866C88.6705 156.113 88.4821 156.503 88.4042 157.036V163H85.6169V149.356H88.4042V153.956C89.1188 153.358 89.892 153.06 90.7236 153.06C91.2823 153.06 91.8476 153.183 92.4193 153.43C93.0041 153.664 93.5043 154.086 93.9201 154.697C94.3489 155.308 94.5698 156.133 94.5828 157.172V163ZM98.2514 151.929C97.7317 151.929 97.3223 151.793 97.0235 151.52C96.7376 151.234 96.5947 150.851 96.5947 150.37C96.5947 149.876 96.7376 149.486 97.0235 149.2C97.3223 148.914 97.7317 148.772 98.2514 148.772C98.7582 148.772 99.161 148.914 99.4599 149.2C99.7587 149.486 99.9082 149.876 99.9082 150.37C99.9082 150.851 99.7587 151.234 99.4599 151.52C99.161 151.793 98.7582 151.929 98.2514 151.929ZM96.8481 163V153.254H99.6353V163H96.8481ZM107.075 152.982C107.647 152.982 108.225 153.105 108.81 153.352C109.394 153.599 109.895 154.034 110.31 154.658C110.726 155.282 110.934 156.12 110.934 157.172V163H108.147V157.172C108.147 156.548 107.972 156.1 107.621 155.827C107.283 155.554 106.874 155.418 106.393 155.418C105.912 155.418 105.509 155.587 105.184 155.925C104.872 156.263 104.717 156.802 104.717 157.542V163H101.929V153.254H104.717V153.917C105.457 153.293 106.243 152.982 107.075 152.982ZM120.205 153.254H122.993V162.513C122.993 163.422 122.752 164.228 122.271 164.93C121.804 165.631 121.154 166.177 120.322 166.567C119.491 166.957 118.555 167.152 117.516 167.152C116.385 167.152 115.346 166.931 114.397 166.489C113.461 166.06 112.805 165.501 112.428 164.813L114.806 163.429C114.975 163.767 115.313 164.046 115.82 164.267C116.327 164.488 116.918 164.598 117.594 164.598C118.347 164.598 118.971 164.403 119.465 164.014C119.959 163.624 120.205 163.123 120.205 162.513V162.259C119.777 162.584 119.309 162.831 118.802 163C118.308 163.182 117.795 163.273 117.262 163.273C116.249 163.273 115.372 163.052 114.631 162.61C113.903 162.168 113.345 161.564 112.955 160.798C112.565 160.018 112.37 159.134 112.37 158.147C112.37 157.159 112.565 156.276 112.955 155.496C113.345 154.703 113.903 154.086 114.631 153.644C115.372 153.202 116.249 152.982 117.262 152.982C117.782 152.982 118.295 153.073 118.802 153.254C119.309 153.423 119.777 153.67 120.205 153.995V153.254ZM117.633 160.622C118.36 160.622 118.971 160.388 119.465 159.92C119.959 159.453 120.205 158.848 120.205 158.108C120.205 157.393 119.959 156.808 119.465 156.354C118.971 155.899 118.36 155.671 117.633 155.671C116.905 155.671 116.307 155.899 115.839 156.354C115.385 156.808 115.157 157.406 115.157 158.147C115.157 158.887 115.385 159.485 115.839 159.94C116.307 160.395 116.905 160.622 117.633 160.622ZM130.924 153.254H133.711V163H130.924V162.337C130.183 162.961 129.397 163.273 128.566 163.273C127.994 163.273 127.416 163.149 126.831 162.903C126.246 162.656 125.746 162.22 125.33 161.597C124.914 160.973 124.706 160.135 124.706 159.082V153.254H127.494V159.082C127.494 159.693 127.669 160.141 128.02 160.427C128.371 160.7 128.787 160.836 129.267 160.836C129.735 160.836 130.125 160.668 130.437 160.33C130.762 159.992 130.924 159.453 130.924 158.712V153.254Z" fill="white"/>
<mask id="mask0_27_3429" style="mask-type:luminance" maskUnits="userSpaceOnUse" x="23" y="0" width="156" height="156">
<path d="M179 0H23V156H179V0Z" fill="white"/>
</mask>
<g mask="url(#mask0_27_3429)">
<path d="M160.642 34.1578H94.8786L80.2645 19.5437H43.7293C35.6916 19.5437 29.1152 26.12 29.1152 34.1578V92.5392C89.4248 121.181 103.122 134.004 175.256 92.5392V48.7718C175.256 40.7341 168.68 34.1578 160.642 34.1578Z" fill="#5D5D5D"/>
<rect x="61" y="30" width="85.2134" height="85.2134" rx="14.247" fill="white"/>
<path d="M121.491 55.6886L128.719 61.7503C125.125 61.9788 108.252 63.1831 107.733 67.5809C107.37 70.6507 115.117 74.0754 120.093 75.9759C119.002 77.1909 117.391 79.293 116.362 82.2714C115.765 83.9972 113.343 91.0213 117.529 96.497C120.34 100.174 125.934 102.892 129.187 101.161C133.06 99.0991 134.087 90.4836 129.652 80.1747C127.63 78.7769 125.609 77.3764 123.59 75.9785C125.609 76.0511 141.3 76.5215 142.246 72.312C142.853 69.605 137.125 66.0244 133.617 64.0863C134.087 62.503 134.73 59.4601 133.617 56.159C132.289 52.2156 129.251 50.229 125.483 47.764C121.628 45.2399 118.623 43.2722 114.728 43.7937C114.09 43.8797 108.623 44.6888 107.542 48.6914C106.685 51.8688 109.109 55.1644 111.695 56.6187C114.655 58.2827 118.504 57.9198 121.488 55.6859L121.491 55.6886Z" fill="black"/>
<path d="M77.5753 48.2263C76.871 48.6645 75.785 49.1886 74.4652 49.1591C73.0324 49.1295 72.6937 48.4763 71.355 48.2263C68.9438 47.7747 65.7825 49.0946 64.9815 51.3338C64.8954 51.5703 64.5917 52.4628 64.8954 53.5111C65.5137 55.6428 67.976 56.0783 71.8227 58.4868C73.3066 59.4142 74.4248 60.2825 75.0861 60.8174C73.4356 59.6185 71.2932 59.5003 69.6695 60.4868C68.2771 61.3336 67.347 62.9437 67.468 64.3926C67.6696 66.7878 70.7771 69.1856 75.0861 68.9006C74.2044 69.5323 72.898 70.4839 71.355 71.6989C66.6562 75.3951 66.4357 76.2419 66.3793 76.6747C66.0728 79.0966 69.261 82.2364 72.2878 82.5831C76.2743 83.0374 81.051 78.766 82.8602 71.5457C83.6666 73.1344 86.8413 78.9354 92.653 79.9407C95.4997 80.4326 99.1233 79.7982 99.4942 78.387C99.7308 77.4811 98.5211 76.6854 94.9863 72.9462C93.6879 71.5726 92.6315 70.3898 91.8761 69.5269C95.0024 68.8038 95.6341 67.8065 95.7631 67.1963C96.3411 64.4356 88.4568 60.7395 86.5913 59.89C88.2955 59.8874 89.2794 59.5755 89.5455 58.9573C90.2202 57.3793 86.2311 53.8041 77.5753 48.2317V48.2263Z" fill="black"/>
<path d="M97.161 72.3065C102 78.172 103.954 78.2688 104.779 77.9166C106.142 77.336 105.914 72.57 105.4 63.0594C105.123 57.9278 104.744 54.0569 102.166 50.2424C101.535 49.3097 100.922 48.6 100.489 48.1349C99.6905 48.4091 98.5776 48.9226 97.6287 49.9333C95.7901 51.8929 95.6234 54.6133 96.1422 61.7772C96.3492 64.6615 96.6664 68.2233 97.1637 72.3065H97.161Z" fill="black"/>
<path d="M102.293 82.6155C104.613 81.4005 107.317 81.3387 109.287 82.6155C112.126 84.4542 113.163 88.895 110.973 92.6503C103.811 96.0131 97.8627 96.0292 94.8305 95.7954C87.7043 95.2524 76.6857 91.8169 75.8658 85.6907C75.6185 83.8386 76.3631 82.1935 76.9975 81.129C79.6775 82.6585 82.3576 84.1854 85.0376 85.7149C87.9596 85.7149 91.5268 85.4595 95.4998 84.602C98.0562 84.051 100.328 83.3467 102.293 82.6128V82.6155Z" fill="black"/>
<path d="M160.642 83.6784H43.7293C35.6916 83.6784 29.1152 87.072 29.1152 91.2199V128.927C29.1152 133.075 35.6916 136.469 43.7293 136.469H160.642C168.68 136.469 175.256 133.075 175.256 128.927V91.2199C175.256 87.072 168.68 83.6784 160.642 83.6784Z" fill="#3F3F3F"/>
</g>
<path d="M71.344 120.143C70.5813 120.143 69.9397 119.974 69.419 119.637C68.9057 119.3 68.5427 118.841 68.33 118.262L69.727 117.448C69.8737 117.815 70.079 118.086 70.343 118.262C70.6143 118.438 70.9627 118.526 71.388 118.526C71.7327 118.526 71.9967 118.445 72.18 118.284C72.3707 118.123 72.466 117.943 72.466 117.745C72.466 117.598 72.422 117.474 72.334 117.371C72.246 117.268 72.0957 117.173 71.883 117.085C71.6703 116.99 71.3623 116.883 70.959 116.766C70.255 116.561 69.694 116.282 69.276 115.93C68.858 115.578 68.649 115.076 68.649 114.423C68.649 113.961 68.7627 113.561 68.99 113.224C69.2247 112.879 69.5327 112.615 69.914 112.432C70.3027 112.249 70.7207 112.157 71.168 112.157C71.7913 112.157 72.3377 112.307 72.807 112.608C73.2763 112.901 73.643 113.319 73.907 113.862L72.477 114.676C72.3377 114.368 72.1617 114.144 71.949 114.005C71.7363 113.858 71.476 113.785 71.168 113.785C70.9333 113.785 70.7317 113.851 70.563 113.983C70.3943 114.108 70.31 114.254 70.31 114.423C70.31 114.562 70.343 114.683 70.409 114.786C70.4823 114.881 70.6107 114.973 70.794 115.061C70.9847 115.149 71.2633 115.248 71.63 115.358C72.1213 115.512 72.543 115.684 72.895 115.875C73.2543 116.058 73.5477 116.311 73.775 116.634C74.0097 116.957 74.127 117.36 74.127 117.844C74.127 118.306 74.006 118.713 73.764 119.065C73.522 119.41 73.1883 119.677 72.763 119.868C72.345 120.051 71.872 120.143 71.344 120.143ZM76.8723 118.042C76.8723 118.247 76.9273 118.39 77.0373 118.471C77.1546 118.552 77.3306 118.592 77.5653 118.592C77.7119 118.592 77.8733 118.581 78.0493 118.559V120C77.6826 120.037 77.3783 120.055 77.1363 120.055C76.5203 120.055 76.0583 119.919 75.7503 119.648C75.4496 119.369 75.2993 118.867 75.2993 118.141V115.897H74.3533V114.5H75.2993V113.224L76.8723 112.696V114.5H78.0273V115.897H76.8723V118.042ZM79.9694 113.752C79.676 113.752 79.445 113.675 79.2764 113.521C79.115 113.36 79.0344 113.143 79.0344 112.872C79.0344 112.593 79.115 112.373 79.2764 112.212C79.445 112.051 79.676 111.97 79.9694 111.97C80.2554 111.97 80.4827 112.051 80.6514 112.212C80.82 112.373 80.9044 112.593 80.9044 112.872C80.9044 113.143 80.82 113.36 80.6514 113.521C80.4827 113.675 80.2554 113.752 79.9694 113.752ZM79.1774 120V114.5H80.7504V120H79.1774ZM83.618 118.262C83.618 118.379 83.6437 118.464 83.695 118.515C83.7537 118.566 83.849 118.592 83.981 118.592C84.0764 118.592 84.19 118.581 84.322 118.559V120C83.9627 120.051 83.684 120.077 83.486 120.077C83.0094 120.077 82.65 119.952 82.408 119.703C82.166 119.446 82.045 118.999 82.045 118.361V112.3H83.618V118.262ZM86.701 118.262C86.701 118.379 86.7267 118.464 86.778 118.515C86.8367 118.566 86.932 118.592 87.064 118.592C87.1594 118.592 87.273 118.581 87.405 118.559V120C87.0457 120.051 86.767 120.077 86.569 120.077C86.0924 120.077 85.733 119.952 85.491 119.703C85.249 119.446 85.128 118.999 85.128 118.361V112.3H86.701V118.262ZM94.9039 120.154C94.1852 120.154 93.5215 119.974 92.9129 119.615C92.3042 119.256 91.8202 118.772 91.4609 118.163C91.1089 117.554 90.9329 116.891 90.9329 116.172C90.9329 115.453 91.1089 114.79 91.4609 114.181C91.8202 113.572 92.3042 113.092 92.9129 112.74C93.5215 112.381 94.1852 112.201 94.9039 112.201C95.6225 112.201 96.2862 112.381 96.8949 112.74C97.5035 113.092 97.9839 113.572 98.3359 114.181C98.6952 114.79 98.8749 115.453 98.8749 116.172C98.8749 116.891 98.6952 117.554 98.3359 118.163C97.9839 118.772 97.5035 119.256 96.8949 119.615C96.2862 119.974 95.6225 120.154 94.9039 120.154ZM94.9039 118.493C95.3219 118.493 95.7069 118.39 96.0589 118.185C96.4182 117.972 96.7005 117.69 96.9059 117.338C97.1185 116.979 97.2249 116.59 97.2249 116.172C97.2249 115.754 97.1185 115.369 96.9059 115.017C96.7005 114.665 96.4182 114.386 96.0589 114.181C95.7069 113.968 95.3219 113.862 94.9039 113.862C94.4859 113.862 94.0972 113.965 93.7379 114.17C93.3859 114.375 93.1072 114.658 92.9019 115.017C92.6965 115.369 92.5939 115.754 92.5939 116.172C92.5939 116.59 92.6965 116.979 92.9019 117.338C93.1145 117.69 93.3969 117.972 93.7489 118.185C94.1009 118.39 94.4859 118.493 94.9039 118.493ZM102.835 114.346C103.157 114.346 103.484 114.416 103.814 114.555C104.144 114.694 104.426 114.94 104.661 115.292C104.895 115.644 105.013 116.117 105.013 116.711V120H103.44V116.711C103.44 116.359 103.341 116.106 103.143 115.952C102.952 115.798 102.721 115.721 102.45 115.721C102.178 115.721 101.951 115.816 101.768 116.007C101.592 116.198 101.504 116.502 101.504 116.92V120H99.9308V114.5H101.504V114.874C101.922 114.522 102.365 114.346 102.835 114.346ZM110.245 114.5H111.818V119.725C111.818 120.238 111.682 120.693 111.411 121.089C111.147 121.485 110.78 121.793 110.311 122.013C109.842 122.233 109.314 122.343 108.727 122.343C108.089 122.343 107.502 122.218 106.967 121.969C106.439 121.727 106.069 121.412 105.856 121.023L107.198 120.242C107.293 120.433 107.484 120.59 107.77 120.715C108.056 120.84 108.39 120.902 108.771 120.902C109.196 120.902 109.548 120.792 109.827 120.572C110.106 120.352 110.245 120.07 110.245 119.725V119.582C110.003 119.765 109.739 119.905 109.453 120C109.174 120.103 108.885 120.154 108.584 120.154C108.012 120.154 107.517 120.029 107.099 119.78C106.688 119.531 106.373 119.19 106.153 118.757C105.933 118.317 105.823 117.818 105.823 117.261C105.823 116.704 105.933 116.205 106.153 115.765C106.373 115.318 106.688 114.969 107.099 114.72C107.517 114.471 108.012 114.346 108.584 114.346C108.877 114.346 109.167 114.397 109.453 114.5C109.739 114.595 110.003 114.735 110.245 114.918V114.5ZM108.793 118.658C109.204 118.658 109.548 118.526 109.827 118.262C110.106 117.998 110.245 117.657 110.245 117.239C110.245 116.836 110.106 116.506 109.827 116.249C109.548 115.992 109.204 115.864 108.793 115.864C108.382 115.864 108.045 115.992 107.781 116.249C107.524 116.506 107.396 116.843 107.396 117.261C107.396 117.679 107.524 118.016 107.781 118.273C108.045 118.53 108.382 118.658 108.793 118.658ZM115.557 120.165C115.029 120.165 114.542 120.037 114.094 119.78C113.654 119.516 113.302 119.16 113.038 118.713C112.782 118.266 112.653 117.782 112.653 117.261C112.653 116.733 112.782 116.249 113.038 115.809C113.302 115.362 113.654 115.01 114.094 114.753C114.542 114.489 115.029 114.357 115.557 114.357C116.078 114.357 116.558 114.489 116.998 114.753C117.446 115.01 117.798 115.362 118.054 115.809C118.318 116.249 118.45 116.733 118.45 117.261C118.45 117.782 118.318 118.266 118.054 118.713C117.798 119.16 117.446 119.516 116.998 119.78C116.558 120.037 116.078 120.165 115.557 120.165ZM115.546 118.592C115.913 118.592 116.228 118.464 116.492 118.207C116.756 117.943 116.888 117.628 116.888 117.261C116.888 116.894 116.756 116.579 116.492 116.315C116.228 116.051 115.913 115.919 115.546 115.919C115.18 115.919 114.864 116.051 114.6 116.315C114.344 116.579 114.215 116.894 114.215 117.261C114.215 117.628 114.344 117.943 114.6 118.207C114.864 118.464 115.18 118.592 115.546 118.592ZM120.113 113.752C119.82 113.752 119.589 113.675 119.42 113.521C119.259 113.36 119.178 113.143 119.178 112.872C119.178 112.593 119.259 112.373 119.42 112.212C119.589 112.051 119.82 111.97 120.113 111.97C120.399 111.97 120.626 112.051 120.795 112.212C120.964 112.373 121.048 112.593 121.048 112.872C121.048 113.143 120.964 113.36 120.795 113.521C120.626 113.675 120.399 113.752 120.113 113.752ZM119.321 120V114.5H120.894V120H119.321ZM125.093 114.346C125.415 114.346 125.742 114.416 126.072 114.555C126.402 114.694 126.684 114.94 126.919 115.292C127.153 115.644 127.271 116.117 127.271 116.711V120H125.698V116.711C125.698 116.359 125.599 116.106 125.401 115.952C125.21 115.798 124.979 115.721 124.708 115.721C124.436 115.721 124.209 115.816 124.026 116.007C123.85 116.198 123.762 116.502 123.762 116.92V120H122.189V114.5H123.762V114.874C124.18 114.522 124.623 114.346 125.093 114.346ZM132.503 114.5H134.076V119.725C134.076 120.238 133.94 120.693 133.669 121.089C133.405 121.485 133.038 121.793 132.569 122.013C132.1 122.233 131.572 122.343 130.985 122.343C130.347 122.343 129.76 122.218 129.225 121.969C128.697 121.727 128.327 121.412 128.114 121.023L129.456 120.242C129.551 120.433 129.742 120.59 130.028 120.715C130.314 120.84 130.648 120.902 131.029 120.902C131.454 120.902 131.806 120.792 132.085 120.572C132.364 120.352 132.503 120.07 132.503 119.725V119.582C132.261 119.765 131.997 119.905 131.711 120C131.432 120.103 131.143 120.154 130.842 120.154C130.27 120.154 129.775 120.029 129.357 119.78C128.946 119.531 128.631 119.19 128.411 118.757C128.191 118.317 128.081 117.818 128.081 117.261C128.081 116.704 128.191 116.205 128.411 115.765C128.631 115.318 128.946 114.969 129.357 114.72C129.775 114.471 130.27 114.346 130.842 114.346C131.135 114.346 131.425 114.397 131.711 114.5C131.997 114.595 132.261 114.735 132.503 114.918V114.5ZM131.051 118.658C131.462 118.658 131.806 118.526 132.085 118.262C132.364 117.998 132.503 117.657 132.503 117.239C132.503 116.836 132.364 116.506 132.085 116.249C131.806 115.992 131.462 115.864 131.051 115.864C130.64 115.864 130.303 115.992 130.039 116.249C129.782 116.506 129.654 116.843 129.654 117.261C129.654 117.679 129.782 118.016 130.039 118.273C130.303 118.53 130.64 118.658 131.051 118.658Z" fill="#1EFF00"/>
</svg>
