<svg width="81" height="15" viewBox="0 0 81 15" fill="none" xmlns="http://www.w3.org/2000/svg">
<path d="M2.39999 7.12005V9.39205H6.94399V11.6801H-1.26362e-05V0.480053H6.84799V2.75205H2.39999V4.83205H6.46399V7.12005H2.39999ZM13.3305 3.68005H16.1145L13.2345 7.69605L16.1145 11.6801L13.3145 11.6961L11.8425 9.64805L10.3705 11.6961L7.57049 11.6801L10.4505 7.69605L7.57049 3.68005H10.3545L11.8425 5.74405L13.3305 3.68005ZM21.6076 3.47205C22.4396 3.47205 23.1543 3.65339 23.7516 4.01605C24.3596 4.37872 24.8236 4.88005 25.1436 5.52005C25.4636 6.14939 25.6236 6.86939 25.6236 7.68005C25.6236 8.49072 25.4636 9.21605 25.1436 9.85605C24.8236 10.4961 24.3596 11.0027 23.7516 11.3761C23.1543 11.7387 22.4396 11.9201 21.6076 11.9201C21.1809 11.9201 20.7596 11.8454 20.3436 11.6961C19.9276 11.5574 19.5436 11.3547 19.1916 11.0881V14.8801H16.9036V3.68005H19.1916V4.30405C19.5436 4.03739 19.9223 3.83472 20.3276 3.69605C20.7436 3.54672 21.1703 3.47205 21.6076 3.47205ZM21.3036 9.69605C21.9009 9.69605 22.3863 9.51472 22.7596 9.15205C23.1436 8.77872 23.3356 8.28805 23.3356 7.68005C23.3356 7.07205 23.1436 6.58139 22.7596 6.20805C22.3863 5.83472 21.9009 5.64805 21.3036 5.64805C20.7063 5.64805 20.2049 5.84005 19.7996 6.22405C19.3943 6.60805 19.1916 7.09872 19.1916 7.69605C19.1916 8.29339 19.3889 8.77872 19.7836 9.15205C20.1889 9.51472 20.6956 9.69605 21.3036 9.69605ZM30.7269 3.47205C31.5055 3.47205 32.1989 3.65872 32.8069 4.03205C33.4255 4.40539 33.9055 4.91205 34.2469 5.55205C34.5882 6.19205 34.7589 6.90139 34.7589 7.68005C34.7589 7.97872 34.7375 8.25072 34.6949 8.49605H28.7749C28.9775 8.98672 29.2495 9.35472 29.5909 9.60005C29.9322 9.83472 30.3749 9.95205 30.9189 9.95205C31.2495 9.95205 31.5695 9.88272 31.8789 9.74405C32.1989 9.60539 32.4495 9.41872 32.6309 9.18405L34.3589 10.2081C33.9855 10.7521 33.5002 11.1681 32.9029 11.4561C32.3162 11.7441 31.6389 11.8881 30.8709 11.8881C30.0069 11.8881 29.2442 11.7067 28.5829 11.3441C27.9215 10.9707 27.4095 10.4641 27.0469 9.82405C26.6842 9.18405 26.5029 8.46939 26.5029 7.68005C26.5029 6.89072 26.6789 6.17605 27.0309 5.53605C27.3935 4.89605 27.8949 4.39472 28.5349 4.03205C29.1749 3.65872 29.9055 3.47205 30.7269 3.47205ZM32.6149 6.72005C32.5402 6.31472 32.3269 6.00005 31.9749 5.77605C31.6335 5.55205 31.2122 5.44005 30.7109 5.44005C30.1882 5.44005 29.7349 5.56805 29.3509 5.82405C28.9669 6.06939 28.7642 6.36805 28.7429 6.72005H32.6149ZM40.9745 3.52005L40.8145 5.68005C40.7398 5.64805 40.6172 5.63205 40.4465 5.63205C39.7958 5.63205 39.2625 5.81872 38.8465 6.19205C38.4412 6.55472 38.2385 7.03472 38.2385 7.63205V11.6801H35.9505V3.68005H38.2385V4.97605C38.4305 4.56005 38.7398 4.21339 39.1665 3.93605C39.5932 3.65872 40.1105 3.52005 40.7185 3.52005H40.9745ZM43.5251 2.59205C43.0984 2.59205 42.7624 2.48005 42.5171 2.25605C42.2824 2.02139 42.1651 1.70672 42.1651 1.31205C42.1651 0.90672 42.2824 0.58672 42.5171 0.352054C42.7624 0.117387 43.0984 5.34058e-05 43.5251 5.34058e-05C43.9411 5.34058e-05 44.2718 0.117387 44.5171 0.352054C44.7624 0.58672 44.8851 0.90672 44.8851 1.31205C44.8851 1.70672 44.7624 2.02139 44.5171 2.25605C44.2718 2.48005 43.9411 2.59205 43.5251 2.59205ZM42.3731 11.6801V3.68005H44.6611V11.6801H42.3731ZM50.0237 3.47205C50.8024 3.47205 51.4957 3.65872 52.1037 4.03205C52.7224 4.40539 53.2024 4.91205 53.5437 5.55205C53.8851 6.19205 54.0557 6.90139 54.0557 7.68005C54.0557 7.97872 54.0344 8.25072 53.9917 8.49605H48.0717C48.2744 8.98672 48.5464 9.35472 48.8877 9.60005C49.2291 9.83472 49.6717 9.95205 50.2157 9.95205C50.5464 9.95205 50.8664 9.88272 51.1757 9.74405C51.4957 9.60539 51.7464 9.41872 51.9277 9.18405L53.6557 10.2081C53.2824 10.7521 52.7971 11.1681 52.1997 11.4561C51.6131 11.7441 50.9357 11.8881 50.1677 11.8881C49.3037 11.8881 48.5411 11.7067 47.8797 11.3441C47.2184 10.9707 46.7064 10.4641 46.3437 9.82405C45.9811 9.18405 45.7997 8.46939 45.7997 7.68005C45.7997 6.89072 45.9757 6.17605 46.3277 5.53605C46.6904 4.89605 47.1917 4.39472 47.8317 4.03205C48.4717 3.65872 49.2024 3.47205 50.0237 3.47205ZM51.9117 6.72005C51.8371 6.31472 51.6237 6.00005 51.2717 5.77605C50.9304 5.55205 50.5091 5.44005 50.0077 5.44005C49.4851 5.44005 49.0317 5.56805 48.6477 5.82405C48.2637 6.06939 48.0611 6.36805 48.0397 6.72005H51.9117ZM59.4714 3.45605C59.9407 3.45605 60.4154 3.55739 60.8954 3.76005C61.3754 3.96272 61.786 4.32005 62.1274 4.83205C62.4687 5.34405 62.6394 6.03205 62.6394 6.89605V11.6801H60.3514V6.89605C60.3514 6.38405 60.2074 6.01605 59.9194 5.79205C59.642 5.56805 59.306 5.45605 58.9114 5.45605C58.5167 5.45605 58.186 5.59472 57.9194 5.87205C57.6634 6.14939 57.5354 6.59205 57.5354 7.20005V11.6801H55.2474V3.68005H57.5354V4.22405C58.1434 3.71205 58.7887 3.45605 59.4714 3.45605ZM71.37 10.1121C70.9753 10.6667 70.474 11.1094 69.866 11.4401C69.2687 11.7601 68.6233 11.9201 67.93 11.9201C67.162 11.9201 66.4527 11.7334 65.802 11.3601C65.162 10.9761 64.65 10.4587 64.266 9.80805C63.8927 9.15739 63.706 8.45339 63.706 7.69605C63.706 6.92805 63.8927 6.22405 64.266 5.58405C64.65 4.93339 65.162 4.42139 65.802 4.04805C66.4527 3.66405 67.162 3.47205 67.93 3.47205C68.6233 3.47205 69.2687 3.63205 69.866 3.95205C70.4633 4.27205 70.9593 4.70405 71.354 5.24805L69.466 6.49605C69.018 5.99472 68.506 5.74405 67.93 5.74405C67.3967 5.74405 66.938 5.93605 66.554 6.32005C66.17 6.70405 65.978 7.16272 65.978 7.69605C65.978 8.22939 66.17 8.68805 66.554 9.07205C66.938 9.44539 67.3967 9.63205 67.93 9.63205C68.506 9.63205 69.018 9.38139 69.466 8.88005L71.37 10.1121ZM76.1175 3.47205C76.8962 3.47205 77.5895 3.65872 78.1975 4.03205C78.8162 4.40539 79.2962 4.91205 79.6375 5.55205C79.9788 6.19205 80.1495 6.90139 80.1495 7.68005C80.1495 7.97872 80.1282 8.25072 80.0855 8.49605H74.1655C74.3682 8.98672 74.6402 9.35472 74.9815 9.60005C75.3228 9.83472 75.7655 9.95205 76.3095 9.95205C76.6402 9.95205 76.9602 9.88272 77.2695 9.74405C77.5895 9.60539 77.8402 9.41872 78.0215 9.18405L79.7495 10.2081C79.3762 10.7521 78.8908 11.1681 78.2935 11.4561C77.7068 11.7441 77.0295 11.8881 76.2615 11.8881C75.3975 11.8881 74.6348 11.7067 73.9735 11.3441C73.3122 10.9707 72.8002 10.4641 72.4375 9.82405C72.0748 9.18405 71.8935 8.46939 71.8935 7.68005C71.8935 6.89072 72.0695 6.17605 72.4215 5.53605C72.7842 4.89605 73.2855 4.39472 73.9255 4.03205C74.5655 3.65872 75.2962 3.47205 76.1175 3.47205ZM78.0055 6.72005C77.9308 6.31472 77.7175 6.00005 77.3655 5.77605C77.0242 5.55205 76.6028 5.44005 76.1015 5.44005C75.5788 5.44005 75.1255 5.56805 74.7415 5.82405C74.3575 6.06939 74.1548 6.36805 74.1335 6.72005H78.0055Z" fill="#EAEAEA"/>
</svg>
