<svg width="81" height="15" viewBox="0 0 81 15" fill="none" xmlns="http://www.w3.org/2000/svg">
<path d="M2.39999 7.11993V9.39193H6.94399V11.6799H-1.26362e-05V0.479931H6.84799V2.75193H2.39999V4.83193H6.46399V7.11993H2.39999ZM13.3305 3.67993H16.1145L13.2345 7.69593L16.1145 11.6799L13.3145 11.6959L11.8425 9.64793L10.3705 11.6959L7.57049 11.6799L10.4505 7.69593L7.57049 3.67993H10.3545L11.8425 5.74393L13.3305 3.67993ZM21.6076 3.47193C22.4396 3.47193 23.1543 3.65326 23.7516 4.01593C24.3596 4.3786 24.8236 4.87993 25.1436 5.51993C25.4636 6.14926 25.6236 6.86926 25.6236 7.67993C25.6236 8.4906 25.4636 9.21593 25.1436 9.85593C24.8236 10.4959 24.3596 11.0026 23.7516 11.3759C23.1543 11.7386 22.4396 11.9199 21.6076 11.9199C21.1809 11.9199 20.7596 11.8453 20.3436 11.6959C19.9276 11.5573 19.5436 11.3546 19.1916 11.0879V14.8799H16.9036V3.67993H19.1916V4.30393C19.5436 4.03726 19.9223 3.8346 20.3276 3.69593C20.7436 3.5466 21.1703 3.47193 21.6076 3.47193ZM21.3036 9.69593C21.9009 9.69593 22.3863 9.5146 22.7596 9.15193C23.1436 8.7786 23.3356 8.28793 23.3356 7.67993C23.3356 7.07193 23.1436 6.58126 22.7596 6.20793C22.3863 5.8346 21.9009 5.64793 21.3036 5.64793C20.7063 5.64793 20.2049 5.83993 19.7996 6.22393C19.3943 6.60793 19.1916 7.0986 19.1916 7.69593C19.1916 8.29326 19.3889 8.7786 19.7836 9.15193C20.1889 9.5146 20.6956 9.69593 21.3036 9.69593ZM30.7269 3.47193C31.5055 3.47193 32.1989 3.6586 32.8069 4.03193C33.4255 4.40526 33.9055 4.91193 34.2469 5.55193C34.5882 6.19193 34.7589 6.90126 34.7589 7.67993C34.7589 7.9786 34.7375 8.2506 34.6949 8.49593H28.7749C28.9775 8.9866 29.2495 9.3546 29.5909 9.59993C29.9322 9.8346 30.3749 9.95193 30.9189 9.95193C31.2495 9.95193 31.5695 9.8826 31.8789 9.74393C32.1989 9.60526 32.4495 9.4186 32.6309 9.18393L34.3589 10.2079C33.9855 10.7519 33.5002 11.1679 32.9029 11.4559C32.3162 11.7439 31.6389 11.8879 30.8709 11.8879C30.0069 11.8879 29.2442 11.7066 28.5829 11.3439C27.9215 10.9706 27.4095 10.4639 27.0469 9.82393C26.6842 9.18393 26.5029 8.46926 26.5029 7.67993C26.5029 6.8906 26.6789 6.17593 27.0309 5.53593C27.3935 4.89593 27.8949 4.3946 28.5349 4.03193C29.1749 3.6586 29.9055 3.47193 30.7269 3.47193ZM32.6149 6.71993C32.5402 6.3146 32.3269 5.99993 31.9749 5.77593C31.6335 5.55193 31.2122 5.43993 30.7109 5.43993C30.1882 5.43993 29.7349 5.56793 29.3509 5.82393C28.9669 6.06926 28.7642 6.36793 28.7429 6.71993H32.6149ZM40.9745 3.51993L40.8145 5.67993C40.7398 5.64793 40.6172 5.63193 40.4465 5.63193C39.7958 5.63193 39.2625 5.8186 38.8465 6.19193C38.4412 6.5546 38.2385 7.0346 38.2385 7.63193V11.6799H35.9505V3.67993H38.2385V4.97593C38.4305 4.55993 38.7398 4.21326 39.1665 3.93593C39.5932 3.6586 40.1105 3.51993 40.7185 3.51993H40.9745ZM43.5251 2.59193C43.0984 2.59193 42.7624 2.47993 42.5171 2.25593C42.2824 2.02126 42.1651 1.7066 42.1651 1.31193C42.1651 0.906598 42.2824 0.586598 42.5171 0.351932C42.7624 0.117265 43.0984 -6.86646e-05 43.5251 -6.86646e-05C43.9411 -6.86646e-05 44.2718 0.117265 44.5171 0.351932C44.7624 0.586598 44.8851 0.906598 44.8851 1.31193C44.8851 1.7066 44.7624 2.02126 44.5171 2.25593C44.2718 2.47993 43.9411 2.59193 43.5251 2.59193ZM42.3731 11.6799V3.67993H44.6611V11.6799H42.3731ZM50.0237 3.47193C50.8024 3.47193 51.4957 3.6586 52.1037 4.03193C52.7224 4.40526 53.2024 4.91193 53.5437 5.55193C53.8851 6.19193 54.0557 6.90126 54.0557 7.67993C54.0557 7.9786 54.0344 8.2506 53.9917 8.49593H48.0717C48.2744 8.9866 48.5464 9.3546 48.8877 9.59993C49.2291 9.8346 49.6717 9.95193 50.2157 9.95193C50.5464 9.95193 50.8664 9.8826 51.1757 9.74393C51.4957 9.60526 51.7464 9.4186 51.9277 9.18393L53.6557 10.2079C53.2824 10.7519 52.7971 11.1679 52.1997 11.4559C51.6131 11.7439 50.9357 11.8879 50.1677 11.8879C49.3037 11.8879 48.5411 11.7066 47.8797 11.3439C47.2184 10.9706 46.7064 10.4639 46.3437 9.82393C45.9811 9.18393 45.7997 8.46926 45.7997 7.67993C45.7997 6.8906 45.9757 6.17593 46.3277 5.53593C46.6904 4.89593 47.1917 4.3946 47.8317 4.03193C48.4717 3.6586 49.2024 3.47193 50.0237 3.47193ZM51.9117 6.71993C51.8371 6.3146 51.6237 5.99993 51.2717 5.77593C50.9304 5.55193 50.5091 5.43993 50.0077 5.43993C49.4851 5.43993 49.0317 5.56793 48.6477 5.82393C48.2637 6.06926 48.0611 6.36793 48.0397 6.71993H51.9117ZM59.4714 3.45593C59.9407 3.45593 60.4154 3.55726 60.8954 3.75993C61.3754 3.9626 61.786 4.31993 62.1274 4.83193C62.4687 5.34393 62.6394 6.03193 62.6394 6.89593V11.6799H60.3514V6.89593C60.3514 6.38393 60.2074 6.01593 59.9194 5.79193C59.642 5.56793 59.306 5.45593 58.9114 5.45593C58.5167 5.45593 58.186 5.5946 57.9194 5.87193C57.6634 6.14926 57.5354 6.59193 57.5354 7.19993V11.6799H55.2474V3.67993H57.5354V4.22393C58.1434 3.71193 58.7887 3.45593 59.4714 3.45593ZM71.37 10.1119C70.9753 10.6666 70.474 11.1093 69.866 11.4399C69.2687 11.7599 68.6233 11.9199 67.93 11.9199C67.162 11.9199 66.4527 11.7333 65.802 11.3599C65.162 10.9759 64.65 10.4586 64.266 9.80793C63.8927 9.15726 63.706 8.45326 63.706 7.69593C63.706 6.92793 63.8927 6.22393 64.266 5.58393C64.65 4.93326 65.162 4.42126 65.802 4.04793C66.4527 3.66393 67.162 3.47193 67.93 3.47193C68.6233 3.47193 69.2687 3.63193 69.866 3.95193C70.4633 4.27193 70.9593 4.70393 71.354 5.24793L69.466 6.49593C69.018 5.9946 68.506 5.74393 67.93 5.74393C67.3967 5.74393 66.938 5.93593 66.554 6.31993C66.17 6.70393 65.978 7.1626 65.978 7.69593C65.978 8.22926 66.17 8.68793 66.554 9.07193C66.938 9.44526 67.3967 9.63193 67.93 9.63193C68.506 9.63193 69.018 9.38126 69.466 8.87993L71.37 10.1119ZM76.1175 3.47193C76.8962 3.47193 77.5895 3.6586 78.1975 4.03193C78.8162 4.40526 79.2962 4.91193 79.6375 5.55193C79.9788 6.19193 80.1495 6.90126 80.1495 7.67993C80.1495 7.9786 80.1282 8.2506 80.0855 8.49593H74.1655C74.3682 8.9866 74.6402 9.3546 74.9815 9.59993C75.3228 9.8346 75.7655 9.95193 76.3095 9.95193C76.6402 9.95193 76.9602 9.8826 77.2695 9.74393C77.5895 9.60526 77.8402 9.4186 78.0215 9.18393L79.7495 10.2079C79.3762 10.7519 78.8908 11.1679 78.2935 11.4559C77.7068 11.7439 77.0295 11.8879 76.2615 11.8879C75.3975 11.8879 74.6348 11.7066 73.9735 11.3439C73.3122 10.9706 72.8002 10.4639 72.4375 9.82393C72.0748 9.18393 71.8935 8.46926 71.8935 7.67993C71.8935 6.8906 72.0695 6.17593 72.4215 5.53593C72.7842 4.89593 73.2855 4.3946 73.9255 4.03193C74.5655 3.6586 75.2962 3.47193 76.1175 3.47193ZM78.0055 6.71993C77.9308 6.3146 77.7175 5.99993 77.3655 5.77593C77.0242 5.55193 76.6028 5.43993 76.1015 5.43993C75.5788 5.43993 75.1255 5.56793 74.7415 5.82393C74.3575 6.06926 74.1548 6.36793 74.1335 6.71993H78.0055Z" fill="#EAEAEA"/>
</svg>
