<svg width="56" height="46" viewBox="0 0 56 46" fill="none" xmlns="http://www.w3.org/2000/svg">
<path d="M29.8895 24.7343H25.7762C25.7082 24.7343 25.6539 24.7614 25.6086 24.8022C25.5633 24.8475 25.5406 24.9064 25.5406 24.9698V33.6404C25.5406 33.7084 25.5678 33.7627 25.6086 33.808C25.6539 33.8533 25.7128 33.876 25.7762 33.876H29.885C29.9529 33.876 30.0073 33.8488 30.0526 33.808C30.0979 33.7627 30.1205 33.7038 30.1205 33.6404V24.9698C30.1205 24.9019 30.0934 24.8475 30.0526 24.8022C30.0118 24.7524 29.9529 24.7343 29.8895 24.7343ZM3.162 6.32853H17.4272V2.23786C17.4272 1.61724 17.6809 1.06004 18.0841 0.656862C18.4918 0.253685 19.0535 0 19.6651 0H36.0006C36.6212 0 37.1739 0.253685 37.5816 0.656862C37.9848 1.06004 38.2384 1.6263 38.2384 2.23786V6.32853H52.5037C53.378 6.32853 54.1662 6.68641 54.7325 7.26173C55.3078 7.83705 55.6657 8.62528 55.6657 9.49053V17.1283C52.0914 19.579 48.404 21.6674 44.6032 23.3707C40.7798 25.0831 36.8386 26.4104 32.7616 27.3255V24.2722C32.7616 23.5746 32.4762 22.9313 32.0186 22.4692C31.5611 22.0117 30.9178 21.7263 30.2157 21.7263H25.4455C24.7479 21.7263 24.1046 22.0117 23.6425 22.4692C23.185 22.9268 22.8996 23.57 22.8996 24.2722V27.2575C18.9312 26.347 15.0852 25.0423 11.3569 23.3707C7.45199 21.6221 3.66937 19.4612 0 16.9244V9.49053C0 8.61622 0.357877 7.82799 0.933197 7.26173C1.50399 6.68641 2.29675 6.32853 3.162 6.32853ZM55.6657 21.6583V42.388C55.6657 43.2623 55.3078 44.0505 54.7325 44.6168C54.1572 45.1921 53.3689 45.55 52.5037 45.55H3.162C2.28769 45.55 1.49946 45.1921 0.933197 44.6168C0.357877 44.0415 0 43.2533 0 42.388V21.4681C3.12123 23.4704 6.33306 25.219 9.63549 26.7003C13.8983 28.612 18.3197 30.0752 22.9041 31.0537V34.338C22.9041 35.0357 23.1895 35.6789 23.647 36.141C24.1046 36.5986 24.7524 36.8839 25.45 36.8839H30.2202C30.9178 36.8839 31.5611 36.5986 32.0232 36.141C32.4807 35.6835 32.7661 35.0402 32.7661 34.338V30.8952L32.8159 31.1036C37.4865 30.1205 41.9894 28.6437 46.3292 26.6958C49.5274 25.2643 52.6396 23.5791 55.6657 21.6583ZM34.2973 3.04875H21.3775C21.3005 3.04875 21.237 3.07593 21.1781 3.13482C21.1328 3.18012 21.0921 3.25713 21.0921 3.33414V6.24246H34.5691V3.33414C34.5691 3.25713 34.5419 3.19371 34.483 3.13482C34.4377 3.08952 34.3607 3.04875 34.2837 3.04875H34.2973Z" fill="white"/>
</svg>
