<svg width="739" height="87" viewBox="0 0 739 87" fill="none" xmlns="http://www.w3.org/2000/svg">
<path d="M7.24906 69.3562V80.2128H12.7845V83H4.32539V69.3562H7.24906ZM15.9669 71.9291C15.4471 71.9291 15.0378 71.7926 14.739 71.5197C14.4531 71.2339 14.3102 70.8506 14.3102 70.3698C14.3102 69.876 14.4531 69.4862 14.739 69.2003C15.0378 68.9144 15.4471 68.7715 15.9669 68.7715C16.4737 68.7715 16.8765 68.9144 17.1754 69.2003C17.4742 69.4862 17.6236 69.876 17.6236 70.3698C17.6236 70.8506 17.4742 71.2339 17.1754 71.5197C16.8765 71.7926 16.4737 71.9291 15.9669 71.9291ZM14.5635 83V73.2545H17.3508V83H14.5635ZM21.8922 76.0222C21.8922 76.2431 22.0286 76.412 22.3015 76.529C22.5744 76.6329 23.0097 76.7434 23.6074 76.8603C24.3741 77.0162 25.0108 77.1917 25.5175 77.3866C26.0243 77.5685 26.4661 77.8803 26.8429 78.3221C27.2328 78.7509 27.4277 79.3487 27.4277 80.1153C27.4277 80.778 27.2263 81.3498 26.8234 81.8305C26.4206 82.2983 25.8879 82.6557 25.2252 82.9025C24.5625 83.1364 23.8478 83.2534 23.0812 83.2534C22.0286 83.2534 21.132 83.065 20.3914 82.6881C19.6507 82.2983 19.092 81.7266 18.7151 80.9729L20.9956 79.8035C21.3075 80.6351 22.0026 81.0509 23.0812 81.0509C23.523 81.0509 23.9063 80.9729 24.2311 80.817C24.569 80.6481 24.7379 80.4142 24.7379 80.1153C24.7379 79.8554 24.582 79.6605 24.2701 79.5306C23.9712 79.4006 23.4905 79.2642 22.8278 79.1213C22.0741 78.9523 21.4439 78.7769 20.9371 78.595C20.4304 78.4001 19.9951 78.1077 19.6312 77.7179C19.2674 77.3151 19.0855 76.7823 19.0855 76.1196C19.0855 75.4829 19.2674 74.9307 19.6312 74.4629C19.9951 73.9821 20.4823 73.6183 21.0931 73.3714C21.7168 73.1245 22.3925 73.0011 23.1201 73.0011C23.9777 73.0011 24.7509 73.1765 25.4396 73.5273C26.1283 73.8782 26.6675 74.3849 27.0573 75.0476L24.7964 76.1586C24.6404 75.8338 24.426 75.5934 24.1532 75.4375C23.8933 75.2815 23.5489 75.2036 23.1201 75.2036C22.7433 75.2036 22.4444 75.2815 22.2235 75.4375C22.0026 75.5804 21.8922 75.7753 21.8922 76.0222ZM32.4446 79.5306C32.4446 79.8944 32.5421 80.1478 32.737 80.2907C32.9449 80.4337 33.2568 80.5051 33.6726 80.5051C33.9325 80.5051 34.2183 80.4856 34.5302 80.4467V83C33.8805 83.065 33.3412 83.0975 32.9124 83.0975C31.8209 83.0975 31.0023 82.8571 30.4566 82.3763C29.9238 81.8825 29.6574 80.9924 29.6574 79.706V75.7298H27.9812V73.2545H29.6574V70.9935L32.4446 70.0579V73.2545H34.4912V75.7298H32.4446V79.5306ZM46.1916 83.2924C45.2561 83.2924 44.392 83.065 43.5993 82.6102C42.8197 82.1424 42.196 81.5122 41.7282 80.7195C41.2734 79.9269 41.046 79.0693 41.046 78.1467C41.046 77.2111 41.2734 76.3535 41.7282 75.5739C42.196 74.7813 42.8197 74.1575 43.5993 73.7027C44.392 73.235 45.2561 73.0011 46.1916 73.0011C47.1142 73.0011 47.9653 73.235 48.745 73.7027C49.5376 74.1575 50.1613 74.7813 50.6161 75.5739C51.0839 76.3535 51.3178 77.2111 51.3178 78.1467C51.3178 79.0693 51.0839 79.9269 50.6161 80.7195C50.1613 81.5122 49.5376 82.1424 48.745 82.6102C47.9653 83.065 47.1142 83.2924 46.1916 83.2924ZM46.1722 80.5051C46.8219 80.5051 47.3806 80.2777 47.8484 79.823C48.3162 79.3552 48.5501 78.7964 48.5501 78.1467C48.5501 77.497 48.3162 76.9383 47.8484 76.4705C47.3806 76.0027 46.8219 75.7688 46.1722 75.7688C45.5225 75.7688 44.9637 76.0027 44.4959 76.4705C44.0411 76.9383 43.8137 77.497 43.8137 78.1467C43.8137 78.7964 44.0411 79.3552 44.4959 79.823C44.9637 80.2777 45.5225 80.5051 46.1722 80.5051ZM58.3597 71.7341C58.0479 71.6952 57.762 71.6757 57.5021 71.6757C57.0863 71.6757 56.7744 71.7471 56.5665 71.8901C56.3716 72.033 56.2742 72.2864 56.2742 72.6502V73.2545H58.3402V75.7298H56.2742V83H53.4869V75.7298H51.9666V73.2545H53.4869V72.4748C53.4869 71.1884 53.7533 70.3048 54.2861 69.824C54.8318 69.3302 55.657 69.0834 56.7615 69.0834C57.2033 69.0834 57.736 69.1158 58.3597 69.1808V71.7341ZM69.147 73.0011C70.0955 73.0011 70.9402 73.2285 71.6808 73.6833C72.4345 74.1381 73.0192 74.7553 73.435 75.5349C73.8508 76.3146 74.0587 77.1787 74.0587 78.1272C74.0587 78.4911 74.0327 78.8224 73.9808 79.1213H66.7691C67.0159 79.719 67.3473 80.1673 67.7631 80.4662C68.1789 80.752 68.7182 80.895 69.3809 80.895C69.7837 80.895 70.1735 80.8105 70.5503 80.6416C70.9402 80.4727 71.2455 80.2453 71.4664 79.9594L73.5715 81.2068C73.1167 81.8695 72.5254 82.3763 71.7978 82.7271C71.0831 83.078 70.258 83.2534 69.3224 83.2534C68.2699 83.2534 67.3408 83.0325 66.5352 82.5907C65.7295 82.1359 65.1058 81.5187 64.664 80.739C64.2222 79.9594 64.0013 79.0888 64.0013 78.1272C64.0013 77.1657 64.2157 76.2951 64.6445 75.5154C65.0863 74.7358 65.6971 74.1251 66.4767 73.6833C67.2563 73.2285 68.1464 73.0011 69.147 73.0011ZM71.4469 76.9578C71.356 76.464 71.0961 76.0807 70.6673 75.8078C70.2515 75.5349 69.7382 75.3985 69.1275 75.3985C68.4908 75.3985 67.9385 75.5544 67.4707 75.8663C67.003 76.1651 66.7561 76.529 66.7301 76.9578H71.4469ZM81.1887 73.2545H84.5801L81.0717 78.1467L84.5801 83L81.1692 83.0195L79.376 80.5246L77.5828 83.0195L74.1719 83L77.6803 78.1467L74.1719 73.2545H77.5633L79.376 75.7688L81.1887 73.2545ZM91.2718 73.0011C92.2853 73.0011 93.1559 73.222 93.8836 73.6638C94.6243 74.1056 95.1895 74.7163 95.5793 75.4959C95.9692 76.2626 96.1641 77.1397 96.1641 78.1272C96.1641 79.1148 95.9692 79.9984 95.5793 80.778C95.1895 81.5577 94.6243 82.1749 93.8836 82.6297C93.1559 83.0715 92.2853 83.2924 91.2718 83.2924C90.752 83.2924 90.2388 83.2014 89.732 83.0195C89.2252 82.8506 88.7574 82.6037 88.3286 82.2788V86.8982H85.5414V73.2545H88.3286V74.0146C88.7574 73.6898 89.2187 73.4429 89.7125 73.2739C90.2193 73.092 90.739 73.0011 91.2718 73.0011ZM90.9015 80.5831C91.6291 80.5831 92.2204 80.3622 92.6752 79.9204C93.1429 79.4656 93.3768 78.8679 93.3768 78.1272C93.3768 77.3866 93.1429 76.7888 92.6752 76.334C92.2204 75.8793 91.6291 75.6519 90.9015 75.6519C90.1738 75.6519 89.5631 75.8858 89.0693 76.3535C88.5755 76.8213 88.3286 77.4191 88.3286 78.1467C88.3286 78.8744 88.569 79.4656 89.0498 79.9204C89.5436 80.3622 90.1608 80.5831 90.9015 80.5831ZM102.381 73.0011C103.329 73.0011 104.174 73.2285 104.915 73.6833C105.668 74.1381 106.253 74.7553 106.669 75.5349C107.085 76.3146 107.293 77.1787 107.293 78.1272C107.293 78.4911 107.267 78.8224 107.215 79.1213H100.003C100.25 79.719 100.581 80.1673 100.997 80.4662C101.413 80.752 101.952 80.895 102.615 80.895C103.018 80.895 103.407 80.8105 103.784 80.6416C104.174 80.4727 104.479 80.2453 104.7 79.9594L106.805 81.2068C106.35 81.8695 105.759 82.3763 105.032 82.7271C104.317 83.078 103.492 83.2534 102.556 83.2534C101.504 83.2534 100.575 83.0325 99.769 82.5907C98.9634 82.1359 98.3397 81.5187 97.8979 80.739C97.4561 79.9594 97.2352 79.0888 97.2352 78.1272C97.2352 77.1657 97.4496 76.2951 97.8784 75.5154C98.3202 74.7358 98.9309 74.1251 99.7105 73.6833C100.49 73.2285 101.38 73.0011 102.381 73.0011ZM104.681 76.9578C104.59 76.464 104.33 76.0807 103.901 75.8078C103.485 75.5349 102.972 75.3985 102.361 75.3985C101.725 75.3985 101.172 75.5544 100.705 75.8663C100.237 76.1651 99.9899 76.529 99.9639 76.9578H104.681ZM114.864 73.0595L114.669 75.6908C114.579 75.6519 114.429 75.6324 114.221 75.6324C113.429 75.6324 112.779 75.8598 112.272 76.3146C111.778 76.7564 111.531 77.3411 111.531 78.0688V83H108.744V73.2545H111.531V74.8332C111.765 74.3265 112.142 73.9042 112.662 73.5663C113.182 73.2285 113.812 73.0595 114.553 73.0595H114.864ZM117.972 71.9291C117.452 71.9291 117.042 71.7926 116.744 71.5197C116.458 71.2339 116.315 70.8506 116.315 70.3698C116.315 69.876 116.458 69.4862 116.744 69.2003C117.042 68.9144 117.452 68.7715 117.972 68.7715C118.478 68.7715 118.881 68.9144 119.18 69.2003C119.479 69.4862 119.628 69.876 119.628 70.3698C119.628 70.8506 119.479 71.2339 119.18 71.5197C118.881 71.7926 118.478 71.9291 117.972 71.9291ZM116.568 83V73.2545H119.355V83H116.568ZM125.888 73.0011C126.837 73.0011 127.681 73.2285 128.422 73.6833C129.176 74.1381 129.76 74.7553 130.176 75.5349C130.592 76.3146 130.8 77.1787 130.8 78.1272C130.8 78.4911 130.774 78.8224 130.722 79.1213H123.51C123.757 79.719 124.088 80.1673 124.504 80.4662C124.92 80.752 125.459 80.895 126.122 80.895C126.525 80.895 126.915 80.8105 127.291 80.6416C127.681 80.4727 127.987 80.2453 128.208 79.9594L130.313 81.2068C129.858 81.8695 129.267 82.3763 128.539 82.7271C127.824 83.078 126.999 83.2534 126.064 83.2534C125.011 83.2534 124.082 83.0325 123.276 82.5907C122.471 82.1359 121.847 81.5187 121.405 80.739C120.963 79.9594 120.742 79.0888 120.742 78.1272C120.742 77.1657 120.957 76.2951 121.386 75.5154C121.827 74.7358 122.438 74.1251 123.218 73.6833C123.997 73.2285 124.888 73.0011 125.888 73.0011ZM128.188 76.9578C128.097 76.464 127.837 76.0807 127.408 75.8078C126.993 75.5349 126.479 75.3985 125.869 75.3985C125.232 75.3985 124.68 75.5544 124.212 75.8663C123.744 76.1651 123.497 76.529 123.471 76.9578H128.188ZM137.397 72.9816C137.969 72.9816 138.547 73.105 139.132 73.3519C139.717 73.5988 140.217 74.0341 140.633 74.6578C141.048 75.2815 141.256 76.1196 141.256 77.1722V83H138.469V77.1722C138.469 76.5484 138.294 76.1002 137.943 75.8273C137.605 75.5544 137.196 75.418 136.715 75.418C136.234 75.418 135.831 75.5869 135.507 75.9247C135.195 76.2626 135.039 76.8018 135.039 77.5425V83H132.252V73.2545H135.039V73.9172C135.779 73.2934 136.566 72.9816 137.397 72.9816ZM151.892 81.0899C151.411 81.7656 150.8 82.3048 150.06 82.7076C149.332 83.0975 148.546 83.2924 147.701 83.2924C146.766 83.2924 145.902 83.065 145.109 82.6102C144.329 82.1424 143.706 81.5122 143.238 80.7195C142.783 79.9269 142.556 79.0693 142.556 78.1467C142.556 77.2111 142.783 76.3535 143.238 75.5739C143.706 74.7813 144.329 74.1575 145.109 73.7027C145.902 73.235 146.766 73.0011 147.701 73.0011C148.546 73.0011 149.332 73.196 150.06 73.5858C150.787 73.9756 151.392 74.5019 151.872 75.1646L149.573 76.6849C149.027 76.0742 148.403 75.7688 147.701 75.7688C147.052 75.7688 146.493 76.0027 146.025 76.4705C145.557 76.9383 145.323 77.497 145.323 78.1467C145.323 78.7964 145.557 79.3552 146.025 79.823C146.493 80.2777 147.052 80.5051 147.701 80.5051C148.403 80.5051 149.027 80.1998 149.573 79.5891L151.892 81.0899ZM157.675 73.0011C158.624 73.0011 159.469 73.2285 160.209 73.6833C160.963 74.1381 161.548 74.7553 161.963 75.5349C162.379 76.3146 162.587 77.1787 162.587 78.1272C162.587 78.4911 162.561 78.8224 162.509 79.1213H155.297C155.544 79.719 155.876 80.1673 156.291 80.4662C156.707 80.752 157.247 80.895 157.909 80.895C158.312 80.895 158.702 80.8105 159.079 80.6416C159.469 80.4727 159.774 80.2453 159.995 79.9594L162.1 81.2068C161.645 81.8695 161.054 82.3763 160.326 82.7271C159.611 83.078 158.786 83.2534 157.851 83.2534C156.798 83.2534 155.869 83.0325 155.064 82.5907C154.258 82.1359 153.634 81.5187 153.192 80.739C152.751 79.9594 152.53 79.0888 152.53 78.1272C152.53 77.1657 152.744 76.2951 153.173 75.5154C153.615 74.7358 154.225 74.1251 155.005 73.6833C155.785 73.2285 156.675 73.0011 157.675 73.0011ZM159.975 76.9578C159.884 76.464 159.624 76.0807 159.196 75.8078C158.78 75.5349 158.267 75.3985 157.656 75.3985C157.019 75.3985 156.467 75.5544 155.999 75.8663C155.531 76.1651 155.284 76.529 155.258 76.9578H159.975ZM170.849 71.9291C170.329 71.9291 169.92 71.7926 169.621 71.5197C169.335 71.2339 169.192 70.8506 169.192 70.3698C169.192 69.876 169.335 69.4862 169.621 69.2003C169.92 68.9144 170.329 68.7715 170.849 68.7715C171.356 68.7715 171.758 68.9144 172.057 69.2003C172.356 69.4862 172.505 69.876 172.505 70.3698C172.505 70.8506 172.356 71.2339 172.057 71.5197C171.758 71.7926 171.356 71.9291 170.849 71.9291ZM169.445 83V73.2545H172.233V83H169.445ZM188.48 83H185.692V77.2501C185.692 76.6264 185.517 76.1781 185.166 75.9052C184.815 75.6194 184.399 75.4764 183.919 75.4764C183.516 75.4764 183.165 75.6064 182.866 75.8663C182.567 76.1131 182.379 76.503 182.301 77.0357V83H179.514V69.3562H182.301V73.9561C183.016 73.3584 183.789 73.0595 184.62 73.0595C185.179 73.0595 185.744 73.183 186.316 73.4299C186.901 73.6638 187.401 74.0861 187.817 74.6968C188.246 75.3075 188.467 76.1326 188.48 77.1722V83ZM197.771 73.2545H200.538V83H197.771V82.2593C197.342 82.5842 196.868 82.8311 196.348 83C195.841 83.1819 195.328 83.2729 194.808 83.2729C193.794 83.2729 192.917 83.052 192.177 82.6102C191.449 82.1684 190.89 81.5642 190.5 80.7975C190.111 80.0179 189.916 79.1343 189.916 78.1467C189.916 77.1592 190.111 76.2756 190.5 75.4959C190.89 74.7033 191.449 74.0861 192.177 73.6443C192.917 73.2025 193.794 72.9816 194.808 72.9816C195.341 72.9816 195.861 73.0725 196.367 73.2545C196.874 73.4364 197.342 73.6898 197.771 74.0146V73.2545ZM195.178 80.6221C195.906 80.6221 196.517 80.3882 197.011 79.9204C197.504 79.4526 197.751 78.8484 197.751 78.1077C197.751 77.3931 197.504 76.8083 197.011 76.3535C196.517 75.8987 195.906 75.6713 195.178 75.6713C194.451 75.6713 193.853 75.8987 193.385 76.3535C192.917 76.8083 192.683 77.4061 192.683 78.1467C192.683 78.8874 192.917 79.4851 193.385 79.9399C193.853 80.3947 194.451 80.6221 195.178 80.6221ZM207.058 79.5501L209.338 73.2545H212.281L208.734 83H205.362L201.815 73.2545H204.758L207.058 79.5501ZM217.576 73.0011C218.525 73.0011 219.369 73.2285 220.11 73.6833C220.864 74.1381 221.448 74.7553 221.864 75.5349C222.28 76.3146 222.488 77.1787 222.488 78.1272C222.488 78.4911 222.462 78.8224 222.41 79.1213H215.198C215.445 79.719 215.777 80.1673 216.192 80.4662C216.608 80.752 217.147 80.895 217.81 80.895C218.213 80.895 218.603 80.8105 218.98 80.6416C219.369 80.4727 219.675 80.2453 219.896 79.9594L222.001 81.2068C221.546 81.8695 220.955 82.3763 220.227 82.7271C219.512 83.078 218.687 83.2534 217.752 83.2534C216.699 83.2534 215.77 83.0325 214.964 82.5907C214.159 82.1359 213.535 81.5187 213.093 80.739C212.651 79.9594 212.431 79.0888 212.431 78.1272C212.431 77.1657 212.645 76.2951 213.074 75.5154C213.516 74.7358 214.126 74.1251 214.906 73.6833C215.686 73.2285 216.576 73.0011 217.576 73.0011ZM219.876 76.9578C219.785 76.464 219.525 76.0807 219.097 75.8078C218.681 75.5349 218.167 75.3985 217.557 75.3985C216.92 75.3985 216.368 75.5544 215.9 75.8663C215.432 76.1651 215.185 76.529 215.159 76.9578H219.876ZM236.753 73.2545H239.521V83H236.753V82.2593C236.324 82.5842 235.85 82.8311 235.33 83C234.823 83.1819 234.31 83.2729 233.79 83.2729C232.777 83.2729 231.9 83.052 231.159 82.6102C230.431 82.1684 229.872 81.5642 229.483 80.7975C229.093 80.0179 228.898 79.1343 228.898 78.1467C228.898 77.1592 229.093 76.2756 229.483 75.4959C229.872 74.7033 230.431 74.0861 231.159 73.6443C231.9 73.2025 232.777 72.9816 233.79 72.9816C234.323 72.9816 234.843 73.0725 235.349 73.2545C235.856 73.4364 236.324 73.6898 236.753 74.0146V73.2545ZM234.161 80.6221C234.888 80.6221 235.499 80.3882 235.993 79.9204C236.486 79.4526 236.733 78.8484 236.733 78.1077C236.733 77.3931 236.486 76.8083 235.993 76.3535C235.499 75.8987 234.888 75.6713 234.161 75.6713C233.433 75.6713 232.835 75.8987 232.367 76.3535C231.9 76.8083 231.666 77.4061 231.666 78.1467C231.666 78.8874 231.9 79.4851 232.367 79.9399C232.835 80.3947 233.433 80.6221 234.161 80.6221ZM250.261 81.0899C249.78 81.7656 249.17 82.3048 248.429 82.7076C247.701 83.0975 246.915 83.2924 246.071 83.2924C245.135 83.2924 244.271 83.065 243.478 82.6102C242.699 82.1424 242.075 81.5122 241.607 80.7195C241.152 79.9269 240.925 79.0693 240.925 78.1467C240.925 77.2111 241.152 76.3535 241.607 75.5739C242.075 74.7813 242.699 74.1575 243.478 73.7027C244.271 73.235 245.135 73.0011 246.071 73.0011C246.915 73.0011 247.701 73.196 248.429 73.5858C249.157 73.9756 249.761 74.5019 250.242 75.1646L247.942 76.6849C247.396 76.0742 246.772 75.7688 246.071 75.7688C245.421 75.7688 244.862 76.0027 244.394 76.4705C243.926 76.9383 243.693 77.497 243.693 78.1467C243.693 78.7964 243.926 79.3552 244.394 79.823C244.862 80.2777 245.421 80.5051 246.071 80.5051C246.772 80.5051 247.396 80.1998 247.942 79.5891L250.261 81.0899ZM260.387 81.0899C259.907 81.7656 259.296 82.3048 258.555 82.7076C257.827 83.0975 257.041 83.2924 256.197 83.2924C255.261 83.2924 254.397 83.065 253.604 82.6102C252.825 82.1424 252.201 81.5122 251.733 80.7195C251.278 79.9269 251.051 79.0693 251.051 78.1467C251.051 77.2111 251.278 76.3535 251.733 75.5739C252.201 74.7813 252.825 74.1575 253.604 73.7027C254.397 73.235 255.261 73.0011 256.197 73.0011C257.041 73.0011 257.827 73.196 258.555 73.5858C259.283 73.9756 259.887 74.5019 260.368 75.1646L258.068 76.6849C257.522 76.0742 256.898 75.7688 256.197 75.7688C255.547 75.7688 254.988 76.0027 254.52 76.4705C254.053 76.9383 253.819 77.497 253.819 78.1467C253.819 78.7964 254.053 79.3552 254.52 79.823C254.988 80.2777 255.547 80.5051 256.197 80.5051C256.898 80.5051 257.522 80.1998 258.068 79.5891L260.387 81.0899ZM267.572 73.2545H270.359V83H267.572V82.3373C266.831 82.961 266.045 83.2729 265.213 83.2729C264.642 83.2729 264.063 83.1494 263.479 82.9025C262.894 82.6557 262.394 82.2204 261.978 81.5966C261.562 80.9729 261.354 80.1348 261.354 79.0823V73.2545H264.141V79.0823C264.141 79.693 264.317 80.1413 264.668 80.4272C265.018 80.7001 265.434 80.8365 265.915 80.8365C266.383 80.8365 266.773 80.6676 267.084 80.3297C267.409 79.9919 267.572 79.4526 267.572 78.712V73.2545ZM284.009 72.9816C284.581 72.9816 285.159 73.105 285.744 73.3519C286.329 73.5988 286.829 74.0341 287.245 74.6578C287.661 75.2815 287.869 76.1196 287.869 77.1722V83H285.101V77.1722C285.101 76.5484 284.925 76.1002 284.575 75.8273C284.224 75.5544 283.808 75.418 283.327 75.418C282.924 75.418 282.573 75.5414 282.275 75.7883C281.989 76.0222 281.8 76.3925 281.709 76.8993V77.1722V83H278.922V77.1722C278.922 76.5484 278.747 76.1002 278.396 75.8273C278.045 75.5544 277.629 75.418 277.148 75.418C276.746 75.418 276.395 75.5414 276.096 75.7883C275.797 76.0352 275.609 76.4315 275.531 76.9773V83H272.743V73.2545H275.531V73.8782C276.245 73.2804 277.019 72.9816 277.85 72.9816C278.422 72.9816 279 73.105 279.585 73.3519C280.183 73.5988 280.67 74.0081 281.047 74.5798C281.385 74.1251 281.813 73.7482 282.333 73.4494C282.853 73.1375 283.412 72.9816 284.009 72.9816ZM295.609 73.2545H298.396V83H295.609V82.3373C294.869 82.961 294.082 83.2729 293.251 83.2729C292.679 83.2729 292.101 83.1494 291.516 82.9025C290.931 82.6557 290.431 82.2204 290.015 81.5966C289.599 80.9729 289.392 80.1348 289.392 79.0823V73.2545H292.179V79.0823C292.179 79.693 292.354 80.1413 292.705 80.4272C293.056 80.7001 293.472 80.8365 293.953 80.8365C294.42 80.8365 294.81 80.6676 295.122 80.3297C295.447 79.9919 295.609 79.4526 295.609 78.712V73.2545ZM303.568 79.9204C303.568 80.1283 303.614 80.2777 303.705 80.3687C303.809 80.4597 303.977 80.5051 304.211 80.5051C304.38 80.5051 304.582 80.4856 304.816 80.4467V83C304.179 83.091 303.685 83.1364 303.334 83.1364C302.49 83.1364 301.853 82.9155 301.424 82.4737C300.995 82.0189 300.781 81.2263 300.781 80.0958V69.3562H303.568V79.9204ZM313.651 73.2545H316.419V83H313.651V82.2593C313.222 82.5842 312.748 82.8311 312.228 83C311.722 83.1819 311.208 83.2729 310.689 83.2729C309.675 83.2729 308.798 83.052 308.057 82.6102C307.33 82.1684 306.771 81.5642 306.381 80.7975C305.991 80.0179 305.796 79.1343 305.796 78.1467C305.796 77.1592 305.991 76.2756 306.381 75.4959C306.771 74.7033 307.33 74.0861 308.057 73.6443C308.798 73.2025 309.675 72.9816 310.689 72.9816C311.221 72.9816 311.741 73.0725 312.248 73.2545C312.755 73.4364 313.222 73.6898 313.651 74.0146V73.2545ZM311.059 80.6221C311.787 80.6221 312.397 80.3882 312.891 79.9204C313.385 79.4526 313.632 78.8484 313.632 78.1077C313.632 77.3931 313.385 76.8083 312.891 76.3535C312.397 75.8987 311.787 75.6713 311.059 75.6713C310.331 75.6713 309.734 75.8987 309.266 76.3535C308.798 76.8083 308.564 77.4061 308.564 78.1467C308.564 78.8874 308.798 79.4851 309.266 79.9399C309.734 80.3947 310.331 80.6221 311.059 80.6221ZM322.184 79.5306C322.184 79.8944 322.282 80.1478 322.477 80.2907C322.685 80.4337 322.996 80.5051 323.412 80.5051C323.672 80.5051 323.958 80.4856 324.27 80.4467V83C323.62 83.065 323.081 83.0975 322.652 83.0975C321.561 83.0975 320.742 82.8571 320.196 82.3763C319.663 81.8825 319.397 80.9924 319.397 79.706V75.7298H317.721V73.2545H319.397V70.9935L322.184 70.0579V73.2545H324.231V75.7298H322.184V79.5306ZM330.449 73.0011C331.398 73.0011 332.243 73.2285 332.983 73.6833C333.737 74.1381 334.322 74.7553 334.737 75.5349C335.153 76.3146 335.361 77.1787 335.361 78.1272C335.361 78.4911 335.335 78.8224 335.283 79.1213H328.072C328.318 79.719 328.65 80.1673 329.066 80.4662C329.481 80.752 330.021 80.895 330.683 80.895C331.086 80.895 331.476 80.8105 331.853 80.6416C332.243 80.4727 332.548 80.2453 332.769 79.9594L334.874 81.2068C334.419 81.8695 333.828 82.3763 333.1 82.7271C332.386 83.078 331.56 83.2534 330.625 83.2534C329.572 83.2534 328.643 83.0325 327.838 82.5907C327.032 82.1359 326.408 81.5187 325.966 80.739C325.525 79.9594 325.304 79.0888 325.304 78.1272C325.304 77.1657 325.518 76.2951 325.947 75.5154C326.389 74.7358 327 74.1251 327.779 73.6833C328.559 73.2285 329.449 73.0011 330.449 73.0011ZM332.749 76.9578C332.658 76.464 332.399 76.0807 331.97 75.8078C331.554 75.5349 331.041 75.3985 330.43 75.3985C329.793 75.3985 329.241 75.5544 328.773 75.8663C328.305 76.1651 328.059 76.529 328.033 76.9578H332.749ZM344.239 69.3562H347.007V83H344.239V82.2593C343.81 82.5842 343.342 82.8311 342.836 83C342.342 83.1819 341.829 83.2729 341.296 83.2729C340.282 83.2729 339.405 83.052 338.664 82.6102C337.937 82.1684 337.378 81.5642 336.988 80.7975C336.598 80.0179 336.403 79.1343 336.403 78.1467C336.403 77.1592 336.598 76.2756 336.988 75.4959C337.378 74.7033 337.937 74.0861 338.664 73.6443C339.405 73.2025 340.282 72.9816 341.296 72.9816C341.816 72.9816 342.329 73.0725 342.836 73.2545C343.342 73.4234 343.81 73.6703 344.239 73.9951V69.3562ZM341.666 80.6221C342.394 80.6221 343.004 80.3882 343.498 79.9204C343.992 79.4526 344.239 78.8484 344.239 78.1077C344.239 77.3931 343.992 76.8083 343.498 76.3535C343.004 75.8987 342.394 75.6713 341.666 75.6713C340.938 75.6713 340.341 75.8987 339.873 76.3535C339.405 76.8083 339.171 77.4061 339.171 78.1467C339.171 78.8874 339.405 79.4851 339.873 79.9399C340.341 80.3947 340.938 80.6221 341.666 80.6221ZM356.895 76.0222C356.895 76.2431 357.032 76.412 357.305 76.529C357.578 76.6329 358.013 76.7434 358.611 76.8603C359.377 77.0162 360.014 77.1917 360.521 77.3866C361.027 77.5685 361.469 77.8803 361.846 78.3221C362.236 78.7509 362.431 79.3487 362.431 80.1153C362.431 80.778 362.229 81.3498 361.827 81.8305C361.424 82.2983 360.891 82.6557 360.228 82.9025C359.566 83.1364 358.851 83.2534 358.084 83.2534C357.032 83.2534 356.135 83.065 355.395 82.6881C354.654 82.2983 354.095 81.7266 353.718 80.9729L355.999 79.8035C356.311 80.6351 357.006 81.0509 358.084 81.0509C358.526 81.0509 358.909 80.9729 359.234 80.817C359.572 80.6481 359.741 80.4142 359.741 80.1153C359.741 79.8554 359.585 79.6605 359.273 79.5306C358.974 79.4006 358.494 79.2642 357.831 79.1213C357.077 78.9523 356.447 78.7769 355.94 78.595C355.434 78.4001 354.998 78.1077 354.634 77.7179C354.271 77.3151 354.089 76.7823 354.089 76.1196C354.089 75.4829 354.271 74.9307 354.634 74.4629C354.998 73.9821 355.485 73.6183 356.096 73.3714C356.72 73.1245 357.396 73.0011 358.123 73.0011C358.981 73.0011 359.754 73.1765 360.443 73.5273C361.131 73.8782 361.671 74.3849 362.06 75.0476L359.8 76.1586C359.644 75.8338 359.429 75.5934 359.156 75.4375C358.896 75.2815 358.552 75.2036 358.123 75.2036C357.746 75.2036 357.448 75.2815 357.227 75.4375C357.006 75.5804 356.895 75.7753 356.895 76.0222ZM368.442 83.2924C367.506 83.2924 366.642 83.065 365.849 82.6102C365.07 82.1424 364.446 81.5122 363.978 80.7195C363.524 79.9269 363.296 79.0693 363.296 78.1467C363.296 77.2111 363.524 76.3535 363.978 75.5739C364.446 74.7813 365.07 74.1575 365.849 73.7027C366.642 73.235 367.506 73.0011 368.442 73.0011C369.364 73.0011 370.215 73.235 370.995 73.7027C371.788 74.1575 372.411 74.7813 372.866 75.5739C373.334 76.3535 373.568 77.2111 373.568 78.1467C373.568 79.0693 373.334 79.9269 372.866 80.7195C372.411 81.5122 371.788 82.1424 370.995 82.6102C370.215 83.065 369.364 83.2924 368.442 83.2924ZM368.422 80.5051C369.072 80.5051 369.631 80.2777 370.099 79.823C370.566 79.3552 370.8 78.7964 370.8 78.1467C370.8 77.497 370.566 76.9383 370.099 76.4705C369.631 76.0027 369.072 75.7688 368.422 75.7688C367.773 75.7688 367.214 76.0027 366.746 76.4705C366.291 76.9383 366.064 77.497 366.064 78.1467C366.064 78.7964 366.291 79.3552 366.746 79.823C367.214 80.2777 367.773 80.5051 368.422 80.5051ZM386.054 71.7341C385.742 71.6952 385.456 71.6757 385.196 71.6757C384.78 71.6757 384.468 71.7471 384.261 71.8901C384.066 72.033 383.968 72.2864 383.968 72.6502V73.2545H386.034V75.7298H383.968V83H381.181V75.7298H379.661V73.2545H381.181V72.4748C381.181 71.1884 381.447 70.3048 381.98 69.824C382.526 69.3302 383.351 69.0834 384.455 69.0834C384.897 69.0834 385.43 69.1158 386.054 69.1808V71.7341ZM394.433 73.2545H397.2V83H394.433V82.2593C394.004 82.5842 393.53 82.8311 393.01 83C392.503 83.1819 391.99 83.2729 391.47 83.2729C390.457 83.2729 389.579 83.052 388.839 82.6102C388.111 82.1684 387.552 81.5642 387.163 80.7975C386.773 80.0179 386.578 79.1343 386.578 78.1467C386.578 77.1592 386.773 76.2756 387.163 75.4959C387.552 74.7033 388.111 74.0861 388.839 73.6443C389.579 73.2025 390.457 72.9816 391.47 72.9816C392.003 72.9816 392.523 73.0725 393.029 73.2545C393.536 73.4364 394.004 73.6898 394.433 74.0146V73.2545ZM391.84 80.6221C392.568 80.6221 393.179 80.3882 393.673 79.9204C394.166 79.4526 394.413 78.8484 394.413 78.1077C394.413 77.3931 394.166 76.8083 393.673 76.3535C393.179 75.8987 392.568 75.6713 391.84 75.6713C391.113 75.6713 390.515 75.8987 390.047 76.3535C389.579 76.8083 389.346 77.4061 389.346 78.1467C389.346 78.8874 389.579 79.4851 390.047 79.9399C390.515 80.3947 391.113 80.6221 391.84 80.6221ZM405.708 73.0595L405.513 75.6908C405.422 75.6519 405.273 75.6324 405.065 75.6324C404.272 75.6324 403.622 75.8598 403.116 76.3146C402.622 76.7564 402.375 77.3411 402.375 78.0688V83H399.588V73.2545H402.375V74.8332C402.609 74.3265 402.986 73.9042 403.506 73.5663C404.025 73.2285 404.656 73.0595 405.396 73.0595H405.708ZM416.281 79.4526H411.603V77.1137H416.281V79.4526ZM427.112 79.4526H422.434V77.1137H427.112V79.4526Z" fill="#AAAAAA"/>
<path d="M10.4295 30.3651V37.1586H24.0166V44H3.25324V10.5108H23.7295V17.3043H10.4295V23.5237H22.5813V30.3651H10.4295ZM43.1129 20.0791H51.4374L42.8259 32.0874L51.4374 44L43.0651 44.0478L38.6636 37.9241L34.2622 44.0478L25.8899 44L34.5014 32.0874L25.8899 20.0791H34.2143L38.6636 26.2507L43.1129 20.0791ZM67.8624 19.4572C70.3502 19.4572 72.4871 19.9994 74.2732 21.0838C76.0912 22.1682 77.4786 23.6672 78.4355 25.5809C79.3923 27.4627 79.8707 29.6156 79.8707 32.0396C79.8707 34.4635 79.3923 36.6324 78.4355 38.546C77.4786 40.4597 76.0912 41.9747 74.2732 43.091C72.4871 44.1754 70.3502 44.7176 67.8624 44.7176C66.5867 44.7176 65.3268 44.4944 64.0829 44.0478C62.839 43.6332 61.6908 43.0272 60.6383 42.2299V53.5684H53.7969V20.0791H60.6383V21.9449C61.6908 21.1476 62.8231 20.5416 64.0351 20.127C65.279 19.6804 66.5548 19.4572 67.8624 19.4572ZM66.9534 38.0676C68.7395 38.0676 70.1907 37.5254 71.307 36.441C72.4552 35.3247 73.0293 33.8575 73.0293 32.0396C73.0293 30.2216 72.4552 28.7544 71.307 27.6381C70.1907 26.5218 68.7395 25.9637 66.9534 25.9637C65.1673 25.9637 63.6683 26.5378 62.4563 27.686C61.2443 28.8342 60.6383 30.3013 60.6383 32.0874C60.6383 33.8735 61.2284 35.3247 62.4085 36.441C63.6205 37.5254 65.1354 38.0676 66.9534 38.0676ZM95.13 19.4572C97.4583 19.4572 99.5314 20.0153 101.349 21.1316C103.199 22.2479 104.635 23.7629 105.655 25.6766C106.676 27.5903 107.186 29.7113 107.186 32.0396C107.186 32.9326 107.122 33.7459 106.995 34.4795H89.2933C89.8993 35.9466 90.7126 37.047 91.7332 37.7806C92.7539 38.4822 94.0775 38.8331 95.7041 38.8331C96.6928 38.8331 97.6497 38.6258 98.5746 38.2111C99.5314 37.7965 100.281 37.2384 100.823 36.5367L105.99 39.5986C104.874 41.2252 103.423 42.4691 101.636 43.3302C99.8823 44.1914 97.857 44.6219 95.5606 44.6219C92.9771 44.6219 90.6967 44.0797 88.7192 42.9953C86.7417 41.879 85.2108 40.364 84.1264 38.4504C83.042 36.5367 82.4998 34.3998 82.4998 32.0396C82.4998 29.6794 83.026 27.5424 84.0786 25.6288C85.163 23.7151 86.662 22.216 88.5757 21.1316C90.4894 20.0153 92.6741 19.4572 95.13 19.4572ZM100.775 29.1691C100.552 27.9571 99.9142 27.0162 98.8617 26.3464C97.841 25.6766 96.5812 25.3417 95.0822 25.3417C93.5193 25.3417 92.1638 25.7244 91.0156 26.4899C89.8674 27.2235 89.2614 28.1165 89.1976 29.1691H100.775ZM125.772 19.6007L125.293 26.0593C125.07 25.9637 124.703 25.9158 124.193 25.9158C122.247 25.9158 120.652 26.474 119.409 27.5903C118.197 28.6747 117.591 30.1099 117.591 31.896V44H110.749V20.0791H117.591V23.9543C118.165 22.7104 119.09 21.6738 120.365 20.8446C121.641 20.0153 123.188 19.6007 125.006 19.6007H125.772ZM133.398 16.8259C132.122 16.8259 131.118 16.491 130.384 15.8212C129.682 15.1195 129.332 14.1786 129.332 12.9985C129.332 11.7865 129.682 10.8297 130.384 10.128C131.118 9.42635 132.122 9.07551 133.398 9.07551C134.642 9.07551 135.631 9.42635 136.364 10.128C137.098 10.8297 137.465 11.7865 137.465 12.9985C137.465 14.1786 137.098 15.1195 136.364 15.8212C135.631 16.491 134.642 16.8259 133.398 16.8259ZM129.954 44V20.0791H136.795V44H129.954ZM152.83 19.4572C155.158 19.4572 157.231 20.0153 159.049 21.1316C160.899 22.2479 162.334 23.7629 163.355 25.6766C164.376 27.5903 164.886 29.7113 164.886 32.0396C164.886 32.9326 164.822 33.7459 164.695 34.4795H146.993C147.599 35.9466 148.412 37.047 149.433 37.7806C150.454 38.4822 151.777 38.8331 153.404 38.8331C154.393 38.8331 155.349 38.6258 156.274 38.2111C157.231 37.7965 157.981 37.2384 158.523 36.5367L163.69 39.5986C162.574 41.2252 161.122 42.4691 159.336 43.3302C157.582 44.1914 155.557 44.6219 153.26 44.6219C150.677 44.6219 148.396 44.0797 146.419 42.9953C144.442 41.879 142.911 40.364 141.826 38.4504C140.742 36.5367 140.2 34.3998 140.2 32.0396C140.2 29.6794 140.726 27.5424 141.778 25.6288C142.863 23.7151 144.362 22.216 146.275 21.1316C148.189 20.0153 150.374 19.4572 152.83 19.4572ZM158.475 29.1691C158.252 27.9571 157.614 27.0162 156.561 26.3464C155.541 25.6766 154.281 25.3417 152.782 25.3417C151.219 25.3417 149.864 25.7244 148.715 26.4899C147.567 27.2235 146.961 28.1165 146.897 29.1691H158.475ZM181.079 19.4093C182.483 19.4093 183.902 19.7123 185.337 20.3183C186.772 20.9243 188 21.9928 189.021 23.5237C190.042 25.0547 190.552 27.1119 190.552 29.6953V44H183.711V29.6953C183.711 28.1644 183.28 27.064 182.419 26.3942C181.59 25.7244 180.585 25.3896 179.405 25.3896C178.225 25.3896 177.236 25.8042 176.439 26.6334C175.673 27.4627 175.29 28.7863 175.29 30.6043V44H168.449V20.0791H175.29V21.7057C177.108 20.1748 179.038 19.4093 181.079 19.4093ZM216.657 39.3115C215.477 40.97 213.978 42.2936 212.16 43.2824C210.374 44.2392 208.445 44.7176 206.371 44.7176C204.075 44.7176 201.954 44.1595 200.009 43.0432C198.095 41.895 196.564 40.3481 195.416 38.4025C194.299 36.4569 193.741 34.3519 193.741 32.0874C193.741 29.791 194.299 27.686 195.416 25.7723C196.564 23.8267 198.095 22.2958 200.009 21.1795C201.954 20.0313 204.075 19.4572 206.371 19.4572C208.445 19.4572 210.374 19.9356 212.16 20.8924C213.946 21.8493 215.429 23.141 216.61 24.7676L210.964 28.4993C209.625 27.0002 208.094 26.2507 206.371 26.2507C204.777 26.2507 203.405 26.8248 202.257 27.973C201.109 29.1212 200.535 30.4927 200.535 32.0874C200.535 33.6821 201.109 35.0536 202.257 36.2018C203.405 37.3181 204.777 37.8763 206.371 37.8763C208.094 37.8763 209.625 37.1267 210.964 35.6277L216.657 39.3115ZM230.853 19.4572C233.181 19.4572 235.254 20.0153 237.072 21.1316C238.922 22.2479 240.358 23.7629 241.378 25.6766C242.399 27.5903 242.909 29.7113 242.909 32.0396C242.909 32.9326 242.845 33.7459 242.718 34.4795H225.016C225.622 35.9466 226.436 37.047 227.456 37.7806C228.477 38.4822 229.8 38.8331 231.427 38.8331C232.416 38.8331 233.373 38.6258 234.298 38.2111C235.254 37.7965 236.004 37.2384 236.546 36.5367L241.713 39.5986C240.597 41.2252 239.146 42.4691 237.359 43.3302C235.605 44.1914 233.58 44.6219 231.284 44.6219C228.7 44.6219 226.42 44.0797 224.442 42.9953C222.465 41.879 220.934 40.364 219.849 38.4504C218.765 36.5367 218.223 34.3998 218.223 32.0396C218.223 29.6794 218.749 27.5424 219.802 25.6288C220.886 23.7151 222.385 22.216 224.299 21.1316C226.212 20.0153 228.397 19.4572 230.853 19.4572ZM236.498 29.1691C236.275 27.9571 235.637 27.0162 234.585 26.3464C233.564 25.6766 232.304 25.3417 230.805 25.3417C229.242 25.3417 227.887 25.7244 226.739 26.4899C225.59 27.2235 224.984 28.1165 224.921 29.1691H236.498Z" fill="white"/>
</svg>
