<svg width="190" height="25" viewBox="0 0 190 25" fill="none" xmlns="http://www.w3.org/2000/svg">
<path d="M14.464 8.63999V-7.62939e-06H19.264V22.4H14.464V13.216H4.79997V22.4H-2.52724e-05V-7.62939e-06H4.79997V8.63999H14.464ZM35.625 6.39999H40.169V22.4H35.625V21.184C34.921 21.7173 34.1423 22.1227 33.289 22.4C32.457 22.6987 31.6143 22.848 30.761 22.848C29.097 22.848 27.657 22.4853 26.441 21.76C25.2463 21.0347 24.329 20.0427 23.689 18.784C23.049 17.504 22.729 16.0533 22.729 14.432C22.729 12.8107 23.049 11.36 23.689 10.08C24.329 8.77866 25.2463 7.76533 26.441 7.03999C27.657 6.31466 29.097 5.95199 30.761 5.95199C31.6356 5.95199 32.489 6.10133 33.321 6.39999C34.153 6.69866 34.921 7.11466 35.625 7.64799V6.39999ZM31.369 18.496C32.5636 18.496 33.5663 18.112 34.377 17.344C35.1876 16.576 35.593 15.584 35.593 14.368C35.593 13.1947 35.1876 12.2347 34.377 11.488C33.5663 10.7413 32.5636 10.368 31.369 10.368C30.1743 10.368 29.193 10.7413 28.425 11.488C27.657 12.2347 27.273 13.216 27.273 14.432C27.273 15.648 27.657 16.6293 28.425 17.376C29.193 18.1227 30.1743 18.496 31.369 18.496ZM57.8025 19.264C57.0131 20.3733 56.0105 21.2587 54.7945 21.92C53.5998 22.56 52.3091 22.88 50.9225 22.88C49.3865 22.88 47.9678 22.5067 46.6665 21.76C45.3865 20.992 44.3625 19.9573 43.5945 18.656C42.8478 17.3547 42.4745 15.9467 42.4745 14.432C42.4745 12.896 42.8478 11.488 43.5945 10.208C44.3625 8.90666 45.3865 7.88266 46.6665 7.13599C47.9678 6.36799 49.3865 5.98399 50.9225 5.98399C52.3091 5.98399 53.5998 6.30399 54.7945 6.94399C55.9891 7.58399 56.9811 8.44799 57.7705 9.53599L53.9945 12.032C53.0985 11.0293 52.0745 10.528 50.9225 10.528C49.8558 10.528 48.9385 10.912 48.1705 11.68C47.4025 12.448 47.0185 13.3653 47.0185 14.432C47.0185 15.4987 47.4025 16.416 48.1705 17.184C48.9385 17.9307 49.8558 18.304 50.9225 18.304C52.0745 18.304 53.0985 17.8027 53.9945 16.8L57.8025 19.264ZM76.4435 22.4H70.7475L66.6515 16.864L64.5395 19.168V22.4H59.9635V-7.62939e-06H64.5395V12.448L69.8515 6.39999H76.2195L69.7555 13.44L76.4435 22.4ZM90.8125 6.39999H95.3565V22.4H90.8125V21.184C90.1085 21.7173 89.3298 22.1227 88.4765 22.4C87.6445 22.6987 86.8018 22.848 85.9485 22.848C84.2845 22.848 82.8445 22.4853 81.6285 21.76C80.4338 21.0347 79.5165 20.0427 78.8765 18.784C78.2365 17.504 77.9165 16.0533 77.9165 14.432C77.9165 12.8107 78.2365 11.36 78.8765 10.08C79.5165 8.77866 80.4338 7.76533 81.6285 7.03999C82.8445 6.31466 84.2845 5.95199 85.9485 5.95199C86.8231 5.95199 87.6765 6.10133 88.5085 6.39999C89.3405 6.69866 90.1085 7.11466 90.8125 7.64799V6.39999ZM86.5565 18.496C87.7511 18.496 88.7538 18.112 89.5645 17.344C90.3751 16.576 90.7805 15.584 90.7805 14.368C90.7805 13.1947 90.3751 12.2347 89.5645 11.488C88.7538 10.7413 87.7511 10.368 86.5565 10.368C85.3618 10.368 84.3805 10.7413 83.6125 11.488C82.8445 12.2347 82.4605 13.216 82.4605 14.432C82.4605 15.648 82.8445 16.6293 83.6125 17.376C84.3805 18.1227 85.3618 18.496 86.5565 18.496ZM104.822 16.704C104.822 17.3013 104.982 17.7173 105.302 17.952C105.643 18.1867 106.155 18.304 106.838 18.304C107.264 18.304 107.734 18.272 108.246 18.208V22.4C107.179 22.5067 106.294 22.56 105.59 22.56C103.798 22.56 102.454 22.1653 101.558 21.376C100.683 20.5653 100.246 19.104 100.246 16.992V10.464H97.4937V6.39999H100.246V2.68799L104.822 1.15199V6.39999H108.182V10.464H104.822V16.704ZM125.715 22.4H121.139V12.96C121.139 11.936 120.851 11.2 120.275 10.752C119.699 10.2827 119.016 10.048 118.227 10.048C117.565 10.048 116.989 10.2613 116.499 10.688C116.008 11.0933 115.699 11.7333 115.571 12.608V22.4H110.995V-7.62939e-06H115.571V7.55199C116.744 6.57066 118.013 6.07999 119.379 6.07999C120.296 6.07999 121.224 6.28266 122.163 6.68799C123.123 7.07199 123.944 7.76533 124.627 8.76799C125.331 9.77066 125.693 11.1253 125.715 12.832V22.4ZM136.329 22.88C134.793 22.88 133.374 22.5067 132.073 21.76C130.793 20.992 129.769 19.9573 129.001 18.656C128.254 17.3547 127.881 15.9467 127.881 14.432C127.881 12.896 128.254 11.488 129.001 10.208C129.769 8.90666 130.793 7.88266 132.073 7.13599C133.374 6.36799 134.793 5.98399 136.329 5.98399C137.843 5.98399 139.241 6.36799 140.521 7.13599C141.822 7.88266 142.846 8.90666 143.593 10.208C144.361 11.488 144.745 12.896 144.745 14.432C144.745 15.9467 144.361 17.3547 143.593 18.656C142.846 19.9573 141.822 20.992 140.521 21.76C139.241 22.5067 137.843 22.88 136.329 22.88ZM136.297 18.304C137.363 18.304 138.281 17.9307 139.049 17.184C139.817 16.416 140.201 15.4987 140.201 14.432C140.201 13.3653 139.817 12.448 139.049 11.68C138.281 10.912 137.363 10.528 136.297 10.528C135.23 10.528 134.313 10.912 133.545 11.68C132.798 12.448 132.425 13.3653 132.425 14.432C132.425 15.4987 132.798 16.416 133.545 17.184C134.313 17.9307 135.23 18.304 136.297 18.304ZM155.599 5.95199C156.538 5.95199 157.487 6.15466 158.447 6.55999C159.407 6.96533 160.228 7.67999 160.911 8.70399C161.594 9.72799 161.935 11.104 161.935 12.832V22.4H157.359V12.832C157.359 11.808 157.071 11.072 156.495 10.624C155.94 10.176 155.268 9.95199 154.479 9.95199C153.69 9.95199 153.028 10.2293 152.495 10.784C151.983 11.3387 151.727 12.224 151.727 13.44V22.4H147.151V6.39999H151.727V7.48799C152.943 6.46399 154.234 5.95199 155.599 5.95199ZM168.501 24.656C167.301 23.392 166.341 21.792 165.621 19.856C164.917 17.92 164.565 15.984 164.565 14.048C164.565 12.112 164.917 10.176 165.621 8.23999C166.341 6.28799 167.301 4.68799 168.501 3.43999L170.637 5.07199C169.789 6.59199 169.173 8.04799 168.789 9.43999C168.421 10.816 168.237 12.352 168.237 14.048C168.237 15.744 168.421 17.288 168.789 18.68C169.173 20.072 169.789 21.504 170.637 22.976L168.501 24.656ZM175.594 13.808C175.594 14.08 175.762 14.288 176.098 14.432C176.434 14.56 176.97 14.696 177.706 14.84C178.65 15.032 179.434 15.248 180.058 15.488C180.682 15.712 181.226 16.096 181.69 16.64C182.17 17.168 182.41 17.904 182.41 18.848C182.41 19.664 182.162 20.368 181.666 20.96C181.17 21.536 180.514 21.976 179.698 22.28C178.882 22.568 178.002 22.712 177.058 22.712C175.762 22.712 174.658 22.48 173.746 22.016C172.834 21.536 172.146 20.832 171.682 19.904L174.49 18.464C174.874 19.488 175.73 20 177.058 20C177.602 20 178.074 19.904 178.474 19.712C178.89 19.504 179.098 19.216 179.098 18.848C179.098 18.528 178.906 18.288 178.522 18.128C178.154 17.968 177.562 17.8 176.746 17.624C175.818 17.416 175.042 17.2 174.418 16.976C173.794 16.736 173.258 16.376 172.81 15.896C172.362 15.4 172.138 14.744 172.138 13.928C172.138 13.144 172.362 12.464 172.81 11.888C173.258 11.296 173.858 10.848 174.61 10.544C175.378 10.24 176.21 10.088 177.106 10.088C178.162 10.088 179.114 10.304 179.962 10.736C180.81 11.168 181.474 11.792 181.954 12.608L179.17 13.976C178.978 13.576 178.714 13.28 178.378 13.088C178.058 12.896 177.634 12.8 177.106 12.8C176.642 12.8 176.274 12.896 176.002 13.088C175.73 13.264 175.594 13.504 175.594 13.808ZM185.721 3.43999C186.921 4.68799 187.873 6.28799 188.577 8.23999C189.297 10.176 189.657 12.112 189.657 14.048C189.657 15.984 189.297 17.92 188.577 19.856C187.873 21.792 186.921 23.392 185.721 24.656L183.585 22.976C184.433 21.504 185.041 20.072 185.409 18.68C185.793 17.288 185.985 15.744 185.985 14.048C185.985 12.352 185.793 10.816 185.409 9.43999C185.041 8.04799 184.433 6.59199 183.585 5.07199L185.721 3.43999Z" fill="white"/>
</svg>
