<svg width="160" height="24" viewBox="0 0 160 24" fill="none" xmlns="http://www.w3.org/2000/svg">
<path d="M14.464 9.59999V0.959984H19.264V23.36H14.464V14.176H4.79997V23.36H-2.52724e-05V0.959984H4.79997V9.59999H14.464ZM35.625 7.35999H40.169V23.36H35.625V22.144C34.921 22.6773 34.1423 23.0827 33.289 23.36C32.457 23.6587 31.6143 23.808 30.761 23.808C29.097 23.808 27.657 23.4453 26.441 22.72C25.2463 21.9947 24.329 21.0027 23.689 19.744C23.049 18.464 22.729 17.0133 22.729 15.392C22.729 13.7707 23.049 12.32 23.689 11.04C24.329 9.73865 25.2463 8.72532 26.441 7.99998C27.657 7.27465 29.097 6.91199 30.761 6.91199C31.6356 6.91199 32.489 7.06132 33.321 7.35999C34.153 7.65865 34.921 8.07465 35.625 8.60798V7.35999ZM31.369 19.456C32.5636 19.456 33.5663 19.072 34.377 18.304C35.1876 17.536 35.593 16.544 35.593 15.328C35.593 14.1547 35.1876 13.1947 34.377 12.448C33.5663 11.7013 32.5636 11.328 31.369 11.328C30.1743 11.328 29.193 11.7013 28.425 12.448C27.657 13.1947 27.273 14.176 27.273 15.392C27.273 16.608 27.657 17.5893 28.425 18.336C29.193 19.0827 30.1743 19.456 31.369 19.456ZM54.1365 7.03998L53.8165 11.36C53.6671 11.296 53.4218 11.264 53.0805 11.264C51.7791 11.264 50.7125 11.6373 49.8805 12.384C49.0698 13.1093 48.6645 14.0693 48.6645 15.264V23.36H44.0885V7.35999H48.6645V9.95198C49.0485 9.11998 49.6671 8.42665 50.5205 7.87198C51.3738 7.31732 52.4085 7.03998 53.6245 7.03998H54.1365ZM68.0617 0.959984H72.6057V23.36H68.0617V22.144C67.3577 22.6773 66.5897 23.0827 65.7577 23.36C64.9471 23.6587 64.1044 23.808 63.2297 23.808C61.5657 23.808 60.1257 23.4453 58.9097 22.72C57.7151 21.9947 56.7977 21.0027 56.1577 19.744C55.5177 18.464 55.1977 17.0133 55.1977 15.392C55.1977 13.7707 55.5177 12.32 56.1577 11.04C56.7977 9.73865 57.7151 8.72532 58.9097 7.99998C60.1257 7.27465 61.5657 6.91199 63.2297 6.91199C64.0831 6.91199 64.9257 7.06132 65.7577 7.35999C66.5897 7.63732 67.3577 8.04265 68.0617 8.57598V0.959984ZM63.8377 19.456C65.0324 19.456 66.0351 19.072 66.8457 18.304C67.6564 17.536 68.0617 16.544 68.0617 15.328C68.0617 14.1547 67.6564 13.1947 66.8457 12.448C66.0351 11.7013 65.0324 11.328 63.8377 11.328C62.6431 11.328 61.6617 11.7013 60.8937 12.448C60.1257 13.1947 59.7417 14.176 59.7417 15.392C59.7417 16.608 60.1257 17.5893 60.8937 18.336C61.6617 19.0827 62.6431 19.456 63.8377 19.456ZM88.8407 11.904C88.8407 12.2667 89.0647 12.544 89.5127 12.736C89.9607 12.9067 90.6754 13.088 91.6567 13.28C92.9154 13.536 93.9607 13.824 94.7927 14.144C95.6247 14.4427 96.3501 14.9547 96.9687 15.68C97.6087 16.384 97.9287 17.3653 97.9287 18.624C97.9287 19.712 97.5981 20.6507 96.9367 21.44C96.2754 22.208 95.4007 22.7947 94.3127 23.2C93.2247 23.584 92.0514 23.776 90.7927 23.776C89.0647 23.776 87.5927 23.4667 86.3767 22.848C85.1607 22.208 84.2434 21.2693 83.6247 20.032L87.3687 18.112C87.8807 19.4773 89.0221 20.16 90.7927 20.16C91.5181 20.16 92.1474 20.032 92.6807 19.776C93.2354 19.4987 93.5127 19.1147 93.5127 18.624C93.5127 18.1973 93.2567 17.8773 92.7447 17.664C92.2541 17.4507 91.4647 17.2267 90.3767 16.992C89.1394 16.7147 88.1047 16.4267 87.2727 16.128C86.4407 15.808 85.7261 15.328 85.1287 14.688C84.5314 14.0267 84.2327 13.152 84.2327 12.064C84.2327 11.0187 84.5314 10.112 85.1287 9.34398C85.7261 8.55465 86.5261 7.95732 87.5287 7.55198C88.5527 7.14665 89.6621 6.94398 90.8567 6.94398C92.2647 6.94398 93.5341 7.23198 94.6647 7.80798C95.7954 8.38398 96.6807 9.21598 97.3207 10.304L93.6087 12.128C93.3527 11.5947 93.0007 11.2 92.5527 10.944C92.1261 10.688 91.5607 10.56 90.8567 10.56C90.2381 10.56 89.7474 10.688 89.3847 10.944C89.0221 11.1787 88.8407 11.4987 88.8407 11.904ZM117.318 23.36H111.622L107.526 17.824L105.414 20.128V23.36H100.838V0.959984H105.414V13.408L110.726 7.35999H117.094L110.63 14.4L117.318 23.36ZM121.519 5.18398C120.666 5.18398 119.994 4.95998 119.503 4.51198C119.034 4.04265 118.799 3.41332 118.799 2.62399C118.799 1.81332 119.034 1.17332 119.503 0.703985C119.994 0.234652 120.666 -1.52588e-05 121.519 -1.52588e-05C122.351 -1.52588e-05 123.012 0.234652 123.503 0.703985C123.994 1.17332 124.239 1.81332 124.239 2.62399C124.239 3.41332 123.994 4.04265 123.503 4.51198C123.012 4.95998 122.351 5.18398 121.519 5.18398ZM119.215 23.36V7.35999H123.791V23.36H119.215ZM132.133 18.304C132.133 18.6453 132.208 18.8907 132.357 19.04C132.528 19.1893 132.805 19.264 133.189 19.264C133.467 19.264 133.797 19.232 134.181 19.168V23.36C133.136 23.5093 132.325 23.584 131.749 23.584C130.363 23.584 129.317 23.2213 128.613 22.496C127.909 21.7493 127.557 20.448 127.557 18.592V0.959984H132.133V18.304ZM141.102 18.304C141.102 18.6453 141.177 18.8907 141.326 19.04C141.497 19.1893 141.774 19.264 142.158 19.264C142.435 19.264 142.766 19.232 143.15 19.168V23.36C142.105 23.5093 141.294 23.584 140.718 23.584C139.331 23.584 138.286 23.2213 137.582 22.496C136.878 21.7493 136.526 20.448 136.526 18.592V0.959984H141.102V18.304ZM150.153 11.904C150.153 12.2667 150.377 12.544 150.825 12.736C151.273 12.9067 151.988 13.088 152.969 13.28C154.228 13.536 155.273 13.824 156.105 14.144C156.937 14.4427 157.663 14.9547 158.281 15.68C158.921 16.384 159.241 17.3653 159.241 18.624C159.241 19.712 158.911 20.6507 158.249 21.44C157.588 22.208 156.713 22.7947 155.625 23.2C154.537 23.584 153.364 23.776 152.105 23.776C150.377 23.776 148.905 23.4667 147.689 22.848C146.473 22.208 145.556 21.2693 144.937 20.032L148.681 18.112C149.193 19.4773 150.335 20.16 152.105 20.16C152.831 20.16 153.46 20.032 153.993 19.776C154.548 19.4987 154.825 19.1147 154.825 18.624C154.825 18.1973 154.569 17.8773 154.057 17.664C153.567 17.4507 152.777 17.2267 151.689 16.992C150.452 16.7147 149.417 16.4267 148.585 16.128C147.753 15.808 147.039 15.328 146.441 14.688C145.844 14.0267 145.545 13.152 145.545 12.064C145.545 11.0187 145.844 10.112 146.441 9.34398C147.039 8.55465 147.839 7.95732 148.841 7.55198C149.865 7.14665 150.975 6.94398 152.169 6.94398C153.577 6.94398 154.847 7.23198 155.977 7.80798C157.108 8.38398 157.993 9.21598 158.633 10.304L154.921 12.128C154.665 11.5947 154.313 11.2 153.865 10.944C153.439 10.688 152.873 10.56 152.169 10.56C151.551 10.56 151.06 10.688 150.697 10.944C150.335 11.1787 150.153 11.4987 150.153 11.904Z" fill="white"/>
</svg>
