<svg width="736" height="74" viewBox="0 0 736 74" fill="none" xmlns="http://www.w3.org/2000/svg">
<path d="M16.64 15.24V6.6H21.44V29H16.64V19.816H6.976V29H2.176V6.6H6.976V15.24H16.64ZM37.801 13H42.345V29H37.801V27.784C37.097 28.3173 36.3183 28.7227 35.465 29C34.633 29.2987 33.7903 29.448 32.937 29.448C31.273 29.448 29.833 29.0853 28.617 28.36C27.4223 27.6347 26.505 26.6427 25.865 25.384C25.225 24.104 24.905 22.6533 24.905 21.032C24.905 19.4107 25.225 17.96 25.865 16.68C26.505 15.3787 27.4223 14.3653 28.617 13.64C29.833 12.9147 31.273 12.552 32.937 12.552C33.8117 12.552 34.665 12.7013 35.497 13C36.329 13.2987 37.097 13.7147 37.801 14.248V13ZM33.545 25.096C34.7397 25.096 35.7423 24.712 36.553 23.944C37.3637 23.176 37.769 22.184 37.769 20.968C37.769 19.7947 37.3637 18.8347 36.553 18.088C35.7423 17.3413 34.7397 16.968 33.545 16.968C32.3503 16.968 31.369 17.3413 30.601 18.088C29.833 18.8347 29.449 19.816 29.449 21.032C29.449 22.248 29.833 23.2293 30.601 23.976C31.369 24.7227 32.3503 25.096 33.545 25.096ZM56.3125 12.68L55.9925 17C55.8432 16.936 55.5978 16.904 55.2565 16.904C53.9552 16.904 52.8885 17.2773 52.0565 18.024C51.2458 18.7493 50.8405 19.7093 50.8405 20.904V29H46.2645V13H50.8405V15.592C51.2245 14.76 51.8432 14.0667 52.6965 13.512C53.5498 12.9573 54.5845 12.68 55.8005 12.68H56.3125ZM70.2378 6.6H74.7818V29H70.2378V27.784C69.5338 28.3173 68.7658 28.7227 67.9338 29C67.1231 29.2987 66.2804 29.448 65.4058 29.448C63.7418 29.448 62.3018 29.0853 61.0858 28.36C59.8911 27.6347 58.9738 26.6427 58.3338 25.384C57.6938 24.104 57.3738 22.6533 57.3738 21.032C57.3738 19.4107 57.6938 17.96 58.3338 16.68C58.9738 15.3787 59.8911 14.3653 61.0858 13.64C62.3018 12.9147 63.7418 12.552 65.4058 12.552C66.2591 12.552 67.1018 12.7013 67.9338 13C68.7658 13.2773 69.5338 13.6827 70.2378 14.216V6.6ZM66.0138 25.096C67.2084 25.096 68.2111 24.712 69.0218 23.944C69.8324 23.176 70.2378 22.184 70.2378 20.968C70.2378 19.7947 69.8324 18.8347 69.0218 18.088C68.2111 17.3413 67.2084 16.968 66.0138 16.968C64.8191 16.968 63.8378 17.3413 63.0698 18.088C62.3018 18.8347 61.9178 19.816 61.9178 21.032C61.9178 22.248 62.3018 23.2293 63.0698 23.976C63.8378 24.7227 64.8191 25.096 66.0138 25.096ZM91.0168 17.544C91.0168 17.9067 91.2408 18.184 91.6888 18.376C92.1368 18.5467 92.8514 18.728 93.8328 18.92C95.0914 19.176 96.1368 19.464 96.9688 19.784C97.8008 20.0827 98.5261 20.5947 99.1448 21.32C99.7848 22.024 100.105 23.0053 100.105 24.264C100.105 25.352 99.7741 26.2907 99.1128 27.08C98.4514 27.848 97.5768 28.4347 96.4888 28.84C95.4008 29.224 94.2274 29.416 92.9688 29.416C91.2408 29.416 89.7688 29.1067 88.5528 28.488C87.3368 27.848 86.4194 26.9093 85.8008 25.672L89.5448 23.752C90.0568 25.1173 91.1981 25.8 92.9688 25.8C93.6941 25.8 94.3234 25.672 94.8568 25.416C95.4114 25.1387 95.6888 24.7547 95.6888 24.264C95.6888 23.8373 95.4328 23.5173 94.9208 23.304C94.4301 23.0907 93.6408 22.8667 92.5528 22.632C91.3154 22.3547 90.2808 22.0667 89.4488 21.768C88.6168 21.448 87.9021 20.968 87.3048 20.328C86.7074 19.6667 86.4088 18.792 86.4088 17.704C86.4088 16.6587 86.7074 15.752 87.3048 14.984C87.9021 14.1947 88.7021 13.5973 89.7048 13.192C90.7288 12.7867 91.8381 12.584 93.0328 12.584C94.4408 12.584 95.7101 12.872 96.8408 13.448C97.9714 14.024 98.8568 14.856 99.4968 15.944L95.7848 17.768C95.5288 17.2347 95.1768 16.84 94.7288 16.584C94.3021 16.328 93.7368 16.2 93.0328 16.2C92.4141 16.2 91.9234 16.328 91.5608 16.584C91.1981 16.8187 91.0168 17.1387 91.0168 17.544ZM119.495 29H113.799L109.703 23.464L107.591 25.768V29H103.015V6.6H107.591V19.048L112.903 13H119.271L112.807 20.04L119.495 29ZM123.695 10.824C122.842 10.824 122.17 10.6 121.679 10.152C121.21 9.68267 120.975 9.05333 120.975 8.264C120.975 7.45333 121.21 6.81333 121.679 6.344C122.17 5.87467 122.842 5.64 123.695 5.64C124.527 5.64 125.188 5.87467 125.679 6.344C126.17 6.81333 126.415 7.45333 126.415 8.264C126.415 9.05333 126.17 9.68267 125.679 10.152C125.188 10.6 124.527 10.824 123.695 10.824ZM121.391 29V13H125.967V29H121.391ZM134.309 23.944C134.309 24.2853 134.384 24.5307 134.533 24.68C134.704 24.8293 134.981 24.904 135.365 24.904C135.643 24.904 135.973 24.872 136.357 24.808V29C135.312 29.1493 134.501 29.224 133.925 29.224C132.539 29.224 131.493 28.8613 130.789 28.136C130.085 27.3893 129.733 26.088 129.733 24.232V6.6H134.309V23.944ZM143.278 23.944C143.278 24.2853 143.353 24.5307 143.502 24.68C143.673 24.8293 143.95 24.904 144.334 24.904C144.611 24.904 144.942 24.872 145.326 24.808V29C144.281 29.1493 143.47 29.224 142.894 29.224C141.507 29.224 140.462 28.8613 139.758 28.136C139.054 27.3893 138.702 26.088 138.702 24.232V6.6H143.278V23.944ZM152.329 17.544C152.329 17.9067 152.553 18.184 153.001 18.376C153.449 18.5467 154.164 18.728 155.145 18.92C156.404 19.176 157.449 19.464 158.281 19.784C159.113 20.0827 159.839 20.5947 160.457 21.32C161.097 22.024 161.417 23.0053 161.417 24.264C161.417 25.352 161.087 26.2907 160.425 27.08C159.764 27.848 158.889 28.4347 157.801 28.84C156.713 29.224 155.54 29.416 154.281 29.416C152.553 29.416 151.081 29.1067 149.865 28.488C148.649 27.848 147.732 26.9093 147.113 25.672L150.857 23.752C151.369 25.1173 152.511 25.8 154.281 25.8C155.007 25.8 155.636 25.672 156.169 25.416C156.724 25.1387 157.001 24.7547 157.001 24.264C157.001 23.8373 156.745 23.5173 156.233 23.304C155.743 23.0907 154.953 22.8667 153.865 22.632C152.628 22.3547 151.593 22.0667 150.761 21.768C149.929 21.448 149.215 20.968 148.617 20.328C148.02 19.6667 147.721 18.792 147.721 17.704C147.721 16.6587 148.02 15.752 148.617 14.984C149.215 14.1947 150.015 13.5973 151.017 13.192C152.041 12.7867 153.151 12.584 154.345 12.584C155.753 12.584 157.023 12.872 158.153 13.448C159.284 14.024 160.169 14.856 160.809 15.944L157.097 17.768C156.841 17.2347 156.489 16.84 156.041 16.584C155.615 16.328 155.049 16.2 154.345 16.2C153.727 16.2 153.236 16.328 152.873 16.584C152.511 16.8187 152.329 17.1387 152.329 17.544Z" fill="white"/>
<path d="M10.4 59.9298V54.5298H13.4V68.5298H10.4V62.7898H4.36V68.5298H1.36V54.5298H4.36V59.9298H10.4ZM20.7256 58.2698C21.699 58.2698 22.5656 58.5031 23.3256 58.9698C24.099 59.4365 24.699 60.0698 25.1256 60.8698C25.5523 61.6698 25.7656 62.5565 25.7656 63.5298C25.7656 63.9031 25.739 64.2431 25.6856 64.5498H18.2856C18.539 65.1631 18.879 65.6231 19.3056 65.9298C19.7323 66.2231 20.2856 66.3698 20.9656 66.3698C21.379 66.3698 21.779 66.2831 22.1656 66.1098C22.5656 65.9365 22.879 65.7031 23.1056 65.4098L25.2656 66.6898C24.799 67.3698 24.1923 67.8898 23.4456 68.2498C22.7123 68.6098 21.8656 68.7898 20.9056 68.7898C19.8256 68.7898 18.8723 68.5631 18.0456 68.1098C17.219 67.6431 16.579 67.0098 16.1256 66.2098C15.6723 65.4098 15.4456 64.5165 15.4456 63.5298C15.4456 62.5431 15.6656 61.6498 16.1056 60.8498C16.559 60.0498 17.1856 59.4231 17.9856 58.9698C18.7856 58.5031 19.699 58.2698 20.7256 58.2698ZM23.0856 62.3298C22.9923 61.8231 22.7256 61.4298 22.2856 61.1498C21.859 60.8698 21.3323 60.7298 20.7056 60.7298C20.0523 60.7298 19.4856 60.8898 19.0056 61.2098C18.5256 61.5165 18.2723 61.8898 18.2456 62.3298H23.0856ZM33.5352 58.3298L33.3352 61.0298C33.2418 60.9898 33.0885 60.9698 32.8752 60.9698C32.0618 60.9698 31.3952 61.2031 30.8752 61.6698C30.3685 62.1231 30.1152 62.7231 30.1152 63.4698V68.5298H27.2552V58.5298H30.1152V60.1498C30.3552 59.6298 30.7418 59.1965 31.2752 58.8498C31.8085 58.5031 32.4552 58.3298 33.2152 58.3298H33.5352ZM39.3194 58.2698C40.2927 58.2698 41.1594 58.5031 41.9194 58.9698C42.6927 59.4365 43.2927 60.0698 43.7194 60.8698C44.146 61.6698 44.3594 62.5565 44.3594 63.5298C44.3594 63.9031 44.3327 64.2431 44.2794 64.5498H36.8794C37.1327 65.1631 37.4727 65.6231 37.8994 65.9298C38.326 66.2231 38.8794 66.3698 39.5594 66.3698C39.9727 66.3698 40.3727 66.2831 40.7594 66.1098C41.1594 65.9365 41.4727 65.7031 41.6994 65.4098L43.8594 66.6898C43.3927 67.3698 42.786 67.8898 42.0394 68.2498C41.306 68.6098 40.4594 68.7898 39.4994 68.7898C38.4194 68.7898 37.466 68.5631 36.6394 68.1098C35.8127 67.6431 35.1727 67.0098 34.7194 66.2098C34.266 65.4098 34.0394 64.5165 34.0394 63.5298C34.0394 62.5431 34.2594 61.6498 34.6994 60.8498C35.1527 60.0498 35.7794 59.4231 36.5794 58.9698C37.3794 58.5031 38.2927 58.2698 39.3194 58.2698ZM41.6794 62.3298C41.586 61.8231 41.3194 61.4298 40.8794 61.1498C40.4527 60.8698 39.926 60.7298 39.2994 60.7298C38.646 60.7298 38.0794 60.8898 37.5994 61.2098C37.1194 61.5165 36.866 61.8898 36.8394 62.3298H41.6794ZM58.9967 58.5298H61.8367V68.5298H58.9967V67.7698C58.5567 68.1031 58.0701 68.3565 57.5367 68.5298C57.0167 68.7165 56.4901 68.8098 55.9567 68.8098C54.9167 68.8098 54.0167 68.5831 53.2567 68.1298C52.5101 67.6765 51.9367 67.0565 51.5367 66.2698C51.1367 65.4698 50.9367 64.5631 50.9367 63.5498C50.9367 62.5365 51.1367 61.6298 51.5367 60.8298C51.9367 60.0165 52.5101 59.3831 53.2567 58.9298C54.0167 58.4765 54.9167 58.2498 55.9567 58.2498C56.5034 58.2498 57.0367 58.3431 57.5567 58.5298C58.0767 58.7165 58.5567 58.9765 58.9967 59.3098V58.5298ZM56.3367 66.0898C57.0834 66.0898 57.7101 65.8498 58.2167 65.3698C58.7234 64.8898 58.9767 64.2698 58.9767 63.5098C58.9767 62.7765 58.7234 62.1765 58.2167 61.7098C57.7101 61.2431 57.0834 61.0098 56.3367 61.0098C55.5901 61.0098 54.9767 61.2431 54.4967 61.7098C54.0167 62.1765 53.7767 62.7898 53.7767 63.5498C53.7767 64.3098 54.0167 64.9231 54.4967 65.3898C54.9767 65.8565 55.5901 66.0898 56.3367 66.0898ZM70.5664 58.3298L70.3664 61.0298C70.2731 60.9898 70.1197 60.9698 69.9064 60.9698C69.0931 60.9698 68.4264 61.2031 67.9064 61.6698C67.3997 62.1231 67.1464 62.7231 67.1464 63.4698V68.5298H64.2864V58.5298H67.1464V60.1498C67.3864 59.6298 67.7731 59.1965 68.3064 58.8498C68.8397 58.5031 69.4864 58.3298 70.2464 58.3298H70.5664ZM76.3506 58.2698C77.324 58.2698 78.1906 58.5031 78.9506 58.9698C79.724 59.4365 80.324 60.0698 80.7506 60.8698C81.1773 61.6698 81.3906 62.5565 81.3906 63.5298C81.3906 63.9031 81.364 64.2431 81.3106 64.5498H73.9106C74.164 65.1631 74.504 65.6231 74.9306 65.9298C75.3573 66.2231 75.9106 66.3698 76.5906 66.3698C77.004 66.3698 77.404 66.2831 77.7906 66.1098C78.1906 65.9365 78.504 65.7031 78.7306 65.4098L80.8906 66.6898C80.424 67.3698 79.8173 67.8898 79.0706 68.2498C78.3373 68.6098 77.4906 68.7898 76.5306 68.7898C75.4506 68.7898 74.4973 68.5631 73.6706 68.1098C72.844 67.6431 72.204 67.0098 71.7506 66.2098C71.2973 65.4098 71.0706 64.5165 71.0706 63.5298C71.0706 62.5431 71.2906 61.6498 71.7306 60.8498C72.184 60.0498 72.8106 59.4231 73.6106 58.9698C74.4106 58.5031 75.324 58.2698 76.3506 58.2698ZM78.7106 62.3298C78.6173 61.8231 78.3506 61.4298 77.9106 61.1498C77.484 60.8698 76.9573 60.7298 76.3306 60.7298C75.6773 60.7298 75.1106 60.8898 74.6306 61.2098C74.1506 61.5165 73.8973 61.8898 73.8706 62.3298H78.7106ZM90.948 61.3698C90.948 61.5965 91.088 61.7698 91.368 61.8898C91.648 61.9965 92.0946 62.1098 92.708 62.2298C93.4946 62.3898 94.148 62.5698 94.668 62.7698C95.188 62.9565 95.6413 63.2765 96.028 63.7298C96.428 64.1698 96.628 64.7831 96.628 65.5698C96.628 66.2498 96.4213 66.8365 96.008 67.3298C95.5946 67.8098 95.048 68.1765 94.368 68.4298C93.688 68.6698 92.9546 68.7898 92.168 68.7898C91.088 68.7898 90.168 68.5965 89.408 68.2098C88.648 67.8098 88.0746 67.2231 87.688 66.4498L90.028 65.2498C90.348 66.1031 91.0613 66.5298 92.168 66.5298C92.6213 66.5298 93.0146 66.4498 93.348 66.2898C93.6946 66.1165 93.868 65.8765 93.868 65.5698C93.868 65.3031 93.708 65.1031 93.388 64.9698C93.0813 64.8365 92.588 64.6965 91.908 64.5498C91.1346 64.3765 90.488 64.1965 89.968 64.0098C89.448 63.8098 89.0013 63.5098 88.628 63.1098C88.2546 62.6965 88.068 62.1498 88.068 61.4698C88.068 60.8165 88.2546 60.2498 88.628 59.7698C89.0013 59.2765 89.5013 58.9031 90.128 58.6498C90.768 58.3965 91.4613 58.2698 92.208 58.2698C93.088 58.2698 93.8813 58.4498 94.588 58.8098C95.2946 59.1698 95.848 59.6898 96.248 60.3698L93.928 61.5098C93.768 61.1765 93.548 60.9298 93.268 60.7698C93.0013 60.6098 92.648 60.5298 92.208 60.5298C91.8213 60.5298 91.5146 60.6098 91.288 60.7698C91.0613 60.9165 90.948 61.1165 90.948 61.3698ZM102.796 68.8298C101.836 68.8298 100.949 68.5965 100.136 68.1298C99.3359 67.6498 98.6959 67.0031 98.2159 66.1898C97.7493 65.3765 97.5159 64.4965 97.5159 63.5498C97.5159 62.5898 97.7493 61.7098 98.2159 60.9098C98.6959 60.0965 99.3359 59.4565 100.136 58.9898C100.949 58.5098 101.836 58.2698 102.796 58.2698C103.743 58.2698 104.616 58.5098 105.416 58.9898C106.229 59.4565 106.869 60.0965 107.336 60.9098C107.816 61.7098 108.056 62.5898 108.056 63.5498C108.056 64.4965 107.816 65.3765 107.336 66.1898C106.869 67.0031 106.229 67.6498 105.416 68.1298C104.616 68.5965 103.743 68.8298 102.796 68.8298ZM102.776 65.9698C103.443 65.9698 104.016 65.7365 104.496 65.2698C104.976 64.7898 105.216 64.2165 105.216 63.5498C105.216 62.8831 104.976 62.3098 104.496 61.8298C104.016 61.3498 103.443 61.1098 102.776 61.1098C102.109 61.1098 101.536 61.3498 101.056 61.8298C100.589 62.3098 100.356 62.8831 100.356 63.5498C100.356 64.2165 100.589 64.7898 101.056 65.2698C101.536 65.7365 102.109 65.9698 102.776 65.9698ZM120.944 58.2498C121.531 58.2498 122.124 58.3765 122.724 58.6298C123.324 58.8831 123.837 59.3298 124.264 59.9698C124.691 60.6098 124.904 61.4698 124.904 62.5498V68.5298H122.064V62.5498C122.064 61.9098 121.884 61.4498 121.524 61.1698C121.164 60.8898 120.737 60.7498 120.244 60.7498C119.831 60.7498 119.471 60.8765 119.164 61.1298C118.871 61.3698 118.677 61.7498 118.584 62.2698V62.5498V68.5298H115.724V62.5498C115.724 61.9098 115.544 61.4498 115.184 61.1698C114.824 60.8898 114.397 60.7498 113.904 60.7498C113.491 60.7498 113.131 60.8765 112.824 61.1298C112.517 61.3831 112.324 61.7898 112.244 62.3498V68.5298H109.384V58.5298H112.244V59.1698C112.977 58.5565 113.771 58.2498 114.624 58.2498C115.211 58.2498 115.804 58.3765 116.404 58.6298C117.017 58.8831 117.517 59.3031 117.904 59.8898C118.251 59.4231 118.691 59.0365 119.224 58.7298C119.757 58.4098 120.331 58.2498 120.944 58.2498ZM131.507 58.2698C132.48 58.2698 133.347 58.5031 134.107 58.9698C134.88 59.4365 135.48 60.0698 135.907 60.8698C136.334 61.6698 136.547 62.5565 136.547 63.5298C136.547 63.9031 136.52 64.2431 136.467 64.5498H129.067C129.32 65.1631 129.66 65.6231 130.087 65.9298C130.514 66.2231 131.067 66.3698 131.747 66.3698C132.16 66.3698 132.56 66.2831 132.947 66.1098C133.347 65.9365 133.66 65.7031 133.887 65.4098L136.047 66.6898C135.58 67.3698 134.974 67.8898 134.227 68.2498C133.494 68.6098 132.647 68.7898 131.687 68.7898C130.607 68.7898 129.654 68.5631 128.827 68.1098C128 67.6431 127.36 67.0098 126.907 66.2098C126.454 65.4098 126.227 64.5165 126.227 63.5298C126.227 62.5431 126.447 61.6498 126.887 60.8498C127.34 60.0498 127.967 59.4231 128.767 58.9698C129.567 58.5031 130.48 58.2698 131.507 58.2698ZM133.867 62.3298C133.774 61.8231 133.507 61.4298 133.067 61.1498C132.64 60.8698 132.114 60.7298 131.487 60.7298C130.834 60.7298 130.267 60.8898 129.787 61.2098C129.307 61.5165 129.054 61.8898 129.027 62.3298H133.867ZM147.264 64.9698C147.264 65.3431 147.364 65.6031 147.564 65.7498C147.778 65.8965 148.098 65.9698 148.524 65.9698C148.791 65.9698 149.084 65.9498 149.404 65.9098V68.5298C148.738 68.5965 148.184 68.6298 147.744 68.6298C146.624 68.6298 145.784 68.3831 145.224 67.8898C144.678 67.3831 144.404 66.4698 144.404 65.1498V61.0698H142.684V58.5298H144.404V56.2098L147.264 55.2498V58.5298H149.364V61.0698H147.264V64.9698ZM155.745 58.2698C156.718 58.2698 157.585 58.5031 158.345 58.9698C159.118 59.4365 159.718 60.0698 160.145 60.8698C160.572 61.6698 160.785 62.5565 160.785 63.5298C160.785 63.9031 160.758 64.2431 160.705 64.5498H153.305C153.558 65.1631 153.898 65.6231 154.325 65.9298C154.752 66.2231 155.305 66.3698 155.985 66.3698C156.398 66.3698 156.798 66.2831 157.185 66.1098C157.585 65.9365 157.898 65.7031 158.125 65.4098L160.285 66.6898C159.818 67.3698 159.212 67.8898 158.465 68.2498C157.732 68.6098 156.885 68.7898 155.925 68.7898C154.845 68.7898 153.892 68.5631 153.065 68.1098C152.238 67.6431 151.598 67.0098 151.145 66.2098C150.692 65.4098 150.465 64.5165 150.465 63.5298C150.465 62.5431 150.685 61.6498 151.125 60.8498C151.578 60.0498 152.205 59.4231 153.005 58.9698C153.805 58.5031 154.718 58.2698 155.745 58.2698ZM158.105 62.3298C158.012 61.8231 157.745 61.4298 157.305 61.1498C156.878 60.8698 156.352 60.7298 155.725 60.7298C155.072 60.7298 154.505 60.8898 154.025 61.2098C153.545 61.5165 153.292 61.8898 153.265 62.3298H158.105ZM171.315 66.5698C170.821 67.2631 170.195 67.8165 169.435 68.2298C168.688 68.6298 167.881 68.8298 167.015 68.8298C166.055 68.8298 165.168 68.5965 164.355 68.1298C163.555 67.6498 162.915 67.0031 162.435 66.1898C161.968 65.3765 161.735 64.4965 161.735 63.5498C161.735 62.5898 161.968 61.7098 162.435 60.9098C162.915 60.0965 163.555 59.4565 164.355 58.9898C165.168 58.5098 166.055 58.2698 167.015 58.2698C167.881 58.2698 168.688 58.4698 169.435 58.8698C170.181 59.2698 170.801 59.8098 171.295 60.4898L168.935 62.0498C168.375 61.4231 167.735 61.1098 167.015 61.1098C166.348 61.1098 165.775 61.3498 165.295 61.8298C164.815 62.3098 164.575 62.8831 164.575 63.5498C164.575 64.2165 164.815 64.7898 165.295 65.2698C165.775 65.7365 166.348 65.9698 167.015 65.9698C167.735 65.9698 168.375 65.6565 168.935 65.0298L171.315 66.5698ZM182.061 68.5298H179.201V62.6298C179.201 61.9898 179.021 61.5298 178.661 61.2498C178.301 60.9565 177.874 60.8098 177.381 60.8098C176.967 60.8098 176.607 60.9431 176.301 61.2098C175.994 61.4631 175.801 61.8631 175.721 62.4098V68.5298H172.861V54.5298H175.721V59.2498C176.454 58.6365 177.247 58.3298 178.101 58.3298C178.674 58.3298 179.254 58.4565 179.841 58.7098C180.441 58.9498 180.954 59.3831 181.381 60.0098C181.821 60.6365 182.047 61.4831 182.061 62.5498V68.5298ZM189.234 58.2498C189.821 58.2498 190.414 58.3765 191.014 58.6298C191.614 58.8831 192.128 59.3298 192.554 59.9698C192.981 60.6098 193.194 61.4698 193.194 62.5498V68.5298H190.334V62.5498C190.334 61.9098 190.154 61.4498 189.794 61.1698C189.448 60.8898 189.028 60.7498 188.534 60.7498C188.041 60.7498 187.628 60.9231 187.294 61.2698C186.974 61.6165 186.814 62.1698 186.814 62.9298V68.5298H183.954V58.5298H186.814V59.2098C187.574 58.5698 188.381 58.2498 189.234 58.2498ZM200.198 68.8298C199.238 68.8298 198.352 68.5965 197.538 68.1298C196.738 67.6498 196.098 67.0031 195.618 66.1898C195.152 65.3765 194.918 64.4965 194.918 63.5498C194.918 62.5898 195.152 61.7098 195.618 60.9098C196.098 60.0965 196.738 59.4565 197.538 58.9898C198.352 58.5098 199.238 58.2698 200.198 58.2698C201.145 58.2698 202.018 58.5098 202.818 58.9898C203.632 59.4565 204.272 60.0965 204.738 60.9098C205.218 61.7098 205.458 62.5898 205.458 63.5498C205.458 64.4965 205.218 65.3765 204.738 66.1898C204.272 67.0031 203.632 67.6498 202.818 68.1298C202.018 68.5965 201.145 68.8298 200.198 68.8298ZM200.178 65.9698C200.845 65.9698 201.418 65.7365 201.898 65.2698C202.378 64.7898 202.618 64.2165 202.618 63.5498C202.618 62.8831 202.378 62.3098 201.898 61.8298C201.418 61.3498 200.845 61.1098 200.178 61.1098C199.512 61.1098 198.938 61.3498 198.458 61.8298C197.992 62.3098 197.758 62.8831 197.758 63.5498C197.758 64.2165 197.992 64.7898 198.458 65.2698C198.938 65.7365 199.512 65.9698 200.178 65.9698ZM209.822 65.3698C209.822 65.5831 209.869 65.7365 209.962 65.8298C210.069 65.9231 210.242 65.9698 210.482 65.9698C210.656 65.9698 210.862 65.9498 211.102 65.9098V68.5298C210.449 68.6231 209.942 68.6698 209.582 68.6698C208.716 68.6698 208.062 68.4431 207.622 67.9898C207.182 67.5231 206.962 66.7098 206.962 65.5498V54.5298H209.822V65.3698ZM216.995 68.8298C216.035 68.8298 215.148 68.5965 214.335 68.1298C213.535 67.6498 212.895 67.0031 212.415 66.1898C211.948 65.3765 211.715 64.4965 211.715 63.5498C211.715 62.5898 211.948 61.7098 212.415 60.9098C212.895 60.0965 213.535 59.4565 214.335 58.9898C215.148 58.5098 216.035 58.2698 216.995 58.2698C217.942 58.2698 218.815 58.5098 219.615 58.9898C220.428 59.4565 221.068 60.0965 221.535 60.9098C222.015 61.7098 222.255 62.5898 222.255 63.5498C222.255 64.4965 222.015 65.3765 221.535 66.1898C221.068 67.0031 220.428 67.6498 219.615 68.1298C218.815 68.5965 217.942 68.8298 216.995 68.8298ZM216.975 65.9698C217.642 65.9698 218.215 65.7365 218.695 65.2698C219.175 64.7898 219.415 64.2165 219.415 63.5498C219.415 62.8831 219.175 62.3098 218.695 61.8298C218.215 61.3498 217.642 61.1098 216.975 61.1098C216.308 61.1098 215.735 61.3498 215.255 61.8298C214.788 62.3098 214.555 62.8831 214.555 63.5498C214.555 64.2165 214.788 64.7898 215.255 65.2698C215.735 65.7365 216.308 65.9698 216.975 65.9698ZM231.399 58.5298H234.259V68.0298C234.259 68.9631 234.012 69.7898 233.519 70.5098C233.039 71.2298 232.372 71.7898 231.519 72.1898C230.666 72.5898 229.706 72.7898 228.639 72.7898C227.479 72.7898 226.412 72.5631 225.439 72.1098C224.479 71.6698 223.806 71.0965 223.419 70.3898L225.859 68.9698C226.032 69.3165 226.379 69.6031 226.899 69.8298C227.419 70.0565 228.026 70.1698 228.719 70.1698C229.492 70.1698 230.132 69.9698 230.639 69.5698C231.146 69.1698 231.399 68.6565 231.399 68.0298V67.7698C230.959 68.1031 230.479 68.3565 229.959 68.5298C229.452 68.7165 228.926 68.8098 228.379 68.8098C227.339 68.8098 226.439 68.5831 225.679 68.1298C224.932 67.6765 224.359 67.0565 223.959 66.2698C223.559 65.4698 223.359 64.5631 223.359 63.5498C223.359 62.5365 223.559 61.6298 223.959 60.8298C224.359 60.0165 224.932 59.3831 225.679 58.9298C226.439 58.4765 227.339 58.2498 228.379 58.2498C228.912 58.2498 229.439 58.3431 229.959 58.5298C230.479 58.7031 230.959 58.9565 231.399 59.2898V58.5298ZM228.759 66.0898C229.506 66.0898 230.132 65.8498 230.639 65.3698C231.146 64.8898 231.399 64.2698 231.399 63.5098C231.399 62.7765 231.146 62.1765 230.639 61.7098C230.132 61.2431 229.506 61.0098 228.759 61.0098C228.012 61.0098 227.399 61.2431 226.919 61.7098C226.452 62.1765 226.219 62.7898 226.219 63.5498C226.219 64.3098 226.452 64.9231 226.919 65.3898C227.399 65.8565 228.012 66.0898 228.759 66.0898ZM238.188 57.1698C237.655 57.1698 237.235 57.0298 236.928 56.7498C236.635 56.4565 236.488 56.0631 236.488 55.5698C236.488 55.0631 236.635 54.6631 236.928 54.3698C237.235 54.0765 237.655 53.9298 238.188 53.9298C238.708 53.9298 239.122 54.0765 239.428 54.3698C239.735 54.6631 239.888 55.0631 239.888 55.5698C239.888 56.0631 239.735 56.4565 239.428 56.7498C239.122 57.0298 238.708 57.1698 238.188 57.1698ZM236.748 68.5298V58.5298H239.608V68.5298H236.748ZM246.312 58.2698C247.285 58.2698 248.152 58.5031 248.912 58.9698C249.685 59.4365 250.285 60.0698 250.712 60.8698C251.138 61.6698 251.352 62.5565 251.352 63.5298C251.352 63.9031 251.325 64.2431 251.272 64.5498H243.872C244.125 65.1631 244.465 65.6231 244.892 65.9298C245.318 66.2231 245.872 66.3698 246.552 66.3698C246.965 66.3698 247.365 66.2831 247.752 66.1098C248.152 65.9365 248.465 65.7031 248.692 65.4098L250.852 66.6898C250.385 67.3698 249.778 67.8898 249.032 68.2498C248.298 68.6098 247.452 68.7898 246.492 68.7898C245.412 68.7898 244.458 68.5631 243.632 68.1098C242.805 67.6431 242.165 67.0098 241.712 66.2098C241.258 65.4098 241.032 64.5165 241.032 63.5298C241.032 62.5431 241.252 61.6498 241.692 60.8498C242.145 60.0498 242.772 59.4231 243.572 58.9698C244.372 58.5031 245.285 58.2698 246.312 58.2698ZM248.672 62.3298C248.578 61.8231 248.312 61.4298 247.872 61.1498C247.445 60.8698 246.918 60.7298 246.292 60.7298C245.638 60.7298 245.072 60.8898 244.592 61.2098C244.112 61.5165 243.858 61.8898 243.832 62.3298H248.672ZM255.401 61.3698C255.401 61.5965 255.541 61.7698 255.821 61.8898C256.101 61.9965 256.548 62.1098 257.161 62.2298C257.948 62.3898 258.601 62.5698 259.121 62.7698C259.641 62.9565 260.094 63.2765 260.481 63.7298C260.881 64.1698 261.081 64.7831 261.081 65.5698C261.081 66.2498 260.874 66.8365 260.461 67.3298C260.048 67.8098 259.501 68.1765 258.821 68.4298C258.141 68.6698 257.408 68.7898 256.621 68.7898C255.541 68.7898 254.621 68.5965 253.861 68.2098C253.101 67.8098 252.528 67.2231 252.141 66.4498L254.481 65.2498C254.801 66.1031 255.514 66.5298 256.621 66.5298C257.074 66.5298 257.468 66.4498 257.801 66.2898C258.148 66.1165 258.321 65.8765 258.321 65.5698C258.321 65.3031 258.161 65.1031 257.841 64.9698C257.534 64.8365 257.041 64.6965 256.361 64.5498C255.588 64.3765 254.941 64.1965 254.421 64.0098C253.901 63.8098 253.454 63.5098 253.081 63.1098C252.708 62.6965 252.521 62.1498 252.521 61.4698C252.521 60.8165 252.708 60.2498 253.081 59.7698C253.454 59.2765 253.954 58.9031 254.581 58.6498C255.221 58.3965 255.914 58.2698 256.661 58.2698C257.541 58.2698 258.334 58.4498 259.041 58.8098C259.748 59.1698 260.301 59.6898 260.701 60.3698L258.381 61.5098C258.221 61.1765 258.001 60.9298 257.721 60.7698C257.454 60.6098 257.101 60.5298 256.661 60.5298C256.274 60.5298 255.968 60.6098 255.741 60.7698C255.514 60.9165 255.401 61.1165 255.401 61.3698ZM268.157 68.5298V54.5298H271.177V68.5298H268.157ZM288.057 68.5298H285.197V62.6298C285.197 61.9898 285.017 61.5298 284.657 61.2498C284.297 60.9565 283.87 60.8098 283.377 60.8098C282.963 60.8098 282.603 60.9431 282.297 61.2098C281.99 61.4631 281.797 61.8631 281.717 62.4098V68.5298H278.857V54.5298H281.717V59.2498C282.45 58.6365 283.243 58.3298 284.097 58.3298C284.67 58.3298 285.25 58.4565 285.837 58.7098C286.437 58.9498 286.95 59.3831 287.377 60.0098C287.817 60.6365 288.043 61.4831 288.057 62.5498V68.5298ZM297.59 58.5298H300.43V68.5298H297.59V67.7698C297.15 68.1031 296.664 68.3565 296.13 68.5298C295.61 68.7165 295.084 68.8098 294.55 68.8098C293.51 68.8098 292.61 68.5831 291.85 68.1298C291.104 67.6765 290.53 67.0565 290.13 66.2698C289.73 65.4698 289.53 64.5631 289.53 63.5498C289.53 62.5365 289.73 61.6298 290.13 60.8298C290.53 60.0165 291.104 59.3831 291.85 58.9298C292.61 58.4765 293.51 58.2498 294.55 58.2498C295.097 58.2498 295.63 58.3431 296.15 58.5298C296.67 58.7165 297.15 58.9765 297.59 59.3098V58.5298ZM294.93 66.0898C295.677 66.0898 296.304 65.8498 296.81 65.3698C297.317 64.8898 297.57 64.2698 297.57 63.5098C297.57 62.7765 297.317 62.1765 296.81 61.7098C296.304 61.2431 295.677 61.0098 294.93 61.0098C294.184 61.0098 293.57 61.2431 293.09 61.7098C292.61 62.1765 292.37 62.7898 292.37 63.5498C292.37 64.3098 292.61 64.9231 293.09 65.3898C293.57 65.8565 294.184 66.0898 294.93 66.0898ZM307.12 64.9898L309.46 58.5298H312.48L308.84 68.5298H305.38L301.74 58.5298H304.76L307.12 64.9898ZM317.913 58.2698C318.886 58.2698 319.753 58.5031 320.513 58.9698C321.286 59.4365 321.886 60.0698 322.313 60.8698C322.74 61.6698 322.953 62.5565 322.953 63.5298C322.953 63.9031 322.926 64.2431 322.873 64.5498H315.473C315.726 65.1631 316.066 65.6231 316.493 65.9298C316.92 66.2231 317.473 66.3698 318.153 66.3698C318.566 66.3698 318.966 66.2831 319.353 66.1098C319.753 65.9365 320.066 65.7031 320.293 65.4098L322.453 66.6898C321.986 67.3698 321.38 67.8898 320.633 68.2498C319.9 68.6098 319.053 68.7898 318.093 68.7898C317.013 68.7898 316.06 68.5631 315.233 68.1098C314.406 67.6431 313.766 67.0098 313.313 66.2098C312.86 65.4098 312.633 64.5165 312.633 63.5298C312.633 62.5431 312.853 61.6498 313.293 60.8498C313.746 60.0498 314.373 59.4231 315.173 58.9698C315.973 58.5031 316.886 58.2698 317.913 58.2698ZM320.273 62.3298C320.18 61.8231 319.913 61.4298 319.473 61.1498C319.046 60.8698 318.52 60.7298 317.893 60.7298C317.24 60.7298 316.673 60.8898 316.193 61.2098C315.713 61.5165 315.46 61.8898 315.433 62.3298H320.273ZM336.09 58.2498C337.13 58.2498 338.024 58.4765 338.77 58.9298C339.53 59.3831 340.11 60.0165 340.51 60.8298C340.91 61.6298 341.11 62.5365 341.11 63.5498C341.11 64.5631 340.91 65.4698 340.51 66.2698C340.11 67.0565 339.53 67.6765 338.77 68.1298C338.024 68.5831 337.13 68.8098 336.09 68.8098C335.49 68.8098 334.91 68.7031 334.35 68.4898C333.79 68.2765 333.277 67.9698 332.81 67.5698V68.5298H329.95V54.5298H332.81V59.5098C333.277 59.1098 333.79 58.8031 334.35 58.5898C334.91 58.3631 335.49 58.2498 336.09 58.2498ZM335.71 66.0898C336.457 66.0898 337.064 65.8565 337.53 65.3898C338.01 64.9231 338.25 64.3098 338.25 63.5498C338.25 62.7898 338.01 62.1765 337.53 61.7098C337.064 61.2431 336.457 61.0098 335.71 61.0098C334.964 61.0098 334.337 61.2431 333.83 61.7098C333.324 62.1765 333.07 62.7765 333.07 63.5098C333.07 64.2698 333.324 64.8898 333.83 65.3698C334.337 65.8498 334.964 66.0898 335.71 66.0898ZM347.523 58.2698C348.496 58.2698 349.363 58.5031 350.123 58.9698C350.896 59.4365 351.496 60.0698 351.923 60.8698C352.349 61.6698 352.563 62.5565 352.563 63.5298C352.563 63.9031 352.536 64.2431 352.483 64.5498H345.083C345.336 65.1631 345.676 65.6231 346.103 65.9298C346.529 66.2231 347.083 66.3698 347.763 66.3698C348.176 66.3698 348.576 66.2831 348.963 66.1098C349.363 65.9365 349.676 65.7031 349.903 65.4098L352.063 66.6898C351.596 67.3698 350.989 67.8898 350.243 68.2498C349.509 68.6098 348.663 68.7898 347.703 68.7898C346.623 68.7898 345.669 68.5631 344.843 68.1098C344.016 67.6431 343.376 67.0098 342.923 66.2098C342.469 65.4098 342.243 64.5165 342.243 63.5298C342.243 62.5431 342.463 61.6498 342.903 60.8498C343.356 60.0498 343.983 59.4231 344.783 58.9698C345.583 58.5031 346.496 58.2698 347.523 58.2698ZM349.883 62.3298C349.789 61.8231 349.523 61.4298 349.083 61.1498C348.656 60.8698 348.129 60.7298 347.503 60.7298C346.849 60.7298 346.283 60.8898 345.803 61.2098C345.323 61.5165 345.069 61.8898 345.043 62.3298H349.883ZM358.792 58.2698C359.765 58.2698 360.632 58.5031 361.392 58.9698C362.165 59.4365 362.765 60.0698 363.192 60.8698C363.619 61.6698 363.832 62.5565 363.832 63.5298C363.832 63.9031 363.805 64.2431 363.752 64.5498H356.352C356.605 65.1631 356.945 65.6231 357.372 65.9298C357.799 66.2231 358.352 66.3698 359.032 66.3698C359.445 66.3698 359.845 66.2831 360.232 66.1098C360.632 65.9365 360.945 65.7031 361.172 65.4098L363.332 66.6898C362.865 67.3698 362.259 67.8898 361.512 68.2498C360.779 68.6098 359.932 68.7898 358.972 68.7898C357.892 68.7898 356.939 68.5631 356.112 68.1098C355.285 67.6431 354.645 67.0098 354.192 66.2098C353.739 65.4098 353.512 64.5165 353.512 63.5298C353.512 62.5431 353.732 61.6498 354.172 60.8498C354.625 60.0498 355.252 59.4231 356.052 58.9698C356.852 58.5031 357.765 58.2698 358.792 58.2698ZM361.152 62.3298C361.059 61.8231 360.792 61.4298 360.352 61.1498C359.925 60.8698 359.399 60.7298 358.772 60.7298C358.119 60.7298 357.552 60.8898 357.072 61.2098C356.592 61.5165 356.339 61.8898 356.312 62.3298H361.152ZM370.602 58.2498C371.188 58.2498 371.782 58.3765 372.382 58.6298C372.982 58.8831 373.495 59.3298 373.922 59.9698C374.348 60.6098 374.562 61.4698 374.562 62.5498V68.5298H371.702V62.5498C371.702 61.9098 371.522 61.4498 371.162 61.1698C370.815 60.8898 370.395 60.7498 369.902 60.7498C369.408 60.7498 368.995 60.9231 368.662 61.2698C368.342 61.6165 368.182 62.1698 368.182 62.9298V68.5298H365.322V58.5298H368.182V59.2098C368.942 58.5698 369.748 58.2498 370.602 58.2498ZM391.683 63.9098L393.303 58.5298H396.283L393.043 68.5298H390.263L388.603 63.2498L386.923 68.5298H384.163L380.963 58.5298H383.963L385.543 63.8498L387.083 58.5298H390.103L391.683 63.9098ZM401.819 68.8298C400.859 68.8298 399.973 68.5965 399.159 68.1298C398.359 67.6498 397.719 67.0031 397.239 66.1898C396.773 65.3765 396.539 64.4965 396.539 63.5498C396.539 62.5898 396.773 61.7098 397.239 60.9098C397.719 60.0965 398.359 59.4565 399.159 58.9898C399.973 58.5098 400.859 58.2698 401.819 58.2698C402.766 58.2698 403.639 58.5098 404.439 58.9898C405.253 59.4565 405.893 60.0965 406.359 60.9098C406.839 61.7098 407.079 62.5898 407.079 63.5498C407.079 64.4965 406.839 65.3765 406.359 66.1898C405.893 67.0031 405.253 67.6498 404.439 68.1298C403.639 68.5965 402.766 68.8298 401.819 68.8298ZM401.799 65.9698C402.466 65.9698 403.039 65.7365 403.519 65.2698C403.999 64.7898 404.239 64.2165 404.239 63.5498C404.239 62.8831 403.999 62.3098 403.519 61.8298C403.039 61.3498 402.466 61.1098 401.799 61.1098C401.133 61.1098 400.559 61.3498 400.079 61.8298C399.613 62.3098 399.379 62.8831 399.379 63.5498C399.379 64.2165 399.613 64.7898 400.079 65.2698C400.559 65.7365 401.133 65.9698 401.799 65.9698ZM414.863 58.3298L414.663 61.0298C414.57 60.9898 414.417 60.9698 414.203 60.9698C413.39 60.9698 412.723 61.2031 412.203 61.6698C411.697 62.1231 411.443 62.7231 411.443 63.4698V68.5298H408.583V58.5298H411.443V60.1498C411.683 59.6298 412.07 59.1965 412.603 58.8498C413.137 58.5031 413.783 58.3298 414.543 58.3298H414.863ZM426.715 68.5298H423.155L420.595 65.0698L419.275 66.5098V68.5298H416.415V54.5298H419.275V62.3098L422.595 58.5298H426.575L422.535 62.9298L426.715 68.5298ZM429.341 57.1698C428.807 57.1698 428.387 57.0298 428.081 56.7498C427.787 56.4565 427.641 56.0631 427.641 55.5698C427.641 55.0631 427.787 54.6631 428.081 54.3698C428.387 54.0765 428.807 53.9298 429.341 53.9298C429.861 53.9298 430.274 54.0765 430.581 54.3698C430.887 54.6631 431.041 55.0631 431.041 55.5698C431.041 56.0631 430.887 56.4565 430.581 56.7498C430.274 57.0298 429.861 57.1698 429.341 57.1698ZM427.901 68.5298V58.5298H430.761V68.5298H427.901ZM438.395 58.2498C438.981 58.2498 439.575 58.3765 440.175 58.6298C440.775 58.8831 441.288 59.3298 441.715 59.9698C442.141 60.6098 442.355 61.4698 442.355 62.5498V68.5298H439.495V62.5498C439.495 61.9098 439.315 61.4498 438.955 61.1698C438.608 60.8898 438.188 60.7498 437.695 60.7498C437.201 60.7498 436.788 60.9231 436.455 61.2698C436.135 61.6165 435.975 62.1698 435.975 62.9298V68.5298H433.115V58.5298H435.975V59.2098C436.735 58.5698 437.541 58.2498 438.395 58.2498ZM451.868 58.5298H454.728V68.0298C454.728 68.9631 454.481 69.7898 453.988 70.5098C453.508 71.2298 452.841 71.7898 451.988 72.1898C451.134 72.5898 450.174 72.7898 449.108 72.7898C447.948 72.7898 446.881 72.5631 445.908 72.1098C444.948 71.6698 444.274 71.0965 443.888 70.3898L446.328 68.9698C446.501 69.3165 446.848 69.6031 447.368 69.8298C447.888 70.0565 448.494 70.1698 449.188 70.1698C449.961 70.1698 450.601 69.9698 451.108 69.5698C451.614 69.1698 451.868 68.6565 451.868 68.0298V67.7698C451.428 68.1031 450.948 68.3565 450.428 68.5298C449.921 68.7165 449.394 68.8098 448.848 68.8098C447.808 68.8098 446.908 68.5831 446.148 68.1298C445.401 67.6765 444.828 67.0565 444.428 66.2698C444.028 65.4698 443.828 64.5631 443.828 63.5498C443.828 62.5365 444.028 61.6298 444.428 60.8298C444.828 60.0165 445.401 59.3831 446.148 58.9298C446.908 58.4765 447.808 58.2498 448.848 58.2498C449.381 58.2498 449.908 58.3431 450.428 58.5298C450.948 58.7031 451.428 58.9565 451.868 59.2898V58.5298ZM449.228 66.0898C449.974 66.0898 450.601 65.8498 451.108 65.3698C451.614 64.8898 451.868 64.2698 451.868 63.5098C451.868 62.7765 451.614 62.1765 451.108 61.7098C450.601 61.2431 449.974 61.0098 449.228 61.0098C448.481 61.0098 447.868 61.2431 447.388 61.7098C446.921 62.1765 446.688 62.7898 446.688 63.5498C446.688 64.3098 446.921 64.9231 447.388 65.3898C447.868 65.8565 448.481 66.0898 449.228 66.0898ZM472.034 63.9098L473.654 58.5298H476.634L473.394 68.5298H470.614L468.954 63.2498L467.274 68.5298H464.514L461.314 58.5298H464.314L465.894 63.8498L467.434 58.5298H470.454L472.034 63.9098ZM479.575 57.1698C479.042 57.1698 478.622 57.0298 478.315 56.7498C478.022 56.4565 477.875 56.0631 477.875 55.5698C477.875 55.0631 478.022 54.6631 478.315 54.3698C478.622 54.0765 479.042 53.9298 479.575 53.9298C480.095 53.9298 480.508 54.0765 480.815 54.3698C481.122 54.6631 481.275 55.0631 481.275 55.5698C481.275 56.0631 481.122 56.4565 480.815 56.7498C480.508 57.0298 480.095 57.1698 479.575 57.1698ZM478.135 68.5298V58.5298H480.995V68.5298H478.135ZM487.225 64.9698C487.225 65.3431 487.325 65.6031 487.525 65.7498C487.738 65.8965 488.058 65.9698 488.485 65.9698C488.752 65.9698 489.045 65.9498 489.365 65.9098V68.5298C488.698 68.5965 488.145 68.6298 487.705 68.6298C486.585 68.6298 485.745 68.3831 485.185 67.8898C484.638 67.3831 484.365 66.4698 484.365 65.1498V61.0698H482.645V58.5298H484.365V56.2098L487.225 55.2498V58.5298H489.325V61.0698H487.225V64.9698ZM500.283 68.5298H497.423V62.6298C497.423 61.9898 497.243 61.5298 496.883 61.2498C496.523 60.9565 496.097 60.8098 495.603 60.8098C495.19 60.8098 494.83 60.9431 494.523 61.2098C494.217 61.4631 494.023 61.8631 493.943 62.4098V68.5298H491.083V54.5298H493.943V59.2498C494.677 58.6365 495.47 58.3298 496.323 58.3298C496.897 58.3298 497.477 58.4565 498.063 58.7098C498.663 58.9498 499.177 59.3831 499.603 60.0098C500.043 60.6365 500.27 61.4831 500.283 62.5498V68.5298ZM502.448 60.3098C502.448 59.8031 502.581 59.4165 502.848 59.1498C503.114 58.8698 503.501 58.7298 504.008 58.7298C504.501 58.7298 504.881 58.8698 505.148 59.1498C505.414 59.4165 505.548 59.8031 505.548 60.3098C505.548 60.8165 505.414 61.2098 505.148 61.4898C504.881 61.7565 504.501 61.8898 504.008 61.8898C503.501 61.8898 503.114 61.7565 502.848 61.4898C502.581 61.2098 502.448 60.8165 502.448 60.3098ZM502.448 67.1898C502.448 66.6831 502.581 66.2965 502.848 66.0298C503.114 65.7498 503.501 65.6098 504.008 65.6098C504.501 65.6098 504.881 65.7498 505.148 66.0298C505.414 66.2965 505.548 66.6831 505.548 67.1898C505.548 67.6965 505.414 68.0898 505.148 68.3698C504.881 68.6365 504.501 68.7698 504.008 68.7698C503.514 68.7698 503.128 68.6365 502.848 68.3698C502.581 68.0898 502.448 67.6965 502.448 67.1898Z" fill="#AAAAAA"/>
</svg>
