<svg width="26" height="26" viewBox="0 0 26 26" fill="none" xmlns="http://www.w3.org/2000/svg">
<g clip-path="url(#clip0_10_134)">
<path d="M14.3622 0H11.705L11.2005 0.134021L10.9314 0.335052L10.7633 0.603093L10.6287 1.10567L10.4942 2.11082L10.4269 2.47938L10.1915 2.94845L9.6533 3.2165L8.87969 3.55155L8.30789 3.81959L8.10608 3.8866H7.70246L7.36611 3.71907L6.89521 3.35052L6.52523 3.04897L6.0207 2.68041L5.71798 2.54639L5.34799 2.51289L5.01164 2.64691L4.57438 3.01546L3.73351 3.85309L3.49806 4.12113L3.02717 4.59021L2.72445 4.95876L2.55627 5.26031L2.52264 5.32732V5.76289L2.72445 6.16495L3.02717 6.56701L3.32988 6.93557L3.76714 7.47165L3.86805 7.70619V8.17526L3.6326 8.74485L3.32988 9.44845L3.12807 9.95103L2.99353 10.1521L2.75809 10.3531L2.489 10.4536L0.874516 10.6546L0.538162 10.7552L0.235447 11.0232L0.0672703 11.3582L0 11.6598V14.3737L0.100904 14.7758L0.269081 15.0773L0.504528 15.2784L0.941786 15.4124L2.3881 15.5799L2.72445 15.6804L3.02717 15.9149L3.19534 16.183L3.56533 17.1211L3.83441 17.7577L3.90168 18.1263L3.83441 18.3943L3.59896 18.7629L3.16171 19.2655L2.65718 19.9356L2.489 20.3041V20.6727L2.69081 21.0747L2.99353 21.4098L3.22898 21.6778L4.7762 23.2191L5.14618 23.4536L5.24709 23.4871H5.61708L6.0207 23.3196L6.42432 23.018L6.86158 22.6495L7.43338 22.2139L7.66882 22.1134H8.10608L8.61061 22.3144L9.61966 22.75L9.98965 22.951L10.1578 23.1521H10.1915L10.2251 22.9845L10.3933 20.0696L10.4605 18.4278V17.5902L10.3596 17.0541L10.1915 16.7191L9.88874 16.384L9.41785 15.982L9.01423 15.6804L8.67788 15.4124L8.34153 15.1108L8.00517 14.7758L7.66882 14.3402L7.39974 13.9046L7.13066 13.3686L6.89521 12.732L6.76067 12.0954L6.72704 11.8608L6.6934 11.1572L6.72704 10.4871L6.82794 9.85052L7.02975 9.14691L7.2652 8.57732L7.56792 8.00773L7.87063 7.57217L8.17335 7.20361L8.67788 6.70103L9.11514 6.36598L9.61966 6.06443L10.2587 5.76289L10.5614 5.66237H10.8305L10.9987 5.76289L11.066 5.89691V10.2526L11.2005 10.5876L11.5032 10.9562L11.8732 11.2912L12.3441 11.5928L12.7141 11.7268L13.1177 11.7603L13.5213 11.6598L13.925 11.4253L14.2613 11.1572L14.5304 10.9227L14.7995 10.5876L14.934 10.3196L14.9677 10.1521V8.37629L14.934 5.96392L15.0349 5.72938L15.1695 5.66237H15.4049L15.9094 5.8299L16.4476 6.09794L16.9521 6.39949L17.3221 6.70103L17.7257 7.06959L18.0285 7.40464L18.4321 7.97423L18.7684 8.57732L19.0375 9.24742L19.2393 10.0515L19.3066 10.5206L19.3402 10.9897V11.4253L19.273 12.1624L19.1048 12.866L18.8693 13.4691L18.533 14.1057L18.163 14.6082L17.8603 14.9433L17.6585 15.1778L17.2885 15.4794L16.6831 15.9485L16.3467 16.2165L16.0103 16.518L15.8085 16.7861L15.674 17.0541L15.5731 17.5567V18.5954L15.674 20.8067L15.8085 22.951L15.8422 23.1521L16.0103 22.9845L16.1785 22.8505L16.7503 22.5825L17.793 22.1469L17.8939 22.1134H18.3312L18.6675 22.2809L19.1048 22.616L19.6766 23.0851L20.1475 23.3866L20.4166 23.4871H20.8202L21.1565 23.2861L21.4929 22.9845L23.1074 21.3763L23.3765 21.0412L23.511 20.8067L23.5446 20.6727V20.3041L23.3092 19.8351L22.9728 19.3995L22.6701 19.0309L22.2665 18.5284L22.1656 18.2938V17.8918L22.3674 17.3557L22.7374 16.451L22.9056 16.049L23.141 15.7809L23.4774 15.6134L23.881 15.5464L25.0918 15.4124L25.5291 15.2784L25.7646 15.0773L25.9327 14.7423L26 14.4407V11.5593L25.8655 11.1907L25.6636 10.8892L25.4618 10.7552L24.9237 10.6211L23.5446 10.4536L23.2419 10.3196L22.9728 10.0851L22.8383 9.81701L22.5019 8.97938L22.1992 8.30928L22.132 8.00773L22.1656 7.67268L22.3674 7.33763L22.7374 6.90206L23.1074 6.43299L23.4437 5.93041L23.511 5.72938V5.29381L23.3428 4.95876L22.9728 4.5232L22.7374 4.28866L22.5019 4.02062L21.4592 2.98196L21.0893 2.68041L20.8202 2.54639L20.6856 2.51289H20.4166L20.0466 2.64691L19.5757 2.98196L19.1048 3.38402L18.6675 3.71907L18.3312 3.8866H17.9276L17.2212 3.58505L16.5485 3.28351L16.0776 3.08247L15.8085 2.84794L15.6067 2.44588L15.5395 2.07732L15.4386 1.20619L15.304 0.670103L15.1358 0.368557L14.9004 0.167526L14.5304 0.0335052L14.3622 0Z" fill="#FEFEFE"/>
<path d="M15.5396 24.2577L15.2032 24.3582L14.3623 24.5257L13.656 24.5927H12.3778L11.6715 24.5257L10.9315 24.3917L10.4943 24.2577L10.5279 24.5927L10.6624 25.1288L10.8306 25.5309L11.0661 25.7989L11.4024 25.9329L11.7388 26H14.2614L14.7996 25.8659L15.0687 25.6984L15.2705 25.3969L15.4386 24.8943L15.5396 24.3917V24.2577Z" fill="#FEFEFE"/>
</g>
<defs>
<clipPath id="clip0_10_134">
<rect width="26" height="26" fill="white" transform="matrix(-1 0 0 1 26 0)"/>
</clipPath>
</defs>
</svg>
