<svg width="43" height="12" viewBox="0 0 43 12" fill="none" xmlns="http://www.w3.org/2000/svg">
<path d="M7.23199 4.31995V-4.95911e-05H9.63199V11.2H7.23199V6.60795H2.39999V11.2H-1.26362e-05V-4.95911e-05H2.39999V4.31995H7.23199ZM15.18 11.44C14.412 11.44 13.7027 11.2533 13.052 10.88C12.412 10.496 11.9 9.97862 11.516 9.32795C11.1427 8.67728 10.956 7.97328 10.956 7.21595C10.956 6.44795 11.1427 5.74395 11.516 5.10395C11.9 4.45328 12.412 3.94128 13.052 3.56795C13.7027 3.18395 14.412 2.99195 15.18 2.99195C15.9373 2.99195 16.636 3.18395 17.276 3.56795C17.9267 3.94128 18.4387 4.45328 18.812 5.10395C19.196 5.74395 19.388 6.44795 19.388 7.21595C19.388 7.97328 19.196 8.67728 18.812 9.32795C18.4387 9.97862 17.9267 10.496 17.276 10.88C16.636 11.2533 15.9373 11.44 15.18 11.44ZM15.164 9.15195C15.6973 9.15195 16.156 8.96528 16.54 8.59195C16.924 8.20795 17.116 7.74928 17.116 7.21595C17.116 6.68262 16.924 6.22395 16.54 5.83995C16.156 5.45595 15.6973 5.26395 15.164 5.26395C14.6307 5.26395 14.172 5.45595 13.788 5.83995C13.4147 6.22395 13.228 6.68262 13.228 7.21595C13.228 7.74928 13.4147 8.20795 13.788 8.59195C14.172 8.96528 14.6307 9.15195 15.164 9.15195ZM29.6985 2.97595C30.1678 2.97595 30.6425 3.07728 31.1225 3.27995C31.6025 3.48262 32.0132 3.83995 32.3545 4.35195C32.6958 4.86395 32.8665 5.55195 32.8665 6.41595V11.2H30.5945V6.41595C30.5945 5.90395 30.4505 5.53595 30.1625 5.31195C29.8745 5.08795 29.5332 4.97595 29.1385 4.97595C28.8078 4.97595 28.5198 5.07728 28.2745 5.27995C28.0398 5.47195 27.8852 5.77595 27.8105 6.19195V6.41595V11.2H25.5225V6.41595C25.5225 5.90395 25.3785 5.53595 25.0905 5.31195C24.8025 5.08795 24.4612 4.97595 24.0665 4.97595C23.7358 4.97595 23.4478 5.07728 23.2025 5.27995C22.9572 5.48262 22.8025 5.80795 22.7385 6.25595V11.2H20.4505V3.19995H22.7385V3.71195C23.3252 3.22128 23.9598 2.97595 24.6425 2.97595C25.1118 2.97595 25.5865 3.07728 26.0665 3.27995C26.5572 3.48262 26.9572 3.81862 27.2665 4.28795C27.5438 3.91462 27.8958 3.60528 28.3225 3.35995C28.7492 3.10395 29.2078 2.97595 29.6985 2.97595ZM38.1487 2.99195C38.9274 2.99195 39.6207 3.17862 40.2287 3.55195C40.8474 3.92528 41.3274 4.43195 41.6687 5.07195C42.0101 5.71195 42.1807 6.42128 42.1807 7.19995C42.1807 7.49862 42.1594 7.77062 42.1167 8.01595H36.1967C36.3994 8.50662 36.6714 8.87462 37.0127 9.11995C37.3541 9.35462 37.7967 9.47195 38.3407 9.47195C38.6714 9.47195 38.9914 9.40262 39.3007 9.26395C39.6207 9.12528 39.8714 8.93862 40.0527 8.70395L41.7807 9.72795C41.4074 10.272 40.9221 10.688 40.3247 10.976C39.7381 11.264 39.0607 11.408 38.2927 11.408C37.4287 11.408 36.6661 11.2266 36.0047 10.864C35.3434 10.4906 34.8314 9.98395 34.4687 9.34395C34.1061 8.70395 33.9247 7.98928 33.9247 7.19995C33.9247 6.41062 34.1007 5.69595 34.4527 5.05595C34.8154 4.41595 35.3167 3.91462 35.9567 3.55195C36.5967 3.17862 37.3274 2.99195 38.1487 2.99195ZM40.0367 6.23995C39.9621 5.83462 39.7487 5.51995 39.3967 5.29595C39.0554 5.07195 38.6341 4.95995 38.1327 4.95995C37.6101 4.95995 37.1567 5.08795 36.7727 5.34395C36.3887 5.58928 36.1861 5.88795 36.1647 6.23995H40.0367Z" fill="#EAEAEA"/>
</svg>
