<svg width="179" height="167" viewBox="0 0 179 167" fill="none" xmlns="http://www.w3.org/2000/svg">
<path d="M80.6313 151.929C80.1115 151.929 79.7022 151.793 79.4034 151.52C79.1175 151.234 78.9746 150.851 78.9746 150.37C78.9746 149.876 79.1175 149.486 79.4034 149.2C79.7022 148.914 80.1115 148.772 80.6313 148.772C81.1381 148.772 81.5409 148.914 81.8397 149.2C82.1386 149.486 82.288 149.876 82.288 150.37C82.288 150.851 82.1386 151.234 81.8397 151.52C81.5409 151.793 81.1381 151.929 80.6313 151.929ZM79.2279 163V153.254H82.0152V163H79.2279ZM91.3546 149.356H94.1223V163H91.3546V162.259C90.9258 162.584 90.458 162.831 89.9512 163C89.4575 163.182 88.9442 163.273 88.4114 163.273C87.3979 163.273 86.5208 163.052 85.7801 162.61C85.0525 162.168 84.4937 161.564 84.1039 160.798C83.7141 160.018 83.5192 159.134 83.5192 158.147C83.5192 157.159 83.7141 156.276 84.1039 155.496C84.4937 154.703 85.0525 154.086 85.7801 153.644C86.5208 153.202 87.3979 152.982 88.4114 152.982C88.9312 152.982 89.4445 153.073 89.9512 153.254C90.458 153.423 90.9258 153.67 91.3546 153.995V149.356ZM88.7818 160.622C89.5094 160.622 90.1202 160.388 90.6139 159.92C91.1077 159.453 91.3546 158.848 91.3546 158.108C91.3546 157.393 91.1077 156.808 90.6139 156.354C90.1202 155.899 89.5094 155.671 88.7818 155.671C88.0541 155.671 87.4564 155.899 86.9886 156.354C86.5208 156.808 86.2869 157.406 86.2869 158.147C86.2869 158.887 86.5208 159.485 86.9886 159.94C87.4564 160.395 88.0541 160.622 88.7818 160.622ZM100.768 153.001C101.716 153.001 102.561 153.228 103.302 153.683C104.055 154.138 104.64 154.755 105.056 155.535C105.472 156.315 105.68 157.179 105.68 158.127C105.68 158.491 105.654 158.822 105.602 159.121H98.39C98.6369 159.719 98.9682 160.167 99.384 160.466C99.7998 160.752 100.339 160.895 101.002 160.895C101.405 160.895 101.794 160.811 102.171 160.642C102.561 160.473 102.866 160.245 103.087 159.959L105.192 161.207C104.738 161.87 104.146 162.376 103.419 162.727C102.704 163.078 101.879 163.253 100.943 163.253C99.8908 163.253 98.9617 163.032 98.1561 162.591C97.3504 162.136 96.7267 161.519 96.2849 160.739C95.8431 159.959 95.6222 159.089 95.6222 158.127C95.6222 157.166 95.8366 156.295 96.2654 155.515C96.7072 154.736 97.318 154.125 98.0976 153.683C98.8772 153.228 99.7673 153.001 100.768 153.001ZM103.068 156.958C102.977 156.464 102.717 156.081 102.288 155.808C101.872 155.535 101.359 155.398 100.748 155.398C100.112 155.398 99.5594 155.554 99.0916 155.866C98.6239 156.165 98.377 156.529 98.351 156.958H103.068ZM113.437 153.254H116.224V163H113.437V162.337C112.697 162.961 111.91 163.273 111.079 163.273C110.507 163.273 109.929 163.149 109.344 162.903C108.759 162.656 108.259 162.22 107.843 161.597C107.427 160.973 107.22 160.135 107.22 159.082V153.254H110.007V159.082C110.007 159.693 110.182 160.141 110.533 160.427C110.884 160.7 111.3 160.836 111.78 160.836C112.248 160.836 112.638 160.668 112.95 160.33C113.275 159.992 113.437 159.453 113.437 158.712V153.254ZM123.755 152.982C124.326 152.982 124.905 153.105 125.489 153.352C126.074 153.599 126.574 154.034 126.99 154.658C127.406 155.282 127.614 156.12 127.614 157.172V163H124.827V157.172C124.827 156.548 124.651 156.1 124.3 155.827C123.962 155.554 123.553 155.418 123.072 155.418C122.592 155.418 122.189 155.587 121.864 155.925C121.552 156.263 121.396 156.802 121.396 157.542V163H118.609V153.254H121.396V153.917C122.137 153.293 122.923 152.982 123.755 152.982Z" fill="white"/>
<mask id="mask0_56_154" style="mask-type:luminance" maskUnits="userSpaceOnUse" x="23" y="0" width="156" height="156">
<path d="M179 0H23V156H179V0Z" fill="white"/>
</mask>
<g mask="url(#mask0_56_154)">
<path d="M160.642 34.1578H94.8786L80.2645 19.5437H43.7293C35.6916 19.5437 29.1152 26.12 29.1152 34.1578V92.5392C89.4248 121.181 103.122 134.004 175.256 92.5392V48.7718C175.256 40.7341 168.68 34.1578 160.642 34.1578Z" fill="#5D5D5D"/>
<path fill-rule="evenodd" clip-rule="evenodd" d="M105.327 42.5049C111.547 42.5049 117.292 43.9964 122.561 46.9795C127.829 49.9627 131.986 54.0257 135.033 59.167C138.143 64.2448 139.698 69.8939 139.698 76.1142C139.698 82.3346 138.143 87.9524 135.033 92.9668C131.986 97.981 127.829 101.948 122.561 104.868C117.356 107.724 111.611 109.152 105.327 109.152H94.1934V92.0146H105.327C108.247 92.0146 110.945 91.316 113.42 89.9199C115.959 88.46 117.959 86.4919 119.419 84.0166C120.879 81.5412 121.608 78.8435 121.608 75.9238C121.608 73.0041 120.879 70.3064 119.419 67.831C117.959 65.2922 115.959 63.2928 113.42 61.833C110.945 60.3733 108.247 59.6425 105.327 59.6425H94.1934V42.5049H105.327ZM86.5664 109.075H69.4287V61.4697H86.5664V109.075ZM77.998 39C81.108 39.0001 83.5519 39.8566 85.3291 41.5703C87.1063 43.284 87.995 45.6009 87.9951 48.5205C87.9951 51.4403 87.1064 53.7579 85.3291 55.4716C83.5519 57.1219 81.108 57.9472 77.998 57.9472C74.8878 57.9472 72.4433 57.122 70.666 55.4716C68.8888 53.7579 68.001 51.4403 68.001 48.5205C68.0011 45.6009 68.8889 43.284 70.666 41.5703C72.4433 39.8565 74.8878 39 77.998 39Z" fill="white"/>
<path d="M160.642 83.6784H43.7293C35.6916 83.6784 29.1152 87.072 29.1152 91.2199V128.927C29.1152 133.075 35.6916 136.469 43.7293 136.469H160.642C168.68 136.469 175.256 133.075 175.256 128.927V91.2199C175.256 87.072 168.68 83.6784 160.642 83.6784Z" fill="#3F3F3F"/>
</g>
<path d="M31.9999 77L33.3045 74.6743C32.4943 74.2197 31.5055 74.2197 30.6954 74.6743L31.9999 77ZM35.7269 79.0907L34.4223 81.4164C34.8111 81.6345 35.2482 81.7516 35.6938 81.7571L35.7269 79.0907ZM39.9999 79.1436L42.2927 77.7818C41.8181 76.9829 40.9621 76.4886 40.033 76.4771L39.9999 79.1436ZM42.1823 82.8177L39.8895 84.1795C40.1173 84.5627 40.4373 84.8827 40.8205 85.1104L42.1823 82.8177ZM45.8565 85L48.5229 84.967C48.5114 84.0379 48.017 83.1818 47.2181 82.7073L45.8565 85ZM45.9093 89.273L43.2429 89.306C43.2482 89.7517 43.3655 90.1889 43.5834 90.5776L45.9093 89.273ZM47.9999 93L50.3258 94.3046C50.7802 93.4943 50.7802 92.5057 50.3258 91.6954L47.9999 93ZM45.9093 96.7269L43.5834 95.4224C43.3655 95.8112 43.2482 96.2483 43.2429 96.6939L45.9093 96.7269ZM45.8565 101L47.2181 103.293C48.017 102.818 48.5114 101.962 48.5229 101.033L45.8565 101ZM42.1823 103.182L40.8205 100.89C40.4373 101.117 40.1173 101.437 39.8895 101.821L42.1823 103.182ZM39.9999 106.857L40.033 109.523C40.9621 109.511 41.8181 109.017 42.2927 108.218L39.9999 106.857ZM35.7269 106.909L35.6938 104.243C35.2482 104.248 34.8111 104.366 34.4223 104.583L35.7269 106.909ZM31.9999 109L30.6954 111.326C31.5055 111.78 32.4943 111.78 33.3045 111.326L31.9999 109ZM28.273 106.909L29.5775 104.583C29.1887 104.366 28.7517 104.248 28.3061 104.243L28.273 106.909ZM23.9999 106.857L21.7072 108.218C22.1817 109.017 23.0378 109.511 23.9669 109.523L23.9999 106.857ZM21.8176 103.182L24.1103 101.821C23.8827 101.437 23.5626 101.117 23.1794 100.89L21.8176 103.182ZM18.1435 101L15.477 101.033C15.4886 101.962 15.9828 102.818 16.7817 103.293L18.1435 101ZM18.0906 96.7269L20.757 96.6939C20.7515 96.2483 20.6344 95.8112 20.4163 95.4224L18.0906 96.7269ZM15.9999 93L13.6742 91.6954C13.2196 92.5057 13.2196 93.4943 13.6742 94.3046L15.9999 93ZM18.0906 89.273L20.4163 90.5776C20.6344 90.1889 20.7515 89.7517 20.757 89.306L18.0906 89.273ZM18.1435 85L16.7817 82.7073C15.9828 83.1818 15.4886 84.0379 15.477 84.967L18.1435 85ZM21.8176 82.8177L23.1794 85.1104C23.5626 84.8827 23.8827 84.5627 24.1103 84.1795L21.8176 82.8177ZM23.9999 79.1436L23.9669 76.4771C23.0378 76.4886 22.1817 76.9829 21.7072 77.7818L23.9999 79.1436ZM28.273 79.0907L28.3061 81.7571C28.7517 81.7516 29.1887 81.6345 29.5775 81.4164L28.273 79.0907ZM22.6666 125H19.9999C19.9999 125.951 20.506 126.829 21.3281 127.306C22.1503 127.783 23.1643 127.787 23.9896 127.315L22.6666 125ZM31.9999 119.667L33.3229 117.351C32.5031 116.883 31.4967 116.883 30.677 117.351L31.9999 119.667ZM41.3333 125L40.0103 127.315C40.8357 127.787 41.8495 127.783 42.6717 127.306C43.4938 126.829 43.9999 125.951 43.9999 125H41.3333ZM30.6954 79.3257L34.4223 81.4164L37.0317 76.7649L33.3045 74.6743L30.6954 79.3257ZM35.6938 81.7571L39.9669 81.8101L40.033 76.4771L35.7599 76.4242L35.6938 81.7571ZM37.7071 80.5054L39.8895 84.1795L44.4749 81.4558L42.2927 77.7818L37.7071 80.5054ZM40.8205 85.1104L44.4946 87.2927L47.2181 82.7073L43.5442 80.525L40.8205 85.1104ZM43.1898 85.033L43.2429 89.306L48.5757 89.24L48.5229 84.967L43.1898 85.033ZM43.5834 90.5776L45.6741 94.3046L50.3258 91.6954L48.2351 87.9684L43.5834 90.5776ZM45.6741 91.6954L43.5834 95.4224L48.2351 98.0317L50.3258 94.3046L45.6741 91.6954ZM43.2429 96.6939L43.1898 100.967L48.5229 101.033L48.5757 96.76L43.2429 96.6939ZM39.9669 104.19L35.6938 104.243L35.7599 109.576L40.033 109.523L39.9669 104.19ZM28.3061 104.243L24.033 104.19L23.9669 109.523L28.2399 109.576L28.3061 104.243ZM20.81 100.967L20.757 96.6939L15.4241 96.76L15.477 101.033L20.81 100.967ZM20.4163 95.4224L18.3257 91.6954L13.6742 94.3046L15.7649 98.0317L20.4163 95.4224ZM18.3257 94.3046L20.4163 90.5776L15.7649 87.9684L13.6742 91.6954L18.3257 94.3046ZM20.757 89.306L20.81 85.033L15.477 84.967L15.4241 89.24L20.757 89.306ZM19.5054 87.2927L23.1794 85.1104L20.4558 80.525L16.7817 82.7073L19.5054 87.2927ZM24.1103 84.1795L26.2926 80.5054L21.7072 77.7818L19.5249 81.4558L24.1103 84.1795ZM24.0329 81.8101L28.3061 81.7571L28.2399 76.4242L23.9669 76.4771L24.0329 81.8101ZM29.5775 81.4164L33.3045 79.3257L30.6954 74.6743L26.9682 76.7649L29.5775 81.4164ZM44.4946 98.7072L40.8205 100.89L43.5442 105.475L47.2181 103.293L44.4946 98.7072ZM23.1794 100.89L19.5054 98.7072L16.7817 103.293L20.4558 105.475L23.1794 100.89ZM34.4223 104.583L30.6954 106.674L33.3045 111.326L37.0317 109.235L34.4223 104.583ZM33.3045 106.674L29.5775 104.583L26.9682 109.235L30.6954 111.326L33.3045 106.674ZM23.9896 127.315L33.3229 121.982L30.677 117.351L21.3436 122.685L23.9896 127.315ZM30.677 121.982L40.0103 127.315L42.6562 122.685L33.3229 117.351L30.677 121.982ZM43.9999 125V104.612H38.6666V125H43.9999ZM39.8895 101.821L39.0405 103.25L43.6261 105.974L44.4749 104.544L39.8895 101.821ZM39.0405 103.25L37.7071 105.495L42.2927 108.218L43.6261 105.974L39.0405 103.25ZM19.9999 104.612V125H25.3333V104.612H19.9999ZM26.2926 105.495L24.9593 103.25L20.3739 105.974L21.7072 108.218L26.2926 105.495ZM24.9593 103.25L24.1103 101.821L19.5249 104.544L20.3739 105.974L24.9593 103.25ZM34.6666 93C34.6666 94.4727 33.4727 95.6667 31.9999 95.6667V101C36.4183 101 39.9999 97.4184 39.9999 93H34.6666ZM31.9999 95.6667C30.5271 95.6667 29.3333 94.4727 29.3333 93H23.9999C23.9999 97.4184 27.5815 101 31.9999 101V95.6667ZM29.3333 93C29.3333 91.5273 30.5271 90.3333 31.9999 90.3333V85C27.5815 85 23.9999 88.5817 23.9999 93H29.3333ZM31.9999 90.3333C33.4727 90.3333 34.6666 91.5273 34.6666 93H39.9999C39.9999 88.5817 36.4183 85 31.9999 85V90.3333Z" fill="#FFD900"/>
</svg>
