<svg width="174" height="30" viewBox="0 0 174 30" fill="none" xmlns="http://www.w3.org/2000/svg">
<path d="M-2.52724e-05 23.36V0.959999H4.83197V23.36H-2.52724e-05ZM16.9115 6.912C17.8501 6.912 18.7995 7.11467 19.7595 7.52C20.7195 7.92533 21.5408 8.64 22.2235 9.664C22.9061 10.688 23.2475 12.064 23.2475 13.792V23.36H18.6715V13.792C18.6715 12.768 18.3835 12.032 17.8075 11.584C17.2528 11.136 16.5808 10.912 15.7915 10.912C15.0021 10.912 14.3408 11.1893 13.8075 11.744C13.2955 12.2987 13.0395 13.184 13.0395 14.4V23.36H8.46347V7.36H13.0395V8.448C14.2555 7.424 15.5461 6.912 16.9115 6.912ZM32.0092 17.664C32.0092 18.2613 32.1692 18.6773 32.4892 18.912C32.8306 19.1467 33.3426 19.264 34.0252 19.264C34.4519 19.264 34.9212 19.232 35.4332 19.168V23.36C34.3666 23.4667 33.4812 23.52 32.7772 23.52C30.9852 23.52 29.6412 23.1253 28.7452 22.336C27.8706 21.5253 27.4332 20.064 27.4332 17.952V11.424H24.6812V7.36H27.4332V3.648L32.0092 2.112V7.36H35.3692V11.424H32.0092V17.664ZM45.5787 6.944C47.1361 6.944 48.5227 7.31733 49.7387 8.064C50.9761 8.81067 51.9361 9.824 52.6187 11.104C53.3014 12.384 53.6427 13.8027 53.6427 15.36C53.6427 15.9573 53.6001 16.5013 53.5147 16.992H41.6747C42.0801 17.9733 42.6241 18.7093 43.3067 19.2C43.9894 19.6693 44.8747 19.904 45.9627 19.904C46.6241 19.904 47.2641 19.7653 47.8827 19.488C48.5227 19.2107 49.0241 18.8373 49.3867 18.368L52.8427 20.416C52.0961 21.504 51.1254 22.336 49.9307 22.912C48.7574 23.488 47.4027 23.776 45.8667 23.776C44.1387 23.776 42.6134 23.4133 41.2907 22.688C39.9681 21.9413 38.9441 20.928 38.2187 19.648C37.4934 18.368 37.1307 16.9387 37.1307 15.36C37.1307 13.7813 37.4827 12.352 38.1867 11.072C38.9121 9.792 39.9147 8.78933 41.1947 8.064C42.4747 7.31733 43.9361 6.944 45.5787 6.944ZM49.3547 13.44C49.2054 12.6293 48.7787 12 48.0747 11.552C47.3921 11.104 46.5494 10.88 45.5467 10.88C44.5014 10.88 43.5947 11.136 42.8267 11.648C42.0587 12.1387 41.6534 12.736 41.6107 13.44H49.3547ZM66.074 7.04L65.754 11.36C65.6046 11.296 65.3593 11.264 65.018 11.264C63.7166 11.264 62.65 11.6373 61.818 12.384C61.0073 13.1093 60.602 14.0693 60.602 15.264V23.36H56.026V7.36H60.602V9.952C60.986 9.12 61.6046 8.42667 62.458 7.872C63.3113 7.31733 64.346 7.04 65.562 7.04H66.074ZM77.0052 6.912C77.9439 6.912 78.8932 7.11467 79.8532 7.52C80.8132 7.92533 81.6346 8.64 82.3172 9.664C82.9999 10.688 83.3412 12.064 83.3412 13.792V23.36H78.7652V13.792C78.7652 12.768 78.4772 12.032 77.9012 11.584C77.3466 11.136 76.6746 10.912 75.8852 10.912C75.0959 10.912 74.4346 11.1893 73.9012 11.744C73.3892 12.2987 73.1332 13.184 73.1332 14.4V23.36H68.5572V7.36H73.1332V8.448C74.3492 7.424 75.6399 6.912 77.0052 6.912ZM90.4345 11.904C90.4345 12.2667 90.6585 12.544 91.1065 12.736C91.5545 12.9067 92.2691 13.088 93.2505 13.28C94.5091 13.536 95.5545 13.824 96.3865 14.144C97.2185 14.4427 97.9438 14.9547 98.5625 15.68C99.2025 16.384 99.5225 17.3653 99.5225 18.624C99.5225 19.712 99.1918 20.6507 98.5305 21.44C97.8691 22.208 96.9945 22.7947 95.9065 23.2C94.8185 23.584 93.6451 23.776 92.3865 23.776C90.6585 23.776 89.1865 23.4667 87.9705 22.848C86.7545 22.208 85.8371 21.2693 85.2185 20.032L88.9625 18.112C89.4745 19.4773 90.6158 20.16 92.3865 20.16C93.1118 20.16 93.7411 20.032 94.2745 19.776C94.8291 19.4987 95.1065 19.1147 95.1065 18.624C95.1065 18.1973 94.8505 17.8773 94.3385 17.664C93.8478 17.4507 93.0585 17.2267 91.9705 16.992C90.7331 16.7147 89.6985 16.4267 88.8665 16.128C88.0345 15.808 87.3198 15.328 86.7225 14.688C86.1251 14.0267 85.8265 13.152 85.8265 12.064C85.8265 11.0187 86.1251 10.112 86.7225 9.344C87.3198 8.55467 88.1198 7.95733 89.1225 7.552C90.1465 7.14667 91.2558 6.944 92.4505 6.944C93.8585 6.944 95.1278 7.232 96.2585 7.808C97.3891 8.384 98.2745 9.216 98.9145 10.304L95.2025 12.128C94.9465 11.5947 94.5945 11.2 94.1465 10.944C93.7198 10.688 93.1545 10.56 92.4505 10.56C91.8318 10.56 91.3411 10.688 90.9785 10.944C90.6158 11.1787 90.4345 11.4987 90.4345 11.904ZM116.246 23.36H111.67V13.92C111.67 12.896 111.382 12.16 110.806 11.712C110.23 11.2427 109.547 11.008 108.758 11.008C108.097 11.008 107.521 11.2213 107.03 11.648C106.539 12.0533 106.23 12.6933 106.102 13.568V23.36H101.526V0.959999H106.102V8.512C107.275 7.53067 108.545 7.04 109.91 7.04C110.827 7.04 111.755 7.24267 112.694 7.648C113.654 8.032 114.475 8.72533 115.158 9.728C115.862 10.7307 116.225 12.0853 116.246 13.792V23.36ZM122.269 5.184C121.416 5.184 120.744 4.96 120.253 4.512C119.784 4.04267 119.549 3.41333 119.549 2.624C119.549 1.81333 119.784 1.17333 120.253 0.704C120.744 0.234667 121.416 0 122.269 0C123.101 0 123.762 0.234667 124.253 0.704C124.744 1.17333 124.989 1.81333 124.989 2.624C124.989 3.41333 124.744 4.04267 124.253 4.512C123.762 4.96 123.101 5.184 122.269 5.184ZM119.965 23.36V7.36H124.541V23.36H119.965ZM137.715 6.944C139.379 6.944 140.809 7.30667 142.003 8.032C143.219 8.75733 144.147 9.76 144.787 11.04C145.427 12.2987 145.747 13.7387 145.747 15.36C145.747 16.9813 145.427 18.432 144.787 19.712C144.147 20.992 143.219 22.0053 142.003 22.752C140.809 23.4773 139.379 23.84 137.715 23.84C136.862 23.84 136.019 23.6907 135.187 23.392C134.355 23.1147 133.587 22.7093 132.883 22.176V29.76H128.307V7.36H132.883V8.608C133.587 8.07467 134.345 7.66933 135.155 7.392C135.987 7.09333 136.841 6.944 137.715 6.944ZM137.107 19.392C138.302 19.392 139.273 19.0293 140.019 18.304C140.787 17.5573 141.171 16.576 141.171 15.36C141.171 14.144 140.787 13.1627 140.019 12.416C139.273 11.6693 138.302 11.296 137.107 11.296C135.913 11.296 134.91 11.68 134.099 12.448C133.289 13.216 132.883 14.1973 132.883 15.392C132.883 16.5867 133.278 17.5573 134.067 18.304C134.878 19.0293 135.891 19.392 137.107 19.392ZM151.939 25.616C150.739 24.352 149.779 22.752 149.059 20.816C148.355 18.88 148.003 16.944 148.003 15.008C148.003 13.072 148.355 11.136 149.059 9.2C149.779 7.248 150.739 5.648 151.939 4.4L154.075 6.032C153.227 7.552 152.611 9.008 152.227 10.4C151.859 11.776 151.675 13.312 151.675 15.008C151.675 16.704 151.859 18.248 152.227 19.64C152.611 21.032 153.227 22.464 154.075 23.936L151.939 25.616ZM159.032 14.768C159.032 15.04 159.2 15.248 159.536 15.392C159.872 15.52 160.408 15.656 161.144 15.8C162.088 15.992 162.872 16.208 163.496 16.448C164.12 16.672 164.664 17.056 165.128 17.6C165.608 18.128 165.848 18.864 165.848 19.808C165.848 20.624 165.6 21.328 165.104 21.92C164.608 22.496 163.952 22.936 163.136 23.24C162.32 23.528 161.44 23.672 160.496 23.672C159.2 23.672 158.096 23.44 157.184 22.976C156.272 22.496 155.584 21.792 155.12 20.864L157.928 19.424C158.312 20.448 159.168 20.96 160.496 20.96C161.04 20.96 161.512 20.864 161.912 20.672C162.328 20.464 162.536 20.176 162.536 19.808C162.536 19.488 162.344 19.248 161.96 19.088C161.592 18.928 161 18.76 160.184 18.584C159.256 18.376 158.48 18.16 157.856 17.936C157.232 17.696 156.696 17.336 156.248 16.856C155.8 16.36 155.576 15.704 155.576 14.888C155.576 14.104 155.8 13.424 156.248 12.848C156.696 12.256 157.296 11.808 158.048 11.504C158.816 11.2 159.648 11.048 160.544 11.048C161.6 11.048 162.552 11.264 163.4 11.696C164.248 12.128 164.912 12.752 165.392 13.568L162.608 14.936C162.416 14.536 162.152 14.24 161.816 14.048C161.496 13.856 161.072 13.76 160.544 13.76C160.08 13.76 159.712 13.856 159.44 14.048C159.168 14.224 159.032 14.464 159.032 14.768ZM169.158 4.4C170.358 5.648 171.31 7.248 172.014 9.2C172.734 11.136 173.094 13.072 173.094 15.008C173.094 16.944 172.734 18.88 172.014 20.816C171.31 22.752 170.358 24.352 169.158 25.616L167.022 23.936C167.87 22.464 168.478 21.032 168.846 19.64C169.23 18.248 169.422 16.704 169.422 15.008C169.422 13.312 169.23 11.776 168.846 10.4C168.478 9.008 167.87 7.552 167.022 6.032L169.158 4.4Z" fill="white"/>
</svg>
