<svg width="21" height="21" viewBox="0 0 21 21" fill="none" xmlns="http://www.w3.org/2000/svg">
<g clip-path="url(#clip0_10_62)">
<path fill-rule="evenodd" clip-rule="evenodd" d="M19.4791 0H1.58288C0.726797 0 0 0.676922 0 1.51106V19.4882C0 20.3231 0.476971 21 1.33268 21H19.2289C20.0861 21 21 20.3231 21 19.4882V1.51106C21 0.676922 20.3359 0 19.4791 0ZM7.99981 7.99981H10.8269V9.44094H10.8579C11.2888 8.66389 12.5617 7.87508 14.1359 7.87508C17.1569 7.87508 18.0002 9.47912 18.0002 12.4499V18.0002H14.9999V12.9972C14.9999 11.6671 14.4689 10.5 13.227 10.5C11.7189 10.5 11 11.5208 11 13.1971V18.0002H7.99981V7.99981ZM2.99984 18.0002H6.00005V7.99981H2.99984V18.0002ZM6.37498 4.49995C6.37498 5.53592 5.53592 6.37498 4.49995 6.37498C3.46397 6.37498 2.62492 5.53592 2.62492 4.49995C2.62492 3.46397 3.46397 2.62492 4.49995 2.62492C5.53592 2.62492 6.37498 3.46397 6.37498 4.49995Z" fill="white"/>
</g>
<defs>
<clipPath id="clip0_10_62">
<rect width="21" height="21" fill="white"/>
</clipPath>
</defs>
</svg>
