<svg width="250" height="19" viewBox="0 0 250 19" fill="none" xmlns="http://www.w3.org/2000/svg">
<path d="M10.6031 0.604223V0.584732H13.5268V14.2285H10.6031V5.96427L7.13369 11.7726H6.41252L2.92362 5.94478V14.2285H-4.52084e-05V0.584732H2.92362V0.604223L2.9626 0.584732L6.76336 6.97781L10.5641 0.584732L10.6031 0.604223ZM20.2813 14.5209C19.3458 14.5209 18.4817 14.2935 17.689 13.8387C16.9094 13.3709 16.2857 12.7407 15.8179 11.948C15.3631 11.1554 15.1357 10.2978 15.1357 9.37521C15.1357 8.43964 15.3631 7.58203 15.8179 6.80239C16.2857 6.00975 16.9094 5.38604 17.689 4.93125C18.4817 4.46346 19.3458 4.22957 20.2813 4.22957C21.2039 4.22957 22.055 4.46346 22.8347 4.93125C23.6273 5.38604 24.251 6.00975 24.7058 6.80239C25.1736 7.58203 25.4075 8.43964 25.4075 9.37521C25.4075 10.2978 25.1736 11.1554 24.7058 11.948C24.251 12.7407 23.6273 13.3709 22.8347 13.8387C22.055 14.2935 21.2039 14.5209 20.2813 14.5209ZM20.2619 11.7336C20.9116 11.7336 21.4703 11.5062 21.9381 11.0514C22.4059 10.5837 22.6398 10.0249 22.6398 9.37521C22.6398 8.72551 22.4059 8.16677 21.9381 7.69898C21.4703 7.23119 20.9116 6.9973 20.2619 6.9973C19.6122 6.9973 19.0534 7.23119 18.5856 7.69898C18.1308 8.16677 17.9034 8.72551 17.9034 9.37521C17.9034 10.0249 18.1308 10.5837 18.5856 11.0514C19.0534 11.5062 19.6122 11.7336 20.2619 11.7336ZM32.9933 4.28804L32.7984 6.91934C32.7075 6.88035 32.558 6.86086 32.3501 6.86086C31.5575 6.86086 30.9078 7.08826 30.401 7.54305C29.9073 7.98485 29.6604 8.56958 29.6604 9.29725V14.2285H26.8731V4.48295H29.6604V6.06173C29.8943 5.55496 30.2711 5.13265 30.7909 4.79481C31.3106 4.45696 31.9408 4.28804 32.6815 4.28804H32.9933ZM38.6304 4.22957C39.5789 4.22957 40.4236 4.45696 41.1642 4.91175C41.9179 5.36655 42.5026 5.98376 42.9184 6.76341C43.3342 7.54305 43.5421 8.40716 43.5421 9.35572C43.5421 9.71956 43.5161 10.0509 43.4642 10.3498H36.2525C36.4994 10.9475 36.8307 11.3958 37.2465 11.6947C37.6623 11.9805 38.2016 12.1235 38.8643 12.1235C39.2671 12.1235 39.6569 12.039 40.0337 11.8701C40.4236 11.7012 40.7289 11.4738 40.9498 11.1879L43.0549 12.4353C42.6001 13.098 42.0088 13.6048 41.2812 13.9556C40.5665 14.3065 39.7414 14.4819 38.8058 14.4819C37.7533 14.4819 36.8242 14.261 36.0186 13.8192C35.2129 13.3644 34.5892 12.7472 34.1474 11.9675C33.7056 11.1879 33.4847 10.3173 33.4847 9.35572C33.4847 8.39416 33.6991 7.52356 34.1279 6.74392C34.5697 5.96427 35.1805 5.35355 35.9601 4.91175C36.7397 4.45696 37.6298 4.22957 38.6304 4.22957ZM40.9303 8.18626C40.8394 7.69248 40.5795 7.30916 40.1507 7.03628C39.7349 6.76341 39.2216 6.62697 38.6109 6.62697C37.9742 6.62697 37.4219 6.7829 36.9541 7.09476C36.4864 7.39362 36.2395 7.75745 36.2135 8.18626H40.9303ZM59.8536 9.72605L61.4324 4.48295H64.3365L61.179 14.2285H58.4697L56.852 9.08285L55.2147 14.2285H52.5249L49.4064 4.48295H52.33L53.8698 9.66758L55.3706 4.48295H58.3138L59.8536 9.72605ZM67.2025 3.15756C66.6827 3.15756 66.2734 3.02112 65.9746 2.74824C65.6887 2.46237 65.5458 2.07905 65.5458 1.59827C65.5458 1.10449 65.6887 0.714673 65.9746 0.428804C66.2734 0.142935 66.6827 -8.56608e-08 67.2025 -8.56608e-08C67.7093 -8.56608e-08 68.1121 0.142935 68.4109 0.428804C68.7098 0.714673 68.8592 1.10449 68.8592 1.59827C68.8592 2.07905 68.7098 2.46237 68.4109 2.74824C68.1121 3.02112 67.7093 3.15756 67.2025 3.15756ZM65.7991 14.2285V4.48295H68.5864V14.2285H65.7991ZM73.6676 11.1489C73.6676 11.3568 73.7131 11.5062 73.804 11.5972C73.908 11.6882 74.0769 11.7336 74.3108 11.7336C74.4797 11.7336 74.6811 11.7141 74.915 11.6752V14.2285C74.2783 14.3195 73.7845 14.3649 73.4337 14.3649C72.5891 14.3649 71.9524 14.144 71.5236 13.7022C71.0948 13.2474 70.8804 12.4548 70.8804 11.3243V0.584732H73.6676V11.1489ZM79.1304 11.1489C79.1304 11.3568 79.1759 11.5062 79.2669 11.5972C79.3708 11.6882 79.5397 11.7336 79.7736 11.7336C79.9426 11.7336 80.144 11.7141 80.3779 11.6752V14.2285C79.7412 14.3195 79.2474 14.3649 78.8965 14.3649C78.0519 14.3649 77.4152 14.144 76.9864 13.7022C76.5576 13.2474 76.3432 12.4548 76.3432 11.3243V0.584732H79.1304V11.1489ZM93.1194 4.21008C94.1329 4.21008 95.0035 4.43097 95.7312 4.87277C96.4719 5.31457 97.0371 5.93179 97.4269 6.72443C97.8168 7.50407 98.0117 8.38767 98.0117 9.37521C98.0117 10.3628 97.8168 11.2464 97.4269 12.026C97.0371 12.7927 96.4719 13.3969 95.7312 13.8387C95.0035 14.2805 94.1329 14.5014 93.1194 14.5014C92.5347 14.5014 91.9694 14.3974 91.4237 14.1895C90.8779 13.9816 90.3777 13.6827 89.9229 13.2929V14.2285H87.1356V0.584732H89.9229V5.43801C90.3777 5.04819 90.8779 4.74933 91.4237 4.54142C91.9694 4.32053 92.5347 4.21008 93.1194 4.21008ZM92.7491 11.8506C93.4767 11.8506 94.068 11.6232 94.5228 11.1684C94.9906 10.7136 95.2244 10.1159 95.2244 9.37521C95.2244 8.63455 94.9906 8.03683 94.5228 7.58203C94.068 7.12724 93.4767 6.89985 92.7491 6.89985C92.0214 6.89985 91.4107 7.12724 90.9169 7.58203C90.4231 8.03683 90.1763 8.62156 90.1763 9.33623C90.1763 10.0769 90.4231 10.6811 90.9169 11.1489C91.4107 11.6167 92.0214 11.8506 92.7491 11.8506ZM104.261 4.22957C105.209 4.22957 106.054 4.45696 106.794 4.91175C107.548 5.36655 108.133 5.98376 108.549 6.76341C108.964 7.54305 109.172 8.40716 109.172 9.35572C109.172 9.71956 109.146 10.0509 109.094 10.3498H101.883C102.13 10.9475 102.461 11.3958 102.877 11.6947C103.292 11.9805 103.832 12.1235 104.494 12.1235C104.897 12.1235 105.287 12.039 105.664 11.8701C106.054 11.7012 106.359 11.4738 106.58 11.1879L108.685 12.4353C108.23 13.098 107.639 13.6048 106.911 13.9556C106.197 14.3065 105.372 14.4819 104.436 14.4819C103.383 14.4819 102.454 14.261 101.649 13.8192C100.843 13.3644 100.219 12.7472 99.7776 11.9675C99.3358 11.1879 99.1149 10.3173 99.1149 9.35572C99.1149 8.39416 99.3293 7.52356 99.7581 6.74392C100.2 5.96427 100.811 5.35355 101.59 4.91175C102.37 4.45696 103.26 4.22957 104.261 4.22957ZM106.56 8.18626C106.47 7.69248 106.21 7.30916 105.781 7.03628C105.365 6.76341 104.852 6.62697 104.241 6.62697C103.604 6.62697 103.052 6.7829 102.584 7.09476C102.117 7.39362 101.87 7.75745 101.844 8.18626H106.56ZM124.802 12.3184C124.321 12.9941 123.71 13.5333 122.969 13.9361C122.242 14.326 121.456 14.5209 120.611 14.5209C119.675 14.5209 118.811 14.2935 118.019 13.8387C117.239 13.3709 116.615 12.7407 116.148 11.948C115.693 11.1554 115.465 10.2978 115.465 9.37521C115.465 8.43964 115.693 7.58203 116.148 6.80239C116.615 6.00975 117.239 5.38604 118.019 4.93125C118.811 4.46346 119.675 4.22957 120.611 4.22957C121.456 4.22957 122.242 4.42448 122.969 4.8143C123.697 5.20412 124.301 5.73038 124.782 6.39308L122.482 7.91338C121.936 7.30266 121.313 6.9973 120.611 6.9973C119.961 6.9973 119.403 7.23119 118.935 7.69898C118.467 8.16677 118.233 8.72551 118.233 9.37521C118.233 10.0249 118.467 10.5837 118.935 11.0514C119.403 11.5062 119.961 11.7336 120.611 11.7336C121.313 11.7336 121.936 11.4283 122.482 10.8176L124.802 12.3184ZM130.547 14.5209C129.611 14.5209 128.747 14.2935 127.955 13.8387C127.175 13.3709 126.551 12.7407 126.083 11.948C125.629 11.1554 125.401 10.2978 125.401 9.37521C125.401 8.43964 125.629 7.58203 126.083 6.80239C126.551 6.00975 127.175 5.38604 127.955 4.93125C128.747 4.46346 129.611 4.22957 130.547 4.22957C131.469 4.22957 132.321 4.46346 133.1 4.93125C133.893 5.38604 134.517 6.00975 134.971 6.80239C135.439 7.58203 135.673 8.43964 135.673 9.37521C135.673 10.2978 135.439 11.1554 134.971 11.948C134.517 12.7407 133.893 13.3709 133.1 13.8387C132.321 14.2935 131.469 14.5209 130.547 14.5209ZM130.527 11.7336C131.177 11.7336 131.736 11.5062 132.204 11.0514C132.671 10.5837 132.905 10.0249 132.905 9.37521C132.905 8.72551 132.671 8.16677 132.204 7.69898C131.736 7.23119 131.177 6.9973 130.527 6.9973C129.878 6.9973 129.319 7.23119 128.851 7.69898C128.396 8.16677 128.169 8.72551 128.169 9.37521C128.169 10.0249 128.396 10.5837 128.851 11.0514C129.319 11.5062 129.878 11.7336 130.527 11.7336ZM148.233 4.21008C148.805 4.21008 149.383 4.33352 149.968 4.58041C150.553 4.82729 151.053 5.26259 151.469 5.88631C151.885 6.51002 152.092 7.34814 152.092 8.40066V14.2285H149.325V8.40066C149.325 7.77695 149.149 7.32865 148.798 7.05577C148.448 6.7829 148.032 6.64646 147.551 6.64646C147.148 6.64646 146.797 6.76991 146.498 7.01679C146.213 7.25069 146.024 7.62102 145.933 8.12778V8.40066V14.2285H143.146V8.40066C143.146 7.77695 142.971 7.32865 142.62 7.05577C142.269 6.7829 141.853 6.64646 141.372 6.64646C140.97 6.64646 140.619 6.76991 140.32 7.01679C140.021 7.26368 139.833 7.66 139.755 8.20575V14.2285H136.967V4.48295H139.755V5.10667C140.469 4.50894 141.242 4.21008 142.074 4.21008C142.646 4.21008 143.224 4.33352 143.809 4.58041C144.406 4.82729 144.894 5.23661 145.271 5.80835C145.608 5.35355 146.037 4.97673 146.557 4.67786C147.077 4.366 147.635 4.21008 148.233 4.21008ZM155.731 3.15756C155.211 3.15756 154.802 3.02112 154.503 2.74824C154.217 2.46237 154.074 2.07905 154.074 1.59827C154.074 1.10449 154.217 0.714673 154.503 0.428804C154.802 0.142935 155.211 -8.56608e-08 155.731 -8.56608e-08C156.238 -8.56608e-08 156.64 0.142935 156.939 0.428804C157.238 0.714673 157.388 1.10449 157.388 1.59827C157.388 2.07905 157.238 2.46237 156.939 2.74824C156.64 3.02112 156.238 3.15756 155.731 3.15756ZM154.328 14.2285V4.48295H157.115V14.2285H154.328ZM164.554 4.21008C165.126 4.21008 165.704 4.33352 166.289 4.58041C166.874 4.82729 167.374 5.26259 167.79 5.88631C168.206 6.51002 168.414 7.34814 168.414 8.40066V14.2285H165.626V8.40066C165.626 7.77695 165.451 7.32865 165.1 7.05577C164.762 6.7829 164.353 6.64646 163.872 6.64646C163.391 6.64646 162.989 6.81538 162.664 7.15323C162.352 7.49108 162.196 8.03033 162.196 8.77099V14.2285H159.409V4.48295H162.196V5.14565C162.937 4.52193 163.723 4.21008 164.554 4.21008ZM177.685 4.48295H180.472V13.7412C180.472 14.6508 180.232 15.4564 179.751 16.1581C179.283 16.8598 178.633 17.4055 177.802 17.7954C176.97 18.1852 176.035 18.3801 174.995 18.3801C173.865 18.3801 172.825 18.1592 171.877 17.7174C170.941 17.2886 170.285 16.7299 169.908 16.0412L172.286 14.6573C172.455 14.9951 172.793 15.2745 173.299 15.4954C173.806 15.7163 174.397 15.8268 175.073 15.8268C175.827 15.8268 176.45 15.6319 176.944 15.242C177.438 14.8522 177.685 14.3519 177.685 13.7412V13.4878C177.256 13.8127 176.788 14.0596 176.281 14.2285C175.788 14.4104 175.274 14.5014 174.742 14.5014C173.728 14.5014 172.851 14.2805 172.11 13.8387C171.383 13.3969 170.824 12.7927 170.434 12.026C170.044 11.2464 169.849 10.3628 169.849 9.37521C169.849 8.38767 170.044 7.50407 170.434 6.72443C170.824 5.93179 171.383 5.31457 172.11 4.87277C172.851 4.43097 173.728 4.21008 174.742 4.21008C175.261 4.21008 175.775 4.30103 176.281 4.48295C176.788 4.65187 177.256 4.89876 177.685 5.22361V4.48295ZM175.112 11.8506C175.84 11.8506 176.45 11.6167 176.944 11.1489C177.438 10.6811 177.685 10.0769 177.685 9.33623C177.685 8.62156 177.438 8.03683 176.944 7.58203C176.45 7.12724 175.84 6.89985 175.112 6.89985C174.384 6.89985 173.787 7.12724 173.319 7.58203C172.864 8.03683 172.637 8.63455 172.637 9.37521C172.637 10.1159 172.864 10.7136 173.319 11.1684C173.787 11.6232 174.384 11.8506 175.112 11.8506ZM190.341 7.25069C190.341 7.47158 190.477 7.64051 190.75 7.75745C191.023 7.86141 191.458 7.97186 192.056 8.0888C192.823 8.24473 193.459 8.42015 193.966 8.61506C194.473 8.79698 194.915 9.10884 195.292 9.55063C195.681 9.97944 195.876 10.5772 195.876 11.3438C195.876 12.0065 195.675 12.5783 195.272 13.059C194.869 13.5268 194.336 13.8842 193.674 14.131C193.011 14.3649 192.296 14.4819 191.53 14.4819C190.477 14.4819 189.581 14.2935 188.84 13.9166C188.099 13.5268 187.541 12.9551 187.164 12.2014L189.444 11.032C189.756 11.8636 190.451 12.2794 191.53 12.2794C191.972 12.2794 192.355 12.2014 192.68 12.0455C193.018 11.8766 193.187 11.6427 193.187 11.3438C193.187 11.0839 193.031 10.889 192.719 10.7591C192.42 10.6291 191.939 10.4927 191.276 10.3498C190.523 10.1808 189.893 10.0054 189.386 9.82351C188.879 9.6286 188.444 9.33623 188.08 8.94641C187.716 8.54359 187.534 8.01084 187.534 7.34814C187.534 6.71143 187.716 6.15918 188.08 5.6914C188.444 5.21062 188.931 4.84678 189.542 4.5999C190.165 4.35301 190.841 4.22957 191.569 4.22957C192.426 4.22957 193.2 4.40499 193.888 4.75583C194.577 5.10667 195.116 5.61343 195.506 6.27613L193.245 7.38712C193.089 7.06227 192.875 6.82188 192.602 6.66595C192.342 6.51002 191.998 6.43206 191.569 6.43206C191.192 6.43206 190.893 6.51002 190.672 6.66595C190.451 6.80889 190.341 7.0038 190.341 7.25069ZM201.887 14.5209C200.952 14.5209 200.088 14.2935 199.295 13.8387C198.515 13.3709 197.892 12.7407 197.424 11.948C196.969 11.1554 196.742 10.2978 196.742 9.37521C196.742 8.43964 196.969 7.58203 197.424 6.80239C197.892 6.00975 198.515 5.38604 199.295 4.93125C200.088 4.46346 200.952 4.22957 201.887 4.22957C202.81 4.22957 203.661 4.46346 204.441 4.93125C205.233 5.38604 205.857 6.00975 206.312 6.80239C206.78 7.58203 207.013 8.43964 207.013 9.37521C207.013 10.2978 206.78 11.1554 206.312 11.948C205.857 12.7407 205.233 13.3709 204.441 13.8387C203.661 14.2935 202.81 14.5209 201.887 14.5209ZM201.868 11.7336C202.518 11.7336 203.076 11.5062 203.544 11.0514C204.012 10.5837 204.246 10.0249 204.246 9.37521C204.246 8.72551 204.012 8.16677 203.544 7.69898C203.076 7.23119 202.518 6.9973 201.868 6.9973C201.218 6.9973 200.659 7.23119 200.192 7.69898C199.737 8.16677 199.509 8.72551 199.509 9.37521C199.509 10.0249 199.737 10.5837 200.192 11.0514C200.659 11.5062 201.218 11.7336 201.868 11.7336ZM213.098 14.5209C212.163 14.5209 211.299 14.2935 210.506 13.8387C209.727 13.3709 209.103 12.7407 208.635 11.948C208.18 11.1554 207.953 10.2978 207.953 9.37521C207.953 8.43964 208.18 7.58203 208.635 6.80239C209.103 6.00975 209.727 5.38604 210.506 4.93125C211.299 4.46346 212.163 4.22957 213.098 4.22957C214.021 4.22957 214.872 4.46346 215.652 4.93125C216.444 5.38604 217.068 6.00975 217.523 6.80239C217.991 7.58203 218.225 8.43964 218.225 9.37521C218.225 10.2978 217.991 11.1554 217.523 11.948C217.068 12.7407 216.444 13.3709 215.652 13.8387C214.872 14.2935 214.021 14.5209 213.098 14.5209ZM213.079 11.7336C213.729 11.7336 214.287 11.5062 214.755 11.0514C215.223 10.5837 215.457 10.0249 215.457 9.37521C215.457 8.72551 215.223 8.16677 214.755 7.69898C214.287 7.23119 213.729 6.9973 213.079 6.9973C212.429 6.9973 211.871 7.23119 211.403 7.69898C210.948 8.16677 210.721 8.72551 210.721 9.37521C210.721 10.0249 210.948 10.5837 211.403 11.0514C211.871 11.5062 212.429 11.7336 213.079 11.7336ZM224.836 4.21008C225.408 4.21008 225.986 4.33352 226.571 4.58041C227.155 4.82729 227.656 5.26259 228.071 5.88631C228.487 6.51002 228.695 7.34814 228.695 8.40066V14.2285H225.908V8.40066C225.908 7.77695 225.733 7.32865 225.382 7.05577C225.044 6.7829 224.635 6.64646 224.154 6.64646C223.673 6.64646 223.27 6.81538 222.945 7.15323C222.633 7.49108 222.478 8.03033 222.478 8.77099V14.2285H219.69V4.48295H222.478V5.14565C223.218 4.52193 224.004 4.21008 224.836 4.21008ZM230.843 12.9811C230.843 12.5003 230.966 12.1365 231.213 11.8896C231.473 11.6297 231.837 11.4997 232.305 11.4997C232.773 11.4997 233.13 11.6297 233.377 11.8896C233.637 12.1365 233.767 12.5003 233.767 12.9811C233.767 13.4618 233.637 13.8322 233.377 14.0921C233.13 14.3389 232.773 14.4624 232.305 14.4624C231.837 14.4624 231.473 14.3389 231.213 14.0921C230.966 13.8322 230.843 13.4618 230.843 12.9811ZM236.02 12.9811C236.02 12.5003 236.144 12.1365 236.391 11.8896C236.651 11.6297 237.014 11.4997 237.482 11.4997C237.95 11.4997 238.307 11.6297 238.554 11.8896C238.814 12.1365 238.944 12.5003 238.944 12.9811C238.944 13.4618 238.814 13.8322 238.554 14.0921C238.307 14.3389 237.95 14.4624 237.482 14.4624C237.014 14.4624 236.651 14.3389 236.391 14.0921C236.144 13.8322 236.02 13.4618 236.02 12.9811ZM241.198 12.9811C241.198 12.5003 241.321 12.1365 241.568 11.8896C241.828 11.6297 242.192 11.4997 242.659 11.4997C243.127 11.4997 243.485 11.6297 243.731 11.8896C243.991 12.1365 244.121 12.5003 244.121 12.9811C244.121 13.4618 243.991 13.8322 243.731 14.0921C243.485 14.3389 243.127 14.4624 242.659 14.4624C242.192 14.4624 241.828 14.3389 241.568 14.0921C241.321 13.8322 241.198 13.4618 241.198 12.9811ZM246.375 12.9811C246.375 12.5003 246.498 12.1365 246.745 11.8896C247.005 11.6297 247.369 11.4997 247.837 11.4997C248.305 11.4997 248.662 11.6297 248.909 11.8896C249.169 12.1365 249.299 12.5003 249.299 12.9811C249.299 13.4618 249.169 13.8322 248.909 14.0921C248.662 14.3389 248.305 14.4624 247.837 14.4624C247.369 14.4624 247.005 14.3389 246.745 14.0921C246.498 13.8322 246.375 13.4618 246.375 12.9811Z" fill="#AAAAAA"/>
</svg>
