<svg width="358" height="97" viewBox="0 0 358 97" fill="none" xmlns="http://www.w3.org/2000/svg">
<path d="M18.9879 51.645V18.0348H6.35249V77H17.0505L40.6365 40.1046V77H53.2719V18.0348H40.6365L18.9879 51.645Z" fill="white"/>
<path d="M55.3929 32.3055H55.4085V64.7968H66.9486C70.1494 64.7968 73.0978 64.0394 75.7933 62.5233C78.545 60.9509 80.7072 58.8443 82.2796 56.205C83.852 53.5656 84.638 50.6451 84.638 47.4442C84.638 44.2434 83.852 41.2949 82.2796 38.5995C80.7072 35.9041 78.5449 33.7705 75.7933 32.1981C73.1557 30.6595 70.2762 29.8757 67.1546 29.8427V17.8788C72.5783 17.9113 77.5643 19.2304 82.1117 21.8368C86.7726 24.42 90.4504 27.9864 93.1458 32.535C95.8975 37.0276 97.2738 42.0258 97.2738 47.5292C97.2737 53.0325 95.9263 58.0308 93.2308 62.5233C90.5353 66.9597 86.8566 70.4694 82.1956 73.0526C77.5346 75.5797 72.452 76.8427 66.9486 76.8427H42.7728V17.8778H55.3929V32.3055Z" fill="white"/>
<path d="M9.11298 39.0004V34.3937H17.3339V39.0004H9.11298ZM10.6689 37.6404H15.7779V35.7536H10.6689V37.6404ZM15.7412 33.8914V27.4592H17.3339V33.8914H15.7412ZM6.73614 32.7152C7.14453 32.5192 7.52842 32.2946 7.8878 32.0414C8.25535 31.7882 8.61065 31.4941 8.9537 31.1592C9.30492 30.8162 9.58263 30.4282 9.78682 29.9953C9.99102 29.5543 10.0931 29.101 10.0931 28.6354V27.7655H11.6368V28.6109C11.6368 29.0601 11.743 29.5012 11.9554 29.9341C12.1759 30.3588 12.4618 30.7345 12.813 31.0612C13.1642 31.3798 13.5032 31.6534 13.8299 31.8821C14.1648 32.1026 14.4997 32.2946 14.8345 32.4579L13.9279 33.5238C13.4378 33.3033 12.8824 32.9439 12.2617 32.4457C11.6409 31.9393 11.1794 31.441 10.8772 30.951C10.5668 31.49 10.1095 32.0209 9.50503 32.5437C8.90061 33.0583 8.29211 33.4667 7.67952 33.7689L6.73614 32.7152Z" fill="black"/>
<path d="M9.2722 53.896V50.392H10.8282V52.5483H17.6156V53.896H9.2722ZM15.7166 51.0781V42.5141H17.2971V51.0781H15.7166ZM7.76524 49.4609V43.0777H9.28445V44.9522H12.2739V43.0777H13.7931V49.4609H7.76524ZM9.28445 48.1622H12.2739V46.2387H9.28445V48.1622Z" fill="black"/>
<path d="M15.8146 69.2571V57.569H17.4196V69.2571H15.8146ZM7.12815 65.2998V63.9644H8.42683C11.2366 63.9644 13.5971 63.8378 15.5083 63.5846V64.8832C14.5119 65.0384 13.3112 65.1487 11.9063 65.214V69.0243H10.3136V65.2631C9.78269 65.2876 9.14969 65.2998 8.41458 65.2998H7.12815ZM7.96127 60.3746C7.96127 59.615 8.26348 59.0065 8.8679 58.5491C9.48048 58.0917 10.2605 57.863 11.208 57.863C12.1473 57.863 12.9232 58.0917 13.5358 58.5491C14.1566 59.0065 14.4669 59.615 14.4669 60.3746C14.4669 61.1424 14.1606 61.755 13.5481 62.2124C12.9355 62.6616 12.1554 62.8862 11.208 62.8862C10.2605 62.8862 9.48048 62.6616 8.8679 62.2124C8.26348 61.755 7.96127 61.1424 7.96127 60.3746ZM9.54174 60.3746C9.54174 60.7667 9.69693 61.0852 10.0073 61.3302C10.3259 61.5671 10.7261 61.6855 11.208 61.6855C11.698 61.6855 12.0983 61.5671 12.4086 61.3302C12.7272 61.0852 12.8865 60.7667 12.8865 60.3746C12.8865 59.9907 12.7272 59.6763 12.4086 59.4312C12.0901 59.178 11.6899 59.0514 11.208 59.0514C10.7342 59.0514 10.3381 59.178 10.0196 59.4312C9.70101 59.6763 9.54174 59.9907 9.54174 60.3746Z" fill="black"/>
<path d="M121.157 39.6998H124.073V49.2038H121.157V39.6998ZM112.661 49.8698H124.073V56.4218H112.661V49.8698ZM121.229 52.1378H115.505V54.1538H121.229V52.1378ZM113.651 40.2938H116.045V41.8958C116.045 42.9398 115.883 43.9418 115.559 44.9018C115.235 45.8618 114.713 46.7018 113.993 47.4218C113.273 48.1298 112.319 48.6518 111.131 48.9878L109.745 46.7198C110.489 46.5038 111.113 46.2218 111.617 45.8738C112.121 45.5138 112.523 45.1178 112.823 44.6858C113.123 44.2538 113.333 43.7978 113.453 43.3178C113.585 42.8378 113.651 42.3638 113.651 41.8958V40.2938ZM114.263 40.2938H116.621V41.8958C116.621 42.3638 116.681 42.8258 116.801 43.2818C116.933 43.7378 117.137 44.1698 117.413 44.5778C117.701 44.9858 118.085 45.3518 118.565 45.6758C119.057 45.9878 119.663 46.2458 120.383 46.4498L118.997 48.6998C118.133 48.4598 117.401 48.1178 116.801 47.6738C116.201 47.2298 115.709 46.7078 115.325 46.1078C114.953 45.5078 114.683 44.8538 114.515 44.1458C114.347 43.4258 114.263 42.6758 114.263 41.8958V40.2938ZM131.938 40.2938C132.802 40.2938 133.57 40.4558 134.242 40.7798C134.926 41.0918 135.46 41.5238 135.844 42.0758C136.24 42.6278 136.438 43.2638 136.438 43.9838C136.438 44.6918 136.24 45.3218 135.844 45.8738C135.46 46.4258 134.926 46.8638 134.242 47.1878C133.57 47.4998 132.802 47.6558 131.938 47.6558C131.086 47.6558 130.318 47.4998 129.634 47.1878C128.962 46.8638 128.428 46.4258 128.032 45.8738C127.648 45.3218 127.456 44.6918 127.456 43.9838C127.456 43.2638 127.648 42.6278 128.032 42.0758C128.428 41.5238 128.962 41.0918 129.634 40.7798C130.318 40.4558 131.086 40.2938 131.938 40.2938ZM131.938 42.6338C131.614 42.6338 131.32 42.6818 131.056 42.7778C130.804 42.8738 130.6 43.0238 130.444 43.2278C130.3 43.4198 130.228 43.6718 130.228 43.9838C130.228 44.2838 130.3 44.5298 130.444 44.7218C130.6 44.9138 130.804 45.0578 131.056 45.1538C131.32 45.2498 131.614 45.2978 131.938 45.2978C132.274 45.2978 132.568 45.2498 132.82 45.1538C133.084 45.0578 133.288 44.9138 133.432 44.7218C133.588 44.5298 133.666 44.2838 133.666 43.9838C133.666 43.6718 133.588 43.4198 133.432 43.2278C133.288 43.0238 133.084 42.8738 132.82 42.7778C132.568 42.6818 132.274 42.6338 131.938 42.6338ZM130.552 49.2398H133.468V56.0618H130.552V49.2398ZM137.896 39.6818H140.794V56.5658H137.896V39.6818ZM126.916 50.7518L126.592 48.4298C127.54 48.4298 128.602 48.4238 129.778 48.4118C130.966 48.3878 132.184 48.3338 133.432 48.2498C134.692 48.1658 135.904 48.0338 137.068 47.8538L137.248 49.9598C136.06 50.2118 134.848 50.3918 133.612 50.4998C132.388 50.6078 131.2 50.6738 130.048 50.6978C128.908 50.7218 127.864 50.7398 126.916 50.7518ZM143.889 40.8878H146.751V43.0838H149.379V40.8878H152.259V49.5818H143.889V40.8878ZM146.751 45.2798V47.3138H149.379V45.2798H146.751ZM154.275 39.6998H157.191V52.0658H154.275V39.6998ZM145.725 54.0278H157.569V56.3318H145.725V54.0278ZM145.725 50.8598H148.623V55.3418H145.725V50.8598ZM166.385 56.3138H164.711V41.4278H166.385V56.3138ZM177.574 55.1078C176.326 55.1078 175.276 54.8318 174.424 54.2798C173.584 53.7278 172.99 52.9778 172.642 52.0298L174.928 50.6978C175.168 51.2978 175.504 51.7418 175.936 52.0298C176.38 52.3178 176.95 52.4618 177.646 52.4618C178.21 52.4618 178.642 52.3298 178.942 52.0658C179.254 51.8018 179.41 51.5078 179.41 51.1838C179.41 50.9438 179.338 50.7398 179.194 50.5718C179.05 50.4038 178.804 50.2478 178.456 50.1038C178.108 49.9478 177.604 49.7738 176.944 49.5818C175.792 49.2458 174.874 48.7898 174.19 48.2138C173.506 47.6378 173.164 46.8158 173.164 45.7478C173.164 44.9918 173.35 44.3378 173.722 43.7858C174.106 43.2218 174.61 42.7898 175.234 42.4898C175.87 42.1898 176.554 42.0398 177.286 42.0398C178.306 42.0398 179.2 42.2858 179.968 42.7778C180.736 43.2578 181.336 43.9418 181.768 44.8298L179.428 46.1618C179.2 45.6578 178.912 45.2918 178.564 45.0638C178.216 44.8238 177.79 44.7038 177.286 44.7038C176.902 44.7038 176.572 44.8118 176.296 45.0278C176.02 45.2318 175.882 45.4718 175.882 45.7478C175.882 45.9758 175.936 46.1738 176.044 46.3418C176.164 46.4978 176.374 46.6478 176.674 46.7918C176.986 46.9358 177.442 47.0978 178.042 47.2778C178.846 47.5298 179.536 47.8118 180.112 48.1238C180.7 48.4238 181.18 48.8378 181.552 49.3658C181.936 49.8938 182.128 50.5538 182.128 51.3458C182.128 52.1018 181.93 52.7678 181.534 53.3438C181.138 53.9078 180.592 54.3458 179.896 54.6578C179.212 54.9578 178.438 55.1078 177.574 55.1078ZM183.469 54.8738V42.2738H186.187V54.8738H183.469ZM198.411 42.2918V42.2738H201.111V54.8738H198.411V47.2418L195.207 52.6058H194.541L191.319 47.2238V54.8738H188.619V42.2738H191.319V42.2918L191.355 42.2738L194.865 48.1778L198.375 42.2738L198.411 42.2918ZM219.74 50.5178L221.9 42.2738H224.708L221.252 54.8738H218.354L215.978 46.9178L213.584 54.8738H210.686L207.23 42.2738H210.038L212.198 50.5178L214.556 42.2738H217.382L219.74 50.5178ZM228.321 49.7438V52.2998H233.433V54.8738H225.621V42.2738H233.325V44.8298H228.321V47.1698H232.893V49.7438H228.321ZM235.254 54.8738V42.2738H237.972V54.8738H235.254ZM253.344 48.1238C253.728 48.4838 254.028 48.9098 254.244 49.4018C254.46 49.8938 254.568 50.4158 254.568 50.9678C254.568 51.6638 254.4 52.3118 254.064 52.9118C253.728 53.5118 253.272 53.9858 252.696 54.3338C252.132 54.6818 251.514 54.8558 250.842 54.8558H247.71V54.8738H245.01V42.2738H250.554C251.19 42.2738 251.778 42.4418 252.318 42.7778C252.858 43.1018 253.284 43.5458 253.596 44.1098C253.92 44.6618 254.082 45.2558 254.082 45.8918C254.082 46.2878 254.016 46.6838 253.884 47.0798C253.764 47.4638 253.584 47.8118 253.344 48.1238ZM247.71 44.8478V47.1698L250.554 47.1518C250.818 47.1518 251.058 47.0438 251.274 46.8278C251.49 46.5998 251.598 46.3238 251.598 45.9998C251.598 45.6638 251.49 45.3878 251.274 45.1718C251.058 44.9558 250.818 44.8478 250.554 44.8478H247.71ZM250.842 52.2818C251.154 52.2818 251.424 52.1498 251.652 51.8858C251.88 51.6218 251.994 51.3098 251.994 50.9498C251.994 50.5898 251.88 50.2778 251.652 50.0138C251.424 49.7498 251.154 49.6178 250.842 49.6178H247.71V52.2818H250.842ZM255.926 54.8738V42.2738H258.644V54.8738H255.926ZM268.402 49.4558V42.2738H271.102V54.8738H268.816L263.776 46.9898V54.8738H261.076V42.2738H263.776L268.402 49.4558ZM289.232 54.8738H286.352L285.47 52.4978H280.808L279.926 54.8738H277.028L281.69 42.2738H284.588L289.232 54.8738ZM283.148 46.1978L281.744 49.9418H284.534L283.148 46.1978ZM297.617 49.4558V42.2738H300.317V54.8738H298.031L292.991 46.9898V54.8738H290.291V42.2738H292.991L297.617 49.4558ZM307.937 42.2738C309.113 42.2738 310.193 42.5558 311.177 43.1198C312.173 43.6718 312.959 44.4338 313.535 45.4058C314.123 46.3658 314.417 47.4338 314.417 48.6098C314.417 49.7858 314.129 50.8538 313.553 51.8138C312.977 52.7618 312.191 53.5118 311.195 54.0638C310.199 54.6038 309.113 54.8738 307.937 54.8738H302.771V42.2738H307.937ZM307.937 52.2998C308.621 52.2998 309.251 52.1378 309.827 51.8138C310.415 51.4778 310.877 51.0278 311.213 50.4638C311.549 49.8998 311.717 49.2758 311.717 48.5918C311.717 47.9078 311.549 47.2778 311.213 46.7018C310.877 46.1258 310.415 45.6698 309.827 45.3338C309.251 44.9978 308.621 44.8298 307.937 44.8298H305.471V52.2998H307.937ZM319.352 47.3318L322.16 42.2738H325.238L320.702 50.4998V54.8738H318.002V50.4998L313.484 42.2738H316.544L319.352 47.3318Z" fill="#EAEAEA"/>
</svg>
