<svg width="266" height="30" viewBox="0 0 266 30" fill="none" xmlns="http://www.w3.org/2000/svg">
<path d="M8.35198 0.44799C9.71731 0.44799 10.9653 0.778657 12.096 1.43999C13.2266 2.10132 14.1226 3.00799 14.784 4.15999C15.4666 5.29066 15.808 6.53866 15.808 7.90399C15.808 9.24799 15.4666 10.496 14.784 11.648C14.1226 12.7787 13.216 13.6853 12.064 14.368C10.9333 15.0293 9.69598 15.36 8.35198 15.36H4.79997V22.848H-2.52724e-05V0.44799H8.35198ZM8.35198 10.784C9.14131 10.784 9.81331 10.5067 10.368 9.95199C10.944 9.37599 11.232 8.69333 11.232 7.90399C11.232 7.09333 10.9546 6.41066 10.4 5.85599C9.84531 5.30132 9.16264 5.02399 8.35198 5.02399H4.79997V10.784H8.35198ZM24.9225 6.43199C26.4798 6.43199 27.8665 6.80532 29.0825 7.55199C30.3198 8.29866 31.2798 9.31199 31.9625 10.592C32.6451 11.872 32.9865 13.2907 32.9865 14.848C32.9865 15.4453 32.9438 15.9893 32.8585 16.48H21.0185C21.4238 17.4613 21.9678 18.1973 22.6505 18.688C23.3331 19.1573 24.2185 19.392 25.3065 19.392C25.9678 19.392 26.6078 19.2533 27.2265 18.976C27.8665 18.6987 28.3678 18.3253 28.7305 17.856L32.1865 19.904C31.4398 20.992 30.4691 21.824 29.2745 22.4C28.1011 22.976 26.7465 23.264 25.2105 23.264C23.4825 23.264 21.9571 22.9013 20.6345 22.176C19.3118 21.4293 18.2878 20.416 17.5625 19.136C16.8371 17.856 16.4745 16.4267 16.4745 14.848C16.4745 13.2693 16.8265 11.84 17.5305 10.56C18.2558 9.27999 19.2585 8.27732 20.5385 7.55199C21.8185 6.80532 23.2798 6.43199 24.9225 6.43199ZM28.6985 12.928C28.5491 12.1173 28.1225 11.488 27.4185 11.04C26.7358 10.592 25.8931 10.368 24.8905 10.368C23.8451 10.368 22.9385 10.624 22.1705 11.136C21.4025 11.6267 20.9971 12.224 20.9545 12.928H28.6985ZM45.4177 6.52799L45.0977 10.848C44.9484 10.784 44.7031 10.752 44.3617 10.752C43.0604 10.752 41.9937 11.1253 41.1617 11.872C40.3511 12.5973 39.9457 13.5573 39.9457 14.752V22.848H35.3697V6.84799H39.9457V9.43999C40.3297 8.60799 40.9484 7.91466 41.8017 7.35999C42.6551 6.80532 43.6897 6.52799 44.9057 6.52799H45.4177ZM51.2782 11.392C51.2782 11.7547 51.5022 12.032 51.9502 12.224C52.3982 12.3947 53.1129 12.576 54.0942 12.768C55.3529 13.024 56.3982 13.312 57.2302 13.632C58.0622 13.9307 58.7876 14.4427 59.4062 15.168C60.0462 15.872 60.3662 16.8533 60.3662 18.112C60.3662 19.2 60.0356 20.1387 59.3742 20.928C58.7129 21.696 57.8382 22.2827 56.7502 22.688C55.6622 23.072 54.4889 23.264 53.2302 23.264C51.5022 23.264 50.0302 22.9547 48.8142 22.336C47.5982 21.696 46.6809 20.7573 46.0622 19.52L49.8062 17.6C50.3182 18.9653 51.4596 19.648 53.2302 19.648C53.9556 19.648 54.5849 19.52 55.1182 19.264C55.6729 18.9867 55.9502 18.6027 55.9502 18.112C55.9502 17.6853 55.6942 17.3653 55.1822 17.152C54.6916 16.9387 53.9022 16.7147 52.8142 16.48C51.5769 16.2027 50.5422 15.9147 49.7102 15.616C48.8782 15.296 48.1636 14.816 47.5662 14.176C46.9689 13.5147 46.6702 12.64 46.6702 11.552C46.6702 10.5067 46.9689 9.59999 47.5662 8.83199C48.1636 8.04266 48.9636 7.44532 49.9662 7.03999C50.9902 6.63466 52.0996 6.43199 53.2942 6.43199C54.7022 6.43199 55.9716 6.71999 57.1022 7.29599C58.2329 7.87199 59.1182 8.70399 59.7582 9.79199L56.0462 11.616C55.7902 11.0827 55.4382 10.688 54.9902 10.432C54.5636 10.176 53.9982 10.048 53.2942 10.048C52.6756 10.048 52.1849 10.176 51.8222 10.432C51.4596 10.6667 51.2782 10.9867 51.2782 11.392ZM70.235 23.328C68.699 23.328 67.2803 22.9547 65.979 22.208C64.699 21.44 63.675 20.4053 62.907 19.104C62.1603 17.8027 61.787 16.3947 61.787 14.88C61.787 13.344 62.1603 11.936 62.907 10.656C63.675 9.35466 64.699 8.33066 65.979 7.58399C67.2803 6.81599 68.699 6.43199 70.235 6.43199C71.7496 6.43199 73.147 6.81599 74.427 7.58399C75.7283 8.33066 76.7523 9.35466 77.499 10.656C78.267 11.936 78.651 13.344 78.651 14.88C78.651 16.3947 78.267 17.8027 77.499 19.104C76.7523 20.4053 75.7283 21.44 74.427 22.208C73.147 22.9547 71.7496 23.328 70.235 23.328ZM70.203 18.752C71.2696 18.752 72.187 18.3787 72.955 17.632C73.723 16.864 74.107 15.9467 74.107 14.88C74.107 13.8133 73.723 12.896 72.955 12.128C72.187 11.36 71.2696 10.976 70.203 10.976C69.1363 10.976 68.219 11.36 67.451 12.128C66.7043 12.896 66.331 13.8133 66.331 14.88C66.331 15.9467 66.7043 16.864 67.451 17.632C68.219 18.3787 69.1363 18.752 70.203 18.752ZM89.5052 6.39999C90.4439 6.39999 91.3932 6.60266 92.3532 7.00799C93.3132 7.41332 94.1346 8.12799 94.8172 9.15199C95.4999 10.176 95.8412 11.552 95.8412 13.28V22.848H91.2652V13.28C91.2652 12.256 90.9772 11.52 90.4012 11.072C89.8466 10.624 89.1746 10.4 88.3852 10.4C87.5959 10.4 86.9346 10.6773 86.4012 11.232C85.8892 11.7867 85.6332 12.672 85.6332 13.888V22.848H81.0572V6.84799H85.6332V7.93599C86.8492 6.91199 88.1399 6.39999 89.5052 6.39999ZM111.062 6.84799H115.606V22.848H111.062V21.632C110.358 22.1653 109.58 22.5707 108.726 22.848C107.894 23.1467 107.052 23.296 106.198 23.296C104.534 23.296 103.094 22.9333 101.878 22.208C100.684 21.4827 99.7665 20.4907 99.1265 19.232C98.4865 17.952 98.1665 16.5013 98.1665 14.88C98.1665 13.2587 98.4865 11.808 99.1265 10.528C99.7665 9.22666 100.684 8.21332 101.878 7.48799C103.094 6.76266 104.534 6.39999 106.198 6.39999C107.073 6.39999 107.926 6.54933 108.758 6.84799C109.59 7.14666 110.358 7.56266 111.062 8.09599V6.84799ZM106.806 18.944C108.001 18.944 109.004 18.56 109.814 17.792C110.625 17.024 111.03 16.032 111.03 14.816C111.03 13.6427 110.625 12.6827 109.814 11.936C109.004 11.1893 108.001 10.816 106.806 10.816C105.612 10.816 104.63 11.1893 103.862 11.936C103.094 12.6827 102.71 13.664 102.71 14.88C102.71 16.096 103.094 17.0773 103.862 17.824C104.63 18.5707 105.612 18.944 106.806 18.944ZM123.664 17.792C123.664 18.1333 123.739 18.3787 123.888 18.528C124.059 18.6773 124.336 18.752 124.72 18.752C124.998 18.752 125.328 18.72 125.712 18.656V22.848C124.667 22.9973 123.856 23.072 123.28 23.072C121.894 23.072 120.848 22.7093 120.144 21.984C119.44 21.2373 119.088 19.936 119.088 18.08V0.44799H123.664V17.792ZM145.383 0.44799C146.749 0.44799 147.997 0.778657 149.127 1.43999C150.258 2.10132 151.154 3.00799 151.815 4.15999C152.498 5.29066 152.839 6.53866 152.839 7.90399C152.839 9.24799 152.498 10.496 151.815 11.648C151.154 12.7787 150.247 13.6853 149.095 14.368C147.965 15.0293 146.727 15.36 145.383 15.36H141.831V22.848H137.031V0.44799H145.383ZM145.383 10.784C146.173 10.784 146.845 10.5067 147.399 9.95199C147.975 9.37599 148.263 8.69333 148.263 7.90399C148.263 7.09333 147.986 6.41066 147.431 5.85599C146.877 5.30132 146.194 5.02399 145.383 5.02399H141.831V10.784H145.383ZM165.605 6.52799L165.285 10.848C165.136 10.784 164.891 10.752 164.549 10.752C163.248 10.752 162.181 11.1253 161.349 11.872C160.539 12.5973 160.133 13.5573 160.133 14.752V22.848H155.557V6.84799H160.133V9.43999C160.517 8.60799 161.136 7.91466 161.989 7.35999C162.843 6.80532 163.877 6.52799 165.093 6.52799H165.605ZM174.766 23.328C173.23 23.328 171.812 22.9547 170.51 22.208C169.23 21.44 168.206 20.4053 167.438 19.104C166.692 17.8027 166.318 16.3947 166.318 14.88C166.318 13.344 166.692 11.936 167.438 10.656C168.206 9.35466 169.23 8.33066 170.51 7.58399C171.812 6.81599 173.23 6.43199 174.766 6.43199C176.281 6.43199 177.678 6.81599 178.958 7.58399C180.26 8.33066 181.284 9.35466 182.03 10.656C182.798 11.936 183.182 13.344 183.182 14.88C183.182 16.3947 182.798 17.8027 182.03 19.104C181.284 20.4053 180.26 21.44 178.958 22.208C177.678 22.9547 176.281 23.328 174.766 23.328ZM174.734 18.752C175.801 18.752 176.718 18.3787 177.486 17.632C178.254 16.864 178.638 15.9467 178.638 14.88C178.638 13.8133 178.254 12.896 177.486 12.128C176.718 11.36 175.801 10.976 174.734 10.976C173.668 10.976 172.75 11.36 171.982 12.128C171.236 12.896 170.862 13.8133 170.862 14.88C170.862 15.9467 171.236 16.864 171.982 17.632C172.75 18.3787 173.668 18.752 174.734 18.752ZM188.189 5.15199C187.335 5.15199 186.663 4.92799 186.173 4.47999C185.703 4.01066 185.469 3.38132 185.469 2.59199C185.469 1.78133 185.703 1.15199 186.173 0.703991C186.663 0.234657 187.335 -9.53674e-06 188.189 -9.53674e-06C189.021 -9.53674e-06 189.682 0.234657 190.173 0.703991C190.663 1.17332 190.909 1.80266 190.909 2.59199C190.909 3.38132 190.663 4.01066 190.173 4.47999C189.682 4.92799 189.021 5.15199 188.189 5.15199ZM185.917 6.84799H190.461V23.296C190.461 24.6827 190.141 25.8773 189.501 26.88C188.861 27.8827 187.965 28.6187 186.813 29.088C185.661 29.5787 184.349 29.7707 182.877 29.664V25.28C183.047 25.3013 183.293 25.312 183.613 25.312C184.423 25.312 185.01 25.152 185.373 24.832C185.735 24.5333 185.917 24.0213 185.917 23.296V6.84799ZM201.297 6.43199C202.855 6.43199 204.241 6.80532 205.457 7.55199C206.695 8.29866 207.655 9.31199 208.337 10.592C209.02 11.872 209.361 13.2907 209.361 14.848C209.361 15.4453 209.319 15.9893 209.233 16.48H197.393C197.799 17.4613 198.343 18.1973 199.025 18.688C199.708 19.1573 200.593 19.392 201.681 19.392C202.343 19.392 202.983 19.2533 203.601 18.976C204.241 18.6987 204.743 18.3253 205.105 17.856L208.561 19.904C207.815 20.992 206.844 21.824 205.649 22.4C204.476 22.976 203.121 23.264 201.585 23.264C199.857 23.264 198.332 22.9013 197.009 22.176C195.687 21.4293 194.663 20.416 193.937 19.136C193.212 17.856 192.849 16.4267 192.849 14.848C192.849 13.2693 193.201 11.84 193.905 10.56C194.631 9.27999 195.633 8.27732 196.913 7.55199C198.193 6.80532 199.655 6.43199 201.297 6.43199ZM205.073 12.928C204.924 12.1173 204.497 11.488 203.793 11.04C203.111 10.592 202.268 10.368 201.265 10.368C200.22 10.368 199.313 10.624 198.545 11.136C197.777 11.6267 197.372 12.224 197.329 12.928H205.073ZM226.209 19.712C225.419 20.8213 224.417 21.7067 223.201 22.368C222.006 23.008 220.715 23.328 219.329 23.328C217.793 23.328 216.374 22.9547 215.073 22.208C213.793 21.44 212.769 20.4053 212.001 19.104C211.254 17.8027 210.881 16.3947 210.881 14.88C210.881 13.344 211.254 11.936 212.001 10.656C212.769 9.35466 213.793 8.33066 215.073 7.58399C216.374 6.81599 217.793 6.43199 219.329 6.43199C220.715 6.43199 222.006 6.75199 223.201 7.39199C224.395 8.03199 225.387 8.89599 226.177 9.98399L222.401 12.48C221.505 11.4773 220.481 10.976 219.329 10.976C218.262 10.976 217.345 11.36 216.577 12.128C215.809 12.896 215.425 13.8133 215.425 14.88C215.425 15.9467 215.809 16.864 216.577 17.632C217.345 18.3787 218.262 18.752 219.329 18.752C220.481 18.752 221.505 18.2507 222.401 17.248L226.209 19.712ZM234.478 17.152C234.478 17.7493 234.638 18.1653 234.958 18.4C235.299 18.6347 235.811 18.752 236.494 18.752C236.921 18.752 237.39 18.72 237.902 18.656V22.848C236.835 22.9547 235.95 23.008 235.246 23.008C233.454 23.008 232.11 22.6133 231.214 21.824C230.339 21.0133 229.902 19.552 229.902 17.44V10.912H227.15V6.84799H229.902V3.13599L234.478 1.59999V6.84799H237.838V10.912H234.478V17.152ZM244.22 25.104C243.02 23.84 242.06 22.24 241.34 20.304C240.636 18.368 240.284 16.432 240.284 14.496C240.284 12.56 240.636 10.624 241.34 8.68799C242.06 6.73599 243.02 5.13599 244.22 3.88799L246.356 5.51999C245.508 7.03999 244.892 8.49599 244.508 9.88799C244.14 11.264 243.956 12.8 243.956 14.496C243.956 16.192 244.14 17.736 244.508 19.128C244.892 20.52 245.508 21.952 246.356 23.424L244.22 25.104ZM251.313 14.256C251.313 14.528 251.481 14.736 251.817 14.88C252.153 15.008 252.689 15.144 253.425 15.288C254.369 15.48 255.153 15.696 255.777 15.936C256.401 16.16 256.945 16.544 257.409 17.088C257.889 17.616 258.129 18.352 258.129 19.296C258.129 20.112 257.881 20.816 257.385 21.408C256.889 21.984 256.233 22.424 255.417 22.728C254.601 23.016 253.721 23.16 252.777 23.16C251.481 23.16 250.377 22.928 249.465 22.464C248.553 21.984 247.865 21.28 247.401 20.352L250.209 18.912C250.593 19.936 251.449 20.448 252.777 20.448C253.321 20.448 253.793 20.352 254.193 20.16C254.609 19.952 254.817 19.664 254.817 19.296C254.817 18.976 254.625 18.736 254.241 18.576C253.873 18.416 253.281 18.248 252.465 18.072C251.537 17.864 250.761 17.648 250.137 17.424C249.513 17.184 248.977 16.824 248.529 16.344C248.081 15.848 247.857 15.192 247.857 14.376C247.857 13.592 248.081 12.912 248.529 12.336C248.977 11.744 249.577 11.296 250.329 10.992C251.097 10.688 251.929 10.536 252.825 10.536C253.881 10.536 254.833 10.752 255.681 11.184C256.529 11.616 257.193 12.24 257.673 13.056L254.889 14.424C254.697 14.024 254.433 13.728 254.097 13.536C253.777 13.344 253.353 13.248 252.825 13.248C252.361 13.248 251.993 13.344 251.721 13.536C251.449 13.712 251.313 13.952 251.313 14.256ZM261.439 3.88799C262.639 5.13599 263.591 6.73599 264.295 8.68799C265.015 10.624 265.375 12.56 265.375 14.496C265.375 16.432 265.015 18.368 264.295 20.304C263.591 22.24 262.639 23.84 261.439 25.104L259.303 23.424C260.151 21.952 260.759 20.52 261.127 19.128C261.511 17.736 261.703 16.192 261.703 14.496C261.703 12.8 261.511 11.264 261.127 9.88799C260.759 8.49599 260.151 7.03999 259.303 5.51999L261.439 3.88799Z" fill="white"/>
</svg>
