<svg width="813" height="132" viewBox="0 0 813 132" fill="none" xmlns="http://www.w3.org/2000/svg">
<path d="M117.868 124L115.335 119.439H113.249V124H110.325V110.356H115.958C116.79 110.356 117.55 110.558 118.239 110.96C118.94 111.363 119.493 111.916 119.896 112.617C120.311 113.306 120.519 114.066 120.519 114.898C120.519 115.716 120.318 116.47 119.915 117.159C119.525 117.847 118.992 118.393 118.317 118.796L121.24 124H117.868ZM113.249 113.143V116.652H115.958C116.439 116.652 116.855 116.483 117.206 116.145C117.557 115.794 117.732 115.378 117.732 114.898C117.732 114.417 117.557 114.008 117.206 113.67C116.868 113.319 116.452 113.143 115.958 113.143H113.249ZM126.533 114.001C127.482 114.001 128.327 114.228 129.067 114.683C129.821 115.138 130.406 115.755 130.821 116.535C131.237 117.315 131.445 118.179 131.445 119.127C131.445 119.491 131.419 119.822 131.367 120.121H124.156C124.402 120.719 124.734 121.167 125.15 121.466C125.565 121.752 126.105 121.895 126.767 121.895C127.17 121.895 127.56 121.811 127.937 121.642C128.327 121.473 128.632 121.245 128.853 120.959L130.958 122.207C130.503 122.87 129.912 123.376 129.184 123.727C128.47 124.078 127.644 124.253 126.709 124.253C125.656 124.253 124.727 124.032 123.922 123.591C123.116 123.136 122.492 122.519 122.051 121.739C121.609 120.959 121.388 120.089 121.388 119.127C121.388 118.166 121.602 117.295 122.031 116.515C122.473 115.736 123.084 115.125 123.863 114.683C124.643 114.228 125.533 114.001 126.533 114.001ZM128.833 117.958C128.742 117.464 128.483 117.081 128.054 116.808C127.638 116.535 127.125 116.398 126.514 116.398C125.877 116.398 125.325 116.554 124.857 116.866C124.389 117.165 124.143 117.529 124.117 117.958H128.833ZM144.163 113.982C144.734 113.982 145.313 114.105 145.897 114.352C146.482 114.599 146.982 115.034 147.398 115.658C147.814 116.282 148.022 117.12 148.022 118.172V124H145.254V118.172C145.254 117.548 145.079 117.1 144.728 116.827C144.377 116.554 143.961 116.418 143.481 116.418C143.078 116.418 142.727 116.541 142.428 116.788C142.142 117.022 141.954 117.393 141.863 117.899V118.172V124H139.076V118.172C139.076 117.548 138.9 117.1 138.549 116.827C138.198 116.554 137.783 116.418 137.302 116.418C136.899 116.418 136.548 116.541 136.249 116.788C135.95 117.035 135.762 117.432 135.684 117.977V124H132.897V114.254H135.684V114.878C136.399 114.28 137.172 113.982 138.004 113.982C138.575 113.982 139.153 114.105 139.738 114.352C140.336 114.599 140.823 115.008 141.2 115.58C141.538 115.125 141.967 114.748 142.486 114.449C143.006 114.138 143.565 113.982 144.163 113.982ZM157.112 114.254H159.879V124H157.112V123.259C156.683 123.584 156.209 123.831 155.689 124C155.182 124.182 154.669 124.273 154.149 124.273C153.135 124.273 152.258 124.052 151.518 123.61C150.79 123.168 150.231 122.564 149.841 121.798C149.452 121.018 149.257 120.134 149.257 119.147C149.257 118.159 149.452 117.276 149.841 116.496C150.231 115.703 150.79 115.086 151.518 114.644C152.258 114.202 153.135 113.982 154.149 113.982C154.682 113.982 155.202 114.073 155.708 114.254C156.215 114.436 156.683 114.69 157.112 115.015V114.254ZM154.519 121.622C155.247 121.622 155.858 121.388 156.351 120.92C156.845 120.453 157.092 119.848 157.092 119.108C157.092 118.393 156.845 117.808 156.351 117.354C155.858 116.899 155.247 116.671 154.519 116.671C153.792 116.671 153.194 116.899 152.726 117.354C152.258 117.808 152.024 118.406 152.024 119.147C152.024 119.887 152.258 120.485 152.726 120.94C153.194 121.395 153.792 121.622 154.519 121.622ZM168.387 114.06L168.192 116.691C168.101 116.652 167.952 116.632 167.744 116.632C166.951 116.632 166.301 116.86 165.795 117.315C165.301 117.756 165.054 118.341 165.054 119.069V124H162.267V114.254H165.054V115.833C165.288 115.326 165.665 114.904 166.184 114.566C166.704 114.228 167.334 114.06 168.075 114.06H168.387ZM179.937 124H176.468L173.973 120.628L172.687 122.031V124H169.899V110.356H172.687V117.938L175.922 114.254H179.801L175.864 118.542L179.937 124ZM188.689 114.254H191.457V124H188.689V123.259C188.261 123.584 187.786 123.831 187.267 124C186.76 124.182 186.247 124.273 185.727 124.273C184.713 124.273 183.836 124.052 183.096 123.61C182.368 123.168 181.809 122.564 181.419 121.798C181.029 121.018 180.835 120.134 180.835 119.147C180.835 118.159 181.029 117.276 181.419 116.496C181.809 115.703 182.368 115.086 183.096 114.644C183.836 114.202 184.713 113.982 185.727 113.982C186.26 113.982 186.779 114.073 187.286 114.254C187.793 114.436 188.261 114.69 188.689 115.015V114.254ZM186.097 121.622C186.825 121.622 187.436 121.388 187.929 120.92C188.423 120.453 188.67 119.848 188.67 119.108C188.67 118.393 188.423 117.808 187.929 117.354C187.436 116.899 186.825 116.671 186.097 116.671C185.369 116.671 184.772 116.899 184.304 117.354C183.836 117.808 183.602 118.406 183.602 119.147C183.602 119.887 183.836 120.485 184.304 120.94C184.772 121.395 185.369 121.622 186.097 121.622ZM199.828 113.982C200.842 113.982 201.712 114.202 202.44 114.644C203.181 115.086 203.746 115.703 204.136 116.496C204.526 117.276 204.721 118.159 204.721 119.147C204.721 120.134 204.526 121.018 204.136 121.798C203.746 122.564 203.181 123.168 202.44 123.61C201.712 124.052 200.842 124.273 199.828 124.273C199.244 124.273 198.678 124.169 198.133 123.961C197.587 123.753 197.087 123.454 196.632 123.064V124H193.845V110.356H196.632V115.21C197.087 114.82 197.587 114.521 198.133 114.313C198.678 114.092 199.244 113.982 199.828 113.982ZM199.458 121.622C200.186 121.622 200.777 121.395 201.232 120.94C201.699 120.485 201.933 119.887 201.933 119.147C201.933 118.406 201.699 117.808 201.232 117.354C200.777 116.899 200.186 116.671 199.458 116.671C198.73 116.671 198.12 116.899 197.626 117.354C197.132 117.808 196.885 118.393 196.885 119.108C196.885 119.848 197.132 120.453 197.626 120.92C198.12 121.388 198.73 121.622 199.458 121.622ZM209.137 120.92C209.137 121.128 209.183 121.278 209.274 121.369C209.378 121.46 209.547 121.505 209.781 121.505C209.949 121.505 210.151 121.486 210.385 121.447V124C209.748 124.091 209.254 124.136 208.903 124.136C208.059 124.136 207.422 123.916 206.993 123.474C206.564 123.019 206.35 122.226 206.35 121.096V110.356H209.137V120.92ZM216.318 114.001C217.267 114.001 218.111 114.228 218.852 114.683C219.606 115.138 220.19 115.755 220.606 116.535C221.022 117.315 221.23 118.179 221.23 119.127C221.23 119.491 221.204 119.822 221.152 120.121H213.94C214.187 120.719 214.518 121.167 214.934 121.466C215.35 121.752 215.889 121.895 216.552 121.895C216.955 121.895 217.345 121.811 217.721 121.642C218.111 121.473 218.417 121.245 218.638 120.959L220.743 122.207C220.288 122.87 219.697 123.376 218.969 123.727C218.254 124.078 217.429 124.253 216.494 124.253C215.441 124.253 214.512 124.032 213.706 123.591C212.901 123.136 212.277 122.519 211.835 121.739C211.393 120.959 211.172 120.089 211.172 119.127C211.172 118.166 211.387 117.295 211.816 116.515C212.257 115.736 212.868 115.125 213.648 114.683C214.427 114.228 215.318 114.001 216.318 114.001ZM218.618 117.958C218.527 117.464 218.267 117.081 217.838 116.808C217.423 116.535 216.909 116.398 216.299 116.398C215.662 116.398 215.11 116.554 214.642 116.866C214.174 117.165 213.927 117.529 213.901 117.958H218.618ZM231.48 110.61H233.468L228.848 124.39H226.86L231.48 110.61ZM252.31 119.283L254.649 110.356H257.69L253.947 124H250.809L248.237 115.385L245.644 124H242.506L238.764 110.356H241.805L244.143 119.283L246.697 110.356H249.757L252.31 119.283ZM260.251 112.929C259.731 112.929 259.322 112.793 259.023 112.52C258.737 112.234 258.594 111.851 258.594 111.37C258.594 110.876 258.737 110.486 259.023 110.2C259.322 109.914 259.731 109.772 260.251 109.772C260.758 109.772 261.16 109.914 261.459 110.2C261.758 110.486 261.908 110.876 261.908 111.37C261.908 111.851 261.758 112.234 261.459 112.52C261.16 112.793 260.758 112.929 260.251 112.929ZM258.848 124V114.254H261.635V124H258.848ZM269.074 113.982C269.646 113.982 270.224 114.105 270.809 114.352C271.394 114.599 271.894 115.034 272.31 115.658C272.726 116.282 272.934 117.12 272.934 118.172V124H270.146V118.172C270.146 117.548 269.971 117.1 269.62 116.827C269.282 116.554 268.873 116.418 268.392 116.418C267.911 116.418 267.509 116.587 267.184 116.925C266.872 117.263 266.716 117.802 266.716 118.542V124H263.929V114.254H266.716V114.917C267.457 114.293 268.243 113.982 269.074 113.982ZM279.905 113.982C280.477 113.982 281.055 114.105 281.64 114.352C282.224 114.599 282.725 115.034 283.14 115.658C283.556 116.282 283.764 117.12 283.764 118.172V124H280.977V118.172C280.977 117.548 280.801 117.1 280.451 116.827C280.113 116.554 279.703 116.418 279.223 116.418C278.742 116.418 278.339 116.587 278.014 116.925C277.702 117.263 277.546 117.802 277.546 118.542V124H274.759V114.254H277.546V114.917C278.287 114.293 279.073 113.982 279.905 113.982ZM287.032 112.929C286.512 112.929 286.103 112.793 285.804 112.52C285.518 112.234 285.375 111.851 285.375 111.37C285.375 110.876 285.518 110.486 285.804 110.2C286.103 109.914 286.512 109.772 287.032 109.772C287.539 109.772 287.942 109.914 288.241 110.2C288.539 110.486 288.689 110.876 288.689 111.37C288.689 111.851 288.539 112.234 288.241 112.52C287.942 112.793 287.539 112.929 287.032 112.929ZM285.629 124V114.254H288.416V124H285.629ZM295.856 113.982C296.427 113.982 297.006 114.105 297.59 114.352C298.175 114.599 298.675 115.034 299.091 115.658C299.507 116.282 299.715 117.12 299.715 118.172V124H296.928V118.172C296.928 117.548 296.752 117.1 296.401 116.827C296.064 116.554 295.654 116.418 295.173 116.418C294.693 116.418 294.29 116.587 293.965 116.925C293.653 117.263 293.497 117.802 293.497 118.542V124H290.71V114.254H293.497V114.917C294.238 114.293 295.024 113.982 295.856 113.982ZM308.986 114.254H311.773V123.513C311.773 124.422 311.533 125.228 311.052 125.93C310.584 126.631 309.935 127.177 309.103 127.567C308.271 127.957 307.336 128.152 306.296 128.152C305.166 128.152 304.126 127.931 303.178 127.489C302.242 127.06 301.586 126.501 301.209 125.813L303.587 124.429C303.756 124.767 304.094 125.046 304.601 125.267C305.107 125.488 305.699 125.598 306.374 125.598C307.128 125.598 307.752 125.403 308.245 125.014C308.739 124.624 308.986 124.123 308.986 123.513V123.259C308.557 123.584 308.089 123.831 307.583 124C307.089 124.182 306.576 124.273 306.043 124.273C305.029 124.273 304.152 124.052 303.412 123.61C302.684 123.168 302.125 122.564 301.735 121.798C301.346 121.018 301.151 120.134 301.151 119.147C301.151 118.159 301.346 117.276 301.735 116.496C302.125 115.703 302.684 115.086 303.412 114.644C304.152 114.202 305.029 113.982 306.043 113.982C306.563 113.982 307.076 114.073 307.583 114.254C308.089 114.423 308.557 114.67 308.986 114.995V114.254ZM306.413 121.622C307.141 121.622 307.752 121.388 308.245 120.92C308.739 120.453 308.986 119.848 308.986 119.108C308.986 118.393 308.739 117.808 308.245 117.354C307.752 116.899 307.141 116.671 306.413 116.671C305.686 116.671 305.088 116.899 304.62 117.354C304.165 117.808 303.938 118.406 303.938 119.147C303.938 119.887 304.165 120.485 304.62 120.94C305.088 121.395 305.686 121.622 306.413 121.622ZM324.371 110.356C325.202 110.356 325.963 110.558 326.651 110.96C327.34 111.363 327.886 111.916 328.288 112.617C328.704 113.306 328.912 114.066 328.912 114.898C328.912 115.716 328.704 116.476 328.288 117.178C327.886 117.867 327.333 118.419 326.632 118.835C325.943 119.238 325.189 119.439 324.371 119.439H322.207V124H319.284V110.356H324.371ZM324.371 116.652C324.852 116.652 325.261 116.483 325.599 116.145C325.95 115.794 326.125 115.378 326.125 114.898C326.125 114.404 325.956 113.988 325.618 113.65C325.28 113.312 324.865 113.143 324.371 113.143H322.207V116.652H324.371ZM336.688 114.06L336.493 116.691C336.402 116.652 336.253 116.632 336.045 116.632C335.252 116.632 334.602 116.86 334.096 117.315C333.602 117.756 333.355 118.341 333.355 119.069V124H330.568V114.254H333.355V115.833C333.589 115.326 333.966 114.904 334.485 114.566C335.005 114.228 335.635 114.06 336.376 114.06H336.688ZM342.268 124.292C341.332 124.292 340.468 124.065 339.676 123.61C338.896 123.142 338.272 122.512 337.804 121.72C337.35 120.927 337.122 120.069 337.122 119.147C337.122 118.211 337.35 117.354 337.804 116.574C338.272 115.781 338.896 115.158 339.676 114.703C340.468 114.235 341.332 114.001 342.268 114.001C343.19 114.001 344.042 114.235 344.821 114.703C345.614 115.158 346.238 115.781 346.692 116.574C347.16 117.354 347.394 118.211 347.394 119.147C347.394 120.069 347.16 120.927 346.692 121.72C346.238 122.512 345.614 123.142 344.821 123.61C344.042 124.065 343.19 124.292 342.268 124.292ZM342.248 121.505C342.898 121.505 343.457 121.278 343.925 120.823C344.392 120.355 344.626 119.796 344.626 119.147C344.626 118.497 344.392 117.938 343.925 117.47C343.457 117.003 342.898 116.769 342.248 116.769C341.599 116.769 341.04 117.003 340.572 117.47C340.117 117.938 339.89 118.497 339.89 119.147C339.89 119.796 340.117 120.355 340.572 120.823C341.04 121.278 341.599 121.505 342.248 121.505ZM350.443 113.221C349.924 113.221 349.514 113.085 349.216 112.812C348.93 112.526 348.787 112.143 348.787 111.662C348.787 111.168 348.93 110.785 349.216 110.512C349.514 110.226 349.924 110.083 350.443 110.083C350.95 110.083 351.353 110.226 351.652 110.512C351.951 110.798 352.1 111.181 352.1 111.662C352.1 112.143 351.951 112.526 351.652 112.812C351.353 113.085 350.95 113.221 350.443 113.221ZM349.06 114.254H351.827V124.273C351.827 125.117 351.632 125.845 351.243 126.456C350.853 127.067 350.307 127.515 349.605 127.801C348.904 128.1 348.105 128.217 347.208 128.152V125.481C347.312 125.494 347.461 125.501 347.656 125.501C348.15 125.501 348.507 125.403 348.728 125.208C348.949 125.027 349.06 124.715 349.06 124.273V114.254ZM358.428 114.001C359.377 114.001 360.221 114.228 360.962 114.683C361.715 115.138 362.3 115.755 362.716 116.535C363.132 117.315 363.34 118.179 363.34 119.127C363.34 119.491 363.314 119.822 363.262 120.121H356.05C356.297 120.719 356.628 121.167 357.044 121.466C357.46 121.752 357.999 121.895 358.662 121.895C359.065 121.895 359.454 121.811 359.831 121.642C360.221 121.473 360.526 121.245 360.747 120.959L362.852 122.207C362.398 122.87 361.806 123.376 361.079 123.727C360.364 124.078 359.539 124.253 358.603 124.253C357.551 124.253 356.622 124.032 355.816 123.591C355.011 123.136 354.387 122.519 353.945 121.739C353.503 120.959 353.282 120.089 353.282 119.127C353.282 118.166 353.497 117.295 353.926 116.515C354.367 115.736 354.978 115.125 355.758 114.683C356.537 114.228 357.427 114.001 358.428 114.001ZM360.728 117.958C360.637 117.464 360.377 117.081 359.948 116.808C359.532 116.535 359.019 116.398 358.408 116.398C357.772 116.398 357.219 116.554 356.752 116.866C356.284 117.165 356.037 117.529 356.011 117.958H360.728ZM373.601 122.09C373.121 122.766 372.51 123.305 371.769 123.708C371.041 124.097 370.255 124.292 369.411 124.292C368.475 124.292 367.611 124.065 366.818 123.61C366.039 123.142 365.415 122.512 364.947 121.72C364.492 120.927 364.265 120.069 364.265 119.147C364.265 118.211 364.492 117.354 364.947 116.574C365.415 115.781 366.039 115.158 366.818 114.703C367.611 114.235 368.475 114.001 369.411 114.001C370.255 114.001 371.041 114.196 371.769 114.586C372.497 114.976 373.101 115.502 373.582 116.165L371.282 117.685C370.736 117.074 370.112 116.769 369.411 116.769C368.761 116.769 368.202 117.003 367.734 117.47C367.267 117.938 367.033 118.497 367.033 119.147C367.033 119.796 367.267 120.355 367.734 120.823C368.202 121.278 368.761 121.505 369.411 121.505C370.112 121.505 370.736 121.2 371.282 120.589L373.601 122.09ZM378.638 120.531C378.638 120.894 378.736 121.148 378.93 121.291C379.138 121.434 379.45 121.505 379.866 121.505C380.126 121.505 380.412 121.486 380.724 121.447V124C380.074 124.065 379.535 124.097 379.106 124.097C378.014 124.097 377.196 123.857 376.65 123.376C376.117 122.883 375.851 121.992 375.851 120.706V116.73H374.175V114.254H375.851V111.993L378.638 111.058V114.254H380.685V116.73H378.638V120.531Z" fill="#AAAAAA"/>
<path d="M81.2491 69.3562V80.2128H86.7845V83H78.3254V69.3562H81.2491ZM89.9669 71.9291C89.4471 71.9291 89.0378 71.7926 88.739 71.5197C88.4531 71.2339 88.3102 70.8506 88.3102 70.3698C88.3102 69.876 88.4531 69.4862 88.739 69.2003C89.0378 68.9144 89.4471 68.7715 89.9669 68.7715C90.4737 68.7715 90.8765 68.9144 91.1754 69.2003C91.4742 69.4862 91.6236 69.876 91.6236 70.3698C91.6236 70.8506 91.4742 71.2339 91.1754 71.5197C90.8765 71.7926 90.4737 71.9291 89.9669 71.9291ZM88.5635 83V73.2545H91.3508V83H88.5635ZM95.8922 76.0222C95.8922 76.2431 96.0286 76.412 96.3015 76.529C96.5744 76.6329 97.0097 76.7434 97.6074 76.8603C98.3741 77.0162 99.0108 77.1917 99.5175 77.3866C100.024 77.5685 100.466 77.8803 100.843 78.3221C101.233 78.7509 101.428 79.3487 101.428 80.1153C101.428 80.778 101.226 81.3498 100.823 81.8305C100.421 82.2983 99.8879 82.6557 99.2252 82.9025C98.5625 83.1364 97.8478 83.2534 97.0812 83.2534C96.0286 83.2534 95.132 83.065 94.3914 82.6881C93.6507 82.2983 93.092 81.7266 92.7151 80.9729L94.9956 79.8035C95.3075 80.6351 96.0026 81.0509 97.0812 81.0509C97.523 81.0509 97.9063 80.9729 98.2311 80.817C98.569 80.6481 98.7379 80.4142 98.7379 80.1153C98.7379 79.8554 98.582 79.6605 98.2701 79.5306C97.9712 79.4006 97.4905 79.2642 96.8278 79.1213C96.0741 78.9523 95.4439 78.7769 94.9371 78.595C94.4304 78.4001 93.9951 78.1077 93.6312 77.7179C93.2674 77.3151 93.0855 76.7823 93.0855 76.1196C93.0855 75.4829 93.2674 74.9307 93.6312 74.4629C93.9951 73.9821 94.4823 73.6183 95.0931 73.3714C95.7168 73.1245 96.3925 73.0011 97.1201 73.0011C97.9777 73.0011 98.7509 73.1765 99.4396 73.5273C100.128 73.8782 100.668 74.3849 101.057 75.0476L98.7964 76.1586C98.6404 75.8338 98.426 75.5934 98.1532 75.4375C97.8933 75.2815 97.5489 75.2036 97.1201 75.2036C96.7433 75.2036 96.4444 75.2815 96.2235 75.4375C96.0026 75.5804 95.8922 75.7753 95.8922 76.0222ZM106.445 79.5306C106.445 79.8944 106.542 80.1478 106.737 80.2907C106.945 80.4337 107.257 80.5051 107.673 80.5051C107.932 80.5051 108.218 80.4856 108.53 80.4467V83C107.88 83.065 107.341 83.0975 106.912 83.0975C105.821 83.0975 105.002 82.8571 104.457 82.3763C103.924 81.8825 103.657 80.9924 103.657 79.706V75.7298H101.981V73.2545H103.657V70.9935L106.445 70.0579V73.2545H108.491V75.7298H106.445V79.5306ZM120.192 83.2924C119.256 83.2924 118.392 83.065 117.599 82.6102C116.82 82.1424 116.196 81.5122 115.728 80.7195C115.273 79.9269 115.046 79.0693 115.046 78.1467C115.046 77.2111 115.273 76.3535 115.728 75.5739C116.196 74.7813 116.82 74.1575 117.599 73.7027C118.392 73.235 119.256 73.0011 120.192 73.0011C121.114 73.0011 121.965 73.235 122.745 73.7027C123.538 74.1575 124.161 74.7813 124.616 75.5739C125.084 76.3535 125.318 77.2111 125.318 78.1467C125.318 79.0693 125.084 79.9269 124.616 80.7195C124.161 81.5122 123.538 82.1424 122.745 82.6102C121.965 83.065 121.114 83.2924 120.192 83.2924ZM120.172 80.5051C120.822 80.5051 121.381 80.2777 121.848 79.823C122.316 79.3552 122.55 78.7964 122.55 78.1467C122.55 77.497 122.316 76.9383 121.848 76.4705C121.381 76.0027 120.822 75.7688 120.172 75.7688C119.522 75.7688 118.964 76.0027 118.496 76.4705C118.041 76.9383 117.814 77.497 117.814 78.1467C117.814 78.7964 118.041 79.3552 118.496 79.823C118.964 80.2777 119.522 80.5051 120.172 80.5051ZM132.36 71.7341C132.048 71.6952 131.762 71.6757 131.502 71.6757C131.086 71.6757 130.774 71.7471 130.567 71.8901C130.372 72.033 130.274 72.2864 130.274 72.6502V73.2545H132.34V75.7298H130.274V83H127.487V75.7298H125.967V73.2545H127.487V72.4748C127.487 71.1884 127.753 70.3048 128.286 69.824C128.832 69.3302 129.657 69.0834 130.761 69.0834C131.203 69.0834 131.736 69.1158 132.36 69.1808V71.7341ZM144.258 73.0011C145.272 73.0011 146.142 73.222 146.87 73.6638C147.61 74.1056 148.176 74.7163 148.565 75.4959C148.955 76.2626 149.15 77.1397 149.15 78.1272C149.15 79.1148 148.955 79.9984 148.565 80.778C148.176 81.5577 147.61 82.1749 146.87 82.6297C146.142 83.0715 145.272 83.2924 144.258 83.2924C143.738 83.2924 143.225 83.2014 142.718 83.0195C142.211 82.8506 141.744 82.6037 141.315 82.2788V86.8982H138.528V73.2545H141.315V74.0146C141.744 73.6898 142.205 73.4429 142.699 73.2739C143.205 73.092 143.725 73.0011 144.258 73.0011ZM143.888 80.5831C144.615 80.5831 145.207 80.3622 145.661 79.9204C146.129 79.4656 146.363 78.8679 146.363 78.1272C146.363 77.3866 146.129 76.7888 145.661 76.334C145.207 75.8793 144.615 75.6519 143.888 75.6519C143.16 75.6519 142.549 75.8858 142.055 76.3535C141.562 76.8213 141.315 77.4191 141.315 78.1467C141.315 78.8744 141.555 79.4656 142.036 79.9204C142.53 80.3622 143.147 80.5831 143.888 80.5831ZM156.868 73.0595L156.673 75.6908C156.582 75.6519 156.432 75.6324 156.225 75.6324C155.432 75.6324 154.782 75.8598 154.275 76.3146C153.782 76.7564 153.535 77.3411 153.535 78.0688V83H150.748V73.2545H153.535V74.8332C153.769 74.3265 154.146 73.9042 154.665 73.5663C155.185 73.2285 155.815 73.0595 156.556 73.0595H156.868ZM162.448 83.2924C161.512 83.2924 160.648 83.065 159.855 82.6102C159.076 82.1424 158.452 81.5122 157.984 80.7195C157.529 79.9269 157.302 79.0693 157.302 78.1467C157.302 77.2111 157.529 76.3535 157.984 75.5739C158.452 74.7813 159.076 74.1575 159.855 73.7027C160.648 73.235 161.512 73.0011 162.448 73.0011C163.37 73.0011 164.221 73.235 165.001 73.7027C165.794 74.1575 166.417 74.7813 166.872 75.5739C167.34 76.3535 167.574 77.2111 167.574 78.1467C167.574 79.0693 167.34 79.9269 166.872 80.7195C166.417 81.5122 165.794 82.1424 165.001 82.6102C164.221 83.065 163.37 83.2924 162.448 83.2924ZM162.428 80.5051C163.078 80.5051 163.637 80.2777 164.104 79.823C164.572 79.3552 164.806 78.7964 164.806 78.1467C164.806 77.497 164.572 76.9383 164.104 76.4705C163.637 76.0027 163.078 75.7688 162.428 75.7688C161.779 75.7688 161.22 76.0027 160.752 76.4705C160.297 76.9383 160.07 77.497 160.07 78.1467C160.07 78.7964 160.297 79.3552 160.752 79.823C161.22 80.2777 161.779 80.5051 162.428 80.5051ZM170.623 72.2214C170.104 72.2214 169.694 72.085 169.395 71.8121C169.11 71.5262 168.967 71.1429 168.967 70.6621C168.967 70.1684 169.11 69.785 169.395 69.5122C169.694 69.2263 170.104 69.0834 170.623 69.0834C171.13 69.0834 171.533 69.2263 171.832 69.5122C172.131 69.798 172.28 70.1814 172.28 70.6621C172.28 71.1429 172.131 71.5262 171.832 71.8121C171.533 72.085 171.13 72.2214 170.623 72.2214ZM169.239 73.2545H172.007V83.2729C172.007 84.1175 171.812 84.8452 171.422 85.4559C171.033 86.0666 170.487 86.5149 169.785 86.8008C169.084 87.0996 168.284 87.2166 167.388 87.1516V84.4813C167.492 84.4943 167.641 84.5008 167.836 84.5008C168.33 84.5008 168.687 84.4034 168.908 84.2084C169.129 84.0265 169.239 83.7147 169.239 83.2729V73.2545ZM178.608 73.0011C179.556 73.0011 180.401 73.2285 181.142 73.6833C181.895 74.1381 182.48 74.7553 182.896 75.5349C183.312 76.3146 183.52 77.1787 183.52 78.1272C183.52 78.4911 183.494 78.8224 183.442 79.1213H176.23C176.477 79.719 176.808 80.1673 177.224 80.4662C177.64 80.752 178.179 80.895 178.842 80.895C179.245 80.895 179.634 80.8105 180.011 80.6416C180.401 80.4727 180.706 80.2453 180.927 79.9594L183.032 81.2068C182.577 81.8695 181.986 82.3763 181.259 82.7271C180.544 83.078 179.719 83.2534 178.783 83.2534C177.731 83.2534 176.802 83.0325 175.996 82.5907C175.19 82.1359 174.567 81.5187 174.125 80.739C173.683 79.9594 173.462 79.0888 173.462 78.1272C173.462 77.1657 173.677 76.2951 174.105 75.5154C174.547 74.7358 175.158 74.1251 175.938 73.6833C176.717 73.2285 177.607 73.0011 178.608 73.0011ZM180.908 76.9578C180.817 76.464 180.557 76.0807 180.128 75.8078C179.712 75.5349 179.199 75.3985 178.588 75.3985C177.952 75.3985 177.399 75.5544 176.932 75.8663C176.464 76.1651 176.217 76.529 176.191 76.9578H180.908ZM193.781 81.0899C193.3 81.7656 192.69 82.3048 191.949 82.7076C191.221 83.0975 190.435 83.2924 189.591 83.2924C188.655 83.2924 187.791 83.065 186.998 82.6102C186.219 82.1424 185.595 81.5122 185.127 80.7195C184.672 79.9269 184.445 79.0693 184.445 78.1467C184.445 77.2111 184.672 76.3535 185.127 75.5739C185.595 74.7813 186.219 74.1575 186.998 73.7027C187.791 73.235 188.655 73.0011 189.591 73.0011C190.435 73.0011 191.221 73.196 191.949 73.5858C192.677 73.9756 193.281 74.5019 193.762 75.1646L191.462 76.6849C190.916 76.0742 190.292 75.7688 189.591 75.7688C188.941 75.7688 188.382 76.0027 187.914 76.4705C187.447 76.9383 187.213 77.497 187.213 78.1467C187.213 78.7964 187.447 79.3552 187.914 79.823C188.382 80.2777 188.941 80.5051 189.591 80.5051C190.292 80.5051 190.916 80.1998 191.462 79.5891L193.781 81.0899ZM198.818 79.5306C198.818 79.8944 198.915 80.1478 199.11 80.2907C199.318 80.4337 199.63 80.5051 200.046 80.5051C200.306 80.5051 200.592 80.4856 200.903 80.4467V83C200.254 83.065 199.715 83.0975 199.286 83.0975C198.194 83.0975 197.376 82.8571 196.83 82.3763C196.297 81.8825 196.031 80.9924 196.031 79.706V75.7298H194.354V73.2545H196.031V70.9935L198.818 70.0579V73.2545H200.865V75.7298H198.818V79.5306ZM204.997 76.0222C204.997 76.2431 205.133 76.412 205.406 76.529C205.679 76.6329 206.114 76.7434 206.712 76.8603C207.478 77.0162 208.115 77.1917 208.622 77.3866C209.129 77.5685 209.571 77.8803 209.947 78.3221C210.337 78.7509 210.532 79.3487 210.532 80.1153C210.532 80.778 210.331 81.3498 209.928 81.8305C209.525 82.2983 208.992 82.6557 208.33 82.9025C207.667 83.1364 206.952 83.2534 206.186 83.2534C205.133 83.2534 204.236 83.065 203.496 82.6881C202.755 82.2983 202.196 81.7266 201.82 80.9729L204.1 79.8035C204.412 80.6351 205.107 81.0509 206.186 81.0509C206.627 81.0509 207.011 80.9729 207.336 80.817C207.673 80.6481 207.842 80.4142 207.842 80.1153C207.842 79.8554 207.686 79.6605 207.375 79.5306C207.076 79.4006 206.595 79.2642 205.932 79.1213C205.179 78.9523 204.548 78.7769 204.042 78.595C203.535 78.4001 203.099 78.1077 202.736 77.7179C202.372 77.3151 202.19 76.7823 202.19 76.1196C202.19 75.4829 202.372 74.9307 202.736 74.4629C203.099 73.9821 203.587 73.6183 204.197 73.3714C204.821 73.1245 205.497 73.0011 206.225 73.0011C207.082 73.0011 207.855 73.1765 208.544 73.5273C209.233 73.8782 209.772 74.3849 210.162 75.0476L207.901 76.1586C207.745 75.8338 207.53 75.5934 207.258 75.4375C206.998 75.2815 206.653 75.2036 206.225 75.2036C205.848 75.2036 205.549 75.2815 205.328 75.4375C205.107 75.5804 204.997 75.7753 204.997 76.0222ZM217.428 83V69.3562H220.371V83H217.428ZM236.821 83H234.034V77.2501C234.034 76.6264 233.859 76.1781 233.508 75.9052C233.157 75.6194 232.741 75.4764 232.26 75.4764C231.858 75.4764 231.507 75.6064 231.208 75.8663C230.909 76.1131 230.721 76.503 230.643 77.0357V83H227.855V69.3562H230.643V73.9561C231.357 73.3584 232.13 73.0595 232.962 73.0595C233.521 73.0595 234.086 73.183 234.658 73.4299C235.243 73.6638 235.743 74.0861 236.159 74.6968C236.587 75.3075 236.808 76.1326 236.821 77.1722V83ZM246.112 73.2545H248.88V83H246.112V82.2593C245.684 82.5842 245.209 82.8311 244.69 83C244.183 83.1819 243.67 83.2729 243.15 83.2729C242.136 83.2729 241.259 83.052 240.519 82.6102C239.791 82.1684 239.232 81.5642 238.842 80.7975C238.452 80.0179 238.258 79.1343 238.258 78.1467C238.258 77.1592 238.452 76.2756 238.842 75.4959C239.232 74.7033 239.791 74.0861 240.519 73.6443C241.259 73.2025 242.136 72.9816 243.15 72.9816C243.683 72.9816 244.202 73.0725 244.709 73.2545C245.216 73.4364 245.684 73.6898 246.112 74.0146V73.2545ZM243.52 80.6221C244.248 80.6221 244.859 80.3882 245.352 79.9204C245.846 79.4526 246.093 78.8484 246.093 78.1077C246.093 77.3931 245.846 76.8083 245.352 76.3535C244.859 75.8987 244.248 75.6713 243.52 75.6713C242.792 75.6713 242.195 75.8987 241.727 76.3535C241.259 76.8083 241.025 77.4061 241.025 78.1467C241.025 78.8874 241.259 79.4851 241.727 79.9399C242.195 80.3947 242.792 80.6221 243.52 80.6221ZM255.4 79.5501L257.68 73.2545H260.623L257.076 83H253.704L250.157 73.2545H253.1L255.4 79.5501ZM265.918 73.0011C266.867 73.0011 267.711 73.2285 268.452 73.6833C269.206 74.1381 269.79 74.7553 270.206 75.5349C270.622 76.3146 270.83 77.1787 270.83 78.1272C270.83 78.4911 270.804 78.8224 270.752 79.1213H263.54C263.787 79.719 264.118 80.1673 264.534 80.4662C264.95 80.752 265.489 80.895 266.152 80.895C266.555 80.895 266.945 80.8105 267.321 80.6416C267.711 80.4727 268.017 80.2453 268.237 79.9594L270.342 81.2068C269.888 81.8695 269.296 82.3763 268.569 82.7271C267.854 83.078 267.029 83.2534 266.093 83.2534C265.041 83.2534 264.112 83.0325 263.306 82.5907C262.501 82.1359 261.877 81.5187 261.435 80.739C260.993 79.9594 260.772 79.0888 260.772 78.1272C260.772 77.1657 260.987 76.2951 261.416 75.5154C261.857 74.7358 262.468 74.1251 263.248 73.6833C264.027 73.2285 264.917 73.0011 265.918 73.0011ZM268.218 76.9578C268.127 76.464 267.867 76.0807 267.438 75.8078C267.023 75.5349 266.509 75.3985 265.899 75.3985C265.262 75.3985 264.71 75.5544 264.242 75.8663C263.774 76.1651 263.527 76.529 263.501 76.9578H268.218ZM286.459 81.0899C285.978 81.7656 285.368 82.3048 284.627 82.7076C283.899 83.0975 283.113 83.2924 282.268 83.2924C281.333 83.2924 280.469 83.065 279.676 82.6102C278.896 82.1424 278.273 81.5122 277.805 80.7195C277.35 79.9269 277.123 79.0693 277.123 78.1467C277.123 77.2111 277.35 76.3535 277.805 75.5739C278.273 74.7813 278.896 74.1575 279.676 73.7027C280.469 73.235 281.333 73.0011 282.268 73.0011C283.113 73.0011 283.899 73.196 284.627 73.5858C285.355 73.9756 285.959 74.5019 286.44 75.1646L284.14 76.6849C283.594 76.0742 282.97 75.7688 282.268 75.7688C281.619 75.7688 281.06 76.0027 280.592 76.4705C280.124 76.9383 279.891 77.497 279.891 78.1467C279.891 78.7964 280.124 79.3552 280.592 79.823C281.06 80.2777 281.619 80.5051 282.268 80.5051C282.97 80.5051 283.594 80.1998 284.14 79.5891L286.459 81.0899ZM292.204 83.2924C291.269 83.2924 290.405 83.065 289.612 82.6102C288.832 82.1424 288.209 81.5122 287.741 80.7195C287.286 79.9269 287.059 79.0693 287.059 78.1467C287.059 77.2111 287.286 76.3535 287.741 75.5739C288.209 74.7813 288.832 74.1575 289.612 73.7027C290.405 73.235 291.269 73.0011 292.204 73.0011C293.127 73.0011 293.978 73.235 294.758 73.7027C295.55 74.1575 296.174 74.7813 296.629 75.5739C297.097 76.3535 297.33 77.2111 297.33 78.1467C297.33 79.0693 297.097 79.9269 296.629 80.7195C296.174 81.5122 295.55 82.1424 294.758 82.6102C293.978 83.065 293.127 83.2924 292.204 83.2924ZM292.185 80.5051C292.835 80.5051 293.393 80.2777 293.861 79.823C294.329 79.3552 294.563 78.7964 294.563 78.1467C294.563 77.497 294.329 76.9383 293.861 76.4705C293.393 76.0027 292.835 75.7688 292.185 75.7688C291.535 75.7688 290.976 76.0027 290.509 76.4705C290.054 76.9383 289.826 77.497 289.826 78.1467C289.826 78.7964 290.054 79.3552 290.509 79.823C290.976 80.2777 291.535 80.5051 292.185 80.5051ZM309.891 72.9816C310.462 72.9816 311.041 73.105 311.625 73.3519C312.21 73.5988 312.71 74.0341 313.126 74.6578C313.542 75.2815 313.75 76.1196 313.75 77.1722V83H310.982V77.1722C310.982 76.5484 310.807 76.1002 310.456 75.8273C310.105 75.5544 309.689 75.418 309.208 75.418C308.806 75.418 308.455 75.5414 308.156 75.7883C307.87 76.0222 307.682 76.3925 307.591 76.8993V77.1722V83H304.804V77.1722C304.804 76.5484 304.628 76.1002 304.277 75.8273C303.926 75.5544 303.511 75.418 303.03 75.418C302.627 75.418 302.276 75.5414 301.977 75.7883C301.678 76.0352 301.49 76.4315 301.412 76.9773V83H298.625V73.2545H301.412V73.8782C302.127 73.2804 302.9 72.9816 303.731 72.9816C304.303 72.9816 304.881 73.105 305.466 73.3519C306.064 73.5988 306.551 74.0081 306.928 74.5798C307.266 74.1251 307.695 73.7482 308.214 73.4494C308.734 73.1375 309.293 72.9816 309.891 72.9816ZM321.296 73.0011C322.309 73.0011 323.18 73.222 323.908 73.6638C324.648 74.1056 325.213 74.7163 325.603 75.4959C325.993 76.2626 326.188 77.1397 326.188 78.1272C326.188 79.1148 325.993 79.9984 325.603 80.778C325.213 81.5577 324.648 82.1749 323.908 82.6297C323.18 83.0715 322.309 83.2924 321.296 83.2924C320.776 83.2924 320.263 83.2014 319.756 83.0195C319.249 82.8506 318.781 82.6037 318.353 82.2788V86.8982H315.565V73.2545H318.353V74.0146C318.781 73.6898 319.243 73.4429 319.736 73.2739C320.243 73.092 320.763 73.0011 321.296 73.0011ZM320.925 80.5831C321.653 80.5831 322.244 80.3622 322.699 79.9204C323.167 79.4656 323.401 78.8679 323.401 78.1272C323.401 77.3866 323.167 76.7888 322.699 76.334C322.244 75.8793 321.653 75.6519 320.925 75.6519C320.198 75.6519 319.587 75.8858 319.093 76.3535C318.599 76.8213 318.353 77.4191 318.353 78.1467C318.353 78.8744 318.593 79.4656 319.074 79.9204C319.567 80.3622 320.185 80.5831 320.925 80.5831ZM330.573 79.9204C330.573 80.1283 330.618 80.2777 330.709 80.3687C330.813 80.4597 330.982 80.5051 331.216 80.5051C331.385 80.5051 331.586 80.4856 331.82 80.4467V83C331.183 83.091 330.689 83.1364 330.339 83.1364C329.494 83.1364 328.857 82.9155 328.429 82.4737C328 82.0189 327.785 81.2263 327.785 80.0958V69.3562H330.573V79.9204ZM337.753 73.0011C338.702 73.0011 339.547 73.2285 340.287 73.6833C341.041 74.1381 341.626 74.7553 342.041 75.5349C342.457 76.3146 342.665 77.1787 342.665 78.1272C342.665 78.4911 342.639 78.8224 342.587 79.1213H335.375C335.622 79.719 335.954 80.1673 336.369 80.4662C336.785 80.752 337.325 80.895 337.987 80.895C338.39 80.895 338.78 80.8105 339.157 80.6416C339.547 80.4727 339.852 80.2453 340.073 79.9594L342.178 81.2068C341.723 81.8695 341.132 82.3763 340.404 82.7271C339.689 83.078 338.864 83.2534 337.929 83.2534C336.876 83.2534 335.947 83.0325 335.142 82.5907C334.336 82.1359 333.712 81.5187 333.27 80.739C332.829 79.9594 332.608 79.0888 332.608 78.1272C332.608 77.1657 332.822 76.2951 333.251 75.5154C333.693 74.7358 334.303 74.1251 335.083 73.6833C335.863 73.2285 336.753 73.0011 337.753 73.0011ZM340.053 76.9578C339.962 76.464 339.702 76.0807 339.274 75.8078C338.858 75.5349 338.345 75.3985 337.734 75.3985C337.097 75.3985 336.545 75.5544 336.077 75.8663C335.609 76.1651 335.362 76.529 335.336 76.9578H340.053ZM347.666 79.5306C347.666 79.8944 347.763 80.1478 347.958 80.2907C348.166 80.4337 348.478 80.5051 348.894 80.5051C349.154 80.5051 349.44 80.4856 349.751 80.4467V83C349.102 83.065 348.563 83.0975 348.134 83.0975C347.042 83.0975 346.224 82.8571 345.678 82.3763C345.145 81.8825 344.879 80.9924 344.879 79.706V75.7298H343.202V73.2545H344.879V70.9935L347.666 70.0579V73.2545H349.712V75.7298H347.666V79.5306ZM355.931 73.0011C356.88 73.0011 357.724 73.2285 358.465 73.6833C359.219 74.1381 359.803 74.7553 360.219 75.5349C360.635 76.3146 360.843 77.1787 360.843 78.1272C360.843 78.4911 360.817 78.8224 360.765 79.1213H353.553C353.8 79.719 354.131 80.1673 354.547 80.4662C354.963 80.752 355.502 80.895 356.165 80.895C356.568 80.895 356.958 80.8105 357.334 80.6416C357.724 80.4727 358.03 80.2453 358.25 79.9594L360.356 81.2068C359.901 81.8695 359.31 82.3763 358.582 82.7271C357.867 83.078 357.042 83.2534 356.106 83.2534C355.054 83.2534 354.125 83.0325 353.319 82.5907C352.514 82.1359 351.89 81.5187 351.448 80.739C351.006 79.9594 350.785 79.0888 350.785 78.1272C350.785 77.1657 351 76.2951 351.429 75.5154C351.87 74.7358 352.481 74.1251 353.261 73.6833C354.04 73.2285 354.931 73.0011 355.931 73.0011ZM358.231 76.9578C358.14 76.464 357.88 76.0807 357.451 75.8078C357.036 75.5349 356.522 75.3985 355.912 75.3985C355.275 75.3985 354.723 75.5544 354.255 75.8663C353.787 76.1651 353.54 76.529 353.514 76.9578H358.231ZM369.721 69.3562H372.488V83H369.721V82.2593C369.292 82.5842 368.824 82.8311 368.317 83C367.823 83.1819 367.31 83.2729 366.777 83.2729C365.764 83.2729 364.887 83.052 364.146 82.6102C363.418 82.1684 362.86 81.5642 362.47 80.7975C362.08 80.0179 361.885 79.1343 361.885 78.1467C361.885 77.1592 362.08 76.2756 362.47 75.4959C362.86 74.7033 363.418 74.0861 364.146 73.6443C364.887 73.2025 365.764 72.9816 366.777 72.9816C367.297 72.9816 367.81 73.0725 368.317 73.2545C368.824 73.4234 369.292 73.6703 369.721 73.9951V69.3562ZM367.148 80.6221C367.875 80.6221 368.486 80.3882 368.98 79.9204C369.474 79.4526 369.721 78.8484 369.721 78.1077C369.721 77.3931 369.474 76.8083 368.98 76.3535C368.486 75.8987 367.875 75.6713 367.148 75.6713C366.42 75.6713 365.822 75.8987 365.355 76.3535C364.887 76.8083 364.653 77.4061 364.653 78.1467C364.653 78.8874 364.887 79.4851 365.355 79.9399C365.822 80.3947 366.42 80.6221 367.148 80.6221ZM382.377 76.0222C382.377 76.2431 382.513 76.412 382.786 76.529C383.059 76.6329 383.494 76.7434 384.092 76.8603C384.859 77.0162 385.496 77.1917 386.002 77.3866C386.509 77.5685 386.951 77.8803 387.328 78.3221C387.718 78.7509 387.912 79.3487 387.912 80.1153C387.912 80.778 387.711 81.3498 387.308 81.8305C386.905 82.2983 386.373 82.6557 385.71 82.9025C385.047 83.1364 384.333 83.2534 383.566 83.2534C382.513 83.2534 381.617 83.065 380.876 82.6881C380.135 82.2983 379.577 81.7266 379.2 80.9729L381.48 79.8035C381.792 80.6351 382.487 81.0509 383.566 81.0509C384.008 81.0509 384.391 80.9729 384.716 80.817C385.054 80.6481 385.223 80.4142 385.223 80.1153C385.223 79.8554 385.067 79.6605 384.755 79.5306C384.456 79.4006 383.975 79.2642 383.313 79.1213C382.559 78.9523 381.929 78.7769 381.422 78.595C380.915 78.4001 380.48 78.1077 380.116 77.7179C379.752 77.3151 379.57 76.7823 379.57 76.1196C379.57 75.4829 379.752 74.9307 380.116 74.4629C380.48 73.9821 380.967 73.6183 381.578 73.3714C382.202 73.1245 382.877 73.0011 383.605 73.0011C384.463 73.0011 385.236 73.1765 385.924 73.5273C386.613 73.8782 387.152 74.3849 387.542 75.0476L385.281 76.1586C385.125 75.8338 384.911 75.5934 384.638 75.4375C384.378 75.2815 384.034 75.2036 383.605 75.2036C383.228 75.2036 382.929 75.2815 382.708 75.4375C382.487 75.5804 382.377 75.7753 382.377 76.0222ZM393.923 83.2924C392.988 83.2924 392.124 83.065 391.331 82.6102C390.551 82.1424 389.928 81.5122 389.46 80.7195C389.005 79.9269 388.778 79.0693 388.778 78.1467C388.778 77.2111 389.005 76.3535 389.46 75.5739C389.928 74.7813 390.551 74.1575 391.331 73.7027C392.124 73.235 392.988 73.0011 393.923 73.0011C394.846 73.0011 395.697 73.235 396.477 73.7027C397.269 74.1575 397.893 74.7813 398.348 75.5739C398.816 76.3535 399.05 77.2111 399.05 78.1467C399.05 79.0693 398.816 79.9269 398.348 80.7195C397.893 81.5122 397.269 82.1424 396.477 82.6102C395.697 83.065 394.846 83.2924 393.923 83.2924ZM393.904 80.5051C394.554 80.5051 395.112 80.2777 395.58 79.823C396.048 79.3552 396.282 78.7964 396.282 78.1467C396.282 77.497 396.048 76.9383 395.58 76.4705C395.112 76.0027 394.554 75.7688 393.904 75.7688C393.254 75.7688 392.696 76.0027 392.228 76.4705C391.773 76.9383 391.546 77.497 391.546 78.1467C391.546 78.7964 391.773 79.3552 392.228 79.823C392.696 80.2777 393.254 80.5051 393.904 80.5051ZM411.535 71.7341C411.223 71.6952 410.938 71.6757 410.678 71.6757C410.262 71.6757 409.95 71.7471 409.742 71.8901C409.547 72.033 409.45 72.2864 409.45 72.6502V73.2545H411.516V75.7298H409.45V83H406.663V75.7298H405.142V73.2545H406.663V72.4748C406.663 71.1884 406.929 70.3048 407.462 69.824C408.007 69.3302 408.833 69.0834 409.937 69.0834C410.379 69.0834 410.912 69.1158 411.535 69.1808V71.7341ZM419.914 73.2545H422.682V83H419.914V82.2593C419.486 82.5842 419.011 82.8311 418.492 83C417.985 83.1819 417.471 83.2729 416.952 83.2729C415.938 83.2729 415.061 83.052 414.32 82.6102C413.593 82.1684 413.034 81.5642 412.644 80.7975C412.254 80.0179 412.059 79.1343 412.059 78.1467C412.059 77.1592 412.254 76.2756 412.644 75.4959C413.034 74.7033 413.593 74.0861 414.32 73.6443C415.061 73.2025 415.938 72.9816 416.952 72.9816C417.484 72.9816 418.004 73.0725 418.511 73.2545C419.018 73.4364 419.486 73.6898 419.914 74.0146V73.2545ZM417.322 80.6221C418.05 80.6221 418.66 80.3882 419.154 79.9204C419.648 79.4526 419.895 78.8484 419.895 78.1077C419.895 77.3931 419.648 76.8083 419.154 76.3535C418.66 75.8987 418.05 75.6713 417.322 75.6713C416.594 75.6713 415.997 75.8987 415.529 76.3535C415.061 76.8083 414.827 77.4061 414.827 78.1467C414.827 78.8874 415.061 79.4851 415.529 79.9399C415.997 80.3947 416.594 80.6221 417.322 80.6221ZM431.19 73.0595L430.995 75.6908C430.904 75.6519 430.754 75.6324 430.546 75.6324C429.754 75.6324 429.104 75.8598 428.597 76.3146C428.104 76.7564 427.857 77.3411 427.857 78.0688V83H425.069V73.2545H427.857V74.8332C428.091 74.3265 428.467 73.9042 428.987 73.5663C429.507 73.2285 430.137 73.0595 430.878 73.0595H431.19ZM431.121 81.7526C431.121 81.2718 431.244 80.908 431.491 80.6611C431.751 80.4012 432.115 80.2712 432.583 80.2712C433.051 80.2712 433.408 80.4012 433.655 80.6611C433.915 80.908 434.045 81.2718 434.045 81.7526C434.045 82.2334 433.915 82.6037 433.655 82.8636C433.408 83.1104 433.051 83.2339 432.583 83.2339C432.115 83.2339 431.751 83.1104 431.491 82.8636C431.244 82.6037 431.121 82.2334 431.121 81.7526ZM436.298 81.7526C436.298 81.2718 436.422 80.908 436.669 80.6611C436.929 80.4012 437.292 80.2712 437.76 80.2712C438.228 80.2712 438.585 80.4012 438.832 80.6611C439.092 80.908 439.222 81.2718 439.222 81.7526C439.222 82.2334 439.092 82.6037 438.832 82.8636C438.585 83.1104 438.228 83.2339 437.76 83.2339C437.292 83.2339 436.929 83.1104 436.669 82.8636C436.422 82.6037 436.298 82.2334 436.298 81.7526Z" fill="#AAAAAA"/>
<path d="M89.7399 10.5108C91.7812 10.5108 93.647 11.0051 95.3374 11.9939C97.0278 12.9826 98.3674 14.3381 99.3561 16.0604C100.377 17.7508 100.887 19.6166 100.887 21.6579C100.887 23.6672 100.377 25.5331 99.3561 27.2554C98.3674 28.9458 97.0119 30.3013 95.2896 31.3219C93.5992 32.3107 91.7493 32.805 89.7399 32.805H84.4295V44H77.2532V10.5108H89.7399ZM89.7399 25.9637C90.92 25.9637 91.9247 25.549 92.754 24.7198C93.6151 23.8586 94.0457 22.838 94.0457 21.6579C94.0457 20.4459 93.6311 19.4253 92.8018 18.596C91.9726 17.7668 90.9519 17.3521 89.7399 17.3521H84.4295V25.9637H89.7399ZM119.973 19.6007L119.495 26.0593C119.271 25.9637 118.904 25.9158 118.394 25.9158C116.449 25.9158 114.854 26.474 113.61 27.5903C112.398 28.6747 111.792 30.1099 111.792 31.896V44H104.951V20.0791H111.792V23.9543C112.366 22.7104 113.291 21.6738 114.567 20.8446C115.843 20.0153 117.389 19.6007 119.207 19.6007H119.973ZM133.669 44.7176C131.373 44.7176 129.252 44.1595 127.306 43.0432C125.393 41.895 123.862 40.3481 122.713 38.4025C121.597 36.4569 121.039 34.3519 121.039 32.0874C121.039 29.791 121.597 27.686 122.713 25.7723C123.862 23.8267 125.393 22.2958 127.306 21.1795C129.252 20.0313 131.373 19.4572 133.669 19.4572C135.934 19.4572 138.023 20.0313 139.936 21.1795C141.882 22.2958 143.413 23.8267 144.529 25.7723C145.677 27.686 146.252 29.791 146.252 32.0874C146.252 34.3519 145.677 36.4569 144.529 38.4025C143.413 40.3481 141.882 41.895 139.936 43.0432C138.023 44.1595 135.934 44.7176 133.669 44.7176ZM133.621 37.8763C135.216 37.8763 136.588 37.3181 137.736 36.2018C138.884 35.0536 139.458 33.6821 139.458 32.0874C139.458 30.4927 138.884 29.1212 137.736 27.973C136.588 26.8248 135.216 26.2507 133.621 26.2507C132.027 26.2507 130.655 26.8248 129.507 27.973C128.391 29.1212 127.832 30.4927 127.832 32.0874C127.832 33.6821 128.391 35.0536 129.507 36.2018C130.655 37.3181 132.027 37.8763 133.621 37.8763ZM153.737 17.5435C152.461 17.5435 151.456 17.2086 150.722 16.5388C150.021 15.8371 149.67 14.8963 149.67 13.7162C149.67 12.5042 150.021 11.5633 150.722 10.8935C151.456 10.1918 152.461 9.84097 153.737 9.84097C154.98 9.84097 155.969 10.1918 156.703 10.8935C157.436 11.5952 157.803 12.5361 157.803 13.7162C157.803 14.8963 157.436 15.8371 156.703 16.5388C155.969 17.2086 154.98 17.5435 153.737 17.5435ZM150.34 20.0791H157.133V44.6698C157.133 46.7429 156.655 48.529 155.698 50.0281C154.741 51.5271 153.402 52.6275 151.679 53.3291C149.957 54.0627 147.996 54.3498 145.795 54.1903V47.636C146.05 47.6679 146.417 47.6838 146.895 47.6838C148.107 47.6838 148.984 47.4446 149.526 46.9662C150.069 46.5197 150.34 45.7542 150.34 44.6698V20.0791ZM173.335 19.4572C175.663 19.4572 177.736 20.0153 179.554 21.1316C181.404 22.2479 182.839 23.7629 183.86 25.6766C184.881 27.5903 185.391 29.7113 185.391 32.0396C185.391 32.9326 185.327 33.7459 185.2 34.4795H167.498C168.104 35.9466 168.917 37.047 169.938 37.7806C170.959 38.4822 172.282 38.8331 173.909 38.8331C174.898 38.8331 175.855 38.6258 176.779 38.2111C177.736 37.7965 178.486 37.2384 179.028 36.5367L184.195 39.5986C183.079 41.2252 181.627 42.4691 179.841 43.3302C178.087 44.1914 176.062 44.6219 173.765 44.6219C171.182 44.6219 168.902 44.0797 166.924 42.9953C164.947 41.879 163.416 40.364 162.331 38.4504C161.247 36.5367 160.705 34.3998 160.705 32.0396C160.705 29.6794 161.231 27.5424 162.283 25.6288C163.368 23.7151 164.867 22.216 166.781 21.1316C168.694 20.0153 170.879 19.4572 173.335 19.4572ZM178.98 29.1691C178.757 27.9571 178.119 27.0162 177.067 26.3464C176.046 25.6766 174.786 25.3417 173.287 25.3417C171.724 25.3417 170.369 25.7244 169.22 26.4899C168.072 27.2235 167.466 28.1165 167.402 29.1691H178.98ZM210.579 39.3115C209.398 40.97 207.899 42.2936 206.081 43.2824C204.295 44.2392 202.366 44.7176 200.293 44.7176C197.996 44.7176 195.875 44.1595 193.93 43.0432C192.016 41.895 190.485 40.3481 189.337 38.4025C188.22 36.4569 187.662 34.3519 187.662 32.0874C187.662 29.791 188.22 27.686 189.337 25.7723C190.485 23.8267 192.016 22.2958 193.93 21.1795C195.875 20.0313 197.996 19.4572 200.293 19.4572C202.366 19.4572 204.295 19.9356 206.081 20.8924C207.868 21.8493 209.351 23.141 210.531 24.7676L204.885 28.4993C203.546 27.0002 202.015 26.2507 200.293 26.2507C198.698 26.2507 197.326 26.8248 196.178 27.973C195.03 29.1212 194.456 30.4927 194.456 32.0874C194.456 33.6821 195.03 35.0536 196.178 36.2018C197.326 37.3181 198.698 37.8763 200.293 37.8763C202.015 37.8763 203.546 37.1267 204.885 35.6277L210.579 39.3115ZM222.942 35.4842C222.942 36.3772 223.181 36.9992 223.659 37.35C224.169 37.7008 224.935 37.8763 225.956 37.8763C226.593 37.8763 227.295 37.8284 228.061 37.7327V44C226.466 44.1595 225.142 44.2392 224.09 44.2392C221.411 44.2392 219.401 43.6492 218.062 42.4691C216.754 41.2571 216.1 39.0723 216.1 35.9147V26.155H211.986V20.0791H216.1V14.5295L222.942 12.2331V20.0791H227.965V26.155H222.942V35.4842ZM238.107 26.8726C238.107 27.4149 238.442 27.8295 239.112 28.1165C239.782 28.3717 240.85 28.6428 242.317 28.9298C244.199 29.3126 245.762 29.7432 247.006 30.2216C248.25 30.6681 249.334 31.4336 250.259 32.518C251.216 33.5705 251.694 35.0376 251.694 36.9194C251.694 38.546 251.2 39.9494 250.211 41.1295C249.223 42.2777 247.915 43.1548 246.288 43.7608C244.662 44.3349 242.907 44.6219 241.026 44.6219C238.442 44.6219 236.242 44.1595 234.424 43.2345C232.606 42.2777 231.234 40.8743 230.309 39.0245L235.907 36.1539C236.672 38.1952 238.378 39.2158 241.026 39.2158C242.11 39.2158 243.051 39.0245 243.848 38.6417C244.678 38.2271 245.092 37.653 245.092 36.9194C245.092 36.2815 244.71 35.8031 243.944 35.4842C243.21 35.1652 242.03 34.8303 240.404 34.4795C238.554 34.0649 237.007 33.6343 235.763 33.1878C234.519 32.7093 233.451 31.9917 232.558 31.0349C231.665 30.0461 231.218 28.7385 231.218 27.1119C231.218 25.549 231.665 24.1935 232.558 23.0453C233.451 21.8652 234.647 20.9722 236.146 20.3662C237.677 19.7602 239.335 19.4572 241.121 19.4572C243.226 19.4572 245.124 19.8877 246.815 20.7489C248.505 21.6101 249.829 22.8539 250.785 24.4806L245.236 27.2075C244.853 26.4102 244.327 25.8201 243.657 25.4374C243.019 25.0547 242.174 24.8633 241.121 24.8633C240.196 24.8633 239.463 25.0547 238.921 25.4374C238.378 25.7882 238.107 26.2667 238.107 26.8726Z" fill="white"/>
<path d="M25.5108 31.0986C25.9431 31.0986 26.3106 30.9472 26.7646 30.5146L34.0504 23.4644C34.3746 23.1401 34.5692 22.794 34.5692 22.3182C34.5692 21.4531 33.899 20.8044 32.991 20.8044C32.5802 20.8044 32.1262 20.9774 31.8236 21.3234L28.5374 24.8269L27.089 26.3407L27.2187 23.1184V1.68656C27.2187 0.778136 26.4404 0 25.5108 0C24.5812 0 23.7812 0.778136 23.7812 1.68656V23.1184L23.9109 26.3623L22.4625 24.8269L19.1762 21.3234C18.8736 20.9774 18.398 20.8044 17.9872 20.8044C17.0792 20.8044 16.4307 21.4531 16.4307 22.3182C16.4307 22.794 16.6252 23.1401 16.9495 23.4644L24.2569 30.5146C24.6892 30.9472 25.0568 31.0986 25.5108 31.0986ZM6.78848 50H44.2115C48.7299 50 51 47.7509 51 43.2958V31.3581C51 29.4117 50.7188 28.4817 49.7678 27.2491L42.5034 17.9713C39.8876 14.6192 38.8497 13.9488 35.0232 13.9488H31.1966V16.9765H35.261C36.8392 16.9765 37.877 17.2577 39.1091 18.8364L46.5679 28.525C47.4109 29.6279 47.1298 30.0605 45.941 30.0605H32.6019C31.4128 30.0605 30.8291 30.9688 30.8291 31.942V32.0068C30.8291 34.6669 28.7537 37.4783 25.4891 37.4783C22.2462 37.4783 20.1708 34.6669 20.1708 32.0068V31.942C20.1708 30.9688 19.5871 30.0605 18.398 30.0605H5.08052C3.84825 30.0605 3.65362 29.5414 4.43196 28.525L11.8474 18.9012C13.1228 17.2793 14.1607 16.9765 15.7388 16.9765H19.8249V13.9488H15.9766C12.1501 13.9488 11.1339 14.6192 8.45317 18.0362L1.23226 27.2491C0.281062 28.4817 0 29.4117 0 31.3581V43.2958C0 47.7725 2.29167 50 6.78848 50Z" fill="white"/>
<path d="M87.5 103.5L88.2338 102.192C87.7781 101.936 87.2219 101.936 86.7662 102.192L87.5 103.5ZM89.5964 104.676L88.8626 105.984C89.0813 106.107 89.3272 106.173 89.5778 106.176L89.5964 104.676ZM92 104.706L93.2897 103.94C93.0227 103.49 92.5412 103.212 92.0186 103.206L92 104.706ZM93.2276 106.772L91.9379 107.538C92.066 107.754 92.246 107.934 92.4616 108.062L93.2276 106.772ZM95.2943 108L96.7941 107.981C96.7877 107.459 96.5096 106.977 96.0602 106.71L95.2943 108ZM95.324 110.404L93.8242 110.422C93.8272 110.673 93.8932 110.919 94.0157 111.137L95.324 110.404ZM96.5 112.5L97.8083 113.234C98.0639 112.778 98.0639 112.222 97.8083 111.766L96.5 112.5ZM95.324 114.596L94.0157 113.863C93.8932 114.081 93.8272 114.327 93.8242 114.578L95.324 114.596ZM95.2943 117L96.0602 118.29C96.5096 118.023 96.7877 117.541 96.7941 117.019L95.2943 117ZM93.2276 118.228L92.4616 116.938C92.246 117.066 92.066 117.246 91.9379 117.462L93.2276 118.228ZM92 120.294L92.0186 121.794C92.5412 121.788 93.0227 121.51 93.2897 121.06L92 120.294ZM89.5964 120.324L89.5778 118.824C89.3272 118.827 89.0813 118.893 88.8626 119.016L89.5964 120.324ZM87.5 121.5L86.7662 122.808C87.2219 123.064 87.7781 123.064 88.2338 122.808L87.5 121.5ZM85.4036 120.324L86.1374 119.016C85.9187 118.893 85.6729 118.827 85.4222 118.824L85.4036 120.324ZM83 120.294L81.7103 121.06C81.9773 121.51 82.4588 121.788 82.9814 121.794L83 120.294ZM81.7724 118.228L83.0621 117.462C82.934 117.246 82.754 117.066 82.5385 116.938L81.7724 118.228ZM79.7058 117L78.2059 117.019C78.2124 117.541 78.4904 118.023 78.9397 118.29L79.7058 117ZM79.676 114.596L81.1759 114.578C81.1728 114.327 81.1069 114.081 80.9842 113.863L79.676 114.596ZM78.5 112.5L77.1918 111.766C76.9361 112.222 76.9361 112.778 77.1918 113.234L78.5 112.5ZM79.676 110.404L80.9842 111.137C81.1069 110.919 81.1728 110.673 81.1759 110.422L79.676 110.404ZM79.7058 108L78.9397 106.71C78.4904 106.977 78.2124 107.459 78.2059 107.981L79.7058 108ZM81.7724 106.772L82.5385 108.062C82.754 107.934 82.934 107.754 83.0621 107.538L81.7724 106.772ZM83 104.706L82.9814 103.206C82.4588 103.212 81.9773 103.49 81.7103 103.94L83 104.706ZM85.4036 104.676L85.4222 106.176C85.6729 106.173 85.9187 106.107 86.1374 105.984L85.4036 104.676ZM82.25 130.5H80.75C80.75 131.035 81.0346 131.529 81.4971 131.797C81.9596 132.066 82.53 132.068 82.9942 131.802L82.25 130.5ZM87.5 127.5L88.2442 126.198C87.7831 125.934 87.217 125.934 86.7559 126.198L87.5 127.5ZM92.75 130.5L92.0058 131.802C92.4701 132.068 93.0404 132.066 93.5028 131.797C93.9653 131.529 94.25 131.035 94.25 130.5H92.75ZM86.7662 104.808L88.8626 105.984L90.3304 103.368L88.2338 102.192L86.7662 104.808ZM89.5778 106.176L91.9814 106.206L92.0186 103.206L89.615 103.176L89.5778 106.176ZM90.7103 105.472L91.9379 107.538L94.5172 106.006L93.2897 103.94L90.7103 105.472ZM92.4616 108.062L94.5282 109.29L96.0602 106.71L93.9937 105.483L92.4616 108.062ZM93.7943 108.019L93.8242 110.422L96.8239 110.385L96.7941 107.981L93.7943 108.019ZM94.0157 111.137L95.1917 113.234L97.8083 111.766L96.6323 109.67L94.0157 111.137ZM95.1917 111.766L94.0157 113.863L96.6323 115.33L97.8083 113.234L95.1917 111.766ZM93.8242 114.578L93.7943 116.981L96.7941 117.019L96.8239 114.615L93.8242 114.578ZM91.9814 118.794L89.5778 118.824L89.615 121.824L92.0186 121.794L91.9814 118.794ZM85.4222 118.824L83.0186 118.794L82.9814 121.794L85.385 121.824L85.4222 118.824ZM81.2057 116.981L81.1759 114.578L78.1761 114.615L78.2059 117.019L81.2057 116.981ZM80.9842 113.863L79.8082 111.766L77.1918 113.234L78.3678 115.33L80.9842 113.863ZM79.8082 113.234L80.9842 111.137L78.3678 109.67L77.1918 111.766L79.8082 113.234ZM81.1759 110.422L81.2057 108.019L78.2059 107.981L78.1761 110.385L81.1759 110.422ZM80.4718 109.29L82.5385 108.062L81.0064 105.483L78.9397 106.71L80.4718 109.29ZM83.0621 107.538L84.2897 105.472L81.7103 103.94L80.4828 106.006L83.0621 107.538ZM83.0186 106.206L85.4222 106.176L85.385 103.176L82.9814 103.206L83.0186 106.206ZM86.1374 105.984L88.2338 104.808L86.7662 102.192L84.6697 103.368L86.1374 105.984ZM94.5282 115.71L92.4616 116.938L93.9937 119.517L96.0602 118.29L94.5282 115.71ZM82.5385 116.938L80.4718 115.71L78.9397 118.29L81.0064 119.517L82.5385 116.938ZM88.8626 119.016L86.7662 120.192L88.2338 122.808L90.3304 121.632L88.8626 119.016ZM88.2338 120.192L86.1374 119.016L84.6697 121.632L86.7662 122.808L88.2338 120.192ZM82.9942 131.802L88.2442 128.802L86.7559 126.198L81.5058 129.198L82.9942 131.802ZM86.7559 128.802L92.0058 131.802L93.4942 129.198L88.2442 126.198L86.7559 128.802ZM94.25 130.5V119.032H91.25V130.5H94.25ZM91.9379 117.462L91.4603 118.266L94.0397 119.798L94.5172 118.994L91.9379 117.462ZM91.4603 118.266L90.7103 119.528L93.2897 121.06L94.0397 119.798L91.4603 118.266ZM80.75 119.032V130.5H83.75V119.032H80.75ZM84.2897 119.528L83.5397 118.266L80.9603 119.798L81.7103 121.06L84.2897 119.528ZM83.5397 118.266L83.0621 117.462L80.4828 118.994L80.9603 119.798L83.5397 118.266ZM89 112.5C89 113.328 88.3285 114 87.5 114V117C89.9854 117 92 114.985 92 112.5H89ZM87.5 114C86.6716 114 86 113.328 86 112.5H83C83 114.985 85.0147 117 87.5 117V114ZM86 112.5C86 111.672 86.6716 111 87.5 111V108C85.0147 108 83 110.015 83 112.5H86ZM87.5 111C88.3285 111 89 111.672 89 112.5H92C92 110.015 89.9854 108 87.5 108V111Z" fill="#FFD900"/>
</svg>
