<svg width="59" height="15" viewBox="0 0 59 15" fill="none" xmlns="http://www.w3.org/2000/svg">
<path d="M4.17599 0.223949C4.85865 0.223949 5.48265 0.389283 6.04799 0.71995C6.61332 1.05062 7.06132 1.50395 7.39199 2.07995C7.73332 2.64528 7.90399 3.26928 7.90399 3.95195C7.90399 4.62395 7.73332 5.24795 7.39199 5.82395C7.06132 6.38928 6.60799 6.84262 6.03199 7.18395C5.46665 7.51462 4.84799 7.67995 4.17599 7.67995H2.39999V11.424H-1.26362e-05V0.223949H4.17599ZM4.17599 5.39195C4.57065 5.39195 4.90665 5.25328 5.18399 4.97595C5.47199 4.68795 5.61599 4.34662 5.61599 3.95195C5.61599 3.54662 5.47732 3.20528 5.19999 2.92795C4.92265 2.65062 4.58132 2.51195 4.17599 2.51195H2.39999V5.39195H4.17599ZM14.287 3.26395L14.127 5.42395C14.0523 5.39195 13.9297 5.37595 13.759 5.37595C13.1083 5.37595 12.575 5.56262 12.159 5.93595C11.7537 6.29862 11.551 6.77862 11.551 7.37595V11.424H9.26299V3.42395H11.551V4.71995C11.743 4.30395 12.0523 3.95728 12.479 3.67995C12.9057 3.40262 13.423 3.26395 14.031 3.26395H14.287ZM18.8675 11.664C18.0995 11.664 17.3902 11.4773 16.7395 11.104C16.0995 10.72 15.5875 10.2026 15.2035 9.55195C14.8302 8.90128 14.6435 8.19728 14.6435 7.43995C14.6435 6.67195 14.8302 5.96795 15.2035 5.32795C15.5875 4.67728 16.0995 4.16528 16.7395 3.79195C17.3902 3.40795 18.0995 3.21595 18.8675 3.21595C19.6248 3.21595 20.3235 3.40795 20.9635 3.79195C21.6142 4.16528 22.1262 4.67728 22.4995 5.32795C22.8835 5.96795 23.0755 6.67195 23.0755 7.43995C23.0755 8.19728 22.8835 8.90128 22.4995 9.55195C22.1262 10.2026 21.6142 10.72 20.9635 11.104C20.3235 11.4773 19.6248 11.664 18.8675 11.664ZM18.8515 9.37595C19.3848 9.37595 19.8435 9.18928 20.2275 8.81595C20.6115 8.43195 20.8035 7.97328 20.8035 7.43995C20.8035 6.90662 20.6115 6.44795 20.2275 6.06395C19.8435 5.67995 19.3848 5.48795 18.8515 5.48795C18.3182 5.48795 17.8595 5.67995 17.4755 6.06395C17.1022 6.44795 16.9155 6.90662 16.9155 7.43995C16.9155 7.97328 17.1022 8.43195 17.4755 8.81595C17.8595 9.18928 18.3182 9.37595 18.8515 9.37595ZM25.5787 2.57595C25.1521 2.57595 24.8161 2.46395 24.5707 2.23995C24.3361 2.00528 24.2187 1.69062 24.2187 1.29595C24.2187 0.890617 24.3361 0.57595 24.5707 0.35195C24.8161 0.117283 25.1521 -5.05447e-05 25.5787 -5.05447e-05C25.9947 -5.05447e-05 26.3254 0.117283 26.5707 0.35195C26.8161 0.586617 26.9387 0.901283 26.9387 1.29595C26.9387 1.69062 26.8161 2.00528 26.5707 2.23995C26.3254 2.46395 25.9947 2.57595 25.5787 2.57595ZM24.4427 3.42395H26.7147V11.648C26.7147 12.3413 26.5547 12.9386 26.2347 13.44C25.9147 13.9413 25.4667 14.3093 24.8907 14.544C24.3147 14.7893 23.6587 14.8853 22.9227 14.832V12.64C23.0081 12.6506 23.1307 12.656 23.2907 12.656C23.6961 12.656 23.9894 12.576 24.1707 12.416C24.3521 12.2666 24.4427 12.0106 24.4427 11.648V3.42395ZM32.1331 3.21595C32.9118 3.21595 33.6051 3.40262 34.2131 3.77595C34.8318 4.14928 35.3118 4.65595 35.6531 5.29595C35.9944 5.93595 36.1651 6.64528 36.1651 7.42395C36.1651 7.72262 36.1438 7.99462 36.1011 8.23995H30.1811C30.3838 8.73062 30.6558 9.09862 30.9971 9.34395C31.3384 9.57862 31.7811 9.69595 32.3251 9.69595C32.6558 9.69595 32.9758 9.62662 33.2851 9.48795C33.6051 9.34928 33.8558 9.16262 34.0371 8.92795L35.7651 9.95195C35.3918 10.496 34.9064 10.912 34.3091 11.2C33.7224 11.488 33.0451 11.632 32.2771 11.632C31.4131 11.632 30.6504 11.4506 29.9891 11.088C29.3278 10.7146 28.8158 10.208 28.4531 9.56795C28.0904 8.92795 27.9091 8.21328 27.9091 7.42395C27.9091 6.63462 28.0851 5.91995 28.4371 5.27995C28.7998 4.63995 29.3011 4.13862 29.9411 3.77595C30.5811 3.40262 31.3118 3.21595 32.1331 3.21595ZM34.0211 6.46395C33.9464 6.05862 33.7331 5.74395 33.3811 5.51995C33.0398 5.29595 32.6184 5.18395 32.1171 5.18395C31.5944 5.18395 31.1411 5.31195 30.7571 5.56795C30.3731 5.81328 30.1704 6.11195 30.1491 6.46395H34.0211ZM44.5887 9.85595C44.1941 10.4106 43.6927 10.8533 43.0847 11.184C42.4874 11.504 41.8421 11.664 41.1487 11.664C40.3807 11.664 39.6714 11.4773 39.0207 11.104C38.3807 10.72 37.8687 10.2026 37.4847 9.55195C37.1114 8.90128 36.9247 8.19728 36.9247 7.43995C36.9247 6.67195 37.1114 5.96795 37.4847 5.32795C37.8687 4.67728 38.3807 4.16528 39.0207 3.79195C39.6714 3.40795 40.3807 3.21595 41.1487 3.21595C41.8421 3.21595 42.4874 3.37595 43.0847 3.69595C43.6821 4.01595 44.1781 4.44795 44.5727 4.99195L42.6847 6.23995C42.2367 5.73862 41.7247 5.48795 41.1487 5.48795C40.6154 5.48795 40.1567 5.67995 39.7727 6.06395C39.3887 6.44795 39.1967 6.90662 39.1967 7.43995C39.1967 7.97328 39.3887 8.43195 39.7727 8.81595C40.1567 9.18928 40.6154 9.37595 41.1487 9.37595C41.7247 9.37595 42.2367 9.12528 42.6847 8.62395L44.5887 9.85595ZM48.7234 8.57595C48.7234 8.87462 48.8034 9.08262 48.9634 9.19995C49.134 9.31728 49.39 9.37595 49.7314 9.37595C49.9447 9.37595 50.1794 9.35995 50.4354 9.32795V11.424C49.902 11.4773 49.4594 11.504 49.1074 11.504C48.2114 11.504 47.5394 11.3066 47.0914 10.912C46.654 10.5066 46.4354 9.77595 46.4354 8.71995V5.45595H45.0594V3.42395H46.4354V1.56795L48.7234 0.79995V3.42395H50.4034V5.45595H48.7234V8.57595ZM53.7954 5.69595C53.7954 5.87728 53.9074 6.01595 54.1314 6.11195C54.3554 6.19728 54.7127 6.28795 55.2034 6.38395C55.8327 6.51195 56.3554 6.65595 56.7714 6.81595C57.1874 6.96528 57.55 7.22128 57.8594 7.58395C58.1794 7.93595 58.3394 8.42662 58.3394 9.05595C58.3394 9.59995 58.174 10.0693 57.8434 10.464C57.5127 10.848 57.0754 11.1413 56.5314 11.344C55.9874 11.536 55.4007 11.632 54.7714 11.632C53.9074 11.632 53.1714 11.4773 52.5634 11.168C51.9554 10.848 51.4967 10.3786 51.1874 9.75995L53.0594 8.79995C53.3154 9.48262 53.886 9.82395 54.7714 9.82395C55.134 9.82395 55.4487 9.75995 55.7154 9.63195C55.9927 9.49328 56.1314 9.30128 56.1314 9.05595C56.1314 8.84262 56.0034 8.68262 55.7474 8.57595C55.502 8.46928 55.1074 8.35728 54.5634 8.23995C53.9447 8.10128 53.4274 7.95728 53.0114 7.80795C52.5954 7.64795 52.238 7.40795 51.9394 7.08795C51.6407 6.75728 51.4914 6.31995 51.4914 5.77595C51.4914 5.25328 51.6407 4.79995 51.9394 4.41595C52.238 4.02128 52.638 3.72262 53.1394 3.51995C53.6514 3.31728 54.206 3.21595 54.8034 3.21595C55.5074 3.21595 56.142 3.35995 56.7074 3.64795C57.2727 3.93595 57.7154 4.35195 58.0354 4.89595L56.1794 5.80795C56.0514 5.54128 55.8754 5.34395 55.6514 5.21595C55.438 5.08795 55.1554 5.02395 54.8034 5.02395C54.494 5.02395 54.2487 5.08795 54.0674 5.21595C53.886 5.33328 53.7954 5.49328 53.7954 5.69595Z" fill="#EAEAEA"/>
</svg>
