<svg width="27" height="27" viewBox="0 0 27 27" fill="none" xmlns="http://www.w3.org/2000/svg">
<path d="M24.4972 15.8825C24.6628 15.1146 24.75 14.3174 24.75 13.5C24.75 12.2384 24.5423 11.0253 24.1594 9.89306L23.5666 9.85057L23.5654 9.85048L23.5546 9.84987C23.5431 9.84925 23.5237 9.84832 23.4967 9.84736C23.4427 9.84545 23.3583 9.8435 23.2461 9.84399C23.0217 9.84495 22.6869 9.8557 22.2632 9.89601C21.4153 9.97669 20.2161 10.1754 18.836 10.6485C18.5399 10.75 18.2023 10.9325 17.7581 11.1949C17.669 11.2476 17.5759 11.3033 17.4791 11.3611C17.1166 11.5779 16.702 11.8259 16.2551 12.0593C15.0964 12.6648 13.6421 13.2188 11.7416 13.2188C9.02134 13.2188 6.7843 12.3147 5.23824 11.4229C4.46373 10.9761 3.85582 10.5286 3.43858 10.19C3.22972 10.0205 3.06787 9.87763 2.95606 9.77496C2.93564 9.7562 2.91688 9.73879 2.8998 9.72278C2.47908 10.9034 2.25 12.1749 2.25 13.5C2.25 13.9842 2.28059 14.4612 2.33993 14.9293L2.77208 14.9076L2.77499 14.9075L2.78398 14.907L2.81446 14.9058C2.84024 14.9049 2.87687 14.9036 2.92369 14.9025C3.01733 14.9003 3.15182 14.8983 3.32192 14.8994C3.66194 14.9014 4.14546 14.9149 4.73032 14.9607C5.89678 15.052 7.483 15.2729 9.14422 15.7955C9.65118 15.9551 10.1554 16.2156 10.6371 16.4767C10.7491 16.5375 10.8607 16.5987 10.9727 16.6601C11.3624 16.874 11.7576 17.0906 12.1956 17.3008C13.2979 17.8293 14.6082 18.2814 16.3228 18.2814C17.8783 18.2814 19.3173 17.894 20.6004 17.4197C21.2427 17.1824 21.8361 16.9272 22.3899 16.689L22.4104 16.6801C22.9443 16.4505 23.4637 16.2271 23.9206 16.0748L24.4972 15.8825Z" fill="white"/>
<path d="M23.8567 17.9009C23.6164 17.9988 23.3514 18.1125 23.0567 18.2393L23.0453 18.2442C22.4983 18.4795 21.8702 18.7496 21.1855 19.0026C19.8054 19.5127 18.1558 19.969 16.3229 19.969C14.2831 19.969 12.7199 19.4237 11.466 18.8224C10.982 18.5903 10.5341 18.3445 10.1393 18.1278C10.0334 18.0697 9.93088 18.0134 9.83291 17.9603C9.34984 17.6984 8.97323 17.5109 8.63787 17.4054C7.13294 16.9318 5.67994 16.7278 4.5987 16.6431C4.0597 16.6009 3.61725 16.5886 3.31225 16.5869C3.15986 16.586 3.04209 16.5877 2.96409 16.5896C2.92509 16.5905 2.89606 16.5915 2.87764 16.5922L2.85805 16.593L2.85489 16.5931L2.68311 16.6018C4.02967 21.3065 8.36275 24.75 13.5001 24.75C18.1516 24.75 22.1437 21.9271 23.8567 17.9009Z" fill="white"/>
<path d="M3.04836 9.32957C3.12917 9.25012 3.23375 9.14738 3.36909 9.01453L3.04836 9.32957Z" fill="white"/>
<path d="M3.6416 8.07601L3.97594 8.41662L3.97948 8.42016L4.00056 8.44081C4.02076 8.4604 4.05322 8.49134 4.09752 8.53203C4.18618 8.61345 4.32204 8.73361 4.50205 8.87969C4.86258 9.17227 5.39716 9.56636 6.08155 9.96114C7.45325 10.7524 9.39962 11.5314 11.7417 11.5314C13.2871 11.5314 14.4701 11.0881 15.4737 10.5637C15.8732 10.355 16.2329 10.14 16.5903 9.9264C16.6933 9.86478 16.7962 9.80326 16.8998 9.74205C17.3411 9.48138 17.8119 9.21577 18.2889 9.05226C19.8145 8.52925 21.1466 8.30718 22.1034 8.21613C22.5822 8.17057 22.9682 8.1577 23.2389 8.15653C23.2994 8.15627 23.3542 8.1566 23.4029 8.15726C21.5011 4.63959 17.7797 2.25 13.5001 2.25C9.25356 2.25 5.55657 4.60284 3.6416 8.07601Z" fill="white"/>
<path d="M23.6507 8.6435L23.625 9.00699C23.6354 8.86267 23.6436 8.74246 23.6507 8.6435Z" fill="white"/>
</svg>
