<svg width="179" height="167" viewBox="0 0 179 167" fill="none" xmlns="http://www.w3.org/2000/svg">
<path d="M74.8143 159.531C74.8143 159.894 74.9118 160.148 75.1067 160.291C75.3146 160.434 75.6264 160.505 76.0422 160.505C76.3021 160.505 76.588 160.486 76.8998 160.447V163C76.2501 163.065 75.7109 163.097 75.2821 163.097C74.1906 163.097 73.372 162.857 72.8262 162.376C72.2935 161.883 72.0271 160.992 72.0271 159.706V155.73H70.3508V153.254H72.0271V150.993L74.8143 150.058V153.254H76.8609V155.73H74.8143V159.531ZM85.9437 153.254H88.7114V163H85.9437V162.259C85.5149 162.584 85.0406 162.831 84.5209 163C84.0141 163.182 83.5008 163.273 82.9811 163.273C81.9675 163.273 81.0904 163.052 80.3498 162.61C79.6221 162.168 79.0634 161.564 78.6735 160.798C78.2837 160.018 78.0888 159.134 78.0888 158.147C78.0888 157.159 78.2837 156.276 78.6735 155.496C79.0634 154.703 79.6221 154.086 80.3498 153.644C81.0904 153.202 81.9675 152.982 82.9811 152.982C83.5138 152.982 84.0336 153.073 84.5404 153.254C85.0471 153.436 85.5149 153.69 85.9437 154.015V153.254ZM83.3514 160.622C84.0791 160.622 84.6898 160.388 85.1836 159.92C85.6773 159.453 85.9242 158.848 85.9242 158.108C85.9242 157.393 85.6773 156.808 85.1836 156.354C84.6898 155.899 84.0791 155.671 83.3514 155.671C82.6237 155.671 82.026 155.899 81.5582 156.354C81.0904 156.808 80.8565 157.406 80.8565 158.147C80.8565 158.887 81.0904 159.485 81.5582 159.94C82.026 160.395 82.6237 160.622 83.3514 160.622ZM95.623 153.001C96.5716 153.001 97.4162 153.228 98.1569 153.683C98.9105 154.138 99.4952 154.755 99.9111 155.535C100.327 156.315 100.535 157.179 100.535 158.127C100.535 158.491 100.509 158.822 100.457 159.121H93.2451C93.492 159.719 93.8233 160.167 94.2392 160.466C94.655 160.752 95.1942 160.895 95.8569 160.895C96.2597 160.895 96.6496 160.811 97.0264 160.642C97.4162 160.473 97.7216 160.245 97.9425 159.959L100.047 161.207C99.5927 161.87 99.0015 162.376 98.2738 162.727C97.5591 163.078 96.734 163.253 95.7984 163.253C94.7459 163.253 93.8168 163.032 93.0112 162.591C92.2056 162.136 91.5819 161.519 91.1401 160.739C90.6983 159.959 90.4774 159.089 90.4774 158.127C90.4774 157.166 90.6918 156.295 91.1206 155.515C91.5624 154.736 92.1731 154.125 92.9527 153.683C93.7324 153.228 94.6225 153.001 95.623 153.001ZM97.923 156.958C97.832 156.464 97.5721 156.081 97.1433 155.808C96.7275 155.535 96.2142 155.398 95.6035 155.398C94.9668 155.398 94.4146 155.554 93.9468 155.866C93.479 156.165 93.2321 156.529 93.2061 156.958H97.923ZM109.413 149.356H112.18V163H109.413V162.259C108.984 162.584 108.516 162.831 108.009 163C107.515 163.182 107.002 163.273 106.469 163.273C105.456 163.273 104.579 163.052 103.838 162.61C103.11 162.168 102.552 161.564 102.162 160.798C101.772 160.018 101.577 159.134 101.577 158.147C101.577 157.159 101.772 156.276 102.162 155.496C102.552 154.703 103.11 154.086 103.838 153.644C104.579 153.202 105.456 152.982 106.469 152.982C106.989 152.982 107.502 153.073 108.009 153.254C108.516 153.423 108.984 153.67 109.413 153.995V149.356ZM106.84 160.622C107.567 160.622 108.178 160.388 108.672 159.92C109.166 159.453 109.413 158.848 109.413 158.108C109.413 157.393 109.166 156.808 108.672 156.354C108.178 155.899 107.567 155.671 106.84 155.671C106.112 155.671 105.514 155.899 105.047 156.354C104.579 156.808 104.345 157.406 104.345 158.147C104.345 158.887 104.579 159.485 105.047 159.94C105.514 160.395 106.112 160.622 106.84 160.622ZM121.652 153.254H124.42V163H121.652V162.259C121.223 162.584 120.749 162.831 120.229 163C119.722 163.182 119.209 163.273 118.689 163.273C117.676 163.273 116.799 163.052 116.058 162.61C115.33 162.168 114.772 161.564 114.382 160.798C113.992 160.018 113.797 159.134 113.797 158.147C113.797 157.159 113.992 156.276 114.382 155.496C114.772 154.703 115.33 154.086 116.058 153.644C116.799 153.202 117.676 152.982 118.689 152.982C119.222 152.982 119.742 153.073 120.249 153.254C120.755 153.436 121.223 153.69 121.652 154.015V153.254ZM119.06 160.622C119.787 160.622 120.398 160.388 120.892 159.92C121.386 159.453 121.633 158.848 121.633 158.108C121.633 157.393 121.386 156.808 120.892 156.354C120.398 155.899 119.787 155.671 119.06 155.671C118.332 155.671 117.734 155.899 117.267 156.354C116.799 156.808 116.565 157.406 116.565 158.147C116.565 158.887 116.799 159.485 117.267 159.94C117.734 160.395 118.332 160.622 119.06 160.622ZM129.328 159.92C129.328 160.128 129.373 160.278 129.464 160.369C129.568 160.46 129.737 160.505 129.971 160.505C130.14 160.505 130.341 160.486 130.575 160.447V163C129.939 163.091 129.445 163.136 129.094 163.136C128.249 163.136 127.613 162.916 127.184 162.474C126.755 162.019 126.541 161.226 126.541 160.096V149.356H129.328V159.92Z" fill="white"/>
<mask id="mask0_24_3362" style="mask-type:luminance" maskUnits="userSpaceOnUse" x="23" y="0" width="156" height="156">
<path d="M179 0H23V156H179V0Z" fill="white"/>
</mask>
<g mask="url(#mask0_24_3362)">
<path d="M160.642 34.1578H94.8786L80.2645 19.5437H43.7293C35.6916 19.5437 29.1152 26.12 29.1152 34.1578V92.5392C89.4248 121.181 103.122 134.004 175.256 92.5392V48.7718C175.256 40.7341 168.68 34.1578 160.642 34.1578Z" fill="#5D5D5D"/>
<path d="M117.381 32.6459C119.088 34.2309 121.239 41.7569 122.052 44.2713C123.322 48.1989 124.388 51.3943 125.995 55.1829C127.278 58.2038 127.805 63.0679 130.567 65.0246C132.365 66.2988 135.59 66.7983 136.049 69.524C136.531 72.3945 135.786 75.3573 134.156 77.7227C133.517 78.6492 131.606 80.2711 131.454 81.2303C130.887 84.8074 133.472 88.6087 132.937 92.2412C132.561 94.801 131.131 96.017 128.578 94.9358C127.813 94.6122 127.143 93.5452 126.11 94.066C124.645 95.6339 126.347 97.7183 124.565 99.1741C123.729 99.858 122.708 99.8921 121.668 99.6182C120.236 99.2422 119.58 97.0244 117.838 97.548C117.205 97.7382 113.412 102.269 112.355 103.16C108.308 106.574 102.336 109.189 97.0336 107.594C94.6299 106.872 90.9166 103.808 89.045 102.052C87.9879 101.06 84.9755 97.2642 83.9539 96.9365C81.7517 96.2312 81.6722 99.1486 80.8436 100.062C80.0674 100.919 78.796 100.919 77.8723 100.353C75.8517 99.1145 76.5456 94.9272 75.5935 94.6378C74.3193 94.249 73.0607 98.2092 70.5705 96.4029C69.1572 95.377 69.1799 92.7549 69.2849 91.1798C69.5361 87.4367 72.0759 83.4693 69.7006 79.9234C67.5637 76.7322 65.0579 75.9447 66.0171 71.2935C66.6272 68.3336 69.3516 67.4652 71.0756 65.4843C73.2579 62.9771 74.8046 58.7955 76.2065 55.759C78.7478 50.2506 79.06 45.0417 81.2749 39.5434C81.7446 38.3784 83.846 33.7271 84.5115 33.0233C85.4863 31.9932 86.5462 31.9123 87.7013 32.6927C89.6197 33.9911 91.9269 41.0659 93.15 43.4312C93.9857 45.0474 95.1748 47.4128 97.15 47.637C98.7619 47.82 105.034 47.8441 106.365 47.3078C108.141 46.5926 109.157 42.4451 109.869 40.8346C110.338 39.7775 111.064 38.8495 111.505 37.8137C112.161 36.2727 112.284 34.3089 113.371 33.0276C114.458 31.7463 116.087 31.4412 117.383 32.6431L117.381 32.6459ZM86.3348 41.6959C84.2447 42.2138 83.3891 47.9605 83.7297 49.7384C84.0546 51.4383 86.7265 49.7625 87.6459 49.229C89.7105 48.0286 89.8098 48.0981 89.2082 45.598C88.9414 44.4926 87.7651 41.3411 86.3348 41.6945V41.6959ZM114.407 42.1556C113.669 42.8622 112.592 47.0609 112.9 48.0924C113.385 49.7171 118.014 52.1009 118.523 50.3656C118.938 48.9594 117.929 43.6313 116.914 42.5316C116.341 41.9116 115.051 41.5384 114.407 42.1556ZM95.7097 85.7581C95.8346 80.2186 93.1926 69.4985 87.2685 67.4808C82.603 65.8916 79.7084 70.8536 79.3125 74.8153C78.7762 80.1774 80.2036 85.033 83.4104 89.2856C86.603 93.5168 92.3837 100.638 97.0308 102.946C102.945 105.883 108.3 102.621 112.003 97.9297C117.451 91.0294 123.495 83.9858 122.796 74.5584C122.36 68.6897 117.323 63.4198 112.242 68.9125C108.388 73.0785 106.742 80.237 106.362 85.7581C106.19 85.9582 103.967 84.4186 103.542 84.254C100.903 83.2253 99.2769 83.8766 96.9669 85.1309C96.5497 85.3579 96.3398 85.917 95.7112 85.7581H95.7097Z" fill="white"/>
<path d="M95.7105 85.7576C96.3391 85.9165 96.5491 85.3575 96.9662 85.1304C99.2763 83.8761 100.902 83.2248 103.542 84.2535C103.966 84.4181 106.189 85.9591 106.361 85.7576C106.741 80.2365 108.386 73.078 112.241 68.912C117.322 63.4193 122.36 68.6892 122.795 74.5579C123.496 83.9853 117.45 91.0289 112.003 97.9292C108.299 102.62 102.946 105.882 97.0301 102.945C92.3831 100.638 86.6023 93.5178 83.4097 89.2851C80.2015 85.0325 78.7755 80.1769 79.3118 74.8148C79.7077 70.8531 82.6023 65.8911 87.2678 67.4803C93.1919 69.498 95.8339 80.2181 95.7091 85.7576H95.7105ZM88.9904 71.6108C87.5899 71.8237 87.1188 75.4065 87.055 76.5643C86.9755 77.9989 87.1557 83.8051 89.1564 83.8988C90.6676 83.9683 91.1883 81.0198 91.2777 79.8946C91.3969 78.3791 91.5899 71.2163 88.9904 71.6108ZM113.407 71.6094C112.97 71.6917 112.756 71.9514 112.526 72.3004C111.285 74.1805 111.313 81.1191 112.529 83.0361C113.561 84.6622 114.682 83.7881 115.249 82.3337C116.136 80.0634 116.086 74.9709 115.059 72.7531C114.72 72.0209 114.354 71.4306 113.407 71.6094Z" fill="black"/>
<path d="M114.408 42.1554C115.053 41.5382 116.342 41.9113 116.915 42.5314C117.931 43.6311 118.938 48.9592 118.524 50.3654C118.013 52.1007 113.386 49.7169 112.901 48.0922C112.593 47.0607 113.67 42.862 114.408 42.1554Z" fill="black"/>
<path d="M86.3352 41.6957C87.7655 41.341 88.9418 44.4924 89.2086 45.5992C89.8116 48.0994 89.7109 48.0298 87.6464 49.2303C86.7269 49.7652 84.055 51.4395 83.7301 49.7397C83.3895 47.9603 84.2451 42.2136 86.3352 41.6971V41.6957Z" fill="black"/>
<path d="M113.407 71.6097C114.355 71.4295 114.719 72.0197 115.058 72.7533C116.087 74.9711 116.135 80.0651 115.248 82.334C114.681 83.7884 113.56 84.6624 112.528 83.0363C111.311 81.1194 111.283 74.1808 112.526 72.3007C112.755 71.9516 112.97 71.6934 113.407 71.6097Z" fill="white"/>
<path d="M88.9893 71.6112C91.5888 71.2167 91.3972 78.3795 91.2766 79.8949C91.1872 81.0201 90.6665 83.9687 89.1553 83.8991C87.1532 83.8069 86.9744 77.9992 87.0539 76.5647C87.1177 75.4082 87.5888 71.824 88.9893 71.6112Z" fill="white"/>
<path d="M96.8183 91.2775L99.7101 95.8139C100.144 96.1856 100.729 97.1534 101.35 97.0554L105.472 91.8281L105.14 91.2775H96.8169H96.8183Z" fill="white"/>
<path d="M160.642 83.6784H43.7293C35.6916 83.6784 29.1152 87.072 29.1152 91.2199V128.927C29.1152 133.075 35.6916 136.469 43.7293 136.469H160.642C168.68 136.469 175.256 133.075 175.256 128.927V91.2199C175.256 87.072 168.68 83.6784 160.642 83.6784Z" fill="#3F3F3F"/>
</g>
<path d="M31.9999 77.6667L33.3045 75.3409C32.4943 74.8864 31.5055 74.8864 30.6954 75.3409L31.9999 77.6667ZM35.7269 79.7573L34.4223 82.0831C34.8111 82.3011 35.2482 82.4183 35.6938 82.4238L35.7269 79.7573ZM39.9999 79.8103L42.2927 78.4484C41.8181 77.6496 40.9621 77.1553 40.033 77.1438L39.9999 79.8103ZM42.1823 83.4843L39.8895 84.8462C40.1173 85.2294 40.4373 85.5494 40.8205 85.777L42.1823 83.4843ZM45.8565 85.6667L48.5229 85.6336C48.5114 84.7046 48.017 83.8485 47.2181 83.374L45.8565 85.6667ZM45.9093 89.9397L43.2429 89.9727C43.2482 90.4184 43.3655 90.8556 43.5834 91.2443L45.9093 89.9397ZM47.9999 93.6667L50.3258 94.9713C50.7802 94.1609 50.7802 93.1724 50.3258 92.362L47.9999 93.6667ZM45.9093 97.3936L43.5834 96.089C43.3655 96.4779 43.2482 96.9149 43.2429 97.3605L45.9093 97.3936ZM45.8565 101.667L47.2181 103.959C48.017 103.485 48.5114 102.629 48.5229 101.7L45.8565 101.667ZM42.1823 103.849L40.8205 101.556C40.4373 101.784 40.1173 102.104 39.8895 102.487L42.1823 103.849ZM39.9999 107.523L40.033 110.19C40.9621 110.178 41.8181 109.684 42.2927 108.885L39.9999 107.523ZM35.7269 107.576L35.6938 104.91C35.2482 104.915 34.8111 105.032 34.4223 105.25L35.7269 107.576ZM31.9999 109.667L30.6954 111.993C31.5055 112.447 32.4943 112.447 33.3045 111.993L31.9999 109.667ZM28.273 107.576L29.5775 105.25C29.1887 105.032 28.7517 104.915 28.3061 104.91L28.273 107.576ZM23.9999 107.523L21.7072 108.885C22.1817 109.684 23.0378 110.178 23.9669 110.19L23.9999 107.523ZM21.8176 103.849L24.1103 102.487C23.8827 102.104 23.5626 101.784 23.1794 101.556L21.8176 103.849ZM18.1435 101.667L15.477 101.7C15.4886 102.629 15.9828 103.485 16.7817 103.959L18.1435 101.667ZM18.0906 97.3936L20.757 97.3605C20.7515 96.9149 20.6344 96.4779 20.4163 96.089L18.0906 97.3936ZM15.9999 93.6667L13.6742 92.362C13.2196 93.1724 13.2196 94.1609 13.6742 94.9713L15.9999 93.6667ZM18.0906 89.9397L20.4163 91.2443C20.6344 90.8556 20.7515 90.4184 20.757 89.9727L18.0906 89.9397ZM18.1435 85.6667L16.7817 83.374C15.9828 83.8485 15.4886 84.7046 15.477 85.6337L18.1435 85.6667ZM21.8176 83.4843L23.1794 85.777C23.5626 85.5494 23.8827 85.2294 24.1103 84.8462L21.8176 83.4843ZM23.9999 79.8103L23.9669 77.1438C23.0378 77.1553 22.1817 77.6496 21.7072 78.4484L23.9999 79.8103ZM28.273 79.7573L28.3061 82.4238C28.7517 82.4183 29.1887 82.3011 29.5775 82.0831L28.273 79.7573ZM22.6666 125.667H19.9999C19.9999 126.617 20.506 127.496 21.3281 127.973C22.1503 128.45 23.1643 128.454 23.9896 127.982L22.6666 125.667ZM31.9999 120.333L33.3229 118.018C32.5031 117.55 31.4967 117.55 30.677 118.018L31.9999 120.333ZM41.3333 125.667L40.0103 127.982C40.8357 128.454 41.8495 128.45 42.6717 127.973C43.4938 127.496 43.9999 126.617 43.9999 125.667H41.3333ZM30.6954 79.9924L34.4223 82.0831L37.0317 77.4316L33.3045 75.3409L30.6954 79.9924ZM35.6938 82.4238L39.9669 82.4767L40.033 77.1438L35.7599 77.0909L35.6938 82.4238ZM37.7071 81.1721L39.8895 84.8462L44.4749 82.1225L42.2927 78.4484L37.7071 81.1721ZM40.8205 85.777L44.4946 87.9594L47.2181 83.374L43.5442 81.1916L40.8205 85.777ZM43.1898 85.6997L43.2429 89.9727L48.5757 89.9066L48.5229 85.6336L43.1898 85.6997ZM43.5834 91.2443L45.6741 94.9713L50.3258 92.362L48.2351 88.635L43.5834 91.2443ZM45.6741 92.362L43.5834 96.089L48.2351 98.6984L50.3258 94.9713L45.6741 92.362ZM43.2429 97.3605L43.1898 101.634L48.5229 101.7L48.5757 97.4267L43.2429 97.3605ZM39.9669 104.857L35.6938 104.91L35.7599 110.242L40.033 110.19L39.9669 104.857ZM28.3061 104.91L24.033 104.857L23.9669 110.19L28.2399 110.242L28.3061 104.91ZM20.81 101.634L20.757 97.3605L15.4241 97.4267L15.477 101.7L20.81 101.634ZM20.4163 96.089L18.3257 92.362L13.6742 94.9713L15.7649 98.6984L20.4163 96.089ZM18.3257 94.9713L20.4163 91.2443L15.7649 88.635L13.6742 92.362L18.3257 94.9713ZM20.757 89.9727L20.81 85.6997L15.477 85.6337L15.4241 89.9066L20.757 89.9727ZM19.5054 87.9594L23.1794 85.777L20.4558 81.1916L16.7817 83.374L19.5054 87.9594ZM24.1103 84.8462L26.2926 81.1721L21.7072 78.4484L19.5249 82.1225L24.1103 84.8462ZM24.0329 82.4767L28.3061 82.4238L28.2399 77.0909L23.9669 77.1438L24.0329 82.4767ZM29.5775 82.0831L33.3045 79.9924L30.6954 75.3409L26.9682 77.4316L29.5775 82.0831ZM44.4946 99.3739L40.8205 101.556L43.5442 106.142L47.2181 103.959L44.4946 99.3739ZM23.1794 101.556L19.5054 99.3739L16.7817 103.959L20.4558 106.142L23.1794 101.556ZM34.4223 105.25L30.6954 107.341L33.3045 111.993L37.0317 109.902L34.4223 105.25ZM33.3045 107.341L29.5775 105.25L26.9682 109.902L30.6954 111.993L33.3045 107.341ZM23.9896 127.982L33.3229 122.649L30.677 118.018L21.3436 123.351L23.9896 127.982ZM30.677 122.649L40.0103 127.982L42.6562 123.351L33.3229 118.018L30.677 122.649ZM43.9999 125.667V105.278H38.6666V125.667H43.9999ZM39.8895 102.487L39.0405 103.917L43.6261 106.64L44.4749 105.211L39.8895 102.487ZM39.0405 103.917L37.7071 106.161L42.2927 108.885L43.6261 106.64L39.0405 103.917ZM19.9999 105.278V125.667H25.3333V105.278H19.9999ZM26.2926 106.161L24.9593 103.917L20.3739 106.64L21.7072 108.885L26.2926 106.161ZM24.9593 103.917L24.1103 102.487L19.5249 105.211L20.3739 106.64L24.9593 103.917ZM34.6666 93.6667C34.6666 95.1394 33.4727 96.3333 31.9999 96.3333V101.667C36.4183 101.667 39.9999 98.0851 39.9999 93.6667H34.6666ZM31.9999 96.3333C30.5271 96.3333 29.3333 95.1394 29.3333 93.6667H23.9999C23.9999 98.0851 27.5815 101.667 31.9999 101.667V96.3333ZM29.3333 93.6667C29.3333 92.1939 30.5271 91 31.9999 91V85.6667C27.5815 85.6667 23.9999 89.2484 23.9999 93.6667H29.3333ZM31.9999 91C33.4727 91 34.6666 92.1939 34.6666 93.6667H39.9999C39.9999 89.2484 36.4183 85.6667 31.9999 85.6667V91Z" fill="#FFD900"/>
</svg>
