<svg width="23" height="23" viewBox="0 0 23 23" fill="none" xmlns="http://www.w3.org/2000/svg">
<g clip-path="url(#clip0_10_67)">
<path fill-rule="evenodd" clip-rule="evenodd" d="M23 11.5C23 5.14894 17.8511 0 11.5 0C5.14894 0 0 5.14894 0 11.5C0 17.8511 5.14894 23 11.5 23C17.8511 23 23 17.8511 23 11.5ZM5.20555 11.3787C8.55807 9.91785 10.7934 8.95518 11.9119 8.48979C15.1059 7.16145 15.7694 6.93055 16.202 6.92291C16.2972 6.92156 16.5097 6.94492 16.6476 7.05678C16.7639 7.15111 16.7958 7.27869 16.8111 7.36809C16.8264 7.45793 16.8457 7.66143 16.8304 7.8209C16.6575 9.63934 15.9086 14.052 15.5277 16.0888C15.3664 16.9508 15.0488 17.2397 14.7416 17.268C14.074 17.3295 13.5669 16.8264 12.92 16.4023C11.9079 15.7393 11.336 15.326 10.3536 14.6787C9.21797 13.9303 9.95424 13.5192 10.6011 12.8472C10.7705 12.6711 13.7129 9.99467 13.7699 9.75209C13.7771 9.72154 13.7838 9.60834 13.7164 9.54859C13.6491 9.48885 13.5498 9.50951 13.4784 9.52568C13.3768 9.54859 11.7601 10.6173 8.6277 12.7318C8.16859 13.0471 7.75262 13.2003 7.38021 13.1927C6.96963 13.1837 6.1799 12.9604 5.59277 12.7695C4.87268 12.5354 4.30037 12.4115 4.35023 12.0139C4.37584 11.8068 4.66109 11.5952 5.20555 11.3787Z" fill="white"/>
</g>
<defs>
<clipPath id="clip0_10_67">
<rect width="23" height="23" fill="white"/>
</clipPath>
</defs>
</svg>
