<svg width="85" height="12" viewBox="0 0 85 12" fill="none" xmlns="http://www.w3.org/2000/svg">
<path d="M8.32 0.479931V2.75193H5.36V11.6799H2.944V2.75193H9.83477e-07V0.479931H8.32ZM11.8096 3.47193C12.5883 3.47193 13.2816 3.6586 13.8896 4.03193C14.5083 4.40526 14.9883 4.91193 15.3296 5.55193C15.671 6.19193 15.8416 6.90126 15.8416 7.67993C15.8416 7.9786 15.8203 8.2506 15.7776 8.49593H9.85763C10.0603 8.9866 10.3323 9.3546 10.6736 9.59993C11.015 9.8346 11.4576 9.95193 12.0016 9.95193C12.3323 9.95193 12.6523 9.8826 12.9616 9.74393C13.2816 9.60526 13.5323 9.4186 13.7136 9.18393L15.4416 10.2079C15.0683 10.7519 14.583 11.1679 13.9856 11.4559C13.399 11.7439 12.7216 11.8879 11.9536 11.8879C11.0896 11.8879 10.327 11.7066 9.66563 11.3439C9.00429 10.9706 8.49229 10.4639 8.12963 9.82393C7.76696 9.18393 7.58563 8.46926 7.58563 7.67993C7.58563 6.8906 7.76163 6.17593 8.11363 5.53593C8.47629 4.89593 8.97763 4.3946 9.61763 4.03193C10.2576 3.6586 10.9883 3.47193 11.8096 3.47193ZM13.6976 6.71993C13.623 6.3146 13.4096 5.99993 13.0576 5.77593C12.7163 5.55193 12.295 5.43993 11.7936 5.43993C11.271 5.43993 10.8176 5.56793 10.4336 5.82393C10.0496 6.06926 9.84696 6.36793 9.82563 6.71993H13.6976ZM19.0813 5.95193C19.0813 6.13326 19.1933 6.27193 19.4173 6.36793C19.6413 6.45326 19.9986 6.54393 20.4893 6.63993C21.1186 6.76793 21.6413 6.91193 22.0573 7.07193C22.4733 7.22126 22.8359 7.47726 23.1453 7.83993C23.4653 8.19193 23.6253 8.6826 23.6253 9.31193C23.6253 9.85593 23.4599 10.3253 23.1293 10.7199C22.7986 11.1039 22.3613 11.3973 21.8173 11.5999C21.2733 11.7919 20.6866 11.8879 20.0573 11.8879C19.1933 11.8879 18.4573 11.7333 17.8493 11.4239C17.2413 11.1039 16.7826 10.6346 16.4733 10.0159L18.3453 9.05593C18.6013 9.7386 19.1719 10.0799 20.0573 10.0799C20.4199 10.0799 20.7346 10.0159 21.0013 9.88793C21.2786 9.74926 21.4173 9.55726 21.4173 9.31193C21.4173 9.0986 21.2893 8.9386 21.0333 8.83193C20.7879 8.72526 20.3933 8.61326 19.8493 8.49593C19.2306 8.35726 18.7133 8.21326 18.2973 8.06393C17.8813 7.90393 17.5239 7.66393 17.2253 7.34393C16.9266 7.01326 16.7773 6.57593 16.7773 6.03193C16.7773 5.50926 16.9266 5.05593 17.2253 4.67193C17.5239 4.27726 17.9239 3.9786 18.4253 3.77593C18.9373 3.57326 19.4919 3.47193 20.0893 3.47193C20.7933 3.47193 21.4279 3.61593 21.9933 3.90393C22.5586 4.19193 23.0013 4.60793 23.3213 5.15193L21.4653 6.06393C21.3373 5.79726 21.1613 5.59993 20.9373 5.47193C20.7239 5.34393 20.4413 5.27993 20.0893 5.27993C19.7799 5.27993 19.5346 5.34393 19.3533 5.47193C19.1719 5.58926 19.0813 5.74926 19.0813 5.95193ZM27.7436 8.83193C27.7436 9.1306 27.8236 9.3386 27.9836 9.45593C28.1543 9.57326 28.4103 9.63193 28.7516 9.63193C28.965 9.63193 29.1996 9.61593 29.4556 9.58393V11.6799C28.9223 11.7333 28.4796 11.7599 28.1276 11.7599C27.2316 11.7599 26.5596 11.5626 26.1116 11.1679C25.6743 10.7626 25.4556 10.0319 25.4556 8.97593V5.71193H24.0796V3.67993H25.4556V1.82393L27.7436 1.05593V3.67993H29.4236V5.71193H27.7436V8.83193ZM32.2485 2.59193C31.8218 2.59193 31.4858 2.47993 31.2405 2.25593C31.0058 2.02126 30.8885 1.7066 30.8885 1.31193C30.8885 0.906598 31.0058 0.586598 31.2405 0.351932C31.4858 0.117265 31.8218 -6.86646e-05 32.2485 -6.86646e-05C32.6645 -6.86646e-05 32.9952 0.117265 33.2405 0.351932C33.4858 0.586598 33.6085 0.906598 33.6085 1.31193C33.6085 1.7066 33.4858 2.02126 33.2405 2.25593C32.9952 2.47993 32.6645 2.59193 32.2485 2.59193ZM31.0965 11.6799V3.67993H33.3845V11.6799H31.0965ZM44.5156 3.45593C44.985 3.45593 45.4596 3.55726 45.9396 3.75993C46.4196 3.9626 46.8303 4.31993 47.1716 4.83193C47.513 5.34393 47.6836 6.03193 47.6836 6.89593V11.6799H45.4116V6.89593C45.4116 6.38393 45.2676 6.01593 44.9796 5.79193C44.6916 5.56793 44.3503 5.45593 43.9556 5.45593C43.625 5.45593 43.337 5.55726 43.0916 5.75993C42.857 5.95193 42.7023 6.25593 42.6276 6.67193V6.89593V11.6799H40.3396V6.89593C40.3396 6.38393 40.1956 6.01593 39.9076 5.79193C39.6196 5.56793 39.2783 5.45593 38.8836 5.45593C38.553 5.45593 38.265 5.55726 38.0196 5.75993C37.7743 5.9626 37.6196 6.28793 37.5556 6.73593V11.6799H35.2676V3.67993H37.5556V4.19193C38.1423 3.70126 38.777 3.45593 39.4596 3.45593C39.929 3.45593 40.4036 3.55726 40.8836 3.75993C41.3743 3.9626 41.7743 4.2986 42.0836 4.76793C42.361 4.3946 42.713 4.08526 43.1396 3.83993C43.5663 3.58393 44.025 3.45593 44.5156 3.45593ZM52.9659 11.9199C52.1979 11.9199 51.4885 11.7333 50.8379 11.3599C50.1979 10.9759 49.6859 10.4586 49.3019 9.80793C48.9285 9.15726 48.7419 8.45326 48.7419 7.69593C48.7419 6.92793 48.9285 6.22393 49.3019 5.58393C49.6859 4.93326 50.1979 4.42126 50.8379 4.04793C51.4885 3.66393 52.1979 3.47193 52.9659 3.47193C53.7232 3.47193 54.4219 3.66393 55.0619 4.04793C55.7125 4.42126 56.2245 4.93326 56.5979 5.58393C56.9819 6.22393 57.1739 6.92793 57.1739 7.69593C57.1739 8.45326 56.9819 9.15726 56.5979 9.80793C56.2245 10.4586 55.7125 10.9759 55.0619 11.3599C54.4219 11.7333 53.7232 11.9199 52.9659 11.9199ZM52.9499 9.63193C53.4832 9.63193 53.9419 9.44526 54.3259 9.07193C54.7099 8.68793 54.9019 8.22926 54.9019 7.69593C54.9019 7.1626 54.7099 6.70393 54.3259 6.31993C53.9419 5.93593 53.4832 5.74393 52.9499 5.74393C52.4165 5.74393 51.9579 5.93593 51.5739 6.31993C51.2005 6.70393 51.0139 7.1626 51.0139 7.69593C51.0139 8.22926 51.2005 8.68793 51.5739 9.07193C51.9579 9.44526 52.4165 9.63193 52.9499 9.63193ZM62.601 3.45593C63.0703 3.45593 63.545 3.55726 64.025 3.75993C64.505 3.9626 64.9157 4.31993 65.257 4.83193C65.5983 5.34393 65.769 6.03193 65.769 6.89593V11.6799H63.481V6.89593C63.481 6.38393 63.337 6.01593 63.049 5.79193C62.7717 5.56793 62.4357 5.45593 62.041 5.45593C61.6463 5.45593 61.3157 5.5946 61.049 5.87193C60.793 6.14926 60.665 6.59193 60.665 7.19993V11.6799H58.377V3.67993H60.665V4.22393C61.273 3.71193 61.9183 3.45593 62.601 3.45593ZM68.4516 2.59193C68.025 2.59193 67.689 2.47993 67.4436 2.25593C67.209 2.02126 67.0916 1.7066 67.0916 1.31193C67.0916 0.906598 67.209 0.586598 67.4436 0.351932C67.689 0.117265 68.025 -6.86646e-05 68.4516 -6.86646e-05C68.8676 -6.86646e-05 69.1983 0.117265 69.4436 0.351932C69.689 0.586598 69.8116 0.906598 69.8116 1.31193C69.8116 1.7066 69.689 2.02126 69.4436 2.25593C69.1983 2.47993 68.8676 2.59193 68.4516 2.59193ZM67.2996 11.6799V3.67993H69.5876V11.6799H67.2996ZM77.5828 3.67993H79.8548V11.6799H77.5828V11.0719C77.2308 11.3386 76.8414 11.5413 76.4148 11.6799C75.9988 11.8293 75.5774 11.9039 75.1508 11.9039C74.3188 11.9039 73.5988 11.7226 72.9908 11.3599C72.3934 10.9973 71.9348 10.5013 71.6148 9.87193C71.2948 9.23193 71.1348 8.5066 71.1348 7.69593C71.1348 6.88526 71.2948 6.15993 71.6148 5.51993C71.9348 4.86926 72.3934 4.3626 72.9908 3.99993C73.5988 3.63726 74.3188 3.45593 75.1508 3.45593C75.5881 3.45593 76.0148 3.5306 76.4308 3.67993C76.8468 3.82926 77.2308 4.03726 77.5828 4.30393V3.67993ZM75.4548 9.72793C76.0521 9.72793 76.5534 9.53593 76.9588 9.15193C77.3641 8.76793 77.5668 8.27193 77.5668 7.66393C77.5668 7.07726 77.3641 6.59726 76.9588 6.22393C76.5534 5.8506 76.0521 5.66393 75.4548 5.66393C74.8574 5.66393 74.3668 5.8506 73.9828 6.22393C73.5988 6.59726 73.4068 7.08793 73.4068 7.69593C73.4068 8.30393 73.5988 8.7946 73.9828 9.16793C74.3668 9.54126 74.8574 9.72793 75.4548 9.72793ZM83.8838 9.15193C83.8838 9.3226 83.9211 9.44526 83.9958 9.51993C84.0811 9.5946 84.2198 9.63193 84.4118 9.63193C84.5504 9.63193 84.7158 9.61593 84.9078 9.58393V11.6799C84.3851 11.7546 83.9798 11.7919 83.6918 11.7919C82.9984 11.7919 82.4758 11.6106 82.1238 11.2479C81.7718 10.8746 81.5958 10.2239 81.5958 9.29593V0.479931H83.8838V9.15193Z" fill="#EAEAEA"/>
</svg>
