<svg width="1150" height="81" viewBox="0 0 1150 81" fill="none" xmlns="http://www.w3.org/2000/svg">
<path d="M16.2453 25.4667C16.5659 25.5377 16.673 25.288 16.8857 25.1866C18.0638 24.6265 18.893 24.3357 20.239 24.7951C20.4553 24.8686 21.5893 25.5567 21.6768 25.4667C21.8707 23.0014 22.7094 19.8049 24.6755 17.9447C27.2668 15.492 29.8357 17.8452 30.0578 20.4657C30.4153 24.6753 27.3319 27.8205 24.5539 30.9016C22.6653 32.9963 19.935 34.4529 16.9183 33.1414C14.5484 32.1112 11.6003 28.9318 9.97219 27.0418C8.33607 25.1429 7.60883 22.9748 7.88236 20.5804C8.08425 18.8114 9.56045 16.5958 11.9397 17.3054C14.9609 18.2064 16.3082 22.9931 16.2446 25.4667H16.2453ZM12.8182 19.1498C12.104 19.2448 11.8637 20.8446 11.8312 21.3616C11.7907 22.0022 11.8826 24.5949 12.9029 24.6367C13.6735 24.6677 13.9391 23.3511 13.9847 22.8487C14.0455 22.172 14.1439 18.9736 12.8182 19.1498ZM25.2703 19.1491C25.0475 19.1859 24.9382 19.3018 24.821 19.4577C24.1878 20.2972 24.2023 23.3955 24.8224 24.2515C25.3485 24.9776 25.9201 24.5873 26.2096 23.9378C26.6619 22.9241 26.6365 20.6501 26.1126 19.6598C25.9397 19.3329 25.753 19.0693 25.2703 19.1491Z" fill="black"/>
<path d="M25.7776 5.99716C26.1068 5.72155 26.7639 5.88819 27.0562 6.16507C27.5743 6.6561 28.0881 9.03524 27.8768 9.66313C27.6163 10.438 25.2566 9.37358 25.0091 8.64811C24.8521 8.18749 25.4013 6.31269 25.7776 5.99716Z" fill="black"/>
<path d="M11.4642 5.79215C12.1936 5.63375 12.7935 7.04096 12.9295 7.53516C13.2371 8.65155 13.1857 8.6205 12.1328 9.15652C11.6639 9.39538 10.3013 10.143 10.1356 9.38398C9.96193 8.58945 10.3983 6.02341 11.4642 5.79278V5.79215Z" fill="black"/>
<path d="M25.2697 19.1491C25.7531 19.0687 25.9391 19.3322 26.112 19.6598C26.6367 20.6501 26.6613 22.9247 26.209 23.9378C25.9195 24.5872 25.3479 24.9775 24.8218 24.2514C24.2009 23.3955 24.1865 20.2972 24.8204 19.4577C24.9376 19.3018 25.0468 19.1865 25.2697 19.1491Z" fill="white"/>
<path d="M12.817 19.1501C14.1426 18.9739 14.0449 22.1723 13.9834 22.849C13.9378 23.3514 13.6723 24.668 12.9016 24.637C11.8806 24.5958 11.7894 22.0025 11.8299 21.3619C11.8625 20.8456 12.1027 19.2451 12.817 19.1501Z" fill="white"/>
<path d="M16.8091 27.9316L18.2838 29.9572C18.5053 30.1232 18.8034 30.5553 19.1203 30.5116L21.2225 28.1775L21.0531 27.9316H16.8083H16.8091Z" fill="white"/>
<path d="M10.3832 0.367052C9.4411 1.133 8.25383 4.77006 7.80508 5.98515C7.10415 7.88323 6.516 9.42747 5.62868 11.2583C4.92071 12.7182 4.63015 15.0689 3.10534 16.0145C2.11307 16.6303 0.332951 16.8716 0.0799901 18.1889C-0.186284 19.5761 0.224882 21.0079 1.12473 22.151C1.47715 22.5988 2.53206 23.3825 2.61586 23.8461C2.92912 25.5748 1.50221 27.4118 1.79746 29.1673C2.005 30.4043 2.79442 30.992 4.20333 30.4695C4.62545 30.3131 4.9951 29.7975 5.56524 30.0491C6.37425 30.8068 5.43446 31.8142 6.4181 32.5177C6.87938 32.8482 7.44326 32.8647 8.01732 32.7323C8.80753 32.5506 9.16935 31.4788 10.1311 31.7319C10.4804 31.8238 12.5737 34.0133 13.1572 34.4439C15.3908 36.0937 18.6871 37.3575 21.6137 36.5868C22.9404 36.2377 24.9899 34.7573 26.0229 33.9083C26.6064 33.429 28.269 31.5947 28.8329 31.4363C30.0484 31.0955 30.0922 32.5054 30.5496 32.947C30.978 33.3611 31.6797 33.3611 32.1895 33.0875C33.3047 32.4889 32.9218 30.4653 33.4473 30.3255C34.1506 30.1376 34.8452 32.0514 36.2197 31.1785C36.9997 30.6827 36.9872 29.4155 36.9292 28.6544C36.7906 26.8454 35.3887 24.9282 36.6998 23.2145C37.8792 21.6724 39.2622 21.2918 38.7328 19.044C38.3961 17.6136 36.8924 17.1939 35.9409 16.2367C34.7364 15.025 33.8827 13.0042 33.109 11.5367C31.7063 8.87478 31.534 6.3575 30.3115 3.70034C30.0523 3.13736 28.8924 0.889571 28.5251 0.549454C27.9871 0.0516216 27.4021 0.0125355 26.7646 0.389681C25.7058 1.01711 24.4323 4.43611 23.7573 5.57921C23.296 6.36024 22.6397 7.50334 21.5495 7.61168C20.6599 7.70014 17.1983 7.71179 16.4637 7.45259C15.4832 7.10699 14.9224 5.10263 14.5293 4.32434C14.2708 3.81348 13.8699 3.36502 13.6263 2.86444C13.2645 2.11975 13.1963 1.17072 12.5964 0.551511C11.9965 -0.0676936 11.0975 -0.215123 10.3825 0.365681L10.3832 0.367052ZM27.5188 4.74057C28.6724 4.99086 29.1446 7.76802 28.9567 8.62723C28.7773 9.44872 27.3026 8.63889 26.7951 8.38106C25.6556 7.80094 25.6008 7.83454 25.9329 6.6263C26.0801 6.09213 26.7293 4.56914 27.5188 4.73989V4.74057ZM12.0247 4.96275C12.432 5.30423 13.0264 7.33328 12.8565 7.8318C12.5886 8.61695 10.0339 9.76895 9.75279 8.93032C9.52411 8.25077 10.0809 5.67589 10.6409 5.14446C10.9573 4.8448 11.6692 4.66446 12.0247 4.96275ZM22.3444 26.0342C22.2755 23.3572 23.7338 18.1766 27.0034 17.2015C29.5785 16.4335 31.1761 18.8314 31.3946 20.746C31.6907 23.3373 30.9028 25.6838 29.1329 27.7389C27.3708 29.7837 24.1802 33.2254 21.6153 34.3403C18.3511 35.7598 15.3955 34.1833 13.3514 31.9163C10.3449 28.5817 7.0086 25.1778 7.3947 20.6218C7.63513 17.7857 10.4153 15.2389 13.2198 17.8934C15.3469 19.9066 16.2554 23.3661 16.4653 26.0342C16.56 26.1309 17.7872 25.3869 18.0214 25.3074C19.4781 24.8102 20.3756 25.125 21.6506 25.7311C21.8808 25.8409 21.9967 26.111 22.3437 26.0342H22.3444Z" fill="white"/>
<path d="M22.3429 26.0344C21.996 26.1112 21.8801 25.841 21.6498 25.7313C20.3748 25.1251 19.4773 24.8104 18.0207 25.3075C17.7865 25.3871 16.5593 26.1318 16.4645 26.0344C16.2546 23.3662 15.347 19.9068 13.2191 17.8935C10.4146 15.2391 7.6344 17.7859 7.39397 20.622C7.00709 25.1779 10.3441 28.5818 13.3507 31.9165C15.3947 34.1835 18.3496 35.7599 21.6146 34.3405C24.1794 33.2255 27.37 29.7846 29.1321 27.7391C30.9029 25.684 31.6899 23.3374 31.3939 20.7461C31.1754 18.8316 29.5777 16.4336 27.0027 17.2016C23.733 18.1767 22.2748 23.3573 22.3437 26.0344H22.3429ZM26.052 19.1978C26.8249 19.3006 27.0849 21.0321 27.1202 21.5916C27.164 22.2849 27.0646 25.0908 25.9603 25.1361C25.1263 25.1697 24.8388 23.7448 24.7895 23.201C24.7237 22.4686 24.6172 19.0071 26.052 19.1978ZM12.5754 19.1971C12.8166 19.2368 12.9348 19.3623 13.0617 19.531C13.747 20.4396 13.7313 23.7928 13.0601 24.7192C12.4908 25.505 11.8721 25.0826 11.5588 24.3797C11.0693 23.2826 11.0967 20.8215 11.6638 19.7498C11.8509 19.3959 12.053 19.1107 12.5754 19.1971Z" fill="black"/>
<path d="M12.0262 4.96288C11.6698 4.66459 10.9587 4.84494 10.6423 5.1446C10.0816 5.67603 9.52555 8.25091 9.75423 8.93046C10.0362 9.76909 12.5901 8.61708 12.8579 7.83193C13.0278 7.33341 12.4334 5.30437 12.0262 4.96288Z" fill="black"/>
<path d="M27.5202 4.74018C26.7307 4.56875 26.0815 6.09174 25.9343 6.6266C25.6014 7.83484 25.657 7.80124 26.7965 8.38135C27.304 8.63987 28.7787 9.44902 28.958 8.62753C29.146 7.76764 28.6737 4.99047 27.5202 4.74087V4.74018Z" fill="black"/>
<path d="M12.5768 19.1967C12.0537 19.1096 11.8524 19.3949 11.6652 19.7494C11.0974 20.8212 11.0708 23.2829 11.5603 24.3794C11.8736 25.0822 12.4922 25.5046 13.0616 24.7188C13.7336 23.7924 13.7492 20.4392 13.0632 19.5307C12.9363 19.362 12.818 19.2372 12.5768 19.1967Z" fill="white"/>
<path d="M26.0543 19.1975C24.6195 19.0069 24.7253 22.4684 24.7918 23.2008C24.8412 23.7445 25.1286 25.1695 25.9627 25.1359C27.0677 25.0913 27.1664 22.2846 27.1225 21.5914C27.0873 21.0325 26.8273 19.3004 26.0543 19.1975Z" fill="white"/>
<path d="M21.734 28.7012L20.1379 30.8934C19.8982 31.0731 19.5756 31.5407 19.2325 31.4934L16.9575 28.9672L17.1407 28.7012H21.7347H21.734Z" fill="white"/>
<path d="M12.5374 36.9648H12.8252L13.113 37.0152L13.3624 37.0992L13.631 37.2336L14.3793 37.6704L14.8782 37.9224L15.3962 38.1576L15.9527 38.376L16.6242 38.5944L17.4301 38.796L18.1592 38.9304L18.658 38.9976L19.272 39.048L19.5598 39.0648H20.6343L21.325 39.0144L21.9966 38.9304L22.7257 38.796L23.3972 38.628L24.1455 38.3928L24.4909 38.2584L25.0281 38.04L25.5462 37.788L25.8915 37.6032L26.352 37.3344L26.6207 37.1832L26.8509 37.0824L27.1003 37.0152L27.3306 36.9816H27.7911L28.7504 37.1328L29.2493 37.2336L29.8825 37.4016L30.4581 37.5696L31.4366 37.9392L31.7436 38.0736L32.2041 38.292L32.6646 38.5272L32.9716 38.6952L33.2594 38.88L33.5856 39.0816L33.8926 39.2832L34.1804 39.5016L34.3722 39.6528L34.5833 39.804L34.8903 40.056L35.0822 40.224L35.2165 40.3584L35.5043 40.6272L35.6961 40.812L35.8688 40.9968L36.1758 41.3496L36.4444 41.6688L36.6747 41.9544L36.9241 42.3072L37.1544 42.6432L37.5381 43.332L37.6532 43.584L37.6724 43.6848V43.8192L37.634 43.9704L37.4613 44.2392L37.1927 44.6088L36.9817 44.9112L36.809 45.1296L36.5596 45.432L36.2909 45.7512L36.0415 46.0368L35.7921 46.3055L35.6386 46.4735L35.4467 46.6583L35.274 46.8431L35.063 47.0279L34.9287 47.1623L34.66 47.3975L34.6408 47.4311H34.6025L34.5641 47.4983L33.9309 48.0527L33.7774 48.1703L33.7007 48.2375H33.6623V48.2711L33.5088 48.3887L33.3745 48.5063L33.221 48.6239L32.3 49.2791L32.0122 49.4639L31.6477 49.6823L31.2064 49.9511L30.9761 50.0855L30.6691 50.2535L29.4603 50.8583L28.9999 51.0599L28.4626 51.2783L27.9638 51.4799L27.2155 51.7319L26.4288 51.9839L25.5846 52.2023L24.7979 52.3871L23.781 52.5719L23.1094 52.6727L22.0541 52.7903L21.0756 52.8743H18.6964V52.8575L18.2359 52.8071L17.0847 52.6895L16.5858 52.6223L15.3387 52.4039L14.8206 52.2863L13.6886 52.0007L12.9978 51.7823L12.4414 51.5975L12.0193 51.4463L10.7913 50.9423L10.4268 50.7743L9.96629 50.5391L9.48661 50.3039L9.0645 50.0687L8.08596 49.4807L7.77897 49.2791L7.51035 49.0775L7.31848 48.9431L6.9923 48.7079L6.80043 48.5567L6.64693 48.4391L6.41668 48.2543L6.26319 48.1367L5.9562 47.8847L5.11196 47.1455L4.97766 47.0111L4.7666 46.8263L4.6131 46.6583L4.36367 46.3895L4.19099 46.2048L3.97993 45.9696L3.74968 45.7176L3.25082 45.1128L3.05895 44.8608L2.77114 44.4576L2.59846 44.2056L2.52171 44.0544L2.48334 43.92V43.668L2.57927 43.416L2.77114 43.0632L2.92464 42.7944L3.09732 42.5088L3.28919 42.24L3.55781 41.8536L4.09505 41.2152L4.3253 40.9464L4.53635 40.728L4.80497 40.476L5.03522 40.2576L5.16953 40.14L5.30384 40.0056L5.57245 39.7872L5.78351 39.636L6.03294 39.4344L6.244 39.2832L6.43587 39.1488L6.81961 38.9136L7.14579 38.712L7.4336 38.544L7.8749 38.3256L8.22027 38.1576L8.60401 37.9728L9.27556 37.7208L9.79361 37.536L10.5227 37.3344L11.06 37.2L11.8274 37.0656L12.3647 36.9816L12.5374 36.9648Z" fill="white"/>
<path d="M76.0916 14.4473V14.4153H80.8916V36.8153H76.0916V23.2473L70.3956 32.7833H69.2116L63.4836 23.2153V36.8153H58.6836V14.4153H63.4836V14.4473L63.5476 14.4153L69.7876 24.9113L76.0276 14.4153L76.0916 14.4473ZM95.4861 20.8153H100.254L94.8781 36.5913C93.9821 38.8953 92.7661 40.6126 91.2301 41.7433C89.7154 42.874 87.9021 43.3646 85.7901 43.2153V38.7993C85.9181 38.8206 86.1101 38.8313 86.3661 38.8313C87.2621 38.8313 88.0087 38.5966 88.6061 38.1273C89.2034 37.658 89.7047 37.0073 90.1101 36.1753L83.1981 20.8153H88.1261L92.3181 29.9993L95.4861 20.8153ZM123.13 36.8153L118.97 29.3273H115.546V36.8153H110.746V14.4153H119.994C121.359 14.4153 122.607 14.746 123.738 15.4073C124.89 16.0686 125.797 16.9753 126.458 18.1273C127.141 19.258 127.482 20.506 127.482 21.8713C127.482 23.2153 127.151 24.4526 126.49 25.5833C125.85 26.714 124.975 27.61 123.866 28.2713L128.666 36.8153H123.13ZM115.546 18.9913V24.7513H119.994C120.783 24.7513 121.466 24.474 122.042 23.9193C122.618 23.3433 122.906 22.6606 122.906 21.8713C122.906 21.082 122.618 20.41 122.042 19.8553C121.487 19.2793 120.805 18.9913 119.994 18.9913H115.546ZM137.294 37.2953C135.758 37.2953 134.339 36.922 133.038 36.1753C131.758 35.4073 130.734 34.3726 129.966 33.0713C129.219 31.77 128.846 30.362 128.846 28.8473C128.846 27.3113 129.219 25.9033 129.966 24.6233C130.734 23.322 131.758 22.298 133.038 21.5513C134.339 20.7833 135.758 20.3993 137.294 20.3993C138.808 20.3993 140.206 20.7833 141.486 21.5513C142.787 22.298 143.811 23.322 144.558 24.6233C145.326 25.9033 145.71 27.3113 145.71 28.8473C145.71 30.362 145.326 31.77 144.558 33.0713C143.811 34.3726 142.787 35.4073 141.486 36.1753C140.206 36.922 138.808 37.2953 137.294 37.2953ZM137.262 32.7193C138.328 32.7193 139.246 32.346 140.014 31.5993C140.782 30.8313 141.166 29.914 141.166 28.8473C141.166 27.7806 140.782 26.8633 140.014 26.0953C139.246 25.3273 138.328 24.9433 137.262 24.9433C136.195 24.9433 135.278 25.3273 134.51 26.0953C133.763 26.8633 133.39 27.7806 133.39 28.8473C133.39 29.914 133.763 30.8313 134.51 31.5993C135.278 32.346 136.195 32.7193 137.262 32.7193ZM152.692 31.7593C152.692 32.1006 152.766 32.346 152.916 32.4953C153.086 32.6446 153.364 32.7193 153.748 32.7193C154.025 32.7193 154.356 32.6873 154.74 32.6233V36.8153C153.694 36.9646 152.884 37.0393 152.308 37.0393C150.921 37.0393 149.876 36.6766 149.172 35.9513C148.468 35.2046 148.116 33.9033 148.116 32.0473V14.4153H152.692V31.7593ZM164.481 20.3993C166.038 20.3993 167.425 20.7726 168.641 21.5193C169.878 22.266 170.838 23.2793 171.521 24.5593C172.204 25.8393 172.545 27.258 172.545 28.8153C172.545 29.4126 172.502 29.9566 172.417 30.4473H160.577C160.982 31.4286 161.526 32.1646 162.209 32.6553C162.892 33.1246 163.777 33.3593 164.865 33.3593C165.526 33.3593 166.166 33.2206 166.785 32.9433C167.425 32.666 167.926 32.2926 168.289 31.8233L171.745 33.8713C170.998 34.9593 170.028 35.7913 168.833 36.3673C167.66 36.9433 166.305 37.2313 164.769 37.2313C163.041 37.2313 161.516 36.8686 160.193 36.1433C158.87 35.3966 157.846 34.3833 157.121 33.1033C156.396 31.8233 156.033 30.394 156.033 28.8153C156.033 27.2366 156.385 25.8073 157.089 24.5273C157.814 23.2473 158.817 22.2446 160.097 21.5193C161.377 20.7726 162.838 20.3993 164.481 20.3993ZM168.257 26.8953C168.108 26.0846 167.681 25.4553 166.977 25.0073C166.294 24.5593 165.452 24.3353 164.449 24.3353C163.404 24.3353 162.497 24.5913 161.729 25.1033C160.961 25.594 160.556 26.1913 160.513 26.8953H168.257ZM188.317 39.8233C186.717 38.138 185.437 36.0046 184.477 33.4233C183.538 30.842 183.069 28.2606 183.069 25.6793C183.069 23.098 183.538 20.5166 184.477 17.9353C185.437 15.3326 186.717 13.1993 188.317 11.5353L191.165 13.7113C190.034 15.738 189.213 17.6793 188.701 19.5353C188.21 21.37 187.965 23.418 187.965 25.6793C187.965 27.9406 188.21 29.9993 188.701 31.8553C189.213 33.7113 190.034 35.6206 191.165 37.5833L188.317 39.8233ZM213.582 36.8153H208.462L206.894 32.5913H198.606L197.038 36.8153H191.886L200.174 14.4153H205.326L213.582 36.8153ZM202.766 21.3913L200.27 28.0473H205.23L202.766 21.3913ZM224.469 20.8153H229.045V36.8153H224.469V35.7273C223.253 36.7513 221.962 37.2633 220.597 37.2633C219.658 37.2633 218.709 37.0606 217.749 36.6553C216.789 36.25 215.967 35.5353 215.285 34.5113C214.602 33.4873 214.261 32.1113 214.261 30.3833V20.8153H218.837V30.3833C218.837 31.386 219.125 32.122 219.701 32.5913C220.277 33.0393 220.959 33.2633 221.749 33.2633C222.517 33.2633 223.157 32.986 223.669 32.4313C224.202 31.8766 224.469 30.9913 224.469 29.7753V20.8153ZM244.277 20.8153H248.853V36.0153C248.853 37.5086 248.459 38.8313 247.669 39.9833C246.901 41.1353 245.835 42.0313 244.469 42.6713C243.104 43.3113 241.568 43.6313 239.861 43.6313C238.005 43.6313 236.299 43.2686 234.741 42.5433C233.205 41.8393 232.128 40.922 231.509 39.7913L235.413 37.5193C235.691 38.074 236.245 38.5326 237.077 38.8953C237.909 39.258 238.88 39.4393 239.989 39.4393C241.227 39.4393 242.251 39.1193 243.061 38.4793C243.872 37.8393 244.277 37.018 244.277 36.0153V35.5993C243.573 36.1326 242.805 36.538 241.973 36.8153C241.163 37.114 240.32 37.2633 239.445 37.2633C237.781 37.2633 236.341 36.9006 235.125 36.1753C233.931 35.45 233.013 34.458 232.373 33.1993C231.733 31.9193 231.413 30.4686 231.413 28.8473C231.413 27.226 231.733 25.7753 232.373 24.4953C233.013 23.194 233.931 22.1806 235.125 21.4553C236.341 20.73 237.781 20.3673 239.445 20.3673C240.299 20.3673 241.141 20.5166 241.973 20.8153C242.805 21.0926 243.573 21.498 244.277 22.0313V20.8153ZM240.053 32.9113C241.248 32.9113 242.251 32.5273 243.061 31.7593C243.872 30.9913 244.277 29.9993 244.277 28.7833C244.277 27.61 243.872 26.65 243.061 25.9033C242.251 25.1566 241.248 24.7833 240.053 24.7833C238.859 24.7833 237.877 25.1566 237.109 25.9033C236.363 26.65 235.989 27.6313 235.989 28.8473C235.989 30.0633 236.363 31.0446 237.109 31.7913C237.877 32.538 238.859 32.9113 240.053 32.9113ZM277.312 32.2393V36.7833H260.32V35.7593C260.469 33.626 261.077 31.546 262.144 29.5193C263.21 27.4713 264.906 25.9886 267.232 25.0713L268.288 24.6233C269.738 24.0473 270.826 23.5246 271.552 23.0553C272.277 22.586 272.64 21.9886 272.64 21.2633C272.64 20.6446 272.458 20.1113 272.096 19.6633C271.733 19.2153 271.285 18.8846 270.752 18.6713C270.218 18.4366 269.685 18.3193 269.152 18.3193C267.893 18.3193 266.837 18.5646 265.984 19.0553C265.13 19.5246 264.618 20.2606 264.448 21.2633L259.936 20.7833C260.128 19.3753 260.661 18.1593 261.536 17.1353C262.432 16.1113 263.541 15.3326 264.864 14.7993C266.208 14.2446 267.637 13.9673 269.152 13.9673C270.517 13.9673 271.818 14.2553 273.056 14.8313C274.314 15.4073 275.328 16.2286 276.096 17.2953C276.864 18.362 277.248 19.5993 277.248 21.0073C277.248 22.4153 276.906 23.5993 276.224 24.5593C275.541 25.5193 274.624 26.3193 273.472 26.9593C272.341 27.578 270.869 28.2286 269.056 28.9113C267.69 29.4233 266.677 30.5326 266.016 32.2393H277.312ZM288.204 37.2313C286.327 37.2313 284.684 36.7513 283.276 35.7913C281.868 34.81 280.78 33.4446 280.012 31.6953C279.244 29.9246 278.86 27.898 278.86 25.6153C278.86 23.3326 279.244 21.3166 280.012 19.5673C280.78 17.7966 281.868 16.4313 283.276 15.4713C284.684 14.49 286.327 13.9993 288.204 13.9993C290.082 13.9993 291.724 14.49 293.132 15.4713C294.54 16.4313 295.618 17.7966 296.364 19.5673C297.132 21.3166 297.516 23.3326 297.516 25.6153C297.516 27.898 297.132 29.9246 296.364 31.6953C295.618 33.4446 294.54 34.81 293.132 35.7913C291.724 36.7513 290.082 37.2313 288.204 37.2313ZM288.204 32.4313C289.591 32.4313 290.69 31.8766 291.5 30.7673C292.311 29.658 292.716 27.9406 292.716 25.6153C292.716 23.29 292.311 21.5726 291.5 20.4633C290.69 19.354 289.591 18.7993 288.204 18.7993C286.818 18.7993 285.719 19.354 284.908 20.4633C284.098 21.5726 283.692 23.29 283.692 25.6153C283.692 27.9406 284.098 29.658 284.908 30.7673C285.719 31.8766 286.818 32.4313 288.204 32.4313ZM316.249 32.2393V36.7833H299.257V35.7593C299.406 33.626 300.014 31.546 301.081 29.5193C302.148 27.4713 303.844 25.9886 306.169 25.0713L307.225 24.6233C308.676 24.0473 309.764 23.5246 310.489 23.0553C311.214 22.586 311.577 21.9886 311.577 21.2633C311.577 20.6446 311.396 20.1113 311.033 19.6633C310.67 19.2153 310.222 18.8846 309.689 18.6713C309.156 18.4366 308.622 18.3193 308.089 18.3193C306.83 18.3193 305.774 18.5646 304.921 19.0553C304.068 19.5246 303.556 20.2606 303.385 21.2633L298.873 20.7833C299.065 19.3753 299.598 18.1593 300.473 17.1353C301.369 16.1113 302.478 15.3326 303.801 14.7993C305.145 14.2446 306.574 13.9673 308.089 13.9673C309.454 13.9673 310.756 14.2553 311.993 14.8313C313.252 15.4073 314.265 16.2286 315.033 17.2953C315.801 18.362 316.185 19.5993 316.185 21.0073C316.185 22.4153 315.844 23.5993 315.161 24.5593C314.478 25.5193 313.561 26.3193 312.409 26.9593C311.278 27.578 309.806 28.2286 307.993 28.9113C306.628 29.4233 305.614 30.5326 304.953 32.2393H316.249ZM332.998 24.9433C333.83 25.5833 334.47 26.3406 334.918 27.2153C335.366 28.09 335.59 29.0393 335.59 30.0633C335.59 31.4073 335.206 32.6233 334.438 33.7113C333.691 34.7993 332.667 35.6526 331.366 36.2713C330.064 36.89 328.624 37.1993 327.046 37.1993C325.51 37.1993 324.091 36.9113 322.79 36.3353C321.51 35.738 320.486 34.9166 319.718 33.8713C318.971 32.826 318.587 31.6633 318.566 30.3833L323.558 30.0313C323.686 30.7993 324.07 31.4393 324.71 31.9513C325.371 32.442 326.15 32.6873 327.046 32.6873C328.134 32.6873 329.03 32.4206 329.734 31.8873C330.459 31.354 330.822 30.6713 330.822 29.8393C330.822 28.986 330.459 28.2926 329.734 27.7593C329.03 27.2046 328.134 26.9273 327.046 26.9273H325.83V23.0873H327.046C328.006 23.0873 328.795 22.8633 329.414 22.4153C330.032 21.9673 330.342 21.3913 330.342 20.6873C330.342 19.9833 330.022 19.4073 329.382 18.9593C328.742 18.49 327.931 18.2553 326.95 18.2553C326.246 18.2553 325.584 18.4153 324.966 18.7353C324.368 19.0553 323.952 19.4713 323.718 19.9833L318.982 19.6953C319.11 18.6073 319.536 17.6366 320.262 16.7833C321.008 15.9086 321.958 15.226 323.11 14.7353C324.283 14.2446 325.563 13.9993 326.95 13.9993C328.507 13.9993 329.894 14.2873 331.11 14.8633C332.326 15.4393 333.275 16.2393 333.958 17.2633C334.662 18.266 335.014 19.4073 335.014 20.6873C335.014 21.5193 334.832 22.298 334.47 23.0233C334.128 23.7486 333.638 24.3886 332.998 24.9433ZM353.71 30.9913H346.03V27.1513H353.71V30.9913ZM375.523 37.2633C373.433 37.2633 371.502 36.7406 369.731 35.6953C367.961 34.65 366.553 33.242 365.507 31.4713C364.483 29.7006 363.971 27.77 363.971 25.6793C363.971 23.5886 364.483 21.658 365.507 19.8873C366.553 18.1166 367.961 16.7193 369.731 15.6953C371.502 14.65 373.433 14.1273 375.523 14.1273C377.614 14.1273 379.545 14.65 381.315 15.6953C383.086 16.7193 384.483 18.1166 385.507 19.8873C386.553 21.658 387.075 23.5886 387.075 25.6793C387.075 27.77 386.553 29.7006 385.507 31.4713C384.483 33.242 383.086 34.65 381.315 35.6953C379.545 36.7406 377.614 37.2633 375.523 37.2633ZM375.523 32.4313C376.739 32.4313 377.859 32.1326 378.883 31.5353C379.929 30.9166 380.75 30.0953 381.347 29.0713C381.966 28.026 382.275 26.8953 382.275 25.6793C382.275 24.4633 381.966 23.3433 381.347 22.3193C380.75 21.2953 379.929 20.4846 378.883 19.8873C377.859 19.2686 376.739 18.9593 375.523 18.9593C374.307 18.9593 373.177 19.258 372.131 19.8553C371.107 20.4526 370.297 21.274 369.699 22.3193C369.102 23.3433 368.803 24.4633 368.803 25.6793C368.803 26.8953 369.102 28.026 369.699 29.0713C370.318 30.0953 371.139 30.9166 372.163 31.5353C373.187 32.1326 374.307 32.4313 375.523 32.4313ZM404.611 33.6793C403.822 34.7886 402.819 35.674 401.603 36.3353C400.408 36.9753 399.118 37.2953 397.731 37.2953C396.195 37.2953 394.776 36.922 393.475 36.1753C392.195 35.4073 391.171 34.3726 390.403 33.0713C389.656 31.77 389.283 30.362 389.283 28.8473C389.283 27.3113 389.656 25.9033 390.403 24.6233C391.171 23.322 392.195 22.298 393.475 21.5513C394.776 20.7833 396.195 20.3993 397.731 20.3993C399.118 20.3993 400.408 20.7193 401.603 21.3593C402.798 21.9993 403.79 22.8633 404.579 23.9513L400.803 26.4473C399.907 25.4446 398.883 24.9433 397.731 24.9433C396.664 24.9433 395.747 25.3273 394.979 26.0953C394.211 26.8633 393.827 27.7806 393.827 28.8473C393.827 29.914 394.211 30.8313 394.979 31.5993C395.747 32.346 396.664 32.7193 397.731 32.7193C398.883 32.7193 399.907 32.218 400.803 31.2153L404.611 33.6793ZM412.88 31.1193C412.88 31.7166 413.04 32.1326 413.36 32.3673C413.702 32.602 414.214 32.7193 414.896 32.7193C415.323 32.7193 415.792 32.6873 416.304 32.6233V36.8153C415.238 36.922 414.352 36.9753 413.648 36.9753C411.856 36.9753 410.512 36.5806 409.616 35.7913C408.742 34.9806 408.304 33.5193 408.304 31.4073V24.8793H405.552V20.8153H408.304V17.1033L412.88 15.5673V20.8153H416.24V24.8793H412.88V31.1193ZM426.512 37.2953C424.976 37.2953 423.558 36.922 422.256 36.1753C420.976 35.4073 419.952 34.3726 419.184 33.0713C418.438 31.77 418.064 30.362 418.064 28.8473C418.064 27.3113 418.438 25.9033 419.184 24.6233C419.952 23.322 420.976 22.298 422.256 21.5513C423.558 20.7833 424.976 20.3993 426.512 20.3993C428.027 20.3993 429.424 20.7833 430.704 21.5513C432.006 22.298 433.03 23.322 433.776 24.6233C434.544 25.9033 434.928 27.3113 434.928 28.8473C434.928 30.362 434.544 31.77 433.776 33.0713C433.03 34.3726 432.006 35.4073 430.704 36.1753C429.424 36.922 428.027 37.2953 426.512 37.2953ZM426.48 32.7193C427.547 32.7193 428.464 32.346 429.232 31.5993C430 30.8313 430.384 29.914 430.384 28.8473C430.384 27.7806 430 26.8633 429.232 26.0953C428.464 25.3273 427.547 24.9433 426.48 24.9433C425.414 24.9433 424.496 25.3273 423.728 26.0953C422.982 26.8633 422.608 27.7806 422.608 28.8473C422.608 29.914 422.982 30.8313 423.728 31.5993C424.496 32.346 425.414 32.7193 426.48 32.7193ZM447.159 20.3673C448.823 20.3673 450.252 20.73 451.447 21.4553C452.663 22.1806 453.591 23.194 454.231 24.4953C454.871 25.7753 455.191 27.226 455.191 28.8473C455.191 30.4686 454.871 31.9193 454.231 33.1993C453.591 34.458 452.663 35.45 451.447 36.1753C450.252 36.9006 448.823 37.2633 447.159 37.2633C446.199 37.2633 445.271 37.0926 444.375 36.7513C443.479 36.41 442.657 35.9193 441.911 35.2793V36.8153H437.335V14.4153H441.911V22.3833C442.657 21.7433 443.479 21.2526 444.375 20.9113C445.271 20.5486 446.199 20.3673 447.159 20.3673ZM446.551 32.9113C447.745 32.9113 448.716 32.538 449.463 31.7913C450.231 31.0446 450.615 30.0633 450.615 28.8473C450.615 27.6313 450.231 26.65 449.463 25.9033C448.716 25.1566 447.745 24.7833 446.551 24.7833C445.356 24.7833 444.353 25.1566 443.543 25.9033C442.732 26.65 442.327 27.61 442.327 28.7833C442.327 29.9993 442.732 30.9913 443.543 31.7593C444.353 32.5273 445.356 32.9113 446.551 32.9113ZM465.45 20.3993C467.007 20.3993 468.394 20.7726 469.61 21.5193C470.847 22.266 471.807 23.2793 472.49 24.5593C473.172 25.8393 473.514 27.258 473.514 28.8153C473.514 29.4126 473.471 29.9566 473.386 30.4473H461.546C461.951 31.4286 462.495 32.1646 463.178 32.6553C463.86 33.1246 464.746 33.3593 465.834 33.3593C466.495 33.3593 467.135 33.2206 467.754 32.9433C468.394 32.666 468.895 32.2926 469.258 31.8233L472.714 33.8713C471.967 34.9593 470.996 35.7913 469.802 36.3673C468.628 36.9433 467.274 37.2313 465.738 37.2313C464.01 37.2313 462.484 36.8686 461.162 36.1433C459.839 35.3966 458.815 34.3833 458.09 33.1033C457.364 31.8233 457.002 30.394 457.002 28.8153C457.002 27.2366 457.354 25.8073 458.058 24.5273C458.783 23.2473 459.786 22.2446 461.066 21.5193C462.346 20.7726 463.807 20.3993 465.45 20.3993ZM469.226 26.8953C469.076 26.0846 468.65 25.4553 467.946 25.0073C467.263 24.5593 466.42 24.3353 465.418 24.3353C464.372 24.3353 463.466 24.5913 462.698 25.1033C461.93 25.594 461.524 26.1913 461.482 26.8953H469.226ZM485.945 20.4953L485.625 24.8153C485.476 24.7513 485.23 24.7193 484.889 24.7193C483.588 24.7193 482.521 25.0926 481.689 25.8393C480.878 26.5646 480.473 27.5246 480.473 28.7193V36.8153H475.897V20.8153H480.473V23.4073C480.857 22.5753 481.476 21.882 482.329 21.3273C483.182 20.7726 484.217 20.4953 485.433 20.4953H485.945ZM512.968 32.2393V36.7833H495.976V35.7593C496.125 33.626 496.733 31.546 497.8 29.5193C498.866 27.4713 500.562 25.9886 502.888 25.0713L503.944 24.6233C505.394 24.0473 506.482 23.5246 507.208 23.0553C507.933 22.586 508.296 21.9886 508.296 21.2633C508.296 20.6446 508.114 20.1113 507.752 19.6633C507.389 19.2153 506.941 18.8846 506.408 18.6713C505.874 18.4366 505.341 18.3193 504.808 18.3193C503.549 18.3193 502.493 18.5646 501.64 19.0553C500.786 19.5246 500.274 20.2606 500.104 21.2633L495.592 20.7833C495.784 19.3753 496.317 18.1593 497.192 17.1353C498.088 16.1113 499.197 15.3326 500.52 14.7993C501.864 14.2446 503.293 13.9673 504.808 13.9673C506.173 13.9673 507.474 14.2553 508.712 14.8313C509.97 15.4073 510.984 16.2286 511.752 17.2953C512.52 18.362 512.904 19.5993 512.904 21.0073C512.904 22.4153 512.562 23.5993 511.88 24.5593C511.197 25.5193 510.28 26.3193 509.128 26.9593C507.997 27.578 506.525 28.2286 504.712 28.9113C503.346 29.4233 502.333 30.5326 501.672 32.2393H512.968ZM523.861 37.2313C521.983 37.2313 520.341 36.7513 518.933 35.7913C517.525 34.81 516.437 33.4446 515.669 31.6953C514.901 29.9246 514.517 27.898 514.517 25.6153C514.517 23.3326 514.901 21.3166 515.669 19.5673C516.437 17.7966 517.525 16.4313 518.933 15.4713C520.341 14.49 521.983 13.9993 523.861 13.9993C525.738 13.9993 527.381 14.49 528.789 15.4713C530.197 16.4313 531.274 17.7966 532.021 19.5673C532.789 21.3166 533.173 23.3326 533.173 25.6153C533.173 27.898 532.789 29.9246 532.021 31.6953C531.274 33.4446 530.197 34.81 528.789 35.7913C527.381 36.7513 525.738 37.2313 523.861 37.2313ZM523.861 32.4313C525.247 32.4313 526.346 31.8766 527.157 30.7673C527.967 29.658 528.373 27.9406 528.373 25.6153C528.373 23.29 527.967 21.5726 527.157 20.4633C526.346 19.354 525.247 18.7993 523.861 18.7993C522.474 18.7993 521.375 19.354 520.565 20.4633C519.754 21.5726 519.349 23.29 519.349 25.6153C519.349 27.9406 519.754 29.658 520.565 30.7673C521.375 31.8766 522.474 32.4313 523.861 32.4313ZM551.905 32.2393V36.7833H534.913V35.7593C535.063 33.626 535.671 31.546 536.737 29.5193C537.804 27.4713 539.5 25.9886 541.825 25.0713L542.881 24.6233C544.332 24.0473 545.42 23.5246 546.145 23.0553C546.871 22.586 547.233 21.9886 547.233 21.2633C547.233 20.6446 547.052 20.1113 546.689 19.6633C546.327 19.2153 545.879 18.8846 545.345 18.6713C544.812 18.4366 544.279 18.3193 543.745 18.3193C542.487 18.3193 541.431 18.5646 540.577 19.0553C539.724 19.5246 539.212 20.2606 539.041 21.2633L534.529 20.7833C534.721 19.3753 535.255 18.1593 536.129 17.1353C537.025 16.1113 538.135 15.3326 539.457 14.7993C540.801 14.2446 542.231 13.9673 543.745 13.9673C545.111 13.9673 546.412 14.2553 547.649 14.8313C548.908 15.4073 549.921 16.2286 550.689 17.2953C551.457 18.362 551.841 19.5993 551.841 21.0073C551.841 22.4153 551.5 23.5993 550.817 24.5593C550.135 25.5193 549.217 26.3193 548.065 26.9593C546.935 27.578 545.463 28.2286 543.649 28.9113C542.284 29.4233 541.271 30.5326 540.609 32.2393H551.905ZM568.654 24.9433C569.486 25.5833 570.126 26.3406 570.574 27.2153C571.022 28.09 571.246 29.0393 571.246 30.0633C571.246 31.4073 570.862 32.6233 570.094 33.7113C569.347 34.7993 568.323 35.6526 567.022 36.2713C565.721 36.89 564.281 37.1993 562.702 37.1993C561.166 37.1993 559.747 36.9113 558.446 36.3353C557.166 35.738 556.142 34.9166 555.374 33.8713C554.627 32.826 554.243 31.6633 554.222 30.3833L559.214 30.0313C559.342 30.7993 559.726 31.4393 560.366 31.9513C561.027 32.442 561.806 32.6873 562.702 32.6873C563.79 32.6873 564.686 32.4206 565.39 31.8873C566.115 31.354 566.478 30.6713 566.478 29.8393C566.478 28.986 566.115 28.2926 565.39 27.7593C564.686 27.2046 563.79 26.9273 562.702 26.9273H561.486V23.0873H562.702C563.662 23.0873 564.451 22.8633 565.07 22.4153C565.689 21.9673 565.998 21.3913 565.998 20.6873C565.998 19.9833 565.678 19.4073 565.038 18.9593C564.398 18.49 563.587 18.2553 562.606 18.2553C561.902 18.2553 561.241 18.4153 560.622 18.7353C560.025 19.0553 559.609 19.4713 559.374 19.9833L554.638 19.6953C554.766 18.6073 555.193 17.6366 555.918 16.7833C556.665 15.9086 557.614 15.226 558.766 14.7353C559.939 14.2446 561.219 13.9993 562.606 13.9993C564.163 13.9993 565.55 14.2873 566.766 14.8633C567.982 15.4393 568.931 16.2393 569.614 17.2633C570.318 18.266 570.67 19.4073 570.67 20.6873C570.67 21.5193 570.489 22.298 570.126 23.0233C569.785 23.7486 569.294 24.3886 568.654 24.9433ZM575.995 11.5353C577.595 13.1993 578.864 15.3326 579.803 17.9353C580.763 20.5166 581.243 23.098 581.243 25.6793C581.243 28.2606 580.763 30.842 579.803 33.4233C578.864 36.0046 577.595 38.138 575.995 39.8233L573.147 37.5833C574.277 35.6206 575.088 33.7113 575.579 31.8553C576.091 29.9993 576.347 27.9406 576.347 25.6793C576.347 23.418 576.091 21.37 575.579 19.5353C575.088 17.6793 574.277 15.738 573.147 13.7113L575.995 11.5353Z" fill="white"/>
<path d="M57.833 76.5352V62.8914H60.7761V76.5352H57.833ZM77.7527 72.0327L79.3315 66.7896H82.2357L79.0781 76.5352H76.3688L74.7511 71.3895L73.1138 76.5352H70.4241L67.3055 66.7896H70.2291L71.7689 71.9742L73.2698 66.7896H76.2129L77.7527 72.0327ZM90.3245 66.7896H93.0922V76.5352H90.3245V75.7945C89.8957 76.1193 89.4214 76.3662 88.9016 76.5352C88.3948 76.7171 87.8816 76.808 87.3618 76.808C86.3483 76.808 85.4712 76.5871 84.7305 76.1453C84.0028 75.7035 83.4441 75.0993 83.0543 74.3327C82.6645 73.553 82.4696 72.6694 82.4696 71.6819C82.4696 70.6943 82.6645 69.8107 83.0543 69.0311C83.4441 68.2384 84.0028 67.6212 84.7305 67.1794C85.4712 66.7376 86.3483 66.5167 87.3618 66.5167C87.8946 66.5167 88.4143 66.6077 88.9211 66.7896C89.4279 66.9715 89.8957 67.2249 90.3245 67.5498V66.7896ZM87.7321 74.1572C88.4598 74.1572 89.0705 73.9233 89.5643 73.4556C90.0581 72.9878 90.305 72.3836 90.305 71.6429C90.305 70.9282 90.0581 70.3435 89.5643 69.8887C89.0705 69.4339 88.4598 69.2065 87.7321 69.2065C87.0045 69.2065 86.4068 69.4339 85.939 69.8887C85.4712 70.3435 85.2373 70.9412 85.2373 71.6819C85.2373 72.4225 85.4712 73.0203 85.939 73.4751C86.4068 73.9298 87.0045 74.1572 87.7321 74.1572ZM97.5937 69.5573C97.5937 69.7782 97.7302 69.9472 98.003 70.0641C98.2759 70.1681 98.7112 70.2785 99.3089 70.3955C100.076 70.5514 100.712 70.7268 101.219 70.9217C101.726 71.1036 102.168 71.4155 102.544 71.8573C102.934 72.2861 103.129 72.8838 103.129 73.6505C103.129 74.3132 102.928 74.8849 102.525 75.3657C102.122 75.8335 101.589 76.1908 100.927 76.4377C100.264 76.6716 99.5493 76.7885 98.7827 76.7885C97.7302 76.7885 96.8336 76.6001 96.0929 76.2233C95.3522 75.8335 94.7935 75.2617 94.4167 74.5081L96.6971 73.3386C97.009 74.1702 97.7042 74.586 98.7827 74.586C99.2245 74.586 99.6078 74.5081 99.9327 74.3522C100.27 74.1832 100.439 73.9493 100.439 73.6505C100.439 73.3906 100.283 73.1957 99.9716 73.0657C99.6728 72.9358 99.192 72.7994 98.5293 72.6564C97.7756 72.4875 97.1454 72.3121 96.6387 72.1302C96.1319 71.9353 95.6966 71.6429 95.3328 71.2531C94.9689 70.8503 94.787 70.3175 94.787 69.6548C94.787 69.0181 94.9689 68.4658 95.3328 67.9981C95.6966 67.5173 96.1839 67.1534 96.7946 66.9066C97.4183 66.6597 98.094 66.5362 98.8217 66.5362C99.6793 66.5362 100.452 66.7116 101.141 67.0625C101.83 67.4133 102.369 67.9201 102.759 68.5828L100.498 69.6938C100.342 69.3689 100.128 69.1285 99.8547 68.9726C99.5948 68.8167 99.2505 68.7387 98.8217 68.7387C98.4448 68.7387 98.146 68.8167 97.9251 68.9726C97.7042 69.1155 97.5937 69.3105 97.5937 69.5573ZM117.334 66.7896H120.102V76.5352H117.334V75.7945C116.905 76.1193 116.431 76.3662 115.911 76.5352C115.404 76.7171 114.891 76.808 114.371 76.808C113.358 76.808 112.481 76.5871 111.74 76.1453C111.012 75.7035 110.454 75.0993 110.064 74.3327C109.674 73.553 109.479 72.6694 109.479 71.6819C109.479 70.6943 109.674 69.8107 110.064 69.0311C110.454 68.2384 111.012 67.6212 111.74 67.1794C112.481 66.7376 113.358 66.5167 114.371 66.5167C114.904 66.5167 115.424 66.6077 115.931 66.7896C116.437 66.9715 116.905 67.2249 117.334 67.5498V66.7896ZM114.742 74.1572C115.469 74.1572 116.08 73.9233 116.574 73.4556C117.068 72.9878 117.315 72.3836 117.315 71.6429C117.315 70.9282 117.068 70.3435 116.574 69.8887C116.08 69.4339 115.469 69.2065 114.742 69.2065C114.014 69.2065 113.416 69.4339 112.949 69.8887C112.481 70.3435 112.247 70.9412 112.247 71.6819C112.247 72.4225 112.481 73.0203 112.949 73.4751C113.416 73.9298 114.014 74.1572 114.742 74.1572ZM128.22 66.5362C129.233 66.5362 130.104 66.7571 130.831 67.1989C131.572 67.6407 132.137 68.2514 132.527 69.0311C132.917 69.7977 133.112 70.6748 133.112 71.6624C133.112 72.6499 132.917 73.5335 132.527 74.3132C132.137 75.0928 131.572 75.71 130.831 76.1648C130.104 76.6066 129.233 76.8275 128.22 76.8275C127.7 76.8275 127.187 76.7366 126.68 76.5546C126.173 76.3857 125.705 76.1388 125.276 75.814V80.4334H122.489V66.7896H125.276V67.5498C125.705 67.2249 126.166 66.978 126.66 66.8091C127.167 66.6272 127.687 66.5362 128.22 66.5362ZM127.849 74.1183C128.577 74.1183 129.168 73.8974 129.623 73.4556C130.091 73.0008 130.325 72.403 130.325 71.6624C130.325 70.9217 130.091 70.324 129.623 69.8692C129.168 69.4144 128.577 69.187 127.849 69.187C127.122 69.187 126.511 69.4209 126.017 69.8887C125.523 70.3565 125.276 70.9542 125.276 71.6819C125.276 72.4095 125.517 73.0008 125.998 73.4556C126.491 73.8974 127.109 74.1183 127.849 74.1183ZM140.44 66.5362C141.453 66.5362 142.324 66.7571 143.051 67.1989C143.792 67.6407 144.357 68.2514 144.747 69.0311C145.137 69.7977 145.332 70.6748 145.332 71.6624C145.332 72.6499 145.137 73.5335 144.747 74.3132C144.357 75.0928 143.792 75.71 143.051 76.1648C142.324 76.6066 141.453 76.8275 140.44 76.8275C139.92 76.8275 139.407 76.7366 138.9 76.5546C138.393 76.3857 137.925 76.1388 137.496 75.814V80.4334H134.709V66.7896H137.496V67.5498C137.925 67.2249 138.386 66.978 138.88 66.8091C139.387 66.6272 139.907 66.5362 140.44 66.5362ZM140.069 74.1183C140.797 74.1183 141.388 73.8974 141.843 73.4556C142.311 73.0008 142.545 72.403 142.545 71.6624C142.545 70.9217 142.311 70.324 141.843 69.8692C141.388 69.4144 140.797 69.187 140.069 69.187C139.342 69.187 138.731 69.4209 138.237 69.8887C137.743 70.3565 137.496 70.9542 137.496 71.6819C137.496 72.4095 137.737 73.0008 138.218 73.4556C138.711 73.8974 139.329 74.1183 140.069 74.1183ZM151.549 76.8275C150.613 76.8275 149.749 76.6001 148.956 76.1453C148.177 75.6775 147.553 75.0473 147.085 74.2547C146.63 73.4621 146.403 72.6045 146.403 71.6819C146.403 70.7463 146.63 69.8887 147.085 69.1091C147.553 68.3164 148.177 67.6927 148.956 67.2379C149.749 66.7701 150.613 66.5362 151.549 66.5362C152.471 66.5362 153.322 66.7701 154.102 67.2379C154.895 67.6927 155.518 68.3164 155.973 69.1091C156.441 69.8887 156.675 70.7463 156.675 71.6819C156.675 72.6045 156.441 73.4621 155.973 74.2547C155.518 75.0473 154.895 75.6775 154.102 76.1453C153.322 76.6001 152.471 76.8275 151.549 76.8275ZM151.529 74.0403C152.179 74.0403 152.738 73.8129 153.205 73.3581C153.673 72.8903 153.907 72.3316 153.907 71.6819C153.907 71.0322 153.673 70.4734 153.205 70.0056C152.738 69.5379 152.179 69.304 151.529 69.304C150.879 69.304 150.321 69.5379 149.853 70.0056C149.398 70.4734 149.171 71.0322 149.171 71.6819C149.171 72.3316 149.398 72.8903 149.853 73.3581C150.321 73.8129 150.879 74.0403 151.529 74.0403ZM159.621 65.4642C159.101 65.4642 158.692 65.3278 158.393 65.0549C158.107 64.769 157.964 64.3857 157.964 63.9049C157.964 63.4112 158.107 63.0213 158.393 62.7355C158.692 62.4496 159.101 62.3067 159.621 62.3067C160.128 62.3067 160.53 62.4496 160.829 62.7355C161.128 63.0213 161.278 63.4112 161.278 63.9049C161.278 64.3857 161.128 64.769 160.829 65.0549C160.53 65.3278 160.128 65.4642 159.621 65.4642ZM158.217 76.5352V66.7896H161.005V76.5352H158.217ZM168.444 66.5167C169.016 66.5167 169.594 66.6402 170.179 66.8871C170.764 67.134 171.264 67.5693 171.68 68.193C172.096 68.8167 172.304 69.6548 172.304 70.7073V76.5352H169.516V70.7073C169.516 70.0836 169.341 69.6353 168.99 69.3624C168.652 69.0896 168.243 68.9531 167.762 68.9531C167.281 68.9531 166.879 69.122 166.554 69.4599C166.242 69.7977 166.086 70.337 166.086 71.0777V76.5352H163.299V66.7896H166.086V67.4523C166.827 66.8286 167.613 66.5167 168.444 66.5167ZM177.64 73.0657C177.64 73.4296 177.738 73.683 177.933 73.8259C178.141 73.9688 178.452 74.0403 178.868 74.0403C179.128 74.0403 179.414 74.0208 179.726 73.9818V76.5352C179.076 76.6001 178.537 76.6326 178.108 76.6326C177.017 76.6326 176.198 76.3922 175.652 75.9114C175.119 75.4177 174.853 74.5276 174.853 73.2412V69.265H173.177V66.7896H174.853V64.5286L177.64 63.5931V66.7896H179.687V69.265H177.64V73.0657ZM185.905 66.5362C186.854 66.5362 187.699 66.7636 188.439 67.2184C189.193 67.6732 189.778 68.2904 190.193 69.0701C190.609 69.8497 190.817 70.7138 190.817 71.6624C190.817 72.0262 190.791 72.3576 190.739 72.6564H183.528C183.774 73.2542 184.106 73.7025 184.522 74.0013C184.937 74.2872 185.477 74.4301 186.139 74.4301C186.542 74.4301 186.932 74.3457 187.309 74.1767C187.699 74.0078 188.004 73.7804 188.225 73.4945L190.33 74.742C189.875 75.4047 189.284 75.9114 188.556 76.2623C187.842 76.6131 187.016 76.7885 186.081 76.7885C185.028 76.7885 184.099 76.5676 183.294 76.1258C182.488 75.6711 181.864 75.0538 181.422 74.2742C180.981 73.4945 180.76 72.6239 180.76 71.6624C180.76 70.7008 180.974 69.8302 181.403 69.0506C181.845 68.2709 182.455 67.6602 183.235 67.2184C184.015 66.7636 184.905 66.5362 185.905 66.5362ZM188.205 70.4929C188.114 69.9991 187.855 69.6158 187.426 69.3429C187.01 69.0701 186.497 68.9336 185.886 68.9336C185.249 68.9336 184.697 69.0896 184.229 69.4014C183.761 69.7003 183.515 70.0641 183.489 70.4929H188.205ZM199.695 62.8914H202.463V76.5352H199.695V75.7945C199.266 76.1193 198.798 76.3662 198.292 76.5352C197.798 76.7171 197.285 76.808 196.752 76.808C195.738 76.808 194.861 76.5871 194.12 76.1453C193.393 75.7035 192.834 75.0993 192.444 74.3327C192.054 73.553 191.859 72.6694 191.859 71.6819C191.859 70.6943 192.054 69.8107 192.444 69.0311C192.834 68.2384 193.393 67.6212 194.12 67.1794C194.861 66.7376 195.738 66.5167 196.752 66.5167C197.272 66.5167 197.785 66.6077 198.292 66.7896C198.798 66.9585 199.266 67.2054 199.695 67.5303V62.8914ZM197.122 74.1572C197.85 74.1572 198.46 73.9233 198.954 73.4556C199.448 72.9878 199.695 72.3836 199.695 71.6429C199.695 70.9282 199.448 70.3435 198.954 69.8887C198.46 69.4339 197.85 69.2065 197.122 69.2065C196.394 69.2065 195.797 69.4339 195.329 69.8887C194.861 70.3435 194.627 70.9412 194.627 71.6819C194.627 72.4225 194.861 73.0203 195.329 73.4751C195.797 73.9298 196.394 74.1572 197.122 74.1572ZM217.302 66.7896H220.07V76.5352H217.302V75.7945C216.873 76.1193 216.399 76.3662 215.879 76.5352C215.372 76.7171 214.859 76.808 214.339 76.808C213.326 76.808 212.449 76.5871 211.708 76.1453C210.98 75.7035 210.422 75.0993 210.032 74.3327C209.642 73.553 209.447 72.6694 209.447 71.6819C209.447 70.6943 209.642 69.8107 210.032 69.0311C210.422 68.2384 210.98 67.6212 211.708 67.1794C212.449 66.7376 213.326 66.5167 214.339 66.5167C214.872 66.5167 215.392 66.6077 215.899 66.7896C216.405 66.9715 216.873 67.2249 217.302 67.5498V66.7896ZM214.71 74.1572C215.437 74.1572 216.048 73.9233 216.542 73.4556C217.036 72.9878 217.283 72.3836 217.283 71.6429C217.283 70.9282 217.036 70.3435 216.542 69.8887C216.048 69.4339 215.437 69.2065 214.71 69.2065C213.982 69.2065 213.384 69.4339 212.917 69.8887C212.449 70.3435 212.215 70.9412 212.215 71.6819C212.215 72.4225 212.449 73.0203 212.917 73.4751C213.384 73.9298 213.982 74.1572 214.71 74.1572ZM224.571 69.5573C224.571 69.7782 224.708 69.9472 224.981 70.0641C225.254 70.1681 225.689 70.2785 226.287 70.3955C227.053 70.5514 227.69 70.7268 228.197 70.9217C228.703 71.1036 229.145 71.4155 229.522 71.8573C229.912 72.2861 230.107 72.8838 230.107 73.6505C230.107 74.3132 229.905 74.8849 229.503 75.3657C229.1 75.8335 228.567 76.1908 227.904 76.4377C227.242 76.6716 226.527 76.7885 225.76 76.7885C224.708 76.7885 223.811 76.6001 223.071 76.2233C222.33 75.8335 221.771 75.2617 221.394 74.5081L223.675 73.3386C223.987 74.1702 224.682 74.586 225.76 74.586C226.202 74.586 226.585 74.5081 226.91 74.3522C227.248 74.1832 227.417 73.9493 227.417 73.6505C227.417 73.3906 227.261 73.1957 226.949 73.0657C226.65 72.9358 226.17 72.7994 225.507 72.6564C224.753 72.4875 224.123 72.3121 223.616 72.1302C223.109 71.9353 222.674 71.6429 222.31 71.2531C221.947 70.8503 221.765 70.3175 221.765 69.6548C221.765 69.0181 221.947 68.4658 222.31 67.9981C222.674 67.5173 223.161 67.1534 223.772 66.9066C224.396 66.6597 225.072 66.5362 225.799 66.5362C226.657 66.5362 227.43 66.7116 228.119 67.0625C228.807 67.4133 229.347 67.9201 229.736 68.5828L227.476 69.6938C227.32 69.3689 227.105 69.1285 226.832 68.9726C226.572 68.8167 226.228 68.7387 225.799 68.7387C225.422 68.7387 225.124 68.8167 224.903 68.9726C224.682 69.1155 224.571 69.3105 224.571 69.5573ZM240.491 73.0657C240.491 73.4296 240.589 73.683 240.784 73.8259C240.992 73.9688 241.304 74.0403 241.719 74.0403C241.979 74.0403 242.265 74.0208 242.577 73.9818V76.5352C241.927 76.6001 241.388 76.6326 240.959 76.6326C239.868 76.6326 239.049 76.3922 238.503 75.9114C237.971 75.4177 237.704 74.5276 237.704 73.2412V69.265H236.028V66.7896H237.704V64.5286L240.491 63.5931V66.7896H242.538V69.265H240.491V73.0657ZM253.217 76.5352H250.43V70.7853C250.43 70.1616 250.255 69.7133 249.904 69.4404C249.553 69.1545 249.137 69.0116 248.656 69.0116C248.254 69.0116 247.903 69.1415 247.604 69.4014C247.305 69.6483 247.117 70.0381 247.039 70.5709V76.5352H244.251V62.8914H247.039V67.4913C247.753 66.8936 248.526 66.5947 249.358 66.5947C249.917 66.5947 250.482 66.7181 251.054 66.965C251.639 67.1989 252.139 67.6212 252.555 68.232C252.983 68.8427 253.204 69.6678 253.217 70.7073V76.5352ZM259.511 66.5362C260.46 66.5362 261.304 66.7636 262.045 67.2184C262.798 67.6732 263.383 68.2904 263.799 69.0701C264.215 69.8497 264.423 70.7138 264.423 71.6624C264.423 72.0262 264.397 72.3576 264.345 72.6564H257.133C257.38 73.2542 257.711 73.7025 258.127 74.0013C258.543 74.2872 259.082 74.4301 259.745 74.4301C260.148 74.4301 260.537 74.3457 260.914 74.1767C261.304 74.0078 261.609 73.7804 261.83 73.4945L263.935 74.742C263.481 75.4047 262.889 75.9114 262.162 76.2623C261.447 76.6131 260.622 76.7885 259.686 76.7885C258.634 76.7885 257.705 76.5676 256.899 76.1258C256.093 75.6711 255.47 75.0538 255.028 74.2742C254.586 73.4945 254.365 72.6239 254.365 71.6624C254.365 70.7008 254.58 69.8302 255.008 69.0506C255.45 68.2709 256.061 67.6602 256.841 67.2184C257.62 66.7636 258.51 66.5362 259.511 66.5362ZM261.811 70.4929C261.72 69.9991 261.46 69.6158 261.031 69.3429C260.615 69.0701 260.102 68.9336 259.491 68.9336C258.855 68.9336 258.302 69.0896 257.835 69.4014C257.367 69.7003 257.12 70.0641 257.094 70.4929H261.811ZM275.978 76.7885C274.627 76.7885 273.49 76.4897 272.567 75.892C271.658 75.2942 271.015 74.4821 270.638 73.4556L273.113 72.0132C273.373 72.6629 273.737 73.1437 274.205 73.4556C274.685 73.7674 275.303 73.9234 276.056 73.9234C276.667 73.9234 277.135 73.7804 277.46 73.4945C277.797 73.2087 277.966 72.8903 277.966 72.5395C277.966 72.2796 277.888 72.0587 277.733 71.8768C277.577 71.6949 277.31 71.5259 276.933 71.37C276.557 71.2011 276.011 71.0127 275.296 70.8048C274.049 70.4409 273.055 69.9472 272.314 69.3235C271.573 68.6997 271.203 67.8096 271.203 66.6532C271.203 65.8345 271.404 65.1264 271.807 64.5286C272.223 63.9179 272.769 63.4501 273.444 63.1253C274.133 62.8004 274.874 62.638 275.666 62.638C276.771 62.638 277.739 62.9044 278.571 63.4371C279.402 63.9569 280.052 64.6976 280.52 65.6591L277.986 67.1015C277.739 66.5557 277.427 66.1594 277.05 65.9125C276.673 65.6526 276.212 65.5227 275.666 65.5227C275.251 65.5227 274.893 65.6396 274.594 65.8735C274.296 66.0944 274.146 66.3543 274.146 66.6532C274.146 66.9001 274.205 67.1145 274.322 67.2964C274.452 67.4653 274.679 67.6277 275.004 67.7837C275.342 67.9396 275.835 68.115 276.485 68.3099C277.356 68.5828 278.103 68.8882 278.727 69.226C279.363 69.5508 279.883 69.9991 280.286 70.5709C280.702 71.1426 280.91 71.8573 280.91 72.7149C280.91 73.5335 280.695 74.2547 280.266 74.8784C279.838 75.4891 279.246 75.9634 278.493 76.3013C277.752 76.6261 276.914 76.7885 275.978 76.7885ZM286.844 76.8275C285.909 76.8275 285.044 76.6001 284.252 76.1453C283.472 75.6775 282.848 75.0473 282.381 74.2547C281.926 73.4621 281.698 72.6045 281.698 71.6819C281.698 70.7463 281.926 69.8887 282.381 69.1091C282.848 68.3164 283.472 67.6927 284.252 67.2379C285.044 66.7701 285.909 66.5362 286.844 66.5362C287.767 66.5362 288.618 66.7701 289.397 67.2379C290.19 67.6927 290.814 68.3164 291.269 69.1091C291.736 69.8887 291.97 70.7463 291.97 71.6819C291.97 72.6045 291.736 73.4621 291.269 74.2547C290.814 75.0473 290.19 75.6775 289.397 76.1453C288.618 76.6001 287.767 76.8275 286.844 76.8275ZM286.825 74.0403C287.474 74.0403 288.033 73.8129 288.501 73.3581C288.969 72.8903 289.203 72.3316 289.203 71.6819C289.203 71.0322 288.969 70.4734 288.501 70.0056C288.033 69.5379 287.474 69.304 286.825 69.304C286.175 69.304 285.616 69.5379 285.148 70.0056C284.694 70.4734 284.466 71.0322 284.466 71.6819C284.466 72.3316 284.694 72.8903 285.148 73.3581C285.616 73.8129 286.175 74.0403 286.825 74.0403ZM302.246 74.625C301.765 75.3007 301.154 75.84 300.414 76.2428C299.686 76.6326 298.9 76.8275 298.055 76.8275C297.12 76.8275 296.256 76.6001 295.463 76.1453C294.683 75.6775 294.06 75.0473 293.592 74.2547C293.137 73.4621 292.91 72.6045 292.91 71.6819C292.91 70.7463 293.137 69.8887 293.592 69.1091C294.06 68.3164 294.683 67.6927 295.463 67.2379C296.256 66.7701 297.12 66.5362 298.055 66.5362C298.9 66.5362 299.686 66.7311 300.414 67.121C301.141 67.5108 301.746 68.037 302.226 68.6997L299.926 70.22C299.381 69.6093 298.757 69.304 298.055 69.304C297.406 69.304 296.847 69.5379 296.379 70.0056C295.911 70.4734 295.677 71.0322 295.677 71.6819C295.677 72.3316 295.911 72.8903 296.379 73.3581C296.847 73.8129 297.406 74.0403 298.055 74.0403C298.757 74.0403 299.381 73.7349 299.926 73.1242L302.246 74.625ZM305.005 65.4642C304.485 65.4642 304.075 65.3278 303.777 65.0549C303.491 64.769 303.348 64.3857 303.348 63.9049C303.348 63.4112 303.491 63.0213 303.777 62.7355C304.075 62.4496 304.485 62.3067 305.005 62.3067C305.511 62.3067 305.914 62.4496 306.213 62.7355C306.512 63.0213 306.661 63.4112 306.661 63.9049C306.661 64.3857 306.512 64.769 306.213 65.0549C305.914 65.3278 305.511 65.4642 305.005 65.4642ZM303.601 76.5352V66.7896H306.388V76.5352H303.601ZM316.128 66.7896H318.896V76.5352H316.128V75.7945C315.699 76.1193 315.225 76.3662 314.705 76.5352C314.198 76.7171 313.685 76.808 313.165 76.808C312.152 76.808 311.275 76.5871 310.534 76.1453C309.806 75.7035 309.248 75.0993 308.858 74.3327C308.468 73.553 308.273 72.6694 308.273 71.6819C308.273 70.6943 308.468 69.8107 308.858 69.0311C309.248 68.2384 309.806 67.6212 310.534 67.1794C311.275 66.7376 312.152 66.5167 313.165 66.5167C313.698 66.5167 314.218 66.6077 314.725 66.7896C315.231 66.9715 315.699 67.2249 316.128 67.5498V66.7896ZM313.536 74.1572C314.263 74.1572 314.874 73.9233 315.368 73.4556C315.862 72.9878 316.109 72.3836 316.109 71.6429C316.109 70.9282 315.862 70.3435 315.368 69.8887C314.874 69.4339 314.263 69.2065 313.536 69.2065C312.808 69.2065 312.21 69.4339 311.742 69.8887C311.275 70.3435 311.041 70.9412 311.041 71.6819C311.041 72.4225 311.275 73.0203 311.742 73.4751C312.21 73.9298 312.808 74.1572 313.536 74.1572ZM323.804 73.4556C323.804 73.6635 323.849 73.8129 323.94 73.9039C324.044 73.9948 324.213 74.0403 324.447 74.0403C324.616 74.0403 324.817 74.0208 325.051 73.9818V76.5352C324.415 76.6261 323.921 76.6716 323.57 76.6716C322.725 76.6716 322.089 76.4507 321.66 76.0089C321.231 75.5541 321.017 74.7615 321.017 73.631V62.8914H323.804V73.4556ZM342.549 62.9109V62.8914H345.472V76.5352H342.549V68.2709L339.079 74.0793H338.358L334.869 68.2514V76.5352H331.945V62.8914H334.869V62.9109L334.908 62.8914L338.709 69.2845L342.51 62.8914L342.549 62.9109ZM352.608 66.5362C353.556 66.5362 354.401 66.7636 355.141 67.2184C355.895 67.6732 356.48 68.2904 356.896 69.0701C357.311 69.8497 357.519 70.7138 357.519 71.6624C357.519 72.0262 357.493 72.3576 357.441 72.6564H350.23C350.477 73.2542 350.808 73.7025 351.224 74.0013C351.639 74.2872 352.179 74.4301 352.841 74.4301C353.244 74.4301 353.634 74.3457 354.011 74.1767C354.401 74.0078 354.706 73.7804 354.927 73.4945L357.032 74.742C356.577 75.4047 355.986 75.9114 355.258 76.2623C354.544 76.6131 353.719 76.7885 352.783 76.7885C351.73 76.7885 350.801 76.5676 349.996 76.1258C349.19 75.6711 348.566 75.0538 348.125 74.2742C347.683 73.4945 347.462 72.6239 347.462 71.6624C347.462 70.7008 347.676 69.8302 348.105 69.0506C348.547 68.2709 349.158 67.6602 349.937 67.2184C350.717 66.7636 351.607 66.5362 352.608 66.5362ZM354.907 70.4929C354.817 69.9991 354.557 69.6158 354.128 69.3429C353.712 69.0701 353.199 68.9336 352.588 68.9336C351.951 68.9336 351.399 69.0896 350.931 69.4014C350.464 69.7003 350.217 70.0641 350.191 70.4929H354.907ZM366.397 62.8914H369.165V76.5352H366.397V75.7945C365.968 76.1193 365.5 76.3662 364.994 76.5352C364.5 76.7171 363.987 76.808 363.454 76.808C362.44 76.808 361.563 76.5871 360.823 76.1453C360.095 75.7035 359.536 75.0993 359.146 74.3327C358.757 73.553 358.562 72.6694 358.562 71.6819C358.562 70.6943 358.757 69.8107 359.146 69.0311C359.536 68.2384 360.095 67.6212 360.823 67.1794C361.563 66.7376 362.44 66.5167 363.454 66.5167C363.974 66.5167 364.487 66.6077 364.994 66.7896C365.5 66.9585 365.968 67.2054 366.397 67.5303V62.8914ZM363.824 74.1572C364.552 74.1572 365.163 73.9233 365.656 73.4556C366.15 72.9878 366.397 72.3836 366.397 71.6429C366.397 70.9282 366.15 70.3435 365.656 69.8887C365.163 69.4339 364.552 69.2065 363.824 69.2065C363.097 69.2065 362.499 69.4339 362.031 69.8887C361.563 70.3435 361.329 70.9412 361.329 71.6819C361.329 72.4225 361.563 73.0203 362.031 73.4751C362.499 73.9298 363.097 74.1572 363.824 74.1572ZM373.014 65.4642C372.494 65.4642 372.085 65.3278 371.786 65.0549C371.5 64.769 371.357 64.3857 371.357 63.9049C371.357 63.4112 371.5 63.0213 371.786 62.7355C372.085 62.4496 372.494 62.3067 373.014 62.3067C373.521 62.3067 373.924 62.4496 374.222 62.7355C374.521 63.0213 374.671 63.4112 374.671 63.9049C374.671 64.3857 374.521 64.769 374.222 65.0549C373.924 65.3278 373.521 65.4642 373.014 65.4642ZM371.611 76.5352V66.7896H374.398V76.5352H371.611ZM384.137 66.7896H386.905V76.5352H384.137V75.7945C383.709 76.1193 383.234 76.3662 382.715 76.5352C382.208 76.7171 381.695 76.808 381.175 76.808C380.161 76.808 379.284 76.5871 378.543 76.1453C377.816 75.7035 377.257 75.0993 376.867 74.3327C376.477 73.553 376.283 72.6694 376.283 71.6819C376.283 70.6943 376.477 69.8107 376.867 69.0311C377.257 68.2384 377.816 67.6212 378.543 67.1794C379.284 66.7376 380.161 66.5167 381.175 66.5167C381.708 66.5167 382.227 66.6077 382.734 66.7896C383.241 66.9715 383.709 67.2249 384.137 67.5498V66.7896ZM381.545 74.1572C382.273 74.1572 382.883 73.9233 383.377 73.4556C383.871 72.9878 384.118 72.3836 384.118 71.6429C384.118 70.9282 383.871 70.3435 383.377 69.8887C382.883 69.4339 382.273 69.2065 381.545 69.2065C380.817 69.2065 380.22 69.4339 379.752 69.8887C379.284 70.3435 379.05 70.9412 379.05 71.6819C379.05 72.4225 379.284 73.0203 379.752 73.4751C380.22 73.9298 380.817 74.1572 381.545 74.1572ZM397.34 70.9802V73.7479H402.875V76.5352H394.416V62.8914H402.758V65.6591H397.34V68.193H402.29V70.9802H397.34ZM410.655 66.7896H414.047L410.538 71.6819L414.047 76.5352L410.636 76.5546L408.842 74.0598L407.049 76.5546L403.638 76.5352L407.147 71.6819L403.638 66.7896H407.03L408.842 69.304L410.655 66.7896ZM419.189 66.5362C420.138 66.5362 420.983 66.7636 421.723 67.2184C422.477 67.6732 423.062 68.2904 423.477 69.0701C423.893 69.8497 424.101 70.7138 424.101 71.6624C424.101 72.0262 424.075 72.3576 424.023 72.6564H416.812C417.058 73.2542 417.39 73.7025 417.806 74.0013C418.221 74.2872 418.761 74.4301 419.423 74.4301C419.826 74.4301 420.216 74.3457 420.593 74.1767C420.983 74.0078 421.288 73.7804 421.509 73.4945L423.614 74.742C423.159 75.4047 422.568 75.9114 421.84 76.2623C421.126 76.6131 420.3 76.7885 419.365 76.7885C418.312 76.7885 417.383 76.5676 416.578 76.1258C415.772 75.6711 415.148 75.0538 414.706 74.2742C414.265 73.4945 414.044 72.6239 414.044 71.6624C414.044 70.7008 414.258 69.8302 414.687 69.0506C415.129 68.2709 415.739 67.6602 416.519 67.2184C417.299 66.7636 418.189 66.5362 419.189 66.5362ZM421.489 70.4929C421.398 69.9991 421.139 69.6158 420.71 69.3429C420.294 69.0701 419.781 68.9336 419.17 68.9336C418.533 68.9336 417.981 69.0896 417.513 69.4014C417.045 69.7003 416.799 70.0641 416.773 70.4929H421.489ZM434.363 74.625C433.882 75.3007 433.271 75.84 432.531 76.2428C431.803 76.6326 431.017 76.8275 430.172 76.8275C429.237 76.8275 428.372 76.6001 427.58 76.1453C426.8 75.6775 426.177 75.0473 425.709 74.2547C425.254 73.4621 425.027 72.6045 425.027 71.6819C425.027 70.7463 425.254 69.8887 425.709 69.1091C426.177 68.3164 426.8 67.6927 427.58 67.2379C428.372 66.7701 429.237 66.5362 430.172 66.5362C431.017 66.5362 431.803 66.7311 432.531 67.121C433.258 67.5108 433.862 68.037 434.343 68.6997L432.043 70.22C431.498 69.6093 430.874 69.304 430.172 69.304C429.522 69.304 428.964 69.5379 428.496 70.0056C428.028 70.4734 427.794 71.0322 427.794 71.6819C427.794 72.3316 428.028 72.8903 428.496 73.3581C428.964 73.8129 429.522 74.0403 430.172 74.0403C430.874 74.0403 431.498 73.7349 432.043 73.1242L434.363 74.625ZM441.547 66.7896H444.334V76.5352H441.547V75.8725C440.807 76.4962 440.02 76.808 439.189 76.808C438.617 76.808 438.039 76.6846 437.454 76.4377C436.869 76.1908 436.369 75.7555 435.953 75.1318C435.537 74.5081 435.33 73.67 435.33 72.6174V66.7896H438.117V72.6174C438.117 73.2282 438.292 73.6765 438.643 73.9623C438.994 74.2352 439.41 74.3716 439.89 74.3716C440.358 74.3716 440.748 74.2027 441.06 73.8649C441.385 73.527 441.547 72.9878 441.547 72.2471V66.7896ZM449.887 73.0657C449.887 73.4296 449.985 73.683 450.18 73.8259C450.388 73.9688 450.7 74.0403 451.115 74.0403C451.375 74.0403 451.661 74.0208 451.973 73.9818V76.5352C451.323 76.6001 450.784 76.6326 450.355 76.6326C449.264 76.6326 448.445 76.3922 447.899 75.9114C447.367 75.4177 447.1 74.5276 447.1 73.2412V69.265H445.424V66.7896H447.1V64.5286L449.887 63.5931V66.7896H451.934V69.265H449.887V73.0657ZM455.375 65.4642C454.855 65.4642 454.446 65.3278 454.147 65.0549C453.861 64.769 453.718 64.3857 453.718 63.9049C453.718 63.4112 453.861 63.0213 454.147 62.7355C454.446 62.4496 454.855 62.3067 455.375 62.3067C455.882 62.3067 456.285 62.4496 456.584 62.7355C456.883 63.0213 457.032 63.4112 457.032 63.9049C457.032 64.3857 456.883 64.769 456.584 65.0549C456.285 65.3278 455.882 65.4642 455.375 65.4642ZM453.972 76.5352V66.7896H456.759V76.5352H453.972ZM463.185 73.0852L465.466 66.7896H468.409L464.861 76.5352H461.49L457.942 66.7896H460.885L463.185 73.0852ZM473.704 66.5362C474.652 66.5362 475.497 66.7636 476.237 67.2184C476.991 67.6732 477.576 68.2904 477.992 69.0701C478.407 69.8497 478.615 70.7138 478.615 71.6624C478.615 72.0262 478.589 72.3576 478.537 72.6564H471.326C471.573 73.2542 471.904 73.7025 472.32 74.0013C472.735 74.2872 473.275 74.4301 473.937 74.4301C474.34 74.4301 474.73 74.3457 475.107 74.1767C475.497 74.0078 475.802 73.7804 476.023 73.4945L478.128 74.742C477.673 75.4047 477.082 75.9114 476.354 76.2623C475.64 76.6131 474.815 76.7885 473.879 76.7885C472.826 76.7885 471.897 76.5676 471.092 76.1258C470.286 75.6711 469.662 75.0538 469.221 74.2742C468.779 73.4945 468.558 72.6239 468.558 71.6624C468.558 70.7008 468.772 69.8302 469.201 69.0506C469.643 68.2709 470.254 67.6602 471.033 67.2184C471.813 66.7636 472.703 66.5362 473.704 66.5362ZM476.003 70.4929C475.913 69.9991 475.653 69.6158 475.224 69.3429C474.808 69.0701 474.295 68.9336 473.684 68.9336C473.047 68.9336 472.495 69.0896 472.027 69.4014C471.56 69.7003 471.313 70.0641 471.287 70.4929H476.003ZM492.88 66.7896H495.648V76.5352H492.88V75.7945C492.451 76.1193 491.977 76.3662 491.457 76.5352C490.951 76.7171 490.437 76.808 489.918 76.808C488.904 76.808 488.027 76.5871 487.286 76.1453C486.559 75.7035 486 75.0993 485.61 74.3327C485.22 73.553 485.025 72.6694 485.025 71.6819C485.025 70.6943 485.22 69.8107 485.61 69.0311C486 68.2384 486.559 67.6212 487.286 67.1794C488.027 66.7376 488.904 66.5167 489.918 66.5167C490.45 66.5167 490.97 66.6077 491.477 66.7896C491.984 66.9715 492.451 67.2249 492.88 67.5498V66.7896ZM490.288 74.1572C491.016 74.1572 491.626 73.9233 492.12 73.4556C492.614 72.9878 492.861 72.3836 492.861 71.6429C492.861 70.9282 492.614 70.3435 492.12 69.8887C491.626 69.4339 491.016 69.2065 490.288 69.2065C489.56 69.2065 488.963 69.4339 488.495 69.8887C488.027 70.3435 487.793 70.9412 487.793 71.6819C487.793 72.4225 488.027 73.0203 488.495 73.4751C488.963 73.9298 489.56 74.1572 490.288 74.1572ZM503.181 66.5167C503.753 66.5167 504.331 66.6402 504.916 66.8871C505.5 67.134 506.001 67.5693 506.416 68.193C506.832 68.8167 507.04 69.6548 507.04 70.7073V76.5352H504.253V70.7073C504.253 70.0836 504.078 69.6353 503.727 69.3624C503.389 69.0896 502.98 68.9531 502.499 68.9531C502.018 68.9531 501.615 69.122 501.29 69.4599C500.978 69.7977 500.823 70.337 500.823 71.0777V76.5352H498.035V66.7896H500.823V67.4523C501.563 66.8286 502.349 66.5167 503.181 66.5167ZM516.292 62.8914H519.06V76.5352H516.292V75.7945C515.863 76.1193 515.395 76.3662 514.889 76.5352C514.395 76.7171 513.882 76.808 513.349 76.808C512.335 76.808 511.458 76.5871 510.717 76.1453C509.99 75.7035 509.431 75.0993 509.041 74.3327C508.651 73.553 508.456 72.6694 508.456 71.6819C508.456 70.6943 508.651 69.8107 509.041 69.0311C509.431 68.2384 509.99 67.6212 510.717 67.1794C511.458 66.7376 512.335 66.5167 513.349 66.5167C513.869 66.5167 514.382 66.6077 514.889 66.7896C515.395 66.9585 515.863 67.2054 516.292 67.5303V62.8914ZM513.719 74.1572C514.447 74.1572 515.057 73.9233 515.551 73.4556C516.045 72.9878 516.292 72.3836 516.292 71.6429C516.292 70.9282 516.045 70.3435 515.551 69.8887C515.057 69.4339 514.447 69.2065 513.719 69.2065C512.991 69.2065 512.394 69.4339 511.926 69.8887C511.458 70.3435 511.224 70.9412 511.224 71.6819C511.224 72.4225 511.458 73.0203 511.926 73.4751C512.394 73.9298 512.991 74.1572 513.719 74.1572ZM532.437 69.1285H539.883V70.3565C539.883 71.513 539.571 72.585 538.947 73.5725C538.324 74.5601 537.479 75.3462 536.413 75.9309C535.361 76.5157 534.217 76.808 532.983 76.808C531.71 76.808 530.534 76.4897 529.455 75.853C528.377 75.2163 527.519 74.3587 526.882 73.2801C526.259 72.2016 525.947 71.0257 525.947 69.7523C525.947 68.4788 526.259 67.3029 526.882 66.2244C527.519 65.1459 528.377 64.2948 529.455 63.671C530.534 63.0343 531.71 62.716 532.983 62.716C534.126 62.716 535.192 62.9759 536.18 63.4956C537.18 64.0154 538.005 64.7236 538.655 65.6201L536.335 67.4328C535.972 66.8871 535.491 66.4583 534.893 66.1464C534.308 65.8216 533.672 65.6591 532.983 65.6591C532.242 65.6591 531.554 65.841 530.917 66.2049C530.293 66.5687 529.799 67.069 529.436 67.7057C529.072 68.3294 528.89 69.0116 528.89 69.7523C528.89 70.4929 529.072 71.1816 529.436 71.8183C529.812 72.442 530.313 72.9423 530.936 73.3191C531.56 73.683 532.242 73.8649 532.983 73.8649C533.75 73.8649 534.438 73.6895 535.049 73.3386C535.673 72.9878 536.154 72.507 536.491 71.8963H532.437V69.1285ZM547.858 66.5947L547.663 69.226C547.572 69.187 547.423 69.1675 547.215 69.1675C546.422 69.1675 545.773 69.3949 545.266 69.8497C544.772 70.2915 544.525 70.8762 544.525 71.6039V76.5352H541.738V66.7896H544.525V68.3684C544.759 67.8616 545.136 67.4393 545.656 67.1015C546.175 66.7636 546.806 66.5947 547.546 66.5947H547.858ZM556.264 66.7896H559.032V76.5352H556.264V75.7945C555.836 76.1193 555.361 76.3662 554.841 76.5352C554.335 76.7171 553.821 76.808 553.302 76.808C552.288 76.808 551.411 76.5871 550.67 76.1453C549.943 75.7035 549.384 75.0993 548.994 74.3327C548.604 73.553 548.409 72.6694 548.409 71.6819C548.409 70.6943 548.604 69.8107 548.994 69.0311C549.384 68.2384 549.943 67.6212 550.67 67.1794C551.411 66.7376 552.288 66.5167 553.302 66.5167C553.834 66.5167 554.354 66.6077 554.861 66.7896C555.368 66.9715 555.836 67.2249 556.264 67.5498V66.7896ZM553.672 74.1572C554.4 74.1572 555.01 73.9233 555.504 73.4556C555.998 72.9878 556.245 72.3836 556.245 71.6429C556.245 70.9282 555.998 70.3435 555.504 69.8887C555.01 69.4339 554.4 69.2065 553.672 69.2065C552.944 69.2065 552.347 69.4339 551.879 69.8887C551.411 70.3435 551.177 70.9412 551.177 71.6819C551.177 72.4225 551.411 73.0203 551.879 73.4751C552.347 73.9298 552.944 74.1572 553.672 74.1572ZM567.15 66.5362C568.163 66.5362 569.034 66.7571 569.762 67.1989C570.502 67.6407 571.068 68.2514 571.457 69.0311C571.847 69.7977 572.042 70.6748 572.042 71.6624C572.042 72.6499 571.847 73.5335 571.457 74.3132C571.068 75.0928 570.502 75.71 569.762 76.1648C569.034 76.6066 568.163 76.8275 567.15 76.8275C566.63 76.8275 566.117 76.7366 565.61 76.5546C565.103 76.3857 564.635 76.1388 564.207 75.814V80.4334H561.419V66.7896H564.207V67.5498C564.635 67.2249 565.097 66.978 565.591 66.8091C566.097 66.6272 566.617 66.5362 567.15 66.5362ZM566.779 74.1183C567.507 74.1183 568.098 73.8974 568.553 73.4556C569.021 73.0008 569.255 72.403 569.255 71.6624C569.255 70.9217 569.021 70.324 568.553 69.8692C568.098 69.4144 567.507 69.187 566.779 69.187C566.052 69.187 565.441 69.4209 564.947 69.8887C564.454 70.3565 564.207 70.9542 564.207 71.6819C564.207 72.4095 564.447 73.0008 564.928 73.4556C565.422 73.8974 566.039 74.1183 566.779 74.1183ZM582.605 76.5352H579.818V70.7853C579.818 70.1616 579.643 69.7133 579.292 69.4404C578.941 69.1545 578.525 69.0116 578.044 69.0116C577.642 69.0116 577.291 69.1415 576.992 69.4014C576.693 69.6483 576.505 70.0381 576.427 70.5709V76.5352H573.639V62.8914H576.427V67.4913C577.141 66.8936 577.914 66.5947 578.746 66.5947C579.305 66.5947 579.87 66.7181 580.442 66.965C581.027 67.1989 581.527 67.6212 581.943 68.232C582.371 68.8427 582.592 69.6678 582.605 70.7073V76.5352ZM586.274 65.4642C585.754 65.4642 585.345 65.3278 585.046 65.0549C584.76 64.769 584.617 64.3857 584.617 63.9049C584.617 63.4112 584.76 63.0213 585.046 62.7355C585.345 62.4496 585.754 62.3067 586.274 62.3067C586.781 62.3067 587.183 62.4496 587.482 62.7355C587.781 63.0213 587.931 63.4112 587.931 63.9049C587.931 64.3857 587.781 64.769 587.482 65.0549C587.183 65.3278 586.781 65.4642 586.274 65.4642ZM584.871 76.5352V66.7896H587.658V76.5352H584.871ZM598.381 74.625C597.9 75.3007 597.29 75.84 596.549 76.2428C595.821 76.6326 595.035 76.8275 594.19 76.8275C593.255 76.8275 592.391 76.6001 591.598 76.1453C590.819 75.6775 590.195 75.0473 589.727 74.2547C589.272 73.4621 589.045 72.6045 589.045 71.6819C589.045 70.7463 589.272 69.8887 589.727 69.1091C590.195 68.3164 590.819 67.6927 591.598 67.2379C592.391 66.7701 593.255 66.5362 594.19 66.5362C595.035 66.5362 595.821 66.7311 596.549 67.121C597.277 67.5108 597.881 68.037 598.362 68.6997L596.062 70.22C595.516 69.6093 594.892 69.304 594.19 69.304C593.541 69.304 592.982 69.5379 592.514 70.0056C592.046 70.4734 591.813 71.0322 591.813 71.6819C591.813 72.3316 592.046 72.8903 592.514 73.3581C592.982 73.8129 593.541 74.0403 594.19 74.0403C594.892 74.0403 595.516 73.7349 596.062 73.1242L598.381 74.625ZM610.605 62.8914C611.878 62.8914 613.048 63.1968 614.113 63.8075C615.192 64.4052 616.043 65.2303 616.667 66.2828C617.303 67.3224 617.622 68.4788 617.622 69.7523C617.622 71.0257 617.31 72.1821 616.686 73.2217C616.063 74.2482 615.211 75.0603 614.133 75.6581C613.054 76.2428 611.878 76.5352 610.605 76.5352H605.011V62.8914H610.605ZM610.605 73.7479C611.346 73.7479 612.028 73.5725 612.652 73.2217C613.288 72.8578 613.789 72.3706 614.152 71.7598C614.516 71.1491 614.698 70.4734 614.698 69.7328C614.698 68.9921 614.516 68.3099 614.152 67.6862C613.789 67.0625 613.288 66.5687 612.652 66.2049C612.028 65.841 611.346 65.6591 610.605 65.6591H607.935V73.7479H610.605ZM623.732 66.5362C624.68 66.5362 625.525 66.7636 626.266 67.2184C627.019 67.6732 627.604 68.2904 628.02 69.0701C628.436 69.8497 628.643 70.7138 628.643 71.6624C628.643 72.0262 628.617 72.3576 628.565 72.6564H621.354C621.601 73.2542 621.932 73.7025 622.348 74.0013C622.764 74.2872 623.303 74.4301 623.966 74.4301C624.368 74.4301 624.758 74.3457 625.135 74.1767C625.525 74.0078 625.83 73.7804 626.051 73.4945L628.156 74.742C627.701 75.4047 627.11 75.9114 626.382 76.2623C625.668 76.6131 624.843 76.7885 623.907 76.7885C622.855 76.7885 621.926 76.5676 621.12 76.1258C620.314 75.6711 619.691 75.0538 619.249 74.2742C618.807 73.4945 618.586 72.6239 618.586 71.6624C618.586 70.7008 618.8 69.8302 619.229 69.0506C619.671 68.2709 620.282 67.6602 621.061 67.2184C621.841 66.7636 622.731 66.5362 623.732 66.5362ZM626.032 70.4929C625.941 69.9991 625.681 69.6158 625.252 69.3429C624.836 69.0701 624.323 68.9336 623.712 68.9336C623.075 68.9336 622.523 69.0896 622.055 69.4014C621.588 69.7003 621.341 70.0641 621.315 70.4929H626.032ZM632.59 69.5573C632.59 69.7782 632.726 69.9472 632.999 70.0641C633.272 70.1681 633.707 70.2785 634.305 70.3955C635.072 70.5514 635.708 70.7268 636.215 70.9217C636.722 71.1036 637.164 71.4155 637.541 71.8573C637.93 72.2861 638.125 72.8838 638.125 73.6505C638.125 74.3132 637.924 74.8849 637.521 75.3657C637.118 75.8335 636.586 76.1908 635.923 76.4377C635.26 76.6716 634.545 76.7885 633.779 76.7885C632.726 76.7885 631.83 76.6001 631.089 76.2233C630.348 75.8335 629.79 75.2617 629.413 74.5081L631.693 73.3386C632.005 74.1702 632.7 74.586 633.779 74.586C634.221 74.586 634.604 74.5081 634.929 74.3522C635.267 74.1832 635.436 73.9493 635.436 73.6505C635.436 73.3906 635.28 73.1957 634.968 73.0657C634.669 72.9358 634.188 72.7994 633.525 72.6564C632.772 72.4875 632.142 72.3121 631.635 72.1302C631.128 71.9353 630.693 71.6429 630.329 71.2531C629.965 70.8503 629.783 70.3175 629.783 69.6548C629.783 69.0181 629.965 68.4658 630.329 67.9981C630.693 67.5173 631.18 67.1534 631.791 66.9066C632.414 66.6597 633.09 66.5362 633.818 66.5362C634.675 66.5362 635.449 66.7116 636.137 67.0625C636.826 67.4133 637.365 67.9201 637.755 68.5828L635.494 69.6938C635.338 69.3689 635.124 69.1285 634.851 68.9726C634.591 68.8167 634.247 68.7387 633.818 68.7387C633.441 68.7387 633.142 68.8167 632.921 68.9726C632.7 69.1155 632.59 69.3105 632.59 69.5573ZM640.959 65.4642C640.44 65.4642 640.03 65.3278 639.731 65.0549C639.446 64.769 639.303 64.3857 639.303 63.9049C639.303 63.4112 639.446 63.0213 639.731 62.7355C640.03 62.4496 640.44 62.3067 640.959 62.3067C641.466 62.3067 641.869 62.4496 642.168 62.7355C642.467 63.0213 642.616 63.4112 642.616 63.9049C642.616 64.3857 642.467 64.769 642.168 65.0549C641.869 65.3278 641.466 65.4642 640.959 65.4642ZM639.556 76.5352V66.7896H642.343V76.5352H639.556ZM651.797 66.7896H654.585V76.0479C654.585 76.9575 654.344 77.7631 653.863 78.4648C653.396 79.1665 652.746 79.7122 651.914 80.102C651.083 80.4918 650.147 80.6868 649.108 80.6868C647.977 80.6868 646.938 80.4659 645.989 80.0241C645.053 79.5953 644.397 79.0365 644.02 78.3478L646.398 76.964C646.567 77.3018 646.905 77.5812 647.412 77.8021C647.919 78.023 648.51 78.1334 649.186 78.1334C649.939 78.1334 650.563 77.9385 651.057 77.5487C651.55 77.1589 651.797 76.6586 651.797 76.0479V75.7945C651.369 76.1193 650.901 76.3662 650.394 76.5352C649.9 76.7171 649.387 76.808 648.854 76.808C647.841 76.808 646.964 76.5871 646.223 76.1453C645.495 75.7035 644.936 75.0993 644.547 74.3327C644.157 73.553 643.962 72.6694 643.962 71.6819C643.962 70.6943 644.157 69.8107 644.547 69.0311C644.936 68.2384 645.495 67.6212 646.223 67.1794C646.964 66.7376 647.841 66.5167 648.854 66.5167C649.374 66.5167 649.887 66.6077 650.394 66.7896C650.901 66.9585 651.369 67.2054 651.797 67.5303V66.7896ZM649.225 74.1572C649.952 74.1572 650.563 73.9233 651.057 73.4556C651.55 72.9878 651.797 72.3836 651.797 71.6429C651.797 70.9282 651.55 70.3435 651.057 69.8887C650.563 69.4339 649.952 69.2065 649.225 69.2065C648.497 69.2065 647.899 69.4339 647.431 69.8887C646.977 70.3435 646.749 70.9412 646.749 71.6819C646.749 72.4225 646.977 73.0203 647.431 73.4751C647.899 73.9298 648.497 74.1572 649.225 74.1572ZM662.117 66.5167C662.689 66.5167 663.267 66.6402 663.852 66.8871C664.437 67.134 664.937 67.5693 665.353 68.193C665.768 68.8167 665.976 69.6548 665.976 70.7073V76.5352H663.189V70.7073C663.189 70.0836 663.014 69.6353 662.663 69.3624C662.325 69.0896 661.916 68.9531 661.435 68.9531C660.954 68.9531 660.551 69.122 660.226 69.4599C659.915 69.7977 659.759 70.337 659.759 71.0777V76.5352H656.971V66.7896H659.759V67.4523C660.499 66.8286 661.285 66.5167 662.117 66.5167ZM672.421 66.5362C673.37 66.5362 674.215 66.7636 674.955 67.2184C675.709 67.6732 676.294 68.2904 676.709 69.0701C677.125 69.8497 677.333 70.7138 677.333 71.6624C677.333 72.0262 677.307 72.3576 677.255 72.6564H670.043C670.29 73.2542 670.622 73.7025 671.037 74.0013C671.453 74.2872 671.993 74.4301 672.655 74.4301C673.058 74.4301 673.448 74.3457 673.825 74.1767C674.215 74.0078 674.52 73.7804 674.741 73.4945L676.846 74.742C676.391 75.4047 675.8 75.9114 675.072 76.2623C674.357 76.6131 673.532 76.7885 672.597 76.7885C671.544 76.7885 670.615 76.5676 669.81 76.1258C669.004 75.6711 668.38 75.0538 667.938 74.2742C667.497 73.4945 667.276 72.6239 667.276 71.6624C667.276 70.7008 667.49 69.8302 667.919 69.0506C668.361 68.2709 668.971 67.6602 669.751 67.2184C670.531 66.7636 671.421 66.5362 672.421 66.5362ZM674.721 70.4929C674.63 69.9991 674.37 69.6158 673.942 69.3429C673.526 69.0701 673.013 68.9336 672.402 68.9336C671.765 68.9336 671.213 69.0896 670.745 69.4014C670.277 69.7003 670.03 70.0641 670.004 70.4929H674.721ZM684.905 66.5947L684.71 69.226C684.619 69.187 684.47 69.1675 684.262 69.1675C683.469 69.1675 682.819 69.3949 682.313 69.8497C681.819 70.2915 681.572 70.8762 681.572 71.6039V76.5352H678.785V66.7896H681.572V68.3684C681.806 67.8616 682.183 67.4393 682.702 67.1015C683.222 66.7636 683.852 66.5947 684.593 66.5947H684.905Z" fill="#AAAAAA"/>
</svg>
