<svg width="597" height="70" viewBox="0 0 597 70" fill="none" xmlns="http://www.w3.org/2000/svg">
<path d="M117.32 48H110.92L108.96 42.72H98.6L96.64 48H90.2L100.56 20H107L117.32 48ZM103.8 28.72L100.68 37.04H106.88L103.8 28.72ZM125.92 40.92L130.6 28H136.64L129.36 48H122.44L115.16 28H121.2L125.92 40.92ZM153.306 28H158.986V48H153.306V46.48C152.426 47.1467 151.453 47.6533 150.386 48C149.346 48.3733 148.293 48.56 147.226 48.56C145.146 48.56 143.346 48.1067 141.826 47.2C140.333 46.2933 139.186 45.0533 138.386 43.48C137.586 41.88 137.186 40.0667 137.186 38.04C137.186 36.0133 137.586 34.2 138.386 32.6C139.186 30.9733 140.333 29.7067 141.826 28.8C143.346 27.8933 145.146 27.44 147.226 27.44C148.319 27.44 149.386 27.6267 150.426 28C151.466 28.3733 152.426 28.8933 153.306 29.56V28ZM147.986 43.12C149.479 43.12 150.733 42.64 151.746 41.68C152.759 40.72 153.266 39.48 153.266 37.96C153.266 36.4933 152.759 35.2933 151.746 34.36C150.733 33.4267 149.479 32.96 147.986 32.96C146.493 32.96 145.266 33.4267 144.306 34.36C143.346 35.2933 142.866 36.52 142.866 38.04C142.866 39.56 143.346 40.7867 144.306 41.72C145.266 42.6533 146.493 43.12 147.986 43.12ZM170.818 40.88C170.818 41.6267 171.018 42.1467 171.418 42.44C171.844 42.7333 172.484 42.88 173.338 42.88C173.871 42.88 174.458 42.84 175.098 42.76V48C173.764 48.1333 172.658 48.2 171.778 48.2C169.538 48.2 167.858 47.7067 166.738 46.72C165.644 45.7067 165.098 43.88 165.098 41.24V33.08H161.658V28H165.098V23.36L170.818 21.44V28H175.018V33.08H170.818V40.88ZM193.658 28H199.338V48H193.658V46.48C192.778 47.1467 191.804 47.6533 190.738 48C189.698 48.3733 188.644 48.56 187.578 48.56C185.498 48.56 183.698 48.1067 182.178 47.2C180.684 46.2933 179.538 45.0533 178.738 43.48C177.938 41.88 177.538 40.0667 177.538 38.04C177.538 36.0133 177.938 34.2 178.738 32.6C179.538 30.9733 180.684 29.7067 182.178 28.8C183.698 27.8933 185.498 27.44 187.578 27.44C188.671 27.44 189.738 27.6267 190.778 28C191.818 28.3733 192.778 28.8933 193.658 29.56V28ZM188.338 43.12C189.831 43.12 191.084 42.64 192.098 41.68C193.111 40.72 193.618 39.48 193.618 37.96C193.618 36.4933 193.111 35.2933 192.098 34.36C191.084 33.4267 189.831 32.96 188.338 32.96C186.844 32.96 185.618 33.4267 184.658 34.36C183.698 35.2933 183.218 36.52 183.218 38.04C183.218 39.56 183.698 40.7867 184.658 41.72C185.618 42.6533 186.844 43.12 188.338 43.12ZM216.797 27.6L216.397 33C216.21 32.92 215.904 32.88 215.477 32.88C213.85 32.88 212.517 33.3467 211.477 34.28C210.464 35.1867 209.957 36.3867 209.957 37.88V48H204.237V28H209.957V31.24C210.437 30.2 211.21 29.3333 212.277 28.64C213.344 27.9467 214.637 27.6 216.157 27.6H216.797ZM248.935 33C249.789 33.8 250.455 34.7467 250.935 35.84C251.415 36.9333 251.655 38.0933 251.655 39.32C251.655 40.8667 251.282 42.3067 250.535 43.64C249.789 44.9733 248.775 46.0267 247.495 46.8C246.242 47.5733 244.869 47.96 243.375 47.96H236.415V48H230.415V20H242.735C244.149 20 245.455 20.3733 246.655 21.12C247.855 21.84 248.802 22.8267 249.495 24.08C250.215 25.3067 250.575 26.6267 250.575 28.04C250.575 28.92 250.429 29.8 250.135 30.68C249.869 31.5333 249.469 32.3067 248.935 33ZM236.415 25.72V30.88L242.735 30.84C243.322 30.84 243.855 30.6 244.335 30.12C244.815 29.6133 245.055 29 245.055 28.28C245.055 27.5333 244.815 26.92 244.335 26.44C243.855 25.96 243.322 25.72 242.735 25.72H236.415ZM243.375 42.24C244.069 42.24 244.669 41.9467 245.175 41.36C245.682 40.7733 245.935 40.08 245.935 39.28C245.935 38.48 245.682 37.7867 245.175 37.2C244.669 36.6133 244.069 36.32 243.375 36.32H236.415V42.24H243.375ZM270.454 28H276.134V48H270.454V46.48C269.574 47.1467 268.601 47.6533 267.534 48C266.494 48.3733 265.441 48.56 264.374 48.56C262.294 48.56 260.494 48.1067 258.974 47.2C257.481 46.2933 256.334 45.0533 255.534 43.48C254.734 41.88 254.334 40.0667 254.334 38.04C254.334 36.0133 254.734 34.2 255.534 32.6C256.334 30.9733 257.481 29.7067 258.974 28.8C260.494 27.8933 262.294 27.44 264.374 27.44C265.468 27.44 266.534 27.6267 267.574 28C268.614 28.3733 269.574 28.8933 270.454 29.56V28ZM265.134 43.12C266.628 43.12 267.881 42.64 268.894 41.68C269.908 40.72 270.414 39.48 270.414 37.96C270.414 36.4933 269.908 35.2933 268.894 34.36C267.881 33.4267 266.628 32.96 265.134 32.96C263.641 32.96 262.414 33.4267 261.454 34.36C260.494 35.2933 260.014 36.52 260.014 38.04C260.014 39.56 260.494 40.7867 261.454 41.72C262.414 42.6533 263.641 43.12 265.134 43.12ZM298.176 44.08C297.19 45.4667 295.936 46.5733 294.416 47.4C292.923 48.2 291.31 48.6 289.576 48.6C287.656 48.6 285.883 48.1333 284.256 47.2C282.656 46.24 281.376 44.9467 280.416 43.32C279.483 41.6933 279.016 39.9333 279.016 38.04C279.016 36.12 279.483 34.36 280.416 32.76C281.376 31.1333 282.656 29.8533 284.256 28.92C285.883 27.96 287.656 27.48 289.576 27.48C291.31 27.48 292.923 27.88 294.416 28.68C295.91 29.48 297.15 30.56 298.136 31.92L293.416 35.04C292.296 33.7867 291.016 33.16 289.576 33.16C288.243 33.16 287.096 33.64 286.136 34.6C285.176 35.56 284.696 36.7067 284.696 38.04C284.696 39.3733 285.176 40.52 286.136 41.48C287.096 42.4133 288.243 42.88 289.576 42.88C291.016 42.88 292.296 42.2533 293.416 41L298.176 44.08ZM321.478 48H314.358L309.238 41.08L306.598 43.96V48H300.878V20H306.598V35.56L313.238 28H321.198L313.118 36.8L321.478 48ZM339.439 28H345.159V47C345.159 48.8667 344.665 50.52 343.679 51.96C342.719 53.4 341.385 54.52 339.679 55.32C337.972 56.12 336.052 56.52 333.919 56.52C331.599 56.52 329.465 56.0667 327.519 55.16C325.599 54.28 324.252 53.1333 323.479 51.72L328.359 48.88C328.705 49.5733 329.399 50.1467 330.439 50.6C331.479 51.0533 332.692 51.28 334.079 51.28C335.625 51.28 336.905 50.88 337.919 50.08C338.932 49.28 339.439 48.2533 339.439 47V46.48C338.559 47.1467 337.599 47.6533 336.559 48C335.545 48.3733 334.492 48.56 333.399 48.56C331.319 48.56 329.519 48.1067 327.999 47.2C326.505 46.2933 325.359 45.0533 324.559 43.48C323.759 41.88 323.359 40.0667 323.359 38.04C323.359 36.0133 323.759 34.2 324.559 32.6C325.359 30.9733 326.505 29.7067 327.999 28.8C329.519 27.8933 331.319 27.44 333.399 27.44C334.465 27.44 335.519 27.6267 336.559 28C337.599 28.3467 338.559 28.8533 339.439 29.52V28ZM334.159 43.12C335.652 43.12 336.905 42.64 337.919 41.68C338.932 40.72 339.439 39.48 339.439 37.96C339.439 36.4933 338.932 35.2933 337.919 34.36C336.905 33.4267 335.652 32.96 334.159 32.96C332.665 32.96 331.439 33.4267 330.479 34.36C329.545 35.2933 329.079 36.52 329.079 38.04C329.079 39.56 329.545 40.7867 330.479 41.72C331.439 42.6533 332.665 43.12 334.159 43.12ZM362.617 27.6L362.217 33C362.031 32.92 361.724 32.88 361.297 32.88C359.671 32.88 358.337 33.3467 357.297 34.28C356.284 35.1867 355.777 36.3867 355.777 37.88V48H350.057V28H355.777V31.24C356.257 30.2 357.031 29.3333 358.097 28.64C359.164 27.9467 360.457 27.6 361.977 27.6H362.617ZM374.068 48.6C372.148 48.6 370.375 48.1333 368.748 47.2C367.148 46.24 365.868 44.9467 364.908 43.32C363.975 41.6933 363.508 39.9333 363.508 38.04C363.508 36.12 363.975 34.36 364.908 32.76C365.868 31.1333 367.148 29.8533 368.748 28.92C370.375 27.96 372.148 27.48 374.068 27.48C375.962 27.48 377.708 27.96 379.308 28.92C380.935 29.8533 382.215 31.1333 383.148 32.76C384.108 34.36 384.588 36.12 384.588 38.04C384.588 39.9333 384.108 41.6933 383.148 43.32C382.215 44.9467 380.935 46.24 379.308 47.2C377.708 48.1333 375.962 48.6 374.068 48.6ZM374.028 42.88C375.362 42.88 376.508 42.4133 377.468 41.48C378.428 40.52 378.908 39.3733 378.908 38.04C378.908 36.7067 378.428 35.56 377.468 34.6C376.508 33.64 375.362 33.16 374.028 33.16C372.695 33.16 371.548 33.64 370.588 34.6C369.655 35.56 369.188 36.7067 369.188 38.04C369.188 39.3733 369.655 40.52 370.588 41.48C371.548 42.4133 372.695 42.88 374.028 42.88ZM399.756 28H405.476V48H399.756V46.64C398.236 47.92 396.623 48.56 394.916 48.56C393.743 48.56 392.556 48.3067 391.356 47.8C390.156 47.2933 389.13 46.4 388.276 45.12C387.423 43.84 386.996 42.12 386.996 39.96V28H392.716V39.96C392.716 41.2133 393.076 42.1333 393.796 42.72C394.516 43.28 395.37 43.56 396.356 43.56C397.316 43.56 398.116 43.2133 398.756 42.52C399.423 41.8267 399.756 40.72 399.756 39.2V28ZM420.93 27.44C422.103 27.44 423.29 27.6933 424.49 28.2C425.69 28.7067 426.716 29.6 427.57 30.88C428.423 32.16 428.85 33.88 428.85 36.04V48H423.13V36.04C423.13 34.76 422.77 33.84 422.05 33.28C421.356 32.72 420.516 32.44 419.53 32.44C418.543 32.44 417.716 32.7867 417.05 33.48C416.41 34.1733 416.09 35.28 416.09 36.8V48H410.37V28H416.09V29.36C417.61 28.08 419.223 27.44 420.93 27.44ZM447.836 20H453.516V48H447.836V46.48C446.956 47.1467 445.996 47.6533 444.956 48C443.943 48.3733 442.89 48.56 441.796 48.56C439.716 48.56 437.916 48.1067 436.396 47.2C434.903 46.2933 433.756 45.0533 432.956 43.48C432.156 41.88 431.756 40.0667 431.756 38.04C431.756 36.0133 432.156 34.2 432.956 32.6C433.756 30.9733 434.903 29.7067 436.396 28.8C437.916 27.8933 439.716 27.44 441.796 27.44C442.863 27.44 443.916 27.6267 444.956 28C445.996 28.3467 446.956 28.8533 447.836 29.52V20ZM442.556 43.12C444.05 43.12 445.303 42.64 446.316 41.68C447.33 40.72 447.836 39.48 447.836 37.96C447.836 36.4933 447.33 35.2933 446.316 34.36C445.303 33.4267 444.05 32.96 442.556 32.96C441.063 32.96 439.836 33.4267 438.876 34.36C437.916 35.2933 437.436 36.52 437.436 38.04C437.436 39.56 437.916 40.7867 438.876 41.72C439.836 42.6533 441.063 43.12 442.556 43.12ZM480.45 20C483.063 20 485.463 20.6267 487.65 21.88C489.863 23.1067 491.61 24.8 492.89 26.96C494.197 29.0933 494.85 31.4667 494.85 34.08C494.85 36.6933 494.21 39.0667 492.93 41.2C491.65 43.3067 489.903 44.9733 487.69 46.2C485.477 47.4 483.063 48 480.45 48H468.97V20H480.45ZM480.45 42.28C481.97 42.28 483.37 41.92 484.65 41.2C485.957 40.4533 486.983 39.4533 487.73 38.2C488.477 36.9467 488.85 35.56 488.85 34.04C488.85 32.52 488.477 31.12 487.73 29.84C486.983 28.56 485.957 27.5467 484.65 26.8C483.37 26.0533 481.97 25.68 480.45 25.68H474.97V42.28H480.45ZM507.389 27.48C509.335 27.48 511.069 27.9467 512.589 28.88C514.135 29.8133 515.335 31.08 516.189 32.68C517.042 34.28 517.469 36.0533 517.469 38C517.469 38.7467 517.415 39.4267 517.309 40.04H502.509C503.015 41.2667 503.695 42.1867 504.549 42.8C505.402 43.3867 506.509 43.68 507.869 43.68C508.695 43.68 509.495 43.5067 510.269 43.16C511.069 42.8133 511.695 42.3467 512.149 41.76L516.469 44.32C515.535 45.68 514.322 46.72 512.829 47.44C511.362 48.16 509.669 48.52 507.749 48.52C505.589 48.52 503.682 48.0667 502.029 47.16C500.375 46.2267 499.095 44.96 498.189 43.36C497.282 41.76 496.829 39.9733 496.829 38C496.829 36.0267 497.269 34.24 498.149 32.64C499.055 31.04 500.309 29.7867 501.909 28.88C503.509 27.9467 505.335 27.48 507.389 27.48ZM512.109 35.6C511.922 34.5867 511.389 33.8 510.509 33.24C509.655 32.68 508.602 32.4 507.349 32.4C506.042 32.4 504.909 32.72 503.949 33.36C502.989 33.9733 502.482 34.72 502.429 35.6H512.109ZM525.568 33.68C525.568 34.1333 525.848 34.48 526.408 34.72C526.968 34.9333 527.861 35.16 529.088 35.4C530.661 35.72 531.968 36.08 533.008 36.48C534.048 36.8533 534.954 37.4933 535.728 38.4C536.528 39.28 536.928 40.5067 536.928 42.08C536.928 43.44 536.514 44.6133 535.688 45.6C534.861 46.56 533.768 47.2933 532.408 47.8C531.048 48.28 529.581 48.52 528.008 48.52C525.848 48.52 524.008 48.1333 522.488 47.36C520.968 46.56 519.821 45.3867 519.048 43.84L523.728 41.44C524.368 43.1467 525.794 44 528.008 44C528.914 44 529.701 43.84 530.368 43.52C531.061 43.1733 531.408 42.6933 531.408 42.08C531.408 41.5467 531.088 41.1467 530.448 40.88C529.834 40.6133 528.848 40.3333 527.488 40.04C525.941 39.6933 524.648 39.3333 523.608 38.96C522.568 38.56 521.674 37.96 520.928 37.16C520.181 36.3333 519.808 35.24 519.808 33.88C519.808 32.5733 520.181 31.44 520.928 30.48C521.674 29.4933 522.674 28.7467 523.928 28.24C525.208 27.7333 526.594 27.48 528.088 27.48C529.848 27.48 531.434 27.84 532.848 28.56C534.261 29.28 535.368 30.32 536.168 31.68L531.528 33.96C531.208 33.2933 530.768 32.8 530.208 32.48C529.674 32.16 528.968 32 528.088 32C527.314 32 526.701 32.16 526.248 32.48C525.794 32.7733 525.568 33.1733 525.568 33.68ZM542.744 25.28C541.677 25.28 540.837 25 540.224 24.44C539.637 23.8533 539.344 23.0667 539.344 22.08C539.344 21.0667 539.637 20.2667 540.224 19.68C540.837 19.0933 541.677 18.8 542.744 18.8C543.784 18.8 544.61 19.0933 545.224 19.68C545.837 20.2667 546.144 21.0667 546.144 22.08C546.144 23.0667 545.837 23.8533 545.224 24.44C544.61 25 543.784 25.28 542.744 25.28ZM539.864 48V28H545.584V48H539.864ZM564.986 28H570.706V47C570.706 48.8667 570.212 50.52 569.226 51.96C568.266 53.4 566.932 54.52 565.226 55.32C563.519 56.12 561.599 56.52 559.466 56.52C557.146 56.52 555.012 56.0667 553.066 55.16C551.146 54.28 549.799 53.1333 549.026 51.72L553.906 48.88C554.252 49.5733 554.946 50.1467 555.986 50.6C557.026 51.0533 558.239 51.28 559.626 51.28C561.172 51.28 562.452 50.88 563.466 50.08C564.479 49.28 564.986 48.2533 564.986 47V46.48C564.106 47.1467 563.146 47.6533 562.106 48C561.092 48.3733 560.039 48.56 558.946 48.56C556.866 48.56 555.066 48.1067 553.546 47.2C552.052 46.2933 550.906 45.0533 550.106 43.48C549.306 41.88 548.906 40.0667 548.906 38.04C548.906 36.0133 549.306 34.2 550.106 32.6C550.906 30.9733 552.052 29.7067 553.546 28.8C555.066 27.8933 556.866 27.44 558.946 27.44C560.012 27.44 561.066 27.6267 562.106 28C563.146 28.3467 564.106 28.8533 564.986 29.52V28ZM559.706 43.12C561.199 43.12 562.452 42.64 563.466 41.68C564.479 40.72 564.986 39.48 564.986 37.96C564.986 36.4933 564.479 35.2933 563.466 34.36C562.452 33.4267 561.199 32.96 559.706 32.96C558.212 32.96 556.986 33.4267 556.026 34.36C555.092 35.2933 554.626 36.52 554.626 38.04C554.626 39.56 555.092 40.7867 556.026 41.72C556.986 42.6533 558.212 43.12 559.706 43.12ZM586.164 27.44C587.337 27.44 588.524 27.6933 589.724 28.2C590.924 28.7067 591.951 29.6 592.804 30.88C593.657 32.16 594.084 33.88 594.084 36.04V48H588.364V36.04C588.364 34.76 588.004 33.84 587.284 33.28C586.591 32.72 585.751 32.44 584.764 32.44C583.777 32.44 582.951 32.7867 582.284 33.48C581.644 34.1733 581.324 35.28 581.324 36.8V48H575.604V28H581.324V29.36C582.844 28.08 584.457 27.44 586.164 27.44Z" fill="#EAEAEA"/>
<path d="M47.2799 0.696279C48.8447 2.14924 50.8167 9.04855 51.562 11.3535C52.7262 14.9541 53.7031 17.8834 55.1769 21.3565C56.3528 24.1258 56.8354 28.5849 59.368 30.3786C61.016 31.5467 63.9727 32.0046 64.3929 34.5034C64.8351 37.1349 64.1522 39.8509 62.6576 42.0193C62.0723 42.8687 60.3201 44.3555 60.181 45.2348C59.6606 48.514 62.0306 51.9988 61.5403 55.3288C61.1955 57.6754 59.8844 58.7901 57.5443 57.799C56.8432 57.5024 56.2292 56.5242 55.2822 57.0016C53.9385 58.4389 55.4995 60.3498 53.8657 61.6844C53.0995 62.3113 52.163 62.3426 51.2095 62.0915C49.897 61.7468 49.2961 59.7137 47.6987 60.1937C47.1186 60.368 43.6416 64.5214 42.6725 65.3382C38.9627 68.4679 33.4878 70.8652 28.6268 69.4032C26.4233 68.7411 23.0191 65.9327 21.3034 64.3223C20.3343 63.4131 17.5728 59.9335 16.6362 59.633C14.6174 58.9866 14.5446 61.661 13.7849 62.4987C13.0734 63.2843 11.9079 63.2843 11.0611 62.7653C9.20882 61.6297 9.84489 57.7912 8.97208 57.5258C7.80398 57.1694 6.65019 60.7998 4.36733 59.144C3.07176 58.2035 3.09258 55.7997 3.18884 54.3558C3.41908 50.9244 5.74745 47.2874 3.56996 44.0368C1.61099 41.1113 -0.68617 40.3894 0.193153 36.1255C0.752486 33.412 3.24998 32.616 4.83042 30.8001C6.83101 28.5016 8.24884 24.6682 9.534 21.8846C11.8637 16.835 12.1499 12.0598 14.1804 7.01934C14.6109 5.95141 16.5374 1.68747 17.1474 1.04229C18.0411 0.0979235 19.0127 0.0237792 20.0716 0.739205C21.8302 1.92941 23.9453 8.41507 25.0665 10.5835C25.8327 12.065 26.9228 14.2334 28.7334 14.439C30.2111 14.6068 35.9605 14.6289 37.1807 14.1372C38.8092 13.4816 39.7406 9.67942 40.3936 8.20305C40.8228 7.23397 41.4888 6.38326 41.8934 5.4337C42.4943 4.02106 42.6075 2.22079 43.6039 1.04619C44.6003 -0.128411 46.0936 -0.408078 47.2812 0.693678L47.2799 0.696279ZM18.8189 8.99262C16.9029 9.4674 16.1185 14.7355 16.4307 16.3654C16.7286 17.9237 19.178 16.3875 20.0209 15.8984C21.9135 14.798 22.0045 14.8617 21.453 12.5697C21.2084 11.5564 20.1301 8.66742 18.8189 8.99131V8.99262ZM44.5535 9.41407C43.877 10.0619 42.8898 13.9108 43.172 14.8565C43.6169 16.3459 47.86 18.5312 48.327 16.9403C48.7068 15.6513 47.782 10.7669 46.8519 9.75877C46.3264 9.19033 45.144 8.84823 44.5535 9.41407ZM27.4131 49.3855C27.5276 44.3073 25.1056 34.48 19.6748 32.6303C15.3979 31.1734 12.7443 35.7222 12.3814 39.354C11.8897 44.2696 13.1983 48.7209 16.138 52.6193C19.0648 56.4982 24.3641 63.0268 28.6242 65.1418C34.0458 67.8344 38.9549 64.8439 42.3499 60.5436C47.3436 54.2179 52.8849 47.7609 52.2436 39.1185C51.8443 33.7385 47.2265 28.9075 42.5685 33.9428C39.0356 37.7618 37.5267 44.3242 37.1781 49.3855C37.0207 49.569 34.9823 48.1576 34.5934 48.0067C32.174 47.0637 30.6833 47.6607 28.5656 48.8106C28.1832 49.0187 27.9907 49.5312 27.4145 49.3855H27.4131Z" fill="white"/>
<path d="M27.4136 49.3857C27.9898 49.5314 28.1823 49.0189 28.5648 48.8107C30.6824 47.6608 32.1731 47.0638 34.5925 48.0069C34.9815 48.1577 37.0198 49.5704 37.1772 49.3857C37.5258 44.3244 39.0334 37.762 42.5676 33.9429C47.2257 28.9076 51.8434 33.7387 52.2427 39.1187C52.8853 47.761 47.3427 54.218 42.3491 60.5437C38.954 64.8441 34.0462 67.8346 28.6233 65.142C24.3632 63.0269 19.0639 56.4996 16.1372 52.6194C13.1961 48.721 11.8888 44.2697 12.3805 39.3541C12.7434 35.7223 15.397 31.1735 19.674 32.6304C25.1047 34.4801 27.5267 44.3075 27.4123 49.3857H27.4136ZM21.2531 36.417C19.9692 36.6121 19.5374 39.8965 19.4788 40.958C19.406 42.273 19.5712 47.5958 21.4053 47.6817C22.7906 47.7454 23.268 45.0424 23.35 44.0109C23.4592 42.6217 23.6361 36.0553 21.2531 36.417ZM43.6368 36.4157C43.2362 36.4911 43.0398 36.7291 42.829 37.0491C41.6909 38.7727 41.7169 45.1334 42.8316 46.8908C43.7773 48.3815 44.8049 47.5802 45.3252 46.2469C46.1382 44.1657 46.0927 39.4972 45.1509 37.4641C44.84 36.7929 44.5044 36.2518 43.6368 36.4157Z" fill="black"/>
<path d="M44.553 9.41392C45.1448 8.84808 46.3259 9.19019 46.8515 9.75863C47.7828 10.7667 48.7064 15.6511 48.3265 16.9402C47.8583 18.531 43.6164 16.3457 43.1716 14.8564C42.8893 13.9107 43.8766 10.0617 44.553 9.41392Z" fill="black"/>
<path d="M18.819 8.99217C20.1302 8.66698 21.2086 11.556 21.4531 12.5706C22.0059 14.8626 21.9136 14.7988 20.021 15.8993C19.1781 16.3897 16.7287 17.9246 16.4308 16.3663C16.1186 14.7351 16.903 9.46696 18.819 8.99347V8.99217Z" fill="black"/>
<path d="M43.6357 36.4157C44.5047 36.2505 44.839 36.7916 45.1498 37.4641C46.0929 39.4972 46.1371 44.167 45.3241 46.247C44.8038 47.5803 43.7762 48.3815 42.8306 46.8908C41.7145 45.1335 41.6885 38.7727 42.828 37.0492C43.0387 36.7292 43.2351 36.4925 43.6357 36.4157Z" fill="white"/>
<path d="M21.2527 36.4167C23.6357 36.0551 23.4601 42.6214 23.3495 44.0106C23.2676 45.0422 22.7902 47.7452 21.4048 47.6814C19.5694 47.5969 19.4056 42.2728 19.4784 40.9577C19.5369 39.8976 19.9688 36.6118 21.2527 36.4167Z" fill="white"/>
<path d="M28.429 54.4453L31.08 58.6039C31.4781 58.9447 32.014 59.8318 32.5837 59.7421L36.3625 54.95L36.0581 54.4453H28.4277H28.429Z" fill="white"/>
</svg>
