<svg width="689" height="23" viewBox="0 0 689 23" fill="none" xmlns="http://www.w3.org/2000/svg">
<path d="M0.84 9.16802C0.84 7.60002 1.224 6.15202 1.992 4.82402C2.776 3.49602 3.832 2.44802 5.16 1.68002C6.488 0.896019 7.936 0.504018 9.504 0.504018C11.104 0.504018 12.584 0.920019 13.944 1.75202C15.304 2.58402 16.36 3.68002 17.112 5.04002L13.944 6.74402C13.496 5.94402 12.88 5.31202 12.096 4.84802C11.312 4.36802 10.448 4.12802 9.504 4.12802C8.592 4.12802 7.744 4.35202 6.96 4.80002C6.192 5.24802 5.584 5.86402 5.136 6.64802C4.688 7.41602 4.464 8.25602 4.464 9.16802C4.464 10.08 4.688 10.928 5.136 11.712C5.6 12.48 6.216 13.096 6.984 13.56C7.752 14.008 8.592 14.232 9.504 14.232C10.448 14.232 11.32 13.992 12.12 13.512C12.92 13.016 13.536 12.36 13.968 11.544L17.16 13.272C16.408 14.648 15.344 15.76 13.968 16.608C12.608 17.44 11.12 17.856 9.504 17.856C7.936 17.856 6.488 17.464 5.16 16.68C3.832 15.896 2.776 14.84 1.992 13.512C1.224 12.184 0.84 10.736 0.84 9.16802ZM22.7319 13.728C22.7319 13.984 22.7879 14.168 22.8999 14.28C23.0279 14.392 23.2359 14.448 23.5239 14.448C23.7319 14.448 23.9799 14.424 24.2679 14.376V17.52C23.4839 17.632 22.8759 17.688 22.4439 17.688C21.4039 17.688 20.6199 17.416 20.0919 16.872C19.5639 16.312 19.2999 15.336 19.2999 13.944V0.720018H22.7319V13.728ZM28.2244 3.88802C27.5844 3.88802 27.0804 3.72002 26.7124 3.38402C26.3604 3.03202 26.1844 2.56002 26.1844 1.96802C26.1844 1.36002 26.3604 0.880019 26.7124 0.528019C27.0804 0.176019 27.5844 1.90735e-05 28.2244 1.90735e-05C28.8484 1.90735e-05 29.3444 0.176019 29.7124 0.528019C30.0804 0.880019 30.2644 1.36002 30.2644 1.96802C30.2644 2.56002 30.0804 3.03202 29.7124 3.38402C29.3444 3.72002 28.8484 3.88802 28.2244 3.88802ZM26.4964 17.52V5.52002H29.9284V17.52H26.4964ZM43.1323 15.168C42.5403 16 41.7883 16.664 40.8763 17.16C39.9803 17.64 39.0123 17.88 37.9723 17.88C36.8203 17.88 35.7563 17.6 34.7803 17.04C33.8203 16.464 33.0523 15.688 32.4763 14.712C31.9163 13.736 31.6363 12.68 31.6363 11.544C31.6363 10.392 31.9163 9.33602 32.4763 8.37602C33.0523 7.40002 33.8203 6.63202 34.7803 6.07202C35.7563 5.49602 36.8203 5.20802 37.9723 5.20802C39.0123 5.20802 39.9803 5.44802 40.8763 5.92802C41.7723 6.40802 42.5163 7.05602 43.1083 7.87202L40.2763 9.74402C39.6043 8.99202 38.8363 8.61602 37.9723 8.61602C37.1723 8.61602 36.4843 8.90402 35.9083 9.48002C35.3323 10.056 35.0443 10.744 35.0443 11.544C35.0443 12.344 35.3323 13.032 35.9083 13.608C36.4843 14.168 37.1723 14.448 37.9723 14.448C38.8363 14.448 39.6043 14.072 40.2763 13.32L43.1323 15.168ZM57.1131 17.52H52.8411L49.7691 13.368L48.1851 15.096V17.52H44.7531V0.720018H48.1851V10.056L52.1691 5.52002H56.9451L52.0971 10.8L57.1131 17.52ZM75.9024 17.52H72.4704V10.44C72.4704 9.67202 72.2544 9.12002 71.8224 8.78402C71.3904 8.43202 70.8784 8.25602 70.2864 8.25602C69.7904 8.25602 69.3584 8.41602 68.9904 8.73602C68.6224 9.04002 68.3904 9.52002 68.2944 10.176V17.52H64.8624V0.720018H68.2944V6.38402C69.1744 5.64802 70.1264 5.28002 71.1504 5.28002C71.8384 5.28002 72.5344 5.43202 73.2384 5.73602C73.9584 6.02402 74.5744 6.54402 75.0864 7.29602C75.6144 8.04802 75.8864 9.06402 75.9024 10.344V17.52ZM83.652 5.20802C84.82 5.20802 85.86 5.48802 86.772 6.04802C87.7 6.60802 88.42 7.36802 88.932 8.32802C89.444 9.28802 89.7 10.352 89.7 11.52C89.7 11.968 89.668 12.376 89.604 12.744H80.724C81.028 13.48 81.436 14.032 81.948 14.4C82.46 14.752 83.124 14.928 83.94 14.928C84.436 14.928 84.916 14.824 85.38 14.616C85.86 14.408 86.236 14.128 86.508 13.776L89.1 15.312C88.54 16.128 87.812 16.752 86.916 17.184C86.036 17.616 85.02 17.832 83.868 17.832C82.572 17.832 81.428 17.56 80.436 17.016C79.444 16.456 78.676 15.696 78.132 14.736C77.588 13.776 77.316 12.704 77.316 11.52C77.316 10.336 77.58 9.26402 78.108 8.30402C78.652 7.34402 79.404 6.59202 80.364 6.04802C81.324 5.48802 82.42 5.20802 83.652 5.20802ZM86.484 10.08C86.372 9.47202 86.052 9.00002 85.524 8.66402C85.012 8.32802 84.38 8.16002 83.628 8.16002C82.844 8.16002 82.164 8.35202 81.588 8.73602C81.012 9.10402 80.708 9.55202 80.676 10.08H86.484ZM99.0234 5.28002L98.7834 8.52002C98.6714 8.47202 98.4874 8.44802 98.2314 8.44802C97.2554 8.44802 96.4554 8.72802 95.8314 9.28802C95.2234 9.83202 94.9194 10.552 94.9194 11.448V17.52H91.4874V5.52002H94.9194V7.46402C95.2074 6.84002 95.6714 6.32002 96.3114 5.90402C96.9514 5.48802 97.7274 5.28002 98.6394 5.28002H99.0234ZM105.965 5.20802C107.133 5.20802 108.173 5.48802 109.085 6.04802C110.013 6.60802 110.733 7.36802 111.245 8.32802C111.757 9.28802 112.013 10.352 112.013 11.52C112.013 11.968 111.981 12.376 111.917 12.744H103.037C103.341 13.48 103.749 14.032 104.261 14.4C104.773 14.752 105.437 14.928 106.253 14.928C106.749 14.928 107.229 14.824 107.693 14.616C108.173 14.408 108.549 14.128 108.821 13.776L111.413 15.312C110.853 16.128 110.125 16.752 109.229 17.184C108.349 17.616 107.333 17.832 106.181 17.832C104.885 17.832 103.741 17.56 102.749 17.016C101.757 16.456 100.989 15.696 100.445 14.736C99.9005 13.776 99.6285 12.704 99.6285 11.52C99.6285 10.336 99.8925 9.26402 100.421 8.30402C100.965 7.34402 101.717 6.59202 102.677 6.04802C103.637 5.48802 104.733 5.20802 105.965 5.20802ZM108.797 10.08C108.685 9.47202 108.365 9.00002 107.837 8.66402C107.325 8.32802 106.693 8.16002 105.941 8.16002C105.157 8.16002 104.477 8.35202 103.901 8.73602C103.325 9.10402 103.021 9.55202 102.989 10.08H108.797ZM124.873 13.248C124.873 13.696 124.993 14.008 125.233 14.184C125.489 14.36 125.873 14.448 126.385 14.448C126.705 14.448 127.057 14.424 127.441 14.376V17.52C126.641 17.6 125.977 17.64 125.449 17.64C124.105 17.64 123.097 17.344 122.425 16.752C121.769 16.144 121.441 15.048 121.441 13.464V8.56802H119.377V5.52002H121.441V2.73602L124.873 1.58402V5.52002H127.393V8.56802H124.873V13.248ZM135.097 17.88C133.945 17.88 132.881 17.6 131.905 17.04C130.945 16.464 130.177 15.688 129.601 14.712C129.041 13.736 128.761 12.68 128.761 11.544C128.761 10.392 129.041 9.33602 129.601 8.37602C130.177 7.40002 130.945 6.63202 131.905 6.07202C132.881 5.49602 133.945 5.20802 135.097 5.20802C136.233 5.20802 137.281 5.49602 138.241 6.07202C139.217 6.63202 139.985 7.40002 140.545 8.37602C141.121 9.33602 141.409 10.392 141.409 11.544C141.409 12.68 141.121 13.736 140.545 14.712C139.985 15.688 139.217 16.464 138.241 17.04C137.281 17.6 136.233 17.88 135.097 17.88ZM135.073 14.448C135.873 14.448 136.561 14.168 137.137 13.608C137.713 13.032 138.001 12.344 138.001 11.544C138.001 10.744 137.713 10.056 137.137 9.48002C136.561 8.90402 135.873 8.61602 135.073 8.61602C134.273 8.61602 133.585 8.90402 133.009 9.48002C132.449 10.056 132.169 10.744 132.169 11.544C132.169 12.344 132.449 13.032 133.009 13.608C133.585 14.168 134.273 14.448 135.073 14.448ZM161.511 11.976L163.455 5.52002H167.031L163.143 17.52H159.807L157.815 11.184L155.799 17.52H152.487L148.647 5.52002H152.247L154.143 11.904L155.991 5.52002H159.615L161.511 11.976ZM176.991 5.52002H180.399V17.52H176.991V16.608C176.463 17.008 175.879 17.312 175.239 17.52C174.615 17.744 173.983 17.856 173.343 17.856C172.095 17.856 171.015 17.584 170.103 17.04C169.207 16.496 168.519 15.752 168.039 14.808C167.559 13.848 167.319 12.76 167.319 11.544C167.319 10.328 167.559 9.24002 168.039 8.28002C168.519 7.30402 169.207 6.54402 170.103 6.00002C171.015 5.45602 172.095 5.18402 173.343 5.18402C173.999 5.18402 174.639 5.29602 175.263 5.52002C175.887 5.74402 176.463 6.05602 176.991 6.45602V5.52002ZM173.799 14.592C174.695 14.592 175.447 14.304 176.055 13.728C176.663 13.152 176.967 12.408 176.967 11.496C176.967 10.616 176.663 9.89602 176.055 9.33602C175.447 8.77602 174.695 8.49602 173.799 8.49602C172.903 8.49602 172.167 8.77602 171.591 9.33602C171.015 9.89602 170.727 10.632 170.727 11.544C170.727 12.456 171.015 13.192 171.591 13.752C172.167 14.312 172.903 14.592 173.799 14.592ZM187.498 13.248C187.498 13.696 187.618 14.008 187.858 14.184C188.114 14.36 188.498 14.448 189.01 14.448C189.33 14.448 189.682 14.424 190.066 14.376V17.52C189.266 17.6 188.602 17.64 188.074 17.64C186.73 17.64 185.722 17.344 185.05 16.752C184.394 16.144 184.066 15.048 184.066 13.464V8.56802H182.002V5.52002H184.066V2.73602L187.498 1.58402V5.52002H190.018V8.56802H187.498V13.248ZM203.14 15.168C202.548 16 201.796 16.664 200.884 17.16C199.988 17.64 199.02 17.88 197.98 17.88C196.828 17.88 195.764 17.6 194.788 17.04C193.828 16.464 193.06 15.688 192.484 14.712C191.924 13.736 191.644 12.68 191.644 11.544C191.644 10.392 191.924 9.33602 192.484 8.37602C193.06 7.40002 193.828 6.63202 194.788 6.07202C195.764 5.49602 196.828 5.20802 197.98 5.20802C199.02 5.20802 199.988 5.44802 200.884 5.92802C201.78 6.40802 202.524 7.05602 203.116 7.87202L200.284 9.74402C199.612 8.99202 198.844 8.61602 197.98 8.61602C197.18 8.61602 196.492 8.90402 195.916 9.48002C195.34 10.056 195.052 10.744 195.052 11.544C195.052 12.344 195.34 13.032 195.916 13.608C196.492 14.168 197.18 14.448 197.98 14.448C198.844 14.448 199.612 14.072 200.284 13.32L203.14 15.168ZM216.035 17.52H212.603V10.44C212.603 9.67202 212.387 9.12002 211.955 8.78402C211.523 8.43202 211.011 8.25602 210.419 8.25602C209.923 8.25602 209.491 8.41602 209.123 8.73602C208.755 9.04002 208.523 9.52002 208.427 10.176V17.52H204.995V0.720018H208.427V6.38402C209.307 5.64802 210.259 5.28002 211.283 5.28002C211.971 5.28002 212.667 5.43202 213.371 5.73602C214.091 6.02402 214.707 6.54402 215.219 7.29602C215.747 8.04802 216.019 9.06402 216.035 10.344V17.52ZM236.605 11.976L238.549 5.52002H242.125L238.237 17.52H234.901L232.909 11.184L230.893 17.52H227.581L223.741 5.52002H227.341L229.237 11.904L231.085 5.52002H234.709L236.605 11.976ZM254.684 17.52H251.252V10.44C251.252 9.67202 251.036 9.12002 250.604 8.78402C250.172 8.43202 249.66 8.25602 249.068 8.25602C248.572 8.25602 248.14 8.41602 247.772 8.73602C247.404 9.04002 247.172 9.52002 247.076 10.176V17.52H243.644V0.720018H247.076V6.38402C247.956 5.64802 248.908 5.28002 249.932 5.28002C250.62 5.28002 251.316 5.43202 252.02 5.73602C252.74 6.02402 253.356 6.54402 253.868 7.29602C254.396 8.04802 254.668 9.06402 254.684 10.344V17.52ZM266.124 5.52002H269.532V17.52H266.124V16.608C265.596 17.008 265.012 17.312 264.372 17.52C263.748 17.744 263.116 17.856 262.476 17.856C261.228 17.856 260.148 17.584 259.236 17.04C258.34 16.496 257.652 15.752 257.172 14.808C256.692 13.848 256.452 12.76 256.452 11.544C256.452 10.328 256.692 9.24002 257.172 8.28002C257.652 7.30402 258.34 6.54402 259.236 6.00002C260.148 5.45602 261.228 5.18402 262.476 5.18402C263.132 5.18402 263.772 5.29602 264.396 5.52002C265.02 5.74402 265.596 6.05602 266.124 6.45602V5.52002ZM262.932 14.592C263.828 14.592 264.58 14.304 265.188 13.728C265.796 13.152 266.1 12.408 266.1 11.496C266.1 10.616 265.796 9.89602 265.188 9.33602C264.58 8.77602 263.828 8.49602 262.932 8.49602C262.036 8.49602 261.3 8.77602 260.724 9.33602C260.148 9.89602 259.86 10.632 259.86 11.544C259.86 12.456 260.148 13.192 260.724 13.752C261.3 14.312 262.036 14.592 262.932 14.592ZM276.631 13.248C276.631 13.696 276.751 14.008 276.991 14.184C277.247 14.36 277.631 14.448 278.143 14.448C278.463 14.448 278.815 14.424 279.199 14.376V17.52C278.399 17.6 277.735 17.64 277.207 17.64C275.863 17.64 274.855 17.344 274.183 16.752C273.527 16.144 273.199 15.048 273.199 13.464V8.56802H271.135V5.52002H273.199V2.73602L276.631 1.58402V5.52002H279.151V8.56802H276.631V13.248ZM297.038 5.52002H300.446V17.52H297.038V16.608C296.51 17.008 295.926 17.312 295.286 17.52C294.662 17.744 294.03 17.856 293.39 17.856C292.142 17.856 291.062 17.584 290.15 17.04C289.254 16.496 288.566 15.752 288.086 14.808C287.606 13.848 287.366 12.76 287.366 11.544C287.366 10.328 287.606 9.24002 288.086 8.28002C288.566 7.30402 289.254 6.54402 290.15 6.00002C291.062 5.45602 292.142 5.18402 293.39 5.18402C294.046 5.18402 294.686 5.29602 295.31 5.52002C295.934 5.74402 296.51 6.05602 297.038 6.45602V5.52002ZM293.846 14.592C294.742 14.592 295.494 14.304 296.102 13.728C296.71 13.152 297.014 12.408 297.014 11.496C297.014 10.616 296.71 9.89602 296.102 9.33602C295.494 8.77602 294.742 8.49602 293.846 8.49602C292.95 8.49602 292.214 8.77602 291.638 9.33602C291.062 9.89602 290.774 10.632 290.774 11.544C290.774 12.456 291.062 13.192 291.638 13.752C292.214 14.312 292.95 14.592 293.846 14.592ZM313.671 15.168C313.079 16 312.327 16.664 311.415 17.16C310.519 17.64 309.551 17.88 308.511 17.88C307.359 17.88 306.295 17.6 305.319 17.04C304.359 16.464 303.591 15.688 303.015 14.712C302.455 13.736 302.175 12.68 302.175 11.544C302.175 10.392 302.455 9.33602 303.015 8.37602C303.591 7.40002 304.359 6.63202 305.319 6.07202C306.295 5.49602 307.359 5.20802 308.511 5.20802C309.551 5.20802 310.519 5.44802 311.415 5.92802C312.311 6.40802 313.055 7.05602 313.647 7.87202L310.815 9.74402C310.143 8.99202 309.375 8.61602 308.511 8.61602C307.711 8.61602 307.023 8.90402 306.447 9.48002C305.871 10.056 305.583 10.744 305.583 11.544C305.583 12.344 305.871 13.032 306.447 13.608C307.023 14.168 307.711 14.448 308.511 14.448C309.375 14.448 310.143 14.072 310.815 13.32L313.671 15.168ZM319.873 13.248C319.873 13.696 319.993 14.008 320.233 14.184C320.489 14.36 320.873 14.448 321.385 14.448C321.705 14.448 322.057 14.424 322.441 14.376V17.52C321.641 17.6 320.977 17.64 320.449 17.64C319.105 17.64 318.097 17.344 317.425 16.752C316.769 16.144 316.441 15.048 316.441 13.464V8.56802H314.377V5.52002H316.441V2.73602L319.873 1.58402V5.52002H322.393V8.56802H319.873V13.248ZM331.963 5.52002H335.395V17.52H331.963V16.704C331.051 17.472 330.083 17.856 329.059 17.856C328.355 17.856 327.643 17.704 326.923 17.4C326.203 17.096 325.587 16.56 325.075 15.792C324.563 15.024 324.307 13.992 324.307 12.696V5.52002H327.739V12.696C327.739 13.448 327.955 14 328.387 14.352C328.819 14.688 329.331 14.856 329.923 14.856C330.499 14.856 330.979 14.648 331.363 14.232C331.763 13.816 331.963 13.152 331.963 12.24V5.52002ZM347.03 5.52002H350.438V17.52H347.03V16.608C346.502 17.008 345.918 17.312 345.278 17.52C344.654 17.744 344.022 17.856 343.382 17.856C342.134 17.856 341.054 17.584 340.142 17.04C339.246 16.496 338.558 15.752 338.078 14.808C337.598 13.848 337.358 12.76 337.358 11.544C337.358 10.328 337.598 9.24002 338.078 8.28002C338.558 7.30402 339.246 6.54402 340.142 6.00002C341.054 5.45602 342.134 5.18402 343.382 5.18402C344.038 5.18402 344.678 5.29602 345.302 5.52002C345.926 5.74402 346.502 6.05602 347.03 6.45602V5.52002ZM343.838 14.592C344.734 14.592 345.486 14.304 346.094 13.728C346.702 13.152 347.006 12.408 347.006 11.496C347.006 10.616 346.702 9.89602 346.094 9.33602C345.486 8.77602 344.734 8.49602 343.838 8.49602C342.942 8.49602 342.206 8.77602 341.63 9.33602C341.054 9.89602 340.766 10.632 340.766 11.544C340.766 12.456 341.054 13.192 341.63 13.752C342.206 14.312 342.942 14.592 343.838 14.592ZM356.482 13.728C356.482 13.984 356.538 14.168 356.65 14.28C356.778 14.392 356.986 14.448 357.274 14.448C357.482 14.448 357.73 14.424 358.018 14.376V17.52C357.234 17.632 356.626 17.688 356.194 17.688C355.154 17.688 354.37 17.416 353.842 16.872C353.314 16.312 353.05 15.336 353.05 13.944V0.720018H356.482V13.728ZM363.209 13.728C363.209 13.984 363.265 14.168 363.377 14.28C363.505 14.392 363.713 14.448 364.001 14.448C364.209 14.448 364.457 14.424 364.745 14.376V17.52C363.961 17.632 363.353 17.688 362.921 17.688C361.881 17.688 361.097 17.416 360.569 16.872C360.041 16.312 359.777 15.336 359.777 13.944V0.720018H363.209V13.728ZM374.304 5.52002H377.88L373.848 17.352C373.176 19.08 372.264 20.368 371.112 21.216C369.976 22.064 368.616 22.432 367.032 22.32V19.008C367.128 19.024 367.272 19.032 367.464 19.032C368.136 19.032 368.696 18.856 369.144 18.504C369.592 18.152 369.968 17.664 370.272 17.04L365.088 5.52002H368.784L371.928 12.408L374.304 5.52002ZM396.621 17.52H393.189V10.44C393.189 9.67202 392.973 9.12002 392.541 8.78402C392.109 8.43202 391.597 8.25602 391.005 8.25602C390.509 8.25602 390.077 8.41602 389.709 8.73602C389.341 9.04002 389.109 9.52002 389.013 10.176V17.52H385.581V0.720018H389.013V6.38402C389.893 5.64802 390.845 5.28002 391.869 5.28002C392.557 5.28002 393.253 5.43202 393.957 5.73602C394.677 6.02402 395.293 6.54402 395.805 7.29602C396.333 8.04802 396.605 9.06402 396.621 10.344V17.52ZM408.062 5.52002H411.47V17.52H408.062V16.608C407.534 17.008 406.95 17.312 406.31 17.52C405.686 17.744 405.054 17.856 404.414 17.856C403.166 17.856 402.086 17.584 401.174 17.04C400.278 16.496 399.59 15.752 399.11 14.808C398.63 13.848 398.39 12.76 398.39 11.544C398.39 10.328 398.63 9.24002 399.11 8.28002C399.59 7.30402 400.278 6.54402 401.174 6.00002C402.086 5.45602 403.166 5.18402 404.414 5.18402C405.07 5.18402 405.71 5.29602 406.334 5.52002C406.958 5.74402 407.534 6.05602 408.062 6.45602V5.52002ZM404.87 14.592C405.766 14.592 406.518 14.304 407.126 13.728C407.734 13.152 408.038 12.408 408.038 11.496C408.038 10.616 407.734 9.89602 407.126 9.33602C406.518 8.77602 405.766 8.49602 404.87 8.49602C403.974 8.49602 403.238 8.77602 402.662 9.33602C402.086 9.89602 401.798 10.632 401.798 11.544C401.798 12.456 402.086 13.192 402.662 13.752C403.238 14.312 403.974 14.592 404.87 14.592ZM421.465 5.20802C422.713 5.20802 423.785 5.48002 424.681 6.02402C425.593 6.56802 426.289 7.32002 426.769 8.28002C427.249 9.22402 427.489 10.304 427.489 11.52C427.489 12.736 427.249 13.824 426.769 14.784C426.289 15.744 425.593 16.504 424.681 17.064C423.785 17.608 422.713 17.88 421.465 17.88C420.825 17.88 420.193 17.768 419.569 17.544C418.945 17.336 418.369 17.032 417.841 16.632V22.32H414.409V5.52002H417.841V6.45602C418.369 6.05602 418.937 5.75202 419.545 5.54402C420.169 5.32002 420.809 5.20802 421.465 5.20802ZM421.009 14.544C421.905 14.544 422.633 14.272 423.193 13.728C423.769 13.168 424.057 12.432 424.057 11.52C424.057 10.608 423.769 9.87202 423.193 9.31202C422.633 8.75202 421.905 8.47202 421.009 8.47202C420.113 8.47202 419.361 8.76002 418.753 9.33602C418.145 9.91202 417.841 10.648 417.841 11.544C417.841 12.44 418.137 13.168 418.729 13.728C419.337 14.272 420.097 14.544 421.009 14.544ZM436.512 5.20802C437.76 5.20802 438.832 5.48002 439.728 6.02402C440.64 6.56802 441.336 7.32002 441.816 8.28002C442.296 9.22402 442.536 10.304 442.536 11.52C442.536 12.736 442.296 13.824 441.816 14.784C441.336 15.744 440.64 16.504 439.728 17.064C438.832 17.608 437.76 17.88 436.512 17.88C435.872 17.88 435.24 17.768 434.616 17.544C433.992 17.336 433.416 17.032 432.888 16.632V22.32H429.456V5.52002H432.888V6.45602C433.416 6.05602 433.984 5.75202 434.592 5.54402C435.216 5.32002 435.856 5.20802 436.512 5.20802ZM436.056 14.544C436.952 14.544 437.68 14.272 438.24 13.728C438.816 13.168 439.104 12.432 439.104 11.52C439.104 10.608 438.816 9.87202 438.24 9.31202C437.68 8.75202 436.952 8.47202 436.056 8.47202C435.16 8.47202 434.408 8.76002 433.8 9.33602C433.192 9.91202 432.888 10.648 432.888 11.544C432.888 12.44 433.184 13.168 433.776 13.728C434.384 14.272 435.144 14.544 436.056 14.544ZM450.191 5.20802C451.359 5.20802 452.399 5.48802 453.311 6.04802C454.239 6.60802 454.959 7.36802 455.471 8.32802C455.983 9.28802 456.239 10.352 456.239 11.52C456.239 11.968 456.207 12.376 456.143 12.744H447.263C447.567 13.48 447.975 14.032 448.487 14.4C448.999 14.752 449.663 14.928 450.479 14.928C450.975 14.928 451.455 14.824 451.919 14.616C452.399 14.408 452.775 14.128 453.047 13.776L455.639 15.312C455.079 16.128 454.351 16.752 453.455 17.184C452.575 17.616 451.559 17.832 450.407 17.832C449.111 17.832 447.967 17.56 446.975 17.016C445.983 16.456 445.215 15.696 444.671 14.736C444.127 13.776 443.855 12.704 443.855 11.52C443.855 10.336 444.119 9.26402 444.647 8.30402C445.191 7.34402 445.943 6.59202 446.903 6.04802C447.863 5.48802 448.959 5.20802 450.191 5.20802ZM453.023 10.08C452.911 9.47202 452.591 9.00002 452.063 8.66402C451.551 8.32802 450.919 8.16002 450.167 8.16002C449.383 8.16002 448.703 8.35202 448.127 8.73602C447.551 9.10402 447.247 9.55202 447.215 10.08H453.023ZM464.363 5.18402C465.067 5.18402 465.779 5.33602 466.499 5.64002C467.219 5.94402 467.835 6.48002 468.347 7.24802C468.859 8.01602 469.115 9.04802 469.115 10.344V17.52H465.683V10.344C465.683 9.57602 465.467 9.02402 465.035 8.68802C464.619 8.35202 464.115 8.18402 463.523 8.18402C462.931 8.18402 462.435 8.39202 462.035 8.80802C461.651 9.22402 461.459 9.88802 461.459 10.8V17.52H458.027V5.52002H461.459V6.33602C462.371 5.56802 463.339 5.18402 464.363 5.18402ZM477.05 5.20802C478.218 5.20802 479.258 5.48802 480.17 6.04802C481.098 6.60802 481.818 7.36802 482.33 8.32802C482.842 9.28802 483.098 10.352 483.098 11.52C483.098 11.968 483.066 12.376 483.002 12.744H474.122C474.426 13.48 474.834 14.032 475.346 14.4C475.858 14.752 476.522 14.928 477.338 14.928C477.834 14.928 478.314 14.824 478.778 14.616C479.258 14.408 479.634 14.128 479.906 13.776L482.498 15.312C481.938 16.128 481.21 16.752 480.314 17.184C479.434 17.616 478.418 17.832 477.266 17.832C475.97 17.832 474.826 17.56 473.834 17.016C472.842 16.456 472.074 15.696 471.53 14.736C470.986 13.776 470.714 12.704 470.714 11.52C470.714 10.336 470.978 9.26402 471.506 8.30402C472.05 7.34402 472.802 6.59202 473.762 6.04802C474.722 5.48802 475.818 5.20802 477.05 5.20802ZM479.882 10.08C479.77 9.47202 479.45 9.00002 478.922 8.66402C478.41 8.32802 477.778 8.16002 477.026 8.16002C476.242 8.16002 475.562 8.35202 474.986 8.73602C474.41 9.10402 474.106 9.55202 474.074 10.08H479.882ZM494.03 0.720018H497.438V17.52H494.03V16.608C493.502 17.008 492.926 17.312 492.302 17.52C491.694 17.744 491.062 17.856 490.406 17.856C489.158 17.856 488.078 17.584 487.166 17.04C486.27 16.496 485.582 15.752 485.102 14.808C484.622 13.848 484.382 12.76 484.382 11.544C484.382 10.328 484.622 9.24002 485.102 8.28002C485.582 7.30402 486.27 6.54402 487.166 6.00002C488.078 5.45602 489.158 5.18402 490.406 5.18402C491.046 5.18402 491.678 5.29602 492.302 5.52002C492.926 5.72802 493.502 6.03202 494.03 6.43202V0.720018ZM490.862 14.592C491.758 14.592 492.51 14.304 493.118 13.728C493.726 13.152 494.03 12.408 494.03 11.496C494.03 10.616 493.726 9.89602 493.118 9.33602C492.51 8.77602 491.758 8.49602 490.862 8.49602C489.966 8.49602 489.23 8.77602 488.654 9.33602C488.078 9.89602 487.79 10.632 487.79 11.544C487.79 12.456 488.078 13.192 488.654 13.752C489.23 14.312 489.966 14.592 490.862 14.592ZM515.686 0.720018H519.094V17.52H515.686V16.608C515.158 17.008 514.582 17.312 513.958 17.52C513.35 17.744 512.718 17.856 512.062 17.856C510.814 17.856 509.734 17.584 508.822 17.04C507.926 16.496 507.238 15.752 506.758 14.808C506.278 13.848 506.038 12.76 506.038 11.544C506.038 10.328 506.278 9.24002 506.758 8.28002C507.238 7.30402 507.926 6.54402 508.822 6.00002C509.734 5.45602 510.814 5.18402 512.062 5.18402C512.702 5.18402 513.334 5.29602 513.958 5.52002C514.582 5.72802 515.158 6.03202 515.686 6.43202V0.720018ZM512.518 14.592C513.414 14.592 514.166 14.304 514.774 13.728C515.382 13.152 515.686 12.408 515.686 11.496C515.686 10.616 515.382 9.89602 514.774 9.33602C514.166 8.77602 513.414 8.49602 512.518 8.49602C511.622 8.49602 510.886 8.77602 510.31 9.33602C509.734 9.89602 509.446 10.632 509.446 11.544C509.446 12.456 509.734 13.192 510.31 13.752C510.886 14.312 511.622 14.592 512.518 14.592ZM528.885 5.52002H532.317V17.52H528.885V16.704C527.973 17.472 527.005 17.856 525.981 17.856C525.277 17.856 524.565 17.704 523.845 17.4C523.125 17.096 522.509 16.56 521.997 15.792C521.485 15.024 521.229 13.992 521.229 12.696V5.52002H524.661V12.696C524.661 13.448 524.877 14 525.309 14.352C525.741 14.688 526.253 14.856 526.845 14.856C527.421 14.856 527.901 14.648 528.285 14.232C528.685 13.816 528.885 13.152 528.885 12.24V5.52002ZM542.789 5.28002L542.549 8.52002C542.437 8.47202 542.253 8.44802 541.997 8.44802C541.021 8.44802 540.221 8.72802 539.597 9.28802C538.989 9.83202 538.685 10.552 538.685 11.448V17.52H535.253V5.52002H538.685V7.46402C538.973 6.84002 539.437 6.32002 540.077 5.90402C540.717 5.48802 541.493 5.28002 542.405 5.28002H542.789ZM546.615 3.88802C545.975 3.88802 545.471 3.72002 545.103 3.38402C544.751 3.03202 544.575 2.56002 544.575 1.96802C544.575 1.36002 544.751 0.880019 545.103 0.528019C545.471 0.176019 545.975 1.90735e-05 546.615 1.90735e-05C547.239 1.90735e-05 547.735 0.176019 548.103 0.528019C548.471 0.880019 548.655 1.36002 548.655 1.96802C548.655 2.56002 548.471 3.03202 548.103 3.38402C547.735 3.72002 547.239 3.88802 546.615 3.88802ZM544.887 17.52V5.52002H548.319V17.52H544.887ZM557.48 5.18402C558.184 5.18402 558.896 5.33602 559.616 5.64002C560.336 5.94402 560.952 6.48002 561.464 7.24802C561.976 8.01602 562.232 9.04802 562.232 10.344V17.52H558.8V10.344C558.8 9.57602 558.584 9.02402 558.152 8.68802C557.736 8.35202 557.232 8.18402 556.64 8.18402C556.048 8.18402 555.552 8.39202 555.152 8.80802C554.768 9.22402 554.576 9.88802 554.576 10.8V17.52H551.144V5.52002H554.576V6.33602C555.488 5.56802 556.456 5.18402 557.48 5.18402ZM573.648 5.52002H577.08V16.92C577.08 18.04 576.784 19.032 576.192 19.896C575.616 20.76 574.816 21.432 573.792 21.912C572.768 22.392 571.616 22.632 570.336 22.632C568.944 22.632 567.664 22.36 566.496 21.816C565.344 21.288 564.536 20.6 564.072 19.752L567 18.048C567.208 18.464 567.624 18.808 568.248 19.08C568.872 19.352 569.6 19.488 570.432 19.488C571.36 19.488 572.128 19.248 572.736 18.768C573.344 18.288 573.648 17.672 573.648 16.92V16.608C573.12 17.008 572.544 17.312 571.92 17.52C571.312 17.744 570.68 17.856 570.024 17.856C568.776 17.856 567.696 17.584 566.784 17.04C565.888 16.496 565.2 15.752 564.72 14.808C564.24 13.848 564 12.76 564 11.544C564 10.328 564.24 9.24002 564.72 8.28002C565.2 7.30402 565.888 6.54402 566.784 6.00002C567.696 5.45602 568.776 5.18402 570.024 5.18402C570.664 5.18402 571.296 5.29602 571.92 5.52002C572.544 5.72802 573.12 6.03202 573.648 6.43202V5.52002ZM570.48 14.592C571.376 14.592 572.128 14.304 572.736 13.728C573.344 13.152 573.648 12.408 573.648 11.496C573.648 10.616 573.344 9.89602 572.736 9.33602C572.128 8.77602 571.376 8.49602 570.48 8.49602C569.584 8.49602 568.848 8.77602 568.272 9.33602C567.712 9.89602 567.432 10.632 567.432 11.544C567.432 12.456 567.712 13.192 568.272 13.752C568.848 14.312 569.584 14.592 570.48 14.592ZM590.623 13.248C590.623 13.696 590.743 14.008 590.983 14.184C591.239 14.36 591.623 14.448 592.135 14.448C592.455 14.448 592.807 14.424 593.191 14.376V17.52C592.391 17.6 591.727 17.64 591.199 17.64C589.855 17.64 588.847 17.344 588.175 16.752C587.519 16.144 587.191 15.048 587.191 13.464V8.56802H585.127V5.52002H587.191V2.73602L590.623 1.58402V5.52002H593.143V8.56802H590.623V13.248ZM606.293 17.52H602.861V10.44C602.861 9.67202 602.645 9.12002 602.213 8.78402C601.781 8.43202 601.269 8.25602 600.677 8.25602C600.181 8.25602 599.749 8.41602 599.381 8.73602C599.013 9.04002 598.781 9.52002 598.685 10.176V17.52H595.253V0.720018H598.685V6.38402C599.565 5.64802 600.517 5.28002 601.541 5.28002C602.229 5.28002 602.925 5.43202 603.629 5.73602C604.349 6.02402 604.965 6.54402 605.477 7.29602C606.005 8.04802 606.277 9.06402 606.293 10.344V17.52ZM614.043 5.20802C615.211 5.20802 616.251 5.48802 617.163 6.04802C618.091 6.60802 618.811 7.36802 619.323 8.32802C619.835 9.28802 620.091 10.352 620.091 11.52C620.091 11.968 620.059 12.376 619.995 12.744H611.115C611.419 13.48 611.827 14.032 612.339 14.4C612.851 14.752 613.515 14.928 614.331 14.928C614.827 14.928 615.307 14.824 615.771 14.616C616.251 14.408 616.627 14.128 616.899 13.776L619.491 15.312C618.931 16.128 618.203 16.752 617.307 17.184C616.427 17.616 615.411 17.832 614.259 17.832C612.963 17.832 611.819 17.56 610.827 17.016C609.835 16.456 609.067 15.696 608.523 14.736C607.979 13.776 607.707 12.704 607.707 11.52C607.707 10.336 607.971 9.26402 608.499 8.30402C609.043 7.34402 609.795 6.59202 610.755 6.04802C611.715 5.48802 612.811 5.20802 614.043 5.20802ZM616.875 10.08C616.763 9.47202 616.443 9.00002 615.915 8.66402C615.403 8.32802 614.771 8.16002 614.019 8.16002C613.235 8.16002 612.555 8.35202 611.979 8.73602C611.403 9.10402 611.099 9.55202 611.067 10.08H616.875ZM634.175 5.20802C635.343 5.20802 636.383 5.48802 637.295 6.04802C638.223 6.60802 638.943 7.36802 639.455 8.32802C639.967 9.28802 640.223 10.352 640.223 11.52C640.223 11.968 640.191 12.376 640.127 12.744H631.247C631.551 13.48 631.959 14.032 632.471 14.4C632.983 14.752 633.647 14.928 634.463 14.928C634.959 14.928 635.439 14.824 635.903 14.616C636.383 14.408 636.759 14.128 637.031 13.776L639.623 15.312C639.063 16.128 638.335 16.752 637.439 17.184C636.559 17.616 635.543 17.832 634.391 17.832C633.095 17.832 631.951 17.56 630.959 17.016C629.967 16.456 629.199 15.696 628.655 14.736C628.111 13.776 627.839 12.704 627.839 11.52C627.839 10.336 628.103 9.26402 628.631 8.30402C629.175 7.34402 629.927 6.59202 630.887 6.04802C631.847 5.48802 632.943 5.20802 634.175 5.20802ZM637.007 10.08C636.895 9.47202 636.575 9.00002 636.047 8.66402C635.535 8.32802 634.903 8.16002 634.151 8.16002C633.367 8.16002 632.687 8.35202 632.111 8.73602C631.535 9.10402 631.231 9.55202 631.199 10.08H637.007ZM646.654 13.272L649.462 5.52002H653.086L648.718 17.52H644.566L640.198 5.52002H643.822L646.654 13.272ZM659.605 5.20802C660.773 5.20802 661.813 5.48802 662.725 6.04802C663.653 6.60802 664.373 7.36802 664.885 8.32802C665.397 9.28802 665.653 10.352 665.653 11.52C665.653 11.968 665.621 12.376 665.557 12.744H656.677C656.981 13.48 657.389 14.032 657.901 14.4C658.413 14.752 659.077 14.928 659.893 14.928C660.389 14.928 660.869 14.824 661.333 14.616C661.813 14.408 662.189 14.128 662.461 13.776L665.053 15.312C664.493 16.128 663.765 16.752 662.869 17.184C661.989 17.616 660.973 17.832 659.821 17.832C658.525 17.832 657.381 17.56 656.389 17.016C655.397 16.456 654.629 15.696 654.085 14.736C653.541 13.776 653.269 12.704 653.269 11.52C653.269 10.336 653.533 9.26402 654.061 8.30402C654.605 7.34402 655.357 6.59202 656.317 6.04802C657.277 5.48802 658.373 5.20802 659.605 5.20802ZM662.437 10.08C662.325 9.47202 662.005 9.00002 661.477 8.66402C660.965 8.32802 660.333 8.16002 659.581 8.16002C658.797 8.16002 658.117 8.35202 657.541 8.73602C656.965 9.10402 656.661 9.55202 656.629 10.08H662.437ZM673.777 5.18402C674.481 5.18402 675.193 5.33602 675.913 5.64002C676.633 5.94402 677.249 6.48002 677.761 7.24802C678.273 8.01602 678.529 9.04802 678.529 10.344V17.52H675.097V10.344C675.097 9.57602 674.881 9.02402 674.449 8.68802C674.033 8.35202 673.529 8.18402 672.937 8.18402C672.345 8.18402 671.849 8.39202 671.449 8.80802C671.065 9.22402 670.873 9.88802 670.873 10.8V17.52H667.441V5.52002H670.873V6.33602C671.785 5.56802 672.753 5.18402 673.777 5.18402ZM685.1 13.248C685.1 13.696 685.22 14.008 685.46 14.184C685.716 14.36 686.1 14.448 686.612 14.448C686.932 14.448 687.284 14.424 687.668 14.376V17.52C686.868 17.6 686.204 17.64 685.676 17.64C684.332 17.64 683.324 17.344 682.652 16.752C681.996 16.144 681.668 15.048 681.668 13.464V8.56802H679.604V5.52002H681.668V2.73602L685.1 1.58402V5.52002H687.62V8.56802H685.1V13.248Z" fill="white"/>
<path d="M0 19.92H365.831V21.12H0V19.92ZM373.63 19.92H413.206V21.12H373.63V19.92ZM419.044 19.92H428.253V21.12H419.044V19.92ZM434.091 19.92H562.972V21.12H434.091V19.92ZM577.38 19.92H688.724V21.12H577.38V19.92Z" fill="white"/>
<a href="https://youtu.be/KAxDgDfIajs?si=9xuGdkKatqZPWzUq">
<rect fill="black" fill-opacity="0" x="0.132812" y="0.164" width="688.724" height="27.672"/>
</a>
</svg>
