<svg width="1421" height="70" viewBox="0 0 1421 70" fill="none" xmlns="http://www.w3.org/2000/svg">
<path d="M104.621 20.0879C107.234 20.0879 109.634 20.7146 111.821 21.9679C114.034 23.1946 115.781 24.8879 117.061 27.0479C118.368 29.1812 119.021 31.5546 119.021 34.1679C119.021 36.7812 118.381 39.1546 117.101 41.2879C115.821 43.3946 114.074 45.0612 111.861 46.2879C109.648 47.4879 107.234 48.0879 104.621 48.0879H93.1409V20.0879H104.621ZM104.621 42.3679C106.141 42.3679 107.541 42.0079 108.821 41.2879C110.128 40.5412 111.154 39.5412 111.901 38.2879C112.648 37.0346 113.021 35.6479 113.021 34.1279C113.021 32.6079 112.648 31.2079 111.901 29.9279C111.154 28.6479 110.128 27.6346 108.821 26.8879C107.541 26.1412 106.141 25.7679 104.621 25.7679H99.1409V42.3679H104.621ZM131.56 27.5679C133.506 27.5679 135.24 28.0346 136.76 28.9679C138.306 29.9012 139.506 31.1679 140.36 32.7679C141.213 34.3679 141.64 36.1412 141.64 38.0879C141.64 38.8346 141.586 39.5146 141.48 40.1279H126.68C127.186 41.3546 127.866 42.2746 128.72 42.8879C129.573 43.4746 130.68 43.7679 132.04 43.7679C132.866 43.7679 133.666 43.5946 134.44 43.2479C135.24 42.9012 135.866 42.4346 136.32 41.8479L140.64 44.4079C139.706 45.7679 138.493 46.8079 137 47.5279C135.533 48.2479 133.84 48.6079 131.92 48.6079C129.76 48.6079 127.853 48.1546 126.2 47.2479C124.546 46.3146 123.266 45.0479 122.36 43.4479C121.453 41.8479 121 40.0612 121 38.0879C121 36.1146 121.44 34.3279 122.32 32.7279C123.226 31.1279 124.48 29.8746 126.08 28.9679C127.68 28.0346 129.506 27.5679 131.56 27.5679ZM136.28 35.6879C136.093 34.6746 135.56 33.8879 134.68 33.3279C133.826 32.7679 132.773 32.4879 131.52 32.4879C130.213 32.4879 129.08 32.8079 128.12 33.4479C127.16 34.0612 126.653 34.8079 126.6 35.6879H136.28ZM152.357 41.0079L157.037 28.0879H163.077L155.797 48.0879H148.877L141.597 28.0879H147.637L152.357 41.0079ZM173.942 27.5679C175.889 27.5679 177.622 28.0346 179.142 28.9679C180.689 29.9012 181.889 31.1679 182.742 32.7679C183.596 34.3679 184.022 36.1412 184.022 38.0879C184.022 38.8346 183.969 39.5146 183.862 40.1279H169.062C169.569 41.3546 170.249 42.2746 171.102 42.8879C171.956 43.4746 173.062 43.7679 174.422 43.7679C175.249 43.7679 176.049 43.5946 176.822 43.2479C177.622 42.9012 178.249 42.4346 178.702 41.8479L183.022 44.4079C182.089 45.7679 180.876 46.8079 179.382 47.5279C177.916 48.2479 176.222 48.6079 174.302 48.6079C172.142 48.6079 170.236 48.1546 168.582 47.2479C166.929 46.3146 165.649 45.0479 164.742 43.4479C163.836 41.8479 163.382 40.0612 163.382 38.0879C163.382 36.1146 163.822 34.3279 164.702 32.7279C165.609 31.1279 166.862 29.8746 168.462 28.9679C170.062 28.0346 171.889 27.5679 173.942 27.5679ZM178.662 35.6879C178.476 34.6746 177.942 33.8879 177.062 33.3279C176.209 32.7679 175.156 32.4879 173.902 32.4879C172.596 32.4879 171.462 32.8079 170.502 33.4479C169.542 34.0612 169.036 34.8079 168.982 35.6879H178.662ZM192.722 41.7679C192.722 42.1946 192.815 42.5012 193.002 42.6879C193.215 42.8746 193.562 42.9679 194.042 42.9679C194.388 42.9679 194.802 42.9279 195.282 42.8479V48.0879C193.975 48.2746 192.962 48.3679 192.242 48.3679C190.508 48.3679 189.202 47.9146 188.322 47.0079C187.442 46.0746 187.002 44.4479 187.002 42.1279V20.0879H192.722V41.7679ZM207.067 48.6879C205.147 48.6879 203.374 48.2212 201.747 47.2879C200.147 46.3279 198.867 45.0346 197.907 43.4079C196.974 41.7812 196.507 40.0212 196.507 38.1279C196.507 36.2079 196.974 34.4479 197.907 32.8479C198.867 31.2212 200.147 29.9412 201.747 29.0079C203.374 28.0479 205.147 27.5679 207.067 27.5679C208.961 27.5679 210.707 28.0479 212.307 29.0079C213.934 29.9412 215.214 31.2212 216.147 32.8479C217.107 34.4479 217.587 36.2079 217.587 38.1279C217.587 40.0212 217.107 41.7812 216.147 43.4079C215.214 45.0346 213.934 46.3279 212.307 47.2879C210.707 48.2212 208.961 48.6879 207.067 48.6879ZM207.027 42.9679C208.361 42.9679 209.507 42.5012 210.467 41.5679C211.427 40.6079 211.907 39.4612 211.907 38.1279C211.907 36.7946 211.427 35.6479 210.467 34.6879C209.507 33.7279 208.361 33.2479 207.027 33.2479C205.694 33.2479 204.547 33.7279 203.587 34.6879C202.654 35.6479 202.187 36.7946 202.187 38.1279C202.187 39.4612 202.654 40.6079 203.587 41.5679C204.547 42.5012 205.694 42.9679 207.027 42.9679ZM232.355 27.5679C234.435 27.5679 236.222 28.0212 237.715 28.9279C239.235 29.8346 240.395 31.0879 241.195 32.6879C241.995 34.2612 242.395 36.0612 242.395 38.0879C242.395 40.1146 241.995 41.9279 241.195 43.5279C240.395 45.1279 239.235 46.3946 237.715 47.3279C236.222 48.2346 234.435 48.6879 232.355 48.6879C231.289 48.6879 230.235 48.5012 229.195 48.1279C228.155 47.7812 227.195 47.2746 226.315 46.6079V56.0879H220.595V28.0879H226.315V29.6479C227.195 28.9812 228.142 28.4746 229.155 28.1279C230.195 27.7546 231.262 27.5679 232.355 27.5679ZM231.595 43.1279C233.089 43.1279 234.302 42.6746 235.235 41.7679C236.195 40.8346 236.675 39.6079 236.675 38.0879C236.675 36.5679 236.195 35.3412 235.235 34.4079C234.302 33.4746 233.089 33.0079 231.595 33.0079C230.102 33.0079 228.849 33.4879 227.835 34.4479C226.822 35.4079 226.315 36.6346 226.315 38.1279C226.315 39.6212 226.809 40.8346 227.795 41.7679C228.809 42.6746 230.075 43.1279 231.595 43.1279ZM248.477 25.3679C247.41 25.3679 246.57 25.0879 245.957 24.5279C245.37 23.9412 245.077 23.1546 245.077 22.1679C245.077 21.1546 245.37 20.3546 245.957 19.7679C246.57 19.1812 247.41 18.8879 248.477 18.8879C249.517 18.8879 250.344 19.1812 250.957 19.7679C251.57 20.3546 251.877 21.1546 251.877 22.1679C251.877 23.1546 251.57 23.9412 250.957 24.5279C250.344 25.0879 249.517 25.3679 248.477 25.3679ZM245.597 48.0879V28.0879H251.317V48.0879H245.597ZM266.585 27.5279C267.758 27.5279 268.945 27.7812 270.145 28.2879C271.345 28.7946 272.372 29.6879 273.225 30.9679C274.078 32.2479 274.505 33.9679 274.505 36.1279V48.0879H268.785V36.1279C268.785 34.8479 268.425 33.9279 267.705 33.3679C267.012 32.8079 266.172 32.5279 265.185 32.5279C264.198 32.5279 263.372 32.8746 262.705 33.5679C262.065 34.2612 261.745 35.3679 261.745 36.8879V48.0879H256.025V28.0879H261.745V29.4479C263.265 28.1679 264.878 27.5279 266.585 27.5279ZM293.532 28.0879H299.252V47.0879C299.252 48.9546 298.758 50.6079 297.772 52.0479C296.812 53.4879 295.478 54.6079 293.772 55.4079C292.065 56.2079 290.145 56.6079 288.012 56.6079C285.692 56.6079 283.558 56.1546 281.612 55.2479C279.692 54.3679 278.345 53.2212 277.572 51.8079L282.452 48.9679C282.798 49.6612 283.492 50.2346 284.532 50.6879C285.572 51.1412 286.785 51.3679 288.172 51.3679C289.718 51.3679 290.998 50.9679 292.012 50.1679C293.025 49.3679 293.532 48.3412 293.532 47.0879V46.5679C292.652 47.2346 291.692 47.7412 290.652 48.0879C289.638 48.4612 288.585 48.6479 287.492 48.6479C285.412 48.6479 283.612 48.1946 282.092 47.2879C280.598 46.3812 279.452 45.1412 278.652 43.5679C277.852 41.9679 277.452 40.1546 277.452 38.1279C277.452 36.1012 277.852 34.2879 278.652 32.6879C279.452 31.0612 280.598 29.7946 282.092 28.8879C283.612 27.9812 285.412 27.5279 287.492 27.5279C288.558 27.5279 289.612 27.7146 290.652 28.0879C291.692 28.4346 292.652 28.9412 293.532 29.6079V28.0879ZM288.252 43.2079C289.745 43.2079 290.998 42.7279 292.012 41.7679C293.025 40.8079 293.532 39.5679 293.532 38.0479C293.532 36.5812 293.025 35.3812 292.012 34.4479C290.998 33.5146 289.745 33.0479 288.252 33.0479C286.758 33.0479 285.532 33.5146 284.572 34.4479C283.638 35.3812 283.172 36.6079 283.172 38.1279C283.172 39.6479 283.638 40.8746 284.572 41.8079C285.532 42.7412 286.758 43.2079 288.252 43.2079ZM321.824 40.9679C321.824 41.7146 322.024 42.2346 322.424 42.5279C322.851 42.8212 323.491 42.9679 324.344 42.9679C324.878 42.9679 325.464 42.9279 326.104 42.8479V48.0879C324.771 48.2212 323.664 48.2879 322.784 48.2879C320.544 48.2879 318.864 47.7946 317.744 46.8079C316.651 45.7946 316.104 43.9679 316.104 41.3279V33.1679H312.664V28.0879H316.104V23.4479L321.824 21.5279V28.0879H326.024V33.1679H321.824V40.9679ZM347.941 48.0879H342.221V36.2879C342.221 35.0079 341.861 34.0879 341.141 33.5279C340.421 32.9412 339.567 32.6479 338.581 32.6479C337.754 32.6479 337.034 32.9146 336.421 33.4479C335.807 33.9546 335.421 34.7546 335.261 35.8479V48.0879H329.541V20.0879H335.261V29.5279C336.727 28.3012 338.314 27.6879 340.021 27.6879C341.167 27.6879 342.327 27.9412 343.501 28.4479C344.701 28.9279 345.727 29.7946 346.581 31.0479C347.461 32.3012 347.914 33.9946 347.941 36.1279V48.0879ZM360.857 27.5679C362.803 27.5679 364.537 28.0346 366.057 28.9679C367.603 29.9012 368.803 31.1679 369.657 32.7679C370.51 34.3679 370.937 36.1412 370.937 38.0879C370.937 38.8346 370.883 39.5146 370.777 40.1279H355.977C356.483 41.3546 357.163 42.2746 358.017 42.8879C358.87 43.4746 359.977 43.7679 361.337 43.7679C362.163 43.7679 362.963 43.5946 363.737 43.2479C364.537 42.9012 365.163 42.4346 365.617 41.8479L369.937 44.4079C369.003 45.7679 367.79 46.8079 366.297 47.5279C364.83 48.2479 363.137 48.6079 361.217 48.6079C359.057 48.6079 357.15 48.1546 355.497 47.2479C353.843 46.3146 352.563 45.0479 351.657 43.4479C350.75 41.8479 350.297 40.0612 350.297 38.0879C350.297 36.1146 350.737 34.3279 351.617 32.7279C352.523 31.1279 353.777 29.8746 355.377 28.9679C356.977 28.0346 358.803 27.5679 360.857 27.5679ZM365.577 35.6879C365.39 34.6746 364.857 33.8879 363.977 33.3279C363.123 32.7679 362.07 32.4879 360.817 32.4879C359.51 32.4879 358.377 32.8079 357.417 33.4479C356.457 34.0612 355.95 34.8079 355.897 35.6879H365.577ZM400.811 20.0879H406.811V38.6479C406.811 40.5946 406.331 42.3279 405.371 43.8479C404.411 45.3412 403.091 46.5146 401.411 47.3679C399.758 48.1946 397.905 48.6079 395.851 48.6079C393.798 48.6079 391.945 48.1946 390.291 47.3679C388.638 46.5146 387.331 45.3412 386.371 43.8479C385.411 42.3279 384.931 40.5946 384.931 38.6479V20.0879H390.971V38.6479C390.971 39.8746 391.451 40.8479 392.411 41.5679C393.371 42.2612 394.518 42.6079 395.851 42.6079C397.318 42.6079 398.505 42.2612 399.411 41.5679C400.345 40.8746 400.811 39.9012 400.811 38.6479V20.0879ZM411.461 48.0879V20.0879H417.501V48.0879H411.461ZM450.261 20.0879V25.7679H439.141V31.4079H449.861V37.0879H439.141V48.0879H433.141V20.0879H450.261ZM459.948 41.7679C459.948 42.1946 460.041 42.5012 460.228 42.6879C460.441 42.8746 460.788 42.9679 461.268 42.9679C461.615 42.9679 462.028 42.9279 462.508 42.8479V48.0879C461.201 48.2746 460.188 48.3679 459.468 48.3679C457.735 48.3679 456.428 47.9146 455.548 47.0079C454.668 46.0746 454.228 44.4479 454.228 42.1279V20.0879H459.948V41.7679ZM474.294 48.6879C472.374 48.6879 470.601 48.2212 468.974 47.2879C467.374 46.3279 466.094 45.0346 465.134 43.4079C464.201 41.7812 463.734 40.0212 463.734 38.1279C463.734 36.2079 464.201 34.4479 465.134 32.8479C466.094 31.2212 467.374 29.9412 468.974 29.0079C470.601 28.0479 472.374 27.5679 474.294 27.5679C476.187 27.5679 477.934 28.0479 479.534 29.0079C481.161 29.9412 482.441 31.2212 483.374 32.8479C484.334 34.4479 484.814 36.2079 484.814 38.1279C484.814 40.0212 484.334 41.7812 483.374 43.4079C482.441 45.0346 481.161 46.3279 479.534 47.2879C477.934 48.2212 476.187 48.6879 474.294 48.6879ZM474.254 42.9679C475.587 42.9679 476.734 42.5012 477.694 41.5679C478.654 40.6079 479.134 39.4612 479.134 38.1279C479.134 36.7946 478.654 35.6479 477.694 34.6879C476.734 33.7279 475.587 33.2479 474.254 33.2479C472.921 33.2479 471.774 33.7279 470.814 34.6879C469.881 35.6479 469.414 36.7946 469.414 38.1279C469.414 39.4612 469.881 40.6079 470.814 41.5679C471.774 42.5012 472.921 42.9679 474.254 42.9679ZM506.56 38.8479L509.8 28.0879H515.76L509.28 48.0879H503.72L500.4 37.5279L497.04 48.0879H491.52L485.12 28.0879H491.12L494.28 38.7279L497.36 28.0879H503.4L506.56 38.8479ZM540.516 24.9679C539.876 24.8879 539.289 24.8479 538.756 24.8479C537.902 24.8479 537.262 24.9946 536.836 25.2879C536.436 25.5812 536.236 26.1012 536.236 26.8479V28.0879H540.476V33.1679H536.236V48.0879H530.516V33.1679H527.396V28.0879H530.516V26.4879C530.516 23.8479 531.062 22.0346 532.156 21.0479C533.276 20.0346 534.969 19.5279 537.236 19.5279C538.142 19.5279 539.236 19.5946 540.516 19.7279V24.9679ZM552.107 48.6879C550.187 48.6879 548.413 48.2212 546.787 47.2879C545.187 46.3279 543.907 45.0346 542.947 43.4079C542.013 41.7812 541.547 40.0212 541.547 38.1279C541.547 36.2079 542.013 34.4479 542.947 32.8479C543.907 31.2212 545.187 29.9412 546.787 29.0079C548.413 28.0479 550.187 27.5679 552.107 27.5679C554 27.5679 555.747 28.0479 557.347 29.0079C558.973 29.9412 560.253 31.2212 561.187 32.8479C562.147 34.4479 562.627 36.2079 562.627 38.1279C562.627 40.0212 562.147 41.7812 561.187 43.4079C560.253 45.0346 558.973 46.3279 557.347 47.2879C555.747 48.2212 554 48.6879 552.107 48.6879ZM552.067 42.9679C553.4 42.9679 554.547 42.5012 555.507 41.5679C556.467 40.6079 556.947 39.4612 556.947 38.1279C556.947 36.7946 556.467 35.6479 555.507 34.6879C554.547 33.7279 553.4 33.2479 552.067 33.2479C550.733 33.2479 549.587 33.7279 548.627 34.6879C547.693 35.6479 547.227 36.7946 547.227 38.1279C547.227 39.4612 547.693 40.6079 548.627 41.5679C549.587 42.5012 550.733 42.9679 552.067 42.9679ZM578.194 27.6879L577.794 33.0879C577.608 33.0079 577.301 32.9679 576.874 32.9679C575.248 32.9679 573.914 33.4346 572.874 34.3679C571.861 35.2746 571.354 36.4746 571.354 37.9679V48.0879H565.634V28.0879H571.354V31.3279C571.834 30.2879 572.608 29.4212 573.674 28.7279C574.741 28.0346 576.034 27.6879 577.554 27.6879H578.194ZM601.253 48.6079C598.479 48.6079 596.146 47.9946 594.253 46.7679C592.386 45.5412 591.066 43.8746 590.293 41.7679L595.373 38.8079C595.906 40.1412 596.653 41.1279 597.613 41.7679C598.599 42.4079 599.866 42.7279 601.413 42.7279C602.666 42.7279 603.626 42.4346 604.293 41.8479C604.986 41.2612 605.333 40.6079 605.333 39.8879C605.333 39.3546 605.173 38.9012 604.853 38.5279C604.533 38.1546 603.986 37.8079 603.213 37.4879C602.439 37.1412 601.319 36.7546 599.853 36.3279C597.293 35.5812 595.253 34.5679 593.733 33.2879C592.213 32.0079 591.453 30.1812 591.453 27.8079C591.453 26.1279 591.866 24.6746 592.693 23.4479C593.546 22.1946 594.666 21.2346 596.053 20.5679C597.466 19.9012 598.986 19.5679 600.613 19.5679C602.879 19.5679 604.866 20.1146 606.573 21.2079C608.279 22.2746 609.613 23.7946 610.573 25.7679L605.373 28.7279C604.866 27.6079 604.226 26.7946 603.453 26.2879C602.679 25.7546 601.733 25.4879 600.613 25.4879C599.759 25.4879 599.026 25.7279 598.413 26.2079C597.799 26.6612 597.493 27.1946 597.493 27.8079C597.493 28.3146 597.613 28.7546 597.853 29.1279C598.119 29.4746 598.586 29.8079 599.253 30.1279C599.946 30.4479 600.959 30.8079 602.293 31.2079C604.079 31.7679 605.613 32.3946 606.893 33.0879C608.199 33.7546 609.266 34.6746 610.093 35.8479C610.946 37.0212 611.373 38.4879 611.373 40.2479C611.373 41.9279 610.933 43.4079 610.053 44.6879C609.173 45.9412 607.959 46.9146 606.413 47.6079C604.893 48.2746 603.173 48.6079 601.253 48.6079ZM623.552 27.5679C625.499 27.5679 627.232 28.0346 628.752 28.9679C630.299 29.9012 631.499 31.1679 632.352 32.7679C633.205 34.3679 633.632 36.1412 633.632 38.0879C633.632 38.8346 633.579 39.5146 633.472 40.1279H618.672C619.179 41.3546 619.859 42.2746 620.712 42.8879C621.565 43.4746 622.672 43.7679 624.032 43.7679C624.859 43.7679 625.659 43.5946 626.432 43.2479C627.232 42.9012 627.859 42.4346 628.312 41.8479L632.632 44.4079C631.699 45.7679 630.485 46.8079 628.992 47.5279C627.525 48.2479 625.832 48.6079 623.912 48.6079C621.752 48.6079 619.845 48.1546 618.192 47.2479C616.539 46.3146 615.259 45.0479 614.352 43.4479C613.445 41.8479 612.992 40.0612 612.992 38.0879C612.992 36.1146 613.432 34.3279 614.312 32.7279C615.219 31.1279 616.472 29.8746 618.072 28.9679C619.672 28.0346 621.499 27.5679 623.552 27.5679ZM628.272 35.6879C628.085 34.6746 627.552 33.8879 626.672 33.3279C625.819 32.7679 624.765 32.4879 623.512 32.4879C622.205 32.4879 621.072 32.8079 620.112 33.4479C619.152 34.0612 618.645 34.8079 618.592 35.6879H628.272ZM642.331 41.7679C642.331 42.1946 642.424 42.5012 642.611 42.6879C642.824 42.8746 643.171 42.9679 643.651 42.9679C643.998 42.9679 644.411 42.9279 644.891 42.8479V48.0879C643.584 48.2746 642.571 48.3679 641.851 48.3679C640.118 48.3679 638.811 47.9146 637.931 47.0079C637.051 46.0746 636.611 44.4479 636.611 42.1279V20.0879H642.331V41.7679ZM660.125 24.9679C659.485 24.8879 658.898 24.8479 658.365 24.8479C657.512 24.8479 656.872 24.9946 656.445 25.2879C656.045 25.5812 655.845 26.1012 655.845 26.8479V28.0879H660.085V33.1679H655.845V48.0879H650.125V33.1679H647.005V28.0879H650.125V26.4879C650.125 23.8479 650.672 22.0346 651.765 21.0479C652.885 20.0346 654.578 19.5279 656.845 19.5279C657.752 19.5279 658.845 19.5946 660.125 19.7279V24.9679ZM670.908 40.8079H661.308V36.0079H670.908V40.8079ZM696.581 20.1279V20.0879H702.581V48.0879H696.581V31.1279L689.461 43.0479H687.981L680.821 31.0879V48.0879H674.821V20.0879H680.821V20.1279L680.901 20.0879L688.701 33.2079L696.501 20.0879L696.581 20.1279ZM710.704 25.3679C709.637 25.3679 708.797 25.0879 708.184 24.5279C707.597 23.9412 707.304 23.1546 707.304 22.1679C707.304 21.1546 707.597 20.3546 708.184 19.7679C708.797 19.1812 709.637 18.8879 710.704 18.8879C711.744 18.8879 712.57 19.1812 713.184 19.7679C713.797 20.3546 714.104 21.1546 714.104 22.1679C714.104 23.1546 713.797 23.9412 713.184 24.5279C712.57 25.0879 711.744 25.3679 710.704 25.3679ZM707.824 48.0879V28.0879H713.544V48.0879H707.824ZM728.812 27.5279C729.985 27.5279 731.172 27.7812 732.372 28.2879C733.572 28.7946 734.598 29.6879 735.452 30.9679C736.305 32.2479 736.732 33.9679 736.732 36.1279V48.0879H731.012V36.1279C731.012 34.8479 730.652 33.9279 729.932 33.3679C729.238 32.8079 728.398 32.5279 727.412 32.5279C726.425 32.5279 725.598 32.8746 724.932 33.5679C724.292 34.2612 723.972 35.3679 723.972 36.8879V48.0879H718.252V28.0879H723.972V29.4479C725.492 28.1679 727.105 27.5279 728.812 27.5279ZM747.684 40.9679C747.684 41.7146 747.884 42.2346 748.284 42.5279C748.71 42.8212 749.35 42.9679 750.204 42.9679C750.737 42.9679 751.324 42.9279 751.964 42.8479V48.0879C750.63 48.2212 749.524 48.2879 748.644 48.2879C746.404 48.2879 744.724 47.7946 743.604 46.8079C742.51 45.7946 741.964 43.9679 741.964 41.3279V33.1679H738.524V28.0879H741.964V23.4479L747.684 21.5279V28.0879H751.884V33.1679H747.684V40.9679ZM782.976 36.0479V20.0879H788.976V48.0879H783.896L772.696 30.5679V48.0879H766.696V20.0879H772.696L782.976 36.0479ZM811.55 20.0879V25.7679H800.43V31.4079H811.15V37.0879H800.43V48.0879H794.43V20.0879H811.55ZM835.14 20.0879V25.7679H827.74V48.0879H821.7V25.7679H814.34V20.0879H835.14ZM859.93 24.9679C859.29 24.8879 858.703 24.8479 858.17 24.8479C857.316 24.8479 856.676 24.9946 856.25 25.2879C855.85 25.5812 855.65 26.1012 855.65 26.8479V28.0879H859.89V33.1679H855.65V48.0879H849.93V33.1679H846.81V28.0879H849.93V26.4879C849.93 23.8479 850.476 22.0346 851.57 21.0479C852.69 20.0346 854.383 19.5279 856.65 19.5279C857.556 19.5279 858.65 19.5946 859.93 19.7279V24.9679ZM871.521 48.6879C869.601 48.6879 867.827 48.2212 866.201 47.2879C864.601 46.3279 863.321 45.0346 862.361 43.4079C861.427 41.7812 860.961 40.0212 860.961 38.1279C860.961 36.2079 861.427 34.4479 862.361 32.8479C863.321 31.2212 864.601 29.9412 866.201 29.0079C867.827 28.0479 869.601 27.5679 871.521 27.5679C873.414 27.5679 875.161 28.0479 876.761 29.0079C878.387 29.9412 879.667 31.2212 880.601 32.8479C881.561 34.4479 882.041 36.2079 882.041 38.1279C882.041 40.0212 881.561 41.7812 880.601 43.4079C879.667 45.0346 878.387 46.3279 876.761 47.2879C875.161 48.2212 873.414 48.6879 871.521 48.6879ZM871.481 42.9679C872.814 42.9679 873.961 42.5012 874.921 41.5679C875.881 40.6079 876.361 39.4612 876.361 38.1279C876.361 36.7946 875.881 35.6479 874.921 34.6879C873.961 33.7279 872.814 33.2479 871.481 33.2479C870.147 33.2479 869.001 33.7279 868.041 34.6879C867.107 35.6479 866.641 36.7946 866.641 38.1279C866.641 39.4612 867.107 40.6079 868.041 41.5679C869.001 42.5012 870.147 42.9679 871.481 42.9679ZM897.608 27.6879L897.208 33.0879C897.022 33.0079 896.715 32.9679 896.288 32.9679C894.662 32.9679 893.328 33.4346 892.288 34.3679C891.275 35.2746 890.768 36.4746 890.768 37.9679V48.0879H885.048V28.0879H890.768V31.3279C891.248 30.2879 892.022 29.4212 893.088 28.7279C894.155 28.0346 895.448 27.6879 896.968 27.6879H897.608ZM918.387 40.9679C918.387 41.7146 918.587 42.2346 918.987 42.5279C919.414 42.8212 920.054 42.9679 920.907 42.9679C921.44 42.9679 922.027 42.9279 922.667 42.8479V48.0879C921.334 48.2212 920.227 48.2879 919.347 48.2879C917.107 48.2879 915.427 47.7946 914.307 46.8079C913.214 45.7946 912.667 43.9679 912.667 41.3279V33.1679H909.227V28.0879H912.667V23.4479L918.387 21.5279V28.0879H922.587V33.1679H918.387V40.9679ZM944.503 48.0879H938.783V36.2879C938.783 35.0079 938.423 34.0879 937.703 33.5279C936.983 32.9412 936.13 32.6479 935.143 32.6479C934.316 32.6479 933.596 32.9146 932.983 33.4479C932.37 33.9546 931.983 34.7546 931.823 35.8479V48.0879H926.103V20.0879H931.823V29.5279C933.29 28.3012 934.876 27.6879 936.583 27.6879C937.73 27.6879 938.89 27.9412 940.063 28.4479C941.263 28.9279 942.29 29.7946 943.143 31.0479C944.023 32.3012 944.476 33.9946 944.503 36.1279V48.0879ZM957.419 27.5679C959.366 27.5679 961.099 28.0346 962.619 28.9679C964.166 29.9012 965.366 31.1679 966.219 32.7679C967.072 34.3679 967.499 36.1412 967.499 38.0879C967.499 38.8346 967.446 39.5146 967.339 40.1279H952.539C953.046 41.3546 953.726 42.2746 954.579 42.8879C955.432 43.4746 956.539 43.7679 957.899 43.7679C958.726 43.7679 959.526 43.5946 960.299 43.2479C961.099 42.9012 961.726 42.4346 962.179 41.8479L966.499 44.4079C965.566 45.7679 964.352 46.8079 962.859 47.5279C961.392 48.2479 959.699 48.6079 957.779 48.6079C955.619 48.6079 953.712 48.1546 952.059 47.2479C950.406 46.3146 949.126 45.0479 948.219 43.4479C947.312 41.8479 946.859 40.0612 946.859 38.0879C946.859 36.1146 947.299 34.3279 948.179 32.7279C949.086 31.1279 950.339 29.8746 951.939 28.9679C953.539 28.0346 955.366 27.5679 957.419 27.5679ZM962.139 35.6879C961.952 34.6746 961.419 33.8879 960.539 33.3279C959.686 32.7679 958.632 32.4879 957.379 32.4879C956.072 32.4879 954.939 32.8079 953.979 33.4479C953.019 34.0612 952.512 34.8079 952.459 35.6879H962.139ZM973.438 25.3679C972.371 25.3679 971.531 25.0879 970.918 24.5279C970.331 23.9412 970.038 23.1546 970.038 22.1679C970.038 21.1546 970.331 20.3546 970.918 19.7679C971.531 19.1812 972.371 18.8879 973.438 18.8879C974.478 18.8879 975.305 19.1812 975.918 19.7679C976.531 20.3546 976.838 21.1546 976.838 22.1679C976.838 23.1546 976.531 23.9412 975.918 24.5279C975.305 25.0879 974.478 25.3679 973.438 25.3679ZM970.558 48.0879V28.0879H976.278V48.0879H970.558ZM993.546 27.6879L993.146 33.0879C992.959 33.0079 992.653 32.9679 992.226 32.9679C990.599 32.9679 989.266 33.4346 988.226 34.3679C987.213 35.2746 986.706 36.4746 986.706 37.9679V48.0879H980.986V28.0879H986.706V31.3279C987.186 30.2879 987.959 29.4212 989.026 28.7279C990.093 28.0346 991.386 27.6879 992.906 27.6879H993.546ZM1019.16 27.5279C1021.24 27.5279 1023.03 27.9812 1024.52 28.8879C1026.04 29.7946 1027.2 31.0612 1028 32.6879C1028.8 34.2879 1029.2 36.1012 1029.2 38.1279C1029.2 40.1546 1028.8 41.9679 1028 43.5679C1027.2 45.1412 1026.04 46.3812 1024.52 47.2879C1023.03 48.1946 1021.24 48.6479 1019.16 48.6479C1017.96 48.6479 1016.8 48.4346 1015.68 48.0079C1014.56 47.5812 1013.54 46.9679 1012.6 46.1679V48.0879H1006.88V20.0879H1012.6V30.0479C1013.54 29.2479 1014.56 28.6346 1015.68 28.2079C1016.8 27.7546 1017.96 27.5279 1019.16 27.5279ZM1018.4 43.2079C1019.9 43.2079 1021.11 42.7412 1022.04 41.8079C1023 40.8746 1023.48 39.6479 1023.48 38.1279C1023.48 36.6079 1023 35.3812 1022.04 34.4479C1021.11 33.5146 1019.9 33.0479 1018.4 33.0479C1016.91 33.0479 1015.66 33.5146 1014.64 34.4479C1013.63 35.3812 1013.12 36.5812 1013.12 38.0479C1013.12 39.5679 1013.63 40.8079 1014.64 41.7679C1015.66 42.7279 1016.91 43.2079 1018.4 43.2079ZM1047.55 28.0879H1053.23V48.0879H1047.55V46.5679C1046.67 47.2346 1045.7 47.7412 1044.63 48.0879C1043.59 48.4612 1042.54 48.6479 1041.47 48.6479C1039.39 48.6479 1037.59 48.1946 1036.07 47.2879C1034.58 46.3812 1033.43 45.1412 1032.63 43.5679C1031.83 41.9679 1031.43 40.1546 1031.43 38.1279C1031.43 36.1012 1031.83 34.2879 1032.63 32.6879C1033.43 31.0612 1034.58 29.7946 1036.07 28.8879C1037.59 27.9812 1039.39 27.5279 1041.47 27.5279C1042.57 27.5279 1043.63 27.7146 1044.67 28.0879C1045.71 28.4612 1046.67 28.9812 1047.55 29.6479V28.0879ZM1042.23 43.2079C1043.73 43.2079 1044.98 42.7279 1045.99 41.7679C1047.01 40.8079 1047.51 39.5679 1047.51 38.0479C1047.51 36.5812 1047.01 35.3812 1045.99 34.4479C1044.98 33.5146 1043.73 33.0479 1042.23 33.0479C1040.74 33.0479 1039.51 33.5146 1038.55 34.4479C1037.59 35.3812 1037.11 36.6079 1037.11 38.1279C1037.11 39.6479 1037.59 40.8746 1038.55 41.8079C1039.51 42.7412 1040.74 43.2079 1042.23 43.2079ZM1075.28 44.1679C1074.29 45.5546 1073.04 46.6612 1071.52 47.4879C1070.02 48.2879 1068.41 48.6879 1066.68 48.6879C1064.76 48.6879 1062.98 48.2212 1061.36 47.2879C1059.76 46.3279 1058.48 45.0346 1057.52 43.4079C1056.58 41.7812 1056.12 40.0212 1056.12 38.1279C1056.12 36.2079 1056.58 34.4479 1057.52 32.8479C1058.48 31.2212 1059.76 29.9412 1061.36 29.0079C1062.98 28.0479 1064.76 27.5679 1066.68 27.5679C1068.41 27.5679 1070.02 27.9679 1071.52 28.7679C1073.01 29.5679 1074.25 30.6479 1075.24 32.0079L1070.52 35.1279C1069.4 33.8746 1068.12 33.2479 1066.68 33.2479C1065.34 33.2479 1064.2 33.7279 1063.24 34.6879C1062.28 35.6479 1061.8 36.7946 1061.8 38.1279C1061.8 39.4612 1062.28 40.6079 1063.24 41.5679C1064.2 42.5012 1065.34 42.9679 1066.68 42.9679C1068.12 42.9679 1069.4 42.3412 1070.52 41.0879L1075.28 44.1679ZM1098.58 48.0879H1091.46L1086.34 41.1679L1083.7 44.0479V48.0879H1077.98V20.0879H1083.7V35.6479L1090.34 28.0879H1098.3L1090.22 36.8879L1098.58 48.0879ZM1108.63 27.5679C1110.58 27.5679 1112.31 28.0346 1113.83 28.9679C1115.38 29.9012 1116.58 31.1679 1117.43 32.7679C1118.28 34.3679 1118.71 36.1412 1118.71 38.0879C1118.71 38.8346 1118.66 39.5146 1118.55 40.1279H1103.75C1104.26 41.3546 1104.94 42.2746 1105.79 42.8879C1106.64 43.4746 1107.75 43.7679 1109.11 43.7679C1109.94 43.7679 1110.74 43.5946 1111.51 43.2479C1112.31 42.9012 1112.94 42.4346 1113.39 41.8479L1117.71 44.4079C1116.78 45.7679 1115.56 46.8079 1114.07 47.5279C1112.6 48.2479 1110.91 48.6079 1108.99 48.6079C1106.83 48.6079 1104.92 48.1546 1103.27 47.2479C1101.62 46.3146 1100.34 45.0479 1099.43 43.4479C1098.52 41.8479 1098.07 40.0612 1098.07 38.0879C1098.07 36.1146 1098.51 34.3279 1099.39 32.7279C1100.3 31.1279 1101.55 29.8746 1103.15 28.9679C1104.75 28.0346 1106.58 27.5679 1108.63 27.5679ZM1113.35 35.6879C1113.16 34.6746 1112.63 33.8879 1111.75 33.3279C1110.9 32.7679 1109.84 32.4879 1108.59 32.4879C1107.28 32.4879 1106.15 32.8079 1105.19 33.4479C1104.23 34.0612 1103.72 34.8079 1103.67 35.6879H1113.35ZM1132.25 27.5279C1133.42 27.5279 1134.61 27.7812 1135.81 28.2879C1137.01 28.7946 1138.04 29.6879 1138.89 30.9679C1139.74 32.2479 1140.17 33.9679 1140.17 36.1279V48.0879H1134.45V36.1279C1134.45 34.8479 1134.09 33.9279 1133.37 33.3679C1132.68 32.8079 1131.84 32.5279 1130.85 32.5279C1129.86 32.5279 1129.04 32.8746 1128.37 33.5679C1127.73 34.2612 1127.41 35.3679 1127.41 36.8879V48.0879H1121.69V28.0879H1127.41V29.4479C1128.93 28.1679 1130.54 27.5279 1132.25 27.5279ZM1159.16 20.0879H1164.84V48.0879H1159.16V46.5679C1158.28 47.2346 1157.32 47.7412 1156.28 48.0879C1155.26 48.4612 1154.21 48.6479 1153.12 48.6479C1151.04 48.6479 1149.24 48.1946 1147.72 47.2879C1146.22 46.3812 1145.08 45.1412 1144.28 43.5679C1143.48 41.9679 1143.08 40.1546 1143.08 38.1279C1143.08 36.1012 1143.48 34.2879 1144.28 32.6879C1145.08 31.0612 1146.22 29.7946 1147.72 28.8879C1149.24 27.9812 1151.04 27.5279 1153.12 27.5279C1154.18 27.5279 1155.24 27.7146 1156.28 28.0879C1157.32 28.4346 1158.28 28.9412 1159.16 29.6079V20.0879ZM1153.88 43.2079C1155.37 43.2079 1156.62 42.7279 1157.64 41.7679C1158.65 40.8079 1159.16 39.5679 1159.16 38.0479C1159.16 36.5812 1158.65 35.3812 1157.64 34.4479C1156.62 33.5146 1155.37 33.0479 1153.88 33.0479C1152.38 33.0479 1151.16 33.5146 1150.2 34.4479C1149.24 35.3812 1148.76 36.6079 1148.76 38.1279C1148.76 39.6479 1149.24 40.8746 1150.2 41.8079C1151.16 42.7412 1152.38 43.2079 1153.88 43.2079ZM1199.49 38.8479L1202.73 28.0879H1208.69L1202.21 48.0879H1196.65L1193.33 37.5279L1189.97 48.0879H1184.45L1178.05 28.0879H1184.05L1187.21 38.7279L1190.29 28.0879H1196.33L1199.49 38.8479ZM1219.18 27.5679C1221.12 27.5679 1222.86 28.0346 1224.38 28.9679C1225.92 29.9012 1227.12 31.1679 1227.98 32.7679C1228.83 34.3679 1229.26 36.1412 1229.26 38.0879C1229.26 38.8346 1229.2 39.5146 1229.1 40.1279H1214.3C1214.8 41.3546 1215.48 42.2746 1216.34 42.8879C1217.19 43.4746 1218.3 43.7679 1219.66 43.7679C1220.48 43.7679 1221.28 43.5946 1222.06 43.2479C1222.86 42.9012 1223.48 42.4346 1223.94 41.8479L1228.26 44.4079C1227.32 45.7679 1226.11 46.8079 1224.62 47.5279C1223.15 48.2479 1221.46 48.6079 1219.54 48.6079C1217.38 48.6079 1215.47 48.1546 1213.82 47.2479C1212.16 46.3146 1210.88 45.0479 1209.98 43.4479C1209.07 41.8479 1208.62 40.0612 1208.62 38.0879C1208.62 36.1146 1209.06 34.3279 1209.94 32.7279C1210.84 31.1279 1212.1 29.8746 1213.7 28.9679C1215.3 28.0346 1217.12 27.5679 1219.18 27.5679ZM1223.9 35.6879C1223.71 34.6746 1223.18 33.8879 1222.3 33.3279C1221.44 32.7679 1220.39 32.4879 1219.14 32.4879C1217.83 32.4879 1216.7 32.8079 1215.74 33.4479C1214.78 34.0612 1214.27 34.8079 1214.22 35.6879H1223.9ZM1244.52 27.5279C1246.6 27.5279 1248.38 27.9812 1249.88 28.8879C1251.4 29.7946 1252.56 31.0612 1253.36 32.6879C1254.16 34.2879 1254.56 36.1012 1254.56 38.1279C1254.56 40.1546 1254.16 41.9679 1253.36 43.5679C1252.56 45.1412 1251.4 46.3812 1249.88 47.2879C1248.38 48.1946 1246.6 48.6479 1244.52 48.6479C1243.32 48.6479 1242.16 48.4346 1241.04 48.0079C1239.92 47.5812 1238.89 46.9679 1237.96 46.1679V48.0879H1232.24V20.0879H1237.96V30.0479C1238.89 29.2479 1239.92 28.6346 1241.04 28.2079C1242.16 27.7546 1243.32 27.5279 1244.52 27.5279ZM1243.76 43.2079C1245.25 43.2079 1246.46 42.7412 1247.4 41.8079C1248.36 40.8746 1248.84 39.6479 1248.84 38.1279C1248.84 36.6079 1248.36 35.3812 1247.4 34.4479C1246.46 33.5146 1245.25 33.0479 1243.76 33.0479C1242.26 33.0479 1241.01 33.5146 1240 34.4479C1238.98 35.3812 1238.48 36.5812 1238.48 38.0479C1238.48 39.5679 1238.98 40.8079 1240 41.7679C1241.01 42.7279 1242.26 43.2079 1243.76 43.2079ZM1263.37 33.7679C1263.37 34.2212 1263.65 34.5679 1264.21 34.8079C1264.77 35.0212 1265.66 35.2479 1266.89 35.4879C1268.46 35.8079 1269.77 36.1679 1270.81 36.5679C1271.85 36.9412 1272.76 37.5812 1273.53 38.4879C1274.33 39.3679 1274.73 40.5946 1274.73 42.1679C1274.73 43.5279 1274.32 44.7012 1273.49 45.6879C1272.66 46.6479 1271.57 47.3812 1270.21 47.8879C1268.85 48.3679 1267.38 48.6079 1265.81 48.6079C1263.65 48.6079 1261.81 48.2212 1260.29 47.4479C1258.77 46.6479 1257.62 45.4746 1256.85 43.9279L1261.53 41.5279C1262.17 43.2346 1263.6 44.0879 1265.81 44.0879C1266.72 44.0879 1267.5 43.9279 1268.17 43.6079C1268.86 43.2612 1269.21 42.7812 1269.21 42.1679C1269.21 41.6346 1268.89 41.2346 1268.25 40.9679C1267.64 40.7012 1266.65 40.4212 1265.29 40.1279C1263.74 39.7812 1262.45 39.4212 1261.41 39.0479C1260.37 38.6479 1259.48 38.0479 1258.73 37.2479C1257.98 36.4212 1257.61 35.3279 1257.61 33.9679C1257.61 32.6612 1257.98 31.5279 1258.73 30.5679C1259.48 29.5812 1260.48 28.8346 1261.73 28.3279C1263.01 27.8212 1264.4 27.5679 1265.89 27.5679C1267.65 27.5679 1269.24 27.9279 1270.65 28.6479C1272.06 29.3679 1273.17 30.4079 1273.97 31.7679L1269.33 34.0479C1269.01 33.3812 1268.57 32.8879 1268.01 32.5679C1267.48 32.2479 1266.77 32.0879 1265.89 32.0879C1265.12 32.0879 1264.5 32.2479 1264.05 32.5679C1263.6 32.8612 1263.37 33.2612 1263.37 33.7679ZM1280.55 25.3679C1279.48 25.3679 1278.64 25.0879 1278.03 24.5279C1277.44 23.9412 1277.15 23.1546 1277.15 22.1679C1277.15 21.1546 1277.44 20.3546 1278.03 19.7679C1278.64 19.1812 1279.48 18.8879 1280.55 18.8879C1281.59 18.8879 1282.41 19.1812 1283.03 19.7679C1283.64 20.3546 1283.95 21.1546 1283.95 22.1679C1283.95 23.1546 1283.64 23.9412 1283.03 24.5279C1282.41 25.0879 1281.59 25.3679 1280.55 25.3679ZM1277.67 48.0879V28.0879H1283.39V48.0879H1277.67ZM1295.85 40.9679C1295.85 41.7146 1296.05 42.2346 1296.45 42.5279C1296.87 42.8212 1297.51 42.9679 1298.37 42.9679C1298.9 42.9679 1299.49 42.9279 1300.13 42.8479V48.0879C1298.79 48.2212 1297.69 48.2879 1296.81 48.2879C1294.57 48.2879 1292.89 47.7946 1291.77 46.8079C1290.67 45.7946 1290.13 43.9679 1290.13 41.3279V33.1679H1286.69V28.0879H1290.13V23.4479L1295.85 21.5279V28.0879H1300.05V33.1679H1295.85V40.9679ZM1312.81 27.5679C1314.76 27.5679 1316.49 28.0346 1318.01 28.9679C1319.56 29.9012 1320.76 31.1679 1321.61 32.7679C1322.46 34.3679 1322.89 36.1412 1322.89 38.0879C1322.89 38.8346 1322.84 39.5146 1322.73 40.1279H1307.93C1308.44 41.3546 1309.12 42.2746 1309.97 42.8879C1310.82 43.4746 1311.93 43.7679 1313.29 43.7679C1314.12 43.7679 1314.92 43.5946 1315.69 43.2479C1316.49 42.9012 1317.12 42.4346 1317.57 41.8479L1321.89 44.4079C1320.96 45.7679 1319.74 46.8079 1318.25 47.5279C1316.78 48.2479 1315.09 48.6079 1313.17 48.6079C1311.01 48.6079 1309.1 48.1546 1307.45 47.2479C1305.8 46.3146 1304.52 45.0479 1303.61 43.4479C1302.7 41.8479 1302.25 40.0612 1302.25 38.0879C1302.25 36.1146 1302.69 34.3279 1303.57 32.7279C1304.48 31.1279 1305.73 29.8746 1307.33 28.9679C1308.93 28.0346 1310.76 27.5679 1312.81 27.5679ZM1317.53 35.6879C1317.34 34.6746 1316.81 33.8879 1315.93 33.3279C1315.08 32.7679 1314.02 32.4879 1312.77 32.4879C1311.46 32.4879 1310.33 32.8079 1309.37 33.4479C1308.41 34.0612 1307.9 34.8079 1307.85 35.6879H1317.53Z" fill="#EAEAEA"/>
<path d="M47.2799 0.696279C48.8447 2.14924 50.8167 9.04855 51.562 11.3535C52.7262 14.9541 53.7031 17.8834 55.1769 21.3565C56.3528 24.1258 56.8354 28.5849 59.368 30.3786C61.016 31.5467 63.9727 32.0046 64.3929 34.5034C64.8351 37.1349 64.1522 39.8509 62.6576 42.0193C62.0723 42.8687 60.3201 44.3555 60.181 45.2348C59.6606 48.514 62.0306 51.9988 61.5403 55.3288C61.1955 57.6754 59.8844 58.7901 57.5443 57.799C56.8432 57.5024 56.2292 56.5242 55.2822 57.0016C53.9385 58.4389 55.4995 60.3498 53.8657 61.6844C53.0995 62.3113 52.163 62.3426 51.2095 62.0915C49.897 61.7468 49.2961 59.7137 47.6987 60.1937C47.1186 60.368 43.6416 64.5214 42.6725 65.3382C38.9627 68.4679 33.4878 70.8652 28.6268 69.4032C26.4233 68.7411 23.0191 65.9327 21.3034 64.3223C20.3343 63.4131 17.5728 59.9335 16.6362 59.633C14.6174 58.9866 14.5446 61.661 13.7849 62.4987C13.0734 63.2843 11.9079 63.2843 11.0611 62.7653C9.20882 61.6297 9.84489 57.7912 8.97208 57.5258C7.80398 57.1694 6.65019 60.7998 4.36733 59.144C3.07176 58.2035 3.09258 55.7997 3.18884 54.3558C3.41908 50.9244 5.74745 47.2874 3.56996 44.0368C1.61099 41.1113 -0.68617 40.3894 0.193153 36.1255C0.752486 33.412 3.24998 32.616 4.83042 30.8001C6.83101 28.5016 8.24884 24.6682 9.534 21.8846C11.8637 16.835 12.1499 12.0598 14.1804 7.01934C14.6109 5.95141 16.5374 1.68747 17.1474 1.04229C18.0411 0.0979235 19.0127 0.0237792 20.0716 0.739205C21.8302 1.92941 23.9453 8.41507 25.0665 10.5835C25.8327 12.065 26.9228 14.2334 28.7334 14.439C30.2111 14.6068 35.9605 14.6289 37.1807 14.1372C38.8092 13.4816 39.7406 9.67942 40.3936 8.20305C40.8228 7.23397 41.4888 6.38326 41.8934 5.4337C42.4943 4.02106 42.6075 2.22079 43.6039 1.04619C44.6003 -0.128411 46.0936 -0.408078 47.2812 0.693678L47.2799 0.696279ZM18.8189 8.99262C16.9029 9.4674 16.1185 14.7355 16.4307 16.3654C16.7286 17.9237 19.178 16.3875 20.0209 15.8984C21.9135 14.798 22.0045 14.8617 21.453 12.5697C21.2084 11.5564 20.1301 8.66742 18.8189 8.99131V8.99262ZM44.5535 9.41407C43.877 10.0619 42.8898 13.9108 43.172 14.8565C43.6169 16.3459 47.86 18.5312 48.327 16.9403C48.7068 15.6513 47.782 10.7669 46.8519 9.75877C46.3264 9.19033 45.144 8.84823 44.5535 9.41407ZM27.4131 49.3855C27.5276 44.3073 25.1056 34.48 19.6748 32.6303C15.3979 31.1734 12.7443 35.7222 12.3814 39.354C11.8897 44.2696 13.1983 48.7209 16.138 52.6193C19.0648 56.4982 24.3641 63.0268 28.6242 65.1418C34.0458 67.8344 38.9549 64.8439 42.3499 60.5436C47.3436 54.2179 52.8849 47.7609 52.2436 39.1185C51.8443 33.7385 47.2265 28.9075 42.5685 33.9428C39.0356 37.7618 37.5267 44.3242 37.1781 49.3855C37.0207 49.569 34.9823 48.1576 34.5934 48.0067C32.174 47.0637 30.6833 47.6607 28.5656 48.8106C28.1832 49.0187 27.9907 49.5312 27.4145 49.3855H27.4131Z" fill="white"/>
<path d="M27.4136 49.3847C27.9898 49.5304 28.1823 49.0179 28.5648 48.8098C30.6824 47.6599 32.1731 47.0628 34.5925 48.0059C34.9815 48.1568 37.0198 49.5694 37.1772 49.3847C37.5258 44.3234 39.0334 37.761 42.5676 33.9419C47.2257 28.9066 51.8434 33.7377 52.2427 39.1177C52.8853 47.76 47.3427 54.2171 42.3491 60.5427C38.954 64.8431 34.0462 67.8336 28.6233 65.141C24.3632 63.0259 19.0639 56.4986 16.1372 52.6184C13.1961 48.72 11.8888 44.2688 12.3805 39.3531C12.7434 35.7214 15.397 31.1726 19.674 32.6294C25.1047 34.4791 27.5267 44.3065 27.4123 49.3847H27.4136ZM21.2531 36.416C19.9692 36.6111 19.5374 39.8956 19.4788 40.957C19.406 42.2721 19.5712 47.5948 21.4053 47.6807C22.7906 47.7444 23.268 45.0414 23.35 44.0099C23.4592 42.6207 23.6361 36.0544 21.2531 36.416ZM43.6368 36.4147C43.2362 36.4901 43.0398 36.7282 42.829 37.0482C41.6909 38.7717 41.7169 45.1325 42.8316 46.8898C43.7773 48.3805 44.8049 47.5792 45.3252 46.2459C46.1382 44.1647 46.0927 39.4962 45.1509 37.4631C44.84 36.7919 44.5044 36.2508 43.6368 36.4147Z" fill="black"/>
<path d="M44.553 9.4149C45.1448 8.84906 46.3259 9.19117 46.8515 9.7596C47.7828 10.7677 48.7064 15.6521 48.3265 16.9412C47.8583 18.532 43.6164 16.3467 43.1716 14.8573C42.8893 13.9117 43.8766 10.0627 44.553 9.4149Z" fill="black"/>
<path d="M18.819 8.99217C20.1302 8.66698 21.2086 11.556 21.4531 12.5706C22.0059 14.8626 21.9136 14.7988 20.021 15.8993C19.1781 16.3897 16.7287 17.9246 16.4308 16.3663C16.1186 14.7351 16.903 9.46696 18.819 8.99347V8.99217Z" fill="black"/>
<path d="M43.6357 36.4147C44.5047 36.2495 44.839 36.7907 45.1498 37.4632C46.0929 39.4963 46.1371 44.1661 45.3241 46.246C44.8038 47.5793 43.7762 48.3806 42.8306 46.8899C41.7145 45.1325 41.6885 38.7717 42.828 37.0482C43.0387 36.7282 43.2351 36.4915 43.6357 36.4147Z" fill="white"/>
<path d="M21.2527 36.4167C23.6357 36.0551 23.4601 42.6214 23.3495 44.0106C23.2676 45.0422 22.7902 47.7452 21.4048 47.6814C19.5694 47.5969 19.4056 42.2728 19.4784 40.9577C19.5369 39.8976 19.9688 36.6118 21.2527 36.4167Z" fill="white"/>
<path d="M28.429 54.4453L31.08 58.6039C31.4781 58.9447 32.014 59.8318 32.5837 59.7421L36.3625 54.95L36.0581 54.4453H28.4277H28.429Z" fill="white"/>
</svg>
