<svg width="994" height="104" viewBox="0 0 994 104" fill="none" xmlns="http://www.w3.org/2000/svg">
<path d="M98.72 36.6V42.28H110.08V48H92.72V20H109.84V25.68H98.72V30.88H108.88V36.6H98.72ZM119.566 41.68C119.566 42.1067 119.66 42.4133 119.846 42.6C120.06 42.7867 120.406 42.88 120.886 42.88C121.233 42.88 121.646 42.84 122.126 42.76V48C120.82 48.1867 119.806 48.28 119.086 48.28C117.353 48.28 116.046 47.8267 115.166 46.92C114.286 45.9867 113.846 44.36 113.846 42.04V20H119.566V41.68ZM134.303 27.48C136.249 27.48 137.983 27.9467 139.503 28.88C141.049 29.8133 142.249 31.08 143.103 32.68C143.956 34.28 144.383 36.0533 144.383 38C144.383 38.7467 144.329 39.4267 144.223 40.04H129.423C129.929 41.2667 130.609 42.1867 131.463 42.8C132.316 43.3867 133.423 43.68 134.783 43.68C135.609 43.68 136.409 43.5067 137.183 43.16C137.983 42.8133 138.609 42.3467 139.063 41.76L143.383 44.32C142.449 45.68 141.236 46.72 139.743 47.44C138.276 48.16 136.583 48.52 134.663 48.52C132.503 48.52 130.596 48.0667 128.943 47.16C127.289 46.2267 126.009 44.96 125.103 43.36C124.196 41.76 123.743 39.9733 123.743 38C123.743 36.0267 124.183 34.24 125.063 32.64C125.969 31.04 127.223 29.7867 128.823 28.88C130.423 27.9467 132.249 27.48 134.303 27.48ZM139.023 35.6C138.836 34.5867 138.303 33.8 137.423 33.24C136.569 32.68 135.516 32.4 134.263 32.4C132.956 32.4 131.823 32.72 130.863 33.36C129.903 33.9733 129.396 34.72 129.343 35.6H139.023ZM165.442 44.08C164.455 45.4667 163.202 46.5733 161.682 47.4C160.189 48.2 158.575 48.6 156.842 48.6C154.922 48.6 153.149 48.1333 151.522 47.2C149.922 46.24 148.642 44.9467 147.682 43.32C146.749 41.6933 146.282 39.9333 146.282 38.04C146.282 36.12 146.749 34.36 147.682 32.76C148.642 31.1333 149.922 29.8533 151.522 28.92C153.149 27.96 154.922 27.48 156.842 27.48C158.575 27.48 160.189 27.88 161.682 28.68C163.175 29.48 164.415 30.56 165.402 31.92L160.682 35.04C159.562 33.7867 158.282 33.16 156.842 33.16C155.509 33.16 154.362 33.64 153.402 34.6C152.442 35.56 151.962 36.7067 151.962 38.04C151.962 39.3733 152.442 40.52 153.402 41.48C154.362 42.4133 155.509 42.88 156.842 42.88C158.282 42.88 159.562 42.2533 160.682 41L165.442 44.08ZM175.778 40.88C175.778 41.6267 175.978 42.1467 176.378 42.44C176.805 42.7333 177.445 42.88 178.298 42.88C178.832 42.88 179.418 42.84 180.058 42.76V48C178.725 48.1333 177.618 48.2 176.738 48.2C174.498 48.2 172.818 47.7067 171.698 46.72C170.605 45.7067 170.058 43.88 170.058 41.24V33.08H166.618V28H170.058V23.36L175.778 21.44V28H179.978V33.08H175.778V40.88ZM196.836 27.6L196.436 33C196.249 32.92 195.943 32.88 195.516 32.88C193.889 32.88 192.556 33.3467 191.516 34.28C190.503 35.1867 189.996 36.3867 189.996 37.88V48H184.276V28H189.996V31.24C190.476 30.2 191.249 29.3333 192.316 28.64C193.383 27.9467 194.676 27.6 196.196 27.6H196.836ZM208.287 48.6C206.367 48.6 204.594 48.1333 202.967 47.2C201.367 46.24 200.087 44.9467 199.127 43.32C198.194 41.6933 197.727 39.9333 197.727 38.04C197.727 36.12 198.194 34.36 199.127 32.76C200.087 31.1333 201.367 29.8533 202.967 28.92C204.594 27.96 206.367 27.48 208.287 27.48C210.181 27.48 211.927 27.96 213.527 28.92C215.154 29.8533 216.434 31.1333 217.367 32.76C218.327 34.36 218.807 36.12 218.807 38.04C218.807 39.9333 218.327 41.6933 217.367 43.32C216.434 44.9467 215.154 46.24 213.527 47.2C211.927 48.1333 210.181 48.6 208.287 48.6ZM208.247 42.88C209.581 42.88 210.727 42.4133 211.687 41.48C212.647 40.52 213.127 39.3733 213.127 38.04C213.127 36.7067 212.647 35.56 211.687 34.6C210.727 33.64 209.581 33.16 208.247 33.16C206.914 33.16 205.767 33.64 204.807 34.6C203.874 35.56 203.407 36.7067 203.407 38.04C203.407 39.3733 203.874 40.52 204.807 41.48C205.767 42.4133 206.914 42.88 208.247 42.88ZM232.375 27.44C233.548 27.44 234.735 27.6933 235.935 28.2C237.135 28.7067 238.162 29.6 239.015 30.88C239.868 32.16 240.295 33.88 240.295 36.04V48H234.575V36.04C234.575 34.76 234.215 33.84 233.495 33.28C232.802 32.72 231.962 32.44 230.975 32.44C229.988 32.44 229.162 32.7867 228.495 33.48C227.855 34.1733 227.535 35.28 227.535 36.8V48H221.815V28H227.535V29.36C229.055 28.08 230.668 27.44 232.375 27.44ZM247.002 25.28C245.935 25.28 245.095 25 244.482 24.44C243.895 23.8533 243.602 23.0667 243.602 22.08C243.602 21.0667 243.895 20.2667 244.482 19.68C245.095 19.0933 245.935 18.8 247.002 18.8C248.042 18.8 248.868 19.0933 249.482 19.68C250.095 20.2667 250.402 21.0667 250.402 22.08C250.402 23.0667 250.095 23.8533 249.482 24.44C248.868 25 248.042 25.28 247.002 25.28ZM244.122 48V28H249.842V48H244.122ZM271.848 44.08C270.861 45.4667 269.608 46.5733 268.088 47.4C266.595 48.2 264.981 48.6 263.248 48.6C261.328 48.6 259.555 48.1333 257.928 47.2C256.328 46.24 255.048 44.9467 254.088 43.32C253.155 41.6933 252.688 39.9333 252.688 38.04C252.688 36.12 253.155 34.36 254.088 32.76C255.048 31.1333 256.328 29.8533 257.928 28.92C259.555 27.96 261.328 27.48 263.248 27.48C264.981 27.48 266.595 27.88 268.088 28.68C269.581 29.48 270.821 30.56 271.808 31.92L267.088 35.04C265.968 33.7867 264.688 33.16 263.248 33.16C261.915 33.16 260.768 33.64 259.808 34.6C258.848 35.56 258.368 36.7067 258.368 38.04C258.368 39.3733 258.848 40.52 259.808 41.48C260.768 42.4133 261.915 42.88 263.248 42.88C264.688 42.88 265.968 42.2533 267.088 41L271.848 44.08ZM296.934 20C299.548 20 301.948 20.6267 304.134 21.88C306.348 23.1067 308.094 24.8 309.374 26.96C310.681 29.0933 311.334 31.4667 311.334 34.08C311.334 36.6933 310.694 39.0667 309.414 41.2C308.134 43.3067 306.388 44.9733 304.174 46.2C301.961 47.4 299.548 48 296.934 48H285.454V20H296.934ZM296.934 42.28C298.454 42.28 299.854 41.92 301.134 41.2C302.441 40.4533 303.468 39.4533 304.214 38.2C304.961 36.9467 305.334 35.56 305.334 34.04C305.334 32.52 304.961 31.12 304.214 29.84C303.468 28.56 302.441 27.5467 301.134 26.8C299.854 26.0533 298.454 25.68 296.934 25.68H291.454V42.28H296.934ZM317.353 25.28C316.286 25.28 315.446 25 314.833 24.44C314.246 23.8533 313.953 23.0667 313.953 22.08C313.953 21.0667 314.246 20.2667 314.833 19.68C315.446 19.0933 316.286 18.8 317.353 18.8C318.393 18.8 319.22 19.0933 319.833 19.68C320.446 20.2667 320.753 21.0667 320.753 22.08C320.753 23.0667 320.446 23.8533 319.833 24.44C319.22 25 318.393 25.28 317.353 25.28ZM314.473 48V28H320.193V48H314.473ZM337.461 27.6L337.061 33C336.874 32.92 336.568 32.88 336.141 32.88C334.514 32.88 333.181 33.3467 332.141 34.28C331.128 35.1867 330.621 36.3867 330.621 37.88V48H324.901V28H330.621V31.24C331.101 30.2 331.874 29.3333 332.941 28.64C334.008 27.9467 335.301 27.6 336.821 27.6H337.461ZM349.029 27.48C350.976 27.48 352.709 27.9467 354.229 28.88C355.776 29.8133 356.976 31.08 357.829 32.68C358.683 34.28 359.109 36.0533 359.109 38C359.109 38.7467 359.056 39.4267 358.949 40.04H344.149C344.656 41.2667 345.336 42.1867 346.189 42.8C347.043 43.3867 348.149 43.68 349.509 43.68C350.336 43.68 351.136 43.5067 351.909 43.16C352.709 42.8133 353.336 42.3467 353.789 41.76L358.109 44.32C357.176 45.68 355.963 46.72 354.469 47.44C353.003 48.16 351.309 48.52 349.389 48.52C347.229 48.52 345.323 48.0667 343.669 47.16C342.016 46.2267 340.736 44.96 339.829 43.36C338.923 41.76 338.469 39.9733 338.469 38C338.469 36.0267 338.909 34.24 339.789 32.64C340.696 31.04 341.949 29.7867 343.549 28.88C345.149 27.9467 346.976 27.48 349.029 27.48ZM353.749 35.6C353.563 34.5867 353.029 33.8 352.149 33.24C351.296 32.68 350.243 32.4 348.989 32.4C347.683 32.4 346.549 32.72 345.589 33.36C344.629 33.9733 344.123 34.72 344.069 35.6H353.749ZM380.168 44.08C379.182 45.4667 377.928 46.5733 376.408 47.4C374.915 48.2 373.302 48.6 371.568 48.6C369.648 48.6 367.875 48.1333 366.248 47.2C364.648 46.24 363.368 44.9467 362.408 43.32C361.475 41.6933 361.008 39.9333 361.008 38.04C361.008 36.12 361.475 34.36 362.408 32.76C363.368 31.1333 364.648 29.8533 366.248 28.92C367.875 27.96 369.648 27.48 371.568 27.48C373.302 27.48 374.915 27.88 376.408 28.68C377.902 29.48 379.142 30.56 380.128 31.92L375.408 35.04C374.288 33.7867 373.008 33.16 371.568 33.16C370.235 33.16 369.088 33.64 368.128 34.6C367.168 35.56 366.688 36.7067 366.688 38.04C366.688 39.3733 367.168 40.52 368.128 41.48C369.088 42.4133 370.235 42.88 371.568 42.88C373.008 42.88 374.288 42.2533 375.408 41L380.168 44.08ZM390.505 40.88C390.505 41.6267 390.705 42.1467 391.105 42.44C391.532 42.7333 392.172 42.88 393.025 42.88C393.558 42.88 394.145 42.84 394.785 42.76V48C393.452 48.1333 392.345 48.2 391.465 48.2C389.225 48.2 387.545 47.7067 386.425 46.72C385.332 45.7067 384.785 43.88 384.785 41.24V33.08H381.345V28H384.785V23.36L390.505 21.44V28H394.705V33.08H390.505V40.88ZM431.277 20.04V20H437.277V48H431.277V31.04L424.157 42.96H422.677L415.517 31V48H409.517V20H415.517V20.04L415.597 20L423.397 33.12L431.197 20L431.277 20.04ZM456.587 28H462.267V48H456.587V46.48C455.707 47.1467 454.734 47.6533 453.667 48C452.627 48.3733 451.574 48.56 450.507 48.56C448.427 48.56 446.627 48.1067 445.107 47.2C443.614 46.2933 442.467 45.0533 441.667 43.48C440.867 41.88 440.467 40.0667 440.467 38.04C440.467 36.0133 440.867 34.2 441.667 32.6C442.467 30.9733 443.614 29.7067 445.107 28.8C446.627 27.8933 448.427 27.44 450.507 27.44C451.601 27.44 452.667 27.6267 453.707 28C454.747 28.3733 455.707 28.8933 456.587 29.56V28ZM451.267 43.12C452.761 43.12 454.014 42.64 455.027 41.68C456.041 40.72 456.547 39.48 456.547 37.96C456.547 36.4933 456.041 35.2933 455.027 34.36C454.014 33.4267 452.761 32.96 451.267 32.96C449.774 32.96 448.547 33.4267 447.587 34.36C446.627 35.2933 446.147 36.52 446.147 38.04C446.147 39.56 446.627 40.7867 447.587 41.72C448.547 42.6533 449.774 43.12 451.267 43.12ZM470.127 25.28C469.06 25.28 468.22 25 467.607 24.44C467.02 23.8533 466.727 23.0667 466.727 22.08C466.727 21.0667 467.02 20.2667 467.607 19.68C468.22 19.0933 469.06 18.8 470.127 18.8C471.167 18.8 471.993 19.0933 472.607 19.68C473.22 20.2667 473.527 21.0667 473.527 22.08C473.527 23.0667 473.22 23.8533 472.607 24.44C471.993 25 471.167 25.28 470.127 25.28ZM467.247 48V28H472.967V48H467.247ZM483.394 41.68C483.394 42.1067 483.488 42.4133 483.674 42.6C483.888 42.7867 484.234 42.88 484.714 42.88C485.061 42.88 485.474 42.84 485.954 42.76V48C484.648 48.1867 483.634 48.28 482.914 48.28C481.181 48.28 479.874 47.8267 478.994 46.92C478.114 45.9867 477.674 44.36 477.674 42.04V20H483.394V41.68ZM505.543 51.76C503.543 49.6533 501.943 46.9867 500.743 43.76C499.569 40.5333 498.983 37.3067 498.983 34.08C498.983 30.8533 499.569 27.6267 500.743 24.4C501.943 21.1467 503.543 18.48 505.543 16.4L509.103 19.12C507.689 21.6533 506.663 24.08 506.023 26.4C505.409 28.6933 505.103 31.2533 505.103 34.08C505.103 36.9067 505.409 39.48 506.023 41.8C506.663 44.12 507.689 46.5067 509.103 48.96L505.543 51.76ZM518.525 36.6V42.28H529.885V48H512.525V20H529.645V25.68H518.525V30.88H528.685V36.6H518.525ZM545.411 20C548.024 20 550.424 20.6267 552.611 21.88C554.824 23.1067 556.571 24.8 557.851 26.96C559.158 29.0933 559.811 31.4667 559.811 34.08C559.811 36.6933 559.171 39.0667 557.891 41.2C556.611 43.3067 554.864 44.9733 552.651 46.2C550.438 47.4 548.024 48 545.411 48H533.931V20H545.411ZM545.411 42.28C546.931 42.28 548.331 41.92 549.611 41.2C550.918 40.4533 551.944 39.4533 552.691 38.2C553.438 36.9467 553.811 35.56 553.811 34.04C553.811 32.52 553.438 31.12 552.691 29.84C551.944 28.56 550.918 27.5467 549.611 26.8C548.331 26.0533 546.931 25.68 545.411 25.68H539.931V42.28H545.411ZM585.105 20.04V20H591.105V48H585.105V31.04L577.985 42.96H576.505L569.345 31V48H563.345V20H569.345V20.04L569.425 20L577.225 33.12L585.025 20L585.105 20.04ZM598.148 16.4C600.148 18.48 601.735 21.1467 602.908 24.4C604.108 27.6267 604.708 30.8533 604.708 34.08C604.708 37.3067 604.108 40.5333 602.908 43.76C601.735 46.9867 600.148 49.6533 598.148 51.76L594.588 48.96C596.001 46.5067 597.015 44.12 597.628 41.8C598.268 39.48 598.588 36.9067 598.588 34.08C598.588 31.2533 598.268 28.6933 597.628 26.4C597.015 24.08 596.001 21.6533 594.588 19.12L598.148 16.4ZM628.443 48.6C626.523 48.6 624.75 48.1333 623.123 47.2C621.523 46.24 620.243 44.9467 619.283 43.32C618.35 41.6933 617.883 39.9333 617.883 38.04C617.883 36.12 618.35 34.36 619.283 32.76C620.243 31.1333 621.523 29.8533 623.123 28.92C624.75 27.96 626.523 27.48 628.443 27.48C630.337 27.48 632.083 27.96 633.683 28.92C635.31 29.8533 636.59 31.1333 637.523 32.76C638.483 34.36 638.963 36.12 638.963 38.04C638.963 39.9333 638.483 41.6933 637.523 43.32C636.59 44.9467 635.31 46.24 633.683 47.2C632.083 48.1333 630.337 48.6 628.443 48.6ZM628.403 42.88C629.737 42.88 630.883 42.4133 631.843 41.48C632.803 40.52 633.283 39.3733 633.283 38.04C633.283 36.7067 632.803 35.56 631.843 34.6C630.883 33.64 629.737 33.16 628.403 33.16C627.07 33.16 625.923 33.64 624.963 34.6C624.03 35.56 623.563 36.7067 623.563 38.04C623.563 39.3733 624.03 40.52 624.963 41.48C625.923 42.4133 627.07 42.88 628.403 42.88ZM652.531 27.44C653.705 27.44 654.891 27.6933 656.091 28.2C657.291 28.7067 658.318 29.6 659.171 30.88C660.025 32.16 660.451 33.88 660.451 36.04V48H654.731V36.04C654.731 34.76 654.371 33.84 653.651 33.28C652.958 32.72 652.118 32.44 651.131 32.44C650.145 32.44 649.318 32.7867 648.651 33.48C648.011 34.1733 647.691 35.28 647.691 36.8V48H641.971V28H647.691V29.36C649.211 28.08 650.825 27.44 652.531 27.44ZM674.173 34.08C674.173 31.4667 674.813 29.0533 676.093 26.84C677.4 24.6267 679.16 22.88 681.373 21.6C683.587 20.2933 686 19.64 688.613 19.64C691.28 19.64 693.747 20.3333 696.013 21.72C698.28 23.1067 700.04 24.9333 701.293 27.2L696.013 30.04C695.267 28.7067 694.24 27.6533 692.933 26.88C691.627 26.08 690.187 25.68 688.613 25.68C687.093 25.68 685.68 26.0533 684.373 26.8C683.093 27.5467 682.08 28.5733 681.333 29.88C680.587 31.16 680.213 32.56 680.213 34.08C680.213 35.6 680.587 37.0133 681.333 38.32C682.107 39.6 683.133 40.6267 684.413 41.4C685.693 42.1467 687.093 42.52 688.613 42.52C690.187 42.52 691.64 42.12 692.973 41.32C694.307 40.4933 695.333 39.4 696.053 38.04L701.373 40.92C700.12 43.2133 698.347 45.0667 696.053 46.48C693.787 47.8667 691.307 48.56 688.613 48.56C686 48.56 683.587 47.9067 681.373 46.6C679.16 45.2933 677.4 43.5333 676.093 41.32C674.813 39.1067 674.173 36.6933 674.173 34.08ZM713.287 48.6C711.367 48.6 709.594 48.1333 707.967 47.2C706.367 46.24 705.087 44.9467 704.127 43.32C703.194 41.6933 702.727 39.9333 702.727 38.04C702.727 36.12 703.194 34.36 704.127 32.76C705.087 31.1333 706.367 29.8533 707.967 28.92C709.594 27.96 711.367 27.48 713.287 27.48C715.181 27.48 716.927 27.96 718.527 28.92C720.154 29.8533 721.434 31.1333 722.367 32.76C723.327 34.36 723.807 36.12 723.807 38.04C723.807 39.9333 723.327 41.6933 722.367 43.32C721.434 44.9467 720.154 46.24 718.527 47.2C716.927 48.1333 715.181 48.6 713.287 48.6ZM713.247 42.88C714.581 42.88 715.727 42.4133 716.687 41.48C717.647 40.52 718.127 39.3733 718.127 38.04C718.127 36.7067 717.647 35.56 716.687 34.6C715.727 33.64 714.581 33.16 713.247 33.16C711.914 33.16 710.767 33.64 709.807 34.6C708.874 35.56 708.407 36.7067 708.407 38.04C708.407 39.3733 708.874 40.52 709.807 41.48C710.767 42.4133 711.914 42.88 713.247 42.88ZM749.583 27.44C750.757 27.44 751.943 27.6933 753.143 28.2C754.343 28.7067 755.37 29.6 756.223 30.88C757.077 32.16 757.503 33.88 757.503 36.04V48H751.823V36.04C751.823 34.76 751.463 33.84 750.743 33.28C750.023 32.72 749.17 32.44 748.183 32.44C747.357 32.44 746.637 32.6933 746.023 33.2C745.437 33.68 745.05 34.44 744.863 35.48V36.04V48H739.143V36.04C739.143 34.76 738.783 33.84 738.063 33.28C737.343 32.72 736.49 32.44 735.503 32.44C734.677 32.44 733.957 32.6933 733.343 33.2C732.73 33.7067 732.343 34.52 732.183 35.64V48H726.463V28H732.183V29.28C733.65 28.0533 735.237 27.44 736.943 27.44C738.117 27.44 739.303 27.6933 740.503 28.2C741.73 28.7067 742.73 29.5467 743.503 30.72C744.197 29.7867 745.077 29.0133 746.143 28.4C747.21 27.76 748.357 27.44 749.583 27.44ZM784.349 27.44C785.522 27.44 786.709 27.6933 787.909 28.2C789.109 28.7067 790.136 29.6 790.989 30.88C791.842 32.16 792.269 33.88 792.269 36.04V48H786.589V36.04C786.589 34.76 786.229 33.84 785.509 33.28C784.789 32.72 783.936 32.44 782.949 32.44C782.122 32.44 781.402 32.6933 780.789 33.2C780.202 33.68 779.816 34.44 779.629 35.48V36.04V48H773.909V36.04C773.909 34.76 773.549 33.84 772.829 33.28C772.109 32.72 771.256 32.44 770.269 32.44C769.442 32.44 768.722 32.6933 768.109 33.2C767.496 33.7067 767.109 34.52 766.949 35.64V48H761.229V28H766.949V29.28C768.416 28.0533 770.002 27.44 771.709 27.44C772.882 27.44 774.069 27.6933 775.269 28.2C776.496 28.7067 777.496 29.5467 778.269 30.72C778.962 29.7867 779.842 29.0133 780.909 28.4C781.976 27.76 783.122 27.44 784.349 27.44ZM808.155 28H813.875V48H808.155V46.64C806.635 47.92 805.021 48.56 803.315 48.56C802.141 48.56 800.955 48.3067 799.755 47.8C798.555 47.2933 797.528 46.4 796.675 45.12C795.821 43.84 795.395 42.12 795.395 39.96V28H801.115V39.96C801.115 41.2133 801.475 42.1333 802.195 42.72C802.915 43.28 803.768 43.56 804.755 43.56C805.715 43.56 806.515 43.2133 807.155 42.52C807.821 41.8267 808.155 40.72 808.155 39.2V28ZM829.328 27.44C830.501 27.44 831.688 27.6933 832.888 28.2C834.088 28.7067 835.115 29.6 835.968 30.88C836.821 32.16 837.248 33.88 837.248 36.04V48H831.528V36.04C831.528 34.76 831.168 33.84 830.448 33.28C829.755 32.72 828.915 32.44 827.928 32.44C826.941 32.44 826.115 32.7867 825.448 33.48C824.808 34.1733 824.488 35.28 824.488 36.8V48H818.768V28H824.488V29.36C826.008 28.08 827.621 27.44 829.328 27.44ZM843.955 25.28C842.888 25.28 842.048 25 841.435 24.44C840.848 23.8533 840.555 23.0667 840.555 22.08C840.555 21.0667 840.848 20.2667 841.435 19.68C842.048 19.0933 842.888 18.8 843.955 18.8C844.995 18.8 845.821 19.0933 846.435 19.68C847.048 20.2667 847.355 21.0667 847.355 22.08C847.355 23.0667 847.048 23.8533 846.435 24.44C845.821 25 844.995 25.28 843.955 25.28ZM841.075 48V28H846.795V48H841.075ZM868.801 44.08C867.815 45.4667 866.561 46.5733 865.041 47.4C863.548 48.2 861.935 48.6 860.201 48.6C858.281 48.6 856.508 48.1333 854.881 47.2C853.281 46.24 852.001 44.9467 851.041 43.32C850.108 41.6933 849.641 39.9333 849.641 38.04C849.641 36.12 850.108 34.36 851.041 32.76C852.001 31.1333 853.281 29.8533 854.881 28.92C856.508 27.96 858.281 27.48 860.201 27.48C861.935 27.48 863.548 27.88 865.041 28.68C866.535 29.48 867.775 30.56 868.761 31.92L864.041 35.04C862.921 33.7867 861.641 33.16 860.201 33.16C858.868 33.16 857.721 33.64 856.761 34.6C855.801 35.56 855.321 36.7067 855.321 38.04C855.321 39.3733 855.801 40.52 856.761 41.48C857.721 42.4133 858.868 42.88 860.201 42.88C861.641 42.88 862.921 42.2533 864.041 41L868.801 44.08ZM886.04 28H891.72V48H886.04V46.48C885.16 47.1467 884.187 47.6533 883.12 48C882.08 48.3733 881.027 48.56 879.96 48.56C877.88 48.56 876.08 48.1067 874.56 47.2C873.067 46.2933 871.92 45.0533 871.12 43.48C870.32 41.88 869.92 40.0667 869.92 38.04C869.92 36.0133 870.32 34.2 871.12 32.6C871.92 30.9733 873.067 29.7067 874.56 28.8C876.08 27.8933 877.88 27.44 879.96 27.44C881.054 27.44 882.12 27.6267 883.16 28C884.2 28.3733 885.16 28.8933 886.04 29.56V28ZM880.72 43.12C882.214 43.12 883.467 42.64 884.48 41.68C885.494 40.72 886 39.48 886 37.96C886 36.4933 885.494 35.2933 884.48 34.36C883.467 33.4267 882.214 32.96 880.72 32.96C879.227 32.96 878 33.4267 877.04 34.36C876.08 35.2933 875.6 36.52 875.6 38.04C875.6 39.56 876.08 40.7867 877.04 41.72C878 42.6533 879.227 43.12 880.72 43.12ZM903.552 40.88C903.552 41.6267 903.752 42.1467 904.152 42.44C904.579 42.7333 905.219 42.88 906.072 42.88C906.605 42.88 907.192 42.84 907.832 42.76V48C906.499 48.1333 905.392 48.2 904.512 48.2C902.272 48.2 900.592 47.7067 899.472 46.72C898.379 45.7067 897.832 43.88 897.832 41.24V33.08H894.392V28H897.832V23.36L903.552 21.44V28H907.752V33.08H903.552V40.88ZM914.814 25.28C913.747 25.28 912.907 25 912.294 24.44C911.707 23.8533 911.414 23.0667 911.414 22.08C911.414 21.0667 911.707 20.2667 912.294 19.68C912.907 19.0933 913.747 18.8 914.814 18.8C915.854 18.8 916.681 19.0933 917.294 19.68C917.907 20.2667 918.214 21.0667 918.214 22.08C918.214 23.0667 917.907 23.8533 917.294 24.44C916.681 25 915.854 25.28 914.814 25.28ZM911.934 48V28H917.654V48H911.934ZM931.061 48.6C929.141 48.6 927.367 48.1333 925.741 47.2C924.141 46.24 922.861 44.9467 921.901 43.32C920.967 41.6933 920.501 39.9333 920.501 38.04C920.501 36.12 920.967 34.36 921.901 32.76C922.861 31.1333 924.141 29.8533 925.741 28.92C927.367 27.96 929.141 27.48 931.061 27.48C932.954 27.48 934.701 27.96 936.301 28.92C937.927 29.8533 939.207 31.1333 940.141 32.76C941.101 34.36 941.581 36.12 941.581 38.04C941.581 39.9333 941.101 41.6933 940.141 43.32C939.207 44.9467 937.927 46.24 936.301 47.2C934.701 48.1333 932.954 48.6 931.061 48.6ZM931.021 42.88C932.354 42.88 933.501 42.4133 934.461 41.48C935.421 40.52 935.901 39.3733 935.901 38.04C935.901 36.7067 935.421 35.56 934.461 34.6C933.501 33.64 932.354 33.16 931.021 33.16C929.687 33.16 928.541 33.64 927.581 34.6C926.647 35.56 926.181 36.7067 926.181 38.04C926.181 39.3733 926.647 40.52 927.581 41.48C928.541 42.4133 929.687 42.88 931.021 42.88ZM955.148 27.44C956.322 27.44 957.508 27.6933 958.708 28.2C959.908 28.7067 960.935 29.6 961.788 30.88C962.642 32.16 963.068 33.88 963.068 36.04V48H957.348V36.04C957.348 34.76 956.988 33.84 956.268 33.28C955.575 32.72 954.735 32.44 953.748 32.44C952.762 32.44 951.935 32.7867 951.268 33.48C950.628 34.1733 950.308 35.28 950.308 36.8V48H944.588V28H950.308V29.36C951.828 28.08 953.442 27.44 955.148 27.44ZM107.72 74H113.4V94H107.72V92.48C106.84 93.1467 105.867 93.6533 104.8 94C103.76 94.3733 102.707 94.56 101.64 94.56C99.56 94.56 97.76 94.1067 96.24 93.2C94.7467 92.2933 93.6 91.0533 92.8 89.48C92 87.88 91.6 86.0667 91.6 84.04C91.6 82.0133 92 80.2 92.8 78.6C93.6 76.9733 94.7467 75.7067 96.24 74.8C97.76 73.8933 99.56 73.44 101.64 73.44C102.733 73.44 103.8 73.6267 104.84 74C105.88 74.3733 106.84 74.8933 107.72 75.56V74ZM102.4 89.12C103.893 89.12 105.147 88.64 106.16 87.68C107.173 86.72 107.68 85.48 107.68 83.96C107.68 82.4933 107.173 81.2933 106.16 80.36C105.147 79.4267 103.893 78.96 102.4 78.96C100.907 78.96 99.68 79.4267 98.72 80.36C97.76 81.2933 97.28 82.52 97.28 84.04C97.28 85.56 97.76 86.7867 98.72 87.72C99.68 88.6533 100.907 89.12 102.4 89.12ZM128.859 73.44C130.033 73.44 131.219 73.6933 132.419 74.2C133.619 74.7067 134.646 75.6 135.499 76.88C136.353 78.16 136.779 79.88 136.779 82.04V94H131.059V82.04C131.059 80.76 130.699 79.84 129.979 79.28C129.286 78.72 128.446 78.44 127.459 78.44C126.473 78.44 125.646 78.7867 124.979 79.48C124.339 80.1733 124.019 81.28 124.019 82.8V94H118.299V74H124.019V75.36C125.539 74.08 127.153 73.44 128.859 73.44ZM155.766 66H161.446V94H155.766V92.48C154.886 93.1467 153.926 93.6533 152.886 94C151.873 94.3733 150.819 94.56 149.726 94.56C147.646 94.56 145.846 94.1067 144.326 93.2C142.833 92.2933 141.686 91.0533 140.886 89.48C140.086 87.88 139.686 86.0667 139.686 84.04C139.686 82.0133 140.086 80.2 140.886 78.6C141.686 76.9733 142.833 75.7067 144.326 74.8C145.846 73.8933 147.646 73.44 149.726 73.44C150.793 73.44 151.846 73.6267 152.886 74C153.926 74.3467 154.886 74.8533 155.766 75.52V66ZM150.486 89.12C151.979 89.12 153.233 88.64 154.246 87.68C155.259 86.72 155.766 85.48 155.766 83.96C155.766 82.4933 155.259 81.2933 154.246 80.36C153.233 79.4267 151.979 78.96 150.486 78.96C148.993 78.96 147.766 79.4267 146.806 80.36C145.846 81.2933 145.366 82.52 145.366 84.04C145.366 85.56 145.846 86.7867 146.806 87.72C147.766 88.6533 148.993 89.12 150.486 89.12ZM187.34 66C189.046 66 190.606 66.4133 192.02 67.24C193.433 68.0667 194.553 69.2 195.38 70.64C196.233 72.0533 196.66 73.6133 196.66 75.32C196.66 77 196.233 78.56 195.38 80C194.553 81.4133 193.42 82.5467 191.98 83.4C190.566 84.2267 189.02 84.64 187.34 84.64H182.9V94H176.9V66H187.34ZM187.34 78.92C188.326 78.92 189.166 78.5733 189.86 77.88C190.58 77.16 190.94 76.3067 190.94 75.32C190.94 74.3067 190.593 73.4533 189.9 72.76C189.206 72.0667 188.353 71.72 187.34 71.72H182.9V78.92H187.34ZM212.617 73.6L212.217 79C212.031 78.92 211.724 78.88 211.297 78.88C209.671 78.88 208.337 79.3467 207.297 80.28C206.284 81.1867 205.777 82.3867 205.777 83.88V94H200.057V74H205.777V77.24C206.257 76.2 207.031 75.3333 208.097 74.64C209.164 73.9467 210.457 73.6 211.977 73.6H212.617ZM224.068 94.6C222.148 94.6 220.375 94.1333 218.748 93.2C217.148 92.24 215.868 90.9467 214.908 89.32C213.975 87.6933 213.508 85.9333 213.508 84.04C213.508 82.12 213.975 80.36 214.908 78.76C215.868 77.1333 217.148 75.8533 218.748 74.92C220.375 73.96 222.148 73.48 224.068 73.48C225.962 73.48 227.708 73.96 229.308 74.92C230.935 75.8533 232.215 77.1333 233.148 78.76C234.108 80.36 234.588 82.12 234.588 84.04C234.588 85.9333 234.108 87.6933 233.148 89.32C232.215 90.9467 230.935 92.24 229.308 93.2C227.708 94.1333 225.962 94.6 224.068 94.6ZM224.028 88.88C225.362 88.88 226.508 88.4133 227.468 87.48C228.428 86.52 228.908 85.3733 228.908 84.04C228.908 82.7067 228.428 81.56 227.468 80.6C226.508 79.64 225.362 79.16 224.028 79.16C222.695 79.16 221.548 79.64 220.588 80.6C219.655 81.56 219.188 82.7067 219.188 84.04C219.188 85.3733 219.655 86.52 220.588 87.48C221.548 88.4133 222.695 88.88 224.028 88.88ZM252.836 66H258.516V94H252.836V92.48C251.956 93.1467 250.996 93.6533 249.956 94C248.943 94.3733 247.89 94.56 246.796 94.56C244.716 94.56 242.916 94.1067 241.396 93.2C239.903 92.2933 238.756 91.0533 237.956 89.48C237.156 87.88 236.756 86.0667 236.756 84.04C236.756 82.0133 237.156 80.2 237.956 78.6C238.756 76.9733 239.903 75.7067 241.396 74.8C242.916 73.8933 244.716 73.44 246.796 73.44C247.863 73.44 248.916 73.6267 249.956 74C250.996 74.3467 251.956 74.8533 252.836 75.52V66ZM247.556 89.12C249.05 89.12 250.303 88.64 251.316 87.68C252.33 86.72 252.836 85.48 252.836 83.96C252.836 82.4933 252.33 81.2933 251.316 80.36C250.303 79.4267 249.05 78.96 247.556 78.96C246.063 78.96 244.836 79.4267 243.876 80.36C242.916 81.2933 242.436 82.52 242.436 84.04C242.436 85.56 242.916 86.7867 243.876 87.72C244.836 88.6533 246.063 89.12 247.556 89.12ZM274.834 74H280.554V94H274.834V92.64C273.314 93.92 271.701 94.56 269.994 94.56C268.821 94.56 267.634 94.3067 266.434 93.8C265.234 93.2933 264.208 92.4 263.354 91.12C262.501 89.84 262.074 88.12 262.074 85.96V74H267.794V85.96C267.794 87.2133 268.154 88.1333 268.874 88.72C269.594 89.28 270.448 89.56 271.434 89.56C272.394 89.56 273.194 89.2133 273.834 88.52C274.501 87.8267 274.834 86.72 274.834 85.2V74ZM302.747 90.08C301.76 91.4667 300.507 92.5733 298.987 93.4C297.493 94.2 295.88 94.6 294.147 94.6C292.227 94.6 290.453 94.1333 288.827 93.2C287.227 92.24 285.947 90.9467 284.987 89.32C284.053 87.6933 283.587 85.9333 283.587 84.04C283.587 82.12 284.053 80.36 284.987 78.76C285.947 77.1333 287.227 75.8533 288.827 74.92C290.453 73.96 292.227 73.48 294.147 73.48C295.88 73.48 297.493 73.88 298.987 74.68C300.48 75.48 301.72 76.56 302.707 77.92L297.987 81.04C296.867 79.7867 295.587 79.16 294.147 79.16C292.813 79.16 291.667 79.64 290.707 80.6C289.747 81.56 289.267 82.7067 289.267 84.04C289.267 85.3733 289.747 86.52 290.707 87.48C291.667 88.4133 292.813 88.88 294.147 88.88C295.587 88.88 296.867 88.2533 297.987 87L302.747 90.08ZM313.083 86.88C313.083 87.6267 313.283 88.1467 313.683 88.44C314.11 88.7333 314.75 88.88 315.603 88.88C316.136 88.88 316.723 88.84 317.363 88.76V94C316.03 94.1333 314.923 94.2 314.043 94.2C311.803 94.2 310.123 93.7067 309.003 92.72C307.91 91.7067 307.363 89.88 307.363 87.24V79.08H303.923V74H307.363V69.36L313.083 67.44V74H317.283V79.08H313.083V86.88ZM324.345 71.28C323.279 71.28 322.439 71 321.825 70.44C321.239 69.8533 320.945 69.0667 320.945 68.08C320.945 67.0667 321.239 66.2667 321.825 65.68C322.439 65.0933 323.279 64.8 324.345 64.8C325.385 64.8 326.212 65.0933 326.825 65.68C327.439 66.2667 327.745 67.0667 327.745 68.08C327.745 69.0667 327.439 69.8533 326.825 70.44C326.212 71 325.385 71.28 324.345 71.28ZM321.465 94V74H327.185V94H321.465ZM340.373 86.92L345.053 74H351.093L343.813 94H336.893L329.613 74H335.653L340.373 86.92ZM356.65 71.28C355.583 71.28 354.743 71 354.13 70.44C353.543 69.8533 353.25 69.0667 353.25 68.08C353.25 67.0667 353.543 66.2667 354.13 65.68C354.743 65.0933 355.583 64.8 356.65 64.8C357.69 64.8 358.517 65.0933 359.13 65.68C359.743 66.2667 360.05 67.0667 360.05 68.08C360.05 69.0667 359.743 69.8533 359.13 70.44C358.517 71 357.69 71.28 356.65 71.28ZM353.77 94V74H359.49V94H353.77ZM371.95 86.88C371.95 87.6267 372.15 88.1467 372.55 88.44C372.977 88.7333 373.617 88.88 374.47 88.88C375.004 88.88 375.59 88.84 376.23 88.76V94C374.897 94.1333 373.79 94.2 372.91 94.2C370.67 94.2 368.99 93.7067 367.87 92.72C366.777 91.7067 366.23 89.88 366.23 87.24V79.08H362.79V74H366.23V69.36L371.95 67.44V74H376.15V79.08H371.95V86.88ZM393.528 74H399.488L392.768 93.72C391.648 96.6 390.128 98.7467 388.208 100.16C386.314 101.573 384.048 102.187 381.408 102V96.48C381.568 96.5067 381.808 96.52 382.128 96.52C383.248 96.52 384.181 96.2267 384.928 95.64C385.674 95.0533 386.301 94.24 386.808 93.2L378.168 74H384.328L389.568 85.48L393.528 74Z" fill="#EAEAEA"/>
<path d="M47.2799 0.696279C48.8447 2.14924 50.8167 9.04855 51.562 11.3535C52.7262 14.9541 53.7031 17.8834 55.1769 21.3565C56.3528 24.1258 56.8354 28.5849 59.368 30.3786C61.016 31.5467 63.9727 32.0046 64.3929 34.5034C64.8351 37.1349 64.1522 39.8509 62.6576 42.0193C62.0723 42.8687 60.3201 44.3555 60.181 45.2348C59.6606 48.514 62.0306 51.9988 61.5403 55.3288C61.1955 57.6754 59.8844 58.7901 57.5443 57.799C56.8432 57.5024 56.2292 56.5242 55.2822 57.0016C53.9385 58.4389 55.4995 60.3498 53.8657 61.6844C53.0995 62.3113 52.163 62.3426 51.2095 62.0915C49.897 61.7468 49.2961 59.7137 47.6987 60.1937C47.1186 60.368 43.6416 64.5214 42.6725 65.3382C38.9627 68.4679 33.4878 70.8652 28.6268 69.4032C26.4233 68.7411 23.0191 65.9327 21.3034 64.3223C20.3343 63.4131 17.5728 59.9335 16.6362 59.633C14.6174 58.9866 14.5446 61.661 13.7849 62.4987C13.0734 63.2843 11.9079 63.2843 11.0611 62.7653C9.20882 61.6297 9.84489 57.7912 8.97208 57.5258C7.80398 57.1694 6.65019 60.7998 4.36733 59.144C3.07176 58.2035 3.09258 55.7997 3.18884 54.3558C3.41908 50.9244 5.74745 47.2874 3.56996 44.0368C1.61099 41.1113 -0.68617 40.3894 0.193153 36.1255C0.752486 33.412 3.24998 32.616 4.83042 30.8001C6.83101 28.5016 8.24884 24.6682 9.534 21.8846C11.8637 16.835 12.1499 12.0598 14.1804 7.01934C14.6109 5.95141 16.5374 1.68747 17.1474 1.04229C18.0411 0.0979235 19.0127 0.0237792 20.0716 0.739205C21.8302 1.92941 23.9453 8.41507 25.0665 10.5835C25.8327 12.065 26.9228 14.2334 28.7334 14.439C30.2111 14.6068 35.9605 14.6289 37.1807 14.1372C38.8092 13.4816 39.7406 9.67942 40.3936 8.20305C40.8228 7.23397 41.4888 6.38326 41.8934 5.4337C42.4943 4.02106 42.6075 2.22079 43.6039 1.04619C44.6003 -0.128411 46.0936 -0.408078 47.2812 0.693678L47.2799 0.696279ZM18.8189 8.99262C16.9029 9.4674 16.1185 14.7355 16.4307 16.3654C16.7286 17.9237 19.178 16.3875 20.0209 15.8984C21.9135 14.798 22.0045 14.8617 21.453 12.5697C21.2084 11.5564 20.1301 8.66742 18.8189 8.99131V8.99262ZM44.5535 9.41407C43.877 10.0619 42.8898 13.9108 43.172 14.8565C43.6169 16.3459 47.86 18.5312 48.327 16.9403C48.7068 15.6513 47.782 10.7669 46.8519 9.75877C46.3264 9.19033 45.144 8.84823 44.5535 9.41407ZM27.4131 49.3855C27.5276 44.3073 25.1056 34.48 19.6748 32.6303C15.3979 31.1734 12.7443 35.7222 12.3814 39.354C11.8897 44.2696 13.1983 48.7209 16.138 52.6193C19.0648 56.4982 24.3641 63.0268 28.6242 65.1418C34.0458 67.8344 38.9549 64.8439 42.3499 60.5436C47.3436 54.2179 52.8849 47.7609 52.2436 39.1185C51.8443 33.7385 47.2265 28.9075 42.5685 33.9428C39.0356 37.7618 37.5267 44.3242 37.1781 49.3855C37.0207 49.569 34.9823 48.1576 34.5934 48.0067C32.174 47.0637 30.6833 47.6607 28.5656 48.8106C28.1832 49.0187 27.9907 49.5312 27.4145 49.3855H27.4131Z" fill="white"/>
<path d="M27.4136 49.3857C27.9898 49.5314 28.1823 49.0189 28.5648 48.8107C30.6824 47.6608 32.1731 47.0638 34.5925 48.0069C34.9815 48.1577 37.0198 49.5704 37.1772 49.3857C37.5258 44.3244 39.0334 37.762 42.5676 33.9429C47.2257 28.9076 51.8434 33.7387 52.2427 39.1187C52.8853 47.761 47.3427 54.218 42.3491 60.5437C38.954 64.8441 34.0462 67.8346 28.6233 65.142C24.3632 63.0269 19.0639 56.4996 16.1372 52.6194C13.1961 48.721 11.8888 44.2697 12.3805 39.3541C12.7434 35.7223 15.397 31.1735 19.674 32.6304C25.1047 34.4801 27.5267 44.3075 27.4123 49.3857H27.4136ZM21.2531 36.417C19.9692 36.6121 19.5374 39.8965 19.4788 40.958C19.406 42.273 19.5712 47.5958 21.4053 47.6817C22.7906 47.7454 23.268 45.0424 23.35 44.0109C23.4592 42.6217 23.6361 36.0553 21.2531 36.417ZM43.6368 36.4157C43.2362 36.4911 43.0398 36.7291 42.829 37.0491C41.6909 38.7727 41.7169 45.1334 42.8316 46.8908C43.7773 48.3815 44.8049 47.5802 45.3252 46.2469C46.1382 44.1657 46.0927 39.4972 45.1509 37.4641C44.84 36.7929 44.5044 36.2518 43.6368 36.4157Z" fill="black"/>
<path d="M44.553 9.41392C45.1448 8.84808 46.3259 9.19019 46.8515 9.75863C47.7828 10.7667 48.7064 15.6511 48.3265 16.9402C47.8583 18.531 43.6164 16.3457 43.1716 14.8564C42.8893 13.9107 43.8766 10.0617 44.553 9.41392Z" fill="black"/>
<path d="M18.819 8.99217C20.1302 8.66698 21.2086 11.556 21.4531 12.5706C22.0059 14.8626 21.9136 14.7988 20.021 15.8993C19.1781 16.3897 16.7287 17.9246 16.4308 16.3663C16.1186 14.7351 16.903 9.46696 18.819 8.99347V8.99217Z" fill="black"/>
<path d="M43.6357 36.4157C44.5047 36.2505 44.839 36.7916 45.1498 37.4641C46.0929 39.4972 46.1371 44.167 45.3241 46.247C44.8038 47.5803 43.7762 48.3815 42.8306 46.8908C41.7145 45.1335 41.6885 38.7727 42.828 37.0492C43.0387 36.7292 43.2351 36.4925 43.6357 36.4157Z" fill="white"/>
<path d="M21.2527 36.4167C23.6357 36.0551 23.4601 42.6214 23.3495 44.0106C23.2676 45.0422 22.7902 47.7452 21.4048 47.6814C19.5694 47.5969 19.4056 42.2728 19.4784 40.9577C19.5369 39.8976 19.9688 36.6118 21.2527 36.4167Z" fill="white"/>
<path d="M28.429 54.4453L31.08 58.6039C31.4781 58.9447 32.014 59.8318 32.5837 59.7421L36.3625 54.95L36.0581 54.4453H28.4277H28.429Z" fill="white"/>
</svg>
