<svg width="907" height="70" viewBox="0 0 907 70" fill="none" xmlns="http://www.w3.org/2000/svg">
<path d="M98.72 36.6V42.28H110.08V48H92.72V20H109.84V25.68H98.72V30.88H108.88V36.6H98.72ZM119.566 41.68C119.566 42.1067 119.66 42.4133 119.846 42.6C120.06 42.7867 120.406 42.88 120.886 42.88C121.233 42.88 121.646 42.84 122.126 42.76V48C120.82 48.1867 119.806 48.28 119.086 48.28C117.353 48.28 116.046 47.8267 115.166 46.92C114.286 45.9867 113.846 44.36 113.846 42.04V20H119.566V41.68ZM134.303 27.48C136.249 27.48 137.983 27.9467 139.503 28.88C141.049 29.8133 142.249 31.08 143.103 32.68C143.956 34.28 144.383 36.0533 144.383 38C144.383 38.7467 144.329 39.4267 144.223 40.04H129.423C129.929 41.2667 130.609 42.1867 131.463 42.8C132.316 43.3867 133.423 43.68 134.783 43.68C135.609 43.68 136.409 43.5067 137.183 43.16C137.983 42.8133 138.609 42.3467 139.063 41.76L143.383 44.32C142.449 45.68 141.236 46.72 139.743 47.44C138.276 48.16 136.583 48.52 134.663 48.52C132.503 48.52 130.596 48.0667 128.943 47.16C127.289 46.2267 126.009 44.96 125.103 43.36C124.196 41.76 123.743 39.9733 123.743 38C123.743 36.0267 124.183 34.24 125.063 32.64C125.969 31.04 127.223 29.7867 128.823 28.88C130.423 27.9467 132.249 27.48 134.303 27.48ZM139.023 35.6C138.836 34.5867 138.303 33.8 137.423 33.24C136.569 32.68 135.516 32.4 134.263 32.4C132.956 32.4 131.823 32.72 130.863 33.36C129.903 33.9733 129.396 34.72 129.343 35.6H139.023ZM165.442 44.08C164.455 45.4667 163.202 46.5733 161.682 47.4C160.189 48.2 158.575 48.6 156.842 48.6C154.922 48.6 153.149 48.1333 151.522 47.2C149.922 46.24 148.642 44.9467 147.682 43.32C146.749 41.6933 146.282 39.9333 146.282 38.04C146.282 36.12 146.749 34.36 147.682 32.76C148.642 31.1333 149.922 29.8533 151.522 28.92C153.149 27.96 154.922 27.48 156.842 27.48C158.575 27.48 160.189 27.88 161.682 28.68C163.175 29.48 164.415 30.56 165.402 31.92L160.682 35.04C159.562 33.7867 158.282 33.16 156.842 33.16C155.509 33.16 154.362 33.64 153.402 34.6C152.442 35.56 151.962 36.7067 151.962 38.04C151.962 39.3733 152.442 40.52 153.402 41.48C154.362 42.4133 155.509 42.88 156.842 42.88C158.282 42.88 159.562 42.2533 160.682 41L165.442 44.08ZM175.778 40.88C175.778 41.6267 175.978 42.1467 176.378 42.44C176.805 42.7333 177.445 42.88 178.298 42.88C178.832 42.88 179.418 42.84 180.058 42.76V48C178.725 48.1333 177.618 48.2 176.738 48.2C174.498 48.2 172.818 47.7067 171.698 46.72C170.605 45.7067 170.058 43.88 170.058 41.24V33.08H166.618V28H170.058V23.36L175.778 21.44V28H179.978V33.08H175.778V40.88ZM196.836 27.6L196.436 33C196.249 32.92 195.943 32.88 195.516 32.88C193.889 32.88 192.556 33.3467 191.516 34.28C190.503 35.1867 189.996 36.3867 189.996 37.88V48H184.276V28H189.996V31.24C190.476 30.2 191.249 29.3333 192.316 28.64C193.383 27.9467 194.676 27.6 196.196 27.6H196.836ZM208.287 48.6C206.367 48.6 204.594 48.1333 202.967 47.2C201.367 46.24 200.087 44.9467 199.127 43.32C198.194 41.6933 197.727 39.9333 197.727 38.04C197.727 36.12 198.194 34.36 199.127 32.76C200.087 31.1333 201.367 29.8533 202.967 28.92C204.594 27.96 206.367 27.48 208.287 27.48C210.181 27.48 211.927 27.96 213.527 28.92C215.154 29.8533 216.434 31.1333 217.367 32.76C218.327 34.36 218.807 36.12 218.807 38.04C218.807 39.9333 218.327 41.6933 217.367 43.32C216.434 44.9467 215.154 46.24 213.527 47.2C211.927 48.1333 210.181 48.6 208.287 48.6ZM208.247 42.88C209.581 42.88 210.727 42.4133 211.687 41.48C212.647 40.52 213.127 39.3733 213.127 38.04C213.127 36.7067 212.647 35.56 211.687 34.6C210.727 33.64 209.581 33.16 208.247 33.16C206.914 33.16 205.767 33.64 204.807 34.6C203.874 35.56 203.407 36.7067 203.407 38.04C203.407 39.3733 203.874 40.52 204.807 41.48C205.767 42.4133 206.914 42.88 208.247 42.88ZM232.375 27.44C233.548 27.44 234.735 27.6933 235.935 28.2C237.135 28.7067 238.162 29.6 239.015 30.88C239.868 32.16 240.295 33.88 240.295 36.04V48H234.575V36.04C234.575 34.76 234.215 33.84 233.495 33.28C232.802 32.72 231.962 32.44 230.975 32.44C229.988 32.44 229.162 32.7867 228.495 33.48C227.855 34.1733 227.535 35.28 227.535 36.8V48H221.815V28H227.535V29.36C229.055 28.08 230.668 27.44 232.375 27.44ZM247.002 25.28C245.935 25.28 245.095 25 244.482 24.44C243.895 23.8533 243.602 23.0667 243.602 22.08C243.602 21.0667 243.895 20.2667 244.482 19.68C245.095 19.0933 245.935 18.8 247.002 18.8C248.042 18.8 248.868 19.0933 249.482 19.68C250.095 20.2667 250.402 21.0667 250.402 22.08C250.402 23.0667 250.095 23.8533 249.482 24.44C248.868 25 248.042 25.28 247.002 25.28ZM244.122 48V28H249.842V48H244.122ZM271.848 44.08C270.861 45.4667 269.608 46.5733 268.088 47.4C266.595 48.2 264.981 48.6 263.248 48.6C261.328 48.6 259.555 48.1333 257.928 47.2C256.328 46.24 255.048 44.9467 254.088 43.32C253.155 41.6933 252.688 39.9333 252.688 38.04C252.688 36.12 253.155 34.36 254.088 32.76C255.048 31.1333 256.328 29.8533 257.928 28.92C259.555 27.96 261.328 27.48 263.248 27.48C264.981 27.48 266.595 27.88 268.088 28.68C269.581 29.48 270.821 30.56 271.808 31.92L267.088 35.04C265.968 33.7867 264.688 33.16 263.248 33.16C261.915 33.16 260.768 33.64 259.808 34.6C258.848 35.56 258.368 36.7067 258.368 38.04C258.368 39.3733 258.848 40.52 259.808 41.48C260.768 42.4133 261.915 42.88 263.248 42.88C264.688 42.88 265.968 42.2533 267.088 41L271.848 44.08ZM296.934 20C299.548 20 301.948 20.6267 304.134 21.88C306.348 23.1067 308.094 24.8 309.374 26.96C310.681 29.0933 311.334 31.4667 311.334 34.08C311.334 36.6933 310.694 39.0667 309.414 41.2C308.134 43.3067 306.388 44.9733 304.174 46.2C301.961 47.4 299.548 48 296.934 48H285.454V20H296.934ZM296.934 42.28C298.454 42.28 299.854 41.92 301.134 41.2C302.441 40.4533 303.468 39.4533 304.214 38.2C304.961 36.9467 305.334 35.56 305.334 34.04C305.334 32.52 304.961 31.12 304.214 29.84C303.468 28.56 302.441 27.5467 301.134 26.8C299.854 26.0533 298.454 25.68 296.934 25.68H291.454V42.28H296.934ZM317.353 25.28C316.286 25.28 315.446 25 314.833 24.44C314.246 23.8533 313.953 23.0667 313.953 22.08C313.953 21.0667 314.246 20.2667 314.833 19.68C315.446 19.0933 316.286 18.8 317.353 18.8C318.393 18.8 319.22 19.0933 319.833 19.68C320.446 20.2667 320.753 21.0667 320.753 22.08C320.753 23.0667 320.446 23.8533 319.833 24.44C319.22 25 318.393 25.28 317.353 25.28ZM314.473 48V28H320.193V48H314.473ZM337.461 27.6L337.061 33C336.874 32.92 336.568 32.88 336.141 32.88C334.514 32.88 333.181 33.3467 332.141 34.28C331.128 35.1867 330.621 36.3867 330.621 37.88V48H324.901V28H330.621V31.24C331.101 30.2 331.874 29.3333 332.941 28.64C334.008 27.9467 335.301 27.6 336.821 27.6H337.461ZM349.029 27.48C350.976 27.48 352.709 27.9467 354.229 28.88C355.776 29.8133 356.976 31.08 357.829 32.68C358.683 34.28 359.109 36.0533 359.109 38C359.109 38.7467 359.056 39.4267 358.949 40.04H344.149C344.656 41.2667 345.336 42.1867 346.189 42.8C347.043 43.3867 348.149 43.68 349.509 43.68C350.336 43.68 351.136 43.5067 351.909 43.16C352.709 42.8133 353.336 42.3467 353.789 41.76L358.109 44.32C357.176 45.68 355.963 46.72 354.469 47.44C353.003 48.16 351.309 48.52 349.389 48.52C347.229 48.52 345.323 48.0667 343.669 47.16C342.016 46.2267 340.736 44.96 339.829 43.36C338.923 41.76 338.469 39.9733 338.469 38C338.469 36.0267 338.909 34.24 339.789 32.64C340.696 31.04 341.949 29.7867 343.549 28.88C345.149 27.9467 346.976 27.48 349.029 27.48ZM353.749 35.6C353.563 34.5867 353.029 33.8 352.149 33.24C351.296 32.68 350.243 32.4 348.989 32.4C347.683 32.4 346.549 32.72 345.589 33.36C344.629 33.9733 344.123 34.72 344.069 35.6H353.749ZM380.168 44.08C379.182 45.4667 377.928 46.5733 376.408 47.4C374.915 48.2 373.302 48.6 371.568 48.6C369.648 48.6 367.875 48.1333 366.248 47.2C364.648 46.24 363.368 44.9467 362.408 43.32C361.475 41.6933 361.008 39.9333 361.008 38.04C361.008 36.12 361.475 34.36 362.408 32.76C363.368 31.1333 364.648 29.8533 366.248 28.92C367.875 27.96 369.648 27.48 371.568 27.48C373.302 27.48 374.915 27.88 376.408 28.68C377.902 29.48 379.142 30.56 380.128 31.92L375.408 35.04C374.288 33.7867 373.008 33.16 371.568 33.16C370.235 33.16 369.088 33.64 368.128 34.6C367.168 35.56 366.688 36.7067 366.688 38.04C366.688 39.3733 367.168 40.52 368.128 41.48C369.088 42.4133 370.235 42.88 371.568 42.88C373.008 42.88 374.288 42.2533 375.408 41L380.168 44.08ZM390.505 40.88C390.505 41.6267 390.705 42.1467 391.105 42.44C391.532 42.7333 392.172 42.88 393.025 42.88C393.558 42.88 394.145 42.84 394.785 42.76V48C393.452 48.1333 392.345 48.2 391.465 48.2C389.225 48.2 387.545 47.7067 386.425 46.72C385.332 45.7067 384.785 43.88 384.785 41.24V33.08H381.345V28H384.785V23.36L390.505 21.44V28H394.705V33.08H390.505V40.88ZM431.277 20.04V20H437.277V48H431.277V31.04L424.157 42.96H422.677L415.517 31V48H409.517V20H415.517V20.04L415.597 20L423.397 33.12L431.197 20L431.277 20.04ZM456.587 28H462.267V48H456.587V46.48C455.707 47.1467 454.734 47.6533 453.667 48C452.627 48.3733 451.574 48.56 450.507 48.56C448.427 48.56 446.627 48.1067 445.107 47.2C443.614 46.2933 442.467 45.0533 441.667 43.48C440.867 41.88 440.467 40.0667 440.467 38.04C440.467 36.0133 440.867 34.2 441.667 32.6C442.467 30.9733 443.614 29.7067 445.107 28.8C446.627 27.8933 448.427 27.44 450.507 27.44C451.601 27.44 452.667 27.6267 453.707 28C454.747 28.3733 455.707 28.8933 456.587 29.56V28ZM451.267 43.12C452.761 43.12 454.014 42.64 455.027 41.68C456.041 40.72 456.547 39.48 456.547 37.96C456.547 36.4933 456.041 35.2933 455.027 34.36C454.014 33.4267 452.761 32.96 451.267 32.96C449.774 32.96 448.547 33.4267 447.587 34.36C446.627 35.2933 446.147 36.52 446.147 38.04C446.147 39.56 446.627 40.7867 447.587 41.72C448.547 42.6533 449.774 43.12 451.267 43.12ZM470.127 25.28C469.06 25.28 468.22 25 467.607 24.44C467.02 23.8533 466.727 23.0667 466.727 22.08C466.727 21.0667 467.02 20.2667 467.607 19.68C468.22 19.0933 469.06 18.8 470.127 18.8C471.167 18.8 471.993 19.0933 472.607 19.68C473.22 20.2667 473.527 21.0667 473.527 22.08C473.527 23.0667 473.22 23.8533 472.607 24.44C471.993 25 471.167 25.28 470.127 25.28ZM467.247 48V28H472.967V48H467.247ZM483.394 41.68C483.394 42.1067 483.488 42.4133 483.674 42.6C483.888 42.7867 484.234 42.88 484.714 42.88C485.061 42.88 485.474 42.84 485.954 42.76V48C484.648 48.1867 483.634 48.28 482.914 48.28C481.181 48.28 479.874 47.8267 478.994 46.92C478.114 45.9867 477.674 44.36 477.674 42.04V20H483.394V41.68ZM505.543 51.76C503.543 49.6533 501.943 46.9867 500.743 43.76C499.569 40.5333 498.983 37.3067 498.983 34.08C498.983 30.8533 499.569 27.6267 500.743 24.4C501.943 21.1467 503.543 18.48 505.543 16.4L509.103 19.12C507.689 21.6533 506.663 24.08 506.023 26.4C505.409 28.6933 505.103 31.2533 505.103 34.08C505.103 36.9067 505.409 39.48 506.023 41.8C506.663 44.12 507.689 46.5067 509.103 48.96L505.543 51.76ZM518.525 36.6V42.28H529.885V48H512.525V20H529.645V25.68H518.525V30.88H528.685V36.6H518.525ZM545.411 20C548.024 20 550.424 20.6267 552.611 21.88C554.824 23.1067 556.571 24.8 557.851 26.96C559.158 29.0933 559.811 31.4667 559.811 34.08C559.811 36.6933 559.171 39.0667 557.891 41.2C556.611 43.3067 554.864 44.9733 552.651 46.2C550.438 47.4 548.024 48 545.411 48H533.931V20H545.411ZM545.411 42.28C546.931 42.28 548.331 41.92 549.611 41.2C550.918 40.4533 551.944 39.4533 552.691 38.2C553.438 36.9467 553.811 35.56 553.811 34.04C553.811 32.52 553.438 31.12 552.691 29.84C551.944 28.56 550.918 27.5467 549.611 26.8C548.331 26.0533 546.931 25.68 545.411 25.68H539.931V42.28H545.411ZM585.105 20.04V20H591.105V48H585.105V31.04L577.985 42.96H576.505L569.345 31V48H563.345V20H569.345V20.04L569.425 20L577.225 33.12L585.025 20L585.105 20.04ZM598.148 16.4C600.148 18.48 601.735 21.1467 602.908 24.4C604.108 27.6267 604.708 30.8533 604.708 34.08C604.708 37.3067 604.108 40.5333 602.908 43.76C601.735 46.9867 600.148 49.6533 598.148 51.76L594.588 48.96C596.001 46.5067 597.015 44.12 597.628 41.8C598.268 39.48 598.588 36.9067 598.588 34.08C598.588 31.2533 598.268 28.6933 597.628 26.4C597.015 24.08 596.001 21.6533 594.588 19.12L598.148 16.4ZM628.443 48.6C626.523 48.6 624.75 48.1333 623.123 47.2C621.523 46.24 620.243 44.9467 619.283 43.32C618.35 41.6933 617.883 39.9333 617.883 38.04C617.883 36.12 618.35 34.36 619.283 32.76C620.243 31.1333 621.523 29.8533 623.123 28.92C624.75 27.96 626.523 27.48 628.443 27.48C630.337 27.48 632.083 27.96 633.683 28.92C635.31 29.8533 636.59 31.1333 637.523 32.76C638.483 34.36 638.963 36.12 638.963 38.04C638.963 39.9333 638.483 41.6933 637.523 43.32C636.59 44.9467 635.31 46.24 633.683 47.2C632.083 48.1333 630.337 48.6 628.443 48.6ZM628.403 42.88C629.737 42.88 630.883 42.4133 631.843 41.48C632.803 40.52 633.283 39.3733 633.283 38.04C633.283 36.7067 632.803 35.56 631.843 34.6C630.883 33.64 629.737 33.16 628.403 33.16C627.07 33.16 625.923 33.64 624.963 34.6C624.03 35.56 623.563 36.7067 623.563 38.04C623.563 39.3733 624.03 40.52 624.963 41.48C625.923 42.4133 627.07 42.88 628.403 42.88ZM652.531 27.44C653.705 27.44 654.891 27.6933 656.091 28.2C657.291 28.7067 658.318 29.6 659.171 30.88C660.025 32.16 660.451 33.88 660.451 36.04V48H654.731V36.04C654.731 34.76 654.371 33.84 653.651 33.28C652.958 32.72 652.118 32.44 651.131 32.44C650.145 32.44 649.318 32.7867 648.651 33.48C648.011 34.1733 647.691 35.28 647.691 36.8V48H641.971V28H647.691V29.36C649.211 28.08 650.825 27.44 652.531 27.44ZM694.133 20V25.68H686.733V48H680.693V25.68H673.333V20H694.133ZM708.939 39.32L715.459 20H721.819L712.299 48H705.539L696.019 20H702.379L708.939 39.32ZM744.387 48.52C741.613 48.52 739.28 47.9067 737.387 46.68C735.52 45.4533 734.2 43.7867 733.427 41.68L738.507 38.72C739.04 40.0533 739.787 41.04 740.747 41.68C741.733 42.32 743 42.64 744.547 42.64C745.8 42.64 746.76 42.3467 747.427 41.76C748.12 41.1733 748.467 40.52 748.467 39.8C748.467 39.2667 748.307 38.8133 747.987 38.44C747.667 38.0667 747.12 37.72 746.347 37.4C745.573 37.0533 744.453 36.6667 742.987 36.24C740.427 35.4933 738.387 34.48 736.867 33.2C735.347 31.92 734.587 30.0933 734.587 27.72C734.587 26.04 735 24.5867 735.827 23.36C736.68 22.1067 737.8 21.1467 739.187 20.48C740.6 19.8133 742.12 19.48 743.747 19.48C746.013 19.48 748 20.0267 749.707 21.12C751.413 22.1867 752.747 23.7067 753.707 25.68L748.507 28.64C748 27.52 747.36 26.7067 746.587 26.2C745.813 25.6667 744.867 25.4 743.747 25.4C742.893 25.4 742.16 25.64 741.547 26.12C740.933 26.5733 740.627 27.1067 740.627 27.72C740.627 28.2267 740.747 28.6667 740.987 29.04C741.253 29.3867 741.72 29.72 742.387 30.04C743.08 30.36 744.093 30.72 745.427 31.12C747.213 31.68 748.747 32.3067 750.027 33C751.333 33.6667 752.4 34.5867 753.227 35.76C754.08 36.9333 754.507 38.4 754.507 40.16C754.507 41.84 754.067 43.32 753.187 44.6C752.307 45.8533 751.093 46.8267 749.547 47.52C748.027 48.1867 746.307 48.52 744.387 48.52ZM760.556 25.28C759.49 25.28 758.65 25 758.036 24.44C757.45 23.8533 757.156 23.0667 757.156 22.08C757.156 21.0667 757.45 20.2667 758.036 19.68C758.65 19.0933 759.49 18.8 760.556 18.8C761.596 18.8 762.423 19.0933 763.036 19.68C763.65 20.2667 763.956 21.0667 763.956 22.08C763.956 23.0667 763.65 23.8533 763.036 24.44C762.423 25 761.596 25.28 760.556 25.28ZM757.676 48V28H763.396V48H757.676ZM782.798 28H788.518V47C788.518 48.8667 788.025 50.52 787.038 51.96C786.078 53.4 784.745 54.52 783.038 55.32C781.331 56.12 779.411 56.52 777.278 56.52C774.958 56.52 772.825 56.0667 770.878 55.16C768.958 54.28 767.611 53.1333 766.838 51.72L771.718 48.88C772.065 49.5733 772.758 50.1467 773.798 50.6C774.838 51.0533 776.051 51.28 777.438 51.28C778.985 51.28 780.265 50.88 781.278 50.08C782.291 49.28 782.798 48.2533 782.798 47V46.48C781.918 47.1467 780.958 47.6533 779.918 48C778.905 48.3733 777.851 48.56 776.758 48.56C774.678 48.56 772.878 48.1067 771.358 47.2C769.865 46.2933 768.718 45.0533 767.918 43.48C767.118 41.88 766.718 40.0667 766.718 38.04C766.718 36.0133 767.118 34.2 767.918 32.6C768.718 30.9733 769.865 29.7067 771.358 28.8C772.878 27.8933 774.678 27.44 776.758 27.44C777.825 27.44 778.878 27.6267 779.918 28C780.958 28.3467 781.918 28.8533 782.798 29.52V28ZM777.518 43.12C779.011 43.12 780.265 42.64 781.278 41.68C782.291 40.72 782.798 39.48 782.798 37.96C782.798 36.4933 782.291 35.2933 781.278 34.36C780.265 33.4267 779.011 32.96 777.518 32.96C776.025 32.96 774.798 33.4267 773.838 34.36C772.905 35.2933 772.438 36.52 772.438 38.04C772.438 39.56 772.905 40.7867 773.838 41.72C774.798 42.6533 776.025 43.12 777.518 43.12ZM803.977 27.44C805.15 27.44 806.337 27.6933 807.537 28.2C808.737 28.7067 809.763 29.6 810.617 30.88C811.47 32.16 811.897 33.88 811.897 36.04V48H806.177V36.04C806.177 34.76 805.817 33.84 805.097 33.28C804.403 32.72 803.563 32.44 802.577 32.44C801.59 32.44 800.763 32.7867 800.097 33.48C799.457 34.1733 799.137 35.28 799.137 36.8V48H793.417V28H799.137V29.36C800.657 28.08 802.27 27.44 803.977 27.44ZM830.923 28H836.603V48H830.923V46.48C830.043 47.1467 829.07 47.6533 828.003 48C826.963 48.3733 825.91 48.56 824.843 48.56C822.763 48.56 820.963 48.1067 819.443 47.2C817.95 46.2933 816.803 45.0533 816.003 43.48C815.203 41.88 814.803 40.0667 814.803 38.04C814.803 36.0133 815.203 34.2 816.003 32.6C816.803 30.9733 817.95 29.7067 819.443 28.8C820.963 27.8933 822.763 27.44 824.843 27.44C825.936 27.44 827.003 27.6267 828.043 28C829.083 28.3733 830.043 28.8933 830.923 29.56V28ZM825.603 43.12C827.096 43.12 828.35 42.64 829.363 41.68C830.376 40.72 830.883 39.48 830.883 37.96C830.883 36.4933 830.376 35.2933 829.363 34.36C828.35 33.4267 827.096 32.96 825.603 32.96C824.11 32.96 822.883 33.4267 821.923 34.36C820.963 35.2933 820.483 36.52 820.483 38.04C820.483 39.56 820.963 40.7867 821.923 41.72C822.883 42.6533 824.11 43.12 825.603 43.12ZM856.001 28H861.721V47C861.721 48.8667 861.228 50.52 860.241 51.96C859.281 53.4 857.948 54.52 856.241 55.32C854.535 56.12 852.615 56.52 850.481 56.52C848.161 56.52 846.028 56.0667 844.081 55.16C842.161 54.28 840.815 53.1333 840.041 51.72L844.921 48.88C845.268 49.5733 845.961 50.1467 847.001 50.6C848.041 51.0533 849.255 51.28 850.641 51.28C852.188 51.28 853.468 50.88 854.481 50.08C855.495 49.28 856.001 48.2533 856.001 47V46.48C855.121 47.1467 854.161 47.6533 853.121 48C852.108 48.3733 851.055 48.56 849.961 48.56C847.881 48.56 846.081 48.1067 844.561 47.2C843.068 46.2933 841.921 45.0533 841.121 43.48C840.321 41.88 839.921 40.0667 839.921 38.04C839.921 36.0133 840.321 34.2 841.121 32.6C841.921 30.9733 843.068 29.7067 844.561 28.8C846.081 27.8933 847.881 27.44 849.961 27.44C851.028 27.44 852.081 27.6267 853.121 28C854.161 28.3467 855.121 28.8533 856.001 29.52V28ZM850.721 43.12C852.215 43.12 853.468 42.64 854.481 41.68C855.495 40.72 856.001 39.48 856.001 37.96C856.001 36.4933 855.495 35.2933 854.481 34.36C853.468 33.4267 852.215 32.96 850.721 32.96C849.228 32.96 848.001 33.4267 847.041 34.36C846.108 35.2933 845.641 36.52 845.641 38.04C845.641 39.56 846.108 40.7867 847.041 41.72C848.001 42.6533 849.228 43.12 850.721 43.12ZM875.318 27.48C877.265 27.48 878.998 27.9467 880.518 28.88C882.065 29.8133 883.265 31.08 884.118 32.68C884.972 34.28 885.398 36.0533 885.398 38C885.398 38.7467 885.345 39.4267 885.238 40.04H870.438C870.945 41.2667 871.625 42.1867 872.478 42.8C873.332 43.3867 874.438 43.68 875.798 43.68C876.625 43.68 877.425 43.5067 878.198 43.16C878.998 42.8133 879.625 42.3467 880.078 41.76L884.398 44.32C883.465 45.68 882.252 46.72 880.758 47.44C879.292 48.16 877.598 48.52 875.678 48.52C873.518 48.52 871.612 48.0667 869.958 47.16C868.305 46.2267 867.025 44.96 866.118 43.36C865.212 41.76 864.758 39.9733 864.758 38C864.758 36.0267 865.198 34.24 866.078 32.64C866.985 31.04 868.238 29.7867 869.838 28.88C871.438 27.9467 873.265 27.48 875.318 27.48ZM880.038 35.6C879.852 34.5867 879.318 33.8 878.438 33.24C877.585 32.68 876.532 32.4 875.278 32.4C873.972 32.4 872.838 32.72 871.878 33.36C870.918 33.9733 870.412 34.72 870.358 35.6H880.038ZM893.498 33.68C893.498 34.1333 893.778 34.48 894.338 34.72C894.898 34.9333 895.791 35.16 897.018 35.4C898.591 35.72 899.898 36.08 900.938 36.48C901.978 36.8533 902.884 37.4933 903.658 38.4C904.458 39.28 904.858 40.5067 904.858 42.08C904.858 43.44 904.444 44.6133 903.618 45.6C902.791 46.56 901.698 47.2933 900.338 47.8C898.978 48.28 897.511 48.52 895.938 48.52C893.778 48.52 891.938 48.1333 890.418 47.36C888.898 46.56 887.751 45.3867 886.978 43.84L891.658 41.44C892.298 43.1467 893.724 44 895.938 44C896.844 44 897.631 43.84 898.298 43.52C898.991 43.1733 899.338 42.6933 899.338 42.08C899.338 41.5467 899.018 41.1467 898.378 40.88C897.764 40.6133 896.778 40.3333 895.418 40.04C893.871 39.6933 892.578 39.3333 891.538 38.96C890.498 38.56 889.604 37.96 888.858 37.16C888.111 36.3333 887.738 35.24 887.738 33.88C887.738 32.5733 888.111 31.44 888.858 30.48C889.604 29.4933 890.604 28.7467 891.858 28.24C893.138 27.7333 894.524 27.48 896.018 27.48C897.778 27.48 899.364 27.84 900.778 28.56C902.191 29.28 903.298 30.32 904.098 31.68L899.458 33.96C899.138 33.2933 898.698 32.8 898.138 32.48C897.604 32.16 896.898 32 896.018 32C895.244 32 894.631 32.16 894.178 32.48C893.724 32.7733 893.498 33.1733 893.498 33.68Z" fill="#EAEAEA"/>
<path d="M47.2799 0.696279C48.8447 2.14924 50.8167 9.04855 51.562 11.3535C52.7262 14.9541 53.7031 17.8834 55.1769 21.3565C56.3528 24.1258 56.8354 28.5849 59.368 30.3786C61.016 31.5467 63.9727 32.0046 64.3929 34.5034C64.8351 37.1349 64.1522 39.8509 62.6576 42.0193C62.0723 42.8687 60.3201 44.3555 60.181 45.2348C59.6606 48.514 62.0306 51.9988 61.5403 55.3288C61.1955 57.6754 59.8844 58.7901 57.5443 57.799C56.8432 57.5024 56.2292 56.5242 55.2822 57.0016C53.9385 58.4389 55.4995 60.3498 53.8657 61.6844C53.0995 62.3113 52.163 62.3426 51.2095 62.0915C49.897 61.7468 49.2961 59.7137 47.6987 60.1937C47.1186 60.368 43.6416 64.5214 42.6725 65.3382C38.9627 68.4679 33.4878 70.8652 28.6268 69.4032C26.4233 68.7411 23.0191 65.9327 21.3034 64.3223C20.3343 63.4131 17.5728 59.9335 16.6362 59.633C14.6174 58.9866 14.5446 61.661 13.7849 62.4987C13.0734 63.2843 11.9079 63.2843 11.0611 62.7653C9.20882 61.6297 9.84489 57.7912 8.97208 57.5258C7.80398 57.1694 6.65019 60.7998 4.36733 59.144C3.07176 58.2035 3.09258 55.7997 3.18884 54.3558C3.41908 50.9244 5.74745 47.2874 3.56996 44.0368C1.61099 41.1113 -0.68617 40.3894 0.193153 36.1255C0.752486 33.412 3.24998 32.616 4.83042 30.8001C6.83101 28.5016 8.24884 24.6682 9.534 21.8846C11.8637 16.835 12.1499 12.0598 14.1804 7.01934C14.6109 5.95141 16.5374 1.68747 17.1474 1.04229C18.0411 0.0979235 19.0127 0.0237792 20.0716 0.739205C21.8302 1.92941 23.9453 8.41507 25.0665 10.5835C25.8327 12.065 26.9228 14.2334 28.7334 14.439C30.2111 14.6068 35.9605 14.6289 37.1807 14.1372C38.8092 13.4816 39.7406 9.67942 40.3936 8.20305C40.8228 7.23397 41.4888 6.38326 41.8934 5.4337C42.4943 4.02106 42.6075 2.22079 43.6039 1.04619C44.6003 -0.128411 46.0936 -0.408078 47.2812 0.693678L47.2799 0.696279ZM18.8189 8.99262C16.9029 9.4674 16.1185 14.7355 16.4307 16.3654C16.7286 17.9237 19.178 16.3875 20.0209 15.8984C21.9135 14.798 22.0045 14.8617 21.453 12.5697C21.2084 11.5564 20.1301 8.66742 18.8189 8.99131V8.99262ZM44.5535 9.41407C43.877 10.0619 42.8898 13.9108 43.172 14.8565C43.6169 16.3459 47.86 18.5312 48.327 16.9403C48.7068 15.6513 47.782 10.7669 46.8519 9.75877C46.3264 9.19033 45.144 8.84823 44.5535 9.41407ZM27.4131 49.3855C27.5276 44.3073 25.1056 34.48 19.6748 32.6303C15.3979 31.1734 12.7443 35.7222 12.3814 39.354C11.8897 44.2696 13.1983 48.7209 16.138 52.6193C19.0648 56.4982 24.3641 63.0268 28.6242 65.1418C34.0458 67.8344 38.9549 64.8439 42.3499 60.5436C47.3436 54.2179 52.8849 47.7609 52.2436 39.1185C51.8443 33.7385 47.2265 28.9075 42.5685 33.9428C39.0356 37.7618 37.5267 44.3242 37.1781 49.3855C37.0207 49.569 34.9823 48.1576 34.5934 48.0067C32.174 47.0637 30.6833 47.6607 28.5656 48.8106C28.1832 49.0187 27.9907 49.5312 27.4145 49.3855H27.4131Z" fill="white"/>
<path d="M27.4136 49.3857C27.9898 49.5314 28.1823 49.0189 28.5648 48.8107C30.6824 47.6608 32.1731 47.0638 34.5925 48.0069C34.9815 48.1577 37.0198 49.5704 37.1772 49.3857C37.5258 44.3244 39.0334 37.762 42.5676 33.9429C47.2257 28.9076 51.8434 33.7387 52.2427 39.1187C52.8853 47.761 47.3427 54.218 42.3491 60.5437C38.954 64.8441 34.0462 67.8346 28.6233 65.142C24.3632 63.0269 19.0639 56.4996 16.1372 52.6194C13.1961 48.721 11.8888 44.2697 12.3805 39.3541C12.7434 35.7223 15.397 31.1735 19.674 32.6304C25.1047 34.4801 27.5267 44.3075 27.4123 49.3857H27.4136ZM21.2531 36.417C19.9692 36.6121 19.5374 39.8965 19.4788 40.958C19.406 42.273 19.5712 47.5958 21.4053 47.6817C22.7906 47.7454 23.268 45.0424 23.35 44.0109C23.4592 42.6217 23.6361 36.0553 21.2531 36.417ZM43.6368 36.4157C43.2362 36.4911 43.0398 36.7291 42.829 37.0491C41.6909 38.7727 41.7169 45.1334 42.8316 46.8908C43.7773 48.3815 44.8049 47.5802 45.3252 46.2469C46.1382 44.1657 46.0927 39.4972 45.1509 37.4641C44.84 36.7929 44.5044 36.2518 43.6368 36.4157Z" fill="black"/>
<path d="M44.553 9.41392C45.1448 8.84808 46.3259 9.19019 46.8515 9.75863C47.7828 10.7667 48.7064 15.6511 48.3265 16.9402C47.8583 18.531 43.6164 16.3457 43.1716 14.8564C42.8893 13.9107 43.8766 10.0617 44.553 9.41392Z" fill="black"/>
<path d="M18.819 8.99217C20.1302 8.66698 21.2086 11.556 21.4531 12.5706C22.0059 14.8626 21.9136 14.7988 20.021 15.8993C19.1781 16.3897 16.7287 17.9246 16.4308 16.3663C16.1186 14.7351 16.903 9.46696 18.819 8.99347V8.99217Z" fill="black"/>
<path d="M43.6357 36.4157C44.5047 36.2505 44.839 36.7916 45.1498 37.4641C46.0929 39.4972 46.1371 44.167 45.3241 46.247C44.8038 47.5803 43.7762 48.3815 42.8306 46.8908C41.7145 45.1335 41.6885 38.7727 42.828 37.0492C43.0387 36.7292 43.2351 36.4925 43.6357 36.4157Z" fill="white"/>
<path d="M21.2527 36.4167C23.6357 36.0551 23.4601 42.6214 23.3495 44.0106C23.2676 45.0422 22.7902 47.7452 21.4048 47.6814C19.5694 47.5969 19.4056 42.2728 19.4784 40.9577C19.5369 39.8976 19.9688 36.6118 21.2527 36.4167Z" fill="white"/>
<path d="M28.429 54.4453L31.08 58.6039C31.4781 58.9447 32.014 59.8318 32.5837 59.7421L36.3625 54.95L36.0581 54.4453H28.4277H28.429Z" fill="white"/>
</svg>
