<svg width="337" height="67" viewBox="0 0 337 67" fill="none" xmlns="http://www.w3.org/2000/svg">
<path d="M3.50342 26.9651C3.50342 14.2625 13.8009 3.96509 26.5034 3.96509H310.503C323.206 3.96509 333.503 14.2625 333.503 26.9651V38.9651C333.503 51.6676 323.206 61.9651 310.503 61.9651H26.5034C13.8009 61.9651 3.50342 51.6676 3.50342 38.9651V26.9651Z" fill="black"/>
<path d="M47.3839 7.68296C53.1871 7.70922 60.3716 7.54063 66.1131 7.64437C66.1936 7.64582 66.2741 7.64728 66.3546 7.64874C68.7011 7.69114 71.0922 7.75237 73.985 7.82639C74.3534 7.83582 74.7311 7.84568 75.1168 7.85552C78.546 7.94294 82.7585 8.04774 88.4988 8.16423C107.774 8.5554 122.971 8.29544 127.698 8.21447C137.179 8.05208 147.293 8.04865 161.093 8.0441C162.355 8.04368 163.648 8.04393 164.974 8.04337C166.048 8.04291 166.938 8.1744 166.962 8.33752C166.986 8.50071 166.136 8.63341 165.061 8.63386C163.763 8.63441 162.497 8.6349 161.264 8.63532C161.259 8.63532 161.253 8.63532 161.247 8.63532C147.361 8.64 137.467 8.64349 128.209 8.80205C123.379 8.88478 107.808 9.15044 88.0578 8.74963C82.2565 8.6319 77.9967 8.52668 74.5467 8.43873C74.169 8.4291 73.8008 8.41949 73.443 8.41033C73.4346 8.41009 73.4261 8.40985 73.4177 8.4096C70.5059 8.33512 68.2156 8.27617 65.9698 8.23559C65.9221 8.23486 65.8744 8.23413 65.8266 8.2334C60.0205 8.12849 52.9731 8.29892 47.3446 8.27345C46.2701 8.26851 45.4071 8.13217 45.418 7.9691C45.4296 7.80613 46.31 7.67821 47.3839 7.68296ZM266.019 60.1862C260.416 60.4025 252.962 60.3786 246.38 60.2823C239.753 60.1853 233.754 60.0108 230.931 59.9037C228.172 59.7989 225.105 59.765 221.447 59.7442C220.608 59.7394 219.738 59.7353 218.838 59.7311C215.865 59.7171 212.558 59.7013 208.927 59.6546C195.591 59.4832 186.896 59.476 180.686 59.4915C179.409 59.4947 178.221 59.4991 177.108 59.5032C177.106 59.5032 177.105 59.5032 177.103 59.5032C172.904 59.5185 169.772 59.5297 166.891 59.4624C161.764 59.3427 157.577 59.2365 152.524 59.0292C145.555 58.7433 135.629 58.7772 129.169 58.9739C128.815 58.9847 128.452 58.9961 128.085 59.0074C123.402 59.1508 117.636 59.3272 108.991 59.4588C101.808 59.5681 95.5472 59.5595 90.0061 59.5287C88.418 59.5199 86.9028 59.5089 85.448 59.4988C81.7762 59.4734 78.4898 59.4506 75.394 59.4639C56.196 59.5464 45.1245 59.4396 38.166 59.2789C32.8143 59.1553 29.8249 58.9963 27.6682 58.8814C27.2527 58.8593 26.8681 58.8386 26.5034 58.8202C26.3228 58.8097 26.1488 58.7976 25.9793 58.7843C21.8314 58.428 18.1079 57.1084 14.5946 54.272C13.8224 53.637 13.0683 52.9176 12.3533 52.1046C9.97112 49.3664 8.85596 46.8642 8.16019 44.8886C7.86083 44.0185 7.64975 43.2315 7.48952 42.482C7.48649 42.4682 7.48347 42.4544 7.48047 42.4405C7.45841 42.3358 7.43763 42.2316 7.41758 42.1278C7.40247 42.0496 7.38719 41.971 7.37311 41.8928C7.36552 41.8624 7.35952 41.835 7.3548 41.8146C7.35107 41.7984 7.34827 41.7858 7.34646 41.7777C7.346 41.7762 7.34553 41.7747 7.34507 41.7732C7.31222 41.626 7.29117 41.4977 7.28683 41.4714C7.27923 41.4255 7.27341 41.3846 7.27032 41.3637C7.25389 41.2534 7.23619 41.1105 7.22546 41.0153C7.19863 40.7723 7.15213 40.347 7.12451 39.6875C7.11223 39.448 7.1032 39.2112 7.09767 38.9651C7.09 38.5628 7.08059 38.1426 7.06984 37.6667C7.06863 37.6152 7.06741 37.5637 7.0662 37.5122C7.04816 36.715 7.02749 35.7819 7.00722 34.6112C6.98878 33.546 7.10507 32.5662 7.26716 32.4234C7.42926 32.2811 7.57557 33.0293 7.59408 34.0944C7.61317 35.1975 7.63282 36.0713 7.65087 36.8691C7.65208 36.9197 7.65329 36.9702 7.65451 37.0208C7.66938 37.679 7.68349 38.3098 7.6938 38.9651C7.69652 39.1079 7.70055 39.2515 7.70594 39.3968C7.71458 39.6307 7.72698 39.8673 7.74226 40.0928C7.77365 40.4967 7.82464 40.9509 7.91306 41.4922C7.93082 41.6005 7.94969 41.7119 7.97044 41.8253C8.10466 42.5588 8.30248 43.3969 8.59983 44.3234C9.3042 46.4707 10.4907 49.1706 13.0681 52.0093C13.746 52.7478 14.4638 53.4105 15.2091 54.0034C18.5657 56.6429 22.3452 57.9698 26.5034 58.2053C26.648 58.2117 26.7928 58.2181 26.938 58.2246C27.6418 58.2564 28.317 58.2926 29.0387 58.331C31.178 58.4447 33.7324 58.5807 38.6799 58.695C45.3087 58.8481 56.1167 58.9555 75.2058 58.8734C78.4553 58.8594 81.9607 58.884 85.6952 58.9098C87.1207 58.9197 88.582 58.9292 90.0734 58.9375C95.5284 58.9678 101.592 58.976 108.527 58.8705C116.98 58.7419 122.589 58.5706 127.251 58.4278C127.412 58.4227 127.573 58.4176 127.734 58.4125C127.934 58.4064 128.133 58.4003 128.329 58.3943C135.213 58.1847 145.774 58.1432 153.473 58.4591C158.304 58.6573 162.312 58.7594 167.411 58.8785C169.919 58.937 172.598 58.9274 176.712 58.9127C177.867 58.9086 179.137 58.9046 180.546 58.9011C186.867 58.8852 195.694 58.8923 209.18 59.0656C212.696 59.1108 215.86 59.1259 218.816 59.1399C219.734 59.1442 220.635 59.1487 221.517 59.1537C225.193 59.1747 228.615 59.2089 231.805 59.3299C234.426 59.4294 240.232 59.5996 246.678 59.694C253.17 59.789 260.063 59.8032 264.988 59.6131C265.501 59.5934 266.017 59.5738 266.533 59.5542C270.976 59.3847 275.507 59.2119 279.154 58.9244C287.282 58.0261 298.688 57.7445 310.503 57.7017C320.555 57.9911 329.066 48.7653 329.383 40.6064C329.402 40.3961 329.418 40.1846 329.431 39.972C329.451 39.6369 329.462 39.3017 329.464 38.9651C329.487 34.7297 329.505 30.7191 329.518 26.9651C329.209 13.1709 317.514 8.71812 314.483 8.32253C314.271 8.27781 314.08 8.24131 313.906 8.21019C313.751 8.18246 313.61 8.15955 313.486 8.14011C312.453 7.97944 311.472 7.91684 310.503 7.92601C309.571 7.93376 308.652 7.94333 307.713 7.95308C307.598 7.9543 307.483 7.95551 307.368 7.95672C305.139 7.97982 302.8 8.00238 300.035 8.00041C289.754 7.99305 281.374 8.01995 274.122 8.04846C272.78 8.05374 271.474 8.05854 270.202 8.06375C270.198 8.06375 270.194 8.06375 270.19 8.06375C264.605 8.08667 259.651 8.10728 254.949 8.10744C246.376 8.10773 240.584 8.14509 236.08 8.18535C234.667 8.19797 233.365 8.21086 232.137 8.22321C229.48 8.2499 227.16 8.27329 224.768 8.28146C220.267 8.2968 216.125 8.33738 212.046 8.37684C211.682 8.38036 211.319 8.38354 210.956 8.38703C206.533 8.42956 202.154 8.46899 197.523 8.47004C196.449 8.47028 195.558 8.33761 195.535 8.17443C195.513 8.01138 196.368 7.87906 197.442 7.87882C201.939 7.8778 206.212 7.83978 210.633 7.79727C210.998 7.79376 211.364 7.7899 211.731 7.78635C215.801 7.74698 220.018 7.7066 224.602 7.69097C226.909 7.6831 229.1 7.66109 231.704 7.6349C232.947 7.62241 234.285 7.60889 235.774 7.59558C240.347 7.55472 246.214 7.51651 254.871 7.51622C259.516 7.51607 264.407 7.49615 269.988 7.47326C271.269 7.46801 272.586 7.46259 273.945 7.45724C281.215 7.42865 289.639 7.40179 299.976 7.40919C302.588 7.41106 304.806 7.38996 307.025 7.36696C307.15 7.36575 307.274 7.36453 307.399 7.36332C308.416 7.35274 309.442 7.34197 310.503 7.33352C311.465 7.32489 312.458 7.386 313.499 7.54388C313.771 7.58534 314.116 7.64356 314.528 7.72859C317.657 8.12115 329.782 12.6899 330.109 26.9651C330.095 30.7199 330.078 34.7304 330.055 38.9651C330.052 39.3304 330.04 39.6932 330.018 40.058C330.014 40.1179 330.01 40.1777 330.006 40.2375C328.365 53.4675 319.081 56.9756 314.294 58.1553C312.953 58.4555 311.684 58.5861 310.503 58.6079C307.552 58.6541 305.109 58.6708 302.983 58.6804C302.389 58.6831 301.826 58.6857 301.29 58.6877C298.972 58.6965 297.141 58.7036 295.311 58.7445C289.774 58.8684 285.803 59.0713 280.999 59.45C276.926 59.7711 271.937 59.961 267.567 60.1272C267.56 60.1274 267.553 60.1277 267.547 60.1279C267.028 60.1476 266.518 60.1669 266.019 60.1862ZM7.73527 20.3648C8.04761 19.4883 8.48684 18.8686 8.62987 18.9443C8.77496 19.0221 8.58134 19.7445 8.28143 20.5917C7.56102 22.6148 7.18672 24.7533 7.17038 26.9164C7.17025 26.9327 7.1701 26.9489 7.16993 26.9651C7.16055 28.0122 7.02673 28.844 6.8667 28.8343C6.70855 28.8237 6.58284 27.9952 6.57976 26.9651C6.57966 26.9371 6.57974 26.9089 6.58 26.8806C6.60013 24.6539 6.98942 22.4487 7.73527 20.3648ZM270.501 63.1255C269.453 63.1586 268.409 63.0552 268.17 62.8954C267.934 62.7358 268.592 62.5797 269.639 62.5467C270.193 62.5292 271.104 62.4976 272.33 62.4549C278.588 62.2371 293.078 61.7327 310.503 61.3662C317.482 61.3007 324.771 57.5243 328.836 51.2204C330.017 49.4142 330.816 47.6378 331.376 45.8911C332.1 43.6078 332.4 41.3517 332.338 38.9651C332.247 35.5187 332.138 31.782 332.069 26.9651C332.018 23.9944 331.411 20.5441 329.524 16.9422C325.939 10.0024 318.345 5.35811 310.503 5.41399C252.768 5.22886 195.072 4.71263 137.418 5.16226C118.366 5.31085 99.3736 5.33308 80.3067 5.32318C64.4146 5.31491 35.2843 5.01199 28.4301 4.98097C27.3552 4.9761 26.4925 4.83974 26.5035 4.67662C26.515 4.51359 27.395 4.38564 28.4694 4.39048C35.2752 4.42127 64.3086 4.72374 80.141 4.73196C99.1712 4.74183 118.125 4.72006 137.14 4.57177C194.844 4.12174 252.693 4.09091 310.503 4.13821C318.838 4.05545 326.935 9.00806 330.72 16.4083C332.701 20.2244 333.27 23.8766 333.241 26.9651C333.189 31.804 333.119 35.5132 333.084 38.9651C333.055 41.2904 332.721 43.4849 332.043 45.7429C331.494 47.5509 330.698 49.3966 329.499 51.2857C325.352 57.9192 317.751 61.9027 310.503 61.9643C293.6 62.3243 279.556 62.8127 273.301 63.0301C272.037 63.0741 271.087 63.107 270.501 63.1255ZM220.52 62.8787C208.522 62.9234 191.466 62.8438 176.561 62.7738C169.292 62.7397 162.534 62.7074 157.124 62.6937C148.742 62.6726 143.465 62.5312 138.232 62.3909C138.176 62.3894 138.119 62.3879 138.063 62.3865C132.834 62.2463 127.6 62.1082 119.087 62.0865C110.504 62.0646 98.627 62.1607 86.6472 62.2576C86.6378 62.2576 86.6285 62.2576 86.6191 62.2576C74.7031 62.354 62.6162 62.7507 53.8817 62.728C43.4057 62.7006 34.3121 62.6347 26.5034 62.5468C10.5059 61.8711 4.82312 49.2902 4.04067 43.7358C3.76533 42.1765 3.6398 40.5759 3.67386 38.9651C3.75562 35.0461 3.78722 31.0293 3.7995 26.9651C3.41564 15.004 14.5957 4.0237 25.9604 4.6496C27.7743 4.83699 24.7149 5.05262 21.5203 5.68994C21.4044 5.71324 21.2888 5.73746 21.1734 5.76261C20.0733 6.00886 19.1192 6.28073 17.8282 6.80618C15.9675 7.59611 14.6863 8.40881 13.5744 9.21153C11.8861 10.1298 4.20441 17.2745 4.41195 26.9651C4.37122 31.2223 4.31972 35.4459 4.25576 38.9651C4.21455 41.0862 4.47472 42.9361 4.77274 44.3464C5.684 49.456 11.4359 61.0304 26.5034 61.4359C34.2764 61.4121 43.3919 61.3934 53.9688 61.421C62.5416 61.4434 74.3864 61.764 86.3664 61.6671C86.3992 61.6669 86.4319 61.6666 86.4647 61.6664C98.3569 61.5702 110.349 61.473 119.076 61.4953C127.897 61.5178 133.369 61.6627 138.667 61.8047C138.719 61.8062 138.77 61.8076 138.822 61.8091C144.006 61.9481 149.04 62.0828 157.113 62.1033C162.642 62.1172 169.478 62.149 176.794 62.1833C191.635 62.2531 208.453 62.3325 220.349 62.2882C221.423 62.2843 222.332 62.4134 222.38 62.5765C222.426 62.7395 221.594 62.8746 220.52 62.8787ZM220.273 66.5592C186.559 67.214 152.657 67.0302 119.413 66.3386C110.736 66.3165 98.6271 66.2706 86.5349 66.2243C86.3982 66.2236 86.2616 66.2229 86.1249 66.2221C74.1636 66.1763 62.2548 66.1308 53.7048 66.1085C43.3163 66.0815 34.279 66.0512 26.5034 66.0104C7.98098 65.3556 1.2447 50.7244 0.382621 44.2159C0.0433106 42.2112 -0.0279233 40.4711 0.00853825 38.9651C0.161992 33.6623 0.162872 31.5044 0.164513 28.5844C0.164756 28.4851 0.164999 28.3859 0.165241 28.2867C0.164756 28.2801 0.164271 28.2736 0.163785 28.267C0.156186 28.1422 0.151842 28.0373 0.149951 27.9834C0.146102 27.8734 0.144671 27.7838 0.144126 27.7503C0.142865 27.6727 0.142777 27.6077 0.14267 27.5846C0.142244 27.49 0.142355 27.3818 0.14267 27.3122C0.143079 27.2217 0.143779 27.1044 0.144747 26.9651C0.13932 25.9795 0.265617 24.0375 0.569129 22.4795C0.921334 20.6242 1.33765 19.3382 1.84671 18.0193C1.89883 17.8863 1.95245 17.7527 2.00689 17.6203C2.49601 16.4456 3.08218 15.1816 4.13517 13.4953C4.78255 12.4681 5.4178 11.8677 5.46051 12.0806C5.50549 12.2958 4.97484 13.2365 4.36849 14.2509C3.31982 16.0074 2.74906 17.3389 2.30069 18.5067C2.25149 18.6365 2.2033 18.7668 2.15613 18.8976C1.7141 20.1441 1.38693 21.2682 1.1002 22.8775C0.83754 24.4561 0.76172 25.7786 0.758011 26.9651C0.757079 27.4741 0.756753 27.955 0.756461 28.4215C0.754629 31.3489 0.753139 33.7148 0.606896 38.9651C0.56694 40.6605 0.665152 42.6489 1.13306 44.953C2.17142 50.9176 8.56942 64.7487 26.5034 65.4197C34.2136 65.4602 43.2379 65.4908 53.6935 65.5181C62.2595 65.5404 74.182 65.5859 86.1333 65.6316C86.2737 65.6321 86.4141 65.6326 86.5546 65.6331C98.6534 65.6794 110.744 65.726 119.401 65.7481C153.145 65.8342 186.19 65.5385 220.099 65.9688C226.339 65.9455 232.042 65.9363 237.326 65.928C252.876 65.9034 264.809 65.8841 276.186 65.5253C278.68 65.4467 285.217 65.3799 294.665 65.2967C297.433 65.2723 300.47 65.2468 303.753 65.2188C305.899 65.2005 308.151 65.1813 310.503 65.1611C317.826 65.1892 326.241 61.6453 331.466 54.35C332.953 52.2858 333.991 50.2351 334.747 48.204C335.854 45.1884 336.373 42.2054 336.36 38.9651C336.332 35.5597 336.312 31.8091 336.303 26.9651C336.295 23.7268 335.709 19.9768 333.886 16.0532C330.649 8.56502 321.473 0.974297 310.503 1.0978C294.86 1.03984 278.294 0.956782 267.537 0.886844C258.859 0.830427 253.961 0.778148 250.495 0.73467C249.53 0.722564 248.682 0.710838 247.903 0.70045C245.869 0.673311 244.289 0.652514 242.219 0.638561C227.31 0.538118 216.873 0.607317 199.773 0.751417C198.701 0.760401 197.767 0.63542 197.686 0.472553C197.606 0.309663 198.409 0.170034 199.481 0.160925C216.606 0.0166137 227.203 -0.0537424 242.314 0.0480695C244.476 0.0626338 246.167 0.085252 248.237 0.112871C249.005 0.123111 249.824 0.134153 250.74 0.145635C254.147 0.188391 258.995 0.240231 267.626 0.296353C278.361 0.366144 294.895 0.448951 310.503 0.506732C321.706 0.380369 331.08 8.12059 334.398 15.7533C336.286 19.7957 336.886 23.6499 336.895 26.9651C336.903 31.8179 336.924 35.5529 336.952 38.9651C336.966 42.1138 336.485 45.0428 335.441 48.0275C334.699 50.1218 333.665 52.2455 332.16 54.3971C326.836 62.0553 318.084 65.7889 310.503 65.7539C308.251 65.7733 306.091 65.7917 304.031 65.8093C300.753 65.8372 297.723 65.8629 294.965 65.8872C285.327 65.9721 279.184 66.0368 277.048 66.1042C265.273 66.4755 252.821 66.4953 237.126 66.5199C231.9 66.5281 226.313 66.5368 220.273 66.5592ZM138.146 0.61963C139.218 0.611304 140.148 0.736996 140.224 0.89995C140.299 1.06287 139.493 1.20176 138.421 1.21012C132.758 1.25428 128.687 1.29072 125.505 1.31934C119.615 1.37231 116.768 1.39813 112.505 1.3936C101.499 1.3819 90.8726 1.376 81.3121 1.37103C65.4204 1.36277 52.4686 1.35618 45.6146 1.32516C44.5399 1.32027 43.6771 1.18391 43.6881 1.02081C43.7 0.857874 44.58 0.729879 45.6539 0.73467C52.4597 0.765469 65.314 0.772326 81.1464 0.780541C90.7181 0.785508 101.38 0.790612 112.454 0.802384C116.589 0.80678 119.277 0.782883 125.036 0.73103C128.215 0.702405 132.332 0.664972 138.146 0.61963Z" fill="white"/>
<path d="M37.2784 27.4651V35.8201H40.0384V37.9651H32.0884V35.8201H35.0284V29.9251L33.5584 30.9001L32.3584 29.1451L35.0284 27.4651H37.2784ZM41.2894 29.5951V27.4651H49.0894V29.0701L45.1144 37.9651H42.6544L46.3894 29.5951H41.2894ZM53.4604 35.2951C53.4604 35.5751 53.5354 35.7701 53.6854 35.8801C53.8454 35.9901 54.0854 36.0451 54.4054 36.0451C54.6054 36.0451 54.8254 36.0301 55.0654 36.0001V37.9651C54.5654 38.0151 54.1504 38.0401 53.8204 38.0401C52.9804 38.0401 52.3504 37.8551 51.9304 37.4851C51.5204 37.1051 51.3154 36.4201 51.3154 35.4301V32.3701H50.0254V30.4651H51.3154V28.7251L53.4604 28.0051V30.4651H55.0354V32.3701H53.4604V35.2951ZM63.254 37.9651H61.109V33.5401C61.109 33.0601 60.974 32.7151 60.704 32.5051C60.434 32.2851 60.114 32.1751 59.744 32.1751C59.434 32.1751 59.164 32.2751 58.934 32.4751C58.704 32.6651 58.559 32.9651 58.499 33.3751V37.9651H56.354V27.4651H58.499V31.0051C59.049 30.5451 59.644 30.3151 60.284 30.3151C60.714 30.3151 61.149 30.4101 61.589 30.6001C62.039 30.7801 62.424 31.1051 62.744 31.5751C63.074 32.0451 63.244 32.6801 63.254 33.4801V37.9651ZM77.0701 27.4801V27.4651H79.3201V37.9651H77.0701V31.6051L74.4001 36.0751H73.8451L71.1601 31.5901V37.9651H68.9101V27.4651H71.1601V27.4801L71.1901 27.4651L74.1151 32.3851L77.0401 27.4651L77.0701 27.4801ZM86.5615 30.4651H88.6915V37.9651H86.5615V37.3951C86.2315 37.6451 85.8665 37.8351 85.4665 37.9651C85.0765 38.1051 84.6815 38.1751 84.2815 38.1751C83.5015 38.1751 82.8265 38.0051 82.2565 37.6651C81.6965 37.3251 81.2665 36.8601 80.9665 36.2701C80.6665 35.6701 80.5165 34.9901 80.5165 34.2301C80.5165 33.4701 80.6665 32.7901 80.9665 32.1901C81.2665 31.5801 81.6965 31.1051 82.2565 30.7651C82.8265 30.4251 83.5015 30.2551 84.2815 30.2551C84.6915 30.2551 85.0915 30.3251 85.4815 30.4651C85.8715 30.6051 86.2315 30.8001 86.5615 31.0501V30.4651ZM84.5665 36.1351C85.1265 36.1351 85.5965 35.9551 85.9765 35.5951C86.3565 35.2351 86.5465 34.7701 86.5465 34.2001C86.5465 33.6501 86.3565 33.2001 85.9765 32.8501C85.5965 32.5001 85.1265 32.3251 84.5665 32.3251C84.0065 32.3251 83.5465 32.5001 83.1865 32.8501C82.8265 33.2001 82.6465 33.6601 82.6465 34.2301C82.6465 34.8001 82.8265 35.2601 83.1865 35.6101C83.5465 35.9601 84.0065 36.1351 84.5665 36.1351ZM95.2388 30.3151L95.0888 32.3401C95.0188 32.3101 94.9038 32.2951 94.7438 32.2951C94.1338 32.2951 93.6338 32.4701 93.2438 32.8201C92.8638 33.1601 92.6738 33.6101 92.6738 34.1701V37.9651H90.5288V30.4651H92.6738V31.6801C92.8538 31.2901 93.1438 30.9651 93.5438 30.7051C93.9438 30.4451 94.4288 30.3151 94.9988 30.3151H95.2388ZM102.89 36.4951C102.52 37.0151 102.05 37.4301 101.48 37.7401C100.92 38.0401 100.315 38.1901 99.6648 38.1901C98.9448 38.1901 98.2798 38.0151 97.6698 37.6651C97.0698 37.3051 96.5898 36.8201 96.2298 36.2101C95.8798 35.6001 95.7048 34.9401 95.7048 34.2301C95.7048 33.5101 95.8798 32.8501 96.2298 32.2501C96.5898 31.6401 97.0698 31.1601 97.6698 30.8101C98.2798 30.4501 98.9448 30.2701 99.6648 30.2701C100.315 30.2701 100.92 30.4201 101.48 30.7201C102.04 31.0201 102.505 31.4251 102.875 31.9351L101.105 33.1051C100.685 32.6351 100.205 32.4001 99.6648 32.4001C99.1648 32.4001 98.7348 32.5801 98.3748 32.9401C98.0148 33.3001 97.8348 33.7301 97.8348 34.2301C97.8348 34.7301 98.0148 35.1601 98.3748 35.5201C98.7348 35.8701 99.1648 36.0451 99.6648 36.0451C100.205 36.0451 100.685 35.8101 101.105 35.3401L102.89 36.4951ZM110.949 37.9651H108.804V33.5401C108.804 33.0601 108.669 32.7151 108.399 32.5051C108.129 32.2851 107.809 32.1751 107.439 32.1751C107.129 32.1751 106.859 32.2751 106.629 32.4751C106.399 32.6651 106.254 32.9651 106.194 33.3751V37.9651H104.049V27.4651H106.194V31.0051C106.744 30.5451 107.339 30.3151 107.979 30.3151C108.409 30.3151 108.844 30.4101 109.284 30.6001C109.734 30.7801 110.119 31.1051 110.439 31.5751C110.769 32.0451 110.939 32.6801 110.949 33.4801V37.9651ZM124.165 35.8201V37.9501H116.2V37.4701C116.27 36.4701 116.555 35.4951 117.055 34.5451C117.555 33.5851 118.35 32.8901 119.44 32.4601L119.935 32.2501C120.615 31.9801 121.125 31.7351 121.465 31.5151C121.805 31.2951 121.975 31.0151 121.975 30.6751C121.975 30.3851 121.89 30.1351 121.72 29.9251C121.55 29.7151 121.34 29.5601 121.09 29.4601C120.84 29.3501 120.59 29.2951 120.34 29.2951C119.75 29.2951 119.255 29.4101 118.855 29.6401C118.455 29.8601 118.215 30.2051 118.135 30.6751L116.02 30.4501C116.11 29.7901 116.36 29.2201 116.77 28.7401C117.19 28.2601 117.71 27.8951 118.33 27.6451C118.96 27.3851 119.63 27.2551 120.34 27.2551C120.98 27.2551 121.59 27.3901 122.17 27.6601C122.76 27.9301 123.235 28.3151 123.595 28.8151C123.955 29.3151 124.135 29.8951 124.135 30.5551C124.135 31.2151 123.975 31.7701 123.655 32.2201C123.335 32.6701 122.905 33.0451 122.365 33.3451C121.835 33.6351 121.145 33.9401 120.295 34.2601C119.655 34.5001 119.18 35.0201 118.87 35.8201H124.165ZM129.271 38.1601C128.391 38.1601 127.621 37.9351 126.961 37.4851C126.301 37.0251 125.791 36.3851 125.431 35.5651C125.071 34.7351 124.891 33.7851 124.891 32.7151C124.891 31.6451 125.071 30.7001 125.431 29.8801C125.791 29.0501 126.301 28.4101 126.961 27.9601C127.621 27.5001 128.391 27.2701 129.271 27.2701C130.151 27.2701 130.921 27.5001 131.581 27.9601C132.241 28.4101 132.746 29.0501 133.096 29.8801C133.456 30.7001 133.636 31.6451 133.636 32.7151C133.636 33.7851 133.456 34.7351 133.096 35.5651C132.746 36.3851 132.241 37.0251 131.581 37.4851C130.921 37.9351 130.151 38.1601 129.271 38.1601ZM129.271 35.9101C129.921 35.9101 130.436 35.6501 130.816 35.1301C131.196 34.6101 131.386 33.8051 131.386 32.7151C131.386 31.6251 131.196 30.8201 130.816 30.3001C130.436 29.7801 129.921 29.5201 129.271 29.5201C128.621 29.5201 128.106 29.7801 127.726 30.3001C127.346 30.8201 127.156 31.6251 127.156 32.7151C127.156 33.8051 127.346 34.6101 127.726 35.1301C128.106 35.6501 128.621 35.9101 129.271 35.9101ZM142.417 35.8201V37.9501H134.452V37.4701C134.522 36.4701 134.807 35.4951 135.307 34.5451C135.807 33.5851 136.602 32.8901 137.692 32.4601L138.187 32.2501C138.867 31.9801 139.377 31.7351 139.717 31.5151C140.057 31.2951 140.227 31.0151 140.227 30.6751C140.227 30.3851 140.142 30.1351 139.972 29.9251C139.802 29.7151 139.592 29.5601 139.342 29.4601C139.092 29.3501 138.842 29.2951 138.592 29.2951C138.002 29.2951 137.507 29.4101 137.107 29.6401C136.707 29.8601 136.467 30.2051 136.387 30.6751L134.272 30.4501C134.362 29.7901 134.612 29.2201 135.022 28.7401C135.442 28.2601 135.962 27.8951 136.582 27.6451C137.212 27.3851 137.882 27.2551 138.592 27.2551C139.232 27.2551 139.842 27.3901 140.422 27.6601C141.012 27.9301 141.487 28.3151 141.847 28.8151C142.207 29.3151 142.387 29.8951 142.387 30.5551C142.387 31.2151 142.227 31.7701 141.907 32.2201C141.587 32.6701 141.157 33.0451 140.617 33.3451C140.087 33.6351 139.397 33.9401 138.547 34.2601C137.907 34.5001 137.432 35.0201 137.122 35.8201H142.417ZM147.613 31.3651C148.813 31.3651 149.758 31.6501 150.448 32.2201C151.148 32.7901 151.498 33.5651 151.498 34.5451C151.498 35.6551 151.148 36.5351 150.448 37.1851C149.758 37.8251 148.813 38.1451 147.613 38.1451C146.373 38.1451 145.383 37.8701 144.643 37.3201C143.913 36.7601 143.538 36.0001 143.518 35.0401L145.648 34.7851C145.708 35.1651 145.913 35.4701 146.263 35.7001C146.623 35.9201 147.073 36.0301 147.613 36.0301C148.173 36.0301 148.608 35.9001 148.918 35.6401C149.238 35.3701 149.398 35.0051 149.398 34.5451C149.398 34.1451 149.238 33.8351 148.918 33.6151C148.608 33.3851 148.173 33.2701 147.613 33.2701H145.693V33.2401L143.983 33.2701L144.703 27.4651H151.093V29.5951H146.578L146.368 31.3651H147.613ZM159.977 35.2351H156.377V33.4351H159.977V35.2351ZM170.037 27.4651V35.8201H172.797V37.9651H164.847V35.8201H167.787V29.9251L166.317 30.9001L165.117 29.1451L167.787 27.4651H170.037ZM174.048 29.5951V27.4651H181.848V29.0701L177.873 37.9651H175.413L179.148 29.5951H174.048ZM186.219 35.2951C186.219 35.5751 186.294 35.7701 186.444 35.8801C186.604 35.9901 186.844 36.0451 187.164 36.0451C187.364 36.0451 187.584 36.0301 187.824 36.0001V37.9651C187.324 38.0151 186.909 38.0401 186.579 38.0401C185.739 38.0401 185.109 37.8551 184.689 37.4851C184.279 37.1051 184.074 36.4201 184.074 35.4301V32.3701H182.784V30.4651H184.074V28.7251L186.219 28.0051V30.4651H187.794V32.3701H186.219V35.2951ZM196.013 37.9651H193.868V33.5401C193.868 33.0601 193.733 32.7151 193.463 32.5051C193.193 32.2851 192.873 32.1751 192.503 32.1751C192.193 32.1751 191.923 32.2751 191.693 32.4751C191.463 32.6651 191.318 32.9651 191.258 33.3751V37.9651H189.113V27.4651H191.258V31.0051C191.808 30.5451 192.403 30.3151 193.043 30.3151C193.473 30.3151 193.908 30.4101 194.348 30.6001C194.798 30.7801 195.183 31.1051 195.503 31.5751C195.833 32.0451 196.003 32.6801 196.013 33.4801V37.9651ZM205.209 38.1601C204.169 38.1601 203.294 37.9301 202.584 37.4701C201.884 37.0101 201.389 36.3851 201.099 35.5951L203.004 34.4851C203.204 34.9851 203.484 35.3551 203.844 35.5951C204.214 35.8351 204.689 35.9551 205.269 35.9551C205.739 35.9551 206.099 35.8451 206.349 35.6251C206.609 35.4051 206.739 35.1601 206.739 34.8901C206.739 34.6901 206.679 34.5201 206.559 34.3801C206.439 34.2401 206.234 34.1101 205.944 33.9901C205.654 33.8601 205.234 33.7151 204.684 33.5551C203.724 33.2751 202.959 32.8951 202.389 32.4151C201.819 31.9351 201.534 31.2501 201.534 30.3601C201.534 29.7301 201.689 29.1851 201.999 28.7251C202.319 28.2551 202.739 27.8951 203.259 27.6451C203.789 27.3951 204.359 27.2701 204.969 27.2701C205.819 27.2701 206.564 27.4751 207.204 27.8851C207.844 28.2851 208.344 28.8551 208.704 29.5951L206.754 30.7051C206.564 30.2851 206.324 29.9801 206.034 29.7901C205.744 29.5901 205.389 29.4901 204.969 29.4901C204.649 29.4901 204.374 29.5801 204.144 29.7601C203.914 29.9301 203.799 30.1301 203.799 30.3601C203.799 30.5501 203.844 30.7151 203.934 30.8551C204.034 30.9851 204.209 31.1101 204.459 31.2301C204.719 31.3501 205.099 31.4851 205.599 31.6351C206.269 31.8451 206.844 32.0801 207.324 32.3401C207.814 32.5901 208.214 32.9351 208.524 33.3751C208.844 33.8151 209.004 34.3651 209.004 35.0251C209.004 35.6551 208.839 36.2101 208.509 36.6901C208.179 37.1601 207.724 37.5251 207.144 37.7851C206.574 38.0351 205.929 38.1601 205.209 38.1601ZM213.571 30.2701C214.301 30.2701 214.951 30.4451 215.521 30.7951C216.101 31.1451 216.551 31.6201 216.871 32.2201C217.191 32.8201 217.351 33.4851 217.351 34.2151C217.351 34.4951 217.331 34.7501 217.291 34.9801H211.741C211.931 35.4401 212.186 35.7851 212.506 36.0151C212.826 36.2351 213.241 36.3451 213.751 36.3451C214.061 36.3451 214.361 36.2801 214.651 36.1501C214.951 36.0201 215.186 35.8451 215.356 35.6251L216.976 36.5851C216.626 37.0951 216.171 37.4851 215.611 37.7551C215.061 38.0251 214.426 38.1601 213.706 38.1601C212.896 38.1601 212.181 37.9901 211.561 37.6501C210.941 37.3001 210.461 36.8251 210.121 36.2251C209.781 35.6251 209.611 34.9551 209.611 34.2151C209.611 33.4751 209.776 32.8051 210.106 32.2051C210.446 31.6051 210.916 31.1351 211.516 30.7951C212.116 30.4451 212.801 30.2701 213.571 30.2701ZM215.341 33.3151C215.271 32.9351 215.071 32.6401 214.741 32.4301C214.421 32.2201 214.026 32.1151 213.556 32.1151C213.066 32.1151 212.641 32.2351 212.281 32.4751C211.921 32.7051 211.731 32.9851 211.711 33.3151H215.341ZM223.171 30.2701C223.951 30.2701 224.621 30.4401 225.181 30.7801C225.751 31.1201 226.186 31.5901 226.486 32.1901C226.786 32.7801 226.936 33.4551 226.936 34.2151C226.936 34.9751 226.786 35.6551 226.486 36.2551C226.186 36.8551 225.751 37.3301 225.181 37.6801C224.621 38.0201 223.951 38.1901 223.171 38.1901C222.771 38.1901 222.376 38.1201 221.986 37.9801C221.596 37.8501 221.236 37.6601 220.906 37.4101V40.9651H218.761V30.4651H220.906V31.0501C221.236 30.8001 221.591 30.6101 221.971 30.4801C222.361 30.3401 222.761 30.2701 223.171 30.2701ZM222.886 36.1051C223.446 36.1051 223.901 35.9351 224.251 35.5951C224.611 35.2451 224.791 34.7851 224.791 34.2151C224.791 33.6451 224.611 33.1851 224.251 32.8351C223.901 32.4851 223.446 32.3101 222.886 32.3101C222.326 32.3101 221.856 32.4901 221.476 32.8501C221.096 33.2101 220.906 33.6701 220.906 34.2301C220.906 34.7901 221.091 35.2451 221.461 35.5951C221.841 35.9351 222.316 36.1051 222.886 36.1051ZM230.868 35.2951C230.868 35.5751 230.943 35.7701 231.093 35.8801C231.253 35.9901 231.493 36.0451 231.813 36.0451C232.013 36.0451 232.233 36.0301 232.473 36.0001V37.9651C231.973 38.0151 231.558 38.0401 231.228 38.0401C230.388 38.0401 229.758 37.8551 229.338 37.4851C228.928 37.1051 228.723 36.4201 228.723 35.4301V32.3701H227.433V30.4651H228.723V28.7251L230.868 28.0051V30.4651H232.443V32.3701H230.868V35.2951ZM237.228 30.2701C237.958 30.2701 238.608 30.4451 239.178 30.7951C239.758 31.1451 240.208 31.6201 240.528 32.2201C240.848 32.8201 241.008 33.4851 241.008 34.2151C241.008 34.4951 240.988 34.7501 240.948 34.9801H235.398C235.588 35.4401 235.843 35.7851 236.163 36.0151C236.483 36.2351 236.898 36.3451 237.408 36.3451C237.718 36.3451 238.018 36.2801 238.308 36.1501C238.608 36.0201 238.843 35.8451 239.013 35.6251L240.633 36.5851C240.283 37.0951 239.828 37.4851 239.268 37.7551C238.718 38.0251 238.083 38.1601 237.363 38.1601C236.553 38.1601 235.838 37.9901 235.218 37.6501C234.598 37.3001 234.118 36.8251 233.778 36.2251C233.438 35.6251 233.268 34.9551 233.268 34.2151C233.268 33.4751 233.433 32.8051 233.763 32.2051C234.103 31.6051 234.573 31.1351 235.173 30.7951C235.773 30.4451 236.458 30.2701 237.228 30.2701ZM238.998 33.3151C238.928 32.9351 238.728 32.6401 238.398 32.4301C238.078 32.2201 237.683 32.1151 237.213 32.1151C236.723 32.1151 236.298 32.2351 235.938 32.4751C235.578 32.7051 235.388 32.9851 235.368 33.3151H238.998ZM250.795 30.2551C251.235 30.2551 251.68 30.3501 252.13 30.5401C252.58 30.7301 252.965 31.0651 253.285 31.5451C253.605 32.0251 253.765 32.6701 253.765 33.4801V37.9651H251.635V33.4801C251.635 33.0001 251.5 32.6551 251.23 32.4451C250.96 32.2351 250.64 32.1301 250.27 32.1301C249.96 32.1301 249.69 32.2251 249.46 32.4151C249.24 32.5951 249.095 32.8801 249.025 33.2701V33.4801V37.9651H246.88V33.4801C246.88 33.0001 246.745 32.6551 246.475 32.4451C246.205 32.2351 245.885 32.1301 245.515 32.1301C245.205 32.1301 244.935 32.2251 244.705 32.4151C244.475 32.6051 244.33 32.9101 244.27 33.3301V37.9651H242.125V30.4651H244.27V30.9451C244.82 30.4851 245.415 30.2551 246.055 30.2551C246.495 30.2551 246.94 30.3501 247.39 30.5401C247.85 30.7301 248.225 31.0451 248.515 31.4851C248.775 31.1351 249.105 30.8451 249.505 30.6151C249.905 30.3751 250.335 30.2551 250.795 30.2551ZM260.061 30.2551C260.841 30.2551 261.511 30.4251 262.071 30.7651C262.641 31.1051 263.076 31.5801 263.376 32.1901C263.676 32.7901 263.826 33.4701 263.826 34.2301C263.826 34.9901 263.676 35.6701 263.376 36.2701C263.076 36.8601 262.641 37.3251 262.071 37.6651C261.511 38.0051 260.841 38.1751 260.061 38.1751C259.611 38.1751 259.176 38.0951 258.756 37.9351C258.336 37.7751 257.951 37.5451 257.601 37.2451V37.9651H255.456V27.4651H257.601V31.2001C257.951 30.9001 258.336 30.6701 258.756 30.5101C259.176 30.3401 259.611 30.2551 260.061 30.2551ZM259.776 36.1351C260.336 36.1351 260.791 35.9601 261.141 35.6101C261.501 35.2601 261.681 34.8001 261.681 34.2301C261.681 33.6601 261.501 33.2001 261.141 32.8501C260.791 32.5001 260.336 32.3251 259.776 32.3251C259.216 32.3251 258.746 32.5001 258.366 32.8501C257.986 33.2001 257.796 33.6501 257.796 34.2001C257.796 34.7701 257.986 35.2351 258.366 35.5951C258.746 35.9551 259.216 36.1351 259.776 36.1351ZM268.635 30.2701C269.365 30.2701 270.015 30.4451 270.585 30.7951C271.165 31.1451 271.615 31.6201 271.935 32.2201C272.255 32.8201 272.415 33.4851 272.415 34.2151C272.415 34.4951 272.395 34.7501 272.355 34.9801H266.805C266.995 35.4401 267.25 35.7851 267.57 36.0151C267.89 36.2351 268.305 36.3451 268.815 36.3451C269.125 36.3451 269.425 36.2801 269.715 36.1501C270.015 36.0201 270.25 35.8451 270.42 35.6251L272.04 36.5851C271.69 37.0951 271.235 37.4851 270.675 37.7551C270.125 38.0251 269.49 38.1601 268.77 38.1601C267.96 38.1601 267.245 37.9901 266.625 37.6501C266.005 37.3001 265.525 36.8251 265.185 36.2251C264.845 35.6251 264.675 34.9551 264.675 34.2151C264.675 33.4751 264.84 32.8051 265.17 32.2051C265.51 31.6051 265.98 31.1351 266.58 30.7951C267.18 30.4451 267.865 30.2701 268.635 30.2701ZM270.405 33.3151C270.335 32.9351 270.135 32.6401 269.805 32.4301C269.485 32.2201 269.09 32.1151 268.62 32.1151C268.13 32.1151 267.705 32.2351 267.345 32.4751C266.985 32.7051 266.795 32.9851 266.775 33.3151H270.405ZM278.242 30.3151L278.092 32.3401C278.022 32.3101 277.907 32.2951 277.747 32.2951C277.137 32.2951 276.637 32.4701 276.247 32.8201C275.867 33.1601 275.677 33.6101 275.677 34.1701V37.9651H273.532V30.4651H275.677V31.6801C275.857 31.2901 276.147 30.9651 276.547 30.7051C276.947 30.4451 277.432 30.3151 278.002 30.3151H278.242ZM290.909 35.8201V37.9501H282.944V37.4701C283.014 36.4701 283.299 35.4951 283.799 34.5451C284.299 33.5851 285.094 32.8901 286.184 32.4601L286.679 32.2501C287.359 31.9801 287.869 31.7351 288.209 31.5151C288.549 31.2951 288.719 31.0151 288.719 30.6751C288.719 30.3851 288.634 30.1351 288.464 29.9251C288.294 29.7151 288.084 29.5601 287.834 29.4601C287.584 29.3501 287.334 29.2951 287.084 29.2951C286.494 29.2951 285.999 29.4101 285.599 29.6401C285.199 29.8601 284.959 30.2051 284.879 30.6751L282.764 30.4501C282.854 29.7901 283.104 29.2201 283.514 28.7401C283.934 28.2601 284.454 27.8951 285.074 27.6451C285.704 27.3851 286.374 27.2551 287.084 27.2551C287.724 27.2551 288.334 27.3901 288.914 27.6601C289.504 27.9301 289.979 28.3151 290.339 28.8151C290.699 29.3151 290.879 29.8951 290.879 30.5551C290.879 31.2151 290.719 31.7701 290.399 32.2201C290.079 32.6701 289.649 33.0451 289.109 33.3451C288.579 33.6351 287.889 33.9401 287.039 34.2601C286.399 34.5001 285.924 35.0201 285.614 35.8201H290.909ZM296.015 38.1601C295.135 38.1601 294.365 37.9351 293.705 37.4851C293.045 37.0251 292.535 36.3851 292.175 35.5651C291.815 34.7351 291.635 33.7851 291.635 32.7151C291.635 31.6451 291.815 30.7001 292.175 29.8801C292.535 29.0501 293.045 28.4101 293.705 27.9601C294.365 27.5001 295.135 27.2701 296.015 27.2701C296.895 27.2701 297.665 27.5001 298.325 27.9601C298.985 28.4101 299.49 29.0501 299.84 29.8801C300.2 30.7001 300.38 31.6451 300.38 32.7151C300.38 33.7851 300.2 34.7351 299.84 35.5651C299.49 36.3851 298.985 37.0251 298.325 37.4851C297.665 37.9351 296.895 38.1601 296.015 38.1601ZM296.015 35.9101C296.665 35.9101 297.18 35.6501 297.56 35.1301C297.94 34.6101 298.13 33.8051 298.13 32.7151C298.13 31.6251 297.94 30.8201 297.56 30.3001C297.18 29.7801 296.665 29.5201 296.015 29.5201C295.365 29.5201 294.85 29.7801 294.47 30.3001C294.09 30.8201 293.9 31.6251 293.9 32.7151C293.9 33.8051 294.09 34.6101 294.47 35.1301C294.85 35.6501 295.365 35.9101 296.015 35.9101ZM309.161 35.8201V37.9501H301.196V37.4701C301.266 36.4701 301.551 35.4951 302.051 34.5451C302.551 33.5851 303.346 32.8901 304.436 32.4601L304.931 32.2501C305.611 31.9801 306.121 31.7351 306.461 31.5151C306.801 31.2951 306.971 31.0151 306.971 30.6751C306.971 30.3851 306.886 30.1351 306.716 29.9251C306.546 29.7151 306.336 29.5601 306.086 29.4601C305.836 29.3501 305.586 29.2951 305.336 29.2951C304.746 29.2951 304.251 29.4101 303.851 29.6401C303.451 29.8601 303.211 30.2051 303.131 30.6751L301.016 30.4501C301.106 29.7901 301.356 29.2201 301.766 28.7401C302.186 28.2601 302.706 27.8951 303.326 27.6451C303.956 27.3851 304.626 27.2551 305.336 27.2551C305.976 27.2551 306.586 27.3901 307.166 27.6601C307.756 27.9301 308.231 28.3151 308.591 28.8151C308.951 29.3151 309.131 29.8951 309.131 30.5551C309.131 31.2151 308.971 31.7701 308.651 32.2201C308.331 32.6701 307.901 33.0451 307.361 33.3451C306.831 33.6351 306.141 33.9401 305.291 34.2601C304.651 34.5001 304.176 35.0201 303.866 35.8201H309.161ZM314.357 31.3651C315.557 31.3651 316.502 31.6501 317.192 32.2201C317.892 32.7901 318.242 33.5651 318.242 34.5451C318.242 35.6551 317.892 36.5351 317.192 37.1851C316.502 37.8251 315.557 38.1451 314.357 38.1451C313.117 38.1451 312.127 37.8701 311.387 37.3201C310.657 36.7601 310.282 36.0001 310.262 35.0401L312.392 34.7851C312.452 35.1651 312.657 35.4701 313.007 35.7001C313.367 35.9201 313.817 36.0301 314.357 36.0301C314.917 36.0301 315.352 35.9001 315.662 35.6401C315.982 35.3701 316.142 35.0051 316.142 34.5451C316.142 34.1451 315.982 33.8351 315.662 33.6151C315.352 33.3851 314.917 33.2701 314.357 33.2701H312.437V33.2401L310.727 33.2701L311.447 27.4651H317.837V29.5951H313.322L313.112 31.3651H314.357Z" fill="white"/>
</svg>
