<svg width="330" height="58" viewBox="0 0 330 58" fill="none" xmlns="http://www.w3.org/2000/svg">
<rect width="330" height="58" rx="23" fill="white"/>
<path d="M33.775 23.5V31.855H36.535V34H28.585V31.855H31.525V25.96L30.055 26.935L28.855 25.18L31.525 23.5H33.775ZM37.786 25.63V23.5H45.586V25.105L41.611 34H39.151L42.886 25.63H37.786ZM49.957 31.33C49.957 31.61 50.032 31.805 50.182 31.915C50.342 32.025 50.582 32.08 50.902 32.08C51.102 32.08 51.322 32.065 51.562 32.035V34C51.062 34.05 50.647 34.075 50.317 34.075C49.477 34.075 48.847 33.89 48.427 33.52C48.017 33.14 47.812 32.455 47.812 31.465V28.405H46.522V26.5H47.812V24.76L49.957 24.04V26.5H51.532V28.405H49.957V31.33ZM59.7505 34H57.6055V29.575C57.6055 29.095 57.4705 28.75 57.2005 28.54C56.9305 28.32 56.6105 28.21 56.2405 28.21C55.9305 28.21 55.6605 28.31 55.4305 28.51C55.2005 28.7 55.0555 29 54.9955 29.41V34H52.8505V23.5H54.9955V27.04C55.5455 26.58 56.1405 26.35 56.7805 26.35C57.2105 26.35 57.6455 26.445 58.0855 26.635C58.5355 26.815 58.9205 27.14 59.2405 27.61C59.5705 28.08 59.7405 28.715 59.7505 29.515V34ZM73.5667 23.515V23.5H75.8167V34H73.5667V27.64L70.8967 32.11H70.3417L67.6567 27.625V34H65.4067V23.5H67.6567V23.515L67.6867 23.5L70.6117 28.42L73.5367 23.5L73.5667 23.515ZM83.0581 26.5H85.1881V34H83.0581V33.43C82.7281 33.68 82.3631 33.87 81.9631 34C81.5731 34.14 81.1781 34.21 80.7781 34.21C79.9981 34.21 79.3231 34.04 78.7531 33.7C78.1931 33.36 77.7631 32.895 77.4631 32.305C77.1631 31.705 77.0131 31.025 77.0131 30.265C77.0131 29.505 77.1631 28.825 77.4631 28.225C77.7631 27.615 78.1931 27.14 78.7531 26.8C79.3231 26.46 79.9981 26.29 80.7781 26.29C81.1881 26.29 81.5881 26.36 81.9781 26.5C82.3681 26.64 82.7281 26.835 83.0581 27.085V26.5ZM81.0631 32.17C81.6231 32.17 82.0931 31.99 82.4731 31.63C82.8531 31.27 83.0431 30.805 83.0431 30.235C83.0431 29.685 82.8531 29.235 82.4731 28.885C82.0931 28.535 81.6231 28.36 81.0631 28.36C80.5031 28.36 80.0431 28.535 79.6831 28.885C79.3231 29.235 79.1431 29.695 79.1431 30.265C79.1431 30.835 79.3231 31.295 79.6831 31.645C80.0431 31.995 80.5031 32.17 81.0631 32.17ZM91.7354 26.35L91.5854 28.375C91.5154 28.345 91.4004 28.33 91.2404 28.33C90.6304 28.33 90.1304 28.505 89.7404 28.855C89.3604 29.195 89.1704 29.645 89.1704 30.205V34H87.0254V26.5H89.1704V27.715C89.3504 27.325 89.6404 27 90.0404 26.74C90.4404 26.48 90.9254 26.35 91.4954 26.35H91.7354ZM99.3864 32.53C99.0164 33.05 98.5464 33.465 97.9764 33.775C97.4164 34.075 96.8114 34.225 96.1614 34.225C95.4414 34.225 94.7764 34.05 94.1664 33.7C93.5664 33.34 93.0864 32.855 92.7264 32.245C92.3764 31.635 92.2014 30.975 92.2014 30.265C92.2014 29.545 92.3764 28.885 92.7264 28.285C93.0864 27.675 93.5664 27.195 94.1664 26.845C94.7764 26.485 95.4414 26.305 96.1614 26.305C96.8114 26.305 97.4164 26.455 97.9764 26.755C98.5364 27.055 99.0014 27.46 99.3714 27.97L97.6014 29.14C97.1814 28.67 96.7014 28.435 96.1614 28.435C95.6614 28.435 95.2314 28.615 94.8714 28.975C94.5114 29.335 94.3314 29.765 94.3314 30.265C94.3314 30.765 94.5114 31.195 94.8714 31.555C95.2314 31.905 95.6614 32.08 96.1614 32.08C96.7014 32.08 97.1814 31.845 97.6014 31.375L99.3864 32.53ZM107.446 34H105.301V29.575C105.301 29.095 105.166 28.75 104.896 28.54C104.626 28.32 104.306 28.21 103.936 28.21C103.626 28.21 103.356 28.31 103.126 28.51C102.896 28.7 102.751 29 102.691 29.41V34H100.546V23.5H102.691V27.04C103.241 26.58 103.836 26.35 104.476 26.35C104.906 26.35 105.341 26.445 105.781 26.635C106.231 26.815 106.616 27.14 106.936 27.61C107.266 28.08 107.436 28.715 107.446 29.515V34ZM120.662 31.855V33.985H112.697V33.505C112.767 32.505 113.052 31.53 113.552 30.58C114.052 29.62 114.847 28.925 115.937 28.495L116.432 28.285C117.112 28.015 117.622 27.77 117.962 27.55C118.302 27.33 118.472 27.05 118.472 26.71C118.472 26.42 118.387 26.17 118.217 25.96C118.047 25.75 117.837 25.595 117.587 25.495C117.337 25.385 117.087 25.33 116.837 25.33C116.247 25.33 115.752 25.445 115.352 25.675C114.952 25.895 114.712 26.24 114.632 26.71L112.517 26.485C112.607 25.825 112.857 25.255 113.267 24.775C113.687 24.295 114.207 23.93 114.827 23.68C115.457 23.42 116.127 23.29 116.837 23.29C117.477 23.29 118.087 23.425 118.667 23.695C119.257 23.965 119.732 24.35 120.092 24.85C120.452 25.35 120.632 25.93 120.632 26.59C120.632 27.25 120.472 27.805 120.152 28.255C119.832 28.705 119.402 29.08 118.862 29.38C118.332 29.67 117.642 29.975 116.792 30.295C116.152 30.535 115.677 31.055 115.367 31.855H120.662ZM125.768 34.195C124.888 34.195 124.118 33.97 123.458 33.52C122.798 33.06 122.288 32.42 121.928 31.6C121.568 30.77 121.388 29.82 121.388 28.75C121.388 27.68 121.568 26.735 121.928 25.915C122.288 25.085 122.798 24.445 123.458 23.995C124.118 23.535 124.888 23.305 125.768 23.305C126.648 23.305 127.418 23.535 128.078 23.995C128.738 24.445 129.243 25.085 129.593 25.915C129.953 26.735 130.133 27.68 130.133 28.75C130.133 29.82 129.953 30.77 129.593 31.6C129.243 32.42 128.738 33.06 128.078 33.52C127.418 33.97 126.648 34.195 125.768 34.195ZM125.768 31.945C126.418 31.945 126.933 31.685 127.313 31.165C127.693 30.645 127.883 29.84 127.883 28.75C127.883 27.66 127.693 26.855 127.313 26.335C126.933 25.815 126.418 25.555 125.768 25.555C125.118 25.555 124.603 25.815 124.223 26.335C123.843 26.855 123.653 27.66 123.653 28.75C123.653 29.84 123.843 30.645 124.223 31.165C124.603 31.685 125.118 31.945 125.768 31.945ZM138.914 31.855V33.985H130.949V33.505C131.019 32.505 131.304 31.53 131.804 30.58C132.304 29.62 133.099 28.925 134.189 28.495L134.684 28.285C135.364 28.015 135.874 27.77 136.214 27.55C136.554 27.33 136.724 27.05 136.724 26.71C136.724 26.42 136.639 26.17 136.469 25.96C136.299 25.75 136.089 25.595 135.839 25.495C135.589 25.385 135.339 25.33 135.089 25.33C134.499 25.33 134.004 25.445 133.604 25.675C133.204 25.895 132.964 26.24 132.884 26.71L130.769 26.485C130.859 25.825 131.109 25.255 131.519 24.775C131.939 24.295 132.459 23.93 133.079 23.68C133.709 23.42 134.379 23.29 135.089 23.29C135.729 23.29 136.339 23.425 136.919 23.695C137.509 23.965 137.984 24.35 138.344 24.85C138.704 25.35 138.884 25.93 138.884 26.59C138.884 27.25 138.724 27.805 138.404 28.255C138.084 28.705 137.654 29.08 137.114 29.38C136.584 29.67 135.894 29.975 135.044 30.295C134.404 30.535 133.929 31.055 133.619 31.855H138.914ZM144.11 27.4C145.31 27.4 146.255 27.685 146.945 28.255C147.645 28.825 147.995 29.6 147.995 30.58C147.995 31.69 147.645 32.57 146.945 33.22C146.255 33.86 145.31 34.18 144.11 34.18C142.87 34.18 141.88 33.905 141.14 33.355C140.41 32.795 140.035 32.035 140.015 31.075L142.145 30.82C142.205 31.2 142.41 31.505 142.76 31.735C143.12 31.955 143.57 32.065 144.11 32.065C144.67 32.065 145.105 31.935 145.415 31.675C145.735 31.405 145.895 31.04 145.895 30.58C145.895 30.18 145.735 29.87 145.415 29.65C145.105 29.42 144.67 29.305 144.11 29.305H142.19V29.275L140.48 29.305L141.2 23.5H147.59V25.63H143.075L142.865 27.4H144.11ZM156.474 31.27H152.874V29.47H156.474V31.27ZM166.534 23.5V31.855H169.294V34H161.344V31.855H164.284V25.96L162.814 26.935L161.614 25.18L164.284 23.5H166.534ZM170.545 25.63V23.5H178.345V25.105L174.37 34H171.91L175.645 25.63H170.545ZM182.716 31.33C182.716 31.61 182.791 31.805 182.941 31.915C183.101 32.025 183.341 32.08 183.661 32.08C183.861 32.08 184.081 32.065 184.321 32.035V34C183.821 34.05 183.406 34.075 183.076 34.075C182.236 34.075 181.606 33.89 181.186 33.52C180.776 33.14 180.571 32.455 180.571 31.465V28.405H179.281V26.5H180.571V24.76L182.716 24.04V26.5H184.291V28.405H182.716V31.33ZM192.509 34H190.364V29.575C190.364 29.095 190.229 28.75 189.959 28.54C189.689 28.32 189.369 28.21 188.999 28.21C188.689 28.21 188.419 28.31 188.189 28.51C187.959 28.7 187.814 29 187.754 29.41V34H185.609V23.5H187.754V27.04C188.304 26.58 188.899 26.35 189.539 26.35C189.969 26.35 190.404 26.445 190.844 26.635C191.294 26.815 191.679 27.14 191.999 27.61C192.329 28.08 192.499 28.715 192.509 29.515V34ZM201.706 34.195C200.666 34.195 199.791 33.965 199.081 33.505C198.381 33.045 197.886 32.42 197.596 31.63L199.501 30.52C199.701 31.02 199.981 31.39 200.341 31.63C200.711 31.87 201.186 31.99 201.766 31.99C202.236 31.99 202.596 31.88 202.846 31.66C203.106 31.44 203.236 31.195 203.236 30.925C203.236 30.725 203.176 30.555 203.056 30.415C202.936 30.275 202.731 30.145 202.441 30.025C202.151 29.895 201.731 29.75 201.181 29.59C200.221 29.31 199.456 28.93 198.886 28.45C198.316 27.97 198.031 27.285 198.031 26.395C198.031 25.765 198.186 25.22 198.496 24.76C198.816 24.29 199.236 23.93 199.756 23.68C200.286 23.43 200.856 23.305 201.466 23.305C202.316 23.305 203.061 23.51 203.701 23.92C204.341 24.32 204.841 24.89 205.201 25.63L203.251 26.74C203.061 26.32 202.821 26.015 202.531 25.825C202.241 25.625 201.886 25.525 201.466 25.525C201.146 25.525 200.871 25.615 200.641 25.795C200.411 25.965 200.296 26.165 200.296 26.395C200.296 26.585 200.341 26.75 200.431 26.89C200.531 27.02 200.706 27.145 200.956 27.265C201.216 27.385 201.596 27.52 202.096 27.67C202.766 27.88 203.341 28.115 203.821 28.375C204.311 28.625 204.711 28.97 205.021 29.41C205.341 29.85 205.501 30.4 205.501 31.06C205.501 31.69 205.336 32.245 205.006 32.725C204.676 33.195 204.221 33.56 203.641 33.82C203.071 34.07 202.426 34.195 201.706 34.195ZM210.068 26.305C210.798 26.305 211.448 26.48 212.018 26.83C212.598 27.18 213.048 27.655 213.368 28.255C213.688 28.855 213.848 29.52 213.848 30.25C213.848 30.53 213.828 30.785 213.788 31.015H208.238C208.428 31.475 208.683 31.82 209.003 32.05C209.323 32.27 209.738 32.38 210.248 32.38C210.558 32.38 210.858 32.315 211.148 32.185C211.448 32.055 211.683 31.88 211.853 31.66L213.473 32.62C213.123 33.13 212.668 33.52 212.108 33.79C211.558 34.06 210.923 34.195 210.203 34.195C209.393 34.195 208.678 34.025 208.058 33.685C207.438 33.335 206.958 32.86 206.618 32.26C206.278 31.66 206.108 30.99 206.108 30.25C206.108 29.51 206.273 28.84 206.603 28.24C206.943 27.64 207.413 27.17 208.013 26.83C208.613 26.48 209.298 26.305 210.068 26.305ZM211.838 29.35C211.768 28.97 211.568 28.675 211.238 28.465C210.918 28.255 210.523 28.15 210.053 28.15C209.563 28.15 209.138 28.27 208.778 28.51C208.418 28.74 208.228 29.02 208.208 29.35H211.838ZM219.668 26.305C220.448 26.305 221.118 26.475 221.678 26.815C222.248 27.155 222.683 27.625 222.983 28.225C223.283 28.815 223.433 29.49 223.433 30.25C223.433 31.01 223.283 31.69 222.983 32.29C222.683 32.89 222.248 33.365 221.678 33.715C221.118 34.055 220.448 34.225 219.668 34.225C219.268 34.225 218.873 34.155 218.483 34.015C218.093 33.885 217.733 33.695 217.403 33.445V37H215.258V26.5H217.403V27.085C217.733 26.835 218.088 26.645 218.468 26.515C218.858 26.375 219.258 26.305 219.668 26.305ZM219.383 32.14C219.943 32.14 220.398 31.97 220.748 31.63C221.108 31.28 221.288 30.82 221.288 30.25C221.288 29.68 221.108 29.22 220.748 28.87C220.398 28.52 219.943 28.345 219.383 28.345C218.823 28.345 218.353 28.525 217.973 28.885C217.593 29.245 217.403 29.705 217.403 30.265C217.403 30.825 217.588 31.28 217.958 31.63C218.338 31.97 218.813 32.14 219.383 32.14ZM227.364 31.33C227.364 31.61 227.439 31.805 227.589 31.915C227.749 32.025 227.989 32.08 228.309 32.08C228.509 32.08 228.729 32.065 228.969 32.035V34C228.469 34.05 228.054 34.075 227.724 34.075C226.884 34.075 226.254 33.89 225.834 33.52C225.424 33.14 225.219 32.455 225.219 31.465V28.405H223.929V26.5H225.219V24.76L227.364 24.04V26.5H228.939V28.405H227.364V31.33ZM233.725 26.305C234.455 26.305 235.105 26.48 235.675 26.83C236.255 27.18 236.705 27.655 237.025 28.255C237.345 28.855 237.505 29.52 237.505 30.25C237.505 30.53 237.485 30.785 237.445 31.015H231.895C232.085 31.475 232.34 31.82 232.66 32.05C232.98 32.27 233.395 32.38 233.905 32.38C234.215 32.38 234.515 32.315 234.805 32.185C235.105 32.055 235.34 31.88 235.51 31.66L237.13 32.62C236.78 33.13 236.325 33.52 235.765 33.79C235.215 34.06 234.58 34.195 233.86 34.195C233.05 34.195 232.335 34.025 231.715 33.685C231.095 33.335 230.615 32.86 230.275 32.26C229.935 31.66 229.765 30.99 229.765 30.25C229.765 29.51 229.93 28.84 230.26 28.24C230.6 27.64 231.07 27.17 231.67 26.83C232.27 26.48 232.955 26.305 233.725 26.305ZM235.495 29.35C235.425 28.97 235.225 28.675 234.895 28.465C234.575 28.255 234.18 28.15 233.71 28.15C233.22 28.15 232.795 28.27 232.435 28.51C232.075 28.74 231.885 29.02 231.865 29.35H235.495ZM247.292 26.29C247.732 26.29 248.177 26.385 248.627 26.575C249.077 26.765 249.462 27.1 249.782 27.58C250.102 28.06 250.262 28.705 250.262 29.515V34H248.132V29.515C248.132 29.035 247.997 28.69 247.727 28.48C247.457 28.27 247.137 28.165 246.767 28.165C246.457 28.165 246.187 28.26 245.957 28.45C245.737 28.63 245.592 28.915 245.522 29.305V29.515V34H243.377V29.515C243.377 29.035 243.242 28.69 242.972 28.48C242.702 28.27 242.382 28.165 242.012 28.165C241.702 28.165 241.432 28.26 241.202 28.45C240.972 28.64 240.827 28.945 240.767 29.365V34H238.622V26.5H240.767V26.98C241.317 26.52 241.912 26.29 242.552 26.29C242.992 26.29 243.437 26.385 243.887 26.575C244.347 26.765 244.722 27.08 245.012 27.52C245.272 27.17 245.602 26.88 246.002 26.65C246.402 26.41 246.832 26.29 247.292 26.29ZM256.557 26.29C257.337 26.29 258.007 26.46 258.567 26.8C259.137 27.14 259.572 27.615 259.872 28.225C260.172 28.825 260.322 29.505 260.322 30.265C260.322 31.025 260.172 31.705 259.872 32.305C259.572 32.895 259.137 33.36 258.567 33.7C258.007 34.04 257.337 34.21 256.557 34.21C256.107 34.21 255.672 34.13 255.252 33.97C254.832 33.81 254.447 33.58 254.097 33.28V34H251.952V23.5H254.097V27.235C254.447 26.935 254.832 26.705 255.252 26.545C255.672 26.375 256.107 26.29 256.557 26.29ZM256.272 32.17C256.832 32.17 257.287 31.995 257.637 31.645C257.997 31.295 258.177 30.835 258.177 30.265C258.177 29.695 257.997 29.235 257.637 28.885C257.287 28.535 256.832 28.36 256.272 28.36C255.712 28.36 255.242 28.535 254.862 28.885C254.482 29.235 254.292 29.685 254.292 30.235C254.292 30.805 254.482 31.27 254.862 31.63C255.242 31.99 255.712 32.17 256.272 32.17ZM265.131 26.305C265.861 26.305 266.511 26.48 267.081 26.83C267.661 27.18 268.111 27.655 268.431 28.255C268.751 28.855 268.911 29.52 268.911 30.25C268.911 30.53 268.891 30.785 268.851 31.015H263.301C263.491 31.475 263.746 31.82 264.066 32.05C264.386 32.27 264.801 32.38 265.311 32.38C265.621 32.38 265.921 32.315 266.211 32.185C266.511 32.055 266.746 31.88 266.916 31.66L268.536 32.62C268.186 33.13 267.731 33.52 267.171 33.79C266.621 34.06 265.986 34.195 265.266 34.195C264.456 34.195 263.741 34.025 263.121 33.685C262.501 33.335 262.021 32.86 261.681 32.26C261.341 31.66 261.171 30.99 261.171 30.25C261.171 29.51 261.336 28.84 261.666 28.24C262.006 27.64 262.476 27.17 263.076 26.83C263.676 26.48 264.361 26.305 265.131 26.305ZM266.901 29.35C266.831 28.97 266.631 28.675 266.301 28.465C265.981 28.255 265.586 28.15 265.116 28.15C264.626 28.15 264.201 28.27 263.841 28.51C263.481 28.74 263.291 29.02 263.271 29.35H266.901ZM274.738 26.35L274.588 28.375C274.518 28.345 274.403 28.33 274.243 28.33C273.633 28.33 273.133 28.505 272.743 28.855C272.363 29.195 272.173 29.645 272.173 30.205V34H270.028V26.5H272.173V27.715C272.353 27.325 272.643 27 273.043 26.74C273.443 26.48 273.928 26.35 274.498 26.35H274.738ZM287.405 31.855V33.985H279.44V33.505C279.51 32.505 279.795 31.53 280.295 30.58C280.795 29.62 281.59 28.925 282.68 28.495L283.175 28.285C283.855 28.015 284.365 27.77 284.705 27.55C285.045 27.33 285.215 27.05 285.215 26.71C285.215 26.42 285.13 26.17 284.96 25.96C284.79 25.75 284.58 25.595 284.33 25.495C284.08 25.385 283.83 25.33 283.58 25.33C282.99 25.33 282.495 25.445 282.095 25.675C281.695 25.895 281.455 26.24 281.375 26.71L279.26 26.485C279.35 25.825 279.6 25.255 280.01 24.775C280.43 24.295 280.95 23.93 281.57 23.68C282.2 23.42 282.87 23.29 283.58 23.29C284.22 23.29 284.83 23.425 285.41 23.695C286 23.965 286.475 24.35 286.835 24.85C287.195 25.35 287.375 25.93 287.375 26.59C287.375 27.25 287.215 27.805 286.895 28.255C286.575 28.705 286.145 29.08 285.605 29.38C285.075 29.67 284.385 29.975 283.535 30.295C282.895 30.535 282.42 31.055 282.11 31.855H287.405ZM292.511 34.195C291.631 34.195 290.861 33.97 290.201 33.52C289.541 33.06 289.031 32.42 288.671 31.6C288.311 30.77 288.131 29.82 288.131 28.75C288.131 27.68 288.311 26.735 288.671 25.915C289.031 25.085 289.541 24.445 290.201 23.995C290.861 23.535 291.631 23.305 292.511 23.305C293.391 23.305 294.161 23.535 294.821 23.995C295.481 24.445 295.986 25.085 296.336 25.915C296.696 26.735 296.876 27.68 296.876 28.75C296.876 29.82 296.696 30.77 296.336 31.6C295.986 32.42 295.481 33.06 294.821 33.52C294.161 33.97 293.391 34.195 292.511 34.195ZM292.511 31.945C293.161 31.945 293.676 31.685 294.056 31.165C294.436 30.645 294.626 29.84 294.626 28.75C294.626 27.66 294.436 26.855 294.056 26.335C293.676 25.815 293.161 25.555 292.511 25.555C291.861 25.555 291.346 25.815 290.966 26.335C290.586 26.855 290.396 27.66 290.396 28.75C290.396 29.84 290.586 30.645 290.966 31.165C291.346 31.685 291.861 31.945 292.511 31.945ZM305.657 31.855V33.985H297.692V33.505C297.762 32.505 298.047 31.53 298.547 30.58C299.047 29.62 299.842 28.925 300.932 28.495L301.427 28.285C302.107 28.015 302.617 27.77 302.957 27.55C303.297 27.33 303.467 27.05 303.467 26.71C303.467 26.42 303.382 26.17 303.212 25.96C303.042 25.75 302.832 25.595 302.582 25.495C302.332 25.385 302.082 25.33 301.832 25.33C301.242 25.33 300.747 25.445 300.347 25.675C299.947 25.895 299.707 26.24 299.627 26.71L297.512 26.485C297.602 25.825 297.852 25.255 298.262 24.775C298.682 24.295 299.202 23.93 299.822 23.68C300.452 23.42 301.122 23.29 301.832 23.29C302.472 23.29 303.082 23.425 303.662 23.695C304.252 23.965 304.727 24.35 305.087 24.85C305.447 25.35 305.627 25.93 305.627 26.59C305.627 27.25 305.467 27.805 305.147 28.255C304.827 28.705 304.397 29.08 303.857 29.38C303.327 29.67 302.637 29.975 301.787 30.295C301.147 30.535 300.672 31.055 300.362 31.855H305.657ZM310.853 27.4C312.053 27.4 312.998 27.685 313.688 28.255C314.388 28.825 314.738 29.6 314.738 30.58C314.738 31.69 314.388 32.57 313.688 33.22C312.998 33.86 312.053 34.18 310.853 34.18C309.613 34.18 308.623 33.905 307.883 33.355C307.153 32.795 306.778 32.035 306.758 31.075L308.888 30.82C308.948 31.2 309.153 31.505 309.503 31.735C309.863 31.955 310.313 32.065 310.853 32.065C311.413 32.065 311.848 31.935 312.158 31.675C312.478 31.405 312.638 31.04 312.638 30.58C312.638 30.18 312.478 29.87 312.158 29.65C311.848 29.42 311.413 29.305 310.853 29.305H308.933V29.275L307.223 29.305L307.943 23.5H314.333V25.63H309.818L309.608 27.4H310.853Z" fill="black"/>
</svg>
