<svg width="994" height="70" viewBox="0 0 994 70" fill="none" xmlns="http://www.w3.org/2000/svg">
<path d="M104.72 32.8H120V35.32C120 37.6933 119.36 39.8933 118.08 41.92C116.8 43.9467 115.067 45.56 112.88 46.76C110.72 47.96 108.373 48.56 105.84 48.56C103.227 48.56 100.813 47.9067 98.6 46.6C96.3867 45.2933 94.6267 43.5333 93.32 41.32C92.04 39.1067 91.4 36.6933 91.4 34.08C91.4 31.4667 92.04 29.0533 93.32 26.84C94.6267 24.6267 96.3867 22.88 98.6 21.6C100.813 20.2933 103.227 19.64 105.84 19.64C108.187 19.64 110.373 20.1733 112.4 21.24C114.453 22.3067 116.147 23.76 117.48 25.6L112.72 29.32C111.973 28.2 110.987 27.32 109.76 26.68C108.56 26.0133 107.253 25.68 105.84 25.68C104.32 25.68 102.907 26.0533 101.6 26.8C100.32 27.5467 99.3067 28.5733 98.56 29.88C97.8133 31.16 97.44 32.56 97.44 34.08C97.44 35.6 97.8133 37.0133 98.56 38.32C99.3333 39.6 100.36 40.6267 101.64 41.4C102.92 42.1467 104.32 42.52 105.84 42.52C107.413 42.52 108.827 42.16 110.08 41.44C111.36 40.72 112.347 39.7333 113.04 38.48H104.72V32.8ZM132.506 27.48C134.453 27.48 136.186 27.9467 137.706 28.88C139.253 29.8133 140.453 31.08 141.306 32.68C142.159 34.28 142.586 36.0533 142.586 38C142.586 38.7467 142.533 39.4267 142.426 40.04H127.626C128.133 41.2667 128.813 42.1867 129.666 42.8C130.519 43.3867 131.626 43.68 132.986 43.68C133.813 43.68 134.613 43.5067 135.386 43.16C136.186 42.8133 136.813 42.3467 137.266 41.76L141.586 44.32C140.653 45.68 139.439 46.72 137.946 47.44C136.479 48.16 134.786 48.52 132.866 48.52C130.706 48.52 128.799 48.0667 127.146 47.16C125.493 46.2267 124.213 44.96 123.306 43.36C122.399 41.76 121.946 39.9733 121.946 38C121.946 36.0267 122.386 34.24 123.266 32.64C124.173 31.04 125.426 29.7867 127.026 28.88C128.626 27.9467 130.453 27.48 132.506 27.48ZM137.226 35.6C137.039 34.5867 136.506 33.8 135.626 33.24C134.773 32.68 133.719 32.4 132.466 32.4C131.159 32.4 130.026 32.72 129.066 33.36C128.106 33.9733 127.599 34.72 127.546 35.6H137.226ZM152.849 40.88C152.849 41.6267 153.049 42.1467 153.449 42.44C153.875 42.7333 154.515 42.88 155.369 42.88C155.902 42.88 156.489 42.84 157.129 42.76V48C155.795 48.1333 154.689 48.2 153.809 48.2C151.569 48.2 149.889 47.7067 148.769 46.72C147.675 45.7067 147.129 43.88 147.129 41.24V33.08H143.689V28H147.129V23.36L152.849 21.44V28H157.049V33.08H152.849V40.88ZM169.099 40.88C169.099 41.6267 169.299 42.1467 169.699 42.44C170.125 42.7333 170.765 42.88 171.619 42.88C172.152 42.88 172.739 42.84 173.379 42.76V48C172.045 48.1333 170.939 48.2 170.059 48.2C167.819 48.2 166.139 47.7067 165.019 46.72C163.925 45.7067 163.379 43.88 163.379 41.24V33.08H159.939V28H163.379V23.36L169.099 21.44V28H173.299V33.08H169.099V40.88ZM180.361 25.28C179.294 25.28 178.454 25 177.841 24.44C177.254 23.8533 176.961 23.0667 176.961 22.08C176.961 21.0667 177.254 20.2667 177.841 19.68C178.454 19.0933 179.294 18.8 180.361 18.8C181.401 18.8 182.228 19.0933 182.841 19.68C183.454 20.2667 183.761 21.0667 183.761 22.08C183.761 23.0667 183.454 23.8533 182.841 24.44C182.228 25 181.401 25.28 180.361 25.28ZM177.481 48V28H183.201V48H177.481ZM198.469 27.44C199.642 27.44 200.829 27.6933 202.029 28.2C203.229 28.7067 204.255 29.6 205.109 30.88C205.962 32.16 206.389 33.88 206.389 36.04V48H200.669V36.04C200.669 34.76 200.309 33.84 199.589 33.28C198.895 32.72 198.055 32.44 197.069 32.44C196.082 32.44 195.255 32.7867 194.589 33.48C193.949 34.1733 193.629 35.28 193.629 36.8V48H187.909V28H193.629V29.36C195.149 28.08 196.762 27.44 198.469 27.44ZM225.415 28H231.135V47C231.135 48.8667 230.642 50.52 229.655 51.96C228.695 53.4 227.362 54.52 225.655 55.32C223.949 56.12 222.029 56.52 219.895 56.52C217.575 56.52 215.442 56.0667 213.495 55.16C211.575 54.28 210.229 53.1333 209.455 51.72L214.335 48.88C214.682 49.5733 215.375 50.1467 216.415 50.6C217.455 51.0533 218.669 51.28 220.055 51.28C221.602 51.28 222.882 50.88 223.895 50.08C224.909 49.28 225.415 48.2533 225.415 47V46.48C224.535 47.1467 223.575 47.6533 222.535 48C221.522 48.3733 220.469 48.56 219.375 48.56C217.295 48.56 215.495 48.1067 213.975 47.2C212.482 46.2933 211.335 45.0533 210.535 43.48C209.735 41.88 209.335 40.0667 209.335 38.04C209.335 36.0133 209.735 34.2 210.535 32.6C211.335 30.9733 212.482 29.7067 213.975 28.8C215.495 27.8933 217.295 27.44 219.375 27.44C220.442 27.44 221.495 27.6267 222.535 28C223.575 28.3467 224.535 28.8533 225.415 29.52V28ZM220.135 43.12C221.629 43.12 222.882 42.64 223.895 41.68C224.909 40.72 225.415 39.48 225.415 37.96C225.415 36.4933 224.909 35.2933 223.895 34.36C222.882 33.4267 221.629 32.96 220.135 32.96C218.642 32.96 217.415 33.4267 216.455 34.36C215.522 35.2933 215.055 36.52 215.055 38.04C215.055 39.56 215.522 40.7867 216.455 41.72C217.415 42.6533 218.642 43.12 220.135 43.12ZM257.868 24.88C257.228 24.8 256.641 24.76 256.108 24.76C255.255 24.76 254.615 24.9067 254.188 25.2C253.788 25.4933 253.588 26.0133 253.588 26.76V28H257.828V33.08H253.588V48H247.868V33.08H244.748V28H247.868V26.4C247.868 23.76 248.415 21.9467 249.508 20.96C250.628 19.9467 252.321 19.44 254.588 19.44C255.495 19.44 256.588 19.5067 257.868 19.64V24.88ZM269.264 27.48C271.21 27.48 272.944 27.9467 274.464 28.88C276.01 29.8133 277.21 31.08 278.064 32.68C278.917 34.28 279.344 36.0533 279.344 38C279.344 38.7467 279.29 39.4267 279.184 40.04H264.384C264.89 41.2667 265.57 42.1867 266.424 42.8C267.277 43.3867 268.384 43.68 269.744 43.68C270.57 43.68 271.37 43.5067 272.144 43.16C272.944 42.8133 273.57 42.3467 274.024 41.76L278.344 44.32C277.41 45.68 276.197 46.72 274.704 47.44C273.237 48.16 271.544 48.52 269.624 48.52C267.464 48.52 265.557 48.0667 263.904 47.16C262.25 46.2267 260.97 44.96 260.064 43.36C259.157 41.76 258.704 39.9733 258.704 38C258.704 36.0267 259.144 34.24 260.024 32.64C260.93 31.04 262.184 29.7867 263.784 28.88C265.384 27.9467 267.21 27.48 269.264 27.48ZM273.984 35.6C273.797 34.5867 273.264 33.8 272.384 33.24C271.53 32.68 270.477 32.4 269.224 32.4C267.917 32.4 266.784 32.72 265.824 33.36C264.864 33.9733 264.357 34.72 264.304 35.6H273.984ZM297.603 28H303.283V48H297.603V46.48C296.723 47.1467 295.749 47.6533 294.683 48C293.643 48.3733 292.589 48.56 291.523 48.56C289.443 48.56 287.643 48.1067 286.123 47.2C284.629 46.2933 283.483 45.0533 282.683 43.48C281.883 41.88 281.483 40.0667 281.483 38.04C281.483 36.0133 281.883 34.2 282.683 32.6C283.483 30.9733 284.629 29.7067 286.123 28.8C287.643 27.8933 289.443 27.44 291.523 27.44C292.616 27.44 293.683 27.6267 294.723 28C295.763 28.3733 296.723 28.8933 297.603 29.56V28ZM292.283 43.12C293.776 43.12 295.029 42.64 296.043 41.68C297.056 40.72 297.563 39.48 297.563 37.96C297.563 36.4933 297.056 35.2933 296.043 34.36C295.029 33.4267 293.776 32.96 292.283 32.96C290.789 32.96 289.563 33.4267 288.603 34.36C287.643 35.2933 287.163 36.52 287.163 38.04C287.163 39.56 287.643 40.7867 288.603 41.72C289.563 42.6533 290.789 43.12 292.283 43.12ZM315.114 40.88C315.114 41.6267 315.314 42.1467 315.714 42.44C316.141 42.7333 316.781 42.88 317.634 42.88C318.168 42.88 318.754 42.84 319.394 42.76V48C318.061 48.1333 316.954 48.2 316.074 48.2C313.834 48.2 312.154 47.7067 311.034 46.72C309.941 45.7067 309.394 43.88 309.394 41.24V33.08H305.954V28H309.394V23.36L315.114 21.44V28H319.314V33.08H315.114V40.88ZM335.264 28H340.984V48H335.264V46.64C333.744 47.92 332.131 48.56 330.424 48.56C329.251 48.56 328.064 48.3067 326.864 47.8C325.664 47.2933 324.637 46.4 323.784 45.12C322.931 43.84 322.504 42.12 322.504 39.96V28H328.224V39.96C328.224 41.2133 328.584 42.1333 329.304 42.72C330.024 43.28 330.877 43.56 331.864 43.56C332.824 43.56 333.624 43.2133 334.264 42.52C334.931 41.8267 335.264 40.72 335.264 39.2V28ZM358.438 27.6L358.038 33C357.851 32.92 357.544 32.88 357.118 32.88C355.491 32.88 354.158 33.3467 353.118 34.28C352.104 35.1867 351.598 36.3867 351.598 37.88V48H345.878V28H351.598V31.24C352.078 30.2 352.851 29.3333 353.918 28.64C354.984 27.9467 356.278 27.6 357.798 27.6H358.438ZM370.006 27.48C371.953 27.48 373.686 27.9467 375.206 28.88C376.753 29.8133 377.953 31.08 378.806 32.68C379.659 34.28 380.086 36.0533 380.086 38C380.086 38.7467 380.033 39.4267 379.926 40.04H365.126C365.633 41.2667 366.313 42.1867 367.166 42.8C368.019 43.3867 369.126 43.68 370.486 43.68C371.313 43.68 372.113 43.5067 372.886 43.16C373.686 42.8133 374.313 42.3467 374.766 41.76L379.086 44.32C378.153 45.68 376.939 46.72 375.446 47.44C373.979 48.16 372.286 48.52 370.366 48.52C368.206 48.52 366.299 48.0667 364.646 47.16C362.993 46.2267 361.713 44.96 360.806 43.36C359.899 41.76 359.446 39.9733 359.446 38C359.446 36.0267 359.886 34.24 360.766 32.64C361.673 31.04 362.926 29.7867 364.526 28.88C366.126 27.9467 367.953 27.48 370.006 27.48ZM374.726 35.6C374.539 34.5867 374.006 33.8 373.126 33.24C372.273 32.68 371.219 32.4 369.966 32.4C368.659 32.4 367.526 32.72 366.566 33.36C365.606 33.9733 365.099 34.72 365.046 35.6H374.726ZM398.305 20H403.985V48H398.305V46.48C397.425 47.1467 396.465 47.6533 395.425 48C394.412 48.3733 393.358 48.56 392.265 48.56C390.185 48.56 388.385 48.1067 386.865 47.2C385.372 46.2933 384.225 45.0533 383.425 43.48C382.625 41.88 382.225 40.0667 382.225 38.04C382.225 36.0133 382.625 34.2 383.425 32.6C384.225 30.9733 385.372 29.7067 386.865 28.8C388.385 27.8933 390.185 27.44 392.265 27.44C393.332 27.44 394.385 27.6267 395.425 28C396.465 28.3467 397.425 28.8533 398.305 29.52V20ZM393.025 43.12C394.518 43.12 395.772 42.64 396.785 41.68C397.798 40.72 398.305 39.48 398.305 37.96C398.305 36.4933 397.798 35.2933 396.785 34.36C395.772 33.4267 394.518 32.96 393.025 32.96C391.532 32.96 390.305 33.4267 389.345 34.36C388.385 35.2933 387.905 36.52 387.905 38.04C387.905 39.56 388.385 40.7867 389.345 41.72C390.305 42.6533 391.532 43.12 393.025 43.12ZM428.639 48.6C426.719 48.6 424.945 48.1333 423.319 47.2C421.719 46.24 420.439 44.9467 419.479 43.32C418.545 41.6933 418.079 39.9333 418.079 38.04C418.079 36.12 418.545 34.36 419.479 32.76C420.439 31.1333 421.719 29.8533 423.319 28.92C424.945 27.96 426.719 27.48 428.639 27.48C430.532 27.48 432.279 27.96 433.879 28.92C435.505 29.8533 436.785 31.1333 437.719 32.76C438.679 34.36 439.159 36.12 439.159 38.04C439.159 39.9333 438.679 41.6933 437.719 43.32C436.785 44.9467 435.505 46.24 433.879 47.2C432.279 48.1333 430.532 48.6 428.639 48.6ZM428.599 42.88C429.932 42.88 431.079 42.4133 432.039 41.48C432.999 40.52 433.479 39.3733 433.479 38.04C433.479 36.7067 432.999 35.56 432.039 34.6C431.079 33.64 429.932 33.16 428.599 33.16C427.265 33.16 426.119 33.64 425.159 34.6C424.225 35.56 423.759 36.7067 423.759 38.04C423.759 39.3733 424.225 40.52 425.159 41.48C426.119 42.4133 427.265 42.88 428.599 42.88ZM452.727 27.44C453.9 27.44 455.087 27.6933 456.287 28.2C457.487 28.7067 458.513 29.6 459.367 30.88C460.22 32.16 460.647 33.88 460.647 36.04V48H454.927V36.04C454.927 34.76 454.567 33.84 453.847 33.28C453.153 32.72 452.313 32.44 451.327 32.44C450.34 32.44 449.513 32.7867 448.847 33.48C448.207 34.1733 447.887 35.28 447.887 36.8V48H442.167V28H447.887V29.36C449.407 28.08 451.02 27.44 452.727 27.44ZM482.849 40.88C482.849 41.6267 483.049 42.1467 483.449 42.44C483.875 42.7333 484.515 42.88 485.369 42.88C485.902 42.88 486.489 42.84 487.129 42.76V48C485.795 48.1333 484.689 48.2 483.809 48.2C481.569 48.2 479.889 47.7067 478.769 46.72C477.675 45.7067 477.129 43.88 477.129 41.24V33.08H473.689V28H477.129V23.36L482.849 21.44V28H487.049V33.08H482.849V40.88ZM508.965 48H503.245V36.2C503.245 34.92 502.885 34 502.165 33.44C501.445 32.8533 500.592 32.56 499.605 32.56C498.778 32.56 498.058 32.8267 497.445 33.36C496.832 33.8667 496.445 34.6667 496.285 35.76V48H490.565V20H496.285V29.44C497.752 28.2133 499.338 27.6 501.045 27.6C502.192 27.6 503.352 27.8533 504.525 28.36C505.725 28.84 506.752 29.7067 507.605 30.96C508.485 32.2133 508.938 33.9067 508.965 36.04V48ZM521.881 27.48C523.828 27.48 525.561 27.9467 527.081 28.88C528.628 29.8133 529.828 31.08 530.681 32.68C531.534 34.28 531.961 36.0533 531.961 38C531.961 38.7467 531.908 39.4267 531.801 40.04H517.001C517.508 41.2667 518.188 42.1867 519.041 42.8C519.894 43.3867 521.001 43.68 522.361 43.68C523.188 43.68 523.988 43.5067 524.761 43.16C525.561 42.8133 526.188 42.3467 526.641 41.76L530.961 44.32C530.028 45.68 528.814 46.72 527.321 47.44C525.854 48.16 524.161 48.52 522.241 48.52C520.081 48.52 518.174 48.0667 516.521 47.16C514.868 46.2267 513.588 44.96 512.681 43.36C511.774 41.76 511.321 39.9733 511.321 38C511.321 36.0267 511.761 34.24 512.641 32.64C513.548 31.04 514.801 29.7867 516.401 28.88C518.001 27.9467 519.828 27.48 521.881 27.48ZM526.601 35.6C526.414 34.5867 525.881 33.8 525.001 33.24C524.148 32.68 523.094 32.4 521.841 32.4C520.534 32.4 519.401 32.72 518.441 33.36C517.481 33.9733 516.974 34.72 516.921 35.6H526.601ZM559.356 48.56C556.742 48.56 554.329 47.9067 552.116 46.6C549.902 45.2933 548.142 43.5333 546.836 41.32C545.556 39.1067 544.916 36.6933 544.916 34.08C544.916 31.4667 545.556 29.0533 546.836 26.84C548.142 24.6267 549.902 22.88 552.116 21.6C554.329 20.2933 556.742 19.64 559.356 19.64C561.969 19.64 564.382 20.2933 566.596 21.6C568.809 22.88 570.556 24.6267 571.836 26.84C573.142 29.0533 573.796 31.4667 573.796 34.08C573.796 36.6933 573.142 39.1067 571.836 41.32C570.556 43.5333 568.809 45.2933 566.596 46.6C564.382 47.9067 561.969 48.56 559.356 48.56ZM559.356 42.52C560.876 42.52 562.276 42.1467 563.556 41.4C564.862 40.6267 565.889 39.6 566.636 38.32C567.409 37.0133 567.796 35.6 567.796 34.08C567.796 32.56 567.409 31.16 566.636 29.88C565.889 28.6 564.862 27.5867 563.556 26.84C562.276 26.0667 560.876 25.68 559.356 25.68C557.836 25.68 556.422 26.0533 555.116 26.8C553.836 27.5467 552.822 28.5733 552.076 29.88C551.329 31.16 550.956 32.56 550.956 34.08C550.956 35.6 551.329 37.0133 552.076 38.32C552.849 39.6 553.876 40.6267 555.156 41.4C556.436 42.1467 557.836 42.52 559.356 42.52ZM575.814 34.08C575.814 31.4667 576.454 29.0533 577.734 26.84C579.041 24.6267 580.801 22.88 583.014 21.6C585.227 20.2933 587.641 19.64 590.254 19.64C592.921 19.64 595.387 20.3333 597.654 21.72C599.921 23.1067 601.681 24.9333 602.934 27.2L597.654 30.04C596.907 28.7067 595.881 27.6533 594.574 26.88C593.267 26.08 591.827 25.68 590.254 25.68C588.734 25.68 587.321 26.0533 586.014 26.8C584.734 27.5467 583.721 28.5733 582.974 29.88C582.227 31.16 581.854 32.56 581.854 34.08C581.854 35.6 582.227 37.0133 582.974 38.32C583.747 39.6 584.774 40.6267 586.054 41.4C587.334 42.1467 588.734 42.52 590.254 42.52C591.827 42.52 593.281 42.12 594.614 41.32C595.947 40.4933 596.974 39.4 597.694 38.04L603.014 40.92C601.761 43.2133 599.987 45.0667 597.694 46.48C595.427 47.8667 592.947 48.56 590.254 48.56C587.641 48.56 585.227 47.9067 583.014 46.6C580.801 45.2933 579.041 43.5333 577.734 41.32C576.454 39.1067 575.814 36.6933 575.814 34.08ZM625.381 33C626.234 33.8 626.901 34.7467 627.381 35.84C627.861 36.9333 628.101 38.0933 628.101 39.32C628.101 40.8667 627.727 42.3067 626.981 43.64C626.234 44.9733 625.221 46.0267 623.941 46.8C622.687 47.5733 621.314 47.96 619.821 47.96H612.861V48H606.861V20H619.181C620.594 20 621.901 20.3733 623.101 21.12C624.301 21.84 625.247 22.8267 625.941 24.08C626.661 25.3067 627.021 26.6267 627.021 28.04C627.021 28.92 626.874 29.8 626.581 30.68C626.314 31.5333 625.914 32.3067 625.381 33ZM612.861 25.72V30.88L619.181 30.84C619.767 30.84 620.301 30.6 620.781 30.12C621.261 29.6133 621.501 29 621.501 28.28C621.501 27.5333 621.261 26.92 620.781 26.44C620.301 25.96 619.767 25.72 619.181 25.72H612.861ZM619.821 42.24C620.514 42.24 621.114 41.9467 621.621 41.36C622.127 40.7733 622.381 40.08 622.381 39.28C622.381 38.48 622.127 37.7867 621.621 37.2C621.114 36.6133 620.514 36.32 619.821 36.32H612.861V42.24H619.821ZM630.58 34.08C630.58 31.4667 631.22 29.0533 632.5 26.84C633.806 24.6267 635.566 22.88 637.78 21.6C639.993 20.2933 642.406 19.64 645.02 19.64C647.686 19.64 650.153 20.3333 652.42 21.72C654.686 23.1067 656.446 24.9333 657.7 27.2L652.42 30.04C651.673 28.7067 650.646 27.6533 649.34 26.88C648.033 26.08 646.593 25.68 645.02 25.68C643.5 25.68 642.086 26.0533 640.78 26.8C639.5 27.5467 638.486 28.5733 637.74 29.88C636.993 31.16 636.62 32.56 636.62 34.08C636.62 35.6 636.993 37.0133 637.74 38.32C638.513 39.6 639.54 40.6267 640.82 41.4C642.1 42.1467 643.5 42.52 645.02 42.52C646.593 42.52 648.046 42.12 649.38 41.32C650.713 40.4933 651.74 39.4 652.46 38.04L657.78 40.92C656.526 43.2133 654.753 45.0667 652.46 46.48C650.193 47.8667 647.713 48.56 645.02 48.56C642.406 48.56 639.993 47.9067 637.78 46.6C635.566 45.2933 633.806 43.5333 632.5 41.32C631.22 39.1067 630.58 36.6933 630.58 34.08ZM691.061 38.76L694.301 28H700.261L693.781 48H688.221L684.901 37.44L681.541 48H676.021L669.621 28H675.621L678.781 38.64L681.861 28H687.901L691.061 38.76ZM710.748 27.48C712.695 27.48 714.428 27.9467 715.948 28.88C717.495 29.8133 718.695 31.08 719.548 32.68C720.401 34.28 720.828 36.0533 720.828 38C720.828 38.7467 720.775 39.4267 720.668 40.04H705.868C706.375 41.2667 707.055 42.1867 707.908 42.8C708.761 43.3867 709.868 43.68 711.228 43.68C712.055 43.68 712.855 43.5067 713.628 43.16C714.428 42.8133 715.055 42.3467 715.508 41.76L719.828 44.32C718.895 45.68 717.681 46.72 716.188 47.44C714.721 48.16 713.028 48.52 711.108 48.52C708.948 48.52 707.041 48.0667 705.388 47.16C703.735 46.2267 702.455 44.96 701.548 43.36C700.641 41.76 700.188 39.9733 700.188 38C700.188 36.0267 700.628 34.24 701.508 32.64C702.415 31.04 703.668 29.7867 705.268 28.88C706.868 27.9467 708.695 27.48 710.748 27.48ZM715.468 35.6C715.281 34.5867 714.748 33.8 713.868 33.24C713.015 32.68 711.961 32.4 710.708 32.4C709.401 32.4 708.268 32.72 707.308 33.36C706.348 33.9733 705.841 34.72 705.788 35.6H715.468ZM736.087 27.44C738.167 27.44 739.954 27.8933 741.447 28.8C742.967 29.7067 744.127 30.9733 744.927 32.6C745.727 34.2 746.127 36.0133 746.127 38.04C746.127 40.0667 745.727 41.88 744.927 43.48C744.127 45.0533 742.967 46.2933 741.447 47.2C739.954 48.1067 738.167 48.56 736.087 48.56C734.887 48.56 733.727 48.3467 732.607 47.92C731.487 47.4933 730.461 46.88 729.527 46.08V48H723.807V20H729.527V29.96C730.461 29.16 731.487 28.5467 732.607 28.12C733.727 27.6667 734.887 27.44 736.087 27.44ZM735.327 43.12C736.821 43.12 738.034 42.6533 738.967 41.72C739.927 40.7867 740.407 39.56 740.407 38.04C740.407 36.52 739.927 35.2933 738.967 34.36C738.034 33.4267 736.821 32.96 735.327 32.96C733.834 32.96 732.581 33.4267 731.567 34.36C730.554 35.2933 730.047 36.4933 730.047 37.96C730.047 39.48 730.554 40.72 731.567 41.68C732.581 42.64 733.834 43.12 735.327 43.12ZM754.943 33.68C754.943 34.1333 755.223 34.48 755.783 34.72C756.343 34.9333 757.236 35.16 758.463 35.4C760.036 35.72 761.343 36.08 762.383 36.48C763.423 36.8533 764.329 37.4933 765.103 38.4C765.903 39.28 766.303 40.5067 766.303 42.08C766.303 43.44 765.889 44.6133 765.063 45.6C764.236 46.56 763.143 47.2933 761.783 47.8C760.423 48.28 758.956 48.52 757.383 48.52C755.223 48.52 753.383 48.1333 751.863 47.36C750.343 46.56 749.196 45.3867 748.423 43.84L753.103 41.44C753.743 43.1467 755.169 44 757.383 44C758.289 44 759.076 43.84 759.743 43.52C760.436 43.1733 760.783 42.6933 760.783 42.08C760.783 41.5467 760.463 41.1467 759.823 40.88C759.209 40.6133 758.223 40.3333 756.863 40.04C755.316 39.6933 754.023 39.3333 752.983 38.96C751.943 38.56 751.049 37.96 750.303 37.16C749.556 36.3333 749.183 35.24 749.183 33.88C749.183 32.5733 749.556 31.44 750.303 30.48C751.049 29.4933 752.049 28.7467 753.303 28.24C754.583 27.7333 755.969 27.48 757.463 27.48C759.223 27.48 760.809 27.84 762.223 28.56C763.636 29.28 764.743 30.32 765.543 31.68L760.903 33.96C760.583 33.2933 760.143 32.8 759.583 32.48C759.049 32.16 758.343 32 757.463 32C756.689 32 756.076 32.16 755.623 32.48C755.169 32.7733 754.943 33.1733 754.943 33.68ZM772.119 25.28C771.052 25.28 770.212 25 769.599 24.44C769.012 23.8533 768.719 23.0667 768.719 22.08C768.719 21.0667 769.012 20.2667 769.599 19.68C770.212 19.0933 771.052 18.8 772.119 18.8C773.159 18.8 773.985 19.0933 774.599 19.68C775.212 20.2667 775.519 21.0667 775.519 22.08C775.519 23.0667 775.212 23.8533 774.599 24.44C773.985 25 773.159 25.28 772.119 25.28ZM769.239 48V28H774.959V48H769.239ZM787.419 40.88C787.419 41.6267 787.619 42.1467 788.019 42.44C788.446 42.7333 789.086 42.88 789.939 42.88C790.472 42.88 791.059 42.84 791.699 42.76V48C790.366 48.1333 789.259 48.2 788.379 48.2C786.139 48.2 784.459 47.7067 783.339 46.72C782.246 45.7067 781.699 43.88 781.699 41.24V33.08H778.259V28H781.699V23.36L787.419 21.44V28H791.619V33.08H787.419V40.88ZM804.381 27.48C806.328 27.48 808.061 27.9467 809.581 28.88C811.128 29.8133 812.328 31.08 813.181 32.68C814.034 34.28 814.461 36.0533 814.461 38C814.461 38.7467 814.408 39.4267 814.301 40.04H799.501C800.008 41.2667 800.688 42.1867 801.541 42.8C802.394 43.3867 803.501 43.68 804.861 43.68C805.688 43.68 806.488 43.5067 807.261 43.16C808.061 42.8133 808.688 42.3467 809.141 41.76L813.461 44.32C812.528 45.68 811.314 46.72 809.821 47.44C808.354 48.16 806.661 48.52 804.741 48.52C802.581 48.52 800.674 48.0667 799.021 47.16C797.368 46.2267 796.088 44.96 795.181 43.36C794.274 41.76 793.821 39.9733 793.821 38C793.821 36.0267 794.261 34.24 795.141 32.64C796.048 31.04 797.301 29.7867 798.901 28.88C800.501 27.9467 802.328 27.48 804.381 27.48ZM809.101 35.6C808.914 34.5867 808.381 33.8 807.501 33.24C806.648 32.68 805.594 32.4 804.341 32.4C803.034 32.4 801.901 32.72 800.941 33.36C799.981 33.9733 799.474 34.72 799.421 35.6H809.101Z" fill="#EAEAEA"/>
<path d="M47.2799 0.696279C48.8447 2.14924 50.8167 9.04855 51.562 11.3535C52.7262 14.9541 53.7031 17.8834 55.1769 21.3565C56.3528 24.1258 56.8354 28.5849 59.368 30.3786C61.016 31.5467 63.9727 32.0046 64.3929 34.5034C64.8351 37.1349 64.1522 39.8509 62.6576 42.0193C62.0723 42.8687 60.3201 44.3555 60.181 45.2348C59.6606 48.514 62.0306 51.9988 61.5403 55.3288C61.1955 57.6754 59.8844 58.7901 57.5443 57.799C56.8432 57.5024 56.2292 56.5242 55.2822 57.0016C53.9385 58.4389 55.4995 60.3498 53.8657 61.6844C53.0995 62.3113 52.163 62.3426 51.2095 62.0915C49.897 61.7468 49.2961 59.7137 47.6987 60.1937C47.1186 60.368 43.6416 64.5214 42.6725 65.3382C38.9627 68.4679 33.4878 70.8652 28.6268 69.4032C26.4233 68.7411 23.0191 65.9327 21.3034 64.3223C20.3343 63.4131 17.5728 59.9335 16.6362 59.633C14.6174 58.9866 14.5446 61.661 13.7849 62.4987C13.0734 63.2843 11.9079 63.2843 11.0611 62.7653C9.20882 61.6297 9.84489 57.7912 8.97208 57.5258C7.80398 57.1694 6.65019 60.7998 4.36733 59.144C3.07176 58.2035 3.09258 55.7997 3.18884 54.3558C3.41908 50.9244 5.74745 47.2874 3.56996 44.0368C1.61099 41.1113 -0.68617 40.3894 0.193153 36.1255C0.752486 33.412 3.24998 32.616 4.83042 30.8001C6.83101 28.5016 8.24884 24.6682 9.534 21.8846C11.8637 16.835 12.1499 12.0598 14.1804 7.01934C14.6109 5.95141 16.5374 1.68747 17.1474 1.04229C18.0411 0.0979235 19.0127 0.0237792 20.0716 0.739205C21.8302 1.92941 23.9453 8.41507 25.0665 10.5835C25.8327 12.065 26.9228 14.2334 28.7334 14.439C30.2111 14.6068 35.9605 14.6289 37.1807 14.1372C38.8092 13.4816 39.7406 9.67942 40.3936 8.20305C40.8228 7.23397 41.4888 6.38326 41.8934 5.4337C42.4943 4.02106 42.6075 2.22079 43.6039 1.04619C44.6003 -0.128411 46.0936 -0.408078 47.2812 0.693678L47.2799 0.696279ZM18.8189 8.99262C16.9029 9.4674 16.1185 14.7355 16.4307 16.3654C16.7286 17.9237 19.178 16.3875 20.0209 15.8984C21.9135 14.798 22.0045 14.8617 21.453 12.5697C21.2084 11.5564 20.1301 8.66742 18.8189 8.99131V8.99262ZM44.5535 9.41407C43.877 10.0619 42.8898 13.9108 43.172 14.8565C43.6169 16.3459 47.86 18.5312 48.327 16.9403C48.7068 15.6513 47.782 10.7669 46.8519 9.75877C46.3264 9.19033 45.144 8.84823 44.5535 9.41407ZM27.4131 49.3855C27.5276 44.3073 25.1056 34.48 19.6748 32.6303C15.3979 31.1734 12.7443 35.7222 12.3814 39.354C11.8897 44.2696 13.1983 48.7209 16.138 52.6193C19.0648 56.4982 24.3641 63.0268 28.6242 65.1418C34.0458 67.8344 38.9549 64.8439 42.3499 60.5436C47.3436 54.2179 52.8849 47.7609 52.2436 39.1185C51.8443 33.7385 47.2265 28.9075 42.5685 33.9428C39.0356 37.7618 37.5267 44.3242 37.1781 49.3855C37.0207 49.569 34.9823 48.1576 34.5934 48.0067C32.174 47.0637 30.6833 47.6607 28.5656 48.8106C28.1832 49.0187 27.9907 49.5312 27.4145 49.3855H27.4131Z" fill="white"/>
<path d="M27.4136 49.3866C27.9898 49.5323 28.1823 49.0198 28.5648 48.8117C30.6824 47.6618 32.1731 47.0648 34.5925 48.0078C34.9815 48.1587 37.0198 49.5714 37.1772 49.3866C37.5258 44.3253 39.0334 37.7629 42.5676 33.9439C47.2257 28.9086 51.8434 33.7396 52.2427 39.1196C52.8853 47.762 47.3427 54.219 42.3491 60.5447C38.954 64.845 34.0462 67.8355 28.6233 65.1429C24.3632 63.0279 19.0639 56.5006 16.1372 52.6204C13.1961 48.722 11.8888 44.2707 12.3805 39.3551C12.7434 35.7233 15.397 31.1745 19.674 32.6314C25.1047 34.4811 27.5267 44.3084 27.4123 49.3866H27.4136ZM21.2531 36.4179C19.9692 36.6131 19.5374 39.8975 19.4788 40.9589C19.406 42.274 19.5712 47.5968 21.4053 47.6826C22.7906 47.7464 23.268 45.0434 23.35 44.0119C23.4592 42.6226 23.6361 36.0563 21.2531 36.4179ZM43.6368 36.4166C43.2362 36.4921 43.0398 36.7301 42.829 37.0501C41.6909 38.7736 41.7169 45.1344 42.8316 46.8918C43.7773 48.3825 44.8049 47.5812 45.3252 46.2479C46.1382 44.1666 46.0927 39.4982 45.1509 37.4651C44.84 36.7939 44.5044 36.2527 43.6368 36.4166Z" fill="black"/>
<path d="M44.553 9.4149C45.1448 8.84906 46.3259 9.19117 46.8515 9.7596C47.7828 10.7677 48.7064 15.6521 48.3265 16.9412C47.8583 18.532 43.6164 16.3467 43.1716 14.8573C42.8893 13.9117 43.8766 10.0627 44.553 9.4149Z" fill="black"/>
<path d="M18.819 8.99217C20.1302 8.66698 21.2086 11.556 21.4531 12.5706C22.0059 14.8626 21.9136 14.7988 20.021 15.8993C19.1781 16.3897 16.7287 17.9246 16.4308 16.3663C16.1186 14.7351 16.903 9.46696 18.819 8.99347V8.99217Z" fill="black"/>
<path d="M43.6357 36.4167C44.5047 36.2515 44.839 36.7926 45.1498 37.4651C46.0929 39.4982 46.1371 44.168 45.3241 46.2479C44.8038 47.5812 43.7762 48.3825 42.8306 46.8918C41.7145 45.1345 41.6885 38.7737 42.828 37.0502C43.0387 36.7302 43.2351 36.4934 43.6357 36.4167Z" fill="white"/>
<path d="M21.2527 36.4167C23.6357 36.0551 23.4601 42.6214 23.3495 44.0106C23.2676 45.0422 22.7902 47.7452 21.4048 47.6814C19.5694 47.5969 19.4056 42.2728 19.4784 40.9577C19.5369 39.8976 19.9688 36.6118 21.2527 36.4167Z" fill="white"/>
<path d="M28.429 54.4453L31.08 58.6039C31.4781 58.9447 32.014 59.8318 32.5837 59.7421L36.3625 54.95L36.0581 54.4453H28.4277H28.429Z" fill="white"/>
</svg>
