<svg width="436" height="70" viewBox="0 0 436 70" fill="none" xmlns="http://www.w3.org/2000/svg">
<path d="M118.44 38.32L123.24 20H129.48L121.8 48H115.36L110.08 30.32L104.76 48H98.32L90.64 20H96.88L101.68 38.32L106.92 20H113.2L118.44 38.32ZM145.728 28H151.408V48H145.728V46.48C144.848 47.1467 143.874 47.6533 142.808 48C141.768 48.3733 140.714 48.56 139.648 48.56C137.568 48.56 135.768 48.1067 134.248 47.2C132.754 46.2933 131.608 45.0533 130.808 43.48C130.008 41.88 129.608 40.0667 129.608 38.04C129.608 36.0133 130.008 34.2 130.808 32.6C131.608 30.9733 132.754 29.7067 134.248 28.8C135.768 27.8933 137.568 27.44 139.648 27.44C140.741 27.44 141.808 27.6267 142.848 28C143.888 28.3733 144.848 28.8933 145.728 29.56V28ZM140.408 43.12C141.901 43.12 143.154 42.64 144.168 41.68C145.181 40.72 145.688 39.48 145.688 37.96C145.688 36.4933 145.181 35.2933 144.168 34.36C143.154 33.4267 141.901 32.96 140.408 32.96C138.914 32.96 137.688 33.4267 136.728 34.36C135.768 35.2933 135.288 36.52 135.288 38.04C135.288 39.56 135.768 40.7867 136.728 41.72C137.688 42.6533 138.914 43.12 140.408 43.12ZM161.48 41.68C161.48 42.1067 161.574 42.4133 161.76 42.6C161.974 42.7867 162.32 42.88 162.8 42.88C163.147 42.88 163.56 42.84 164.04 42.76V48C162.734 48.1867 161.72 48.28 161 48.28C159.267 48.28 157.96 47.8267 157.08 46.92C156.2 45.9867 155.76 44.36 155.76 42.04V20H161.48V41.68ZM172.691 41.68C172.691 42.1067 172.785 42.4133 172.971 42.6C173.185 42.7867 173.531 42.88 174.011 42.88C174.358 42.88 174.771 42.84 175.251 42.76V48C173.945 48.1867 172.931 48.28 172.211 48.28C170.478 48.28 169.171 47.8267 168.291 46.92C167.411 45.9867 166.971 44.36 166.971 42.04V20H172.691V41.68ZM200.88 20C203.493 20 205.893 20.6267 208.08 21.88C210.293 23.1067 212.04 24.8 213.32 26.96C214.626 29.0933 215.28 31.4667 215.28 34.08C215.28 36.6933 214.64 39.0667 213.36 41.2C212.08 43.3067 210.333 44.9733 208.12 46.2C205.906 47.4 203.493 48 200.88 48H189.4V20H200.88ZM200.88 42.28C202.4 42.28 203.8 41.92 205.08 41.2C206.386 40.4533 207.413 39.4533 208.16 38.2C208.906 36.9467 209.28 35.56 209.28 34.04C209.28 32.52 208.906 31.12 208.16 29.84C207.413 28.56 206.386 27.5467 205.08 26.8C203.8 26.0533 202.4 25.68 200.88 25.68H195.4V42.28H200.88ZM227.818 27.48C229.765 27.48 231.498 27.9467 233.018 28.88C234.565 29.8133 235.765 31.08 236.618 32.68C237.472 34.28 237.898 36.0533 237.898 38C237.898 38.7467 237.845 39.4267 237.738 40.04H222.938C223.445 41.2667 224.125 42.1867 224.978 42.8C225.832 43.3867 226.938 43.68 228.298 43.68C229.125 43.68 229.925 43.5067 230.698 43.16C231.498 42.8133 232.125 42.3467 232.578 41.76L236.898 44.32C235.965 45.68 234.752 46.72 233.258 47.44C231.792 48.16 230.098 48.52 228.178 48.52C226.018 48.52 224.112 48.0667 222.458 47.16C220.805 46.2267 219.525 44.96 218.618 43.36C217.712 41.76 217.258 39.9733 217.258 38C217.258 36.0267 217.698 34.24 218.578 32.64C219.485 31.04 220.738 29.7867 222.338 28.88C223.938 27.9467 225.765 27.48 227.818 27.48ZM232.538 35.6C232.352 34.5867 231.818 33.8 230.938 33.24C230.085 32.68 229.032 32.4 227.778 32.4C226.472 32.4 225.338 32.72 224.378 33.36C223.418 33.9733 222.912 34.72 222.858 35.6H232.538ZM258.958 44.08C257.971 45.4667 256.718 46.5733 255.198 47.4C253.704 48.2 252.091 48.6 250.358 48.6C248.438 48.6 246.664 48.1333 245.038 47.2C243.438 46.24 242.158 44.9467 241.198 43.32C240.264 41.6933 239.798 39.9333 239.798 38.04C239.798 36.12 240.264 34.36 241.198 32.76C242.158 31.1333 243.438 29.8533 245.038 28.92C246.664 27.96 248.438 27.48 250.358 27.48C252.091 27.48 253.704 27.88 255.198 28.68C256.691 29.48 257.931 30.56 258.918 31.92L254.198 35.04C253.078 33.7867 251.798 33.16 250.358 33.16C249.024 33.16 247.878 33.64 246.918 34.6C245.958 35.56 245.478 36.7067 245.478 38.04C245.478 39.3733 245.958 40.52 246.918 41.48C247.878 42.4133 249.024 42.88 250.358 42.88C251.798 42.88 253.078 42.2533 254.198 41L258.958 44.08ZM276.197 28H281.877V48H276.197V46.48C275.317 47.1467 274.343 47.6533 273.277 48C272.237 48.3733 271.183 48.56 270.117 48.56C268.037 48.56 266.237 48.1067 264.717 47.2C263.223 46.2933 262.077 45.0533 261.277 43.48C260.477 41.88 260.077 40.0667 260.077 38.04C260.077 36.0133 260.477 34.2 261.277 32.6C262.077 30.9733 263.223 29.7067 264.717 28.8C266.237 27.8933 268.037 27.44 270.117 27.44C271.21 27.44 272.277 27.6267 273.317 28C274.357 28.3733 275.317 28.8933 276.197 29.56V28ZM270.877 43.12C272.37 43.12 273.623 42.64 274.637 41.68C275.65 40.72 276.157 39.48 276.157 37.96C276.157 36.4933 275.65 35.2933 274.637 34.36C273.623 33.4267 272.37 32.96 270.877 32.96C269.383 32.96 268.157 33.4267 267.197 34.36C266.237 35.2933 265.757 36.52 265.757 38.04C265.757 39.56 266.237 40.7867 267.197 41.72C268.157 42.6533 269.383 43.12 270.877 43.12ZM291.949 41.68C291.949 42.1067 292.042 42.4133 292.229 42.6C292.442 42.7867 292.789 42.88 293.269 42.88C293.616 42.88 294.029 42.84 294.509 42.76V48C293.202 48.1867 292.189 48.28 291.469 48.28C289.736 48.28 288.429 47.8267 287.549 46.92C286.669 45.9867 286.229 44.36 286.229 42.04V20H291.949V41.68ZM320.138 20C322.751 20 325.151 20.6267 327.338 21.88C329.551 23.1067 331.298 24.8 332.578 26.96C333.884 29.0933 334.538 31.4667 334.538 34.08C334.538 36.6933 333.898 39.0667 332.618 41.2C331.338 43.3067 329.591 44.9733 327.378 46.2C325.164 47.4 322.751 48 320.138 48H308.658V20H320.138ZM320.138 42.28C321.658 42.28 323.058 41.92 324.338 41.2C325.644 40.4533 326.671 39.4533 327.418 38.2C328.164 36.9467 328.537 35.56 328.537 34.04C328.537 32.52 328.164 31.12 327.418 29.84C326.671 28.56 325.644 27.5467 324.338 26.8C323.058 26.0533 321.658 25.68 320.138 25.68H314.658V42.28H320.138ZM347.076 27.48C349.023 27.48 350.756 27.9467 352.276 28.88C353.823 29.8133 355.023 31.08 355.876 32.68C356.73 34.28 357.156 36.0533 357.156 38C357.156 38.7467 357.103 39.4267 356.996 40.04H342.196C342.703 41.2667 343.383 42.1867 344.236 42.8C345.09 43.3867 346.196 43.68 347.556 43.68C348.383 43.68 349.183 43.5067 349.956 43.16C350.756 42.8133 351.383 42.3467 351.836 41.76L356.156 44.32C355.223 45.68 354.01 46.72 352.516 47.44C351.05 48.16 349.356 48.52 347.436 48.52C345.276 48.52 343.37 48.0667 341.716 47.16C340.063 46.2267 338.783 44.96 337.876 43.36C336.97 41.76 336.516 39.9733 336.516 38C336.516 36.0267 336.956 34.24 337.836 32.64C338.743 31.04 339.996 29.7867 341.596 28.88C343.196 27.9467 345.023 27.48 347.076 27.48ZM351.796 35.6C351.61 34.5867 351.076 33.8 350.196 33.24C349.343 32.68 348.29 32.4 347.036 32.4C345.73 32.4 344.596 32.72 343.636 33.36C342.676 33.9733 342.17 34.72 342.116 35.6H351.796ZM365.255 33.68C365.255 34.1333 365.535 34.48 366.095 34.72C366.655 34.9333 367.549 35.16 368.775 35.4C370.349 35.72 371.655 36.08 372.695 36.48C373.735 36.8533 374.642 37.4933 375.415 38.4C376.215 39.28 376.615 40.5067 376.615 42.08C376.615 43.44 376.202 44.6133 375.375 45.6C374.549 46.56 373.455 47.2933 372.095 47.8C370.735 48.28 369.269 48.52 367.695 48.52C365.535 48.52 363.695 48.1333 362.175 47.36C360.655 46.56 359.509 45.3867 358.735 43.84L363.415 41.44C364.055 43.1467 365.482 44 367.695 44C368.602 44 369.389 43.84 370.055 43.52C370.749 43.1733 371.095 42.6933 371.095 42.08C371.095 41.5467 370.775 41.1467 370.135 40.88C369.522 40.6133 368.535 40.3333 367.175 40.04C365.629 39.6933 364.335 39.3333 363.295 38.96C362.255 38.56 361.362 37.96 360.615 37.16C359.869 36.3333 359.495 35.24 359.495 33.88C359.495 32.5733 359.869 31.44 360.615 30.48C361.362 29.4933 362.362 28.7467 363.615 28.24C364.895 27.7333 366.282 27.48 367.775 27.48C369.535 27.48 371.122 27.84 372.535 28.56C373.949 29.28 375.055 30.32 375.855 31.68L371.215 33.96C370.895 33.2933 370.455 32.8 369.895 32.48C369.362 32.16 368.655 32 367.775 32C367.002 32 366.389 32.16 365.935 32.48C365.482 32.7733 365.255 33.1733 365.255 33.68ZM382.431 25.28C381.365 25.28 380.525 25 379.911 24.44C379.325 23.8533 379.031 23.0667 379.031 22.08C379.031 21.0667 379.325 20.2667 379.911 19.68C380.525 19.0933 381.365 18.8 382.431 18.8C383.471 18.8 384.298 19.0933 384.911 19.68C385.525 20.2667 385.831 21.0667 385.831 22.08C385.831 23.0667 385.525 23.8533 384.911 24.44C384.298 25 383.471 25.28 382.431 25.28ZM379.551 48V28H385.271V48H379.551ZM404.673 28H410.393V47C410.393 48.8667 409.9 50.52 408.913 51.96C407.953 53.4 406.62 54.52 404.913 55.32C403.206 56.12 401.286 56.52 399.153 56.52C396.833 56.52 394.7 56.0667 392.753 55.16C390.833 54.28 389.486 53.1333 388.713 51.72L393.593 48.88C393.94 49.5733 394.633 50.1467 395.673 50.6C396.713 51.0533 397.926 51.28 399.313 51.28C400.86 51.28 402.14 50.88 403.153 50.08C404.166 49.28 404.673 48.2533 404.673 47V46.48C403.793 47.1467 402.833 47.6533 401.793 48C400.78 48.3733 399.726 48.56 398.633 48.56C396.553 48.56 394.753 48.1067 393.233 47.2C391.74 46.2933 390.593 45.0533 389.793 43.48C388.993 41.88 388.593 40.0667 388.593 38.04C388.593 36.0133 388.993 34.2 389.793 32.6C390.593 30.9733 391.74 29.7067 393.233 28.8C394.753 27.8933 396.553 27.44 398.633 27.44C399.7 27.44 400.753 27.6267 401.793 28C402.833 28.3467 403.793 28.8533 404.673 29.52V28ZM399.393 43.12C400.886 43.12 402.14 42.64 403.153 41.68C404.166 40.72 404.673 39.48 404.673 37.96C404.673 36.4933 404.166 35.2933 403.153 34.36C402.14 33.4267 400.886 32.96 399.393 32.96C397.9 32.96 396.673 33.4267 395.713 34.36C394.78 35.2933 394.313 36.52 394.313 38.04C394.313 39.56 394.78 40.7867 395.713 41.72C396.673 42.6533 397.9 43.12 399.393 43.12ZM425.852 27.44C427.025 27.44 428.212 27.6933 429.412 28.2C430.612 28.7067 431.638 29.6 432.492 30.88C433.345 32.16 433.772 33.88 433.772 36.04V48H428.052V36.04C428.052 34.76 427.692 33.84 426.972 33.28C426.278 32.72 425.438 32.44 424.452 32.44C423.465 32.44 422.638 32.7867 421.972 33.48C421.332 34.1733 421.012 35.28 421.012 36.8V48H415.292V28H421.012V29.36C422.532 28.08 424.145 27.44 425.852 27.44Z" fill="#EAEAEA"/>
<path d="M47.2799 0.696279C48.8447 2.14924 50.8167 9.04855 51.562 11.3535C52.7262 14.9541 53.7031 17.8834 55.1769 21.3565C56.3528 24.1258 56.8354 28.5849 59.368 30.3786C61.016 31.5467 63.9727 32.0046 64.3929 34.5034C64.8351 37.1349 64.1522 39.8509 62.6576 42.0193C62.0723 42.8687 60.3201 44.3555 60.181 45.2348C59.6606 48.514 62.0306 51.9988 61.5403 55.3288C61.1955 57.6754 59.8844 58.7901 57.5443 57.799C56.8432 57.5024 56.2292 56.5242 55.2822 57.0016C53.9385 58.4389 55.4995 60.3498 53.8657 61.6844C53.0995 62.3113 52.163 62.3426 51.2095 62.0915C49.897 61.7468 49.2961 59.7137 47.6987 60.1937C47.1186 60.368 43.6416 64.5214 42.6725 65.3382C38.9627 68.4679 33.4878 70.8652 28.6268 69.4032C26.4233 68.7411 23.0191 65.9327 21.3034 64.3223C20.3343 63.4131 17.5728 59.9335 16.6362 59.633C14.6174 58.9866 14.5446 61.661 13.7849 62.4987C13.0734 63.2843 11.9079 63.2843 11.0611 62.7653C9.20882 61.6297 9.84489 57.7912 8.97208 57.5258C7.80398 57.1694 6.65019 60.7998 4.36733 59.144C3.07176 58.2035 3.09258 55.7997 3.18884 54.3558C3.41908 50.9244 5.74745 47.2874 3.56996 44.0368C1.61099 41.1113 -0.68617 40.3894 0.193153 36.1255C0.752486 33.412 3.24997 32.616 4.83042 30.8001C6.83101 28.5016 8.24884 24.6682 9.534 21.8846C11.8637 16.835 12.1499 12.0598 14.1804 7.01934C14.6109 5.95141 16.5374 1.68747 17.1474 1.04229C18.0411 0.0979235 19.0127 0.0237792 20.0716 0.739205C21.8302 1.92941 23.9453 8.41507 25.0665 10.5835C25.8327 12.065 26.9228 14.2334 28.7334 14.439C30.2111 14.6068 35.9605 14.6289 37.1807 14.1372C38.8092 13.4816 39.7406 9.67943 40.3936 8.20305C40.8228 7.23397 41.4888 6.38326 41.8934 5.4337C42.4943 4.02106 42.6075 2.22079 43.6039 1.04619C44.6003 -0.128411 46.0936 -0.408078 47.2812 0.693678L47.2799 0.696279ZM18.8189 8.99262C16.9029 9.4674 16.1185 14.7355 16.4307 16.3654C16.7286 17.9237 19.178 16.3875 20.0209 15.8984C21.9135 14.798 22.0045 14.8617 21.453 12.5697C21.2084 11.5564 20.1301 8.66742 18.8189 8.99131V8.99262ZM44.5535 9.41407C43.877 10.0619 42.8898 13.9108 43.172 14.8565C43.6169 16.3459 47.86 18.5312 48.327 16.9403C48.7068 15.6513 47.782 10.7669 46.8519 9.75877C46.3264 9.19033 45.144 8.84823 44.5535 9.41407ZM27.4131 49.3856C27.5276 44.3073 25.1056 34.48 19.6748 32.6303C15.3979 31.1734 12.7443 35.7222 12.3814 39.354C11.8897 44.2696 13.1983 48.7209 16.138 52.6193C19.0648 56.4982 24.3641 63.0268 28.6242 65.1418C34.0458 67.8344 38.9549 64.8439 42.3499 60.5436C47.3436 54.2179 52.8849 47.7609 52.2436 39.1185C51.8443 33.7385 47.2265 28.9075 42.5685 33.9428C39.0356 37.7618 37.5267 44.3242 37.1781 49.3856C37.0207 49.569 34.9823 48.1576 34.5934 48.0067C32.174 47.0637 30.6833 47.6607 28.5656 48.8106C28.1832 49.0187 27.9907 49.5312 27.4145 49.3856H27.4131Z" fill="white"/>
<path d="M27.4131 49.3854C27.9893 49.5311 28.1818 49.0186 28.5643 48.8105C30.6819 47.6606 32.1726 47.0635 34.592 48.0066C34.981 48.1575 37.0193 49.5701 37.1767 49.3854C37.5253 44.3241 39.0329 37.7617 42.5671 33.9426C47.2252 28.9073 51.8429 33.7384 52.2423 39.1184C52.8848 47.7608 47.3422 54.2178 42.3486 60.5435C38.9535 64.8438 34.0457 67.8343 28.6228 65.1417C24.3628 63.0267 19.0634 56.4994 16.1367 52.6192C13.1956 48.7207 11.8883 44.2695 12.38 39.3539C12.7429 35.7221 15.3965 31.1733 19.6735 32.6302C25.1042 34.4799 27.5262 44.3072 27.4118 49.3854H27.4131ZM21.2526 36.4167C19.9688 36.6118 19.5369 39.8963 19.4784 40.9577C19.4055 42.2728 19.5707 47.5956 21.4048 47.6814C22.7901 47.7452 23.2675 45.0421 23.3495 44.0106C23.4587 42.6214 23.6356 36.0551 21.2526 36.4167ZM43.6363 36.4154C43.2357 36.4909 43.0393 36.7289 42.8286 37.0489C41.6904 38.7724 41.7164 45.1332 42.8312 46.8905C43.7768 48.3812 44.8044 47.58 45.3247 46.2467C46.1377 44.1654 46.0922 39.4969 45.1504 37.4638C44.8396 36.7926 44.5039 36.2515 43.6363 36.4154Z" fill="black"/>
<path d="M44.5535 9.41392C45.1453 8.84808 46.3264 9.19019 46.8519 9.75863C47.7833 10.7667 48.7069 15.6511 48.327 16.9402C47.8588 18.531 43.6169 16.3457 43.1721 14.8564C42.8898 13.9107 43.8771 10.0617 44.5535 9.41392Z" fill="black"/>
<path d="M18.819 8.99266C20.1302 8.66747 21.2086 11.5565 21.4531 12.5711C22.0059 14.8631 21.9136 14.7993 20.021 15.8998C19.1781 16.3902 16.7287 17.9251 16.4308 16.3667C16.1186 14.7356 16.903 9.46744 18.819 8.99396V8.99266Z" fill="black"/>
<path d="M43.6362 36.4155C44.5051 36.2503 44.8394 36.7914 45.1503 37.4639C46.0934 39.497 46.1376 44.1668 45.3246 46.2467C44.8043 47.58 43.7767 48.3813 42.8311 46.8906C41.715 45.1333 41.689 38.7725 42.8284 37.0489C43.0392 36.729 43.2356 36.4922 43.6362 36.4155Z" fill="white"/>
<path d="M21.2527 36.4167C23.6357 36.0551 23.4601 42.6214 23.3495 44.0106C23.2676 45.0422 22.7902 47.7452 21.4048 47.6814C19.5694 47.5969 19.4056 42.2728 19.4784 40.9577C19.5369 39.8976 19.9688 36.6118 21.2527 36.4167Z" fill="white"/>
<path d="M28.429 54.4456L31.08 58.6041C31.4781 58.9449 32.014 59.8321 32.5837 59.7423L36.3625 54.9503L36.0581 54.4456H28.4277H28.429Z" fill="white"/>
</svg>
