<svg width="594" height="70" viewBox="0 0 594 70" fill="none" xmlns="http://www.w3.org/2000/svg">
<path d="M111.36 20V25.68H103.96V48H97.92V25.68H90.56V20H111.36ZM132.715 48H126.995V36.2C126.995 34.92 126.635 34 125.915 33.44C125.195 32.8533 124.342 32.56 123.355 32.56C122.528 32.56 121.808 32.8267 121.195 33.36C120.582 33.8667 120.195 34.6667 120.035 35.76V48H114.315V20H120.035V29.44C121.502 28.2133 123.088 27.6 124.795 27.6C125.942 27.6 127.102 27.8533 128.275 28.36C129.475 28.84 130.502 29.7067 131.355 30.96C132.235 32.2133 132.688 33.9067 132.715 36.04V48ZM145.631 27.48C147.578 27.48 149.311 27.9467 150.831 28.88C152.378 29.8133 153.578 31.08 154.431 32.68C155.284 34.28 155.711 36.0533 155.711 38C155.711 38.7467 155.658 39.4267 155.551 40.04H140.751C141.258 41.2667 141.938 42.1867 142.791 42.8C143.644 43.3867 144.751 43.68 146.111 43.68C146.938 43.68 147.738 43.5067 148.511 43.16C149.311 42.8133 149.938 42.3467 150.391 41.76L154.711 44.32C153.778 45.68 152.564 46.72 151.071 47.44C149.604 48.16 147.911 48.52 145.991 48.52C143.831 48.52 141.924 48.0667 140.271 47.16C138.618 46.2267 137.338 44.96 136.431 43.36C135.524 41.76 135.071 39.9733 135.071 38C135.071 36.0267 135.511 34.24 136.391 32.64C137.298 31.04 138.551 29.7867 140.151 28.88C141.751 27.9467 143.578 27.48 145.631 27.48ZM150.351 35.6C150.164 34.5867 149.631 33.8 148.751 33.24C147.898 32.68 146.844 32.4 145.591 32.4C144.284 32.4 143.151 32.72 142.191 33.36C141.231 33.9733 140.724 34.72 140.671 35.6H150.351ZM183.106 48.56C180.492 48.56 178.079 47.9067 175.866 46.6C173.652 45.2933 171.892 43.5333 170.586 41.32C169.306 39.1067 168.666 36.6933 168.666 34.08C168.666 31.4667 169.306 29.0533 170.586 26.84C171.892 24.6267 173.652 22.88 175.866 21.6C178.079 20.2933 180.492 19.64 183.106 19.64C185.719 19.64 188.132 20.2933 190.346 21.6C192.559 22.88 194.306 24.6267 195.586 26.84C196.892 29.0533 197.546 31.4667 197.546 34.08C197.546 36.6933 196.892 39.1067 195.586 41.32C194.306 43.5333 192.559 45.2933 190.346 46.6C188.132 47.9067 185.719 48.56 183.106 48.56ZM183.106 42.52C184.626 42.52 186.026 42.1467 187.306 41.4C188.612 40.6267 189.639 39.6 190.386 38.32C191.159 37.0133 191.546 35.6 191.546 34.08C191.546 32.56 191.159 31.16 190.386 29.88C189.639 28.6 188.612 27.5867 187.306 26.84C186.026 26.0667 184.626 25.68 183.106 25.68C181.586 25.68 180.172 26.0533 178.866 26.8C177.586 27.5467 176.572 28.5733 175.826 29.88C175.079 31.16 174.706 32.56 174.706 34.08C174.706 35.6 175.079 37.0133 175.826 38.32C176.599 39.6 177.626 40.6267 178.906 41.4C180.186 42.1467 181.586 42.52 183.106 42.52ZM199.564 34.08C199.564 31.4667 200.204 29.0533 201.484 26.84C202.791 24.6267 204.551 22.88 206.764 21.6C208.977 20.2933 211.391 19.64 214.004 19.64C216.671 19.64 219.137 20.3333 221.404 21.72C223.671 23.1067 225.431 24.9333 226.684 27.2L221.404 30.04C220.657 28.7067 219.631 27.6533 218.324 26.88C217.017 26.08 215.577 25.68 214.004 25.68C212.484 25.68 211.071 26.0533 209.764 26.8C208.484 27.5467 207.471 28.5733 206.724 29.88C205.977 31.16 205.604 32.56 205.604 34.08C205.604 35.6 205.977 37.0133 206.724 38.32C207.497 39.6 208.524 40.6267 209.804 41.4C211.084 42.1467 212.484 42.52 214.004 42.52C215.577 42.52 217.031 42.12 218.364 41.32C219.697 40.4933 220.724 39.4 221.444 38.04L226.764 40.92C225.511 43.2133 223.737 45.0667 221.444 46.48C219.177 47.8667 216.697 48.56 214.004 48.56C211.391 48.56 208.977 47.9067 206.764 46.6C204.551 45.2933 202.791 43.5333 201.484 41.32C200.204 39.1067 199.564 36.6933 199.564 34.08ZM249.131 33C249.984 33.8 250.651 34.7467 251.131 35.84C251.611 36.9333 251.851 38.0933 251.851 39.32C251.851 40.8667 251.477 42.3067 250.731 43.64C249.984 44.9733 248.971 46.0267 247.691 46.8C246.437 47.5733 245.064 47.96 243.571 47.96H236.611V48H230.611V20H242.931C244.344 20 245.651 20.3733 246.851 21.12C248.051 21.84 248.997 22.8267 249.691 24.08C250.411 25.3067 250.771 26.6267 250.771 28.04C250.771 28.92 250.624 29.8 250.331 30.68C250.064 31.5333 249.664 32.3067 249.131 33ZM236.611 25.72V30.88L242.931 30.84C243.517 30.84 244.051 30.6 244.531 30.12C245.011 29.6133 245.251 29 245.251 28.28C245.251 27.5333 245.011 26.92 244.531 26.44C244.051 25.96 243.517 25.72 242.931 25.72H236.611ZM243.571 42.24C244.264 42.24 244.864 41.9467 245.371 41.36C245.877 40.7733 246.131 40.08 246.131 39.28C246.131 38.48 245.877 37.7867 245.371 37.2C244.864 36.6133 244.264 36.32 243.571 36.32H236.611V42.24H243.571ZM254.33 34.08C254.33 31.4667 254.97 29.0533 256.25 26.84C257.556 24.6267 259.316 22.88 261.53 21.6C263.743 20.2933 266.156 19.64 268.77 19.64C271.436 19.64 273.903 20.3333 276.17 21.72C278.436 23.1067 280.196 24.9333 281.45 27.2L276.17 30.04C275.423 28.7067 274.396 27.6533 273.09 26.88C271.783 26.08 270.343 25.68 268.77 25.68C267.25 25.68 265.836 26.0533 264.53 26.8C263.25 27.5467 262.236 28.5733 261.49 29.88C260.743 31.16 260.37 32.56 260.37 34.08C260.37 35.6 260.743 37.0133 261.49 38.32C262.263 39.6 263.29 40.6267 264.57 41.4C265.85 42.1467 267.25 42.52 268.77 42.52C270.343 42.52 271.796 42.12 273.13 41.32C274.463 40.4933 275.49 39.4 276.21 38.04L281.53 40.92C280.276 43.2133 278.503 45.0667 276.21 46.48C273.943 47.8667 271.463 48.56 268.77 48.56C266.156 48.56 263.743 47.9067 261.53 46.6C259.316 45.2933 257.556 43.5333 256.25 41.32C254.97 39.1067 254.33 36.6933 254.33 34.08ZM311.091 48L305.891 38.64H301.611V48H295.611V20H307.171C308.877 20 310.437 20.4133 311.851 21.24C313.291 22.0667 314.424 23.2 315.251 24.64C316.104 26.0533 316.531 27.6133 316.531 29.32C316.531 31 316.117 32.5467 315.291 33.96C314.491 35.3733 313.397 36.4933 312.011 37.32L318.011 48H311.091ZM301.611 25.72V32.92H307.171C308.157 32.92 309.011 32.5733 309.731 31.88C310.451 31.16 310.811 30.3067 310.811 29.32C310.811 28.3333 310.451 27.4933 309.731 26.8C309.037 26.08 308.184 25.72 307.171 25.72H301.611ZM326.259 36.6V42.28H337.619V48H320.259V20H337.379V25.68H326.259V30.88H336.419V36.6H326.259ZM353.145 20C355.759 20 358.159 20.6267 360.345 21.88C362.559 23.1067 364.305 24.8 365.585 26.96C366.892 29.0933 367.545 31.4667 367.545 34.08C367.545 36.6933 366.905 39.0667 365.625 41.2C364.345 43.3067 362.599 44.9733 360.385 46.2C358.172 47.4 355.759 48 353.145 48H341.665V20H353.145ZM353.145 42.28C354.665 42.28 356.065 41.92 357.345 41.2C358.652 40.4533 359.679 39.4533 360.425 38.2C361.172 36.9467 361.545 35.56 361.545 34.04C361.545 32.52 361.172 31.12 360.425 29.84C359.679 28.56 358.652 27.5467 357.345 26.8C356.065 26.0533 354.665 25.68 353.145 25.68H347.665V42.28H353.145ZM380.58 34.08C380.58 31.4667 381.22 29.0533 382.5 26.84C383.806 24.6267 385.566 22.88 387.78 21.6C389.993 20.2933 392.406 19.64 395.02 19.64C397.686 19.64 400.153 20.3333 402.42 21.72C404.686 23.1067 406.446 24.9333 407.7 27.2L402.42 30.04C401.673 28.7067 400.646 27.6533 399.34 26.88C398.033 26.08 396.593 25.68 395.02 25.68C393.5 25.68 392.086 26.0533 390.78 26.8C389.5 27.5467 388.486 28.5733 387.74 29.88C386.993 31.16 386.62 32.56 386.62 34.08C386.62 35.6 386.993 37.0133 387.74 38.32C388.513 39.6 389.54 40.6267 390.82 41.4C392.1 42.1467 393.5 42.52 395.02 42.52C396.593 42.52 398.046 42.12 399.38 41.32C400.713 40.4933 401.74 39.4 402.46 38.04L407.78 40.92C406.526 43.2133 404.753 45.0667 402.46 46.48C400.193 47.8667 397.713 48.56 395.02 48.56C392.406 48.56 389.993 47.9067 387.78 46.6C385.566 45.2933 383.806 43.5333 382.5 41.32C381.22 39.1067 380.58 36.6933 380.58 34.08ZM419.693 48.6C417.773 48.6 416 48.1333 414.373 47.2C412.773 46.24 411.493 44.9467 410.533 43.32C409.6 41.6933 409.133 39.9333 409.133 38.04C409.133 36.12 409.6 34.36 410.533 32.76C411.493 31.1333 412.773 29.8533 414.373 28.92C416 27.96 417.773 27.48 419.693 27.48C421.587 27.48 423.333 27.96 424.933 28.92C426.56 29.8533 427.84 31.1333 428.773 32.76C429.733 34.36 430.213 36.12 430.213 38.04C430.213 39.9333 429.733 41.6933 428.773 43.32C427.84 44.9467 426.56 46.24 424.933 47.2C423.333 48.1333 421.587 48.6 419.693 48.6ZM419.653 42.88C420.987 42.88 422.133 42.4133 423.093 41.48C424.053 40.52 424.533 39.3733 424.533 38.04C424.533 36.7067 424.053 35.56 423.093 34.6C422.133 33.64 420.987 33.16 419.653 33.16C418.32 33.16 417.173 33.64 416.213 34.6C415.28 35.56 414.813 36.7067 414.813 38.04C414.813 39.3733 415.28 40.52 416.213 41.48C417.173 42.4133 418.32 42.88 419.653 42.88ZM443.781 27.44C444.955 27.44 446.141 27.6933 447.341 28.2C448.541 28.7067 449.568 29.6 450.421 30.88C451.275 32.16 451.701 33.88 451.701 36.04V48H445.981V36.04C445.981 34.76 445.621 33.84 444.901 33.28C444.208 32.72 443.368 32.44 442.381 32.44C441.395 32.44 440.568 32.7867 439.901 33.48C439.261 34.1733 438.941 35.28 438.941 36.8V48H433.221V28H438.941V29.36C440.461 28.08 442.075 27.44 443.781 27.44ZM467.829 24.88C467.189 24.8 466.602 24.76 466.069 24.76C465.216 24.76 464.576 24.9067 464.149 25.2C463.749 25.4933 463.549 26.0133 463.549 26.76V28H467.789V33.08H463.549V48H457.829V33.08H454.709V28H457.829V26.4C457.829 23.76 458.376 21.9467 459.469 20.96C460.589 19.9467 462.282 19.44 464.549 19.44C465.456 19.44 466.549 19.5067 467.829 19.64V24.88ZM479.225 27.48C481.171 27.48 482.905 27.9467 484.425 28.88C485.971 29.8133 487.171 31.08 488.025 32.68C488.878 34.28 489.305 36.0533 489.305 38C489.305 38.7467 489.251 39.4267 489.145 40.04H474.345C474.851 41.2667 475.531 42.1867 476.385 42.8C477.238 43.3867 478.345 43.68 479.705 43.68C480.531 43.68 481.331 43.5067 482.105 43.16C482.905 42.8133 483.531 42.3467 483.985 41.76L488.305 44.32C487.371 45.68 486.158 46.72 484.665 47.44C483.198 48.16 481.505 48.52 479.585 48.52C477.425 48.52 475.518 48.0667 473.865 47.16C472.211 46.2267 470.931 44.96 470.025 43.36C469.118 41.76 468.665 39.9733 468.665 38C468.665 36.0267 469.105 34.24 469.985 32.64C470.891 31.04 472.145 29.7867 473.745 28.88C475.345 27.9467 477.171 27.48 479.225 27.48ZM483.945 35.6C483.758 34.5867 483.225 33.8 482.345 33.24C481.491 32.68 480.438 32.4 479.185 32.4C477.878 32.4 476.745 32.72 475.785 33.36C474.825 33.9733 474.318 34.72 474.265 35.6H483.945ZM504.844 27.6L504.444 33C504.257 32.92 503.95 32.88 503.524 32.88C501.897 32.88 500.564 33.3467 499.524 34.28C498.51 35.1867 498.004 36.3867 498.004 37.88V48H492.284V28H498.004V31.24C498.484 30.2 499.257 29.3333 500.324 28.64C501.39 27.9467 502.684 27.6 504.204 27.6H504.844ZM516.412 27.48C518.359 27.48 520.092 27.9467 521.612 28.88C523.159 29.8133 524.359 31.08 525.212 32.68C526.066 34.28 526.492 36.0533 526.492 38C526.492 38.7467 526.439 39.4267 526.332 40.04H511.532C512.039 41.2667 512.719 42.1867 513.572 42.8C514.426 43.3867 515.532 43.68 516.892 43.68C517.719 43.68 518.519 43.5067 519.292 43.16C520.092 42.8133 520.719 42.3467 521.172 41.76L525.492 44.32C524.559 45.68 523.346 46.72 521.852 47.44C520.386 48.16 518.692 48.52 516.772 48.52C514.612 48.52 512.706 48.0667 511.052 47.16C509.399 46.2267 508.119 44.96 507.212 43.36C506.306 41.76 505.852 39.9733 505.852 38C505.852 36.0267 506.292 34.24 507.172 32.64C508.079 31.04 509.332 29.7867 510.932 28.88C512.532 27.9467 514.359 27.48 516.412 27.48ZM521.132 35.6C520.946 34.5867 520.412 33.8 519.532 33.24C518.679 32.68 517.626 32.4 516.372 32.4C515.066 32.4 513.932 32.72 512.972 33.36C512.012 33.9733 511.506 34.72 511.452 35.6H521.132ZM540.031 27.44C541.205 27.44 542.391 27.6933 543.591 28.2C544.791 28.7067 545.818 29.6 546.671 30.88C547.525 32.16 547.951 33.88 547.951 36.04V48H542.231V36.04C542.231 34.76 541.871 33.84 541.151 33.28C540.458 32.72 539.618 32.44 538.631 32.44C537.645 32.44 536.818 32.7867 536.151 33.48C535.511 34.1733 535.191 35.28 535.191 36.8V48H529.471V28H535.191V29.36C536.711 28.08 538.325 27.44 540.031 27.44ZM569.778 44.08C568.791 45.4667 567.538 46.5733 566.018 47.4C564.524 48.2 562.911 48.6 561.178 48.6C559.258 48.6 557.484 48.1333 555.858 47.2C554.258 46.24 552.978 44.9467 552.018 43.32C551.084 41.6933 550.618 39.9333 550.618 38.04C550.618 36.12 551.084 34.36 552.018 32.76C552.978 31.1333 554.258 29.8533 555.858 28.92C557.484 27.96 559.258 27.48 561.178 27.48C562.911 27.48 564.524 27.88 566.018 28.68C567.511 29.48 568.751 30.56 569.738 31.92L565.018 35.04C563.898 33.7867 562.618 33.16 561.178 33.16C559.844 33.16 558.698 33.64 557.738 34.6C556.778 35.56 556.298 36.7067 556.298 38.04C556.298 39.3733 556.778 40.52 557.738 41.48C558.698 42.4133 559.844 42.88 561.178 42.88C562.618 42.88 563.898 42.2533 565.018 41L569.778 44.08ZM581.647 27.48C583.593 27.48 585.327 27.9467 586.847 28.88C588.393 29.8133 589.593 31.08 590.447 32.68C591.3 34.28 591.727 36.0533 591.727 38C591.727 38.7467 591.673 39.4267 591.567 40.04H576.767C577.273 41.2667 577.953 42.1867 578.807 42.8C579.66 43.3867 580.767 43.68 582.127 43.68C582.953 43.68 583.753 43.5067 584.527 43.16C585.327 42.8133 585.953 42.3467 586.407 41.76L590.727 44.32C589.793 45.68 588.58 46.72 587.087 47.44C585.62 48.16 583.927 48.52 582.007 48.52C579.847 48.52 577.94 48.0667 576.287 47.16C574.633 46.2267 573.353 44.96 572.447 43.36C571.54 41.76 571.087 39.9733 571.087 38C571.087 36.0267 571.527 34.24 572.407 32.64C573.313 31.04 574.567 29.7867 576.167 28.88C577.767 27.9467 579.593 27.48 581.647 27.48ZM586.367 35.6C586.18 34.5867 585.647 33.8 584.767 33.24C583.913 32.68 582.86 32.4 581.607 32.4C580.3 32.4 579.167 32.72 578.207 33.36C577.247 33.9733 576.74 34.72 576.687 35.6H586.367Z" fill="#EAEAEA"/>
<path d="M47.2799 0.696279C48.8447 2.14924 50.8167 9.04855 51.562 11.3535C52.7262 14.9541 53.7031 17.8834 55.1769 21.3565C56.3528 24.1258 56.8354 28.5849 59.368 30.3786C61.016 31.5467 63.9727 32.0046 64.3929 34.5034C64.8351 37.1349 64.1522 39.8509 62.6576 42.0193C62.0723 42.8687 60.3201 44.3555 60.181 45.2348C59.6606 48.514 62.0306 51.9988 61.5403 55.3288C61.1955 57.6754 59.8844 58.7901 57.5443 57.799C56.8432 57.5024 56.2292 56.5242 55.2822 57.0016C53.9385 58.4389 55.4995 60.3498 53.8657 61.6844C53.0995 62.3113 52.163 62.3426 51.2095 62.0915C49.897 61.7468 49.2961 59.7137 47.6987 60.1937C47.1186 60.368 43.6416 64.5214 42.6725 65.3382C38.9627 68.4679 33.4878 70.8652 28.6268 69.4032C26.4233 68.7411 23.0191 65.9327 21.3034 64.3223C20.3343 63.4131 17.5728 59.9335 16.6362 59.633C14.6174 58.9866 14.5446 61.661 13.7849 62.4987C13.0734 63.2843 11.9079 63.2843 11.0611 62.7653C9.20882 61.6297 9.84489 57.7912 8.97208 57.5258C7.80398 57.1694 6.65019 60.7998 4.36733 59.144C3.07176 58.2035 3.09258 55.7997 3.18884 54.3558C3.41908 50.9244 5.74745 47.2874 3.56996 44.0368C1.61099 41.1113 -0.68617 40.3894 0.193153 36.1255C0.752486 33.412 3.24998 32.616 4.83042 30.8001C6.83101 28.5016 8.24884 24.6682 9.534 21.8846C11.8637 16.835 12.1499 12.0598 14.1804 7.01934C14.6109 5.95141 16.5374 1.68747 17.1474 1.04229C18.0411 0.0979235 19.0127 0.0237792 20.0716 0.739205C21.8302 1.92941 23.9453 8.41507 25.0665 10.5835C25.8327 12.065 26.9228 14.2334 28.7334 14.439C30.2111 14.6068 35.9605 14.6289 37.1807 14.1372C38.8092 13.4816 39.7406 9.67942 40.3936 8.20305C40.8228 7.23397 41.4888 6.38326 41.8934 5.4337C42.4943 4.02106 42.6075 2.22079 43.6039 1.04619C44.6003 -0.128411 46.0936 -0.408078 47.2812 0.693678L47.2799 0.696279ZM18.8189 8.99262C16.9029 9.4674 16.1185 14.7355 16.4307 16.3654C16.7286 17.9237 19.178 16.3875 20.0209 15.8984C21.9135 14.798 22.0045 14.8617 21.453 12.5697C21.2084 11.5564 20.1301 8.66742 18.8189 8.99131V8.99262ZM44.5535 9.41407C43.877 10.0619 42.8898 13.9108 43.172 14.8565C43.6169 16.3459 47.86 18.5312 48.327 16.9403C48.7068 15.6513 47.782 10.7669 46.8519 9.75877C46.3264 9.19033 45.144 8.84823 44.5535 9.41407ZM27.4131 49.3855C27.5276 44.3073 25.1056 34.48 19.6748 32.6303C15.3979 31.1734 12.7443 35.7222 12.3814 39.354C11.8897 44.2696 13.1983 48.7209 16.138 52.6193C19.0648 56.4982 24.3641 63.0268 28.6242 65.1418C34.0458 67.8344 38.9549 64.8439 42.3499 60.5436C47.3436 54.2179 52.8849 47.7609 52.2436 39.1185C51.8443 33.7385 47.2265 28.9075 42.5685 33.9428C39.0356 37.7618 37.5267 44.3242 37.1781 49.3855C37.0207 49.569 34.9823 48.1576 34.5934 48.0067C32.174 47.0637 30.6833 47.6607 28.5656 48.8106C28.1832 49.0187 27.9907 49.5312 27.4145 49.3855H27.4131Z" fill="white"/>
<path d="M27.4136 49.3853C27.9898 49.531 28.1823 49.0185 28.5648 48.8104C30.6824 47.6605 32.1731 47.0634 34.5925 48.0065C34.9815 48.1574 37.0198 49.57 37.1772 49.3853C37.5258 44.324 39.0334 37.7616 42.5676 33.9425C47.2257 28.9072 51.8434 33.7383 52.2427 39.1183C52.8853 47.7606 47.3427 54.2177 42.3491 60.5433C38.954 64.8437 34.0462 67.8342 28.6233 65.1416C24.3632 63.0265 19.0639 56.4992 16.1372 52.619C13.1961 48.7206 11.8888 44.2694 12.3805 39.3537C12.7434 35.722 15.397 31.1732 19.674 32.63C25.1047 34.4797 27.5267 44.3071 27.4123 49.3853H27.4136ZM21.2531 36.4166C19.9692 36.6117 19.5374 39.8962 19.4788 40.9576C19.406 42.2727 19.5712 47.5954 21.4053 47.6813C22.7906 47.745 23.268 45.042 23.35 44.0105C23.4592 42.6213 23.6361 36.055 21.2531 36.4166ZM43.6368 36.4153C43.2362 36.4907 43.0398 36.7288 42.829 37.0488C41.6909 38.7723 41.7169 45.1331 42.8316 46.8904C43.7773 48.3811 44.8049 47.5798 45.3252 46.2465C46.1382 44.1653 46.0927 39.4968 45.1509 37.4637C44.84 36.7925 44.5044 36.2514 43.6368 36.4153Z" fill="black"/>
<path d="M44.553 9.41392C45.1448 8.84808 46.3259 9.19019 46.8515 9.75863C47.7828 10.7667 48.7064 15.6511 48.3265 16.9402C47.8583 18.531 43.6164 16.3457 43.1716 14.8564C42.8893 13.9107 43.8766 10.0617 44.553 9.41392Z" fill="black"/>
<path d="M18.819 8.99254C20.1302 8.66735 21.2086 11.5564 21.4531 12.571C22.0059 14.8629 21.9136 14.7992 20.021 15.8996C19.1781 16.39 16.7287 17.925 16.4308 16.3666C16.1186 14.7355 16.903 9.46732 18.819 8.99384V8.99254Z" fill="black"/>
<path d="M43.6367 36.4153C44.5056 36.2501 44.8399 36.7913 45.1508 37.4638C46.0939 39.4969 46.1381 44.1667 45.3251 46.2466C44.8048 47.5799 43.7772 48.3812 42.8315 46.8905C41.7155 45.1331 41.6895 38.7723 42.8289 37.0488C43.0397 36.7288 43.2361 36.4921 43.6367 36.4153Z" fill="white"/>
<path d="M21.2527 36.4168C23.6357 36.0552 23.4601 42.6215 23.3495 44.0108C23.2676 45.0423 22.7902 47.7453 21.4048 47.6815C19.5694 47.597 19.4056 42.2729 19.4784 40.9578C19.5369 39.8977 19.9688 36.612 21.2527 36.4168Z" fill="white"/>
<path d="M28.429 54.4454L31.08 58.604C31.4781 58.9448 32.014 59.8319 32.5837 59.7422L36.3625 54.9501L36.0581 54.4454H28.4277H28.429Z" fill="white"/>
</svg>
