<svg width="355" height="62" viewBox="0 0 355 62" fill="none" xmlns="http://www.w3.org/2000/svg">
<path d="M115.813 0.0195312C120.047 0.0253568 123.359 0.0338752 127.413 0.0449219C128.916 0.0490179 130.522 0.0540009 132.314 0.0585938C138.989 0.0756961 148.483 0.0957156 165.389 0.118164C199.261 0.16314 262.616 0.222097 300.368 0.230469C312.8 0.233225 322.233 0.230345 330.134 0.223633C342.383 0.501221 350.343 7.93102 353.45 17.3398C354.153 19.5901 354.554 22.0178 354.56 24.5859C354.563 26.269 354.567 28.0139 354.57 29.8389C354.575 32.1153 354.579 34.365 354.583 36.5859C354.797 50.9242 341.832 61.5199 330.134 61.1016C325.722 61.1093 321.493 61.117 317.457 61.124C311.037 61.1352 305.102 61.1456 299.701 61.1553C280.825 61.1892 268.793 61.2143 264.608 61.2412C241.546 61.3897 217.158 61.3984 186.42 61.4082C176.184 61.4115 165.241 61.4148 153.412 61.4238C102.239 61.6268 50.8448 61.6249 0 61.4863C0.0136823 61.3591 0.0245347 61.2314 0.0361328 61.1035C50.9825 61.0943 101.517 61.0539 153.071 61.1875C165.292 61.1782 176.462 61.1742 186.811 61.1709C217.266 61.1611 240.639 61.1533 262.92 61.0098C267.805 60.9783 280.61 60.9522 299.113 60.9189C304.536 60.9092 310.484 60.8989 316.912 60.8877C321.116 60.8804 325.526 60.8724 330.134 60.8643C341.73 61.2766 354.557 50.7784 354.346 36.5859C354.342 34.5711 354.338 32.5325 354.334 30.4717C354.33 28.4198 354.326 26.4664 354.322 24.5859C354.317 22.314 354.002 20.1513 353.433 18.1133C350.609 8.57188 342.664 0.757014 330.134 0.459961C322.225 0.466575 312.795 0.469532 300.462 0.466797C262.594 0.4584 199.145 0.399549 165.212 0.354492C148.217 0.331926 138.623 0.311336 131.836 0.293945C129.946 0.289103 128.284 0.284429 126.759 0.280273C122.775 0.269418 119.681 0.260464 115.626 0.254883C86.4269 0.214706 65.9841 0.243142 32.4932 0.300781C30.3953 0.304374 28.5657 0.253589 28.4062 0.188477C28.2488 0.123325 29.8225 0.0680964 31.9209 0.0644531C65.4615 0.00672848 86.2164 -0.0211934 115.813 0.0195312ZM330.134 1.58594C342.836 1.58594 353.134 11.8834 353.134 24.5859V36.585C353.134 46.9563 346.269 55.7229 336.835 58.5918C334.662 59.2942 332.4 59.6496 330.134 59.5859C297.029 59.7299 269.522 59.9247 257.271 60.0117C254.795 60.0293 252.935 60.0424 251.787 60.0498C249.734 60.063 247.689 60.0219 247.222 59.958C246.759 59.8942 248.048 59.8316 250.099 59.8184C251.184 59.8114 252.968 59.7993 255.368 59.7822C261.496 59.7387 271.656 59.6656 284.549 59.5859H6.84082C13.2618 59.6133 20.4688 59.6368 29.708 59.6416C40.5373 59.6472 53.927 59.6591 68.2549 59.6729C97.3225 59.7007 130.262 59.7326 153.561 59.7148C155.663 59.7133 157.445 59.7648 157.538 59.8301C157.625 59.8952 155.996 59.9496 153.896 59.9512C130.397 59.969 96.9916 59.9372 67.7988 59.9092C53.5621 59.8955 40.3265 59.8824 29.7305 59.877C17.2085 59.8705 8.22436 59.8319 0.118164 59.791C0.127057 59.5282 0.133789 59.264 0.133789 58.999V1.58594H330.134Z" fill="white"/>
<path d="M46.775 23.5V31.855H49.535V34H41.585V31.855H44.525V25.96L43.055 26.935L41.855 25.18L44.525 23.5H46.775ZM50.786 25.63V23.5H58.586V25.105L54.611 34H52.151L55.886 25.63H50.786ZM62.957 31.33C62.957 31.61 63.032 31.805 63.182 31.915C63.342 32.025 63.582 32.08 63.902 32.08C64.102 32.08 64.322 32.065 64.562 32.035V34C64.062 34.05 63.647 34.075 63.317 34.075C62.477 34.075 61.847 33.89 61.427 33.52C61.017 33.14 60.812 32.455 60.812 31.465V28.405H59.522V26.5H60.812V24.76L62.957 24.04V26.5H64.532V28.405H62.957V31.33ZM72.7505 34H70.6055V29.575C70.6055 29.095 70.4705 28.75 70.2005 28.54C69.9305 28.32 69.6105 28.21 69.2405 28.21C68.9305 28.21 68.6605 28.31 68.4305 28.51C68.2005 28.7 68.0555 29 67.9955 29.41V34H65.8505V23.5H67.9955V27.04C68.5455 26.58 69.1405 26.35 69.7805 26.35C70.2105 26.35 70.6455 26.445 71.0855 26.635C71.5355 26.815 71.9205 27.14 72.2405 27.61C72.5705 28.08 72.7405 28.715 72.7505 29.515V34ZM81.9467 34.195C80.9067 34.195 80.0317 33.965 79.3217 33.505C78.6217 33.045 78.1267 32.42 77.8367 31.63L79.7417 30.52C79.9417 31.02 80.2217 31.39 80.5817 31.63C80.9517 31.87 81.4267 31.99 82.0067 31.99C82.4767 31.99 82.8367 31.88 83.0867 31.66C83.3467 31.44 83.4767 31.195 83.4767 30.925C83.4767 30.725 83.4167 30.555 83.2967 30.415C83.1767 30.275 82.9717 30.145 82.6817 30.025C82.3917 29.895 81.9717 29.75 81.4217 29.59C80.4617 29.31 79.6967 28.93 79.1267 28.45C78.5567 27.97 78.2717 27.285 78.2717 26.395C78.2717 25.765 78.4267 25.22 78.7367 24.76C79.0567 24.29 79.4767 23.93 79.9967 23.68C80.5267 23.43 81.0967 23.305 81.7067 23.305C82.5567 23.305 83.3017 23.51 83.9417 23.92C84.5817 24.32 85.0817 24.89 85.4417 25.63L83.4917 26.74C83.3017 26.32 83.0617 26.015 82.7717 25.825C82.4817 25.625 82.1267 25.525 81.7067 25.525C81.3867 25.525 81.1117 25.615 80.8817 25.795C80.6517 25.965 80.5367 26.165 80.5367 26.395C80.5367 26.585 80.5817 26.75 80.6717 26.89C80.7717 27.02 80.9467 27.145 81.1967 27.265C81.4567 27.385 81.8367 27.52 82.3367 27.67C83.0067 27.88 83.5817 28.115 84.0617 28.375C84.5517 28.625 84.9517 28.97 85.2617 29.41C85.5817 29.85 85.7417 30.4 85.7417 31.06C85.7417 31.69 85.5767 32.245 85.2467 32.725C84.9167 33.195 84.4617 33.56 83.8817 33.82C83.3117 34.07 82.6667 34.195 81.9467 34.195ZM90.3089 26.305C91.0389 26.305 91.6889 26.48 92.2589 26.83C92.8389 27.18 93.2889 27.655 93.6089 28.255C93.9289 28.855 94.0889 29.52 94.0889 30.25C94.0889 30.53 94.0689 30.785 94.0289 31.015H88.4789C88.6689 31.475 88.9239 31.82 89.2439 32.05C89.5639 32.27 89.9789 32.38 90.4889 32.38C90.7989 32.38 91.0989 32.315 91.3889 32.185C91.6889 32.055 91.9239 31.88 92.0939 31.66L93.7139 32.62C93.3639 33.13 92.9089 33.52 92.3489 33.79C91.7989 34.06 91.1639 34.195 90.4439 34.195C89.6339 34.195 88.9189 34.025 88.2989 33.685C87.6789 33.335 87.1989 32.86 86.8589 32.26C86.5189 31.66 86.3489 30.99 86.3489 30.25C86.3489 29.51 86.5139 28.84 86.8439 28.24C87.1839 27.64 87.6539 27.17 88.2539 26.83C88.8539 26.48 89.5389 26.305 90.3089 26.305ZM92.0789 29.35C92.0089 28.97 91.8089 28.675 91.4789 28.465C91.1589 28.255 90.7639 28.15 90.2939 28.15C89.8039 28.15 89.3789 28.27 89.0189 28.51C88.6589 28.74 88.4689 29.02 88.4489 29.35H92.0789ZM99.909 26.305C100.689 26.305 101.359 26.475 101.919 26.815C102.489 27.155 102.924 27.625 103.224 28.225C103.524 28.815 103.674 29.49 103.674 30.25C103.674 31.01 103.524 31.69 103.224 32.29C102.924 32.89 102.489 33.365 101.919 33.715C101.359 34.055 100.689 34.225 99.909 34.225C99.509 34.225 99.114 34.155 98.724 34.015C98.334 33.885 97.974 33.695 97.644 33.445V37H95.499V26.5H97.644V27.085C97.974 26.835 98.329 26.645 98.709 26.515C99.099 26.375 99.499 26.305 99.909 26.305ZM99.624 32.14C100.184 32.14 100.639 31.97 100.989 31.63C101.349 31.28 101.529 30.82 101.529 30.25C101.529 29.68 101.349 29.22 100.989 28.87C100.639 28.52 100.184 28.345 99.624 28.345C99.064 28.345 98.594 28.525 98.214 28.885C97.834 29.245 97.644 29.705 97.644 30.265C97.644 30.825 97.829 31.28 98.199 31.63C98.579 31.97 99.054 32.14 99.624 32.14ZM107.605 31.33C107.605 31.61 107.68 31.805 107.83 31.915C107.99 32.025 108.23 32.08 108.55 32.08C108.75 32.08 108.97 32.065 109.21 32.035V34C108.71 34.05 108.295 34.075 107.965 34.075C107.125 34.075 106.495 33.89 106.075 33.52C105.665 33.14 105.46 32.455 105.46 31.465V28.405H104.17V26.5H105.46V24.76L107.605 24.04V26.5H109.18V28.405H107.605V31.33ZM113.966 26.305C114.696 26.305 115.346 26.48 115.916 26.83C116.496 27.18 116.946 27.655 117.266 28.255C117.586 28.855 117.746 29.52 117.746 30.25C117.746 30.53 117.726 30.785 117.686 31.015H112.136C112.326 31.475 112.581 31.82 112.901 32.05C113.221 32.27 113.636 32.38 114.146 32.38C114.456 32.38 114.756 32.315 115.046 32.185C115.346 32.055 115.581 31.88 115.751 31.66L117.371 32.62C117.021 33.13 116.566 33.52 116.006 33.79C115.456 34.06 114.821 34.195 114.101 34.195C113.291 34.195 112.576 34.025 111.956 33.685C111.336 33.335 110.856 32.86 110.516 32.26C110.176 31.66 110.006 30.99 110.006 30.25C110.006 29.51 110.171 28.84 110.501 28.24C110.841 27.64 111.311 27.17 111.911 26.83C112.511 26.48 113.196 26.305 113.966 26.305ZM115.736 29.35C115.666 28.97 115.466 28.675 115.136 28.465C114.816 28.255 114.421 28.15 113.951 28.15C113.461 28.15 113.036 28.27 112.676 28.51C112.316 28.74 112.126 29.02 112.106 29.35H115.736ZM127.533 26.29C127.973 26.29 128.418 26.385 128.868 26.575C129.318 26.765 129.703 27.1 130.023 27.58C130.343 28.06 130.503 28.705 130.503 29.515V34H128.373V29.515C128.373 29.035 128.238 28.69 127.968 28.48C127.698 28.27 127.378 28.165 127.008 28.165C126.698 28.165 126.428 28.26 126.198 28.45C125.978 28.63 125.833 28.915 125.763 29.305V29.515V34H123.618V29.515C123.618 29.035 123.483 28.69 123.213 28.48C122.943 28.27 122.623 28.165 122.253 28.165C121.943 28.165 121.673 28.26 121.443 28.45C121.213 28.64 121.068 28.945 121.008 29.365V34H118.863V26.5H121.008V26.98C121.558 26.52 122.153 26.29 122.793 26.29C123.233 26.29 123.678 26.385 124.128 26.575C124.588 26.765 124.963 27.08 125.253 27.52C125.513 27.17 125.843 26.88 126.243 26.65C126.643 26.41 127.073 26.29 127.533 26.29ZM136.798 26.29C137.578 26.29 138.248 26.46 138.808 26.8C139.378 27.14 139.813 27.615 140.113 28.225C140.413 28.825 140.563 29.505 140.563 30.265C140.563 31.025 140.413 31.705 140.113 32.305C139.813 32.895 139.378 33.36 138.808 33.7C138.248 34.04 137.578 34.21 136.798 34.21C136.348 34.21 135.913 34.13 135.493 33.97C135.073 33.81 134.688 33.58 134.338 33.28V34H132.193V23.5H134.338V27.235C134.688 26.935 135.073 26.705 135.493 26.545C135.913 26.375 136.348 26.29 136.798 26.29ZM136.513 32.17C137.073 32.17 137.528 31.995 137.878 31.645C138.238 31.295 138.418 30.835 138.418 30.265C138.418 29.695 138.238 29.235 137.878 28.885C137.528 28.535 137.073 28.36 136.513 28.36C135.953 28.36 135.483 28.535 135.103 28.885C134.723 29.235 134.533 29.685 134.533 30.235C134.533 30.805 134.723 31.27 135.103 31.63C135.483 31.99 135.953 32.17 136.513 32.17ZM145.372 26.305C146.102 26.305 146.752 26.48 147.322 26.83C147.902 27.18 148.352 27.655 148.672 28.255C148.992 28.855 149.152 29.52 149.152 30.25C149.152 30.53 149.132 30.785 149.092 31.015H143.542C143.732 31.475 143.987 31.82 144.307 32.05C144.627 32.27 145.042 32.38 145.552 32.38C145.862 32.38 146.162 32.315 146.452 32.185C146.752 32.055 146.987 31.88 147.157 31.66L148.777 32.62C148.427 33.13 147.972 33.52 147.412 33.79C146.862 34.06 146.227 34.195 145.507 34.195C144.697 34.195 143.982 34.025 143.362 33.685C142.742 33.335 142.262 32.86 141.922 32.26C141.582 31.66 141.412 30.99 141.412 30.25C141.412 29.51 141.577 28.84 141.907 28.24C142.247 27.64 142.717 27.17 143.317 26.83C143.917 26.48 144.602 26.305 145.372 26.305ZM147.142 29.35C147.072 28.97 146.872 28.675 146.542 28.465C146.222 28.255 145.827 28.15 145.357 28.15C144.867 28.15 144.442 28.27 144.082 28.51C143.722 28.74 143.532 29.02 143.512 29.35H147.142ZM154.979 26.35L154.829 28.375C154.759 28.345 154.644 28.33 154.484 28.33C153.874 28.33 153.374 28.505 152.984 28.855C152.604 29.195 152.414 29.645 152.414 30.205V34H150.269V26.5H152.414V27.715C152.594 27.325 152.884 27 153.284 26.74C153.684 26.48 154.169 26.35 154.739 26.35H154.979ZM167.646 31.855V33.985H159.681V33.505C159.751 32.505 160.036 31.53 160.536 30.58C161.036 29.62 161.831 28.925 162.921 28.495L163.416 28.285C164.096 28.015 164.606 27.77 164.946 27.55C165.286 27.33 165.456 27.05 165.456 26.71C165.456 26.42 165.371 26.17 165.201 25.96C165.031 25.75 164.821 25.595 164.571 25.495C164.321 25.385 164.071 25.33 163.821 25.33C163.231 25.33 162.736 25.445 162.336 25.675C161.936 25.895 161.696 26.24 161.616 26.71L159.501 26.485C159.591 25.825 159.841 25.255 160.251 24.775C160.671 24.295 161.191 23.93 161.811 23.68C162.441 23.42 163.111 23.29 163.821 23.29C164.461 23.29 165.071 23.425 165.651 23.695C166.241 23.965 166.716 24.35 167.076 24.85C167.436 25.35 167.616 25.93 167.616 26.59C167.616 27.25 167.456 27.805 167.136 28.255C166.816 28.705 166.386 29.08 165.846 29.38C165.316 29.67 164.626 29.975 163.776 30.295C163.136 30.535 162.661 31.055 162.351 31.855H167.646ZM172.752 34.195C171.872 34.195 171.102 33.97 170.442 33.52C169.782 33.06 169.272 32.42 168.912 31.6C168.552 30.77 168.372 29.82 168.372 28.75C168.372 27.68 168.552 26.735 168.912 25.915C169.272 25.085 169.782 24.445 170.442 23.995C171.102 23.535 171.872 23.305 172.752 23.305C173.632 23.305 174.402 23.535 175.062 23.995C175.722 24.445 176.227 25.085 176.577 25.915C176.937 26.735 177.117 27.68 177.117 28.75C177.117 29.82 176.937 30.77 176.577 31.6C176.227 32.42 175.722 33.06 175.062 33.52C174.402 33.97 173.632 34.195 172.752 34.195ZM172.752 31.945C173.402 31.945 173.917 31.685 174.297 31.165C174.677 30.645 174.867 29.84 174.867 28.75C174.867 27.66 174.677 26.855 174.297 26.335C173.917 25.815 173.402 25.555 172.752 25.555C172.102 25.555 171.587 25.815 171.207 26.335C170.827 26.855 170.637 27.66 170.637 28.75C170.637 29.84 170.827 30.645 171.207 31.165C171.587 31.685 172.102 31.945 172.752 31.945ZM185.898 31.855V33.985H177.933V33.505C178.003 32.505 178.288 31.53 178.788 30.58C179.288 29.62 180.083 28.925 181.173 28.495L181.668 28.285C182.348 28.015 182.858 27.77 183.198 27.55C183.538 27.33 183.708 27.05 183.708 26.71C183.708 26.42 183.623 26.17 183.453 25.96C183.283 25.75 183.073 25.595 182.823 25.495C182.573 25.385 182.323 25.33 182.073 25.33C181.483 25.33 180.988 25.445 180.588 25.675C180.188 25.895 179.948 26.24 179.868 26.71L177.753 26.485C177.843 25.825 178.093 25.255 178.503 24.775C178.923 24.295 179.443 23.93 180.063 23.68C180.693 23.42 181.363 23.29 182.073 23.29C182.713 23.29 183.323 23.425 183.903 23.695C184.493 23.965 184.968 24.35 185.328 24.85C185.688 25.35 185.868 25.93 185.868 26.59C185.868 27.25 185.708 27.805 185.388 28.255C185.068 28.705 184.638 29.08 184.098 29.38C183.568 29.67 182.878 29.975 182.028 30.295C181.388 30.535 180.913 31.055 180.603 31.855H185.898ZM191.094 27.4C192.294 27.4 193.239 27.685 193.929 28.255C194.629 28.825 194.979 29.6 194.979 30.58C194.979 31.69 194.629 32.57 193.929 33.22C193.239 33.86 192.294 34.18 191.094 34.18C189.854 34.18 188.864 33.905 188.124 33.355C187.394 32.795 187.019 32.035 186.999 31.075L189.129 30.82C189.189 31.2 189.394 31.505 189.744 31.735C190.104 31.955 190.554 32.065 191.094 32.065C191.654 32.065 192.089 31.935 192.399 31.675C192.719 31.405 192.879 31.04 192.879 30.58C192.879 30.18 192.719 29.87 192.399 29.65C192.089 29.42 191.654 29.305 191.094 29.305H189.174V29.275L187.464 29.305L188.184 23.5H194.574V25.63H190.059L189.849 27.4H191.094ZM203.458 31.27H199.858V29.47H203.458V31.27ZM213.518 23.5V31.855H216.278V34H208.328V31.855H211.268V25.96L209.798 26.935L208.598 25.18L211.268 23.5H213.518ZM221.639 26.65C222.369 26.69 223.019 26.88 223.589 27.22C224.159 27.55 224.604 27.995 224.924 28.555C225.244 29.115 225.404 29.74 225.404 30.43C225.404 31.15 225.229 31.795 224.879 32.365C224.539 32.935 224.064 33.385 223.454 33.715C222.844 34.035 222.159 34.195 221.399 34.195C220.639 34.195 219.954 34.035 219.344 33.715C218.734 33.385 218.254 32.935 217.904 32.365C217.564 31.795 217.394 31.15 217.394 30.43C217.394 29.73 217.559 29.09 217.889 28.51L221.024 23.5H223.619L221.639 26.65ZM221.399 31.99C221.879 31.99 222.279 31.84 222.599 31.54C222.919 31.24 223.079 30.87 223.079 30.43C223.079 29.99 222.914 29.62 222.584 29.32C222.264 29.02 221.869 28.87 221.399 28.87C220.929 28.87 220.529 29.02 220.199 29.32C219.879 29.61 219.719 29.98 219.719 30.43C219.719 30.88 219.884 31.255 220.214 31.555C220.544 31.845 220.939 31.99 221.399 31.99ZM229.7 31.33C229.7 31.61 229.775 31.805 229.925 31.915C230.085 32.025 230.325 32.08 230.645 32.08C230.845 32.08 231.065 32.065 231.305 32.035V34C230.805 34.05 230.39 34.075 230.06 34.075C229.22 34.075 228.59 33.89 228.17 33.52C227.76 33.14 227.555 32.455 227.555 31.465V28.405H226.265V26.5H227.555V24.76L229.7 24.04V26.5H231.275V28.405H229.7V31.33ZM239.494 34H237.349V29.575C237.349 29.095 237.214 28.75 236.944 28.54C236.674 28.32 236.354 28.21 235.984 28.21C235.674 28.21 235.404 28.31 235.174 28.51C234.944 28.7 234.799 29 234.739 29.41V34H232.594V23.5H234.739V27.04C235.289 26.58 235.884 26.35 236.524 26.35C236.954 26.35 237.389 26.445 237.829 26.635C238.279 26.815 238.664 27.14 238.984 27.61C239.314 28.08 239.484 28.715 239.494 29.515V34ZM253.31 23.515V23.5H255.56V34H253.31V27.64L250.64 32.11H250.085L247.4 27.625V34H245.15V23.5H247.4V23.515L247.43 23.5L250.355 28.42L253.28 23.5L253.31 23.515ZM262.801 26.5H264.931V34H262.801V33.43C262.471 33.68 262.106 33.87 261.706 34C261.316 34.14 260.921 34.21 260.521 34.21C259.741 34.21 259.066 34.04 258.496 33.7C257.936 33.36 257.506 32.895 257.206 32.305C256.906 31.705 256.756 31.025 256.756 30.265C256.756 29.505 256.906 28.825 257.206 28.225C257.506 27.615 257.936 27.14 258.496 26.8C259.066 26.46 259.741 26.29 260.521 26.29C260.931 26.29 261.331 26.36 261.721 26.5C262.111 26.64 262.471 26.835 262.801 27.085V26.5ZM260.806 32.17C261.366 32.17 261.836 31.99 262.216 31.63C262.596 31.27 262.786 30.805 262.786 30.235C262.786 29.685 262.596 29.235 262.216 28.885C261.836 28.535 261.366 28.36 260.806 28.36C260.246 28.36 259.786 28.535 259.426 28.885C259.066 29.235 258.886 29.695 258.886 30.265C258.886 30.835 259.066 31.295 259.426 31.645C259.786 31.995 260.246 32.17 260.806 32.17ZM271.479 26.35L271.329 28.375C271.259 28.345 271.144 28.33 270.984 28.33C270.374 28.33 269.874 28.505 269.484 28.855C269.104 29.195 268.914 29.645 268.914 30.205V34H266.769V26.5H268.914V27.715C269.094 27.325 269.384 27 269.784 26.74C270.184 26.48 270.669 26.35 271.239 26.35H271.479ZM279.13 32.53C278.76 33.05 278.29 33.465 277.72 33.775C277.16 34.075 276.555 34.225 275.905 34.225C275.185 34.225 274.52 34.05 273.91 33.7C273.31 33.34 272.83 32.855 272.47 32.245C272.12 31.635 271.945 30.975 271.945 30.265C271.945 29.545 272.12 28.885 272.47 28.285C272.83 27.675 273.31 27.195 273.91 26.845C274.52 26.485 275.185 26.305 275.905 26.305C276.555 26.305 277.16 26.455 277.72 26.755C278.28 27.055 278.745 27.46 279.115 27.97L277.345 29.14C276.925 28.67 276.445 28.435 275.905 28.435C275.405 28.435 274.975 28.615 274.615 28.975C274.255 29.335 274.075 29.765 274.075 30.265C274.075 30.765 274.255 31.195 274.615 31.555C274.975 31.905 275.405 32.08 275.905 32.08C276.445 32.08 276.925 31.845 277.345 31.375L279.13 32.53ZM287.189 34H285.044V29.575C285.044 29.095 284.909 28.75 284.639 28.54C284.369 28.32 284.049 28.21 283.679 28.21C283.369 28.21 283.099 28.31 282.869 28.51C282.639 28.7 282.494 29 282.434 29.41V34H280.289V23.5H282.434V27.04C282.984 26.58 283.579 26.35 284.219 26.35C284.649 26.35 285.084 26.445 285.524 26.635C285.974 26.815 286.359 27.14 286.679 27.61C287.009 28.08 287.179 28.715 287.189 29.515V34ZM300.405 31.855V33.985H292.44V33.505C292.51 32.505 292.795 31.53 293.295 30.58C293.795 29.62 294.59 28.925 295.68 28.495L296.175 28.285C296.855 28.015 297.365 27.77 297.705 27.55C298.045 27.33 298.215 27.05 298.215 26.71C298.215 26.42 298.13 26.17 297.96 25.96C297.79 25.75 297.58 25.595 297.33 25.495C297.08 25.385 296.83 25.33 296.58 25.33C295.99 25.33 295.495 25.445 295.095 25.675C294.695 25.895 294.455 26.24 294.375 26.71L292.26 26.485C292.35 25.825 292.6 25.255 293.01 24.775C293.43 24.295 293.95 23.93 294.57 23.68C295.2 23.42 295.87 23.29 296.58 23.29C297.22 23.29 297.83 23.425 298.41 23.695C299 23.965 299.475 24.35 299.835 24.85C300.195 25.35 300.375 25.93 300.375 26.59C300.375 27.25 300.215 27.805 299.895 28.255C299.575 28.705 299.145 29.08 298.605 29.38C298.075 29.67 297.385 29.975 296.535 30.295C295.895 30.535 295.42 31.055 295.11 31.855H300.405ZM305.511 34.195C304.631 34.195 303.861 33.97 303.201 33.52C302.541 33.06 302.031 32.42 301.671 31.6C301.311 30.77 301.131 29.82 301.131 28.75C301.131 27.68 301.311 26.735 301.671 25.915C302.031 25.085 302.541 24.445 303.201 23.995C303.861 23.535 304.631 23.305 305.511 23.305C306.391 23.305 307.161 23.535 307.821 23.995C308.481 24.445 308.986 25.085 309.336 25.915C309.696 26.735 309.876 27.68 309.876 28.75C309.876 29.82 309.696 30.77 309.336 31.6C308.986 32.42 308.481 33.06 307.821 33.52C307.161 33.97 306.391 34.195 305.511 34.195ZM305.511 31.945C306.161 31.945 306.676 31.685 307.056 31.165C307.436 30.645 307.626 29.84 307.626 28.75C307.626 27.66 307.436 26.855 307.056 26.335C306.676 25.815 306.161 25.555 305.511 25.555C304.861 25.555 304.346 25.815 303.966 26.335C303.586 26.855 303.396 27.66 303.396 28.75C303.396 29.84 303.586 30.645 303.966 31.165C304.346 31.685 304.861 31.945 305.511 31.945ZM318.657 31.855V33.985H310.692V33.505C310.762 32.505 311.047 31.53 311.547 30.58C312.047 29.62 312.842 28.925 313.932 28.495L314.427 28.285C315.107 28.015 315.617 27.77 315.957 27.55C316.297 27.33 316.467 27.05 316.467 26.71C316.467 26.42 316.382 26.17 316.212 25.96C316.042 25.75 315.832 25.595 315.582 25.495C315.332 25.385 315.082 25.33 314.832 25.33C314.242 25.33 313.747 25.445 313.347 25.675C312.947 25.895 312.707 26.24 312.627 26.71L310.512 26.485C310.602 25.825 310.852 25.255 311.262 24.775C311.682 24.295 312.202 23.93 312.822 23.68C313.452 23.42 314.122 23.29 314.832 23.29C315.472 23.29 316.082 23.425 316.662 23.695C317.252 23.965 317.727 24.35 318.087 24.85C318.447 25.35 318.627 25.93 318.627 26.59C318.627 27.25 318.467 27.805 318.147 28.255C317.827 28.705 317.397 29.08 316.857 29.38C316.327 29.67 315.637 29.975 314.787 30.295C314.147 30.535 313.672 31.055 313.362 31.855H318.657ZM323.853 27.4C325.053 27.4 325.998 27.685 326.688 28.255C327.388 28.825 327.738 29.6 327.738 30.58C327.738 31.69 327.388 32.57 326.688 33.22C325.998 33.86 325.053 34.18 323.853 34.18C322.613 34.18 321.623 33.905 320.883 33.355C320.153 32.795 319.778 32.035 319.758 31.075L321.888 30.82C321.948 31.2 322.153 31.505 322.503 31.735C322.863 31.955 323.313 32.065 323.853 32.065C324.413 32.065 324.848 31.935 325.158 31.675C325.478 31.405 325.638 31.04 325.638 30.58C325.638 30.18 325.478 29.87 325.158 29.65C324.848 29.42 324.413 29.305 323.853 29.305H321.933V29.275L320.223 29.305L320.943 23.5H327.333V25.63H322.818L322.608 27.4H323.853Z" fill="black"/>
</svg>
