<svg width="686" height="62" viewBox="0 0 686 62" fill="none" xmlns="http://www.w3.org/2000/svg">
<path d="M65.1467 3.07321C76.5127 3.08371 90.584 3.01628 101.829 3.05777C101.987 3.05835 102.144 3.05894 102.302 3.05952C106.898 3.07648 111.581 3.10097 117.247 3.13058C117.968 3.13435 118.708 3.1383 119.463 3.14223C126.18 3.1772 134.43 3.21912 145.673 3.26572C183.424 3.42218 213.189 3.3182 222.448 3.28581C241.016 3.22086 260.825 3.21948 287.853 3.21766C290.325 3.2175 292.857 3.2176 295.454 3.21737C297.559 3.21719 299.301 3.26979 299.349 3.33503C299.396 3.40031 297.73 3.45339 295.625 3.45357C293.082 3.45379 290.604 3.45398 288.188 3.45415C288.177 3.45415 288.166 3.45415 288.155 3.45415C260.957 3.45602 241.58 3.45742 223.449 3.52084C213.988 3.55394 183.492 3.6602 144.809 3.49988C133.447 3.45278 125.104 3.4107 118.347 3.37552C117.607 3.37166 116.886 3.36782 116.185 3.36416C116.169 3.36406 116.152 3.36396 116.136 3.36387C110.433 3.33407 105.947 3.31049 101.548 3.29426C101.455 3.29397 101.361 3.29368 101.268 3.29339C89.8963 3.25142 76.0935 3.31959 65.0697 3.3094C62.9653 3.30743 61.275 3.25289 61.2965 3.18766C61.3191 3.12248 63.0434 3.07131 65.1467 3.07321ZM574.126 58.8745C563.151 58.961 548.552 58.9515 535.661 58.9129C522.681 58.8741 510.933 58.8043 505.404 58.7615C499.999 58.7196 493.994 58.706 486.829 58.6977C485.186 58.6958 483.481 58.6942 481.719 58.6925C475.897 58.6868 469.419 58.6805 462.308 58.6619C436.187 58.5933 419.158 58.5904 406.996 58.5966C404.494 58.5979 402.167 58.5997 399.988 58.6013C399.985 58.6013 399.981 58.6013 399.977 58.6013C391.755 58.6074 385.62 58.6119 379.978 58.585C369.935 58.5371 361.734 58.4946 351.838 58.4117C338.188 58.2973 318.747 58.3109 306.096 58.3896C305.402 58.3939 304.692 58.3985 303.973 58.403C294.802 58.4603 283.509 58.5309 266.576 58.5835C252.507 58.6273 240.246 58.6238 229.393 58.6115C226.283 58.608 223.315 58.6036 220.466 58.5996C213.274 58.5894 206.838 58.5803 200.774 58.5856C163.174 58.6186 141.49 58.5759 127.861 58.5116C117.379 58.4622 111.524 58.3985 107.3 58.3526C106.024 58.3387 104.896 58.3262 103.835 58.3165C94.3703 58.2294 85.6806 58.1903 75.2274 58.1432C72.9076 58.1327 70.4939 58.1218 67.9724 58.11C59.5383 58.0704 53.2533 58.0772 48.3249 58.094C46.1692 58.1013 44.2724 58.1103 42.4835 58.119C42.4505 58.1192 42.4175 58.1194 42.3844 58.1196C42.1351 58.1208 41.8877 58.1219 41.6419 58.1231C41.4566 58.124 41.2717 58.1251 41.0864 58.126C41.0136 58.1272 40.9481 58.1279 40.8994 58.1286C40.8608 58.1292 40.8307 58.1295 40.8114 58.1298C40.8076 58.1299 40.8041 58.13 40.8003 58.1301C40.4493 58.1346 40.1473 58.1364 40.0853 58.1368C39.977 58.1374 39.8814 58.1377 39.8323 58.1379C39.5736 58.139 39.2397 58.1396 39.0182 58.14C38.4484 58.1408 37.4581 58.1418 35.927 58.1429C34.594 58.1463 33.3148 58.1521 31.7137 58.1595C31.6128 58.16 31.5121 58.1605 31.4111 58.1609C29.8497 58.1682 28.0222 58.1764 25.7293 58.1845C25.2193 58.1863 24.7193 58.1849 24.251 58.1808C22.8859 58.1697 21.8221 57.9939 21.6311 57.9227C21.4005 57.8248 22.5444 57.9639 24.251 57.9524C24.4025 57.9512 24.5579 57.9504 24.7171 57.9498C26.8776 57.9422 28.5891 57.9343 30.1515 57.9271C30.2506 57.9266 30.3495 57.9261 30.4486 57.9256C32.0776 57.9181 33.6208 57.9111 35.2835 57.907C35.8401 57.9056 36.4139 57.9046 36.9501 57.9038C37.9152 57.9009 39.0133 57.8958 40.3273 57.8895C40.5911 57.8882 40.8631 57.8871 41.1414 57.8857C42.927 57.877 45.0061 57.8669 47.3514 57.8589C52.8404 57.8403 59.7949 57.8333 68.9734 57.8764C71.3804 57.8877 73.7135 57.8982 75.992 57.9084C86.4862 57.9556 95.8233 57.9975 105.87 58.0899C107.249 58.1026 108.571 58.1171 109.985 58.1324C114.175 58.1779 119.177 58.2323 128.867 58.278C141.85 58.3392 163.019 58.3822 200.406 58.3494C206.77 58.3438 213.636 58.3536 220.95 58.3639C223.742 58.3679 226.604 58.3717 229.525 58.375C240.209 58.3871 252.084 58.3904 265.668 58.3482C282.223 58.2968 293.208 58.2283 302.339 58.1711C302.655 58.1691 302.97 58.1671 303.285 58.165C303.677 58.1626 304.066 58.1601 304.452 58.1577C317.933 58.0739 338.618 58.0573 353.697 58.1837C363.159 58.263 371.008 58.3038 380.995 58.3514C385.907 58.3748 391.155 58.371 399.213 58.3651C401.475 58.3635 403.961 58.3619 406.721 58.3604C419.101 58.3541 436.39 58.3569 462.803 58.4263C469.689 58.4443 475.886 58.4504 481.675 58.456C483.473 58.4577 485.238 58.4595 486.966 58.4615C494.166 58.4699 500.867 58.4836 507.114 58.532C512.249 58.5718 523.619 58.6399 536.244 58.6776C548.96 58.7156 562.46 58.7213 572.107 58.6453C573.11 58.6374 574.122 58.6296 575.132 58.6217C583.835 58.5539 592.707 58.4848 599.851 58.3698C615.77 58.0105 638.109 57.8978 661.251 57.8807C672.691 58.1935 682.91 47.6459 682.576 36.5861C682.583 32.5043 682.591 28.493 682.599 24.5861C682.644 18.4226 679.882 12.7318 675.918 9.03081C675.579 8.7097 675.229 8.3999 674.869 8.10153C670.939 4.82675 665.997 3.17397 661.251 3.18834C625.329 3.15585 599.526 3.16099 589.947 3.16291C589.436 3.16301 588.972 3.16312 588.555 3.1632C588.182 3.16327 587.846 3.16345 587.548 3.16349C583.092 3.1641 579.15 3.17249 575.018 3.18126C574.793 3.18174 574.567 3.18223 574.342 3.18271C569.977 3.19195 565.395 3.20098 559.98 3.20019C539.845 3.19725 523.43 3.208 509.228 3.21941C506.599 3.22152 504.042 3.22344 501.549 3.22553C501.542 3.22553 501.535 3.22553 501.527 3.22553C490.589 3.23469 480.885 3.24294 471.677 3.243C454.885 3.24312 443.542 3.25806 434.719 3.27416C431.953 3.27921 429.403 3.28437 426.997 3.28931C421.794 3.29999 417.25 3.30934 412.564 3.31261C403.749 3.31875 395.637 3.33498 387.647 3.35076C386.935 3.35217 386.223 3.35344 385.513 3.35484C376.851 3.37185 368.273 3.38762 359.204 3.38804C357.099 3.38814 355.354 3.33507 355.31 3.26979C355.268 3.20458 356.941 3.15165 359.045 3.15155C367.853 3.15114 376.221 3.13594 384.88 3.11893C385.595 3.11753 386.312 3.11598 387.031 3.11456C395.001 3.09882 403.262 3.08266 412.239 3.07641C416.758 3.07326 421.05 3.06446 426.15 3.05399C428.583 3.04899 431.204 3.04358 434.12 3.03826C443.076 3.02191 454.569 3.00663 471.523 3.00651C480.62 3.00645 490.2 2.99849 501.131 2.98933C503.64 2.98723 506.22 2.98506 508.881 2.98292C523.12 2.97149 539.618 2.96074 559.865 2.9637C564.981 2.96445 569.324 2.95601 573.671 2.94681C573.915 2.94632 574.159 2.94584 574.402 2.94535C578.497 2.93665 582.66 2.92764 587.367 2.927C587.996 2.92692 588.799 2.92691 589.765 2.92671C599.353 2.92479 625.23 2.91952 661.251 2.95203C666.086 2.93678 671.124 4.63584 675.111 7.99561C675.21 8.07873 675.309 8.16273 675.406 8.24759C680.637 12.7901 682.889 19.0993 682.847 24.5861C682.843 28.9248 682.839 32.9071 682.838 36.5861C682.663 47.7037 675.384 54.2193 669.303 56.66C666.544 57.7834 663.792 58.2351 661.251 58.2432C655.471 58.2617 650.687 58.2684 646.522 58.2722C645.358 58.2733 644.256 58.2743 643.205 58.2751C638.667 58.2786 635.08 58.2814 631.495 58.2978C620.651 58.3474 612.874 58.4286 603.465 58.58C595.488 58.7084 585.717 58.7844 577.156 58.8509C577.144 58.851 577.131 58.8511 577.118 58.8512C576.102 58.8591 575.102 58.8668 574.126 58.8745ZM3.60605 43.4678C2.97319 41.5754 2.82074 39.9753 2.88235 39.9858C2.95491 39.9961 3.22028 41.5947 3.85302 43.4615C5.33767 47.9115 8.34163 51.8407 12.2406 54.4616C13.8715 55.5678 15.3152 56.2396 15.2685 56.296C15.229 56.3446 13.6966 55.7435 12.0483 54.6167C8.11549 51.9539 5.09215 47.9725 3.60605 43.4678ZM582.904 60.0502C580.851 60.0634 578.806 60.0221 578.339 59.9582C577.875 59.8943 579.164 59.8319 581.216 59.8187C582.301 59.8117 584.085 59.7991 586.485 59.782C598.742 59.6949 627.122 59.4931 661.251 59.3465C672.788 59.6682 684.196 49.1227 683.888 36.5861C683.882 33.902 683.876 31.2061 683.871 28.5022C683.868 27.1566 683.865 25.8538 683.863 24.5861C683.856 21.7458 683.33 19.0989 682.43 16.6971C679.238 8.51646 671.89 2.26927 661.251 2.12244C652.871 2.16047 642.836 2.19081 629.396 2.18783C499.989 2.15914 370.684 1.85915 241.484 2.06493C204.169 2.12437 166.972 2.13326 129.628 2.12929C98.5024 2.12599 41.4488 2.00482 28.0245 1.99241C25.9192 1.99047 24.2297 1.93592 24.2512 1.87067C24.2737 1.80546 25.9972 1.75428 28.1015 1.75621C41.431 1.76853 98.2949 1.88952 129.304 1.89281C166.575 1.89676 203.697 1.88805 240.94 1.82873C370.289 1.62271 500.01 1.63633 629.566 1.66506C643.032 1.66804 652.969 1.69298 661.251 1.71689C671.721 1.94801 678.95 7.91183 682.399 15.9687C683.459 18.5536 684.092 21.4486 684.1 24.5861C684.102 25.6548 684.104 26.7497 684.106 27.8752C684.112 30.79 684.119 33.6953 684.126 36.5861C684.435 49.2747 672.887 59.9128 661.251 59.5857C628.146 59.7297 600.638 59.9251 588.388 60.0121C585.912 60.0297 584.052 60.0428 582.904 60.0502ZM485.014 59.9515C461.514 59.9694 428.108 59.9375 398.916 59.9096C384.679 59.8959 371.444 59.883 360.847 59.8775C344.43 59.869 334.095 59.8125 323.846 59.7564C323.736 59.7558 323.626 59.7552 323.516 59.7546C313.274 59.6985 303.023 59.6433 286.35 59.6346C269.539 59.6259 246.278 59.6643 222.814 59.7031C222.796 59.7031 222.778 59.7031 222.759 59.7031C199.421 59.7416 175.748 59.9003 158.641 59.8912C99.0271 59.8595 62.2689 59.6971 43.6825 59.5697C37.3512 59.5263 30.8541 59.5008 24.251 59.4858C12.3043 59.8019 1.06805 48.9315 1.37304 36.5861C1.37369 32.5821 1.3753 28.578 1.37939 24.5861C1.11982 12.5151 11.8001 1.99961 23.1715 1.88245C26.8477 2.06389 20.4719 1.34252 14.4373 4.29064C14.2213 4.39367 14.0071 4.50005 13.7949 4.60971C11.7858 5.67125 10.1082 6.80681 8.11918 8.7921C5.27882 11.7222 3.86992 14.5066 2.93808 17.0964C2.51707 18.316 1.66951 20.9282 1.66185 24.5861C1.65907 27.9133 1.65502 32.0206 1.64952 36.5861C0.936207 47.5556 12.2386 59.8372 24.251 59.2536C32.6724 59.2763 40.189 59.3044 45.1897 59.3387C62.8289 59.4596 98.8156 59.3365 158.812 59.3684C175.602 59.3774 198.801 59.5056 222.264 59.4669C222.329 59.4668 222.393 59.4667 222.457 59.4666C245.749 59.4281 269.236 59.3892 286.328 59.3981C303.604 59.4071 314.322 59.4651 324.699 59.5219C324.8 59.5225 324.9 59.5231 325.001 59.5237C335.155 59.5793 345.014 59.6332 360.825 59.6413C371.655 59.6469 385.044 59.6596 399.372 59.6734C428.44 59.7013 461.38 59.733 484.678 59.7153C486.781 59.7137 488.562 59.7654 488.655 59.8306C488.746 59.8958 487.115 59.9499 485.014 59.9515ZM484.53 61.4237C418.498 61.6856 352.1 61.6121 286.988 61.3355C269.993 61.3266 246.278 61.3083 222.594 61.2897C222.327 61.2895 222.059 61.2892 221.791 61.2889C198.364 61.2706 175.04 61.2524 158.295 61.2434C98.6811 61.2117 61.785 61.169 43.1985 61.0416C34.1997 60.9799 28.5765 60.9502 24.251 60.9357C20.0123 60.8747 16.9645 60.0489 13.6866 58.5148C13.5011 58.4252 13.3169 58.3333 13.1341 58.2391C13.1219 58.2331 13.1097 58.227 13.0976 58.221C12.8662 58.1049 12.6749 58.0031 12.5762 57.9499C12.3752 57.8416 12.2137 57.7499 12.1532 57.7155C12.0135 57.6359 11.8975 57.5674 11.8563 57.543C11.6877 57.4434 11.4963 57.3262 11.3738 57.2494C10.207 56.5905 6.81303 54.0075 4.86082 51.2779C2.82439 48.5323 1.8273 46.2614 1.05751 43.82C0.981874 43.5723 0.910156 43.3232 0.842323 43.0725C0.357598 41.2483 -0.00212133 39.2385 -0.000159383 36.5861C0.00253057 36.0241 0.00525999 35.4324 0.00802934 34.8056C0.0172803 32.7166 0.0771019 31.2321 0.141709 31.4889C0.206268 31.7471 0.251097 33.6472 0.241896 35.7352C0.240613 36.0256 0.239336 36.3091 0.238068 36.5861C0.23981 39.8917 0.804978 42.2749 1.4558 44.2813C1.53609 44.5237 1.61966 44.7632 1.70786 45.0035C2.56496 47.2747 3.54694 49.2039 5.38785 51.5722C8.11469 54.9631 10.872 56.8207 13.4891 58.154C16.7373 59.7345 19.9155 60.6419 24.251 60.6987C28.9507 60.7136 35.0434 60.7447 44.7001 60.811C62.3388 60.9319 98.2738 60.9753 158.273 61.0072C175.049 61.0162 198.401 61.0344 221.808 61.0527C222.083 61.0529 222.358 61.0531 222.633 61.0533C246.329 61.0718 270.01 61.0904 286.966 61.0993C353.054 61.1337 417.776 61.0154 484.189 61.1875C496.409 61.1782 507.579 61.1746 517.928 61.1712C548.384 61.1614 571.756 61.1537 594.037 61.0102C598.922 60.9787 611.726 60.952 630.23 60.9187C635.652 60.909 641.601 60.8987 648.029 60.8875C652.233 60.8802 656.643 60.8726 661.251 60.8645C672.847 61.2768 685.675 50.7788 685.463 36.5861C685.459 34.5709 685.455 32.5325 685.451 30.4714C685.447 28.4193 685.443 26.4667 685.439 24.5861C685.434 22.314 685.119 20.1519 684.55 18.1138C681.726 8.57223 673.781 0.757239 661.251 0.460188C653.342 0.466802 643.912 0.469625 631.579 0.46689C593.711 0.458493 530.262 0.399819 496.33 0.354762C479.334 0.332195 469.74 0.311284 462.953 0.293893C461.063 0.28905 459.401 0.284359 457.876 0.280204C453.892 0.269349 450.798 0.26103 446.743 0.255449C417.544 0.215272 397.101 0.242951 363.61 0.300591C361.511 0.304185 359.682 0.254192 359.523 0.189046C359.366 0.12389 360.94 0.0680381 363.038 0.0643946C396.579 0.00666988 417.333 -0.0214725 446.93 0.0192522C451.164 0.0250779 454.477 0.0341253 458.531 0.0451727C460.034 0.0492687 461.639 0.0536857 463.432 0.0582786C470.106 0.0753809 479.6 0.0961169 496.506 0.118565C530.378 0.163542 593.734 0.222031 631.486 0.230402C643.917 0.233158 653.35 0.230302 661.251 0.22359C673.5 0.501172 681.46 7.93104 684.568 17.3399C685.271 19.5902 685.671 22.0177 685.677 24.5861C685.68 26.2693 685.684 28.0137 685.687 29.8388C685.692 32.1155 685.696 34.3649 685.7 36.5861C685.914 50.9245 672.95 61.5199 661.251 61.1016C656.839 61.1094 652.609 61.1167 648.574 61.1237C642.154 61.1349 636.219 61.1452 630.819 61.1549C611.942 61.1888 599.911 61.2147 595.726 61.2417C572.664 61.3902 548.275 61.3982 517.538 61.408C507.302 61.4113 496.359 61.4147 484.53 61.4237ZM242.909 0.247877C245.009 0.244546 246.83 0.294823 246.979 0.360004C247.127 0.425172 245.548 0.480729 243.448 0.484073C232.357 0.501738 224.385 0.516312 218.152 0.527759C206.616 0.548947 201.04 0.559278 192.69 0.557466C171.135 0.552786 150.322 0.550426 131.597 0.548437C100.472 0.545133 75.1054 0.542496 61.6815 0.530089C59.5766 0.528131 57.8867 0.473589 57.9082 0.40835C57.9316 0.343174 59.6552 0.291976 61.7585 0.293893C75.088 0.306212 100.264 0.308955 131.273 0.312241C150.019 0.314228 170.901 0.316269 192.591 0.320978C200.69 0.322736 205.953 0.313177 217.233 0.292436C223.46 0.280987 231.522 0.266013 242.909 0.247877Z" fill="white"/>
</svg>
