<svg width="254" height="23" viewBox="0 0 254 23" fill="none" xmlns="http://www.w3.org/2000/svg">
<path d="M17.064 11.7115L19.944 0.71953H23.688L19.08 17.5195H15.216L12.048 6.91153L8.856 17.5195H4.992L0.384 0.71953H4.128L7.008 11.7115L10.152 0.71953H13.92L17.064 11.7115ZM33.4367 5.51953H36.8447V17.5195H33.4367V16.6075C32.9087 17.0075 32.3247 17.3115 31.6847 17.5195C31.0607 17.7435 30.4287 17.8555 29.7887 17.8555C28.5407 17.8555 27.4607 17.5835 26.5487 17.0395C25.6527 16.4955 24.9647 15.7515 24.4847 14.8075C24.0047 13.8475 23.7647 12.7595 23.7647 11.5435C23.7647 10.3275 24.0047 9.23953 24.4847 8.27953C24.9647 7.30353 25.6527 6.54353 26.5487 5.99953C27.4607 5.45553 28.5407 5.18353 29.7887 5.18353C30.4447 5.18353 31.0847 5.29553 31.7087 5.51953C32.3327 5.74353 32.9087 6.05553 33.4367 6.45553V5.51953ZM30.2447 14.5915C31.1407 14.5915 31.8927 14.3035 32.5007 13.7275C33.1087 13.1515 33.4127 12.4075 33.4127 11.4955C33.4127 10.6155 33.1087 9.89553 32.5007 9.33553C31.8927 8.77553 31.1407 8.49553 30.2447 8.49553C29.3487 8.49553 28.6127 8.77553 28.0367 9.33553C27.4607 9.89553 27.1727 10.6315 27.1727 11.5435C27.1727 12.4555 27.4607 13.1915 28.0367 13.7515C28.6127 14.3115 29.3487 14.5915 30.2447 14.5915ZM43.9436 13.2475C43.9436 13.6955 44.0636 14.0075 44.3036 14.1835C44.5596 14.3595 44.9436 14.4475 45.4556 14.4475C45.7756 14.4475 46.1276 14.4235 46.5116 14.3755V17.5195C45.7116 17.5995 45.0476 17.6395 44.5196 17.6395C43.1756 17.6395 42.1676 17.3435 41.4956 16.7515C40.8396 16.1435 40.5116 15.0475 40.5116 13.4635V8.56753H38.4476V5.51953H40.5116V2.73553L43.9436 1.58353V5.51953H46.4636V8.56753H43.9436V13.2475ZM59.5854 15.1675C58.9934 15.9995 58.2414 16.6635 57.3294 17.1595C56.4334 17.6395 55.4654 17.8795 54.4254 17.8795C53.2734 17.8795 52.2094 17.5995 51.2334 17.0395C50.2734 16.4635 49.5054 15.6875 48.9294 14.7115C48.3694 13.7355 48.0894 12.6795 48.0894 11.5435C48.0894 10.3915 48.3694 9.33553 48.9294 8.37553C49.5054 7.39953 50.2734 6.63153 51.2334 6.07153C52.2094 5.49553 53.2734 5.20753 54.4254 5.20753C55.4654 5.20753 56.4334 5.44753 57.3294 5.92753C58.2254 6.40753 58.9694 7.05553 59.5614 7.87153L56.7294 9.74353C56.0574 8.99153 55.2894 8.61553 54.4254 8.61553C53.6254 8.61553 52.9374 8.90353 52.3614 9.47953C51.7854 10.0555 51.4974 10.7435 51.4974 11.5435C51.4974 12.3435 51.7854 13.0315 52.3614 13.6075C52.9374 14.1675 53.6254 14.4475 54.4254 14.4475C55.2894 14.4475 56.0574 14.0715 56.7294 13.3195L59.5854 15.1675ZM72.4806 17.5195H69.0486V10.4395C69.0486 9.67153 68.8326 9.11953 68.4006 8.78353C67.9686 8.43153 67.4566 8.25553 66.8646 8.25553C66.3686 8.25553 65.9366 8.41553 65.5686 8.73553C65.2006 9.03953 64.9686 9.51953 64.8726 10.1755V17.5195H61.4406V0.71953H64.8726V6.38353C65.7526 5.64753 66.7046 5.27953 67.7286 5.27953C68.4166 5.27953 69.1126 5.43153 69.8166 5.73553C70.5366 6.02353 71.1526 6.54353 71.6646 7.29553C72.1926 8.04753 72.4646 9.06353 72.4806 10.3435V17.5195ZM85.8264 13.2475C85.8264 13.6955 85.9464 14.0075 86.1864 14.1835C86.4424 14.3595 86.8264 14.4475 87.3384 14.4475C87.6584 14.4475 88.0104 14.4235 88.3944 14.3755V17.5195C87.5944 17.5995 86.9304 17.6395 86.4024 17.6395C85.0584 17.6395 84.0504 17.3435 83.3784 16.7515C82.7224 16.1435 82.3944 15.0475 82.3944 13.4635V8.56753H80.3304V5.51953H82.3944V2.73553L85.8264 1.58353V5.51953H88.3464V8.56753H85.8264V13.2475ZM101.496 17.5195H98.0642V10.4395C98.0642 9.67153 97.8482 9.11953 97.4162 8.78353C96.9842 8.43153 96.4722 8.25553 95.8802 8.25553C95.3842 8.25553 94.9522 8.41553 94.5842 8.73553C94.2162 9.03953 93.9842 9.51953 93.8882 10.1755V17.5195H90.4562V0.71953H93.8882V6.38353C94.7682 5.64753 95.7202 5.27953 96.7442 5.27953C97.4322 5.27953 98.1282 5.43153 98.8322 5.73553C99.5522 6.02353 100.168 6.54353 100.68 7.29553C101.208 8.04753 101.48 9.06353 101.496 10.3435V17.5195ZM109.246 5.20753C110.414 5.20753 111.454 5.48753 112.366 6.04753C113.294 6.60753 114.014 7.36753 114.526 8.32753C115.038 9.28753 115.294 10.3515 115.294 11.5195C115.294 11.9675 115.262 12.3755 115.198 12.7435H106.318C106.622 13.4795 107.03 14.0315 107.542 14.3995C108.054 14.7515 108.718 14.9275 109.534 14.9275C110.03 14.9275 110.51 14.8235 110.974 14.6155C111.454 14.4075 111.83 14.1275 112.102 13.7755L114.694 15.3115C114.134 16.1275 113.406 16.7515 112.51 17.1835C111.63 17.6155 110.614 17.8315 109.462 17.8315C108.166 17.8315 107.022 17.5595 106.03 17.0155C105.038 16.4555 104.27 15.6955 103.726 14.7355C103.182 13.7755 102.91 12.7035 102.91 11.5195C102.91 10.3355 103.174 9.26353 103.702 8.30353C104.246 7.34353 104.998 6.59153 105.958 6.04753C106.918 5.48753 108.014 5.20753 109.246 5.20753ZM112.078 10.0795C111.966 9.47153 111.646 8.99953 111.118 8.66353C110.606 8.32753 109.974 8.15953 109.222 8.15953C108.438 8.15953 107.758 8.35153 107.182 8.73553C106.606 9.10353 106.302 9.55153 106.27 10.0795H112.078ZM132.835 0.71953H136.243V17.5195H132.835V16.6075C132.307 17.0075 131.731 17.3115 131.107 17.5195C130.499 17.7435 129.867 17.8555 129.211 17.8555C127.963 17.8555 126.883 17.5835 125.971 17.0395C125.075 16.4955 124.387 15.7515 123.907 14.8075C123.427 13.8475 123.187 12.7595 123.187 11.5435C123.187 10.3275 123.427 9.23953 123.907 8.27953C124.387 7.30353 125.075 6.54353 125.971 5.99953C126.883 5.45553 127.963 5.18353 129.211 5.18353C129.851 5.18353 130.483 5.29553 131.107 5.51953C131.731 5.72753 132.307 6.03153 132.835 6.43153V0.71953ZM129.667 14.5915C130.563 14.5915 131.315 14.3035 131.923 13.7275C132.531 13.1515 132.835 12.4075 132.835 11.4955C132.835 10.6155 132.531 9.89553 131.923 9.33553C131.315 8.77553 130.563 8.49553 129.667 8.49553C128.771 8.49553 128.035 8.77553 127.459 9.33553C126.883 9.89553 126.595 10.6315 126.595 11.5435C126.595 12.4555 126.883 13.1915 127.459 13.7515C128.035 14.3115 128.771 14.5915 129.667 14.5915ZM144.425 5.20753C145.593 5.20753 146.633 5.48753 147.545 6.04753C148.473 6.60753 149.193 7.36753 149.705 8.32753C150.217 9.28753 150.473 10.3515 150.473 11.5195C150.473 11.9675 150.441 12.3755 150.377 12.7435H141.497C141.801 13.4795 142.209 14.0315 142.721 14.3995C143.233 14.7515 143.897 14.9275 144.713 14.9275C145.209 14.9275 145.689 14.8235 146.153 14.6155C146.633 14.4075 147.009 14.1275 147.281 13.7755L149.873 15.3115C149.313 16.1275 148.585 16.7515 147.689 17.1835C146.809 17.6155 145.793 17.8315 144.641 17.8315C143.345 17.8315 142.201 17.5595 141.209 17.0155C140.217 16.4555 139.449 15.6955 138.905 14.7355C138.361 13.7755 138.089 12.7035 138.089 11.5195C138.089 10.3355 138.353 9.26353 138.881 8.30353C139.425 7.34353 140.177 6.59153 141.137 6.04753C142.097 5.48753 143.193 5.20753 144.425 5.20753ZM147.257 10.0795C147.145 9.47153 146.825 8.99953 146.297 8.66353C145.785 8.32753 145.153 8.15953 144.401 8.15953C143.617 8.15953 142.937 8.35153 142.361 8.73553C141.785 9.10353 141.481 9.55153 141.449 10.0795H147.257ZM155.333 8.92753C155.333 9.19953 155.501 9.40753 155.837 9.55153C156.173 9.67953 156.709 9.81553 157.445 9.95953C158.389 10.1515 159.173 10.3675 159.797 10.6075C160.421 10.8315 160.965 11.2155 161.429 11.7595C161.909 12.2875 162.149 13.0235 162.149 13.9675C162.149 14.7835 161.901 15.4875 161.405 16.0795C160.909 16.6555 160.253 17.0955 159.437 17.3995C158.621 17.6875 157.741 17.8315 156.797 17.8315C155.501 17.8315 154.397 17.5995 153.485 17.1355C152.573 16.6555 151.885 15.9515 151.421 15.0235L154.229 13.5835C154.613 14.6075 155.469 15.1195 156.797 15.1195C157.341 15.1195 157.813 15.0235 158.213 14.8315C158.629 14.6235 158.837 14.3355 158.837 13.9675C158.837 13.6475 158.645 13.4075 158.261 13.2475C157.893 13.0875 157.301 12.9195 156.485 12.7435C155.557 12.5355 154.781 12.3195 154.157 12.0955C153.533 11.8555 152.997 11.4955 152.549 11.0155C152.101 10.5195 151.877 9.86353 151.877 9.04753C151.877 8.26353 152.101 7.58353 152.549 7.00753C152.997 6.41553 153.597 5.96753 154.349 5.66353C155.117 5.35953 155.949 5.20753 156.845 5.20753C157.901 5.20753 158.853 5.42353 159.701 5.85553C160.549 6.28753 161.213 6.91153 161.693 7.72753L158.909 9.09553C158.717 8.69553 158.453 8.39953 158.117 8.20753C157.797 8.01553 157.373 7.91953 156.845 7.91953C156.381 7.91953 156.013 8.01553 155.741 8.20753C155.469 8.38353 155.333 8.62353 155.333 8.92753ZM165.638 3.88753C164.998 3.88753 164.494 3.71953 164.126 3.38353C163.774 3.03153 163.598 2.55953 163.598 1.96753C163.598 1.35953 163.774 0.87953 164.126 0.527531C164.494 0.175531 164.998 -0.000469208 165.638 -0.000469208C166.262 -0.000469208 166.758 0.175531 167.126 0.527531C167.494 0.87953 167.678 1.35953 167.678 1.96753C167.678 2.55953 167.494 3.03153 167.126 3.38353C166.758 3.71953 166.262 3.88753 165.638 3.88753ZM163.91 17.5195V5.51953H167.342V17.5195H163.91ZM178.984 5.51953H182.416V16.9195C182.416 18.0395 182.12 19.0315 181.528 19.8955C180.952 20.7595 180.152 21.4315 179.128 21.9115C178.104 22.3915 176.952 22.6315 175.672 22.6315C174.28 22.6315 173 22.3595 171.832 21.8155C170.68 21.2875 169.872 20.5995 169.408 19.7515L172.336 18.0475C172.544 18.4635 172.96 18.8075 173.584 19.0795C174.208 19.3515 174.936 19.4875 175.768 19.4875C176.696 19.4875 177.464 19.2475 178.072 18.7675C178.68 18.2875 178.984 17.6715 178.984 16.9195V16.6075C178.456 17.0075 177.88 17.3115 177.256 17.5195C176.648 17.7435 176.016 17.8555 175.36 17.8555C174.112 17.8555 173.032 17.5835 172.12 17.0395C171.224 16.4955 170.536 15.7515 170.056 14.8075C169.576 13.8475 169.336 12.7595 169.336 11.5435C169.336 10.3275 169.576 9.23953 170.056 8.27953C170.536 7.30353 171.224 6.54353 172.12 5.99953C173.032 5.45553 174.112 5.18353 175.36 5.18353C176 5.18353 176.632 5.29553 177.256 5.51953C177.88 5.72753 178.456 6.03153 178.984 6.43153V5.51953ZM175.816 14.5915C176.712 14.5915 177.464 14.3035 178.072 13.7275C178.68 13.1515 178.984 12.4075 178.984 11.4955C178.984 10.6155 178.68 9.89553 178.072 9.33553C177.464 8.77553 176.712 8.49553 175.816 8.49553C174.92 8.49553 174.184 8.77553 173.608 9.33553C173.048 9.89553 172.768 10.6315 172.768 11.5435C172.768 12.4555 173.048 13.1915 173.608 13.7515C174.184 14.3115 174.92 14.5915 175.816 14.5915ZM191.691 5.18353C192.395 5.18353 193.107 5.33553 193.827 5.63953C194.547 5.94353 195.163 6.47953 195.675 7.24753C196.187 8.01553 196.443 9.04753 196.443 10.3435V17.5195H193.011V10.3435C193.011 9.57553 192.795 9.02353 192.363 8.68753C191.947 8.35153 191.443 8.18353 190.851 8.18353C190.259 8.18353 189.763 8.39153 189.363 8.80753C188.979 9.22353 188.787 9.88753 188.787 10.7995V17.5195H185.355V5.51953H188.787V6.33553C189.699 5.56753 190.667 5.18353 191.691 5.18353ZM216.34 17.5195H212.908V10.4395C212.908 9.67153 212.692 9.11953 212.26 8.78353C211.828 8.43153 211.316 8.25553 210.724 8.25553C210.228 8.25553 209.796 8.41553 209.428 8.73553C209.06 9.03953 208.828 9.51953 208.732 10.1755V17.5195H205.3V0.71953H208.732V6.38353C209.612 5.64753 210.564 5.27953 211.588 5.27953C212.276 5.27953 212.972 5.43153 213.676 5.73553C214.396 6.02353 215.012 6.54353 215.524 7.29553C216.052 8.04753 216.324 9.06353 216.34 10.3435V17.5195ZM224.09 5.20753C225.258 5.20753 226.298 5.48753 227.21 6.04753C228.138 6.60753 228.858 7.36753 229.37 8.32753C229.882 9.28753 230.138 10.3515 230.138 11.5195C230.138 11.9675 230.106 12.3755 230.042 12.7435H221.162C221.466 13.4795 221.874 14.0315 222.386 14.3995C222.898 14.7515 223.562 14.9275 224.378 14.9275C224.874 14.9275 225.354 14.8235 225.818 14.6155C226.298 14.4075 226.674 14.1275 226.946 13.7755L229.538 15.3115C228.978 16.1275 228.25 16.7515 227.354 17.1835C226.474 17.6155 225.458 17.8315 224.306 17.8315C223.01 17.8315 221.866 17.5595 220.874 17.0155C219.882 16.4555 219.114 15.6955 218.57 14.7355C218.026 13.7755 217.754 12.7035 217.754 11.5195C217.754 10.3355 218.018 9.26353 218.546 8.30353C219.09 7.34353 219.842 6.59153 220.802 6.04753C221.762 5.48753 222.858 5.20753 224.09 5.20753ZM226.922 10.0795C226.81 9.47153 226.49 8.99953 225.962 8.66353C225.45 8.32753 224.818 8.15953 224.066 8.15953C223.282 8.15953 222.602 8.35153 222.026 8.73553C221.45 9.10353 221.146 9.55153 221.114 10.0795H226.922ZM239.461 5.27953L239.221 8.51953C239.109 8.47153 238.925 8.44753 238.669 8.44753C237.693 8.44753 236.893 8.72753 236.269 9.28753C235.661 9.83153 235.357 10.5515 235.357 11.4475V17.5195H231.925V5.51953H235.357V7.46353C235.645 6.83953 236.109 6.31953 236.749 5.90353C237.389 5.48753 238.165 5.27953 239.077 5.27953H239.461ZM246.402 5.20753C247.57 5.20753 248.61 5.48753 249.522 6.04753C250.45 6.60753 251.17 7.36753 251.682 8.32753C252.194 9.28753 252.45 10.3515 252.45 11.5195C252.45 11.9675 252.418 12.3755 252.354 12.7435H243.474C243.778 13.4795 244.186 14.0315 244.698 14.3995C245.21 14.7515 245.874 14.9275 246.69 14.9275C247.186 14.9275 247.666 14.8235 248.13 14.6155C248.61 14.4075 248.986 14.1275 249.258 13.7755L251.85 15.3115C251.29 16.1275 250.562 16.7515 249.666 17.1835C248.786 17.6155 247.77 17.8315 246.618 17.8315C245.322 17.8315 244.178 17.5595 243.186 17.0155C242.194 16.4555 241.426 15.6955 240.882 14.7355C240.338 13.7755 240.066 12.7035 240.066 11.5195C240.066 10.3355 240.33 9.26353 240.858 8.30353C241.402 7.34353 242.154 6.59153 243.114 6.04753C244.074 5.48753 245.17 5.20753 246.402 5.20753ZM249.234 10.0795C249.122 9.47153 248.802 8.99953 248.274 8.66353C247.762 8.32753 247.13 8.15953 246.378 8.15953C245.594 8.15953 244.914 8.35153 244.338 8.73553C243.762 9.10353 243.458 9.55153 243.426 10.0795H249.234Z" fill="#EAEAEA"/>
<path d="M0 19.9195H168.308V21.1195H0V19.9195ZM182.716 19.9195H253.242V21.1195H182.716V19.9195Z" fill="#EAEAEA"/>
<a href="https://youtube.com/shorts/xv_w2v97NmE?si=TS-rMblsS7y9q6H7">
<rect fill="black" fill-opacity="0" y="0.164" width="253.242" height="27.672"/>
</a>
</svg>
