<svg width="594" height="23" viewBox="0 0 594 23" fill="none" xmlns="http://www.w3.org/2000/svg">
<path d="M11.1122 8.52002C11.6242 9.00002 12.0242 9.56802 12.3122 10.224C12.6002 10.88 12.7442 11.576 12.7442 12.312C12.7442 13.24 12.5202 14.104 12.0722 14.904C11.6242 15.704 11.0162 16.336 10.2482 16.8C9.49616 17.264 8.67216 17.496 7.77616 17.496H3.60016V17.52H0.000164151V0.720018H7.39216C8.24016 0.720018 9.02416 0.944018 9.74416 1.39202C10.4642 1.82402 11.0322 2.41602 11.4482 3.16802C11.8802 3.90402 12.0962 4.69602 12.0962 5.54402C12.0962 6.07202 12.0082 6.60002 11.8322 7.12802C11.6722 7.64002 11.4322 8.10402 11.1122 8.52002ZM3.60016 4.15202V7.24802L7.39216 7.22402C7.74416 7.22402 8.06416 7.08002 8.35216 6.79202C8.64016 6.48802 8.78416 6.12002 8.78416 5.68802C8.78416 5.24002 8.64016 4.87202 8.35216 4.58402C8.06416 4.29602 7.74416 4.15202 7.39216 4.15202H3.60016ZM7.77616 14.064C8.19216 14.064 8.55216 13.888 8.85616 13.536C9.16016 13.184 9.31216 12.768 9.31216 12.288C9.31216 11.808 9.16016 11.392 8.85616 11.04C8.55216 10.688 8.19216 10.512 7.77616 10.512H3.60016V14.064H7.77616ZM19.9811 5.20802C21.1491 5.20802 22.1891 5.48802 23.1011 6.04802C24.0291 6.60802 24.7491 7.36802 25.2611 8.32802C25.7731 9.28802 26.0291 10.352 26.0291 11.52C26.0291 11.968 25.9971 12.376 25.9331 12.744H17.0531C17.3571 13.48 17.7651 14.032 18.2771 14.4C18.7891 14.752 19.4531 14.928 20.2691 14.928C20.7651 14.928 21.2451 14.824 21.7091 14.616C22.1891 14.408 22.5651 14.128 22.8371 13.776L25.4291 15.312C24.8691 16.128 24.1411 16.752 23.2451 17.184C22.3651 17.616 21.3491 17.832 20.1971 17.832C18.9011 17.832 17.7571 17.56 16.7651 17.016C15.7731 16.456 15.0051 15.696 14.4611 14.736C13.9171 13.776 13.6451 12.704 13.6451 11.52C13.6451 10.336 13.9091 9.26402 14.4371 8.30402C14.9811 7.34402 15.7331 6.59202 16.6931 6.04802C17.6531 5.48802 18.7491 5.20802 19.9811 5.20802ZM22.8131 10.08C22.7011 9.47202 22.3811 9.00002 21.8531 8.66402C21.3411 8.32802 20.7091 8.16002 19.9571 8.16002C19.1731 8.16002 18.4931 8.35202 17.9171 8.73602C17.3411 9.10402 17.0371 9.55202 17.0051 10.08H22.8131ZM31.2485 13.728C31.2485 13.984 31.3045 14.168 31.4165 14.28C31.5445 14.392 31.7525 14.448 32.0405 14.448C32.2485 14.448 32.4965 14.424 32.7845 14.376V17.52C32.0005 17.632 31.3925 17.688 30.9605 17.688C29.9205 17.688 29.1365 17.416 28.6085 16.872C28.0805 16.312 27.8165 15.336 27.8165 13.944V0.720018H31.2485V13.728ZM39.8561 17.88C38.7041 17.88 37.6401 17.6 36.6641 17.04C35.7041 16.464 34.9361 15.688 34.3601 14.712C33.8001 13.736 33.5201 12.68 33.5201 11.544C33.5201 10.392 33.8001 9.33602 34.3601 8.37602C34.9361 7.40002 35.7041 6.63202 36.6641 6.07202C37.6401 5.49602 38.7041 5.20802 39.8561 5.20802C40.9921 5.20802 42.0401 5.49602 43.0001 6.07202C43.9761 6.63202 44.7441 7.40002 45.3041 8.37602C45.8801 9.33602 46.1681 10.392 46.1681 11.544C46.1681 12.68 45.8801 13.736 45.3041 14.712C44.7441 15.688 43.9761 16.464 43.0001 17.04C42.0401 17.6 40.9921 17.88 39.8561 17.88ZM39.8321 14.448C40.6321 14.448 41.3201 14.168 41.8961 13.608C42.4721 13.032 42.7601 12.344 42.7601 11.544C42.7601 10.744 42.4721 10.056 41.8961 9.48002C41.3201 8.90402 40.6321 8.61602 39.8321 8.61602C39.0321 8.61602 38.3441 8.90402 37.7681 9.48002C37.2081 10.056 36.9281 10.744 36.9281 11.544C36.9281 12.344 37.2081 13.032 37.7681 13.608C38.3441 14.168 39.0321 14.448 39.8321 14.448ZM59.2155 11.976L61.1595 5.52002H64.7355L60.8475 17.52H57.5115L55.5195 11.184L53.5035 17.52H50.1915L46.3515 5.52002H49.9515L51.8475 11.904L53.6955 5.52002H57.3195L59.2155 11.976ZM81.797 5.52002H85.205V17.52H81.797V16.608C81.269 17.008 80.685 17.312 80.045 17.52C79.421 17.744 78.789 17.856 78.149 17.856C76.901 17.856 75.821 17.584 74.909 17.04C74.013 16.496 73.325 15.752 72.845 14.808C72.365 13.848 72.125 12.76 72.125 11.544C72.125 10.328 72.365 9.24002 72.845 8.28002C73.325 7.30402 74.013 6.54402 74.909 6.00002C75.821 5.45602 76.901 5.18402 78.149 5.18402C78.805 5.18402 79.445 5.29602 80.069 5.52002C80.693 5.74402 81.269 6.05602 81.797 6.45602V5.52002ZM78.605 14.592C79.501 14.592 80.253 14.304 80.861 13.728C81.469 13.152 81.773 12.408 81.773 11.496C81.773 10.616 81.469 9.89602 80.861 9.33602C80.253 8.77602 79.501 8.49602 78.605 8.49602C77.709 8.49602 76.973 8.77602 76.397 9.33602C75.821 9.89602 75.533 10.632 75.533 11.544C75.533 12.456 75.821 13.192 76.397 13.752C76.973 14.312 77.709 14.592 78.605 14.592ZM95.6807 5.28002L95.4407 8.52002C95.3287 8.47202 95.1447 8.44802 94.8887 8.44802C93.9127 8.44802 93.1127 8.72802 92.4887 9.28802C91.8807 9.83202 91.5767 10.552 91.5767 11.448V17.52H88.1447V5.52002H91.5767V7.46402C91.8647 6.84002 92.3287 6.32002 92.9687 5.90402C93.6087 5.48802 94.3847 5.28002 95.2967 5.28002H95.6807ZM102.622 5.20802C103.79 5.20802 104.83 5.48802 105.742 6.04802C106.67 6.60802 107.39 7.36802 107.902 8.32802C108.414 9.28802 108.67 10.352 108.67 11.52C108.67 11.968 108.638 12.376 108.574 12.744H99.6937C99.9977 13.48 100.406 14.032 100.918 14.4C101.43 14.752 102.094 14.928 102.91 14.928C103.406 14.928 103.886 14.824 104.35 14.616C104.83 14.408 105.206 14.128 105.478 13.776L108.07 15.312C107.51 16.128 106.782 16.752 105.886 17.184C105.006 17.616 103.99 17.832 102.838 17.832C101.542 17.832 100.398 17.56 99.4057 17.016C98.4137 16.456 97.6457 15.696 97.1017 14.736C96.5577 13.776 96.2857 12.704 96.2857 11.52C96.2857 10.336 96.5497 9.26402 97.0777 8.30402C97.6217 7.34402 98.3737 6.59202 99.3337 6.04802C100.294 5.48802 101.39 5.20802 102.622 5.20802ZM105.454 10.08C105.342 9.47202 105.022 9.00002 104.494 8.66402C103.982 8.32802 103.35 8.16002 102.598 8.16002C101.814 8.16002 101.134 8.35202 100.558 8.73602C99.9817 9.10402 99.6777 9.55202 99.6457 10.08H105.454ZM121.531 13.248C121.531 13.696 121.651 14.008 121.891 14.184C122.147 14.36 122.531 14.448 123.043 14.448C123.363 14.448 123.715 14.424 124.099 14.376V17.52C123.299 17.6 122.635 17.64 122.107 17.64C120.763 17.64 119.755 17.344 119.083 16.752C118.427 16.144 118.099 15.048 118.099 13.464V8.56802H116.035V5.52002H118.099V2.73602L121.531 1.58402V5.52002H124.051V8.56802H121.531V13.248ZM137.2 17.52H133.768V10.44C133.768 9.67202 133.552 9.12002 133.12 8.78402C132.688 8.43202 132.176 8.25602 131.584 8.25602C131.088 8.25602 130.656 8.41602 130.288 8.73602C129.92 9.04002 129.688 9.52002 129.592 10.176V17.52H126.16V0.720018H129.592V6.38402C130.472 5.64802 131.424 5.28002 132.448 5.28002C133.136 5.28002 133.832 5.43202 134.536 5.73602C135.256 6.02402 135.872 6.54402 136.384 7.29602C136.912 8.04802 137.184 9.06402 137.2 10.344V17.52ZM144.95 5.20802C146.118 5.20802 147.158 5.48802 148.07 6.04802C148.998 6.60802 149.718 7.36802 150.23 8.32802C150.742 9.28802 150.998 10.352 150.998 11.52C150.998 11.968 150.966 12.376 150.902 12.744H142.022C142.326 13.48 142.734 14.032 143.246 14.4C143.758 14.752 144.422 14.928 145.238 14.928C145.734 14.928 146.214 14.824 146.678 14.616C147.158 14.408 147.534 14.128 147.806 13.776L150.398 15.312C149.838 16.128 149.11 16.752 148.214 17.184C147.334 17.616 146.318 17.832 145.166 17.832C143.87 17.832 142.726 17.56 141.734 17.016C140.742 16.456 139.974 15.696 139.43 14.736C138.886 13.776 138.614 12.704 138.614 11.52C138.614 10.336 138.878 9.26402 139.406 8.30402C139.95 7.34402 140.702 6.59202 141.662 6.04802C142.622 5.48802 143.718 5.20802 144.95 5.20802ZM147.782 10.08C147.67 9.47202 147.35 9.00002 146.822 8.66402C146.31 8.32802 145.678 8.16002 144.926 8.16002C144.142 8.16002 143.462 8.35202 142.886 8.73602C142.31 9.10402 142.006 9.55202 141.974 10.08H147.782ZM165.083 5.20802C166.251 5.20802 167.291 5.48802 168.203 6.04802C169.131 6.60802 169.851 7.36802 170.363 8.32802C170.875 9.28802 171.131 10.352 171.131 11.52C171.131 11.968 171.099 12.376 171.035 12.744H162.155C162.459 13.48 162.867 14.032 163.379 14.4C163.891 14.752 164.555 14.928 165.371 14.928C165.867 14.928 166.347 14.824 166.811 14.616C167.291 14.408 167.667 14.128 167.939 13.776L170.531 15.312C169.971 16.128 169.243 16.752 168.347 17.184C167.467 17.616 166.451 17.832 165.299 17.832C164.003 17.832 162.859 17.56 161.867 17.016C160.875 16.456 160.107 15.696 159.563 14.736C159.019 13.776 158.747 12.704 158.747 11.52C158.747 10.336 159.011 9.26402 159.539 8.30402C160.083 7.34402 160.835 6.59202 161.795 6.04802C162.755 5.48802 163.851 5.20802 165.083 5.20802ZM167.915 10.08C167.803 9.47202 167.483 9.00002 166.955 8.66402C166.443 8.32802 165.811 8.16002 165.059 8.16002C164.275 8.16002 163.595 8.35202 163.019 8.73602C162.443 9.10402 162.139 9.55202 162.107 10.08H167.915ZM186.79 5.18402C187.494 5.18402 188.206 5.33602 188.926 5.64002C189.646 5.94402 190.262 6.48002 190.774 7.24802C191.286 8.01602 191.542 9.04802 191.542 10.344V17.52H188.134V10.344C188.134 9.57602 187.918 9.02402 187.486 8.68802C187.054 8.35202 186.542 8.18402 185.95 8.18402C185.454 8.18402 185.022 8.33602 184.654 8.64002C184.302 8.92802 184.07 9.38402 183.958 10.008V10.344V17.52H180.526V10.344C180.526 9.57602 180.31 9.02402 179.878 8.68802C179.446 8.35202 178.934 8.18402 178.342 8.18402C177.846 8.18402 177.414 8.33602 177.046 8.64002C176.678 8.94402 176.446 9.43202 176.35 10.104V17.52H172.918V5.52002H176.35V6.28802C177.23 5.55202 178.182 5.18402 179.206 5.18402C179.91 5.18402 180.622 5.33602 181.342 5.64002C182.078 5.94402 182.678 6.44802 183.142 7.15202C183.558 6.59202 184.086 6.12802 184.726 5.76002C185.366 5.37602 186.054 5.18402 186.79 5.18402ZM200.833 5.20802C202.081 5.20802 203.153 5.48002 204.049 6.02402C204.961 6.56802 205.657 7.32002 206.137 8.28002C206.617 9.22402 206.857 10.304 206.857 11.52C206.857 12.736 206.617 13.824 206.137 14.784C205.657 15.744 204.961 16.504 204.049 17.064C203.153 17.608 202.081 17.88 200.833 17.88C200.193 17.88 199.561 17.768 198.937 17.544C198.313 17.336 197.737 17.032 197.209 16.632V22.32H193.777V5.52002H197.209V6.45602C197.737 6.05602 198.305 5.75202 198.913 5.54402C199.537 5.32002 200.177 5.20802 200.833 5.20802ZM200.377 14.544C201.273 14.544 202.001 14.272 202.561 13.728C203.137 13.168 203.425 12.432 203.425 11.52C203.425 10.608 203.137 9.87202 202.561 9.31202C202.001 8.75202 201.273 8.47202 200.377 8.47202C199.481 8.47202 198.729 8.76002 198.121 9.33602C197.513 9.91202 197.209 10.648 197.209 11.544C197.209 12.44 197.505 13.168 198.097 13.728C198.705 14.272 199.465 14.544 200.377 14.544ZM213.148 13.248C213.148 13.696 213.268 14.008 213.508 14.184C213.764 14.36 214.148 14.448 214.66 14.448C214.98 14.448 215.332 14.424 215.716 14.376V17.52C214.916 17.6 214.252 17.64 213.724 17.64C212.38 17.64 211.372 17.344 210.7 16.752C210.044 16.144 209.716 15.048 209.716 13.464V8.56802H207.652V5.52002H209.716V2.73602L213.148 1.58402V5.52002H215.668V8.56802H213.148V13.248ZM226.094 5.52002H229.67L225.638 17.352C224.966 19.08 224.054 20.368 222.902 21.216C221.766 22.064 220.406 22.432 218.822 22.32V19.008C218.918 19.024 219.062 19.032 219.254 19.032C219.926 19.032 220.486 18.856 220.934 18.504C221.382 18.152 221.758 17.664 222.062 17.04L216.878 5.52002H220.574L223.718 12.408L226.094 5.52002ZM249.059 11.976L251.003 5.52002H254.579L250.691 17.52H247.355L245.363 11.184L243.347 17.52H240.035L236.195 5.52002H239.795L241.691 11.904L243.539 5.52002H247.163L249.059 11.976ZM264.539 5.52002H267.947V17.52H264.539V16.608C264.011 17.008 263.427 17.312 262.787 17.52C262.163 17.744 261.531 17.856 260.891 17.856C259.643 17.856 258.563 17.584 257.651 17.04C256.755 16.496 256.067 15.752 255.587 14.808C255.107 13.848 254.867 12.76 254.867 11.544C254.867 10.328 255.107 9.24002 255.587 8.28002C256.067 7.30402 256.755 6.54402 257.651 6.00002C258.563 5.45602 259.643 5.18402 260.891 5.18402C261.547 5.18402 262.187 5.29602 262.811 5.52002C263.435 5.74402 264.011 6.05602 264.539 6.45602V5.52002ZM261.347 14.592C262.243 14.592 262.995 14.304 263.603 13.728C264.211 13.152 264.515 12.408 264.515 11.496C264.515 10.616 264.211 9.89602 263.603 9.33602C262.995 8.77602 262.243 8.49602 261.347 8.49602C260.451 8.49602 259.715 8.77602 259.139 9.33602C258.563 9.89602 258.275 10.632 258.275 11.544C258.275 12.456 258.563 13.192 259.139 13.752C259.715 14.312 260.451 14.592 261.347 14.592ZM273.991 13.728C273.991 13.984 274.047 14.168 274.159 14.28C274.287 14.392 274.495 14.448 274.783 14.448C274.991 14.448 275.239 14.424 275.527 14.376V17.52C274.743 17.632 274.135 17.688 273.703 17.688C272.663 17.688 271.879 17.416 271.351 16.872C270.823 16.312 270.559 15.336 270.559 13.944V0.720018H273.991V13.728ZM280.717 13.728C280.717 13.984 280.773 14.168 280.885 14.28C281.013 14.392 281.221 14.448 281.509 14.448C281.717 14.448 281.965 14.424 282.253 14.376V17.52C281.469 17.632 280.861 17.688 280.429 17.688C279.389 17.688 278.605 17.416 278.077 16.872C277.549 16.312 277.285 15.336 277.285 13.944V0.720018H280.717V13.728ZM287.506 8.92802C287.506 9.20002 287.674 9.40802 288.01 9.55202C288.346 9.68002 288.882 9.81602 289.618 9.96002C290.562 10.152 291.346 10.368 291.97 10.608C292.594 10.832 293.138 11.216 293.602 11.76C294.082 12.288 294.322 13.024 294.322 13.968C294.322 14.784 294.074 15.488 293.578 16.08C293.082 16.656 292.426 17.096 291.61 17.4C290.794 17.688 289.914 17.832 288.97 17.832C287.674 17.832 286.57 17.6 285.658 17.136C284.746 16.656 284.058 15.952 283.594 15.024L286.402 13.584C286.786 14.608 287.642 15.12 288.97 15.12C289.514 15.12 289.986 15.024 290.386 14.832C290.802 14.624 291.01 14.336 291.01 13.968C291.01 13.648 290.818 13.408 290.434 13.248C290.066 13.088 289.474 12.92 288.658 12.744C287.73 12.536 286.954 12.32 286.33 12.096C285.706 11.856 285.17 11.496 284.722 11.016C284.274 10.52 284.05 9.86402 284.05 9.04802C284.05 8.26402 284.274 7.58402 284.722 7.00802C285.17 6.41602 285.77 5.96802 286.522 5.66402C287.29 5.36002 288.122 5.20802 289.018 5.20802C290.074 5.20802 291.026 5.42402 291.874 5.85602C292.722 6.28802 293.386 6.91202 293.866 7.72802L291.082 9.09602C290.89 8.69602 290.626 8.40002 290.29 8.20802C289.97 8.01602 289.546 7.92002 289.018 7.92002C288.554 7.92002 288.186 8.01602 287.914 8.20802C287.642 8.38402 287.506 8.62402 287.506 8.92802ZM314.333 11.976L316.277 5.52002H319.853L315.965 17.52H312.629L310.637 11.184L308.621 17.52H305.309L301.469 5.52002H305.069L306.965 11.904L308.813 5.52002H312.437L314.333 11.976ZM326.145 5.20802C327.313 5.20802 328.353 5.48802 329.265 6.04802C330.193 6.60802 330.913 7.36802 331.425 8.32802C331.937 9.28802 332.193 10.352 332.193 11.52C332.193 11.968 332.161 12.376 332.097 12.744H323.217C323.521 13.48 323.929 14.032 324.441 14.4C324.953 14.752 325.617 14.928 326.433 14.928C326.929 14.928 327.409 14.824 327.873 14.616C328.353 14.408 328.729 14.128 329.001 13.776L331.593 15.312C331.033 16.128 330.305 16.752 329.409 17.184C328.529 17.616 327.513 17.832 326.361 17.832C325.065 17.832 323.921 17.56 322.929 17.016C321.937 16.456 321.169 15.696 320.625 14.736C320.081 13.776 319.809 12.704 319.809 11.52C319.809 10.336 320.073 9.26402 320.601 8.30402C321.145 7.34402 321.897 6.59202 322.857 6.04802C323.817 5.48802 324.913 5.20802 326.145 5.20802ZM328.977 10.08C328.865 9.47202 328.545 9.00002 328.017 8.66402C327.505 8.32802 326.873 8.16002 326.121 8.16002C325.337 8.16002 324.657 8.35202 324.081 8.73602C323.505 9.10402 323.201 9.55202 323.169 10.08H328.977ZM352.278 11.976L354.222 5.52002H357.798L353.91 17.52H350.574L348.582 11.184L346.566 17.52H343.254L339.414 5.52002H343.014L344.91 11.904L346.758 5.52002H350.382L352.278 11.976ZM364.09 5.20802C365.258 5.20802 366.298 5.48802 367.21 6.04802C368.138 6.60802 368.858 7.36802 369.37 8.32802C369.882 9.28802 370.138 10.352 370.138 11.52C370.138 11.968 370.106 12.376 370.042 12.744H361.162C361.466 13.48 361.874 14.032 362.386 14.4C362.898 14.752 363.562 14.928 364.378 14.928C364.874 14.928 365.354 14.824 365.818 14.616C366.298 14.408 366.674 14.128 366.946 13.776L369.538 15.312C368.978 16.128 368.25 16.752 367.354 17.184C366.474 17.616 365.458 17.832 364.306 17.832C363.01 17.832 361.866 17.56 360.874 17.016C359.882 16.456 359.114 15.696 358.57 14.736C358.026 13.776 357.754 12.704 357.754 11.52C357.754 10.336 358.018 9.26402 358.546 8.30402C359.09 7.34402 359.842 6.59202 360.802 6.04802C361.762 5.48802 362.858 5.20802 364.09 5.20802ZM366.922 10.08C366.81 9.47202 366.49 9.00002 365.962 8.66402C365.45 8.32802 364.818 8.16002 364.066 8.16002C363.282 8.16002 362.602 8.35202 362.026 8.73602C361.45 9.10402 361.146 9.55202 361.114 10.08H366.922ZM379.462 5.28002L379.222 8.52002C379.11 8.47202 378.926 8.44802 378.67 8.44802C377.694 8.44802 376.894 8.72802 376.27 9.28802C375.662 9.83202 375.358 10.552 375.358 11.448V17.52H371.926V5.52002H375.358V7.46402C375.646 6.84002 376.11 6.32002 376.75 5.90402C377.39 5.48802 378.166 5.28002 379.078 5.28002H379.462ZM386.403 5.20802C387.571 5.20802 388.611 5.48802 389.523 6.04802C390.451 6.60802 391.171 7.36802 391.683 8.32802C392.195 9.28802 392.451 10.352 392.451 11.52C392.451 11.968 392.419 12.376 392.355 12.744H383.475C383.779 13.48 384.187 14.032 384.699 14.4C385.211 14.752 385.875 14.928 386.691 14.928C387.187 14.928 387.667 14.824 388.131 14.616C388.611 14.408 388.987 14.128 389.259 13.776L391.851 15.312C391.291 16.128 390.563 16.752 389.667 17.184C388.787 17.616 387.771 17.832 386.619 17.832C385.323 17.832 384.179 17.56 383.187 17.016C382.195 16.456 381.427 15.696 380.883 14.736C380.339 13.776 380.067 12.704 380.067 11.52C380.067 10.336 380.331 9.26402 380.859 8.30402C381.403 7.34402 382.155 6.59202 383.115 6.04802C384.075 5.48802 385.171 5.20802 386.403 5.20802ZM389.235 10.08C389.123 9.47202 388.803 9.00002 388.275 8.66402C387.763 8.32802 387.131 8.16002 386.379 8.16002C385.595 8.16002 384.915 8.35202 384.339 8.73602C383.763 9.10402 383.459 9.55202 383.427 10.08H389.235ZM405.312 13.248C405.312 13.696 405.432 14.008 405.672 14.184C405.928 14.36 406.312 14.448 406.824 14.448C407.144 14.448 407.496 14.424 407.88 14.376V17.52C407.08 17.6 406.416 17.64 405.888 17.64C404.544 17.64 403.536 17.344 402.864 16.752C402.208 16.144 401.88 15.048 401.88 13.464V8.56802H399.816V5.52002H401.88V2.73602L405.312 1.58402V5.52002H407.832V8.56802H405.312V13.248ZM419.016 5.52002H422.424V17.52H419.016V16.608C418.488 17.008 417.904 17.312 417.264 17.52C416.64 17.744 416.008 17.856 415.368 17.856C414.12 17.856 413.04 17.584 412.128 17.04C411.232 16.496 410.544 15.752 410.064 14.808C409.584 13.848 409.344 12.76 409.344 11.544C409.344 10.328 409.584 9.24002 410.064 8.28002C410.544 7.30402 411.232 6.54402 412.128 6.00002C413.04 5.45602 414.12 5.18402 415.368 5.18402C416.024 5.18402 416.664 5.29602 417.288 5.52002C417.912 5.74402 418.488 6.05602 419.016 6.45602V5.52002ZM415.824 14.592C416.72 14.592 417.472 14.304 418.08 13.728C418.688 13.152 418.992 12.408 418.992 11.496C418.992 10.616 418.688 9.89602 418.08 9.33602C417.472 8.77602 416.72 8.49602 415.824 8.49602C414.928 8.49602 414.192 8.77602 413.616 9.33602C413.04 9.89602 412.752 10.632 412.752 11.544C412.752 12.456 413.04 13.192 413.616 13.752C414.192 14.312 414.928 14.592 415.824 14.592ZM427.967 8.92802C427.967 9.20002 428.135 9.40802 428.471 9.55202C428.807 9.68002 429.343 9.81602 430.079 9.96002C431.023 10.152 431.807 10.368 432.431 10.608C433.055 10.832 433.599 11.216 434.063 11.76C434.543 12.288 434.783 13.024 434.783 13.968C434.783 14.784 434.535 15.488 434.039 16.08C433.543 16.656 432.887 17.096 432.071 17.4C431.255 17.688 430.375 17.832 429.431 17.832C428.135 17.832 427.031 17.6 426.119 17.136C425.207 16.656 424.519 15.952 424.055 15.024L426.863 13.584C427.247 14.608 428.103 15.12 429.431 15.12C429.975 15.12 430.447 15.024 430.847 14.832C431.263 14.624 431.471 14.336 431.471 13.968C431.471 13.648 431.279 13.408 430.895 13.248C430.527 13.088 429.935 12.92 429.119 12.744C428.191 12.536 427.415 12.32 426.791 12.096C426.167 11.856 425.631 11.496 425.183 11.016C424.735 10.52 424.511 9.86402 424.511 9.04802C424.511 8.26402 424.735 7.58402 425.183 7.00802C425.631 6.41602 426.231 5.96802 426.983 5.66402C427.751 5.36002 428.583 5.20802 429.479 5.20802C430.535 5.20802 431.487 5.42402 432.335 5.85602C433.183 6.28802 433.847 6.91202 434.327 7.72802L431.543 9.09602C431.351 8.69602 431.087 8.40002 430.751 8.20802C430.431 8.01602 430.007 7.92002 429.479 7.92002C429.015 7.92002 428.647 8.01602 428.375 8.20802C428.103 8.38402 427.967 8.62402 427.967 8.92802ZM449.325 17.52H445.053L441.981 13.368L440.397 15.096V17.52H436.965V0.720018H440.397V10.056L444.381 5.52002H449.157L444.309 10.8L449.325 17.52ZM455.356 5.20802C456.524 5.20802 457.564 5.48802 458.476 6.04802C459.404 6.60802 460.124 7.36802 460.636 8.32802C461.148 9.28802 461.404 10.352 461.404 11.52C461.404 11.968 461.372 12.376 461.308 12.744H452.428C452.732 13.48 453.14 14.032 453.652 14.4C454.164 14.752 454.828 14.928 455.644 14.928C456.14 14.928 456.62 14.824 457.084 14.616C457.564 14.408 457.94 14.128 458.212 13.776L460.804 15.312C460.244 16.128 459.516 16.752 458.62 17.184C457.74 17.616 456.724 17.832 455.572 17.832C454.276 17.832 453.132 17.56 452.14 17.016C451.148 16.456 450.38 15.696 449.836 14.736C449.292 13.776 449.02 12.704 449.02 11.52C449.02 10.336 449.284 9.26402 449.812 8.30402C450.356 7.34402 451.108 6.59202 452.068 6.04802C453.028 5.48802 454.124 5.20802 455.356 5.20802ZM458.188 10.08C458.076 9.47202 457.756 9.00002 457.228 8.66402C456.716 8.32802 456.084 8.16002 455.332 8.16002C454.548 8.16002 453.868 8.35202 453.292 8.73602C452.716 9.10402 452.412 9.55202 452.38 10.08H458.188ZM472.336 0.720018H475.744V17.52H472.336V16.608C471.808 17.008 471.232 17.312 470.608 17.52C470 17.744 469.368 17.856 468.712 17.856C467.464 17.856 466.384 17.584 465.472 17.04C464.576 16.496 463.888 15.752 463.408 14.808C462.928 13.848 462.688 12.76 462.688 11.544C462.688 10.328 462.928 9.24002 463.408 8.28002C463.888 7.30402 464.576 6.54402 465.472 6.00002C466.384 5.45602 467.464 5.18402 468.712 5.18402C469.352 5.18402 469.984 5.29602 470.608 5.52002C471.232 5.72802 471.808 6.03202 472.336 6.43202V0.720018ZM469.168 14.592C470.064 14.592 470.816 14.304 471.424 13.728C472.032 13.152 472.336 12.408 472.336 11.496C472.336 10.616 472.032 9.89602 471.424 9.33602C470.816 8.77602 470.064 8.49602 469.168 8.49602C468.272 8.49602 467.536 8.77602 466.96 9.33602C466.384 9.89602 466.096 10.632 466.096 11.544C466.096 12.456 466.384 13.192 466.96 13.752C467.536 14.312 468.272 14.592 469.168 14.592ZM492.384 5.28002L492.144 8.52002C492.032 8.47202 491.848 8.44802 491.592 8.44802C490.616 8.44802 489.816 8.72802 489.192 9.28802C488.584 9.83202 488.28 10.552 488.28 11.448V17.52H484.848V5.52002H488.28V7.46402C488.568 6.84002 489.032 6.32002 489.672 5.90402C490.312 5.48802 491.088 5.28002 492 5.28002H492.384ZM499.255 17.88C498.103 17.88 497.039 17.6 496.063 17.04C495.103 16.464 494.335 15.688 493.759 14.712C493.199 13.736 492.919 12.68 492.919 11.544C492.919 10.392 493.199 9.33602 493.759 8.37602C494.335 7.40002 495.103 6.63202 496.063 6.07202C497.039 5.49602 498.103 5.20802 499.255 5.20802C500.391 5.20802 501.439 5.49602 502.399 6.07202C503.375 6.63202 504.143 7.40002 504.703 8.37602C505.279 9.33602 505.567 10.392 505.567 11.544C505.567 12.68 505.279 13.736 504.703 14.712C504.143 15.688 503.375 16.464 502.399 17.04C501.439 17.6 500.391 17.88 499.255 17.88ZM499.231 14.448C500.031 14.448 500.719 14.168 501.295 13.608C501.871 13.032 502.159 12.344 502.159 11.544C502.159 10.744 501.871 10.056 501.295 9.48002C500.719 8.90402 500.031 8.61602 499.231 8.61602C498.431 8.61602 497.743 8.90402 497.167 9.48002C496.607 10.056 496.327 10.744 496.327 11.544C496.327 12.344 496.607 13.032 497.167 13.608C497.743 14.168 498.431 14.448 499.231 14.448ZM523.125 0.720018H526.533V17.52H523.125V16.608C522.597 17.008 522.021 17.312 521.397 17.52C520.789 17.744 520.157 17.856 519.501 17.856C518.253 17.856 517.173 17.584 516.261 17.04C515.365 16.496 514.677 15.752 514.197 14.808C513.717 13.848 513.477 12.76 513.477 11.544C513.477 10.328 513.717 9.24002 514.197 8.28002C514.677 7.30402 515.365 6.54402 516.261 6.00002C517.173 5.45602 518.253 5.18402 519.501 5.18402C520.141 5.18402 520.773 5.29602 521.397 5.52002C522.021 5.72802 522.597 6.03202 523.125 6.43202V0.720018ZM519.957 14.592C520.853 14.592 521.605 14.304 522.213 13.728C522.821 13.152 523.125 12.408 523.125 11.496C523.125 10.616 522.821 9.89602 522.213 9.33602C521.605 8.77602 520.853 8.49602 519.957 8.49602C519.061 8.49602 518.325 8.77602 517.749 9.33602C517.173 9.89602 516.885 10.632 516.885 11.544C516.885 12.456 517.173 13.192 517.749 13.752C518.325 14.312 519.061 14.592 519.957 14.592ZM534.715 5.20802C535.883 5.20802 536.923 5.48802 537.835 6.04802C538.763 6.60802 539.483 7.36802 539.995 8.32802C540.507 9.28802 540.763 10.352 540.763 11.52C540.763 11.968 540.731 12.376 540.667 12.744H531.787C532.091 13.48 532.499 14.032 533.011 14.4C533.523 14.752 534.187 14.928 535.003 14.928C535.499 14.928 535.979 14.824 536.443 14.616C536.923 14.408 537.299 14.128 537.571 13.776L540.163 15.312C539.603 16.128 538.875 16.752 537.979 17.184C537.099 17.616 536.083 17.832 534.931 17.832C533.635 17.832 532.491 17.56 531.499 17.016C530.507 16.456 529.739 15.696 529.195 14.736C528.651 13.776 528.379 12.704 528.379 11.52C528.379 10.336 528.643 9.26402 529.171 8.30402C529.715 7.34402 530.467 6.59202 531.427 6.04802C532.387 5.48802 533.483 5.20802 534.715 5.20802ZM537.547 10.08C537.435 9.47202 537.115 9.00002 536.587 8.66402C536.075 8.32802 535.443 8.16002 534.691 8.16002C533.907 8.16002 533.227 8.35202 532.651 8.73602C532.075 9.10402 531.771 9.55202 531.739 10.08H537.547ZM545.623 8.92802C545.623 9.20002 545.791 9.40802 546.127 9.55202C546.463 9.68002 546.999 9.81602 547.735 9.96002C548.679 10.152 549.463 10.368 550.087 10.608C550.711 10.832 551.255 11.216 551.719 11.76C552.199 12.288 552.439 13.024 552.439 13.968C552.439 14.784 552.191 15.488 551.695 16.08C551.199 16.656 550.543 17.096 549.727 17.4C548.911 17.688 548.031 17.832 547.087 17.832C545.791 17.832 544.687 17.6 543.775 17.136C542.863 16.656 542.175 15.952 541.711 15.024L544.519 13.584C544.903 14.608 545.759 15.12 547.087 15.12C547.631 15.12 548.103 15.024 548.503 14.832C548.919 14.624 549.127 14.336 549.127 13.968C549.127 13.648 548.935 13.408 548.551 13.248C548.183 13.088 547.591 12.92 546.775 12.744C545.847 12.536 545.071 12.32 544.447 12.096C543.823 11.856 543.287 11.496 542.839 11.016C542.391 10.52 542.167 9.86402 542.167 9.04802C542.167 8.26402 542.391 7.58402 542.839 7.00802C543.287 6.41602 543.887 5.96802 544.639 5.66402C545.407 5.36002 546.239 5.20802 547.135 5.20802C548.191 5.20802 549.143 5.42402 549.991 5.85602C550.839 6.28802 551.503 6.91202 551.983 7.72802L549.199 9.09602C549.007 8.69602 548.743 8.40002 548.407 8.20802C548.087 8.01602 547.663 7.92002 547.135 7.92002C546.671 7.92002 546.303 8.01602 546.031 8.20802C545.759 8.38402 545.623 8.62402 545.623 8.92802ZM555.928 3.88802C555.288 3.88802 554.784 3.72002 554.416 3.38402C554.064 3.03202 553.888 2.56002 553.888 1.96802C553.888 1.36002 554.064 0.880019 554.416 0.528019C554.784 0.176019 555.288 1.90735e-05 555.928 1.90735e-05C556.552 1.90735e-05 557.048 0.176019 557.416 0.528019C557.784 0.880019 557.968 1.36002 557.968 1.96802C557.968 2.56002 557.784 3.03202 557.416 3.38402C557.048 3.72002 556.552 3.88802 555.928 3.88802ZM554.2 17.52V5.52002H557.632V17.52H554.2ZM569.274 5.52002H572.706V16.92C572.706 18.04 572.41 19.032 571.818 19.896C571.242 20.76 570.442 21.432 569.418 21.912C568.394 22.392 567.242 22.632 565.962 22.632C564.57 22.632 563.29 22.36 562.122 21.816C560.97 21.288 560.162 20.6 559.698 19.752L562.626 18.048C562.834 18.464 563.25 18.808 563.874 19.08C564.498 19.352 565.226 19.488 566.058 19.488C566.986 19.488 567.754 19.248 568.362 18.768C568.97 18.288 569.274 17.672 569.274 16.92V16.608C568.746 17.008 568.17 17.312 567.546 17.52C566.938 17.744 566.306 17.856 565.65 17.856C564.402 17.856 563.322 17.584 562.41 17.04C561.514 16.496 560.826 15.752 560.346 14.808C559.866 13.848 559.626 12.76 559.626 11.544C559.626 10.328 559.866 9.24002 560.346 8.28002C560.826 7.30402 561.514 6.54402 562.41 6.00002C563.322 5.45602 564.402 5.18402 565.65 5.18402C566.29 5.18402 566.922 5.29602 567.546 5.52002C568.17 5.72802 568.746 6.03202 569.274 6.43202V5.52002ZM566.106 14.592C567.002 14.592 567.754 14.304 568.362 13.728C568.97 13.152 569.274 12.408 569.274 11.496C569.274 10.616 568.97 9.89602 568.362 9.33602C567.754 8.77602 567.002 8.49602 566.106 8.49602C565.21 8.49602 564.474 8.77602 563.898 9.33602C563.338 9.89602 563.058 10.632 563.058 11.544C563.058 12.456 563.338 13.192 563.898 13.752C564.474 14.312 565.21 14.592 566.106 14.592ZM581.981 5.18402C582.685 5.18402 583.397 5.33602 584.117 5.64002C584.837 5.94402 585.453 6.48002 585.965 7.24802C586.477 8.01602 586.733 9.04802 586.733 10.344V17.52H583.301V10.344C583.301 9.57602 583.085 9.02402 582.653 8.68802C582.237 8.35202 581.733 8.18402 581.141 8.18402C580.549 8.18402 580.053 8.39202 579.653 8.80802C579.269 9.22402 579.077 9.88802 579.077 10.8V17.52H575.645V5.52002H579.077V6.33602C579.989 5.56802 580.957 5.18402 581.981 5.18402ZM589.305 7.65602C589.305 7.04802 589.465 6.58402 589.785 6.26402C590.105 5.92802 590.569 5.76002 591.177 5.76002C591.769 5.76002 592.225 5.92802 592.545 6.26402C592.865 6.58402 593.025 7.04802 593.025 7.65602C593.025 8.26402 592.865 8.73602 592.545 9.07202C592.225 9.39202 591.769 9.55202 591.177 9.55202C590.569 9.55202 590.105 9.39202 589.785 9.07202C589.465 8.73602 589.305 8.26402 589.305 7.65602ZM589.305 15.912C589.305 15.304 589.465 14.84 589.785 14.52C590.105 14.184 590.569 14.016 591.177 14.016C591.769 14.016 592.225 14.184 592.545 14.52C592.865 14.84 593.025 15.304 593.025 15.912C593.025 16.52 592.865 16.992 592.545 17.328C592.225 17.648 591.769 17.808 591.177 17.808C590.585 17.808 590.121 17.648 589.785 17.328C589.465 16.992 589.305 16.52 589.305 15.912Z" fill="#EAEAEA"/>
</svg>
