<svg width="162" height="92" viewBox="0 0 162 92" fill="none" xmlns="http://www.w3.org/2000/svg">
<path d="M61.4813 84.5306C61.4813 84.8944 61.5787 85.1478 61.7737 85.2907C61.9816 85.4337 62.2934 85.5051 62.7092 85.5051C62.9691 85.5051 63.255 85.4856 63.5668 85.4467V88C62.9171 88.065 62.3779 88.0975 61.9491 88.0975C60.8576 88.0975 60.039 87.8571 59.4932 87.3763C58.9604 86.8825 58.6941 85.9924 58.6941 84.706V80.7298H57.0178V78.2545H58.6941V75.9935L61.4813 75.0579V78.2545H63.5279V80.7298H61.4813V84.5306ZM72.6107 78.2545H75.3784V88H72.6107V87.2593C72.1819 87.5842 71.7076 87.8311 71.1879 88C70.6811 88.1819 70.1678 88.2729 69.6481 88.2729C68.6345 88.2729 67.7574 88.052 67.0168 87.6102C66.2891 87.1684 65.7303 86.5642 65.3405 85.7975C64.9507 85.0179 64.7558 84.1343 64.7558 83.1467C64.7558 82.1592 64.9507 81.2756 65.3405 80.4959C65.7303 79.7033 66.2891 79.0861 67.0168 78.6443C67.7574 78.2025 68.6345 77.9816 69.6481 77.9816C70.1808 77.9816 70.7006 78.0725 71.2073 78.2545C71.7141 78.4364 72.1819 78.6898 72.6107 79.0146V78.2545ZM70.0184 85.6221C70.7461 85.6221 71.3568 85.3882 71.8506 84.9204C72.3443 84.4526 72.5912 83.8484 72.5912 83.1077C72.5912 82.3931 72.3443 81.8083 71.8506 81.3535C71.3568 80.8987 70.7461 80.6713 70.0184 80.6713C69.2907 80.6713 68.693 80.8987 68.2252 81.3535C67.7574 81.8083 67.5235 82.4061 67.5235 83.1467C67.5235 83.8874 67.7574 84.4851 68.2252 84.9399C68.693 85.3947 69.2907 85.6221 70.0184 85.6221ZM82.29 78.0011C83.2386 78.0011 84.0832 78.2285 84.8239 78.6833C85.5775 79.1381 86.1622 79.7553 86.5781 80.5349C86.9939 81.3146 87.2018 82.1787 87.2018 83.1272C87.2018 83.4911 87.1758 83.8224 87.1238 84.1213H79.9121C80.159 84.719 80.4903 85.1673 80.9061 85.4662C81.322 85.752 81.8612 85.895 82.5239 85.895C82.9267 85.895 83.3165 85.8105 83.6934 85.6416C84.0832 85.4727 84.3886 85.2453 84.6095 84.9594L86.7145 86.2068C86.2597 86.8695 85.6685 87.3763 84.9408 87.7271C84.2261 88.078 83.401 88.2534 82.4654 88.2534C81.4129 88.2534 80.4838 88.0325 79.6782 87.5907C78.8726 87.1359 78.2489 86.5187 77.8071 85.739C77.3653 84.9594 77.1444 84.0888 77.1444 83.1272C77.1444 82.1657 77.3588 81.2951 77.7876 80.5154C78.2294 79.7358 78.8401 79.1251 79.6197 78.6833C80.3994 78.2285 81.2895 78.0011 82.29 78.0011ZM84.59 81.9578C84.499 81.464 84.2391 81.0807 83.8103 80.8078C83.3945 80.5349 82.8812 80.3985 82.2705 80.3985C81.6338 80.3985 81.0816 80.5544 80.6138 80.8663C80.146 81.1651 79.8991 81.529 79.8731 81.9578H84.59ZM96.0795 74.3562H98.8472V88H96.0795V87.2593C95.6507 87.5842 95.1829 87.8311 94.6761 88C94.1824 88.1819 93.6691 88.2729 93.1363 88.2729C92.1228 88.2729 91.2457 88.052 90.505 87.6102C89.7774 87.1684 89.2186 86.5642 88.8288 85.7975C88.439 85.0179 88.2441 84.1343 88.2441 83.1467C88.2441 82.1592 88.439 81.2756 88.8288 80.4959C89.2186 79.7033 89.7774 79.0861 90.505 78.6443C91.2457 78.2025 92.1228 77.9816 93.1363 77.9816C93.6561 77.9816 94.1694 78.0725 94.6761 78.2545C95.1829 78.4234 95.6507 78.6703 96.0795 78.9951V74.3562ZM93.5067 85.6221C94.2343 85.6221 94.8451 85.3882 95.3388 84.9204C95.8326 84.4526 96.0795 83.8484 96.0795 83.1077C96.0795 82.3931 95.8326 81.8083 95.3388 81.3535C94.8451 80.8987 94.2343 80.6713 93.5067 80.6713C92.779 80.6713 92.1813 80.8987 91.7135 81.3535C91.2457 81.8083 91.0118 82.4061 91.0118 83.1467C91.0118 83.8874 91.2457 84.4851 91.7135 84.9399C92.1813 85.3947 92.779 85.6221 93.5067 85.6221ZM108.319 78.2545H111.087V88H108.319V87.2593C107.89 87.5842 107.416 87.8311 106.896 88C106.389 88.1819 105.876 88.2729 105.356 88.2729C104.343 88.2729 103.466 88.052 102.725 87.6102C101.997 87.1684 101.439 86.5642 101.049 85.7975C100.659 85.0179 100.464 84.1343 100.464 83.1467C100.464 82.1592 100.659 81.2756 101.049 80.4959C101.439 79.7033 101.997 79.0861 102.725 78.6443C103.466 78.2025 104.343 77.9816 105.356 77.9816C105.889 77.9816 106.409 78.0725 106.916 78.2545C107.422 78.4364 107.89 78.6898 108.319 79.0146V78.2545ZM105.727 85.6221C106.454 85.6221 107.065 85.3882 107.559 84.9204C108.053 84.4526 108.3 83.8484 108.3 83.1077C108.3 82.3931 108.053 81.8083 107.559 81.3535C107.065 80.8987 106.454 80.6713 105.727 80.6713C104.999 80.6713 104.401 80.8987 103.933 81.3535C103.466 81.8083 103.232 82.4061 103.232 83.1467C103.232 83.8874 103.466 84.4851 103.933 84.9399C104.401 85.3947 104.999 85.6221 105.727 85.6221ZM115.995 84.9204C115.995 85.1283 116.04 85.2777 116.131 85.3687C116.235 85.4597 116.404 85.5051 116.638 85.5051C116.807 85.5051 117.008 85.4856 117.242 85.4467V88C116.606 88.091 116.112 88.1364 115.761 88.1364C114.916 88.1364 114.28 87.9155 113.851 87.4737C113.422 87.0189 113.208 86.2263 113.208 85.0958V74.3562H115.995V84.9204Z" fill="white"/>
<path d="M147.309 8.67838H30.3963C22.3586 8.67838 15.7822 12.072 15.7822 16.2199V53.9273C15.7822 58.0751 22.3586 61.4688 30.3963 61.4688H147.309C155.347 61.4688 161.923 58.0751 161.923 53.9273V16.2199C161.923 12.072 155.347 8.67838 147.309 8.67838Z" fill="#3F3F3F"/>
<path d="M18.6667 2.66667L19.9712 0.34094C19.1611 -0.113647 18.1723 -0.113647 17.3621 0.34094L18.6667 2.66667ZM22.3936 4.75734L21.0891 7.08307C21.4779 7.30113 21.9149 7.41827 22.3605 7.42379L22.3936 4.75734ZM26.6667 4.81027L28.9595 3.44843C28.4848 2.64958 27.6288 2.15531 26.6997 2.14379L26.6667 4.81027ZM28.8491 8.48433L26.5563 9.84617C26.784 10.2294 27.104 10.5494 27.4872 10.777L28.8491 8.48433ZM32.5232 10.6667L35.1896 10.6336C35.1781 9.70457 34.6837 8.84846 33.8848 8.37395L32.5232 10.6667ZM32.576 14.9397L29.9096 14.9727C29.9149 15.4184 30.0323 15.8556 30.2501 16.2443L32.576 14.9397ZM34.6667 18.6667L36.9925 19.9713C37.4469 19.1609 37.4469 18.1724 36.9925 17.362L34.6667 18.6667ZM32.576 22.3936L30.2501 21.089C30.0323 21.4779 29.9149 21.9149 29.9096 22.3605L32.576 22.3936ZM32.5232 26.6667L33.8848 28.9595C34.6837 28.4848 35.1781 27.6288 35.1896 26.6997L32.5232 26.6667ZM28.8491 28.8491L27.4872 26.5563C27.104 26.784 26.784 27.104 26.5563 27.4872L28.8491 28.8491ZM26.6667 32.5232L26.6997 35.1896C27.6288 35.1781 28.4848 34.6837 28.9595 33.8848L26.6667 32.5232ZM22.3936 32.576L22.3605 29.9096C21.9149 29.9149 21.4779 30.0323 21.0891 30.2501L22.3936 32.576ZM18.6667 34.6667L17.3621 36.9925C18.1723 37.4469 19.1611 37.4469 19.9712 36.9925L18.6667 34.6667ZM14.9397 32.576L16.2443 30.2501C15.8555 30.0323 15.4184 29.9149 14.9728 29.9096L14.9397 32.576ZM10.6667 32.5232L8.37395 33.8848C8.84846 34.6837 9.70457 35.1781 10.6336 35.1896L10.6667 32.5232ZM8.48432 28.8491L10.777 27.4872C10.5494 27.104 10.2294 26.784 9.84617 26.5563L8.48432 28.8491ZM4.81027 26.6667L2.14379 26.6997C2.15531 27.6288 2.64958 28.4848 3.44843 28.9595L4.81027 26.6667ZM4.75734 22.3936L7.42379 22.3605C7.41827 21.9149 7.30113 21.4779 7.08307 21.089L4.75734 22.3936ZM2.66667 18.6667L0.34094 17.362C-0.113647 18.1724 -0.113647 19.1609 0.34094 19.9713L2.66667 18.6667ZM4.75734 14.9397L7.08307 16.2443C7.30113 15.8556 7.41827 15.4184 7.42379 14.9727L4.75734 14.9397ZM4.81027 10.6667L3.44843 8.37395C2.64958 8.84846 2.15531 9.70457 2.14379 10.6337L4.81027 10.6667ZM8.48432 8.48433L9.84617 10.777C10.2294 10.5494 10.5494 10.2294 10.777 9.84617L8.48432 8.48433ZM10.6667 4.81027L10.6337 2.14379C9.70457 2.15531 8.84846 2.64958 8.37395 3.44843L10.6667 4.81027ZM14.9397 4.75734L14.9728 7.42379C15.4184 7.41827 15.8555 7.30113 16.2443 7.08307L14.9397 4.75734ZM9.33334 50.6667H6.66667C6.66667 51.6173 7.1727 52.496 7.99486 52.9731C8.81705 53.4501 9.83104 53.4536 10.6564 52.9819L9.33334 50.6667ZM18.6667 45.3333L19.9896 43.0181C19.1699 42.5496 18.1635 42.5496 17.3437 43.0181L18.6667 45.3333ZM28 50.6667L26.6771 52.9819C27.5024 53.4536 28.5163 53.4501 29.3384 52.9731C30.1605 52.496 30.6667 51.6173 30.6667 50.6667H28ZM17.3621 4.99241L21.0891 7.08307L23.6984 2.43161L19.9712 0.34094L17.3621 4.99241ZM22.3605 7.42379L26.6336 7.47673L26.6997 2.14379L22.4267 2.09089L22.3605 7.42379ZM24.3739 6.17211L26.5563 9.84617L31.1416 7.12251L28.9595 3.44843L24.3739 6.17211ZM27.4872 10.777L31.1613 12.9594L33.8848 8.37395L30.2109 6.19163L27.4872 10.777ZM29.8565 10.6997L29.9096 14.9727L35.2424 14.9066L35.1896 10.6336L29.8565 10.6997ZM30.2501 16.2443L32.3408 19.9713L36.9925 17.362L34.9019 13.635L30.2501 16.2443ZM32.3408 17.362L30.2501 21.089L34.9019 23.6984L36.9925 19.9713L32.3408 17.362ZM29.9096 22.3605L29.8565 26.6336L35.1896 26.6997L35.2424 22.4267L29.9096 22.3605ZM26.6336 29.8565L22.3605 29.9096L22.4267 35.2424L26.6997 35.1896L26.6336 29.8565ZM14.9728 29.9096L10.6997 29.8565L10.6336 35.1896L14.9067 35.2424L14.9728 29.9096ZM7.47673 26.6336L7.42379 22.3605L2.09089 22.4267L2.14379 26.6997L7.47673 26.6336ZM7.08307 21.089L4.99241 17.362L0.34094 19.9713L2.43161 23.6984L7.08307 21.089ZM4.99241 19.9713L7.08307 16.2443L2.43161 13.635L0.34094 17.362L4.99241 19.9713ZM7.42379 14.9727L7.47673 10.6997L2.14379 10.6337L2.09089 14.9066L7.42379 14.9727ZM6.17211 12.9594L9.84617 10.777L7.12251 6.19163L3.44843 8.37395L6.17211 12.9594ZM10.777 9.84617L12.9594 6.17211L8.37395 3.44843L6.19163 7.12251L10.777 9.84617ZM10.6997 7.47673L14.9728 7.42379L14.9067 2.09089L10.6337 2.14379L10.6997 7.47673ZM16.2443 7.08307L19.9712 4.99241L17.3621 0.34094L13.6349 2.43161L16.2443 7.08307ZM31.1613 24.3739L27.4872 26.5563L30.2109 31.1416L33.8848 28.9595L31.1613 24.3739ZM9.84617 26.5563L6.17211 24.3739L3.44843 28.9595L7.12251 31.1416L9.84617 26.5563ZM21.0891 30.2501L17.3621 32.3408L19.9712 36.9925L23.6984 34.9019L21.0891 30.2501ZM19.9712 32.3408L16.2443 30.2501L13.6349 34.9019L17.3621 36.9925L19.9712 32.3408ZM10.6564 52.9819L19.9896 47.6485L17.3437 43.0181L8.0103 48.3515L10.6564 52.9819ZM17.3437 47.6485L26.6771 52.9819L29.3229 48.3515L19.9896 43.0181L17.3437 47.6485ZM30.6667 50.6667V30.2784H25.3333V50.6667H30.6667ZM26.5563 27.4872L25.7072 28.9165L30.2928 31.6403L31.1416 30.2109L26.5563 27.4872ZM25.7072 28.9165L24.3739 31.1613L28.9595 33.8848L30.2928 31.6403L25.7072 28.9165ZM6.66667 30.2784V50.6667H12V30.2784H6.66667ZM12.9594 31.1613L11.6261 28.9165L7.04062 31.6403L8.37395 33.8848L12.9594 31.1613ZM11.6261 28.9165L10.777 27.4872L6.19163 30.2109L7.04062 31.6403L11.6261 28.9165ZM21.3333 18.6667C21.3333 20.1394 20.1395 21.3333 18.6667 21.3333V26.6667C23.0851 26.6667 26.6667 23.0851 26.6667 18.6667H21.3333ZM18.6667 21.3333C17.1939 21.3333 16 20.1394 16 18.6667H10.6667C10.6667 23.0851 14.2483 26.6667 18.6667 26.6667V21.3333ZM16 18.6667C16 17.1939 17.1939 16 18.6667 16V10.6667C14.2483 10.6667 10.6667 14.2484 10.6667 18.6667H16ZM18.6667 16C20.1395 16 21.3333 17.1939 21.3333 18.6667H26.6667C26.6667 14.2484 23.0851 10.6667 18.6667 10.6667V16Z" fill="#FFD900"/>
</svg>
