<svg width="162" height="62" viewBox="0 0 162 62" fill="none" xmlns="http://www.w3.org/2000/svg">
<path d="M147.309 8.67838H30.3963C22.3586 8.67838 15.7822 12.072 15.7822 16.2199V53.9273C15.7822 58.0751 22.3586 61.4688 30.3963 61.4688H147.309C155.347 61.4688 161.923 58.0751 161.923 53.9273V16.2199C161.923 12.072 155.347 8.67838 147.309 8.67838Z" fill="#3F3F3F"/>
<path d="M18.6667 2.66667L19.9712 0.34094C19.1611 -0.113647 18.1723 -0.113647 17.3621 0.34094L18.6667 2.66667ZM22.3936 4.75734L21.0891 7.08307C21.4779 7.30113 21.9149 7.41827 22.3605 7.42379L22.3936 4.75734ZM26.6667 4.81027L28.9595 3.44843C28.4848 2.64958 27.6288 2.15531 26.6997 2.14379L26.6667 4.81027ZM28.8491 8.48433L26.5563 9.84617C26.784 10.2294 27.104 10.5494 27.4872 10.777L28.8491 8.48433ZM32.5232 10.6667L35.1896 10.6336C35.1781 9.70457 34.6837 8.84846 33.8848 8.37395L32.5232 10.6667ZM32.576 14.9397L29.9096 14.9727C29.9149 15.4184 30.0323 15.8556 30.2501 16.2443L32.576 14.9397ZM34.6667 18.6667L36.9925 19.9713C37.4469 19.1609 37.4469 18.1724 36.9925 17.362L34.6667 18.6667ZM32.576 22.3936L30.2501 21.089C30.0323 21.4779 29.9149 21.9149 29.9096 22.3605L32.576 22.3936ZM32.5232 26.6667L33.8848 28.9595C34.6837 28.4848 35.1781 27.6288 35.1896 26.6997L32.5232 26.6667ZM28.8491 28.8491L27.4872 26.5563C27.104 26.784 26.784 27.104 26.5563 27.4872L28.8491 28.8491ZM26.6667 32.5232L26.6997 35.1896C27.6288 35.1781 28.4848 34.6837 28.9595 33.8848L26.6667 32.5232ZM22.3936 32.576L22.3605 29.9096C21.9149 29.9149 21.4779 30.0323 21.0891 30.2501L22.3936 32.576ZM18.6667 34.6667L17.3621 36.9925C18.1723 37.4469 19.1611 37.4469 19.9712 36.9925L18.6667 34.6667ZM14.9397 32.576L16.2443 30.2501C15.8555 30.0323 15.4184 29.9149 14.9728 29.9096L14.9397 32.576ZM10.6667 32.5232L8.37395 33.8848C8.84846 34.6837 9.70457 35.1781 10.6336 35.1896L10.6667 32.5232ZM8.48432 28.8491L10.777 27.4872C10.5494 27.104 10.2294 26.784 9.84617 26.5563L8.48432 28.8491ZM4.81027 26.6667L2.14379 26.6997C2.15531 27.6288 2.64958 28.4848 3.44843 28.9595L4.81027 26.6667ZM4.75734 22.3936L7.42379 22.3605C7.41827 21.9149 7.30113 21.4779 7.08307 21.089L4.75734 22.3936ZM2.66667 18.6667L0.34094 17.362C-0.113647 18.1724 -0.113647 19.1609 0.34094 19.9713L2.66667 18.6667ZM4.75734 14.9397L7.08307 16.2443C7.30113 15.8556 7.41827 15.4184 7.42379 14.9727L4.75734 14.9397ZM4.81027 10.6667L3.44843 8.37395C2.64958 8.84846 2.15531 9.70457 2.14379 10.6337L4.81027 10.6667ZM8.48432 8.48433L9.84617 10.777C10.2294 10.5494 10.5494 10.2294 10.777 9.84617L8.48432 8.48433ZM10.6667 4.81027L10.6337 2.14379C9.70457 2.15531 8.84846 2.64958 8.37395 3.44843L10.6667 4.81027ZM14.9397 4.75734L14.9728 7.42379C15.4184 7.41827 15.8555 7.30113 16.2443 7.08307L14.9397 4.75734ZM9.33334 50.6667H6.66667C6.66667 51.6173 7.1727 52.496 7.99486 52.9731C8.81705 53.4501 9.83104 53.4536 10.6564 52.9819L9.33334 50.6667ZM18.6667 45.3333L19.9896 43.0181C19.1699 42.5496 18.1635 42.5496 17.3437 43.0181L18.6667 45.3333ZM28 50.6667L26.6771 52.9819C27.5024 53.4536 28.5163 53.4501 29.3384 52.9731C30.1605 52.496 30.6667 51.6173 30.6667 50.6667H28ZM17.3621 4.99241L21.0891 7.08307L23.6984 2.43161L19.9712 0.34094L17.3621 4.99241ZM22.3605 7.42379L26.6336 7.47673L26.6997 2.14379L22.4267 2.09089L22.3605 7.42379ZM24.3739 6.17211L26.5563 9.84617L31.1416 7.12251L28.9595 3.44843L24.3739 6.17211ZM27.4872 10.777L31.1613 12.9594L33.8848 8.37395L30.2109 6.19163L27.4872 10.777ZM29.8565 10.6997L29.9096 14.9727L35.2424 14.9066L35.1896 10.6336L29.8565 10.6997ZM30.2501 16.2443L32.3408 19.9713L36.9925 17.362L34.9019 13.635L30.2501 16.2443ZM32.3408 17.362L30.2501 21.089L34.9019 23.6984L36.9925 19.9713L32.3408 17.362ZM29.9096 22.3605L29.8565 26.6336L35.1896 26.6997L35.2424 22.4267L29.9096 22.3605ZM26.6336 29.8565L22.3605 29.9096L22.4267 35.2424L26.6997 35.1896L26.6336 29.8565ZM14.9728 29.9096L10.6997 29.8565L10.6336 35.1896L14.9067 35.2424L14.9728 29.9096ZM7.47673 26.6336L7.42379 22.3605L2.09089 22.4267L2.14379 26.6997L7.47673 26.6336ZM7.08307 21.089L4.99241 17.362L0.34094 19.9713L2.43161 23.6984L7.08307 21.089ZM4.99241 19.9713L7.08307 16.2443L2.43161 13.635L0.34094 17.362L4.99241 19.9713ZM7.42379 14.9727L7.47673 10.6997L2.14379 10.6337L2.09089 14.9066L7.42379 14.9727ZM6.17211 12.9594L9.84617 10.777L7.12251 6.19163L3.44843 8.37395L6.17211 12.9594ZM10.777 9.84617L12.9594 6.17211L8.37395 3.44843L6.19163 7.12251L10.777 9.84617ZM10.6997 7.47673L14.9728 7.42379L14.9067 2.09089L10.6337 2.14379L10.6997 7.47673ZM16.2443 7.08307L19.9712 4.99241L17.3621 0.34094L13.6349 2.43161L16.2443 7.08307ZM31.1613 24.3739L27.4872 26.5563L30.2109 31.1416L33.8848 28.9595L31.1613 24.3739ZM9.84617 26.5563L6.17211 24.3739L3.44843 28.9595L7.12251 31.1416L9.84617 26.5563ZM21.0891 30.2501L17.3621 32.3408L19.9712 36.9925L23.6984 34.9019L21.0891 30.2501ZM19.9712 32.3408L16.2443 30.2501L13.6349 34.9019L17.3621 36.9925L19.9712 32.3408ZM10.6564 52.9819L19.9896 47.6485L17.3437 43.0181L8.0103 48.3515L10.6564 52.9819ZM17.3437 47.6485L26.6771 52.9819L29.3229 48.3515L19.9896 43.0181L17.3437 47.6485ZM30.6667 50.6667V30.2784H25.3333V50.6667H30.6667ZM26.5563 27.4872L25.7072 28.9165L30.2928 31.6403L31.1416 30.2109L26.5563 27.4872ZM25.7072 28.9165L24.3739 31.1613L28.9595 33.8848L30.2928 31.6403L25.7072 28.9165ZM6.66667 30.2784V50.6667H12V30.2784H6.66667ZM12.9594 31.1613L11.6261 28.9165L7.04062 31.6403L8.37395 33.8848L12.9594 31.1613ZM11.6261 28.9165L10.777 27.4872L6.19163 30.2109L7.04062 31.6403L11.6261 28.9165ZM21.3333 18.6667C21.3333 20.1394 20.1395 21.3333 18.6667 21.3333V26.6667C23.0851 26.6667 26.6667 23.0851 26.6667 18.6667H21.3333ZM18.6667 21.3333C17.1939 21.3333 16 20.1394 16 18.6667H10.6667C10.6667 23.0851 14.2483 26.6667 18.6667 26.6667V21.3333ZM16 18.6667C16 17.1939 17.1939 16 18.6667 16V10.6667C14.2483 10.6667 10.6667 14.2484 10.6667 18.6667H16ZM18.6667 16C20.1395 16 21.3333 17.1939 21.3333 18.6667H26.6667C26.6667 14.2484 23.0851 10.6667 18.6667 10.6667V16Z" fill="#FFD900"/>
</svg>
