<svg width="71" height="77" viewBox="0 0 71 77" fill="none" xmlns="http://www.w3.org/2000/svg">
<path d="M51.5747 0.759529C53.2817 2.34448 55.4328 9.87051 56.2459 12.3849C57.5158 16.3125 58.5814 19.5079 60.1891 23.2965C61.4718 26.3174 61.9983 31.1815 64.7609 33.1382C66.5587 34.4124 69.784 34.9119 70.2423 37.6377C70.7247 40.5082 69.9798 43.4709 68.3494 45.8363C67.7109 46.7628 65.7996 48.3847 65.6478 49.3439C65.0802 52.921 67.6655 56.7223 67.1305 60.3548C66.7545 62.9146 65.3242 64.1306 62.7716 63.0494C62.0068 62.7259 61.337 61.6588 60.304 62.1796C58.8383 63.7475 60.541 65.8319 58.7588 67.2877C57.9231 67.9717 56.9014 68.0057 55.8613 67.7319C54.4296 67.3558 53.7741 65.138 52.0316 65.6616C51.3988 65.8518 47.606 70.3824 46.5489 71.2735C42.5021 74.6875 36.5298 77.3026 31.2272 75.7077C28.8235 74.9855 25.1102 71.922 23.2386 70.1653C22.1815 69.1735 19.1691 65.3778 18.1475 65.0501C15.9453 64.3449 15.8658 67.2622 15.0372 68.176C14.261 69.033 12.9896 69.033 12.0659 68.4669C10.0453 67.2281 10.7392 63.0409 9.78709 62.7514C8.51289 62.3626 7.25429 66.3229 4.76406 64.5166C3.3508 63.4907 3.37351 60.8685 3.47851 59.2935C3.72966 55.5503 6.26955 51.583 3.89425 48.037C1.75733 44.8459 -0.748501 44.0583 0.210699 39.4071C0.820841 36.4472 3.5452 35.5788 5.26921 33.598C7.45153 31.0907 8.99816 26.9091 10.4001 23.8726C12.9414 18.3643 13.2536 13.1553 15.4685 7.65697C15.9382 6.49203 18.0396 1.84076 18.7051 1.13697C19.6799 0.106819 20.7399 0.0259393 21.8949 0.806354C23.8133 2.10468 26.1205 9.17949 27.3436 11.5449C28.1793 13.161 29.3684 15.5264 31.3436 15.7506C32.9555 15.9336 39.2272 15.9577 40.5581 15.4214C42.3346 14.7062 43.3506 10.5587 44.0629 8.94821C44.5312 7.8911 45.2576 6.96311 45.6989 5.92729C46.3545 4.38633 46.4779 2.42252 47.5648 1.14122C48.6517 -0.140076 50.2807 -0.445147 51.5762 0.756691L51.5747 0.759529ZM20.5284 9.8095C18.4383 10.3274 17.5827 16.0741 17.9233 17.852C18.2482 19.5519 20.9201 17.8761 21.8395 17.3426C23.9041 16.1422 24.0034 16.2117 23.4018 13.7116C23.135 12.6062 21.9587 9.45476 20.5284 9.80808V9.8095ZM48.6007 10.2692C47.8628 10.9759 46.7858 15.1745 47.0938 16.2061C47.579 17.8307 52.2076 20.2146 52.717 18.4792C53.1313 17.073 52.1224 11.7449 51.1079 10.6453C50.5347 10.0252 49.2449 9.652 48.6007 10.2692ZM29.9033 53.8717C30.0282 48.3322 27.3862 37.6121 21.4621 35.5944C16.7966 34.0052 13.902 38.9672 13.5061 42.9289C12.9698 48.291 14.3972 53.1466 17.604 57.3992C20.7966 61.6304 26.5774 68.7521 31.2244 71.0593C37.1385 73.9965 42.4936 70.7343 46.197 66.0433C51.6443 59.143 57.6889 52.0995 56.9894 42.672C56.5538 36.8033 51.5166 31.5334 46.4354 37.0261C42.5815 41.1921 40.9356 48.3506 40.5553 53.8717C40.3836 54.0718 38.1601 52.5322 37.7359 52.3676C35.0966 51.3389 33.4705 51.9902 31.1605 53.2445C30.7434 53.4716 30.5334 54.0306 29.9048 53.8717H29.9033Z" fill="white"/>
<path d="M29.9041 53.8712C30.5327 54.0302 30.7427 53.4711 31.1598 53.2441C33.4699 51.9897 35.096 51.3384 37.7352 52.3672C38.1594 52.5318 40.3829 54.0727 40.5546 53.8712C40.9349 48.3502 42.5794 41.1916 46.4347 37.0256C51.5159 31.5329 56.5531 36.8029 56.9887 42.6716C57.6897 52.099 51.6436 59.1426 46.1963 66.0429C42.4929 70.7339 37.1392 73.996 31.2237 71.0588C26.5767 68.7516 20.7959 61.6314 17.6033 57.3987C14.3951 53.1462 12.9691 48.2906 13.5054 42.9284C13.9013 38.9667 16.796 34.0047 21.4614 35.5939C27.3855 37.6116 30.0275 48.3317 29.9027 53.8712H29.9041ZM23.184 39.7244C21.7835 39.9373 21.3124 43.5201 21.2486 44.678C21.1691 46.1125 21.3493 51.9188 23.35 52.0124C24.8612 52.082 25.3819 49.1334 25.4713 48.0082C25.5905 46.4928 25.7835 39.33 23.184 39.7244ZM47.601 39.723C47.164 39.8053 46.9498 40.065 46.7199 40.414C45.4783 42.2941 45.5067 49.2327 46.7227 51.1497C47.7543 52.7758 48.8752 51.9018 49.4428 50.4473C50.3296 48.177 50.28 43.0845 49.2527 40.8667C48.9136 40.1345 48.5475 39.5442 47.601 39.723Z" fill="black"/>
<path d="M48.6014 10.269C49.2471 9.65178 50.5354 10.025 51.1087 10.645C52.1246 11.7447 53.1321 17.0728 52.7178 18.479C52.207 20.2143 47.5798 17.8305 47.0945 16.2058C46.7866 15.1743 47.8636 10.9757 48.6014 10.269Z" fill="black"/>
<path d="M20.5288 9.80933C21.9591 9.4546 23.1354 12.6061 23.4022 13.7128C24.0052 16.213 23.9045 16.1435 21.84 17.3439C20.9205 17.8788 18.2486 19.5532 17.9237 17.8533C17.5831 16.0739 18.4388 10.3272 20.5288 9.81075V9.80933Z" fill="black"/>
<path d="M47.6003 39.7233C48.5481 39.5431 48.9128 40.1333 49.2519 40.8669C50.2807 43.0847 50.3289 48.1787 49.4421 50.4476C48.8745 51.902 47.7535 52.7761 46.722 51.15C45.5045 49.233 45.4761 42.2944 46.7191 40.4143C46.949 40.0652 47.1633 39.807 47.6003 39.7233Z" fill="white"/>
<path d="M23.1831 39.7248C25.7826 39.3303 25.5911 46.4931 25.4705 48.0085C25.3811 49.1338 24.8603 52.0823 23.3491 52.0128C21.347 51.9205 21.1682 46.1128 21.2477 44.6783C21.3116 43.5219 21.7826 39.9376 23.1831 39.7248Z" fill="white"/>
<path d="M31.0117 59.3912L33.9035 63.9275C34.3377 64.2993 34.9223 65.267 35.5438 65.1691L39.6658 59.9417L39.3337 59.3912H31.0103H31.0117Z" fill="white"/>
</svg>
