<svg width="1444" height="70" viewBox="0 0 1444 70" fill="none" xmlns="http://www.w3.org/2000/svg">
<path d="M111.662 33C112.515 33.8 113.182 34.7467 113.662 35.84C114.142 36.9333 114.382 38.0933 114.382 39.32C114.382 40.8667 114.009 42.3067 113.262 43.64C112.515 44.9733 111.502 46.0267 110.222 46.8C108.969 47.5733 107.595 47.96 106.102 47.96H99.1419V48H93.1419V20H105.462C106.875 20 108.182 20.3733 109.382 21.12C110.582 21.84 111.529 22.8267 112.222 24.08C112.942 25.3067 113.302 26.6267 113.302 28.04C113.302 28.92 113.155 29.8 112.862 30.68C112.595 31.5333 112.195 32.3067 111.662 33ZM99.1419 25.72V30.88L105.462 30.84C106.049 30.84 106.582 30.6 107.062 30.12C107.542 29.6133 107.782 29 107.782 28.28C107.782 27.5333 107.542 26.92 107.062 26.44C106.582 25.96 106.049 25.72 105.462 25.72H99.1419ZM106.102 42.24C106.795 42.24 107.395 41.9467 107.902 41.36C108.409 40.7733 108.662 40.08 108.662 39.28C108.662 38.48 108.409 37.7867 107.902 37.2C107.395 36.6133 106.795 36.32 106.102 36.32H99.1419V42.24H106.102ZM126.443 27.48C128.39 27.48 130.123 27.9467 131.643 28.88C133.19 29.8133 134.39 31.08 135.243 32.68C136.097 34.28 136.523 36.0533 136.523 38C136.523 38.7467 136.47 39.4267 136.363 40.04H121.563C122.07 41.2667 122.75 42.1867 123.603 42.8C124.457 43.3867 125.563 43.68 126.923 43.68C127.75 43.68 128.55 43.5067 129.323 43.16C130.123 42.8133 130.75 42.3467 131.203 41.76L135.523 44.32C134.59 45.68 133.377 46.72 131.883 47.44C130.417 48.16 128.723 48.52 126.803 48.52C124.643 48.52 122.737 48.0667 121.083 47.16C119.43 46.2267 118.15 44.96 117.243 43.36C116.337 41.76 115.883 39.9733 115.883 38C115.883 36.0267 116.323 34.24 117.203 32.64C118.11 31.04 119.363 29.7867 120.963 28.88C122.563 27.9467 124.39 27.48 126.443 27.48ZM131.163 35.6C130.977 34.5867 130.443 33.8 129.563 33.24C128.71 32.68 127.657 32.4 126.403 32.4C125.097 32.4 123.963 32.72 123.003 33.36C122.043 33.9733 121.537 34.72 121.483 35.6H131.163ZM154.783 28H160.463V48H154.783V46.48C153.903 47.1467 152.929 47.6533 151.863 48C150.823 48.3733 149.769 48.56 148.703 48.56C146.623 48.56 144.823 48.1067 143.303 47.2C141.809 46.2933 140.663 45.0533 139.863 43.48C139.063 41.88 138.663 40.0667 138.663 38.04C138.663 36.0133 139.063 34.2 139.863 32.6C140.663 30.9733 141.809 29.7067 143.303 28.8C144.823 27.8933 146.623 27.44 148.703 27.44C149.796 27.44 150.863 27.6267 151.903 28C152.943 28.3733 153.903 28.8933 154.783 29.56V28ZM149.463 43.12C150.956 43.12 152.209 42.64 153.223 41.68C154.236 40.72 154.743 39.48 154.743 37.96C154.743 36.4933 154.236 35.2933 153.223 34.36C152.209 33.4267 150.956 32.96 149.463 32.96C147.969 32.96 146.743 33.4267 145.783 34.36C144.823 35.2933 144.343 36.52 144.343 38.04C144.343 39.56 144.823 40.7867 145.783 41.72C146.743 42.6533 147.969 43.12 149.463 43.12ZM176.741 28H182.461V48H176.741V46.64C175.221 47.92 173.607 48.56 171.901 48.56C170.727 48.56 169.541 48.3067 168.341 47.8C167.141 47.2933 166.114 46.4 165.261 45.12C164.407 43.84 163.981 42.12 163.981 39.96V28H169.701V39.96C169.701 41.2133 170.061 42.1333 170.781 42.72C171.501 43.28 172.354 43.56 173.341 43.56C174.301 43.56 175.101 43.2133 175.741 42.52C176.407 41.8267 176.741 40.72 176.741 39.2V28ZM193.857 40.88C193.857 41.6267 194.057 42.1467 194.457 42.44C194.883 42.7333 195.523 42.88 196.377 42.88C196.91 42.88 197.497 42.84 198.137 42.76V48C196.803 48.1333 195.697 48.2 194.817 48.2C192.577 48.2 190.897 47.7067 189.777 46.72C188.683 45.7067 188.137 43.88 188.137 41.24V33.08H184.697V28H188.137V23.36L193.857 21.44V28H198.057V33.08H193.857V40.88ZM205.119 25.28C204.052 25.28 203.212 25 202.599 24.44C202.012 23.8533 201.719 23.0667 201.719 22.08C201.719 21.0667 202.012 20.2667 202.599 19.68C203.212 19.0933 204.052 18.8 205.119 18.8C206.159 18.8 206.985 19.0933 207.599 19.68C208.212 20.2667 208.519 21.0667 208.519 22.08C208.519 23.0667 208.212 23.8533 207.599 24.44C206.985 25 206.159 25.28 205.119 25.28ZM202.239 48V28H207.959V48H202.239ZM224.267 24.88C223.627 24.8 223.04 24.76 222.507 24.76C221.653 24.76 221.013 24.9067 220.587 25.2C220.187 25.4933 219.987 26.0133 219.987 26.76V28H224.227V33.08H219.987V48H214.267V33.08H211.147V28H214.267V26.4C214.267 23.76 214.813 21.9467 215.907 20.96C217.027 19.9467 218.72 19.44 220.987 19.44C221.893 19.44 222.987 19.5067 224.267 19.64V24.88ZM239.77 28H245.73L239.01 47.72C237.89 50.6 236.37 52.7467 234.45 54.16C232.557 55.5733 230.29 56.1867 227.65 56V50.48C227.81 50.5067 228.05 50.52 228.37 50.52C229.49 50.52 230.423 50.2267 231.17 49.64C231.917 49.0533 232.543 48.24 233.05 47.2L224.41 28H230.57L235.81 39.48L239.77 28ZM251.291 25.28C250.224 25.28 249.384 25 248.771 24.44C248.184 23.8533 247.891 23.0667 247.891 22.08C247.891 21.0667 248.184 20.2667 248.771 19.68C249.384 19.0933 250.224 18.8 251.291 18.8C252.331 18.8 253.157 19.0933 253.771 19.68C254.384 20.2667 254.691 21.0667 254.691 22.08C254.691 23.0667 254.384 23.8533 253.771 24.44C253.157 25 252.331 25.28 251.291 25.28ZM248.411 48V28H254.131V48H248.411ZM269.398 27.44C270.572 27.44 271.758 27.6933 272.958 28.2C274.158 28.7067 275.185 29.6 276.038 30.88C276.892 32.16 277.318 33.88 277.318 36.04V48H271.598V36.04C271.598 34.76 271.238 33.84 270.518 33.28C269.825 32.72 268.985 32.44 267.998 32.44C267.012 32.44 266.185 32.7867 265.518 33.48C264.878 34.1733 264.558 35.28 264.558 36.8V48H258.838V28H264.558V29.36C266.078 28.08 267.692 27.44 269.398 27.44ZM296.345 28H302.065V47C302.065 48.8667 301.572 50.52 300.585 51.96C299.625 53.4 298.292 54.52 296.585 55.32C294.878 56.12 292.958 56.52 290.825 56.52C288.505 56.52 286.372 56.0667 284.425 55.16C282.505 54.28 281.158 53.1333 280.385 51.72L285.265 48.88C285.612 49.5733 286.305 50.1467 287.345 50.6C288.385 51.0533 289.598 51.28 290.985 51.28C292.532 51.28 293.812 50.88 294.825 50.08C295.838 49.28 296.345 48.2533 296.345 47V46.48C295.465 47.1467 294.505 47.6533 293.465 48C292.452 48.3733 291.398 48.56 290.305 48.56C288.225 48.56 286.425 48.1067 284.905 47.2C283.412 46.2933 282.265 45.0533 281.465 43.48C280.665 41.88 280.265 40.0667 280.265 38.04C280.265 36.0133 280.665 34.2 281.465 32.6C282.265 30.9733 283.412 29.7067 284.905 28.8C286.425 27.8933 288.225 27.44 290.305 27.44C291.372 27.44 292.425 27.6267 293.465 28C294.505 28.3467 295.465 28.8533 296.345 29.52V28ZM291.065 43.12C292.558 43.12 293.812 42.64 294.825 41.68C295.838 40.72 296.345 39.48 296.345 37.96C296.345 36.4933 295.838 35.2933 294.825 34.36C293.812 33.4267 292.558 32.96 291.065 32.96C289.572 32.96 288.345 33.4267 287.385 34.36C286.452 35.2933 285.985 36.52 285.985 38.04C285.985 39.56 286.452 40.7867 287.385 41.72C288.345 42.6533 289.572 43.12 291.065 43.12ZM324.638 40.88C324.638 41.6267 324.838 42.1467 325.238 42.44C325.664 42.7333 326.304 42.88 327.158 42.88C327.691 42.88 328.278 42.84 328.918 42.76V48C327.584 48.1333 326.478 48.2 325.598 48.2C323.358 48.2 321.678 47.7067 320.558 46.72C319.464 45.7067 318.918 43.88 318.918 41.24V33.08H315.478V28H318.918V23.36L324.638 21.44V28H328.838V33.08H324.638V40.88ZM350.754 48H345.034V36.2C345.034 34.92 344.674 34 343.954 33.44C343.234 32.8533 342.381 32.56 341.394 32.56C340.567 32.56 339.847 32.8267 339.234 33.36C338.621 33.8667 338.234 34.6667 338.074 35.76V48H332.354V20H338.074V29.44C339.541 28.2133 341.127 27.6 342.834 27.6C343.981 27.6 345.141 27.8533 346.314 28.36C347.514 28.84 348.541 29.7067 349.394 30.96C350.274 32.2133 350.727 33.9067 350.754 36.04V48ZM363.67 27.48C365.617 27.48 367.35 27.9467 368.87 28.88C370.417 29.8133 371.617 31.08 372.47 32.68C373.323 34.28 373.75 36.0533 373.75 38C373.75 38.7467 373.697 39.4267 373.59 40.04H358.79C359.297 41.2667 359.977 42.1867 360.83 42.8C361.683 43.3867 362.79 43.68 364.15 43.68C364.977 43.68 365.777 43.5067 366.55 43.16C367.35 42.8133 367.977 42.3467 368.43 41.76L372.75 44.32C371.817 45.68 370.603 46.72 369.11 47.44C367.643 48.16 365.95 48.52 364.03 48.52C361.87 48.52 359.963 48.0667 358.31 47.16C356.657 46.2267 355.377 44.96 354.47 43.36C353.563 41.76 353.11 39.9733 353.11 38C353.11 36.0267 353.55 34.24 354.43 32.64C355.337 31.04 356.59 29.7867 358.19 28.88C359.79 27.9467 361.617 27.48 363.67 27.48ZM368.39 35.6C368.203 34.5867 367.67 33.8 366.79 33.24C365.937 32.68 364.883 32.4 363.63 32.4C362.323 32.4 361.19 32.72 360.23 33.36C359.27 33.9733 358.763 34.72 358.71 35.6H368.39ZM399.505 20C402.118 20 404.518 20.6267 406.705 21.88C408.918 23.1067 410.665 24.8 411.945 26.96C413.251 29.0933 413.905 31.4667 413.905 34.08C413.905 36.6933 413.265 39.0667 411.985 41.2C410.705 43.3067 408.958 44.9733 406.745 46.2C404.531 47.4 402.118 48 399.505 48H388.025V20H399.505ZM399.505 42.28C401.025 42.28 402.425 41.92 403.705 41.2C405.011 40.4533 406.038 39.4533 406.785 38.2C407.531 36.9467 407.905 35.56 407.905 34.04C407.905 32.52 407.531 31.12 406.785 29.84C406.038 28.56 405.011 27.5467 403.705 26.8C402.425 26.0533 401.025 25.68 399.505 25.68H394.025V42.28H399.505ZM426.443 27.48C428.39 27.48 430.123 27.9467 431.643 28.88C433.19 29.8133 434.39 31.08 435.243 32.68C436.097 34.28 436.523 36.0533 436.523 38C436.523 38.7467 436.47 39.4267 436.363 40.04H421.563C422.07 41.2667 422.75 42.1867 423.603 42.8C424.457 43.3867 425.563 43.68 426.923 43.68C427.75 43.68 428.55 43.5067 429.323 43.16C430.123 42.8133 430.75 42.3467 431.203 41.76L435.523 44.32C434.59 45.68 433.377 46.72 431.883 47.44C430.417 48.16 428.723 48.52 426.803 48.52C424.643 48.52 422.737 48.0667 421.083 47.16C419.43 46.2267 418.15 44.96 417.243 43.36C416.337 41.76 415.883 39.9733 415.883 38C415.883 36.0267 416.323 34.24 417.203 32.64C418.11 31.04 419.363 29.7867 420.963 28.88C422.563 27.9467 424.39 27.48 426.443 27.48ZM431.163 35.6C430.977 34.5867 430.443 33.8 429.563 33.24C428.71 32.68 427.657 32.4 426.403 32.4C425.097 32.4 423.963 32.72 423.003 33.36C422.043 33.9733 421.537 34.72 421.483 35.6H431.163ZM452.044 27.48C454.124 27.48 455.91 27.9333 457.404 28.84C458.924 29.7467 460.084 31 460.884 32.6C461.684 34.1733 462.084 35.9733 462.084 38C462.084 40.0267 461.684 41.84 460.884 43.44C460.084 45.04 458.924 46.3067 457.404 47.24C455.91 48.1467 454.124 48.6 452.044 48.6C450.977 48.6 449.924 48.4133 448.884 48.04C447.844 47.6933 446.884 47.1867 446.004 46.52V56H440.284V28H446.004V29.56C446.884 28.8933 447.83 28.3867 448.844 28.04C449.884 27.6667 450.95 27.48 452.044 27.48ZM451.284 43.04C452.777 43.04 453.99 42.5867 454.924 41.68C455.884 40.7467 456.364 39.52 456.364 38C456.364 36.48 455.884 35.2533 454.924 34.32C453.99 33.3867 452.777 32.92 451.284 32.92C449.79 32.92 448.537 33.4 447.524 34.36C446.51 35.32 446.004 36.5467 446.004 38.04C446.004 39.5333 446.497 40.7467 447.484 41.68C448.497 42.5867 449.764 43.04 451.284 43.04ZM480.642 28H486.322V48H480.642V46.48C479.762 47.1467 478.789 47.6533 477.722 48C476.682 48.3733 475.629 48.56 474.562 48.56C472.482 48.56 470.682 48.1067 469.162 47.2C467.669 46.2933 466.522 45.0533 465.722 43.48C464.922 41.88 464.522 40.0667 464.522 38.04C464.522 36.0133 464.922 34.2 465.722 32.6C466.522 30.9733 467.669 29.7067 469.162 28.8C470.682 27.8933 472.482 27.44 474.562 27.44C475.655 27.44 476.722 27.6267 477.762 28C478.802 28.3733 479.762 28.8933 480.642 29.56V28ZM475.322 43.12C476.815 43.12 478.069 42.64 479.082 41.68C480.095 40.72 480.602 39.48 480.602 37.96C480.602 36.4933 480.095 35.2933 479.082 34.36C478.069 33.4267 476.815 32.96 475.322 32.96C473.829 32.96 472.602 33.4267 471.642 34.36C470.682 35.2933 470.202 36.52 470.202 38.04C470.202 39.56 470.682 40.7867 471.642 41.72C472.602 42.6533 473.829 43.12 475.322 43.12ZM503.781 27.6L503.381 33C503.195 32.92 502.888 32.88 502.461 32.88C500.835 32.88 499.501 33.3467 498.461 34.28C497.448 35.1867 496.941 36.3867 496.941 37.88V48H491.221V28H496.941V31.24C497.421 30.2 498.195 29.3333 499.261 28.64C500.328 27.9467 501.621 27.6 503.141 27.6H503.781ZM515.458 40.88C515.458 41.6267 515.658 42.1467 516.058 42.44C516.485 42.7333 517.125 42.88 517.978 42.88C518.511 42.88 519.098 42.84 519.738 42.76V48C518.405 48.1333 517.298 48.2 516.418 48.2C514.178 48.2 512.498 47.7067 511.378 46.72C510.285 45.7067 509.738 43.88 509.738 41.24V33.08H506.298V28H509.738V23.36L515.458 21.44V28H519.658V33.08H515.458V40.88ZM547.076 27.44C548.249 27.44 549.436 27.6933 550.636 28.2C551.836 28.7067 552.862 29.6 553.716 30.88C554.569 32.16 554.996 33.88 554.996 36.04V48H549.316V36.04C549.316 34.76 548.956 33.84 548.236 33.28C547.516 32.72 546.662 32.44 545.676 32.44C544.849 32.44 544.129 32.6933 543.516 33.2C542.929 33.68 542.542 34.44 542.356 35.48V36.04V48H536.636V36.04C536.636 34.76 536.276 33.84 535.556 33.28C534.836 32.72 533.982 32.44 532.996 32.44C532.169 32.44 531.449 32.6933 530.836 33.2C530.222 33.7067 529.836 34.52 529.676 35.64V48H523.956V28H529.676V29.28C531.142 28.0533 532.729 27.44 534.436 27.44C535.609 27.44 536.796 27.6933 537.996 28.2C539.222 28.7067 540.222 29.5467 540.996 30.72C541.689 29.7867 542.569 29.0133 543.636 28.4C544.702 27.76 545.849 27.44 547.076 27.44ZM568.201 27.48C570.148 27.48 571.881 27.9467 573.401 28.88C574.948 29.8133 576.148 31.08 577.001 32.68C577.855 34.28 578.281 36.0533 578.281 38C578.281 38.7467 578.228 39.4267 578.121 40.04H563.321C563.828 41.2667 564.508 42.1867 565.361 42.8C566.215 43.3867 567.321 43.68 568.681 43.68C569.508 43.68 570.308 43.5067 571.081 43.16C571.881 42.8133 572.508 42.3467 572.961 41.76L577.281 44.32C576.348 45.68 575.135 46.72 573.641 47.44C572.175 48.16 570.481 48.52 568.561 48.52C566.401 48.52 564.495 48.0667 562.841 47.16C561.188 46.2267 559.908 44.96 559.001 43.36C558.095 41.76 557.641 39.9733 557.641 38C557.641 36.0267 558.081 34.24 558.961 32.64C559.868 31.04 561.121 29.7867 562.721 28.88C564.321 27.9467 566.148 27.48 568.201 27.48ZM572.921 35.6C572.735 34.5867 572.201 33.8 571.321 33.24C570.468 32.68 569.415 32.4 568.161 32.4C566.855 32.4 565.721 32.72 564.761 33.36C563.801 33.9733 563.295 34.72 563.241 35.6H572.921ZM591.82 27.44C592.994 27.44 594.18 27.6933 595.38 28.2C596.58 28.7067 597.607 29.6 598.46 30.88C599.314 32.16 599.74 33.88 599.74 36.04V48H594.02V36.04C594.02 34.76 593.66 33.84 592.94 33.28C592.247 32.72 591.407 32.44 590.42 32.44C589.434 32.44 588.607 32.7867 587.94 33.48C587.3 34.1733 586.98 35.28 586.98 36.8V48H581.26V28H586.98V29.36C588.5 28.08 590.114 27.44 591.82 27.44ZM610.693 40.88C610.693 41.6267 610.893 42.1467 611.293 42.44C611.719 42.7333 612.359 42.88 613.213 42.88C613.746 42.88 614.333 42.84 614.973 42.76V48C613.639 48.1333 612.533 48.2 611.653 48.2C609.413 48.2 607.733 47.7067 606.613 46.72C605.519 45.7067 604.973 43.88 604.973 41.24V33.08H601.533V28H604.973V23.36L610.693 21.44V28H614.893V33.08H610.693V40.88ZM620.99 27.12C620.11 26.8533 619.537 26.5333 619.27 26.16C619.03 25.7867 618.91 25.08 618.91 24.04C618.91 23.0267 619.177 22.2533 619.71 21.72C620.27 21.1867 621.043 20.92 622.03 20.92C623.017 20.92 623.79 21.2 624.35 21.76C624.937 22.32 625.23 23.0933 625.23 24.08C625.23 25.2 625.097 26.1067 624.83 26.8C624.59 27.4933 624.11 28.32 623.39 29.28L621.15 32.16L619.43 30.72L620.99 27.12ZM634.701 33.68C634.701 34.1333 634.981 34.48 635.541 34.72C636.101 34.9333 636.994 35.16 638.221 35.4C639.794 35.72 641.101 36.08 642.141 36.48C643.181 36.8533 644.087 37.4933 644.861 38.4C645.661 39.28 646.061 40.5067 646.061 42.08C646.061 43.44 645.647 44.6133 644.821 45.6C643.994 46.56 642.901 47.2933 641.541 47.8C640.181 48.28 638.714 48.52 637.141 48.52C634.981 48.52 633.141 48.1333 631.621 47.36C630.101 46.56 628.954 45.3867 628.181 43.84L632.861 41.44C633.501 43.1467 634.927 44 637.141 44C638.047 44 638.834 43.84 639.501 43.52C640.194 43.1733 640.541 42.6933 640.541 42.08C640.541 41.5467 640.221 41.1467 639.581 40.88C638.967 40.6133 637.981 40.3333 636.621 40.04C635.074 39.6933 633.781 39.3333 632.741 38.96C631.701 38.56 630.807 37.96 630.061 37.16C629.314 36.3333 628.941 35.24 628.941 33.88C628.941 32.5733 629.314 31.44 630.061 30.48C630.807 29.4933 631.807 28.7467 633.061 28.24C634.341 27.7333 635.727 27.48 637.221 27.48C638.981 27.48 640.567 27.84 641.981 28.56C643.394 29.28 644.501 30.32 645.301 31.68L640.661 33.96C640.341 33.2933 639.901 32.8 639.341 32.48C638.807 32.16 638.101 32 637.221 32C636.447 32 635.834 32.16 635.381 32.48C634.927 32.7733 634.701 33.1733 634.701 33.68ZM670.652 20C672.359 20 673.919 20.4133 675.332 21.24C676.746 22.0667 677.866 23.2 678.692 24.64C679.546 26.0533 679.972 27.6133 679.972 29.32C679.972 31 679.546 32.56 678.692 34C677.866 35.4133 676.732 36.5467 675.292 37.4C673.879 38.2267 672.332 38.64 670.652 38.64H666.212V48H660.212V20H670.652ZM670.652 32.92C671.639 32.92 672.479 32.5733 673.172 31.88C673.892 31.16 674.252 30.3067 674.252 29.32C674.252 28.3067 673.906 27.4533 673.212 26.76C672.519 26.0667 671.666 25.72 670.652 25.72H666.212V32.92H670.652ZM695.93 27.6L695.53 33C695.343 32.92 695.036 32.88 694.61 32.88C692.983 32.88 691.65 33.3467 690.61 34.28C689.596 35.1867 689.09 36.3867 689.09 37.88V48H683.37V28H689.09V31.24C689.57 30.2 690.343 29.3333 691.41 28.64C692.476 27.9467 693.77 27.6 695.29 27.6H695.93ZM707.381 48.6C705.461 48.6 703.688 48.1333 702.061 47.2C700.461 46.24 699.181 44.9467 698.221 43.32C697.288 41.6933 696.821 39.9333 696.821 38.04C696.821 36.12 697.288 34.36 698.221 32.76C699.181 31.1333 700.461 29.8533 702.061 28.92C703.688 27.96 705.461 27.48 707.381 27.48C709.274 27.48 711.021 27.96 712.621 28.92C714.248 29.8533 715.528 31.1333 716.461 32.76C717.421 34.36 717.901 36.12 717.901 38.04C717.901 39.9333 717.421 41.6933 716.461 43.32C715.528 44.9467 714.248 46.24 712.621 47.2C711.021 48.1333 709.274 48.6 707.381 48.6ZM707.341 42.88C708.674 42.88 709.821 42.4133 710.781 41.48C711.741 40.52 712.221 39.3733 712.221 38.04C712.221 36.7067 711.741 35.56 710.781 34.6C709.821 33.64 708.674 33.16 707.341 33.16C706.008 33.16 704.861 33.64 703.901 34.6C702.968 35.56 702.501 36.7067 702.501 38.04C702.501 39.3733 702.968 40.52 703.901 41.48C704.861 42.4133 706.008 42.88 707.341 42.88ZM724.159 25.88C723.092 25.88 722.252 25.6 721.639 25.04C721.052 24.4533 720.759 23.6667 720.759 22.68C720.759 21.6667 721.052 20.88 721.639 20.32C722.252 19.7333 723.092 19.44 724.159 19.44C725.199 19.44 726.026 19.7333 726.639 20.32C727.252 20.9067 727.559 21.6933 727.559 22.68C727.559 23.6667 727.252 24.4533 726.639 25.04C726.026 25.6 725.199 25.88 724.159 25.88ZM721.319 28H726.999V48.56C726.999 50.2933 726.599 51.7867 725.799 53.04C724.999 54.2933 723.879 55.2133 722.439 55.8C720.999 56.4133 719.359 56.6533 717.519 56.52V51.04C717.732 51.0667 718.039 51.08 718.439 51.08C719.452 51.08 720.186 50.88 720.639 50.48C721.092 50.1067 721.319 49.4667 721.319 48.56V28ZM740.545 27.48C742.492 27.48 744.225 27.9467 745.745 28.88C747.292 29.8133 748.492 31.08 749.345 32.68C750.198 34.28 750.625 36.0533 750.625 38C750.625 38.7467 750.572 39.4267 750.465 40.04H735.665C736.172 41.2667 736.852 42.1867 737.705 42.8C738.558 43.3867 739.665 43.68 741.025 43.68C741.852 43.68 742.652 43.5067 743.425 43.16C744.225 42.8133 744.852 42.3467 745.305 41.76L749.625 44.32C748.692 45.68 747.478 46.72 745.985 47.44C744.518 48.16 742.825 48.52 740.905 48.52C738.745 48.52 736.838 48.0667 735.185 47.16C733.532 46.2267 732.252 44.96 731.345 43.36C730.438 41.76 729.985 39.9733 729.985 38C729.985 36.0267 730.425 34.24 731.305 32.64C732.212 31.04 733.465 29.7867 735.065 28.88C736.665 27.9467 738.492 27.48 740.545 27.48ZM745.265 35.6C745.078 34.5867 744.545 33.8 743.665 33.24C742.812 32.68 741.758 32.4 740.505 32.4C739.198 32.4 738.065 32.72 737.105 33.36C736.145 33.9733 735.638 34.72 735.585 35.6H745.265ZM771.684 44.08C770.697 45.4667 769.444 46.5733 767.924 47.4C766.431 48.2 764.817 48.6 763.084 48.6C761.164 48.6 759.391 48.1333 757.764 47.2C756.164 46.24 754.884 44.9467 753.924 43.32C752.991 41.6933 752.524 39.9333 752.524 38.04C752.524 36.12 752.991 34.36 753.924 32.76C754.884 31.1333 756.164 29.8533 757.764 28.92C759.391 27.96 761.164 27.48 763.084 27.48C764.817 27.48 766.431 27.88 767.924 28.68C769.417 29.48 770.657 30.56 771.644 31.92L766.924 35.04C765.804 33.7867 764.524 33.16 763.084 33.16C761.751 33.16 760.604 33.64 759.644 34.6C758.684 35.56 758.204 36.7067 758.204 38.04C758.204 39.3733 758.684 40.52 759.644 41.48C760.604 42.4133 761.751 42.88 763.084 42.88C764.524 42.88 765.804 42.2533 766.924 41L771.684 44.08ZM782.021 40.88C782.021 41.6267 782.221 42.1467 782.621 42.44C783.047 42.7333 783.687 42.88 784.541 42.88C785.074 42.88 785.661 42.84 786.301 42.76V48C784.967 48.1333 783.861 48.2 782.981 48.2C780.741 48.2 779.061 47.7067 777.941 46.72C776.847 45.7067 776.301 43.88 776.301 41.24V33.08H772.861V28H776.301V23.36L782.021 21.44V28H786.221V33.08H782.021V40.88ZM811.473 20C813.179 20 814.739 20.4133 816.153 21.24C817.566 22.0667 818.686 23.2 819.513 24.64C820.366 26.0533 820.793 27.6133 820.793 29.32C820.793 31 820.366 32.56 819.513 34C818.686 35.4133 817.553 36.5467 816.113 37.4C814.699 38.2267 813.153 38.64 811.473 38.64H807.033V48H801.033V20H811.473ZM811.473 32.92C812.459 32.92 813.299 32.5733 813.993 31.88C814.713 31.16 815.073 30.3067 815.073 29.32C815.073 28.3067 814.726 27.4533 814.033 26.76C813.339 26.0667 812.486 25.72 811.473 25.72H807.033V32.92H811.473ZM829.246 41.68C829.246 42.1067 829.339 42.4133 829.526 42.6C829.739 42.7867 830.086 42.88 830.566 42.88C830.913 42.88 831.326 42.84 831.806 42.76V48C830.499 48.1867 829.486 48.28 828.766 48.28C827.033 48.28 825.726 47.8267 824.846 46.92C823.966 45.9867 823.526 44.36 823.526 42.04V20H829.246V41.68ZM849.939 28H855.619V48H849.939V46.48C849.059 47.1467 848.085 47.6533 847.019 48C845.979 48.3733 844.925 48.56 843.859 48.56C841.779 48.56 839.979 48.1067 838.459 47.2C836.965 46.2933 835.819 45.0533 835.019 43.48C834.219 41.88 833.819 40.0667 833.819 38.04C833.819 36.0133 834.219 34.2 835.019 32.6C835.819 30.9733 836.965 29.7067 838.459 28.8C839.979 27.8933 841.779 27.44 843.859 27.44C844.952 27.44 846.019 27.6267 847.059 28C848.099 28.3733 849.059 28.8933 849.939 29.56V28ZM844.619 43.12C846.112 43.12 847.365 42.64 848.379 41.68C849.392 40.72 849.899 39.48 849.899 37.96C849.899 36.4933 849.392 35.2933 848.379 34.36C847.365 33.4267 846.112 32.96 844.619 32.96C843.125 32.96 841.899 33.4267 840.939 34.36C839.979 35.2933 839.499 36.52 839.499 38.04C839.499 39.56 839.979 40.7867 840.939 41.72C841.899 42.6533 843.125 43.12 844.619 43.12ZM871.078 27.44C872.251 27.44 873.438 27.6933 874.638 28.2C875.838 28.7067 876.865 29.6 877.718 30.88C878.571 32.16 878.998 33.88 878.998 36.04V48H873.278V36.04C873.278 34.76 872.918 33.84 872.198 33.28C871.505 32.72 870.665 32.44 869.678 32.44C868.691 32.44 867.865 32.7867 867.198 33.48C866.558 34.1733 866.238 35.28 866.238 36.8V48H860.518V28H866.238V29.36C867.758 28.08 869.371 27.44 871.078 27.44ZM903.48 48.52C900.707 48.52 898.374 47.9067 896.48 46.68C894.614 45.4533 893.294 43.7867 892.52 41.68L897.6 38.72C898.134 40.0533 898.88 41.04 899.84 41.68C900.827 42.32 902.094 42.64 903.64 42.64C904.894 42.64 905.854 42.3467 906.52 41.76C907.214 41.1733 907.56 40.52 907.56 39.8C907.56 39.2667 907.4 38.8133 907.08 38.44C906.76 38.0667 906.214 37.72 905.44 37.4C904.667 37.0533 903.547 36.6667 902.08 36.24C899.52 35.4933 897.48 34.48 895.96 33.2C894.44 31.92 893.68 30.0933 893.68 27.72C893.68 26.04 894.094 24.5867 894.92 23.36C895.774 22.1067 896.894 21.1467 898.28 20.48C899.694 19.8133 901.214 19.48 902.84 19.48C905.107 19.48 907.094 20.0267 908.8 21.12C910.507 22.1867 911.84 23.7067 912.8 25.68L907.6 28.64C907.094 27.52 906.454 26.7067 905.68 26.2C904.907 25.6667 903.96 25.4 902.84 25.4C901.987 25.4 901.254 25.64 900.64 26.12C900.027 26.5733 899.72 27.1067 899.72 27.72C899.72 28.2267 899.84 28.6667 900.08 29.04C900.347 29.3867 900.814 29.72 901.48 30.04C902.174 30.36 903.187 30.72 904.52 31.12C906.307 31.68 907.84 32.3067 909.12 33C910.427 33.6667 911.494 34.5867 912.32 35.76C913.174 36.9333 913.6 38.4 913.6 40.16C913.6 41.84 913.16 43.32 912.28 44.6C911.4 45.8533 910.187 46.8267 908.64 47.52C907.12 48.1867 905.4 48.52 903.48 48.52ZM934.699 48H928.979V36.2C928.979 34.92 928.619 34 927.899 33.44C927.179 32.8533 926.326 32.56 925.339 32.56C924.513 32.56 923.793 32.8267 923.179 33.36C922.566 33.8667 922.179 34.6667 922.019 35.76V48H916.299V20H922.019V29.44C923.486 28.2133 925.073 27.6 926.779 27.6C927.926 27.6 929.086 27.8533 930.259 28.36C931.459 28.84 932.486 29.7067 933.339 30.96C934.219 32.2133 934.673 33.9067 934.699 36.04V48ZM947.967 48.6C946.047 48.6 944.274 48.1333 942.647 47.2C941.047 46.24 939.767 44.9467 938.807 43.32C937.874 41.6933 937.407 39.9333 937.407 38.04C937.407 36.12 937.874 34.36 938.807 32.76C939.767 31.1333 941.047 29.8533 942.647 28.92C944.274 27.96 946.047 27.48 947.967 27.48C949.86 27.48 951.607 27.96 953.207 28.92C954.834 29.8533 956.114 31.1333 957.047 32.76C958.007 34.36 958.487 36.12 958.487 38.04C958.487 39.9333 958.007 41.6933 957.047 43.32C956.114 44.9467 954.834 46.24 953.207 47.2C951.607 48.1333 949.86 48.6 947.967 48.6ZM947.927 42.88C949.26 42.88 950.407 42.4133 951.367 41.48C952.327 40.52 952.807 39.3733 952.807 38.04C952.807 36.7067 952.327 35.56 951.367 34.6C950.407 33.64 949.26 33.16 947.927 33.16C946.594 33.16 945.447 33.64 944.487 34.6C943.554 35.56 943.087 36.7067 943.087 38.04C943.087 39.3733 943.554 40.52 944.487 41.48C945.447 42.4133 946.594 42.88 947.927 42.88ZM980.233 38.76L983.473 28H989.433L982.953 48H977.393L974.073 37.44L970.713 48H965.193L958.793 28H964.793L967.953 38.64L971.033 28H977.073L980.233 38.76ZM1010.43 44.08C1009.45 45.4667 1008.19 46.5733 1006.67 47.4C1005.18 48.2 1003.57 48.6 1001.83 48.6C999.914 48.6 998.141 48.1333 996.514 47.2C994.914 46.24 993.634 44.9467 992.674 43.32C991.741 41.6933 991.274 39.9333 991.274 38.04C991.274 36.12 991.741 34.36 992.674 32.76C993.634 31.1333 994.914 29.8533 996.514 28.92C998.141 27.96 999.914 27.48 1001.83 27.48C1003.57 27.48 1005.18 27.88 1006.67 28.68C1008.17 29.48 1009.41 30.56 1010.39 31.92L1005.67 35.04C1004.55 33.7867 1003.27 33.16 1001.83 33.16C1000.5 33.16 999.354 33.64 998.394 34.6C997.434 35.56 996.954 36.7067 996.954 38.04C996.954 39.3733 997.434 40.52 998.394 41.48C999.354 42.4133 1000.5 42.88 1001.83 42.88C1003.27 42.88 1004.55 42.2533 1005.67 41L1010.43 44.08ZM1027.67 28H1033.35V48H1027.67V46.48C1026.79 47.1467 1025.82 47.6533 1024.75 48C1023.71 48.3733 1022.66 48.56 1021.59 48.56C1019.51 48.56 1017.71 48.1067 1016.19 47.2C1014.7 46.2933 1013.55 45.0533 1012.75 43.48C1011.95 41.88 1011.55 40.0667 1011.55 38.04C1011.55 36.0133 1011.95 34.2 1012.75 32.6C1013.55 30.9733 1014.7 29.7067 1016.19 28.8C1017.71 27.8933 1019.51 27.44 1021.59 27.44C1022.69 27.44 1023.75 27.6267 1024.79 28C1025.83 28.3733 1026.79 28.8933 1027.67 29.56V28ZM1022.35 43.12C1023.85 43.12 1025.1 42.64 1026.11 41.68C1027.13 40.72 1027.63 39.48 1027.63 37.96C1027.63 36.4933 1027.13 35.2933 1026.11 34.36C1025.1 33.4267 1023.85 32.96 1022.35 32.96C1020.86 32.96 1019.63 33.4267 1018.67 34.36C1017.71 35.2933 1017.23 36.52 1017.23 38.04C1017.23 39.56 1017.71 40.7867 1018.67 41.72C1019.63 42.6533 1020.86 43.12 1022.35 43.12ZM1042.59 33.68C1042.59 34.1333 1042.87 34.48 1043.43 34.72C1043.99 34.9333 1044.88 35.16 1046.11 35.4C1047.68 35.72 1048.99 36.08 1050.03 36.48C1051.07 36.8533 1051.98 37.4933 1052.75 38.4C1053.55 39.28 1053.95 40.5067 1053.95 42.08C1053.95 43.44 1053.54 44.6133 1052.71 45.6C1051.88 46.56 1050.79 47.2933 1049.43 47.8C1048.07 48.28 1046.6 48.52 1045.03 48.52C1042.87 48.52 1041.03 48.1333 1039.51 47.36C1037.99 46.56 1036.84 45.3867 1036.07 43.84L1040.75 41.44C1041.39 43.1467 1042.82 44 1045.03 44C1045.94 44 1046.72 43.84 1047.39 43.52C1048.08 43.1733 1048.43 42.6933 1048.43 42.08C1048.43 41.5467 1048.11 41.1467 1047.47 40.88C1046.86 40.6133 1045.87 40.3333 1044.51 40.04C1042.96 39.6933 1041.67 39.3333 1040.63 38.96C1039.59 38.56 1038.7 37.96 1037.95 37.16C1037.2 36.3333 1036.83 35.24 1036.83 33.88C1036.83 32.5733 1037.2 31.44 1037.95 30.48C1038.7 29.4933 1039.7 28.7467 1040.95 28.24C1042.23 27.7333 1043.62 27.48 1045.11 27.48C1046.87 27.48 1048.46 27.84 1049.87 28.56C1051.28 29.28 1052.39 30.32 1053.19 31.68L1048.55 33.96C1048.23 33.2933 1047.79 32.8 1047.23 32.48C1046.7 32.16 1045.99 32 1045.11 32C1044.34 32 1043.72 32.16 1043.27 32.48C1042.82 32.7733 1042.59 33.1733 1042.59 33.68ZM1066.29 27.48C1068.23 27.48 1069.97 27.9467 1071.49 28.88C1073.03 29.8133 1074.23 31.08 1075.09 32.68C1075.94 34.28 1076.37 36.0533 1076.37 38C1076.37 38.7467 1076.31 39.4267 1076.21 40.04H1061.41C1061.91 41.2667 1062.59 42.1867 1063.45 42.8C1064.3 43.3867 1065.41 43.68 1066.77 43.68C1067.59 43.68 1068.39 43.5067 1069.17 43.16C1069.97 42.8133 1070.59 42.3467 1071.05 41.76L1075.37 44.32C1074.43 45.68 1073.22 46.72 1071.73 47.44C1070.26 48.16 1068.57 48.52 1066.65 48.52C1064.49 48.52 1062.58 48.0667 1060.93 47.16C1059.27 46.2267 1057.99 44.96 1057.09 43.36C1056.18 41.76 1055.73 39.9733 1055.73 38C1055.73 36.0267 1056.17 34.24 1057.05 32.64C1057.95 31.04 1059.21 29.7867 1060.81 28.88C1062.41 27.9467 1064.23 27.48 1066.29 27.48ZM1071.01 35.6C1070.82 34.5867 1070.29 33.8 1069.41 33.24C1068.55 32.68 1067.5 32.4 1066.25 32.4C1064.94 32.4 1063.81 32.72 1062.85 33.36C1061.89 33.9733 1061.38 34.72 1061.33 35.6H1071.01ZM1097.8 40.88C1097.8 41.6267 1098 42.1467 1098.4 42.44C1098.83 42.7333 1099.47 42.88 1100.32 42.88C1100.86 42.88 1101.44 42.84 1102.08 42.76V48C1100.75 48.1333 1099.64 48.2 1098.76 48.2C1096.52 48.2 1094.84 47.7067 1093.72 46.72C1092.63 45.7067 1092.08 43.88 1092.08 41.24V33.08H1088.64V28H1092.08V23.36L1097.8 21.44V28H1102V33.08H1097.8V40.88ZM1114.84 48.6C1112.92 48.6 1111.15 48.1333 1109.52 47.2C1107.92 46.24 1106.64 44.9467 1105.68 43.32C1104.75 41.6933 1104.28 39.9333 1104.28 38.04C1104.28 36.12 1104.75 34.36 1105.68 32.76C1106.64 31.1333 1107.92 29.8533 1109.52 28.92C1111.15 27.96 1112.92 27.48 1114.84 27.48C1116.74 27.48 1118.48 27.96 1120.08 28.92C1121.71 29.8533 1122.99 31.1333 1123.92 32.76C1124.88 34.36 1125.36 36.12 1125.36 38.04C1125.36 39.9333 1124.88 41.6933 1123.92 43.32C1122.99 44.9467 1121.71 46.24 1120.08 47.2C1118.48 48.1333 1116.74 48.6 1114.84 48.6ZM1114.8 42.88C1116.14 42.88 1117.28 42.4133 1118.24 41.48C1119.2 40.52 1119.68 39.3733 1119.68 38.04C1119.68 36.7067 1119.2 35.56 1118.24 34.6C1117.28 33.64 1116.14 33.16 1114.8 33.16C1113.47 33.16 1112.32 33.64 1111.36 34.6C1110.43 35.56 1109.96 36.7067 1109.96 38.04C1109.96 39.3733 1110.43 40.52 1111.36 41.48C1112.32 42.4133 1113.47 42.88 1114.8 42.88ZM1146.83 40.88C1146.83 41.6267 1147.03 42.1467 1147.43 42.44C1147.85 42.7333 1148.49 42.88 1149.35 42.88C1149.88 42.88 1150.47 42.84 1151.11 42.76V48C1149.77 48.1333 1148.67 48.2 1147.79 48.2C1145.55 48.2 1143.87 47.7067 1142.75 46.72C1141.65 45.7067 1141.11 43.88 1141.11 41.24V33.08H1137.67V28H1141.11V23.36L1146.83 21.44V28H1151.03V33.08H1146.83V40.88ZM1172.94 48H1167.22V36.2C1167.22 34.92 1166.86 34 1166.14 33.44C1165.42 32.8533 1164.57 32.56 1163.58 32.56C1162.75 32.56 1162.03 32.8267 1161.42 33.36C1160.81 33.8667 1160.42 34.6667 1160.26 35.76V48H1154.54V20H1160.26V29.44C1161.73 28.2133 1163.31 27.6 1165.02 27.6C1166.17 27.6 1167.33 27.8533 1168.5 28.36C1169.7 28.84 1170.73 29.7067 1171.58 30.96C1172.46 32.2133 1172.91 33.9067 1172.94 36.04V48ZM1185.86 27.48C1187.8 27.48 1189.54 27.9467 1191.06 28.88C1192.6 29.8133 1193.8 31.08 1194.66 32.68C1195.51 34.28 1195.94 36.0533 1195.94 38C1195.94 38.7467 1195.88 39.4267 1195.78 40.04H1180.98C1181.48 41.2667 1182.16 42.1867 1183.02 42.8C1183.87 43.3867 1184.98 43.68 1186.34 43.68C1187.16 43.68 1187.96 43.5067 1188.74 43.16C1189.54 42.8133 1190.16 42.3467 1190.62 41.76L1194.94 44.32C1194 45.68 1192.79 46.72 1191.3 47.44C1189.83 48.16 1188.14 48.52 1186.22 48.52C1184.06 48.52 1182.15 48.0667 1180.5 47.16C1178.84 46.2267 1177.56 44.96 1176.66 43.36C1175.75 41.76 1175.3 39.9733 1175.3 38C1175.3 36.0267 1175.74 34.24 1176.62 32.64C1177.52 31.04 1178.78 29.7867 1180.38 28.88C1181.98 27.9467 1183.8 27.48 1185.86 27.48ZM1190.58 35.6C1190.39 34.5867 1189.86 33.8 1188.98 33.24C1188.12 32.68 1187.07 32.4 1185.82 32.4C1184.51 32.4 1183.38 32.72 1182.42 33.36C1181.46 33.9733 1180.95 34.72 1180.9 35.6H1190.58ZM1219.65 48.52C1216.88 48.52 1214.55 47.9067 1212.65 46.68C1210.79 45.4533 1209.47 43.7867 1208.69 41.68L1213.77 38.72C1214.31 40.0533 1215.05 41.04 1216.01 41.68C1217 42.32 1218.27 42.64 1219.81 42.64C1221.07 42.64 1222.03 42.3467 1222.69 41.76C1223.39 41.1733 1223.73 40.52 1223.73 39.8C1223.73 39.2667 1223.57 38.8133 1223.25 38.44C1222.93 38.0667 1222.39 37.72 1221.61 37.4C1220.84 37.0533 1219.72 36.6667 1218.25 36.24C1215.69 35.4933 1213.65 34.48 1212.13 33.2C1210.61 31.92 1209.85 30.0933 1209.85 27.72C1209.85 26.04 1210.27 24.5867 1211.09 23.36C1211.95 22.1067 1213.07 21.1467 1214.45 20.48C1215.87 19.8133 1217.39 19.48 1219.01 19.48C1221.28 19.48 1223.27 20.0267 1224.97 21.12C1226.68 22.1867 1228.01 23.7067 1228.97 25.68L1223.77 28.64C1223.27 27.52 1222.63 26.7067 1221.85 26.2C1221.08 25.6667 1220.13 25.4 1219.01 25.4C1218.16 25.4 1217.43 25.64 1216.81 26.12C1216.2 26.5733 1215.89 27.1067 1215.89 27.72C1215.89 28.2267 1216.01 28.6667 1216.25 29.04C1216.52 29.3867 1216.99 29.72 1217.65 30.04C1218.35 30.36 1219.36 30.72 1220.69 31.12C1222.48 31.68 1224.01 32.3067 1225.29 33C1226.6 33.6667 1227.67 34.5867 1228.49 35.76C1229.35 36.9333 1229.77 38.4 1229.77 40.16C1229.77 41.84 1229.33 43.32 1228.45 44.6C1227.57 45.8533 1226.36 46.8267 1224.81 47.52C1223.29 48.1867 1221.57 48.52 1219.65 48.52ZM1239.76 40.88C1239.76 41.6267 1239.96 42.1467 1240.36 42.44C1240.78 42.7333 1241.42 42.88 1242.28 42.88C1242.81 42.88 1243.4 42.84 1244.04 42.76V48C1242.7 48.1333 1241.6 48.2 1240.72 48.2C1238.48 48.2 1236.8 47.7067 1235.68 46.72C1234.58 45.7067 1234.04 43.88 1234.04 41.24V33.08H1230.6V28H1234.04V23.36L1239.76 21.44V28H1243.96V33.08H1239.76V40.88ZM1262.6 28H1268.28V48H1262.6V46.48C1261.72 47.1467 1260.74 47.6533 1259.68 48C1258.64 48.3733 1257.58 48.56 1256.52 48.56C1254.44 48.56 1252.64 48.1067 1251.12 47.2C1249.62 46.2933 1248.48 45.0533 1247.68 43.48C1246.88 41.88 1246.48 40.0667 1246.48 38.04C1246.48 36.0133 1246.88 34.2 1247.68 32.6C1248.48 30.9733 1249.62 29.7067 1251.12 28.8C1252.64 27.8933 1254.44 27.44 1256.52 27.44C1257.61 27.44 1258.68 27.6267 1259.72 28C1260.76 28.3733 1261.72 28.8933 1262.6 29.56V28ZM1257.28 43.12C1258.77 43.12 1260.02 42.64 1261.04 41.68C1262.05 40.72 1262.56 39.48 1262.56 37.96C1262.56 36.4933 1262.05 35.2933 1261.04 34.36C1260.02 33.4267 1258.77 32.96 1257.28 32.96C1255.78 32.96 1254.56 33.4267 1253.6 34.36C1252.64 35.2933 1252.16 36.52 1252.16 38.04C1252.16 39.56 1252.64 40.7867 1253.6 41.72C1254.56 42.6533 1255.78 43.12 1257.28 43.12ZM1278.35 41.68C1278.35 42.1067 1278.44 42.4133 1278.63 42.6C1278.84 42.7867 1279.19 42.88 1279.67 42.88C1280.01 42.88 1280.43 42.84 1280.91 42.76V48C1279.6 48.1867 1278.59 48.28 1277.87 48.28C1276.13 48.28 1274.83 47.8267 1273.95 46.92C1273.07 45.9867 1272.63 44.36 1272.63 42.04V20H1278.35V41.68ZM1293.08 27.48C1295.03 27.48 1296.76 27.9467 1298.28 28.88C1299.83 29.8133 1301.03 31.08 1301.88 32.68C1302.74 34.28 1303.16 36.0533 1303.16 38C1303.16 38.7467 1303.11 39.4267 1303 40.04H1288.2C1288.71 41.2667 1289.39 42.1867 1290.24 42.8C1291.1 43.3867 1292.2 43.68 1293.56 43.68C1294.39 43.68 1295.19 43.5067 1295.96 43.16C1296.76 42.8133 1297.39 42.3467 1297.84 41.76L1302.16 44.32C1301.23 45.68 1300.02 46.72 1298.52 47.44C1297.06 48.16 1295.36 48.52 1293.44 48.52C1291.28 48.52 1289.38 48.0667 1287.72 47.16C1286.07 46.2267 1284.79 44.96 1283.88 43.36C1282.98 41.76 1282.52 39.9733 1282.52 38C1282.52 36.0267 1282.96 34.24 1283.84 32.64C1284.75 31.04 1286 29.7867 1287.6 28.88C1289.2 27.9467 1291.03 27.48 1293.08 27.48ZM1297.8 35.6C1297.62 34.5867 1297.08 33.8 1296.2 33.24C1295.35 32.68 1294.3 32.4 1293.04 32.4C1291.74 32.4 1290.6 32.72 1289.64 33.36C1288.68 33.9733 1288.18 34.72 1288.12 35.6H1297.8ZM1325.32 48H1319.6V36.2C1319.6 34.92 1319.24 34 1318.52 33.44C1317.8 32.8533 1316.95 32.56 1315.96 32.56C1315.14 32.56 1314.42 32.8267 1313.8 33.36C1313.19 33.8667 1312.8 34.6667 1312.64 35.76V48H1306.92V20H1312.64V29.44C1314.11 28.2133 1315.7 27.6 1317.4 27.6C1318.55 27.6 1319.71 27.8533 1320.88 28.36C1322.08 28.84 1323.11 29.7067 1323.96 30.96C1324.84 32.2133 1325.3 33.9067 1325.32 36.04V48ZM1338.59 48.6C1336.67 48.6 1334.9 48.1333 1333.27 47.2C1331.67 46.24 1330.39 44.9467 1329.43 43.32C1328.5 41.6933 1328.03 39.9333 1328.03 38.04C1328.03 36.12 1328.5 34.36 1329.43 32.76C1330.39 31.1333 1331.67 29.8533 1333.27 28.92C1334.9 27.96 1336.67 27.48 1338.59 27.48C1340.49 27.48 1342.23 27.96 1343.83 28.92C1345.46 29.8533 1346.74 31.1333 1347.67 32.76C1348.63 34.36 1349.11 36.12 1349.11 38.04C1349.11 39.9333 1348.63 41.6933 1347.67 43.32C1346.74 44.9467 1345.46 46.24 1343.83 47.2C1342.23 48.1333 1340.49 48.6 1338.59 48.6ZM1338.55 42.88C1339.89 42.88 1341.03 42.4133 1341.99 41.48C1342.95 40.52 1343.43 39.3733 1343.43 38.04C1343.43 36.7067 1342.95 35.56 1341.99 34.6C1341.03 33.64 1339.89 33.16 1338.55 33.16C1337.22 33.16 1336.07 33.64 1335.11 34.6C1334.18 35.56 1333.71 36.7067 1333.71 38.04C1333.71 39.3733 1334.18 40.52 1335.11 41.48C1336.07 42.4133 1337.22 42.88 1338.55 42.88ZM1357.84 41.68C1357.84 42.1067 1357.93 42.4133 1358.12 42.6C1358.33 42.7867 1358.68 42.88 1359.16 42.88C1359.51 42.88 1359.92 42.84 1360.4 42.76V48C1359.09 48.1867 1358.08 48.28 1357.36 48.28C1355.63 48.28 1354.32 47.8267 1353.44 46.92C1352.56 45.9867 1352.12 44.36 1352.12 42.04V20H1357.84V41.68ZM1378.49 20H1384.17V48H1378.49V46.48C1377.61 47.1467 1376.65 47.6533 1375.61 48C1374.6 48.3733 1373.55 48.56 1372.45 48.56C1370.37 48.56 1368.57 48.1067 1367.05 47.2C1365.56 46.2933 1364.41 45.0533 1363.61 43.48C1362.81 41.88 1362.41 40.0667 1362.41 38.04C1362.41 36.0133 1362.81 34.2 1363.61 32.6C1364.41 30.9733 1365.56 29.7067 1367.05 28.8C1368.57 27.8933 1370.37 27.44 1372.45 27.44C1373.52 27.44 1374.57 27.6267 1375.61 28C1376.65 28.3467 1377.61 28.8533 1378.49 29.52V20ZM1373.21 43.12C1374.71 43.12 1375.96 42.64 1376.97 41.68C1377.99 40.72 1378.49 39.48 1378.49 37.96C1378.49 36.4933 1377.99 35.2933 1376.97 34.36C1375.96 33.4267 1374.71 32.96 1373.21 32.96C1371.72 32.96 1370.49 33.4267 1369.53 34.36C1368.57 35.2933 1368.09 36.52 1368.09 38.04C1368.09 39.56 1368.57 40.7867 1369.53 41.72C1370.49 42.6533 1371.72 43.12 1373.21 43.12ZM1397.81 27.48C1399.76 27.48 1401.49 27.9467 1403.01 28.88C1404.56 29.8133 1405.76 31.08 1406.61 32.68C1407.46 34.28 1407.89 36.0533 1407.89 38C1407.89 38.7467 1407.84 39.4267 1407.73 40.04H1392.93C1393.44 41.2667 1394.12 42.1867 1394.97 42.8C1395.82 43.3867 1396.93 43.68 1398.29 43.68C1399.12 43.68 1399.92 43.5067 1400.69 43.16C1401.49 42.8133 1402.12 42.3467 1402.57 41.76L1406.89 44.32C1405.96 45.68 1404.74 46.72 1403.25 47.44C1401.78 48.16 1400.09 48.52 1398.17 48.52C1396.01 48.52 1394.1 48.0667 1392.45 47.16C1390.8 46.2267 1389.52 44.96 1388.61 43.36C1387.7 41.76 1387.25 39.9733 1387.25 38C1387.25 36.0267 1387.69 34.24 1388.57 32.64C1389.48 31.04 1390.73 29.7867 1392.33 28.88C1393.93 27.9467 1395.76 27.48 1397.81 27.48ZM1402.53 35.6C1402.34 34.5867 1401.81 33.8 1400.93 33.24C1400.08 32.68 1399.02 32.4 1397.77 32.4C1396.46 32.4 1395.33 32.72 1394.37 33.36C1393.41 33.9733 1392.9 34.72 1392.85 35.6H1402.53ZM1423.43 27.6L1423.03 33C1422.84 32.92 1422.54 32.88 1422.11 32.88C1420.48 32.88 1419.15 33.3467 1418.11 34.28C1417.1 35.1867 1416.59 36.3867 1416.59 37.88V48H1410.87V28H1416.59V31.24C1417.07 30.2 1417.84 29.3333 1418.91 28.64C1419.98 27.9467 1421.27 27.6 1422.79 27.6H1423.43ZM1430.76 33.68C1430.76 34.1333 1431.04 34.48 1431.6 34.72C1432.16 34.9333 1433.05 35.16 1434.28 35.4C1435.85 35.72 1437.16 36.08 1438.2 36.48C1439.24 36.8533 1440.14 37.4933 1440.92 38.4C1441.72 39.28 1442.12 40.5067 1442.12 42.08C1442.12 43.44 1441.7 44.6133 1440.88 45.6C1440.05 46.56 1438.96 47.2933 1437.6 47.8C1436.24 48.28 1434.77 48.52 1433.2 48.52C1431.04 48.52 1429.2 48.1333 1427.68 47.36C1426.16 46.56 1425.01 45.3867 1424.24 43.84L1428.92 41.44C1429.56 43.1467 1430.98 44 1433.2 44C1434.1 44 1434.89 43.84 1435.56 43.52C1436.25 43.1733 1436.6 42.6933 1436.6 42.08C1436.6 41.5467 1436.28 41.1467 1435.64 40.88C1435.02 40.6133 1434.04 40.3333 1432.68 40.04C1431.13 39.6933 1429.84 39.3333 1428.8 38.96C1427.76 38.56 1426.86 37.96 1426.12 37.16C1425.37 36.3333 1425 35.24 1425 33.88C1425 32.5733 1425.37 31.44 1426.12 30.48C1426.86 29.4933 1427.86 28.7467 1429.12 28.24C1430.4 27.7333 1431.78 27.48 1433.28 27.48C1435.04 27.48 1436.62 27.84 1438.04 28.56C1439.45 29.28 1440.56 30.32 1441.36 31.68L1436.72 33.96C1436.4 33.2933 1435.96 32.8 1435.4 32.48C1434.86 32.16 1434.16 32 1433.28 32C1432.5 32 1431.89 32.16 1431.44 32.48C1430.98 32.7733 1430.76 33.1733 1430.76 33.68Z" fill="#EAEAEA"/>
<path d="M47.2799 0.696279C48.8447 2.14924 50.8167 9.04855 51.562 11.3535C52.7262 14.9541 53.7031 17.8834 55.1769 21.3565C56.3528 24.1258 56.8354 28.5849 59.368 30.3786C61.016 31.5467 63.9727 32.0046 64.3929 34.5034C64.8351 37.1349 64.1522 39.8509 62.6576 42.0193C62.0723 42.8687 60.3201 44.3555 60.181 45.2348C59.6606 48.514 62.0306 51.9988 61.5403 55.3288C61.1955 57.6754 59.8844 58.7901 57.5443 57.799C56.8432 57.5024 56.2292 56.5242 55.2822 57.0016C53.9385 58.4389 55.4995 60.3498 53.8657 61.6844C53.0995 62.3113 52.163 62.3426 51.2095 62.0915C49.897 61.7468 49.2961 59.7137 47.6987 60.1937C47.1186 60.368 43.6416 64.5214 42.6725 65.3382C38.9627 68.4679 33.4878 70.8652 28.6268 69.4032C26.4233 68.7411 23.0191 65.9327 21.3034 64.3223C20.3343 63.4131 17.5728 59.9335 16.6362 59.633C14.6174 58.9866 14.5446 61.661 13.7849 62.4987C13.0734 63.2843 11.9079 63.2843 11.0611 62.7653C9.20882 61.6297 9.84489 57.7912 8.97208 57.5258C7.80398 57.1694 6.65019 60.7998 4.36733 59.144C3.07176 58.2035 3.09258 55.7997 3.18884 54.3558C3.41908 50.9244 5.74745 47.2874 3.56996 44.0368C1.61099 41.1113 -0.68617 40.3894 0.193153 36.1255C0.752486 33.412 3.24998 32.616 4.83042 30.8001C6.83101 28.5016 8.24884 24.6682 9.534 21.8846C11.8637 16.835 12.1499 12.0598 14.1804 7.01934C14.6109 5.95141 16.5374 1.68747 17.1474 1.04229C18.0411 0.0979235 19.0127 0.0237792 20.0716 0.739205C21.8302 1.92941 23.9453 8.41507 25.0665 10.5835C25.8327 12.065 26.9228 14.2334 28.7334 14.439C30.2111 14.6068 35.9605 14.6289 37.1807 14.1372C38.8092 13.4816 39.7406 9.67942 40.3936 8.20305C40.8228 7.23397 41.4888 6.38326 41.8934 5.4337C42.4943 4.02106 42.6075 2.22079 43.6039 1.04619C44.6003 -0.128411 46.0936 -0.408078 47.2812 0.693678L47.2799 0.696279ZM18.8189 8.99262C16.9029 9.4674 16.1185 14.7355 16.4307 16.3654C16.7286 17.9237 19.178 16.3875 20.0209 15.8984C21.9135 14.798 22.0045 14.8617 21.453 12.5697C21.2084 11.5564 20.1301 8.66742 18.8189 8.99131V8.99262ZM44.5535 9.41407C43.877 10.0619 42.8898 13.9108 43.172 14.8565C43.6169 16.3459 47.86 18.5312 48.327 16.9403C48.7068 15.6513 47.782 10.7669 46.8519 9.75877C46.3264 9.19033 45.144 8.84823 44.5535 9.41407ZM27.4131 49.3855C27.5276 44.3073 25.1056 34.48 19.6748 32.6303C15.3979 31.1734 12.7443 35.7222 12.3814 39.354C11.8897 44.2696 13.1983 48.7209 16.138 52.6193C19.0648 56.4982 24.3641 63.0268 28.6242 65.1418C34.0458 67.8344 38.9549 64.8439 42.3499 60.5436C47.3436 54.2179 52.8849 47.7609 52.2436 39.1185C51.8443 33.7385 47.2265 28.9075 42.5685 33.9428C39.0356 37.7618 37.5267 44.3242 37.1781 49.3855C37.0207 49.569 34.9823 48.1576 34.5934 48.0067C32.174 47.0637 30.6833 47.6607 28.5656 48.8106C28.1832 49.0187 27.9907 49.5312 27.4145 49.3855H27.4131Z" fill="white"/>
<path d="M27.4136 49.3847C27.9898 49.5304 28.1823 49.0179 28.5648 48.8098C30.6824 47.6599 32.1731 47.0628 34.5925 48.0059C34.9815 48.1568 37.0198 49.5694 37.1772 49.3847C37.5258 44.3234 39.0334 37.761 42.5676 33.9419C47.2257 28.9066 51.8434 33.7377 52.2427 39.1177C52.8853 47.76 47.3427 54.2171 42.3491 60.5427C38.954 64.8431 34.0462 67.8336 28.6233 65.141C24.3632 63.0259 19.0639 56.4986 16.1372 52.6184C13.1961 48.72 11.8888 44.2688 12.3805 39.3531C12.7434 35.7214 15.397 31.1726 19.674 32.6294C25.1047 34.4791 27.5267 44.3065 27.4123 49.3847H27.4136ZM21.2531 36.416C19.9692 36.6111 19.5374 39.8956 19.4788 40.957C19.406 42.2721 19.5712 47.5948 21.4053 47.6807C22.7906 47.7444 23.268 45.0414 23.35 44.0099C23.4592 42.6207 23.6361 36.0544 21.2531 36.416ZM43.6368 36.4147C43.2362 36.4901 43.0398 36.7282 42.829 37.0482C41.6909 38.7717 41.7169 45.1325 42.8316 46.8898C43.7773 48.3805 44.8049 47.5792 45.3252 46.2459C46.1382 44.1647 46.0927 39.4962 45.1509 37.4631C44.84 36.7919 44.5044 36.2508 43.6368 36.4147Z" fill="black"/>
<path d="M44.554 9.4149C45.1458 8.84906 46.3269 9.19117 46.8524 9.7596C47.7838 10.7677 48.7073 15.6521 48.3275 16.9412C47.8592 18.532 43.6174 16.3467 43.1725 14.8573C42.8903 13.9117 43.8776 10.0627 44.554 9.4149Z" fill="black"/>
<path d="M18.8181 8.99217C20.1292 8.66698 21.2076 11.556 21.4521 12.5706C22.005 14.8626 21.9126 14.7988 20.02 15.8993C19.1771 16.3897 16.7277 17.9246 16.4298 16.3663C16.1177 14.7351 16.902 9.46696 18.8181 8.99347V8.99217Z" fill="black"/>
<path d="M43.6367 36.4147C44.5056 36.2495 44.8399 36.7907 45.1508 37.4632C46.0939 39.4963 46.1381 44.1661 45.3251 46.246C44.8048 47.5793 43.7772 48.3806 42.8315 46.8899C41.7155 45.1325 41.6895 38.7717 42.8289 37.0482C43.0397 36.7282 43.2361 36.4915 43.6367 36.4147Z" fill="white"/>
<path d="M21.2527 36.4167C23.6357 36.0551 23.4601 42.6214 23.3495 44.0106C23.2676 45.0422 22.7902 47.7452 21.4048 47.6814C19.5694 47.5969 19.4056 42.2728 19.4784 40.9577C19.5369 39.8976 19.9688 36.6118 21.2527 36.4167Z" fill="white"/>
<path d="M28.429 54.4453L31.08 58.6039C31.4781 58.9447 32.014 59.8318 32.5837 59.7421L36.3625 54.95L36.0581 54.4453H28.4277H28.429Z" fill="white"/>
</svg>
