<svg width="874" height="70" viewBox="0 0 874 70" fill="none" xmlns="http://www.w3.org/2000/svg">
<path d="M91.4 34.08C91.4 31.4667 92.04 29.0533 93.32 26.84C94.6267 24.6267 96.3867 22.88 98.6 21.6C100.813 20.2933 103.227 19.64 105.84 19.64C108.507 19.64 110.973 20.3333 113.24 21.72C115.507 23.1067 117.267 24.9333 118.52 27.2L113.24 30.04C112.493 28.7067 111.467 27.6533 110.16 26.88C108.853 26.08 107.413 25.68 105.84 25.68C104.32 25.68 102.907 26.0533 101.6 26.8C100.32 27.5467 99.3067 28.5733 98.56 29.88C97.8133 31.16 97.44 32.56 97.44 34.08C97.44 35.6 97.8133 37.0133 98.56 38.32C99.3333 39.6 100.36 40.6267 101.64 41.4C102.92 42.1467 104.32 42.52 105.84 42.52C107.413 42.52 108.867 42.12 110.2 41.32C111.533 40.4933 112.56 39.4 113.28 38.04L118.6 40.92C117.347 43.2133 115.573 45.0667 113.28 46.48C111.013 47.8667 108.533 48.56 105.84 48.56C103.227 48.56 100.813 47.9067 98.6 46.6C96.3867 45.2933 94.6267 43.5333 93.32 41.32C92.04 39.1067 91.4 36.6933 91.4 34.08ZM140.449 48H134.729V36.2C134.729 34.92 134.369 34 133.649 33.44C132.929 32.8533 132.076 32.56 131.089 32.56C130.263 32.56 129.543 32.8267 128.929 33.36C128.316 33.8667 127.929 34.6667 127.769 35.76V48H122.049V20H127.769V29.44C129.236 28.2133 130.823 27.6 132.529 27.6C133.676 27.6 134.836 27.8533 136.009 28.36C137.209 28.84 138.236 29.7067 139.089 30.96C139.969 32.2133 140.423 33.9067 140.449 36.04V48ZM157.578 27.6L157.178 33C156.991 32.92 156.685 32.88 156.258 32.88C154.631 32.88 153.298 33.3467 152.258 34.28C151.245 35.1867 150.738 36.3867 150.738 37.88V48H145.018V28H150.738V31.24C151.218 30.2 151.991 29.3333 153.058 28.64C154.125 27.9467 155.418 27.6 156.938 27.6H157.578ZM163.955 25.28C162.888 25.28 162.048 25 161.435 24.44C160.848 23.8533 160.555 23.0667 160.555 22.08C160.555 21.0667 160.848 20.2667 161.435 19.68C162.048 19.0933 162.888 18.8 163.955 18.8C164.995 18.8 165.821 19.0933 166.435 19.68C167.048 20.2667 167.355 21.0667 167.355 22.08C167.355 23.0667 167.048 23.8533 166.435 24.44C165.821 25 164.995 25.28 163.955 25.28ZM161.075 48V28H166.795V48H161.075ZM176.115 33.68C176.115 34.1333 176.395 34.48 176.955 34.72C177.515 34.9333 178.408 35.16 179.635 35.4C181.208 35.72 182.515 36.08 183.555 36.48C184.595 36.8533 185.501 37.4933 186.275 38.4C187.075 39.28 187.475 40.5067 187.475 42.08C187.475 43.44 187.061 44.6133 186.235 45.6C185.408 46.56 184.315 47.2933 182.955 47.8C181.595 48.28 180.128 48.52 178.555 48.52C176.395 48.52 174.555 48.1333 173.035 47.36C171.515 46.56 170.368 45.3867 169.595 43.84L174.275 41.44C174.915 43.1467 176.341 44 178.555 44C179.461 44 180.248 43.84 180.915 43.52C181.608 43.1733 181.955 42.6933 181.955 42.08C181.955 41.5467 181.635 41.1467 180.995 40.88C180.381 40.6133 179.395 40.3333 178.035 40.04C176.488 39.6933 175.195 39.3333 174.155 38.96C173.115 38.56 172.221 37.96 171.475 37.16C170.728 36.3333 170.355 35.24 170.355 33.88C170.355 32.5733 170.728 31.44 171.475 30.48C172.221 29.4933 173.221 28.7467 174.475 28.24C175.755 27.7333 177.141 27.48 178.635 27.48C180.395 27.48 181.981 27.84 183.395 28.56C184.808 29.28 185.915 30.32 186.715 31.68L182.075 33.96C181.755 33.2933 181.315 32.8 180.755 32.48C180.221 32.16 179.515 32 178.635 32C177.861 32 177.248 32.16 176.795 32.48C176.341 32.7733 176.115 33.1733 176.115 33.68ZM197.771 40.88C197.771 41.6267 197.971 42.1467 198.371 42.44C198.797 42.7333 199.437 42.88 200.291 42.88C200.824 42.88 201.411 42.84 202.051 42.76V48C200.717 48.1333 199.611 48.2 198.731 48.2C196.491 48.2 194.811 47.7067 193.691 46.72C192.597 45.7067 192.051 43.88 192.051 41.24V33.08H188.611V28H192.051V23.36L197.771 21.44V28H201.971V33.08H197.771V40.88ZM229.388 27.44C230.561 27.44 231.748 27.6933 232.948 28.2C234.148 28.7067 235.175 29.6 236.028 30.88C236.881 32.16 237.308 33.88 237.308 36.04V48H231.628V36.04C231.628 34.76 231.268 33.84 230.548 33.28C229.828 32.72 228.975 32.44 227.988 32.44C227.161 32.44 226.441 32.6933 225.828 33.2C225.241 33.68 224.855 34.44 224.668 35.48V36.04V48H218.948V36.04C218.948 34.76 218.588 33.84 217.868 33.28C217.148 32.72 216.295 32.44 215.308 32.44C214.481 32.44 213.761 32.6933 213.148 33.2C212.535 33.7067 212.148 34.52 211.988 35.64V48H206.268V28H211.988V29.28C213.455 28.0533 215.041 27.44 216.748 27.44C217.921 27.44 219.108 27.6933 220.308 28.2C221.535 28.7067 222.535 29.5467 223.308 30.72C224.001 29.7867 224.881 29.0133 225.948 28.4C227.015 27.76 228.161 27.44 229.388 27.44ZM255.962 28H261.642V48H255.962V46.48C255.082 47.1467 254.109 47.6533 253.042 48C252.002 48.3733 250.949 48.56 249.882 48.56C247.802 48.56 246.002 48.1067 244.482 47.2C242.989 46.2933 241.842 45.0533 241.042 43.48C240.242 41.88 239.842 40.0667 239.842 38.04C239.842 36.0133 240.242 34.2 241.042 32.6C241.842 30.9733 242.989 29.7067 244.482 28.8C246.002 27.8933 247.802 27.44 249.882 27.44C250.976 27.44 252.042 27.6267 253.082 28C254.122 28.3733 255.082 28.8933 255.962 29.56V28ZM250.642 43.12C252.136 43.12 253.389 42.64 254.402 41.68C255.416 40.72 255.922 39.48 255.922 37.96C255.922 36.4933 255.416 35.2933 254.402 34.36C253.389 33.4267 252.136 32.96 250.642 32.96C249.149 32.96 247.922 33.4267 246.962 34.36C246.002 35.2933 245.522 36.52 245.522 38.04C245.522 39.56 246.002 40.7867 246.962 41.72C247.922 42.6533 249.149 43.12 250.642 43.12ZM270.88 33.68C270.88 34.1333 271.16 34.48 271.72 34.72C272.28 34.9333 273.174 35.16 274.4 35.4C275.974 35.72 277.28 36.08 278.32 36.48C279.36 36.8533 280.267 37.4933 281.04 38.4C281.84 39.28 282.24 40.5067 282.24 42.08C282.24 43.44 281.827 44.6133 281 45.6C280.174 46.56 279.08 47.2933 277.72 47.8C276.36 48.28 274.894 48.52 273.32 48.52C271.16 48.52 269.32 48.1333 267.8 47.36C266.28 46.56 265.134 45.3867 264.36 43.84L269.04 41.44C269.68 43.1467 271.107 44 273.32 44C274.227 44 275.014 43.84 275.68 43.52C276.374 43.1733 276.72 42.6933 276.72 42.08C276.72 41.5467 276.4 41.1467 275.76 40.88C275.147 40.6133 274.16 40.3333 272.8 40.04C271.254 39.6933 269.96 39.3333 268.92 38.96C267.88 38.56 266.987 37.96 266.24 37.16C265.494 36.3333 265.12 35.24 265.12 33.88C265.12 32.5733 265.494 31.44 266.24 30.48C266.987 29.4933 267.987 28.7467 269.24 28.24C270.52 27.7333 271.907 27.48 273.4 27.48C275.16 27.48 276.747 27.84 278.16 28.56C279.574 29.28 280.68 30.32 281.48 31.68L276.84 33.96C276.52 33.2933 276.08 32.8 275.52 32.48C274.987 32.16 274.28 32 273.4 32C272.627 32 272.014 32.16 271.56 32.48C271.107 32.7733 270.88 33.1733 270.88 33.68ZM316.552 42.28V47.96H295.312V46.68C295.499 44.0133 296.259 41.4133 297.592 38.88C298.925 36.32 301.045 34.4667 303.952 33.32L305.272 32.76C307.085 32.04 308.445 31.3867 309.352 30.8C310.259 30.2133 310.712 29.4667 310.712 28.56C310.712 27.7867 310.485 27.12 310.032 26.56C309.579 26 309.019 25.5867 308.352 25.32C307.685 25.0267 307.019 24.88 306.352 24.88C304.779 24.88 303.459 25.1867 302.392 25.8C301.325 26.3867 300.685 27.3067 300.472 28.56L294.832 27.96C295.072 26.2 295.739 24.68 296.832 23.4C297.952 22.12 299.339 21.1467 300.992 20.48C302.672 19.7867 304.459 19.44 306.352 19.44C308.059 19.44 309.685 19.8 311.232 20.52C312.805 21.24 314.072 22.2667 315.032 23.6C315.992 24.9333 316.472 26.48 316.472 28.24C316.472 30 316.045 31.48 315.192 32.68C314.339 33.88 313.192 34.88 311.752 35.68C310.339 36.4533 308.499 37.2667 306.232 38.12C304.525 38.76 303.259 40.1467 302.432 42.28H316.552ZM330.168 48.52C327.821 48.52 325.768 47.92 324.008 46.72C322.248 45.4933 320.888 43.7867 319.928 41.6C318.968 39.3867 318.488 36.8533 318.488 34C318.488 31.1467 318.968 28.6267 319.928 26.44C320.888 24.2267 322.248 22.52 324.008 21.32C325.768 20.0933 327.821 19.48 330.168 19.48C332.514 19.48 334.568 20.0933 336.328 21.32C338.088 22.52 339.434 24.2267 340.368 26.44C341.328 28.6267 341.808 31.1467 341.808 34C341.808 36.8533 341.328 39.3867 340.368 41.6C339.434 43.7867 338.088 45.4933 336.328 46.72C334.568 47.92 332.514 48.52 330.168 48.52ZM330.168 42.52C331.901 42.52 333.274 41.8267 334.288 40.44C335.301 39.0533 335.808 36.9067 335.808 34C335.808 31.0933 335.301 28.9467 334.288 27.56C333.274 26.1733 331.901 25.48 330.168 25.48C328.434 25.48 327.061 26.1733 326.048 27.56C325.034 28.9467 324.528 31.0933 324.528 34C324.528 36.9067 325.034 39.0533 326.048 40.44C327.061 41.8267 328.434 42.52 330.168 42.52ZM365.224 42.28V47.96H343.984V46.68C344.17 44.0133 344.93 41.4133 346.264 38.88C347.597 36.32 349.717 34.4667 352.624 33.32L353.944 32.76C355.757 32.04 357.117 31.3867 358.024 30.8C358.93 30.2133 359.384 29.4667 359.384 28.56C359.384 27.7867 359.157 27.12 358.704 26.56C358.25 26 357.69 25.5867 357.024 25.32C356.357 25.0267 355.69 24.88 355.024 24.88C353.45 24.88 352.13 25.1867 351.064 25.8C349.997 26.3867 349.357 27.3067 349.144 28.56L343.504 27.96C343.744 26.2 344.41 24.68 345.504 23.4C346.624 22.12 348.01 21.1467 349.664 20.48C351.344 19.7867 353.13 19.44 355.024 19.44C356.73 19.44 358.357 19.8 359.904 20.52C361.477 21.24 362.744 22.2667 363.704 23.6C364.664 24.9333 365.144 26.48 365.144 28.24C365.144 30 364.717 31.48 363.864 32.68C363.01 33.88 361.864 34.88 360.424 35.68C359.01 36.4533 357.17 37.2667 354.904 38.12C353.197 38.76 351.93 40.1467 351.104 42.28H365.224ZM379.08 30.4C382.28 30.4 384.8 31.16 386.64 32.68C388.506 34.2 389.44 36.2667 389.44 38.88C389.44 41.84 388.506 44.1867 386.64 45.92C384.8 47.6267 382.28 48.48 379.08 48.48C375.773 48.48 373.133 47.7467 371.16 46.28C369.213 44.7867 368.213 42.76 368.16 40.2L373.84 39.52C374 40.5333 374.546 41.3467 375.48 41.96C376.44 42.5467 377.64 42.84 379.08 42.84C380.573 42.84 381.733 42.4933 382.56 41.8C383.413 41.08 383.84 40.1067 383.84 38.88C383.84 37.8133 383.413 36.9867 382.56 36.4C381.733 35.7867 380.573 35.48 379.08 35.48H373.96V35.4L369.4 35.48L371.32 20H388.36V25.68H376.32L375.76 30.4H379.08ZM422.61 20V25.68H415.21V48H409.17V25.68H401.81V20H422.61ZM437.416 39.32L443.936 20H450.296L440.776 48H434.016L424.496 20H430.856L437.416 39.32ZM472.863 48.52C470.09 48.52 467.756 47.9067 465.863 46.68C463.996 45.4533 462.676 43.7867 461.903 41.68L466.983 38.72C467.516 40.0533 468.263 41.04 469.223 41.68C470.21 42.32 471.476 42.64 473.023 42.64C474.276 42.64 475.236 42.3467 475.903 41.76C476.596 41.1733 476.943 40.52 476.943 39.8C476.943 39.2667 476.783 38.8133 476.463 38.44C476.143 38.0667 475.596 37.72 474.823 37.4C474.05 37.0533 472.93 36.6667 471.463 36.24C468.903 35.4933 466.863 34.48 465.343 33.2C463.823 31.92 463.063 30.0933 463.063 27.72C463.063 26.04 463.476 24.5867 464.303 23.36C465.156 22.1067 466.276 21.1467 467.663 20.48C469.076 19.8133 470.596 19.48 472.223 19.48C474.49 19.48 476.476 20.0267 478.183 21.12C479.89 22.1867 481.223 23.7067 482.183 25.68L476.983 28.64C476.476 27.52 475.836 26.7067 475.063 26.2C474.29 25.6667 473.343 25.4 472.223 25.4C471.37 25.4 470.636 25.64 470.023 26.12C469.41 26.5733 469.103 27.1067 469.103 27.72C469.103 28.2267 469.223 28.6667 469.463 29.04C469.73 29.3867 470.196 29.72 470.863 30.04C471.556 30.36 472.57 30.72 473.903 31.12C475.69 31.68 477.223 32.3067 478.503 33C479.81 33.6667 480.876 34.5867 481.703 35.76C482.556 36.9333 482.983 38.4 482.983 40.16C482.983 41.84 482.543 43.32 481.663 44.6C480.783 45.8533 479.57 46.8267 478.023 47.52C476.503 48.1867 474.783 48.52 472.863 48.52ZM489.033 25.28C487.966 25.28 487.126 25 486.513 24.44C485.926 23.8533 485.633 23.0667 485.633 22.08C485.633 21.0667 485.926 20.2667 486.513 19.68C487.126 19.0933 487.966 18.8 489.033 18.8C490.073 18.8 490.899 19.0933 491.513 19.68C492.126 20.2667 492.433 21.0667 492.433 22.08C492.433 23.0667 492.126 23.8533 491.513 24.44C490.899 25 490.073 25.28 489.033 25.28ZM486.153 48V28H491.873V48H486.153ZM511.275 28H516.995V47C516.995 48.8667 516.501 50.52 515.515 51.96C514.555 53.4 513.221 54.52 511.515 55.32C509.808 56.12 507.888 56.52 505.755 56.52C503.435 56.52 501.301 56.0667 499.355 55.16C497.435 54.28 496.088 53.1333 495.315 51.72L500.195 48.88C500.541 49.5733 501.235 50.1467 502.275 50.6C503.315 51.0533 504.528 51.28 505.915 51.28C507.461 51.28 508.741 50.88 509.755 50.08C510.768 49.28 511.275 48.2533 511.275 47V46.48C510.395 47.1467 509.435 47.6533 508.395 48C507.381 48.3733 506.328 48.56 505.235 48.56C503.155 48.56 501.355 48.1067 499.835 47.2C498.341 46.2933 497.195 45.0533 496.395 43.48C495.595 41.88 495.195 40.0667 495.195 38.04C495.195 36.0133 495.595 34.2 496.395 32.6C497.195 30.9733 498.341 29.7067 499.835 28.8C501.355 27.8933 503.155 27.44 505.235 27.44C506.301 27.44 507.355 27.6267 508.395 28C509.435 28.3467 510.395 28.8533 511.275 29.52V28ZM505.995 43.12C507.488 43.12 508.741 42.64 509.755 41.68C510.768 40.72 511.275 39.48 511.275 37.96C511.275 36.4933 510.768 35.2933 509.755 34.36C508.741 33.4267 507.488 32.96 505.995 32.96C504.501 32.96 503.275 33.4267 502.315 34.36C501.381 35.2933 500.915 36.52 500.915 38.04C500.915 39.56 501.381 40.7867 502.315 41.72C503.275 42.6533 504.501 43.12 505.995 43.12ZM532.453 27.44C533.626 27.44 534.813 27.6933 536.013 28.2C537.213 28.7067 538.24 29.6 539.093 30.88C539.946 32.16 540.373 33.88 540.373 36.04V48H534.653V36.04C534.653 34.76 534.293 33.84 533.573 33.28C532.88 32.72 532.04 32.44 531.053 32.44C530.066 32.44 529.24 32.7867 528.573 33.48C527.933 34.1733 527.613 35.28 527.613 36.8V48H521.893V28H527.613V29.36C529.133 28.08 530.746 27.44 532.453 27.44ZM559.4 28H565.08V48H559.4V46.48C558.52 47.1467 557.546 47.6533 556.48 48C555.44 48.3733 554.386 48.56 553.32 48.56C551.24 48.56 549.44 48.1067 547.92 47.2C546.426 46.2933 545.28 45.0533 544.48 43.48C543.68 41.88 543.28 40.0667 543.28 38.04C543.28 36.0133 543.68 34.2 544.48 32.6C545.28 30.9733 546.426 29.7067 547.92 28.8C549.44 27.8933 551.24 27.44 553.32 27.44C554.413 27.44 555.48 27.6267 556.52 28C557.56 28.3733 558.52 28.8933 559.4 29.56V28ZM554.08 43.12C555.573 43.12 556.826 42.64 557.84 41.68C558.853 40.72 559.36 39.48 559.36 37.96C559.36 36.4933 558.853 35.2933 557.84 34.36C556.826 33.4267 555.573 32.96 554.08 32.96C552.586 32.96 551.36 33.4267 550.4 34.36C549.44 35.2933 548.96 36.52 548.96 38.04C548.96 39.56 549.44 40.7867 550.4 41.72C551.36 42.6533 552.586 43.12 554.08 43.12ZM584.478 28H590.198V47C590.198 48.8667 589.704 50.52 588.718 51.96C587.758 53.4 586.424 54.52 584.718 55.32C583.011 56.12 581.091 56.52 578.958 56.52C576.638 56.52 574.504 56.0667 572.558 55.16C570.638 54.28 569.291 53.1333 568.518 51.72L573.398 48.88C573.744 49.5733 574.438 50.1467 575.478 50.6C576.518 51.0533 577.731 51.28 579.118 51.28C580.664 51.28 581.944 50.88 582.958 50.08C583.971 49.28 584.478 48.2533 584.478 47V46.48C583.598 47.1467 582.638 47.6533 581.598 48C580.584 48.3733 579.531 48.56 578.438 48.56C576.358 48.56 574.558 48.1067 573.038 47.2C571.544 46.2933 570.398 45.0533 569.598 43.48C568.798 41.88 568.398 40.0667 568.398 38.04C568.398 36.0133 568.798 34.2 569.598 32.6C570.398 30.9733 571.544 29.7067 573.038 28.8C574.558 27.8933 576.358 27.44 578.438 27.44C579.504 27.44 580.558 27.6267 581.598 28C582.638 28.3467 583.598 28.8533 584.478 29.52V28ZM579.198 43.12C580.691 43.12 581.944 42.64 582.958 41.68C583.971 40.72 584.478 39.48 584.478 37.96C584.478 36.4933 583.971 35.2933 582.958 34.36C581.944 33.4267 580.691 32.96 579.198 32.96C577.704 32.96 576.478 33.4267 575.518 34.36C574.584 35.2933 574.118 36.52 574.118 38.04C574.118 39.56 574.584 40.7867 575.518 41.72C576.478 42.6533 577.704 43.12 579.198 43.12ZM603.795 27.48C605.742 27.48 607.475 27.9467 608.995 28.88C610.542 29.8133 611.742 31.08 612.595 32.68C613.448 34.28 613.875 36.0533 613.875 38C613.875 38.7467 613.822 39.4267 613.715 40.04H598.915C599.422 41.2667 600.102 42.1867 600.955 42.8C601.808 43.3867 602.915 43.68 604.275 43.68C605.102 43.68 605.902 43.5067 606.675 43.16C607.475 42.8133 608.102 42.3467 608.555 41.76L612.875 44.32C611.942 45.68 610.728 46.72 609.235 47.44C607.768 48.16 606.075 48.52 604.155 48.52C601.995 48.52 600.088 48.0667 598.435 47.16C596.782 46.2267 595.502 44.96 594.595 43.36C593.688 41.76 593.235 39.9733 593.235 38C593.235 36.0267 593.675 34.24 594.555 32.64C595.462 31.04 596.715 29.7867 598.315 28.88C599.915 27.9467 601.742 27.48 603.795 27.48ZM608.515 35.6C608.328 34.5867 607.795 33.8 606.915 33.24C606.062 32.68 605.008 32.4 603.755 32.4C602.448 32.4 601.315 32.72 600.355 33.36C599.395 33.9733 598.888 34.72 598.835 35.6H608.515ZM633.59 51.76C631.59 49.6533 629.99 46.9867 628.79 43.76C627.616 40.5333 627.03 37.3067 627.03 34.08C627.03 30.8533 627.616 27.6267 628.79 24.4C629.99 21.1467 631.59 18.48 633.59 16.4L637.15 19.12C635.736 21.6533 634.71 24.08 634.07 26.4C633.456 28.6933 633.15 31.2533 633.15 34.08C633.15 36.9067 633.456 39.48 634.07 41.8C634.71 44.12 635.736 46.5067 637.15 48.96L633.59 51.76ZM657.332 33.16C658.372 33.96 659.172 34.9067 659.732 36C660.292 37.0933 660.572 38.28 660.572 39.56C660.572 41.24 660.092 42.76 659.132 44.12C658.198 45.48 656.918 46.5467 655.292 47.32C653.665 48.0933 651.865 48.48 649.892 48.48C647.972 48.48 646.198 48.12 644.572 47.4C642.972 46.6533 641.692 45.6267 640.732 44.32C639.798 43.0133 639.318 41.56 639.292 39.96L645.532 39.52C645.692 40.48 646.172 41.28 646.972 41.92C647.798 42.5333 648.772 42.84 649.892 42.84C651.252 42.84 652.372 42.5067 653.252 41.84C654.158 41.1733 654.612 40.32 654.612 39.28C654.612 38.2133 654.158 37.3467 653.252 36.68C652.372 35.9867 651.252 35.64 649.892 35.64H648.372V30.84H649.892C651.092 30.84 652.078 30.56 652.852 30C653.625 29.44 654.012 28.72 654.012 27.84C654.012 26.96 653.612 26.24 652.812 25.68C652.012 25.0933 650.998 24.8 649.772 24.8C648.892 24.8 648.065 25 647.292 25.4C646.545 25.8 646.025 26.32 645.732 26.96L639.812 26.6C639.972 25.24 640.505 24.0267 641.412 22.96C642.345 21.8667 643.532 21.0133 644.972 20.4C646.438 19.7867 648.038 19.48 649.772 19.48C651.718 19.48 653.452 19.84 654.972 20.56C656.492 21.28 657.678 22.28 658.532 23.56C659.412 24.8133 659.852 26.24 659.852 27.84C659.852 28.88 659.625 29.8533 659.172 30.76C658.745 31.6667 658.132 32.4667 657.332 33.16ZM676.388 20C679.001 20 681.401 20.6267 683.588 21.88C685.801 23.1067 687.548 24.8 688.828 26.96C690.134 29.0933 690.788 31.4667 690.788 34.08C690.788 36.6933 690.148 39.0667 688.868 41.2C687.588 43.3067 685.841 44.9733 683.628 46.2C681.414 47.4 679.001 48 676.388 48H664.908V20H676.388ZM676.388 42.28C677.908 42.28 679.308 41.92 680.588 41.2C681.894 40.4533 682.921 39.4533 683.668 38.2C684.414 36.9467 684.787 35.56 684.787 34.04C684.787 32.52 684.414 31.12 683.668 29.84C682.921 28.56 681.894 27.5467 680.588 26.8C679.308 26.0533 677.908 25.68 676.388 25.68H670.908V42.28H676.388ZM703.822 34.08C703.822 31.4667 704.462 29.0533 705.742 26.84C707.049 24.6267 708.809 22.88 711.022 21.6C713.235 20.2933 715.649 19.64 718.262 19.64C720.929 19.64 723.395 20.3333 725.662 21.72C727.929 23.1067 729.689 24.9333 730.942 27.2L725.662 30.04C724.915 28.7067 723.889 27.6533 722.582 26.88C721.275 26.08 719.835 25.68 718.262 25.68C716.742 25.68 715.329 26.0533 714.022 26.8C712.742 27.5467 711.729 28.5733 710.982 29.88C710.235 31.16 709.862 32.56 709.862 34.08C709.862 35.6 710.235 37.0133 710.982 38.32C711.755 39.6 712.782 40.6267 714.062 41.4C715.342 42.1467 716.742 42.52 718.262 42.52C719.835 42.52 721.289 42.12 722.622 41.32C723.955 40.4933 724.982 39.4 725.702 38.04L731.022 40.92C729.769 43.2133 727.995 45.0667 725.702 46.48C723.435 47.8667 720.955 48.56 718.262 48.56C715.649 48.56 713.235 47.9067 711.022 46.6C708.809 45.2933 707.049 43.5333 705.742 41.32C704.462 39.1067 703.822 36.6933 703.822 34.08ZM742.936 48.6C741.016 48.6 739.242 48.1333 737.616 47.2C736.016 46.24 734.736 44.9467 733.776 43.32C732.842 41.6933 732.376 39.9333 732.376 38.04C732.376 36.12 732.842 34.36 733.776 32.76C734.736 31.1333 736.016 29.8533 737.616 28.92C739.242 27.96 741.016 27.48 742.936 27.48C744.829 27.48 746.576 27.96 748.176 28.92C749.802 29.8533 751.082 31.1333 752.016 32.76C752.976 34.36 753.456 36.12 753.456 38.04C753.456 39.9333 752.976 41.6933 752.016 43.32C751.082 44.9467 749.802 46.24 748.176 47.2C746.576 48.1333 744.829 48.6 742.936 48.6ZM742.896 42.88C744.229 42.88 745.376 42.4133 746.336 41.48C747.296 40.52 747.776 39.3733 747.776 38.04C747.776 36.7067 747.296 35.56 746.336 34.6C745.376 33.64 744.229 33.16 742.896 33.16C741.562 33.16 740.416 33.64 739.456 34.6C738.522 35.56 738.056 36.7067 738.056 38.04C738.056 39.3733 738.522 40.52 739.456 41.48C740.416 42.4133 741.562 42.88 742.896 42.88ZM767.023 27.44C768.197 27.44 769.383 27.6933 770.583 28.2C771.783 28.7067 772.81 29.6 773.663 30.88C774.517 32.16 774.943 33.88 774.943 36.04V48H769.223V36.04C769.223 34.76 768.863 33.84 768.143 33.28C767.45 32.72 766.61 32.44 765.623 32.44C764.637 32.44 763.81 32.7867 763.143 33.48C762.503 34.1733 762.183 35.28 762.183 36.8V48H756.463V28H762.183V29.36C763.703 28.08 765.317 27.44 767.023 27.44ZM796.77 44.08C795.783 45.4667 794.53 46.5733 793.01 47.4C791.517 48.2 789.903 48.6 788.17 48.6C786.25 48.6 784.477 48.1333 782.85 47.2C781.25 46.24 779.97 44.9467 779.01 43.32C778.077 41.6933 777.61 39.9333 777.61 38.04C777.61 36.12 778.077 34.36 779.01 32.76C779.97 31.1333 781.25 29.8533 782.85 28.92C784.477 27.96 786.25 27.48 788.17 27.48C789.903 27.48 791.517 27.88 793.01 28.68C794.503 29.48 795.743 30.56 796.73 31.92L792.01 35.04C790.89 33.7867 789.61 33.16 788.17 33.16C786.837 33.16 785.69 33.64 784.73 34.6C783.77 35.56 783.29 36.7067 783.29 38.04C783.29 39.3733 783.77 40.52 784.73 41.48C785.69 42.4133 786.837 42.88 788.17 42.88C789.61 42.88 790.89 42.2533 792.01 41L796.77 44.08ZM808.639 27.48C810.585 27.48 812.319 27.9467 813.839 28.88C815.385 29.8133 816.585 31.08 817.439 32.68C818.292 34.28 818.719 36.0533 818.719 38C818.719 38.7467 818.665 39.4267 818.559 40.04H803.759C804.265 41.2667 804.945 42.1867 805.799 42.8C806.652 43.3867 807.759 43.68 809.119 43.68C809.945 43.68 810.745 43.5067 811.519 43.16C812.319 42.8133 812.945 42.3467 813.399 41.76L817.719 44.32C816.785 45.68 815.572 46.72 814.079 47.44C812.612 48.16 810.919 48.52 808.999 48.52C806.839 48.52 804.932 48.0667 803.279 47.16C801.625 46.2267 800.345 44.96 799.439 43.36C798.532 41.76 798.079 39.9733 798.079 38C798.079 36.0267 798.519 34.24 799.399 32.64C800.305 31.04 801.559 29.7867 803.159 28.88C804.759 27.9467 806.585 27.48 808.639 27.48ZM813.359 35.6C813.172 34.5867 812.639 33.8 811.759 33.24C810.905 32.68 809.852 32.4 808.599 32.4C807.292 32.4 806.159 32.72 805.199 33.36C804.239 33.9733 803.732 34.72 803.679 35.6H813.359ZM834.239 27.48C836.319 27.48 838.106 27.9333 839.599 28.84C841.119 29.7467 842.279 31 843.079 32.6C843.879 34.1733 844.279 35.9733 844.279 38C844.279 40.0267 843.879 41.84 843.079 43.44C842.279 45.04 841.119 46.3067 839.599 47.24C838.106 48.1467 836.319 48.6 834.239 48.6C833.172 48.6 832.119 48.4133 831.079 48.04C830.039 47.6933 829.079 47.1867 828.199 46.52V56H822.479V28H828.199V29.56C829.079 28.8933 830.026 28.3867 831.039 28.04C832.079 27.6667 833.146 27.48 834.239 27.48ZM833.479 43.04C834.972 43.04 836.186 42.5867 837.119 41.68C838.079 40.7467 838.559 39.52 838.559 38C838.559 36.48 838.079 35.2533 837.119 34.32C836.186 33.3867 834.972 32.92 833.479 32.92C831.986 32.92 830.732 33.4 829.719 34.36C828.706 35.32 828.199 36.5467 828.199 38.04C828.199 39.5333 828.692 40.7467 829.679 41.68C830.692 42.5867 831.959 43.04 833.479 43.04ZM854.763 40.88C854.763 41.6267 854.963 42.1467 855.363 42.44C855.789 42.7333 856.429 42.88 857.283 42.88C857.816 42.88 858.403 42.84 859.043 42.76V48C857.709 48.1333 856.603 48.2 855.723 48.2C853.483 48.2 851.803 47.7067 850.683 46.72C849.589 45.7067 849.043 43.88 849.043 41.24V33.08H845.603V28H849.043V23.36L854.763 21.44V28H858.963V33.08H854.763V40.88ZM865.14 16.4C867.14 18.48 868.727 21.1467 869.9 24.4C871.1 27.6267 871.7 30.8533 871.7 34.08C871.7 37.3067 871.1 40.5333 869.9 43.76C868.727 46.9867 867.14 49.6533 865.14 51.76L861.58 48.96C862.994 46.5067 864.007 44.12 864.62 41.8C865.26 39.48 865.58 36.9067 865.58 34.08C865.58 31.2533 865.26 28.6933 864.62 26.4C864.007 24.08 862.994 21.6533 861.58 19.12L865.14 16.4Z" fill="#EAEAEA"/>
<path d="M47.2799 0.696279C48.8447 2.14924 50.8167 9.04855 51.562 11.3535C52.7262 14.9541 53.7031 17.8834 55.1769 21.3565C56.3528 24.1258 56.8354 28.5849 59.368 30.3786C61.016 31.5467 63.9727 32.0046 64.3929 34.5034C64.8351 37.1349 64.1522 39.8509 62.6576 42.0193C62.0723 42.8687 60.3201 44.3555 60.181 45.2348C59.6606 48.514 62.0306 51.9988 61.5403 55.3288C61.1955 57.6754 59.8844 58.7901 57.5443 57.799C56.8432 57.5024 56.2292 56.5242 55.2822 57.0016C53.9385 58.4389 55.4995 60.3498 53.8657 61.6844C53.0995 62.3113 52.163 62.3426 51.2095 62.0915C49.897 61.7468 49.2961 59.7137 47.6987 60.1937C47.1186 60.368 43.6416 64.5214 42.6725 65.3382C38.9627 68.4679 33.4878 70.8652 28.6268 69.4032C26.4233 68.7411 23.0191 65.9327 21.3034 64.3223C20.3343 63.4131 17.5728 59.9335 16.6362 59.633C14.6174 58.9866 14.5446 61.661 13.7849 62.4987C13.0734 63.2843 11.9079 63.2843 11.0611 62.7653C9.20882 61.6297 9.84489 57.7912 8.97208 57.5258C7.80398 57.1694 6.65019 60.7998 4.36733 59.144C3.07176 58.2035 3.09258 55.7997 3.18884 54.3558C3.41908 50.9244 5.74745 47.2874 3.56996 44.0368C1.61099 41.1113 -0.68617 40.3894 0.193153 36.1255C0.752486 33.412 3.24998 32.616 4.83042 30.8001C6.83101 28.5016 8.24884 24.6682 9.534 21.8846C11.8637 16.835 12.1499 12.0598 14.1804 7.01934C14.6109 5.95141 16.5374 1.68747 17.1474 1.04229C18.0411 0.0979235 19.0127 0.0237792 20.0716 0.739205C21.8302 1.92941 23.9453 8.41507 25.0665 10.5835C25.8327 12.065 26.9228 14.2334 28.7334 14.439C30.2111 14.6068 35.9605 14.6289 37.1807 14.1372C38.8092 13.4816 39.7406 9.67942 40.3936 8.20305C40.8228 7.23397 41.4888 6.38326 41.8934 5.4337C42.4943 4.02106 42.6075 2.22079 43.6039 1.04619C44.6003 -0.128411 46.0936 -0.408078 47.2812 0.693678L47.2799 0.696279ZM18.8189 8.99262C16.9029 9.4674 16.1185 14.7355 16.4307 16.3654C16.7286 17.9237 19.178 16.3875 20.0209 15.8984C21.9135 14.798 22.0045 14.8617 21.453 12.5697C21.2084 11.5564 20.1301 8.66742 18.8189 8.99131V8.99262ZM44.5535 9.41407C43.877 10.0619 42.8898 13.9108 43.172 14.8565C43.6169 16.3459 47.86 18.5312 48.327 16.9403C48.7068 15.6513 47.782 10.7669 46.8519 9.75877C46.3264 9.19033 45.144 8.84823 44.5535 9.41407ZM27.4131 49.3855C27.5276 44.3073 25.1056 34.48 19.6748 32.6303C15.3979 31.1734 12.7443 35.7222 12.3814 39.354C11.8897 44.2696 13.1983 48.7209 16.138 52.6193C19.0648 56.4982 24.3641 63.0268 28.6242 65.1418C34.0458 67.8344 38.9549 64.8439 42.3499 60.5436C47.3436 54.2179 52.8849 47.7609 52.2436 39.1185C51.8443 33.7385 47.2265 28.9075 42.5685 33.9428C39.0356 37.7618 37.5267 44.3242 37.1781 49.3855C37.0207 49.569 34.9823 48.1576 34.5934 48.0067C32.174 47.0637 30.6833 47.6607 28.5656 48.8106C28.1832 49.0187 27.9907 49.5312 27.4145 49.3855H27.4131Z" fill="white"/>
<path d="M27.4136 49.3847C27.9898 49.5304 28.1823 49.0179 28.5648 48.8098C30.6824 47.6599 32.1731 47.0628 34.5925 48.0059C34.9815 48.1568 37.0198 49.5694 37.1772 49.3847C37.5258 44.3234 39.0334 37.761 42.5676 33.9419C47.2257 28.9066 51.8434 33.7377 52.2427 39.1177C52.8853 47.76 47.3427 54.2171 42.3491 60.5427C38.954 64.8431 34.0462 67.8336 28.6233 65.141C24.3632 63.0259 19.0639 56.4986 16.1372 52.6184C13.1961 48.72 11.8888 44.2688 12.3805 39.3531C12.7434 35.7214 15.397 31.1726 19.674 32.6294C25.1047 34.4791 27.5267 44.3065 27.4123 49.3847H27.4136ZM21.2531 36.416C19.9692 36.6111 19.5374 39.8956 19.4788 40.957C19.406 42.2721 19.5712 47.5948 21.4053 47.6807C22.7906 47.7444 23.268 45.0414 23.35 44.0099C23.4592 42.6207 23.6361 36.0544 21.2531 36.416ZM43.6368 36.4147C43.2362 36.4901 43.0398 36.7282 42.829 37.0482C41.6909 38.7717 41.7169 45.1325 42.8316 46.8898C43.7773 48.3805 44.8049 47.5792 45.3252 46.2459C46.1382 44.1647 46.0927 39.4962 45.1509 37.4631C44.84 36.7919 44.5044 36.2508 43.6368 36.4147Z" fill="black"/>
<path d="M44.554 9.4149C45.1458 8.84906 46.3269 9.19117 46.8524 9.7596C47.7838 10.7677 48.7073 15.6521 48.3275 16.9412C47.8592 18.532 43.6174 16.3467 43.1725 14.8573C42.8903 13.9117 43.8776 10.0627 44.554 9.4149Z" fill="black"/>
<path d="M18.8181 8.99217C20.1292 8.66698 21.2076 11.556 21.4521 12.5706C22.005 14.8626 21.9126 14.7988 20.02 15.8993C19.1771 16.3897 16.7277 17.9246 16.4298 16.3663C16.1177 14.7351 16.902 9.46696 18.8181 8.99347V8.99217Z" fill="black"/>
<path d="M43.6367 36.4147C44.5056 36.2495 44.8399 36.7907 45.1508 37.4632C46.0939 39.4963 46.1381 44.1661 45.3251 46.246C44.8048 47.5793 43.7772 48.3806 42.8315 46.8899C41.7155 45.1325 41.6895 38.7717 42.8289 37.0482C43.0397 36.7282 43.2361 36.4915 43.6367 36.4147Z" fill="white"/>
<path d="M21.2527 36.4167C23.6357 36.0551 23.4601 42.6214 23.3495 44.0106C23.2676 45.0422 22.7902 47.7452 21.4048 47.6814C19.5694 47.5969 19.4056 42.2728 19.4784 40.9577C19.5369 39.8976 19.9688 36.6118 21.2527 36.4167Z" fill="white"/>
<path d="M28.429 54.4453L31.08 58.6039C31.4781 58.9447 32.014 59.8318 32.5837 59.7421L36.3625 54.95L36.0581 54.4453H28.4277H28.429Z" fill="white"/>
</svg>
