<svg width="1144" height="70" viewBox="0 0 1144 70" fill="none" xmlns="http://www.w3.org/2000/svg">
<path d="M104.2 20C106.813 20 109.213 20.6267 111.4 21.88C113.613 23.1067 115.36 24.8 116.64 26.96C117.947 29.0933 118.6 31.4667 118.6 34.08C118.6 36.6933 117.96 39.0667 116.68 41.2C115.4 43.3067 113.653 44.9733 111.44 46.2C109.227 47.4 106.813 48 104.2 48H92.72V20H104.2ZM104.2 42.28C105.72 42.28 107.12 41.92 108.4 41.2C109.707 40.4533 110.733 39.4533 111.48 38.2C112.227 36.9467 112.6 35.56 112.6 34.04C112.6 32.52 112.227 31.12 111.48 29.84C110.733 28.56 109.707 27.5467 108.4 26.8C107.12 26.0533 105.72 25.68 104.2 25.68H98.72V42.28H104.2ZM131.139 27.48C133.085 27.48 134.819 27.9467 136.339 28.88C137.885 29.8133 139.085 31.08 139.939 32.68C140.792 34.28 141.219 36.0533 141.219 38C141.219 38.7467 141.165 39.4267 141.059 40.04H126.259C126.765 41.2667 127.445 42.1867 128.299 42.8C129.152 43.3867 130.259 43.68 131.619 43.68C132.445 43.68 133.245 43.5067 134.019 43.16C134.819 42.8133 135.445 42.3467 135.899 41.76L140.219 44.32C139.285 45.68 138.072 46.72 136.579 47.44C135.112 48.16 133.419 48.52 131.499 48.52C129.339 48.52 127.432 48.0667 125.779 47.16C124.125 46.2267 122.845 44.96 121.939 43.36C121.032 41.76 120.579 39.9733 120.579 38C120.579 36.0267 121.019 34.24 121.899 32.64C122.805 31.04 124.059 29.7867 125.659 28.88C127.259 27.9467 129.085 27.48 131.139 27.48ZM135.859 35.6C135.672 34.5867 135.139 33.8 134.259 33.24C133.405 32.68 132.352 32.4 131.099 32.4C129.792 32.4 128.659 32.72 127.699 33.36C126.739 33.9733 126.232 34.72 126.179 35.6H135.859ZM159.478 28H165.158V48H159.478V46.48C158.598 47.1467 157.624 47.6533 156.558 48C155.518 48.3733 154.464 48.56 153.398 48.56C151.318 48.56 149.518 48.1067 147.998 47.2C146.504 46.2933 145.358 45.0533 144.558 43.48C143.758 41.88 143.358 40.0667 143.358 38.04C143.358 36.0133 143.758 34.2 144.558 32.6C145.358 30.9733 146.504 29.7067 147.998 28.8C149.518 27.8933 151.318 27.44 153.398 27.44C154.491 27.44 155.558 27.6267 156.598 28C157.638 28.3733 158.598 28.8933 159.478 29.56V28ZM154.158 43.12C155.651 43.12 156.904 42.64 157.918 41.68C158.931 40.72 159.438 39.48 159.438 37.96C159.438 36.4933 158.931 35.2933 157.918 34.36C156.904 33.4267 155.651 32.96 154.158 32.96C152.664 32.96 151.438 33.4267 150.478 34.36C149.518 35.2933 149.038 36.52 149.038 38.04C149.038 39.56 149.518 40.7867 150.478 41.72C151.438 42.6533 152.664 43.12 154.158 43.12ZM175.23 41.68C175.23 42.1067 175.324 42.4133 175.51 42.6C175.724 42.7867 176.07 42.88 176.55 42.88C176.897 42.88 177.31 42.84 177.79 42.76V48C176.484 48.1867 175.47 48.28 174.75 48.28C173.017 48.28 171.71 47.8267 170.83 46.92C169.95 45.9867 169.51 44.36 169.51 42.04V20H175.23V41.68ZM201.139 48.6C199.219 48.6 197.445 48.1333 195.819 47.2C194.219 46.24 192.939 44.9467 191.979 43.32C191.045 41.6933 190.579 39.9333 190.579 38.04C190.579 36.12 191.045 34.36 191.979 32.76C192.939 31.1333 194.219 29.8533 195.819 28.92C197.445 27.96 199.219 27.48 201.139 27.48C203.032 27.48 204.779 27.96 206.379 28.92C208.005 29.8533 209.285 31.1333 210.219 32.76C211.179 34.36 211.659 36.12 211.659 38.04C211.659 39.9333 211.179 41.6933 210.219 43.32C209.285 44.9467 208.005 46.24 206.379 47.2C204.779 48.1333 203.032 48.6 201.139 48.6ZM201.099 42.88C202.432 42.88 203.579 42.4133 204.539 41.48C205.499 40.52 205.979 39.3733 205.979 38.04C205.979 36.7067 205.499 35.56 204.539 34.6C203.579 33.64 202.432 33.16 201.099 33.16C199.765 33.16 198.619 33.64 197.659 34.6C196.725 35.56 196.259 36.7067 196.259 38.04C196.259 39.3733 196.725 40.52 197.659 41.48C198.619 42.4133 199.765 42.88 201.099 42.88ZM227.227 27.6L226.827 33C226.64 32.92 226.333 32.88 225.907 32.88C224.28 32.88 222.947 33.3467 221.907 34.28C220.893 35.1867 220.387 36.3867 220.387 37.88V48H214.667V28H220.387V31.24C220.867 30.2 221.64 29.3333 222.707 28.64C223.773 27.9467 225.067 27.6 226.587 27.6H227.227ZM257.125 35.96V20H263.125V48H258.045L246.845 30.48V48H240.845V20H246.845L257.125 35.96ZM277.779 48.6C275.859 48.6 274.086 48.1333 272.459 47.2C270.859 46.24 269.579 44.9467 268.619 43.32C267.686 41.6933 267.219 39.9333 267.219 38.04C267.219 36.12 267.686 34.36 268.619 32.76C269.579 31.1333 270.859 29.8533 272.459 28.92C274.086 27.96 275.859 27.48 277.779 27.48C279.673 27.48 281.419 27.96 283.019 28.92C284.646 29.8533 285.926 31.1333 286.859 32.76C287.819 34.36 288.299 36.12 288.299 38.04C288.299 39.9333 287.819 41.6933 286.859 43.32C285.926 44.9467 284.646 46.24 283.019 47.2C281.419 48.1333 279.673 48.6 277.779 48.6ZM277.739 42.88C279.073 42.88 280.219 42.4133 281.179 41.48C282.139 40.52 282.619 39.3733 282.619 38.04C282.619 36.7067 282.139 35.56 281.179 34.6C280.219 33.64 279.073 33.16 277.739 33.16C276.406 33.16 275.259 33.64 274.299 34.6C273.366 35.56 272.899 36.7067 272.899 38.04C272.899 39.3733 273.366 40.52 274.299 41.48C275.259 42.4133 276.406 42.88 277.739 42.88ZM314.083 20C316.696 20 319.096 20.6267 321.283 21.88C323.496 23.1067 325.243 24.8 326.523 26.96C327.829 29.0933 328.483 31.4667 328.483 34.08C328.483 36.6933 327.843 39.0667 326.563 41.2C325.283 43.3067 323.536 44.9733 321.323 46.2C319.109 47.4 316.696 48 314.083 48H302.603V20H314.083ZM314.083 42.28C315.603 42.28 317.003 41.92 318.283 41.2C319.589 40.4533 320.616 39.4533 321.363 38.2C322.109 36.9467 322.483 35.56 322.483 34.04C322.483 32.52 322.109 31.12 321.363 29.84C320.616 28.56 319.589 27.5467 318.283 26.8C317.003 26.0533 315.603 25.68 314.083 25.68H308.603V42.28H314.083ZM341.022 27.48C342.968 27.48 344.702 27.9467 346.222 28.88C347.768 29.8133 348.968 31.08 349.822 32.68C350.675 34.28 351.102 36.0533 351.102 38C351.102 38.7467 351.048 39.4267 350.942 40.04H336.142C336.648 41.2667 337.328 42.1867 338.182 42.8C339.035 43.3867 340.142 43.68 341.502 43.68C342.328 43.68 343.128 43.5067 343.902 43.16C344.702 42.8133 345.328 42.3467 345.782 41.76L350.102 44.32C349.168 45.68 347.955 46.72 346.462 47.44C344.995 48.16 343.302 48.52 341.382 48.52C339.222 48.52 337.315 48.0667 335.662 47.16C334.008 46.2267 332.728 44.96 331.822 43.36C330.915 41.76 330.462 39.9733 330.462 38C330.462 36.0267 330.902 34.24 331.782 32.64C332.688 31.04 333.942 29.7867 335.542 28.88C337.142 27.9467 338.968 27.48 341.022 27.48ZM345.742 35.6C345.555 34.5867 345.022 33.8 344.142 33.24C343.288 32.68 342.235 32.4 340.982 32.4C339.675 32.4 338.542 32.72 337.582 33.36C336.622 33.9733 336.115 34.72 336.062 35.6H345.742ZM369.361 28H375.041V48H369.361V46.48C368.481 47.1467 367.507 47.6533 366.441 48C365.401 48.3733 364.347 48.56 363.281 48.56C361.201 48.56 359.401 48.1067 357.881 47.2C356.387 46.2933 355.241 45.0533 354.441 43.48C353.641 41.88 353.241 40.0667 353.241 38.04C353.241 36.0133 353.641 34.2 354.441 32.6C355.241 30.9733 356.387 29.7067 357.881 28.8C359.401 27.8933 361.201 27.44 363.281 27.44C364.374 27.44 365.441 27.6267 366.481 28C367.521 28.3733 368.481 28.8933 369.361 29.56V28ZM364.041 43.12C365.534 43.12 366.787 42.64 367.801 41.68C368.814 40.72 369.321 39.48 369.321 37.96C369.321 36.4933 368.814 35.2933 367.801 34.36C366.787 33.4267 365.534 32.96 364.041 32.96C362.547 32.96 361.321 33.4267 360.361 34.36C359.401 35.2933 358.921 36.52 358.921 38.04C358.921 39.56 359.401 40.7867 360.361 41.72C361.321 42.6533 362.547 43.12 364.041 43.12ZM385.113 41.68C385.113 42.1067 385.206 42.4133 385.393 42.6C385.606 42.7867 385.953 42.88 386.433 42.88C386.78 42.88 387.193 42.84 387.673 42.76V48C386.366 48.1867 385.353 48.28 384.633 48.28C382.9 48.28 381.593 47.8267 380.713 46.92C379.833 45.9867 379.393 44.36 379.393 42.04V20H385.113V41.68ZM407.262 51.76C405.262 49.6533 403.662 46.9867 402.462 43.76C401.288 40.5333 400.702 37.3067 400.702 34.08C400.702 30.8533 401.288 27.6267 402.462 24.4C403.662 21.1467 405.262 18.48 407.262 16.4L410.822 19.12C409.408 21.6533 408.382 24.08 407.742 26.4C407.128 28.6933 406.822 31.2533 406.822 34.08C406.822 36.9067 407.128 39.48 407.742 41.8C408.382 44.12 409.408 46.5067 410.822 48.96L407.262 51.76ZM425.723 20C428.337 20 430.737 20.6267 432.923 21.88C435.137 23.1067 436.883 24.8 438.163 26.96C439.47 29.0933 440.123 31.4667 440.123 34.08C440.123 36.6933 439.483 39.0667 438.203 41.2C436.923 43.3067 435.177 44.9733 432.963 46.2C430.75 47.4 428.337 48 425.723 48H414.243V20H425.723ZM425.723 42.28C427.243 42.28 428.643 41.92 429.923 41.2C431.23 40.4533 432.257 39.4533 433.003 38.2C433.75 36.9467 434.123 35.56 434.123 34.04C434.123 32.52 433.75 31.12 433.003 29.84C432.257 28.56 431.23 27.5467 429.923 26.8C428.643 26.0533 427.243 25.68 425.723 25.68H420.243V42.28H425.723ZM456.426 48.56C453.813 48.56 451.399 47.9067 449.186 46.6C446.973 45.2933 445.213 43.5333 443.906 41.32C442.626 39.1067 441.986 36.6933 441.986 34.08C441.986 31.4667 442.626 29.0533 443.906 26.84C445.213 24.6267 446.973 22.88 449.186 21.6C451.399 20.2933 453.813 19.64 456.426 19.64C459.039 19.64 461.453 20.2933 463.666 21.6C465.879 22.88 467.626 24.6267 468.906 26.84C470.213 29.0533 470.866 31.4667 470.866 34.08C470.866 36.6933 470.213 39.1067 468.906 41.32C467.626 43.5333 465.879 45.2933 463.666 46.6C461.453 47.9067 459.039 48.56 456.426 48.56ZM456.426 42.52C457.946 42.52 459.346 42.1467 460.626 41.4C461.933 40.6267 462.959 39.6 463.706 38.32C464.479 37.0133 464.866 35.6 464.866 34.08C464.866 32.56 464.479 31.16 463.706 29.88C462.959 28.6 461.933 27.5867 460.626 26.84C459.346 26.0667 457.946 25.68 456.426 25.68C454.906 25.68 453.493 26.0533 452.186 26.8C450.906 27.5467 449.893 28.5733 449.146 29.88C448.399 31.16 448.026 32.56 448.026 34.08C448.026 35.6 448.399 37.0133 449.146 38.32C449.919 39.6 450.946 40.6267 452.226 41.4C453.506 42.1467 454.906 42.52 456.426 42.52ZM490.484 35.96V20H496.484V48H491.404L480.204 30.48V48H474.204V20H480.204L490.484 35.96ZM513.419 20C516.032 20 518.432 20.6267 520.619 21.88C522.832 23.1067 524.579 24.8 525.859 26.96C527.165 29.0933 527.819 31.4667 527.819 34.08C527.819 36.6933 527.179 39.0667 525.899 41.2C524.619 43.3067 522.872 44.9733 520.659 46.2C518.445 47.4 516.032 48 513.419 48H501.939V20H513.419ZM513.419 42.28C514.939 42.28 516.339 41.92 517.619 41.2C518.925 40.4533 519.952 39.4533 520.699 38.2C521.445 36.9467 521.819 35.56 521.819 34.04C521.819 32.52 521.445 31.12 520.699 29.84C519.952 28.56 518.925 27.5467 517.619 26.8C516.339 26.0533 514.939 25.68 513.419 25.68H507.939V42.28H513.419ZM533.539 16.4C535.539 18.48 537.125 21.1467 538.299 24.4C539.499 27.6267 540.099 30.8533 540.099 34.08C540.099 37.3067 539.499 40.5333 538.299 43.76C537.125 46.9867 535.539 49.6533 533.539 51.76L529.979 48.96C531.392 46.5067 532.405 44.12 533.019 41.8C533.659 39.48 533.979 36.9067 533.979 34.08C533.979 31.2533 533.659 28.6933 533.019 26.4C532.405 24.08 531.392 21.6533 529.979 19.12L533.539 16.4ZM562.714 40.72H553.114V35.92H562.714V40.72ZM586.301 48.52C583.527 48.52 581.194 47.9067 579.301 46.68C577.434 45.4533 576.114 43.7867 575.341 41.68L580.421 38.72C580.954 40.0533 581.701 41.04 582.661 41.68C583.647 42.32 584.914 42.64 586.461 42.64C587.714 42.64 588.674 42.3467 589.341 41.76C590.034 41.1733 590.381 40.52 590.381 39.8C590.381 39.2667 590.221 38.8133 589.901 38.44C589.581 38.0667 589.034 37.72 588.261 37.4C587.487 37.0533 586.367 36.6667 584.901 36.24C582.341 35.4933 580.301 34.48 578.781 33.2C577.261 31.92 576.501 30.0933 576.501 27.72C576.501 26.04 576.914 24.5867 577.741 23.36C578.594 22.1067 579.714 21.1467 581.101 20.48C582.514 19.8133 584.034 19.48 585.661 19.48C587.927 19.48 589.914 20.0267 591.621 21.12C593.327 22.1867 594.661 23.7067 595.621 25.68L590.421 28.64C589.914 27.52 589.274 26.7067 588.501 26.2C587.727 25.6667 586.781 25.4 585.661 25.4C584.807 25.4 584.074 25.64 583.461 26.12C582.847 26.5733 582.541 27.1067 582.541 27.72C582.541 28.2267 582.661 28.6667 582.901 29.04C583.167 29.3867 583.634 29.72 584.301 30.04C584.994 30.36 586.007 30.72 587.341 31.12C589.127 31.68 590.661 32.3067 591.941 33C593.247 33.6667 594.314 34.5867 595.141 35.76C595.994 36.9333 596.421 38.4 596.421 40.16C596.421 41.84 595.981 43.32 595.101 44.6C594.221 45.8533 593.007 46.8267 591.461 47.52C589.941 48.1867 588.221 48.52 586.301 48.52ZM612.256 28H617.976V48H612.256V46.64C610.736 47.92 609.123 48.56 607.416 48.56C606.243 48.56 605.056 48.3067 603.856 47.8C602.656 47.2933 601.63 46.4 600.776 45.12C599.923 43.84 599.496 42.12 599.496 39.96V28H605.216V39.96C605.216 41.2133 605.576 42.1333 606.296 42.72C607.016 43.28 607.87 43.56 608.856 43.56C609.816 43.56 610.616 43.2133 611.256 42.52C611.923 41.8267 612.256 40.72 612.256 39.2V28ZM645.99 27.44C647.163 27.44 648.35 27.6933 649.55 28.2C650.75 28.7067 651.776 29.6 652.63 30.88C653.483 32.16 653.91 33.88 653.91 36.04V48H648.23V36.04C648.23 34.76 647.87 33.84 647.15 33.28C646.43 32.72 645.576 32.44 644.59 32.44C643.763 32.44 643.043 32.6933 642.43 33.2C641.843 33.68 641.456 34.44 641.27 35.48V36.04V48H635.55V36.04C635.55 34.76 635.19 33.84 634.47 33.28C633.75 32.72 632.896 32.44 631.91 32.44C631.083 32.44 630.363 32.6933 629.75 33.2C629.136 33.7067 628.75 34.52 628.59 35.64V48H622.87V28H628.59V29.28C630.056 28.0533 631.643 27.44 633.35 27.44C634.523 27.44 635.71 27.6933 636.91 28.2C638.136 28.7067 639.136 29.5467 639.91 30.72C640.603 29.7867 641.483 29.0133 642.55 28.4C643.616 27.76 644.763 27.44 645.99 27.44ZM680.755 27.44C681.929 27.44 683.115 27.6933 684.315 28.2C685.515 28.7067 686.542 29.6 687.395 30.88C688.249 32.16 688.675 33.88 688.675 36.04V48H682.995V36.04C682.995 34.76 682.635 33.84 681.915 33.28C681.195 32.72 680.342 32.44 679.355 32.44C678.529 32.44 677.809 32.6933 677.195 33.2C676.609 33.68 676.222 34.44 676.035 35.48V36.04V48H670.315V36.04C670.315 34.76 669.955 33.84 669.235 33.28C668.515 32.72 667.662 32.44 666.675 32.44C665.849 32.44 665.129 32.6933 664.515 33.2C663.902 33.7067 663.515 34.52 663.355 35.64V48H657.635V28H663.355V29.28C664.822 28.0533 666.409 27.44 668.115 27.44C669.289 27.44 670.475 27.6933 671.675 28.2C672.902 28.7067 673.902 29.5467 674.675 30.72C675.369 29.7867 676.249 29.0133 677.315 28.4C678.382 27.76 679.529 27.44 680.755 27.44ZM701.881 27.48C703.828 27.48 705.561 27.9467 707.081 28.88C708.628 29.8133 709.828 31.08 710.681 32.68C711.534 34.28 711.961 36.0533 711.961 38C711.961 38.7467 711.908 39.4267 711.801 40.04H697.001C697.508 41.2667 698.188 42.1867 699.041 42.8C699.894 43.3867 701.001 43.68 702.361 43.68C703.188 43.68 703.988 43.5067 704.761 43.16C705.561 42.8133 706.188 42.3467 706.641 41.76L710.961 44.32C710.028 45.68 708.814 46.72 707.321 47.44C705.854 48.16 704.161 48.52 702.241 48.52C700.081 48.52 698.174 48.0667 696.521 47.16C694.868 46.2267 693.588 44.96 692.681 43.36C691.774 41.76 691.321 39.9733 691.321 38C691.321 36.0267 691.761 34.24 692.641 32.64C693.548 31.04 694.801 29.7867 696.401 28.88C698.001 27.9467 699.828 27.48 701.881 27.48ZM706.601 35.6C706.414 34.5867 705.881 33.8 705.001 33.24C704.148 32.68 703.094 32.4 701.841 32.4C700.534 32.4 699.401 32.72 698.441 33.36C697.481 33.9733 696.974 34.72 696.921 35.6H706.601ZM727.5 27.6L727.1 33C726.913 32.92 726.607 32.88 726.18 32.88C724.553 32.88 723.22 33.3467 722.18 34.28C721.167 35.1867 720.66 36.3867 720.66 37.88V48H714.94V28H720.66V31.24C721.14 30.2 721.913 29.3333 722.98 28.64C724.047 27.9467 725.34 27.6 726.86 27.6H727.5ZM739.798 34.08C739.798 31.4667 740.438 29.0533 741.718 26.84C743.025 24.6267 744.785 22.88 746.998 21.6C749.212 20.2933 751.625 19.64 754.238 19.64C756.905 19.64 759.372 20.3333 761.638 21.72C763.905 23.1067 765.665 24.9333 766.918 27.2L761.638 30.04C760.892 28.7067 759.865 27.6533 758.558 26.88C757.252 26.08 755.812 25.68 754.238 25.68C752.718 25.68 751.305 26.0533 749.998 26.8C748.718 27.5467 747.705 28.5733 746.958 29.88C746.212 31.16 745.838 32.56 745.838 34.08C745.838 35.6 746.212 37.0133 746.958 38.32C747.732 39.6 748.758 40.6267 750.038 41.4C751.318 42.1467 752.718 42.52 754.238 42.52C755.812 42.52 757.265 42.12 758.598 41.32C759.932 40.4933 760.958 39.4 761.678 38.04L766.998 40.92C765.745 43.2133 763.972 45.0667 761.678 46.48C759.412 47.8667 756.932 48.56 754.238 48.56C751.625 48.56 749.212 47.9067 746.998 46.6C744.785 45.2933 743.025 43.5333 741.718 41.32C740.438 39.1067 739.798 36.6933 739.798 34.08ZM778.912 48.6C776.992 48.6 775.219 48.1333 773.592 47.2C771.992 46.24 770.712 44.9467 769.752 43.32C768.819 41.6933 768.352 39.9333 768.352 38.04C768.352 36.12 768.819 34.36 769.752 32.76C770.712 31.1333 771.992 29.8533 773.592 28.92C775.219 27.96 776.992 27.48 778.912 27.48C780.806 27.48 782.552 27.96 784.152 28.92C785.779 29.8533 787.059 31.1333 787.992 32.76C788.952 34.36 789.432 36.12 789.432 38.04C789.432 39.9333 788.952 41.6933 787.992 43.32C787.059 44.9467 785.779 46.24 784.152 47.2C782.552 48.1333 780.806 48.6 778.912 48.6ZM778.872 42.88C780.206 42.88 781.352 42.4133 782.312 41.48C783.272 40.52 783.752 39.3733 783.752 38.04C783.752 36.7067 783.272 35.56 782.312 34.6C781.352 33.64 780.206 33.16 778.872 33.16C777.539 33.16 776.392 33.64 775.432 34.6C774.499 35.56 774.032 36.7067 774.032 38.04C774.032 39.3733 774.499 40.52 775.432 41.48C776.392 42.4133 777.539 42.88 778.872 42.88ZM810.84 48H805.12V36.2C805.12 34.92 804.76 34 804.04 33.44C803.32 32.8533 802.467 32.56 801.48 32.56C800.653 32.56 799.933 32.8267 799.32 33.36C798.707 33.8667 798.32 34.6667 798.16 35.76V48H792.44V20H798.16V29.44C799.627 28.2133 801.213 27.6 802.92 27.6C804.067 27.6 805.227 27.8533 806.4 28.36C807.6 28.84 808.627 29.7067 809.48 30.96C810.36 32.2133 810.813 33.9067 810.84 36.04V48ZM824.108 48.6C822.188 48.6 820.414 48.1333 818.788 47.2C817.188 46.24 815.908 44.9467 814.948 43.32C814.014 41.6933 813.548 39.9333 813.548 38.04C813.548 36.12 814.014 34.36 814.948 32.76C815.908 31.1333 817.188 29.8533 818.788 28.92C820.414 27.96 822.188 27.48 824.108 27.48C826.001 27.48 827.748 27.96 829.348 28.92C830.974 29.8533 832.254 31.1333 833.188 32.76C834.148 34.36 834.628 36.12 834.628 38.04C834.628 39.9333 834.148 41.6933 833.188 43.32C832.254 44.9467 830.974 46.24 829.348 47.2C827.748 48.1333 826.001 48.6 824.108 48.6ZM824.068 42.88C825.401 42.88 826.548 42.4133 827.508 41.48C828.468 40.52 828.948 39.3733 828.948 38.04C828.948 36.7067 828.468 35.56 827.508 34.6C826.548 33.64 825.401 33.16 824.068 33.16C822.734 33.16 821.588 33.64 820.628 34.6C819.694 35.56 819.228 36.7067 819.228 38.04C819.228 39.3733 819.694 40.52 820.628 41.48C821.588 42.4133 822.734 42.88 824.068 42.88ZM850.195 27.6L849.795 33C849.609 32.92 849.302 32.88 848.875 32.88C847.249 32.88 845.915 33.3467 844.875 34.28C843.862 35.1867 843.355 36.3867 843.355 37.88V48H837.635V28H843.355V31.24C843.835 30.2 844.609 29.3333 845.675 28.64C846.742 27.9467 848.035 27.6 849.555 27.6H850.195ZM861.872 40.88C861.872 41.6267 862.072 42.1467 862.472 42.44C862.899 42.7333 863.539 42.88 864.392 42.88C864.926 42.88 865.512 42.84 866.152 42.76V48C864.819 48.1333 863.712 48.2 862.832 48.2C860.592 48.2 858.912 47.7067 857.792 46.72C856.699 45.7067 856.152 43.88 856.152 41.24V33.08H852.712V28H856.152V23.36L861.872 21.44V28H866.072V33.08H861.872V40.88ZM886.884 36.6V42.28H898.244V48H880.884V20H898.004V25.68H886.884V30.88H897.044V36.6H886.884ZM910.49 40.92L915.17 28H921.21L913.93 48H907.01L899.73 28H905.77L910.49 40.92ZM932.076 27.48C934.023 27.48 935.756 27.9467 937.276 28.88C938.823 29.8133 940.023 31.08 940.876 32.68C941.73 34.28 942.156 36.0533 942.156 38C942.156 38.7467 942.103 39.4267 941.996 40.04H927.196C927.703 41.2667 928.383 42.1867 929.236 42.8C930.09 43.3867 931.196 43.68 932.556 43.68C933.383 43.68 934.183 43.5067 934.956 43.16C935.756 42.8133 936.383 42.3467 936.836 41.76L941.156 44.32C940.223 45.68 939.01 46.72 937.516 47.44C936.05 48.16 934.356 48.52 932.436 48.52C930.276 48.52 928.37 48.0667 926.716 47.16C925.063 46.2267 923.783 44.96 922.876 43.36C921.97 41.76 921.516 39.9733 921.516 38C921.516 36.0267 921.956 34.24 922.836 32.64C923.743 31.04 924.996 29.7867 926.596 28.88C928.196 27.9467 930.023 27.48 932.076 27.48ZM936.796 35.6C936.61 34.5867 936.076 33.8 935.196 33.24C934.343 32.68 933.29 32.4 932.036 32.4C930.73 32.4 929.596 32.72 928.636 33.36C927.676 33.9733 927.17 34.72 927.116 35.6H936.796ZM955.695 27.44C956.869 27.44 958.055 27.6933 959.255 28.2C960.455 28.7067 961.482 29.6 962.335 30.88C963.189 32.16 963.615 33.88 963.615 36.04V48H957.895V36.04C957.895 34.76 957.535 33.84 956.815 33.28C956.122 32.72 955.282 32.44 954.295 32.44C953.309 32.44 952.482 32.7867 951.815 33.48C951.175 34.1733 950.855 35.28 950.855 36.8V48H945.135V28H950.855V29.36C952.375 28.08 953.989 27.44 955.695 27.44ZM974.568 40.88C974.568 41.6267 974.768 42.1467 975.168 42.44C975.594 42.7333 976.234 42.88 977.088 42.88C977.621 42.88 978.208 42.84 978.848 42.76V48C977.514 48.1333 976.408 48.2 975.528 48.2C973.288 48.2 971.608 47.7067 970.488 46.72C969.394 45.7067 968.848 43.88 968.848 41.24V33.08H965.408V28H968.848V23.36L974.568 21.44V28H978.768V33.08H974.568V40.88ZM1003.02 48.52C1000.25 48.52 997.913 47.9067 996.019 46.68C994.153 45.4533 992.833 43.7867 992.059 41.68L997.139 38.72C997.673 40.0533 998.419 41.04 999.379 41.68C1000.37 42.32 1001.63 42.64 1003.18 42.64C1004.43 42.64 1005.39 42.3467 1006.06 41.76C1006.75 41.1733 1007.1 40.52 1007.1 39.8C1007.1 39.2667 1006.94 38.8133 1006.62 38.44C1006.3 38.0667 1005.75 37.72 1004.98 37.4C1004.21 37.0533 1003.09 36.6667 1001.62 36.24C999.059 35.4933 997.019 34.48 995.499 33.2C993.979 31.92 993.219 30.0933 993.219 27.72C993.219 26.04 993.633 24.5867 994.459 23.36C995.313 22.1067 996.433 21.1467 997.819 20.48C999.233 19.8133 1000.75 19.48 1002.38 19.48C1004.65 19.48 1006.63 20.0267 1008.34 21.12C1010.05 22.1867 1011.38 23.7067 1012.34 25.68L1007.14 28.64C1006.63 27.52 1005.99 26.7067 1005.22 26.2C1004.45 25.6667 1003.5 25.4 1002.38 25.4C1001.53 25.4 1000.79 25.64 1000.18 26.12C999.566 26.5733 999.259 27.1067 999.259 27.72C999.259 28.2267 999.379 28.6667 999.619 29.04C999.886 29.3867 1000.35 29.72 1001.02 30.04C1001.71 30.36 1002.73 30.72 1004.06 31.12C1005.85 31.68 1007.38 32.3067 1008.66 33C1009.97 33.6667 1011.03 34.5867 1011.86 35.76C1012.71 36.9333 1013.14 38.4 1013.14 40.16C1013.14 41.84 1012.7 43.32 1011.82 44.6C1010.94 45.8533 1009.73 46.8267 1008.18 47.52C1006.66 48.1867 1004.94 48.52 1003.02 48.52ZM1028.98 28H1034.7V48H1028.98V46.64C1027.46 47.92 1025.84 48.56 1024.14 48.56C1022.96 48.56 1021.78 48.3067 1020.58 47.8C1019.38 47.2933 1018.35 46.4 1017.5 45.12C1016.64 43.84 1016.22 42.12 1016.22 39.96V28H1021.94V39.96C1021.94 41.2133 1022.3 42.1333 1023.02 42.72C1023.74 43.28 1024.59 43.56 1025.58 43.56C1026.54 43.56 1027.34 43.2133 1027.98 42.52C1028.64 41.8267 1028.98 40.72 1028.98 39.2V28ZM1051.35 27.48C1053.43 27.48 1055.22 27.9333 1056.71 28.84C1058.23 29.7467 1059.39 31 1060.19 32.6C1060.99 34.1733 1061.39 35.9733 1061.39 38C1061.39 40.0267 1060.99 41.84 1060.19 43.44C1059.39 45.04 1058.23 46.3067 1056.71 47.24C1055.22 48.1467 1053.43 48.6 1051.35 48.6C1050.28 48.6 1049.23 48.4133 1048.19 48.04C1047.15 47.6933 1046.19 47.1867 1045.31 46.52V56H1039.59V28H1045.31V29.56C1046.19 28.8933 1047.14 28.3867 1048.15 28.04C1049.19 27.6667 1050.26 27.48 1051.35 27.48ZM1050.59 43.04C1052.08 43.04 1053.3 42.5867 1054.23 41.68C1055.19 40.7467 1055.67 39.52 1055.67 38C1055.67 36.48 1055.19 35.2533 1054.23 34.32C1053.3 33.3867 1052.08 32.92 1050.59 32.92C1049.1 32.92 1047.84 33.4 1046.83 34.36C1045.82 35.32 1045.31 36.5467 1045.31 38.04C1045.31 39.5333 1045.8 40.7467 1046.79 41.68C1047.8 42.5867 1049.07 43.04 1050.59 43.04ZM1076.43 27.48C1078.51 27.48 1080.29 27.9333 1081.79 28.84C1083.31 29.7467 1084.47 31 1085.27 32.6C1086.07 34.1733 1086.47 35.9733 1086.47 38C1086.47 40.0267 1086.07 41.84 1085.27 43.44C1084.47 45.04 1083.31 46.3067 1081.79 47.24C1080.29 48.1467 1078.51 48.6 1076.43 48.6C1075.36 48.6 1074.31 48.4133 1073.27 48.04C1072.23 47.6933 1071.27 47.1867 1070.39 46.52V56H1064.67V28H1070.39V29.56C1071.27 28.8933 1072.21 28.3867 1073.23 28.04C1074.27 27.6667 1075.33 27.48 1076.43 27.48ZM1075.67 43.04C1077.16 43.04 1078.37 42.5867 1079.31 41.68C1080.27 40.7467 1080.75 39.52 1080.75 38C1080.75 36.48 1080.27 35.2533 1079.31 34.32C1078.37 33.3867 1077.16 32.92 1075.67 32.92C1074.17 32.92 1072.92 33.4 1071.91 34.36C1070.89 35.32 1070.39 36.5467 1070.39 38.04C1070.39 39.5333 1070.88 40.7467 1071.87 41.68C1072.88 42.5867 1074.15 43.04 1075.67 43.04ZM1099.22 48.6C1097.3 48.6 1095.53 48.1333 1093.9 47.2C1092.3 46.24 1091.02 44.9467 1090.06 43.32C1089.13 41.6933 1088.66 39.9333 1088.66 38.04C1088.66 36.12 1089.13 34.36 1090.06 32.76C1091.02 31.1333 1092.3 29.8533 1093.9 28.92C1095.53 27.96 1097.3 27.48 1099.22 27.48C1101.12 27.48 1102.86 27.96 1104.46 28.92C1106.09 29.8533 1107.37 31.1333 1108.3 32.76C1109.26 34.36 1109.74 36.12 1109.74 38.04C1109.74 39.9333 1109.26 41.6933 1108.3 43.32C1107.37 44.9467 1106.09 46.24 1104.46 47.2C1102.86 48.1333 1101.12 48.6 1099.22 48.6ZM1099.18 42.88C1100.52 42.88 1101.66 42.4133 1102.62 41.48C1103.58 40.52 1104.06 39.3733 1104.06 38.04C1104.06 36.7067 1103.58 35.56 1102.62 34.6C1101.66 33.64 1100.52 33.16 1099.18 33.16C1097.85 33.16 1096.7 33.64 1095.74 34.6C1094.81 35.56 1094.34 36.7067 1094.34 38.04C1094.34 39.3733 1094.81 40.52 1095.74 41.48C1096.7 42.4133 1097.85 42.88 1099.18 42.88ZM1125.31 27.6L1124.91 33C1124.73 32.92 1124.42 32.88 1123.99 32.88C1122.37 32.88 1121.03 33.3467 1119.99 34.28C1118.98 35.1867 1118.47 36.3867 1118.47 37.88V48H1112.75V28H1118.47V31.24C1118.95 30.2 1119.73 29.3333 1120.79 28.64C1121.86 27.9467 1123.15 27.6 1124.67 27.6H1125.31ZM1136.99 40.88C1136.99 41.6267 1137.19 42.1467 1137.59 42.44C1138.02 42.7333 1138.66 42.88 1139.51 42.88C1140.04 42.88 1140.63 42.84 1141.27 42.76V48C1139.94 48.1333 1138.83 48.2 1137.95 48.2C1135.71 48.2 1134.03 47.7067 1132.91 46.72C1131.82 45.7067 1131.27 43.88 1131.27 41.24V33.08H1127.83V28H1131.27V23.36L1136.99 21.44V28H1141.19V33.08H1136.99V40.88Z" fill="#EAEAEA"/>
<path d="M47.2799 0.696279C48.8447 2.14924 50.8167 9.04855 51.562 11.3535C52.7262 14.9541 53.7031 17.8834 55.1769 21.3565C56.3528 24.1258 56.8354 28.5849 59.368 30.3786C61.016 31.5467 63.9727 32.0046 64.3929 34.5034C64.8351 37.1349 64.1522 39.8509 62.6576 42.0193C62.0723 42.8687 60.3201 44.3555 60.181 45.2348C59.6606 48.514 62.0306 51.9988 61.5403 55.3288C61.1955 57.6754 59.8844 58.7901 57.5443 57.799C56.8432 57.5024 56.2292 56.5242 55.2822 57.0016C53.9385 58.4389 55.4995 60.3498 53.8657 61.6844C53.0995 62.3113 52.163 62.3426 51.2095 62.0915C49.897 61.7468 49.2961 59.7137 47.6987 60.1937C47.1186 60.368 43.6416 64.5214 42.6725 65.3382C38.9627 68.4679 33.4878 70.8652 28.6268 69.4032C26.4233 68.7411 23.0191 65.9327 21.3034 64.3223C20.3343 63.4131 17.5728 59.9335 16.6362 59.633C14.6174 58.9866 14.5446 61.661 13.7849 62.4987C13.0734 63.2843 11.9079 63.2843 11.0611 62.7653C9.20882 61.6297 9.84489 57.7912 8.97208 57.5258C7.80398 57.1694 6.65019 60.7998 4.36733 59.144C3.07176 58.2035 3.09258 55.7997 3.18884 54.3558C3.41908 50.9244 5.74745 47.2874 3.56996 44.0368C1.61099 41.1113 -0.68617 40.3894 0.193153 36.1255C0.752486 33.412 3.24998 32.616 4.83042 30.8001C6.83101 28.5016 8.24884 24.6682 9.534 21.8846C11.8637 16.835 12.1499 12.0598 14.1804 7.01934C14.6109 5.95141 16.5374 1.68747 17.1474 1.04229C18.0411 0.0979235 19.0127 0.0237792 20.0716 0.739205C21.8302 1.92941 23.9453 8.41507 25.0665 10.5835C25.8327 12.065 26.9228 14.2334 28.7334 14.439C30.2111 14.6068 35.9605 14.6289 37.1807 14.1372C38.8092 13.4816 39.7406 9.67942 40.3936 8.20305C40.8228 7.23397 41.4888 6.38326 41.8934 5.4337C42.4943 4.02106 42.6075 2.22079 43.6039 1.04619C44.6003 -0.128411 46.0936 -0.408078 47.2812 0.693678L47.2799 0.696279ZM18.8189 8.99262C16.9029 9.4674 16.1185 14.7355 16.4307 16.3654C16.7286 17.9237 19.178 16.3875 20.0209 15.8984C21.9135 14.798 22.0045 14.8617 21.453 12.5697C21.2084 11.5564 20.1301 8.66742 18.8189 8.99131V8.99262ZM44.5535 9.41407C43.877 10.0619 42.8898 13.9108 43.172 14.8565C43.6169 16.3459 47.86 18.5312 48.327 16.9403C48.7068 15.6513 47.782 10.7669 46.8519 9.75877C46.3264 9.19033 45.144 8.84823 44.5535 9.41407ZM27.4131 49.3855C27.5276 44.3073 25.1056 34.48 19.6748 32.6303C15.3979 31.1734 12.7443 35.7222 12.3814 39.354C11.8897 44.2696 13.1983 48.7209 16.138 52.6193C19.0648 56.4982 24.3641 63.0268 28.6242 65.1418C34.0458 67.8344 38.9549 64.8439 42.3499 60.5436C47.3436 54.2179 52.8849 47.7609 52.2436 39.1185C51.8443 33.7385 47.2265 28.9075 42.5685 33.9428C39.0356 37.7618 37.5267 44.3242 37.1781 49.3855C37.0207 49.569 34.9823 48.1576 34.5934 48.0067C32.174 47.0637 30.6833 47.6607 28.5656 48.8106C28.1832 49.0187 27.9907 49.5312 27.4145 49.3855H27.4131Z" fill="white"/>
<path d="M27.4136 49.3852C27.9898 49.5309 28.1823 49.0184 28.5648 48.8102C30.6824 47.6604 32.1731 47.0633 34.5925 48.0064C34.9815 48.1573 37.0198 49.5699 37.1772 49.3852C37.5258 44.3239 39.0334 37.7615 42.5676 33.9424C47.2257 28.9071 51.8434 33.7382 52.2427 39.1182C52.8853 47.7605 47.3427 54.2176 42.3491 60.5432C38.954 64.8436 34.0462 67.8341 28.6233 65.1415C24.3632 63.0264 19.0639 56.4991 16.1372 52.6189C13.1961 48.7205 11.8888 44.2692 12.3805 39.3536C12.7434 35.7219 15.397 31.173 19.674 32.6299C25.1047 34.4796 27.5267 44.307 27.4123 49.3852H27.4136ZM21.2531 36.4165C19.9692 36.6116 19.5374 39.896 19.4788 40.9575C19.406 42.2726 19.5712 47.5953 21.4053 47.6812C22.7906 47.7449 23.268 45.0419 23.35 44.0104C23.4592 42.6212 23.6361 36.0549 21.2531 36.4165ZM43.6368 36.4152C43.2362 36.4906 43.0398 36.7287 42.829 37.0486C41.6909 38.7722 41.7169 45.133 42.8316 46.8903C43.7773 48.381 44.8049 47.5797 45.3252 46.2464C46.1382 44.1652 46.0927 39.4967 45.1509 37.4636C44.84 36.7924 44.5044 36.2513 43.6368 36.4152Z" fill="black"/>
<path d="M44.554 9.41392C45.1458 8.84808 46.3269 9.19019 46.8524 9.75863C47.7838 10.7667 48.7073 15.6511 48.3275 16.9402C47.8592 18.531 43.6174 16.3457 43.1725 14.8564C42.8903 13.9107 43.8776 10.0617 44.554 9.41392Z" fill="black"/>
<path d="M18.8181 8.99266C20.1292 8.66747 21.2076 11.5565 21.4521 12.5711C22.005 14.8631 21.9126 14.7993 20.02 15.8998C19.1771 16.3902 16.7277 17.9251 16.4298 16.3667C16.1177 14.7356 16.902 9.46744 18.8181 8.99396V8.99266Z" fill="black"/>
<path d="M43.6367 36.4152C44.5056 36.25 44.8399 36.7911 45.1508 37.4636C46.0939 39.4968 46.1381 44.1665 45.3251 46.2465C44.8048 47.5798 43.7772 48.381 42.8315 46.8904C41.7155 45.133 41.6895 38.7722 42.8289 37.0487C43.0397 36.7287 43.2361 36.492 43.6367 36.4152Z" fill="white"/>
<path d="M21.2527 36.4167C23.6357 36.0551 23.4601 42.6214 23.3495 44.0106C23.2676 45.0422 22.7902 47.7452 21.4048 47.6814C19.5694 47.5969 19.4056 42.2728 19.4784 40.9577C19.5369 39.8976 19.9688 36.6118 21.2527 36.4167Z" fill="white"/>
<path d="M28.429 54.4453L31.08 58.6039C31.4781 58.9447 32.014 59.8318 32.5837 59.7421L36.3625 54.95L36.0581 54.4453H28.4277H28.429Z" fill="white"/>
</svg>
