<svg width="1114" height="70" viewBox="0 0 1114 70" fill="none" xmlns="http://www.w3.org/2000/svg">
<path d="M104.2 20C106.813 20 109.213 20.6267 111.4 21.88C113.613 23.1067 115.36 24.8 116.64 26.96C117.947 29.0933 118.6 31.4667 118.6 34.08C118.6 36.6933 117.96 39.0667 116.68 41.2C115.4 43.3067 113.653 44.9733 111.44 46.2C109.227 47.4 106.813 48 104.2 48H92.72V20H104.2ZM104.2 42.28C105.72 42.28 107.12 41.92 108.4 41.2C109.707 40.4533 110.733 39.4533 111.48 38.2C112.227 36.9467 112.6 35.56 112.6 34.04C112.6 32.52 112.227 31.12 111.48 29.84C110.733 28.56 109.707 27.5467 108.4 26.8C107.12 26.0533 105.72 25.68 104.2 25.68H98.72V42.28H104.2ZM131.139 27.48C133.085 27.48 134.819 27.9467 136.339 28.88C137.885 29.8133 139.085 31.08 139.939 32.68C140.792 34.28 141.219 36.0533 141.219 38C141.219 38.7467 141.165 39.4267 141.059 40.04H126.259C126.765 41.2667 127.445 42.1867 128.299 42.8C129.152 43.3867 130.259 43.68 131.619 43.68C132.445 43.68 133.245 43.5067 134.019 43.16C134.819 42.8133 135.445 42.3467 135.899 41.76L140.219 44.32C139.285 45.68 138.072 46.72 136.579 47.44C135.112 48.16 133.419 48.52 131.499 48.52C129.339 48.52 127.432 48.0667 125.779 47.16C124.125 46.2267 122.845 44.96 121.939 43.36C121.032 41.76 120.579 39.9733 120.579 38C120.579 36.0267 121.019 34.24 121.899 32.64C122.805 31.04 124.059 29.7867 125.659 28.88C127.259 27.9467 129.085 27.48 131.139 27.48ZM135.859 35.6C135.672 34.5867 135.139 33.8 134.259 33.24C133.405 32.68 132.352 32.4 131.099 32.4C129.792 32.4 128.659 32.72 127.699 33.36C126.739 33.9733 126.232 34.72 126.179 35.6H135.859ZM159.478 28H165.158V48H159.478V46.48C158.598 47.1467 157.624 47.6533 156.558 48C155.518 48.3733 154.464 48.56 153.398 48.56C151.318 48.56 149.518 48.1067 147.998 47.2C146.504 46.2933 145.358 45.0533 144.558 43.48C143.758 41.88 143.358 40.0667 143.358 38.04C143.358 36.0133 143.758 34.2 144.558 32.6C145.358 30.9733 146.504 29.7067 147.998 28.8C149.518 27.8933 151.318 27.44 153.398 27.44C154.491 27.44 155.558 27.6267 156.598 28C157.638 28.3733 158.598 28.8933 159.478 29.56V28ZM154.158 43.12C155.651 43.12 156.904 42.64 157.918 41.68C158.931 40.72 159.438 39.48 159.438 37.96C159.438 36.4933 158.931 35.2933 157.918 34.36C156.904 33.4267 155.651 32.96 154.158 32.96C152.664 32.96 151.438 33.4267 150.478 34.36C149.518 35.2933 149.038 36.52 149.038 38.04C149.038 39.56 149.518 40.7867 150.478 41.72C151.438 42.6533 152.664 43.12 154.158 43.12ZM175.23 41.68C175.23 42.1067 175.324 42.4133 175.51 42.6C175.724 42.7867 176.07 42.88 176.55 42.88C176.897 42.88 177.31 42.84 177.79 42.76V48C176.484 48.1867 175.47 48.28 174.75 48.28C173.017 48.28 171.71 47.8267 170.83 46.92C169.95 45.9867 169.51 44.36 169.51 42.04V20H175.23V41.68ZM201.139 48.6C199.219 48.6 197.445 48.1333 195.819 47.2C194.219 46.24 192.939 44.9467 191.979 43.32C191.045 41.6933 190.579 39.9333 190.579 38.04C190.579 36.12 191.045 34.36 191.979 32.76C192.939 31.1333 194.219 29.8533 195.819 28.92C197.445 27.96 199.219 27.48 201.139 27.48C203.032 27.48 204.779 27.96 206.379 28.92C208.005 29.8533 209.285 31.1333 210.219 32.76C211.179 34.36 211.659 36.12 211.659 38.04C211.659 39.9333 211.179 41.6933 210.219 43.32C209.285 44.9467 208.005 46.24 206.379 47.2C204.779 48.1333 203.032 48.6 201.139 48.6ZM201.099 42.88C202.432 42.88 203.579 42.4133 204.539 41.48C205.499 40.52 205.979 39.3733 205.979 38.04C205.979 36.7067 205.499 35.56 204.539 34.6C203.579 33.64 202.432 33.16 201.099 33.16C199.765 33.16 198.619 33.64 197.659 34.6C196.725 35.56 196.259 36.7067 196.259 38.04C196.259 39.3733 196.725 40.52 197.659 41.48C198.619 42.4133 199.765 42.88 201.099 42.88ZM227.227 27.6L226.827 33C226.64 32.92 226.333 32.88 225.907 32.88C224.28 32.88 222.947 33.3467 221.907 34.28C220.893 35.1867 220.387 36.3867 220.387 37.88V48H214.667V28H220.387V31.24C220.867 30.2 221.64 29.3333 222.707 28.64C223.773 27.9467 225.067 27.6 226.587 27.6H227.227ZM257.125 35.96V20H263.125V48H258.045L246.845 30.48V48H240.845V20H246.845L257.125 35.96ZM277.779 48.6C275.859 48.6 274.086 48.1333 272.459 47.2C270.859 46.24 269.579 44.9467 268.619 43.32C267.686 41.6933 267.219 39.9333 267.219 38.04C267.219 36.12 267.686 34.36 268.619 32.76C269.579 31.1333 270.859 29.8533 272.459 28.92C274.086 27.96 275.859 27.48 277.779 27.48C279.673 27.48 281.419 27.96 283.019 28.92C284.646 29.8533 285.926 31.1333 286.859 32.76C287.819 34.36 288.299 36.12 288.299 38.04C288.299 39.9333 287.819 41.6933 286.859 43.32C285.926 44.9467 284.646 46.24 283.019 47.2C281.419 48.1333 279.673 48.6 277.779 48.6ZM277.739 42.88C279.073 42.88 280.219 42.4133 281.179 41.48C282.139 40.52 282.619 39.3733 282.619 38.04C282.619 36.7067 282.139 35.56 281.179 34.6C280.219 33.64 279.073 33.16 277.739 33.16C276.406 33.16 275.259 33.64 274.299 34.6C273.366 35.56 272.899 36.7067 272.899 38.04C272.899 39.3733 273.366 40.52 274.299 41.48C275.259 42.4133 276.406 42.88 277.739 42.88ZM314.083 20C316.696 20 319.096 20.6267 321.283 21.88C323.496 23.1067 325.243 24.8 326.523 26.96C327.829 29.0933 328.483 31.4667 328.483 34.08C328.483 36.6933 327.843 39.0667 326.563 41.2C325.283 43.3067 323.536 44.9733 321.323 46.2C319.109 47.4 316.696 48 314.083 48H302.603V20H314.083ZM314.083 42.28C315.603 42.28 317.003 41.92 318.283 41.2C319.589 40.4533 320.616 39.4533 321.363 38.2C322.109 36.9467 322.483 35.56 322.483 34.04C322.483 32.52 322.109 31.12 321.363 29.84C320.616 28.56 319.589 27.5467 318.283 26.8C317.003 26.0533 315.603 25.68 314.083 25.68H308.603V42.28H314.083ZM341.022 27.48C342.968 27.48 344.702 27.9467 346.222 28.88C347.768 29.8133 348.968 31.08 349.822 32.68C350.675 34.28 351.102 36.0533 351.102 38C351.102 38.7467 351.048 39.4267 350.942 40.04H336.142C336.648 41.2667 337.328 42.1867 338.182 42.8C339.035 43.3867 340.142 43.68 341.502 43.68C342.328 43.68 343.128 43.5067 343.902 43.16C344.702 42.8133 345.328 42.3467 345.782 41.76L350.102 44.32C349.168 45.68 347.955 46.72 346.462 47.44C344.995 48.16 343.302 48.52 341.382 48.52C339.222 48.52 337.315 48.0667 335.662 47.16C334.008 46.2267 332.728 44.96 331.822 43.36C330.915 41.76 330.462 39.9733 330.462 38C330.462 36.0267 330.902 34.24 331.782 32.64C332.688 31.04 333.942 29.7867 335.542 28.88C337.142 27.9467 338.968 27.48 341.022 27.48ZM345.742 35.6C345.555 34.5867 345.022 33.8 344.142 33.24C343.288 32.68 342.235 32.4 340.982 32.4C339.675 32.4 338.542 32.72 337.582 33.36C336.622 33.9733 336.115 34.72 336.062 35.6H345.742ZM369.361 28H375.041V48H369.361V46.48C368.481 47.1467 367.507 47.6533 366.441 48C365.401 48.3733 364.347 48.56 363.281 48.56C361.201 48.56 359.401 48.1067 357.881 47.2C356.387 46.2933 355.241 45.0533 354.441 43.48C353.641 41.88 353.241 40.0667 353.241 38.04C353.241 36.0133 353.641 34.2 354.441 32.6C355.241 30.9733 356.387 29.7067 357.881 28.8C359.401 27.8933 361.201 27.44 363.281 27.44C364.374 27.44 365.441 27.6267 366.481 28C367.521 28.3733 368.481 28.8933 369.361 29.56V28ZM364.041 43.12C365.534 43.12 366.787 42.64 367.801 41.68C368.814 40.72 369.321 39.48 369.321 37.96C369.321 36.4933 368.814 35.2933 367.801 34.36C366.787 33.4267 365.534 32.96 364.041 32.96C362.547 32.96 361.321 33.4267 360.361 34.36C359.401 35.2933 358.921 36.52 358.921 38.04C358.921 39.56 359.401 40.7867 360.361 41.72C361.321 42.6533 362.547 43.12 364.041 43.12ZM385.113 41.68C385.113 42.1067 385.206 42.4133 385.393 42.6C385.606 42.7867 385.953 42.88 386.433 42.88C386.78 42.88 387.193 42.84 387.673 42.76V48C386.366 48.1867 385.353 48.28 384.633 48.28C382.9 48.28 381.593 47.8267 380.713 46.92C379.833 45.9867 379.393 44.36 379.393 42.04V20H385.113V41.68ZM407.262 51.76C405.262 49.6533 403.662 46.9867 402.462 43.76C401.288 40.5333 400.702 37.3067 400.702 34.08C400.702 30.8533 401.288 27.6267 402.462 24.4C403.662 21.1467 405.262 18.48 407.262 16.4L410.822 19.12C409.408 21.6533 408.382 24.08 407.742 26.4C407.128 28.6933 406.822 31.2533 406.822 34.08C406.822 36.9067 407.128 39.48 407.742 41.8C408.382 44.12 409.408 46.5067 410.822 48.96L407.262 51.76ZM425.723 20C428.337 20 430.737 20.6267 432.923 21.88C435.137 23.1067 436.883 24.8 438.163 26.96C439.47 29.0933 440.123 31.4667 440.123 34.08C440.123 36.6933 439.483 39.0667 438.203 41.2C436.923 43.3067 435.177 44.9733 432.963 46.2C430.75 47.4 428.337 48 425.723 48H414.243V20H425.723ZM425.723 42.28C427.243 42.28 428.643 41.92 429.923 41.2C431.23 40.4533 432.257 39.4533 433.003 38.2C433.75 36.9467 434.123 35.56 434.123 34.04C434.123 32.52 433.75 31.12 433.003 29.84C432.257 28.56 431.23 27.5467 429.923 26.8C428.643 26.0533 427.243 25.68 425.723 25.68H420.243V42.28H425.723ZM456.426 48.56C453.813 48.56 451.399 47.9067 449.186 46.6C446.973 45.2933 445.213 43.5333 443.906 41.32C442.626 39.1067 441.986 36.6933 441.986 34.08C441.986 31.4667 442.626 29.0533 443.906 26.84C445.213 24.6267 446.973 22.88 449.186 21.6C451.399 20.2933 453.813 19.64 456.426 19.64C459.039 19.64 461.453 20.2933 463.666 21.6C465.879 22.88 467.626 24.6267 468.906 26.84C470.213 29.0533 470.866 31.4667 470.866 34.08C470.866 36.6933 470.213 39.1067 468.906 41.32C467.626 43.5333 465.879 45.2933 463.666 46.6C461.453 47.9067 459.039 48.56 456.426 48.56ZM456.426 42.52C457.946 42.52 459.346 42.1467 460.626 41.4C461.933 40.6267 462.959 39.6 463.706 38.32C464.479 37.0133 464.866 35.6 464.866 34.08C464.866 32.56 464.479 31.16 463.706 29.88C462.959 28.6 461.933 27.5867 460.626 26.84C459.346 26.0667 457.946 25.68 456.426 25.68C454.906 25.68 453.493 26.0533 452.186 26.8C450.906 27.5467 449.893 28.5733 449.146 29.88C448.399 31.16 448.026 32.56 448.026 34.08C448.026 35.6 448.399 37.0133 449.146 38.32C449.919 39.6 450.946 40.6267 452.226 41.4C453.506 42.1467 454.906 42.52 456.426 42.52ZM490.484 35.96V20H496.484V48H491.404L480.204 30.48V48H474.204V20H480.204L490.484 35.96ZM513.419 20C516.032 20 518.432 20.6267 520.619 21.88C522.832 23.1067 524.579 24.8 525.859 26.96C527.165 29.0933 527.819 31.4667 527.819 34.08C527.819 36.6933 527.179 39.0667 525.899 41.2C524.619 43.3067 522.872 44.9733 520.659 46.2C518.445 47.4 516.032 48 513.419 48H501.939V20H513.419ZM513.419 42.28C514.939 42.28 516.339 41.92 517.619 41.2C518.925 40.4533 519.952 39.4533 520.699 38.2C521.445 36.9467 521.819 35.56 521.819 34.04C521.819 32.52 521.445 31.12 520.699 29.84C519.952 28.56 518.925 27.5467 517.619 26.8C516.339 26.0533 514.939 25.68 513.419 25.68H507.939V42.28H513.419ZM533.539 16.4C535.539 18.48 537.125 21.1467 538.299 24.4C539.499 27.6267 540.099 30.8533 540.099 34.08C540.099 37.3067 539.499 40.5333 538.299 43.76C537.125 46.9867 535.539 49.6533 533.539 51.76L529.979 48.96C531.392 46.5067 532.405 44.12 533.019 41.8C533.659 39.48 533.979 36.9067 533.979 34.08C533.979 31.2533 533.659 28.6933 533.019 26.4C532.405 24.08 531.392 21.6533 529.979 19.12L533.539 16.4ZM562.714 40.72H553.114V35.92H562.714V40.72ZM602.581 38.32L607.381 20H613.621L605.941 48H599.501L594.221 30.32L588.901 48H582.461L574.781 20H581.021L585.821 38.32L591.061 20H597.341L602.581 38.32ZM618.877 25.28C617.81 25.28 616.97 25 616.357 24.44C615.77 23.8533 615.477 23.0667 615.477 22.08C615.477 21.0667 615.77 20.2667 616.357 19.68C616.97 19.0933 617.81 18.8 618.877 18.8C619.917 18.8 620.743 19.0933 621.357 19.68C621.97 20.2667 622.277 21.0667 622.277 22.08C622.277 23.0667 621.97 23.8533 621.357 24.44C620.743 25 619.917 25.28 618.877 25.28ZM615.997 48V28H621.717V48H615.997ZM636.984 27.44C638.158 27.44 639.344 27.6933 640.544 28.2C641.744 28.7067 642.771 29.6 643.624 30.88C644.478 32.16 644.904 33.88 644.904 36.04V48H639.184V36.04C639.184 34.76 638.824 33.84 638.104 33.28C637.411 32.72 636.571 32.44 635.584 32.44C634.598 32.44 633.771 32.7867 633.104 33.48C632.464 34.1733 632.144 35.28 632.144 36.8V48H626.424V28H632.144V29.36C633.664 28.08 635.278 27.44 636.984 27.44ZM655.857 40.88C655.857 41.6267 656.057 42.1467 656.457 42.44C656.883 42.7333 657.523 42.88 658.377 42.88C658.91 42.88 659.497 42.84 660.137 42.76V48C658.803 48.1333 657.697 48.2 656.817 48.2C654.577 48.2 652.897 47.7067 651.777 46.72C650.683 45.7067 650.137 43.88 650.137 41.24V33.08H646.697V28H650.137V23.36L655.857 21.44V28H660.057V33.08H655.857V40.88ZM672.818 27.48C674.765 27.48 676.498 27.9467 678.018 28.88C679.565 29.8133 680.765 31.08 681.618 32.68C682.472 34.28 682.898 36.0533 682.898 38C682.898 38.7467 682.845 39.4267 682.738 40.04H667.938C668.445 41.2667 669.125 42.1867 669.978 42.8C670.832 43.3867 671.938 43.68 673.298 43.68C674.125 43.68 674.925 43.5067 675.698 43.16C676.498 42.8133 677.125 42.3467 677.578 41.76L681.898 44.32C680.965 45.68 679.752 46.72 678.258 47.44C676.792 48.16 675.098 48.52 673.178 48.52C671.018 48.52 669.112 48.0667 667.458 47.16C665.805 46.2267 664.525 44.96 663.618 43.36C662.712 41.76 662.258 39.9733 662.258 38C662.258 36.0267 662.698 34.24 663.578 32.64C664.485 31.04 665.738 29.7867 667.338 28.88C668.938 27.9467 670.765 27.48 672.818 27.48ZM677.538 35.6C677.352 34.5867 676.818 33.8 675.938 33.24C675.085 32.68 674.032 32.4 672.778 32.4C671.472 32.4 670.338 32.72 669.378 33.36C668.418 33.9733 667.912 34.72 667.858 35.6H677.538ZM698.438 27.6L698.038 33C697.851 32.92 697.544 32.88 697.118 32.88C695.491 32.88 694.158 33.3467 693.118 34.28C692.104 35.1867 691.598 36.3867 691.598 37.88V48H685.878V28H691.598V31.24C692.078 30.2 692.851 29.3333 693.918 28.64C694.984 27.9467 696.278 27.6 697.798 27.6H698.438ZM710.736 34.08C710.736 31.4667 711.376 29.0533 712.656 26.84C713.963 24.6267 715.723 22.88 717.936 21.6C720.149 20.2933 722.563 19.64 725.176 19.64C727.843 19.64 730.309 20.3333 732.576 21.72C734.843 23.1067 736.603 24.9333 737.856 27.2L732.576 30.04C731.829 28.7067 730.803 27.6533 729.496 26.88C728.189 26.08 726.749 25.68 725.176 25.68C723.656 25.68 722.243 26.0533 720.936 26.8C719.656 27.5467 718.643 28.5733 717.896 29.88C717.149 31.16 716.776 32.56 716.776 34.08C716.776 35.6 717.149 37.0133 717.896 38.32C718.669 39.6 719.696 40.6267 720.976 41.4C722.256 42.1467 723.656 42.52 725.176 42.52C726.749 42.52 728.203 42.12 729.536 41.32C730.869 40.4933 731.896 39.4 732.616 38.04L737.936 40.92C736.683 43.2133 734.909 45.0667 732.616 46.48C730.349 47.8667 727.869 48.56 725.176 48.56C722.563 48.56 720.149 47.9067 717.936 46.6C715.723 45.2933 713.963 43.5333 712.656 41.32C711.376 39.1067 710.736 36.6933 710.736 34.08ZM749.85 48.6C747.93 48.6 746.156 48.1333 744.53 47.2C742.93 46.24 741.65 44.9467 740.69 43.32C739.756 41.6933 739.29 39.9333 739.29 38.04C739.29 36.12 739.756 34.36 740.69 32.76C741.65 31.1333 742.93 29.8533 744.53 28.92C746.156 27.96 747.93 27.48 749.85 27.48C751.743 27.48 753.49 27.96 755.09 28.92C756.716 29.8533 757.996 31.1333 758.93 32.76C759.89 34.36 760.37 36.12 760.37 38.04C760.37 39.9333 759.89 41.6933 758.93 43.32C757.996 44.9467 756.716 46.24 755.09 47.2C753.49 48.1333 751.743 48.6 749.85 48.6ZM749.81 42.88C751.143 42.88 752.29 42.4133 753.25 41.48C754.21 40.52 754.69 39.3733 754.69 38.04C754.69 36.7067 754.21 35.56 753.25 34.6C752.29 33.64 751.143 33.16 749.81 33.16C748.476 33.16 747.33 33.64 746.37 34.6C745.436 35.56 744.97 36.7067 744.97 38.04C744.97 39.3733 745.436 40.52 746.37 41.48C747.33 42.4133 748.476 42.88 749.81 42.88ZM781.778 48H776.058V36.2C776.058 34.92 775.698 34 774.978 33.44C774.258 32.8533 773.404 32.56 772.418 32.56C771.591 32.56 770.871 32.8267 770.258 33.36C769.644 33.8667 769.258 34.6667 769.098 35.76V48H763.378V20H769.098V29.44C770.564 28.2133 772.151 27.6 773.858 27.6C775.004 27.6 776.164 27.8533 777.338 28.36C778.538 28.84 779.564 29.7067 780.418 30.96C781.298 32.2133 781.751 33.9067 781.778 36.04V48ZM795.045 48.6C793.125 48.6 791.352 48.1333 789.725 47.2C788.125 46.24 786.845 44.9467 785.885 43.32C784.952 41.6933 784.485 39.9333 784.485 38.04C784.485 36.12 784.952 34.36 785.885 32.76C786.845 31.1333 788.125 29.8533 789.725 28.92C791.352 27.96 793.125 27.48 795.045 27.48C796.938 27.48 798.685 27.96 800.285 28.92C801.912 29.8533 803.192 31.1333 804.125 32.76C805.085 34.36 805.565 36.12 805.565 38.04C805.565 39.9333 805.085 41.6933 804.125 43.32C803.192 44.9467 801.912 46.24 800.285 47.2C798.685 48.1333 796.938 48.6 795.045 48.6ZM795.005 42.88C796.338 42.88 797.485 42.4133 798.445 41.48C799.405 40.52 799.885 39.3733 799.885 38.04C799.885 36.7067 799.405 35.56 798.445 34.6C797.485 33.64 796.338 33.16 795.005 33.16C793.672 33.16 792.525 33.64 791.565 34.6C790.632 35.56 790.165 36.7067 790.165 38.04C790.165 39.3733 790.632 40.52 791.565 41.48C792.525 42.4133 793.672 42.88 795.005 42.88ZM821.133 27.6L820.733 33C820.546 32.92 820.239 32.88 819.813 32.88C818.186 32.88 816.853 33.3467 815.813 34.28C814.799 35.1867 814.293 36.3867 814.293 37.88V48H808.573V28H814.293V31.24C814.773 30.2 815.546 29.3333 816.613 28.64C817.679 27.9467 818.973 27.6 820.493 27.6H821.133ZM832.81 40.88C832.81 41.6267 833.01 42.1467 833.41 42.44C833.836 42.7333 834.476 42.88 835.33 42.88C835.863 42.88 836.45 42.84 837.09 42.76V48C835.756 48.1333 834.65 48.2 833.77 48.2C831.53 48.2 829.85 47.7067 828.73 46.72C827.636 45.7067 827.09 43.88 827.09 41.24V33.08H823.65V28H827.09V23.36L832.81 21.44V28H837.01V33.08H832.81V40.88ZM857.822 36.6V42.28H869.182V48H851.822V20H868.942V25.68H857.822V30.88H867.982V36.6H857.822ZM881.428 40.92L886.108 28H892.148L884.868 48H877.948L870.668 28H876.708L881.428 40.92ZM903.014 27.48C904.96 27.48 906.694 27.9467 908.214 28.88C909.76 29.8133 910.96 31.08 911.814 32.68C912.667 34.28 913.094 36.0533 913.094 38C913.094 38.7467 913.04 39.4267 912.934 40.04H898.134C898.64 41.2667 899.32 42.1867 900.174 42.8C901.027 43.3867 902.134 43.68 903.494 43.68C904.32 43.68 905.12 43.5067 905.894 43.16C906.694 42.8133 907.32 42.3467 907.774 41.76L912.094 44.32C911.16 45.68 909.947 46.72 908.454 47.44C906.987 48.16 905.294 48.52 903.374 48.52C901.214 48.52 899.307 48.0667 897.654 47.16C896 46.2267 894.72 44.96 893.814 43.36C892.907 41.76 892.454 39.9733 892.454 38C892.454 36.0267 892.894 34.24 893.774 32.64C894.68 31.04 895.934 29.7867 897.534 28.88C899.134 27.9467 900.96 27.48 903.014 27.48ZM907.734 35.6C907.547 34.5867 907.014 33.8 906.134 33.24C905.28 32.68 904.227 32.4 902.974 32.4C901.667 32.4 900.534 32.72 899.574 33.36C898.614 33.9733 898.107 34.72 898.054 35.6H907.734ZM926.633 27.44C927.806 27.44 928.993 27.6933 930.193 28.2C931.393 28.7067 932.419 29.6 933.273 30.88C934.126 32.16 934.553 33.88 934.553 36.04V48H928.833V36.04C928.833 34.76 928.473 33.84 927.753 33.28C927.059 32.72 926.219 32.44 925.233 32.44C924.246 32.44 923.419 32.7867 922.753 33.48C922.113 34.1733 921.793 35.28 921.793 36.8V48H916.073V28H921.793V29.36C923.313 28.08 924.926 27.44 926.633 27.44ZM945.505 40.88C945.505 41.6267 945.705 42.1467 946.105 42.44C946.532 42.7333 947.172 42.88 948.025 42.88C948.558 42.88 949.145 42.84 949.785 42.76V48C948.452 48.1333 947.345 48.2 946.465 48.2C944.225 48.2 942.545 47.7067 941.425 46.72C940.332 45.7067 939.785 43.88 939.785 41.24V33.08H936.345V28H939.785V23.36L945.505 21.44V28H949.705V33.08H945.505V40.88ZM973.957 48.52C971.184 48.52 968.85 47.9067 966.957 46.68C965.09 45.4533 963.77 43.7867 962.997 41.68L968.077 38.72C968.61 40.0533 969.357 41.04 970.317 41.68C971.304 42.32 972.57 42.64 974.117 42.64C975.37 42.64 976.33 42.3467 976.997 41.76C977.69 41.1733 978.037 40.52 978.037 39.8C978.037 39.2667 977.877 38.8133 977.557 38.44C977.237 38.0667 976.69 37.72 975.917 37.4C975.144 37.0533 974.024 36.6667 972.557 36.24C969.997 35.4933 967.957 34.48 966.437 33.2C964.917 31.92 964.157 30.0933 964.157 27.72C964.157 26.04 964.57 24.5867 965.397 23.36C966.25 22.1067 967.37 21.1467 968.757 20.48C970.17 19.8133 971.69 19.48 973.317 19.48C975.584 19.48 977.57 20.0267 979.277 21.12C980.984 22.1867 982.317 23.7067 983.277 25.68L978.077 28.64C977.57 27.52 976.93 26.7067 976.157 26.2C975.384 25.6667 974.437 25.4 973.317 25.4C972.464 25.4 971.73 25.64 971.117 26.12C970.504 26.5733 970.197 27.1067 970.197 27.72C970.197 28.2267 970.317 28.6667 970.557 29.04C970.824 29.3867 971.29 29.72 971.957 30.04C972.65 30.36 973.664 30.72 974.997 31.12C976.784 31.68 978.317 32.3067 979.597 33C980.904 33.6667 981.97 34.5867 982.797 35.76C983.65 36.9333 984.077 38.4 984.077 40.16C984.077 41.84 983.637 43.32 982.757 44.6C981.877 45.8533 980.664 46.8267 979.117 47.52C977.597 48.1867 975.877 48.52 973.957 48.52ZM999.913 28H1005.63V48H999.913V46.64C998.393 47.92 996.779 48.56 995.073 48.56C993.899 48.56 992.713 48.3067 991.513 47.8C990.313 47.2933 989.286 46.4 988.433 45.12C987.579 43.84 987.153 42.12 987.153 39.96V28H992.873V39.96C992.873 41.2133 993.233 42.1333 993.953 42.72C994.673 43.28 995.526 43.56 996.513 43.56C997.473 43.56 998.273 43.2133 998.913 42.52C999.579 41.8267 999.913 40.72 999.913 39.2V28ZM1022.29 27.48C1024.37 27.48 1026.15 27.9333 1027.65 28.84C1029.17 29.7467 1030.33 31 1031.13 32.6C1031.93 34.1733 1032.33 35.9733 1032.33 38C1032.33 40.0267 1031.93 41.84 1031.13 43.44C1030.33 45.04 1029.17 46.3067 1027.65 47.24C1026.15 48.1467 1024.37 48.6 1022.29 48.6C1021.22 48.6 1020.17 48.4133 1019.13 48.04C1018.09 47.6933 1017.13 47.1867 1016.25 46.52V56H1010.53V28H1016.25V29.56C1017.13 28.8933 1018.07 28.3867 1019.09 28.04C1020.13 27.6667 1021.19 27.48 1022.29 27.48ZM1021.53 43.04C1023.02 43.04 1024.23 42.5867 1025.17 41.68C1026.13 40.7467 1026.61 39.52 1026.61 38C1026.61 36.48 1026.13 35.2533 1025.17 34.32C1024.23 33.3867 1023.02 32.92 1021.53 32.92C1020.03 32.92 1018.78 33.4 1017.77 34.36C1016.75 35.32 1016.25 36.5467 1016.25 38.04C1016.25 39.5333 1016.74 40.7467 1017.73 41.68C1018.74 42.5867 1020.01 43.04 1021.53 43.04ZM1047.36 27.48C1049.44 27.48 1051.23 27.9333 1052.72 28.84C1054.24 29.7467 1055.4 31 1056.2 32.6C1057 34.1733 1057.4 35.9733 1057.4 38C1057.4 40.0267 1057 41.84 1056.2 43.44C1055.4 45.04 1054.24 46.3067 1052.72 47.24C1051.23 48.1467 1049.44 48.6 1047.36 48.6C1046.3 48.6 1045.24 48.4133 1044.2 48.04C1043.16 47.6933 1042.2 47.1867 1041.32 46.52V56H1035.6V28H1041.32V29.56C1042.2 28.8933 1043.15 28.3867 1044.16 28.04C1045.2 27.6667 1046.27 27.48 1047.36 27.48ZM1046.6 43.04C1048.1 43.04 1049.31 42.5867 1050.24 41.68C1051.2 40.7467 1051.68 39.52 1051.68 38C1051.68 36.48 1051.2 35.2533 1050.24 34.32C1049.31 33.3867 1048.1 32.92 1046.6 32.92C1045.11 32.92 1043.86 33.4 1042.84 34.36C1041.83 35.32 1041.32 36.5467 1041.32 38.04C1041.32 39.5333 1041.82 40.7467 1042.8 41.68C1043.82 42.5867 1045.08 43.04 1046.6 43.04ZM1070.16 48.6C1068.24 48.6 1066.47 48.1333 1064.84 47.2C1063.24 46.24 1061.96 44.9467 1061 43.32C1060.07 41.6933 1059.6 39.9333 1059.6 38.04C1059.6 36.12 1060.07 34.36 1061 32.76C1061.96 31.1333 1063.24 29.8533 1064.84 28.92C1066.47 27.96 1068.24 27.48 1070.16 27.48C1072.06 27.48 1073.8 27.96 1075.4 28.92C1077.03 29.8533 1078.31 31.1333 1079.24 32.76C1080.2 34.36 1080.68 36.12 1080.68 38.04C1080.68 39.9333 1080.2 41.6933 1079.24 43.32C1078.31 44.9467 1077.03 46.24 1075.4 47.2C1073.8 48.1333 1072.06 48.6 1070.16 48.6ZM1070.12 42.88C1071.46 42.88 1072.6 42.4133 1073.56 41.48C1074.52 40.52 1075 39.3733 1075 38.04C1075 36.7067 1074.52 35.56 1073.56 34.6C1072.6 33.64 1071.46 33.16 1070.12 33.16C1068.79 33.16 1067.64 33.64 1066.68 34.6C1065.75 35.56 1065.28 36.7067 1065.28 38.04C1065.28 39.3733 1065.75 40.52 1066.68 41.48C1067.64 42.4133 1068.79 42.88 1070.12 42.88ZM1096.25 27.6L1095.85 33C1095.66 32.92 1095.36 32.88 1094.93 32.88C1093.3 32.88 1091.97 33.3467 1090.93 34.28C1089.92 35.1867 1089.41 36.3867 1089.41 37.88V48H1083.69V28H1089.41V31.24C1089.89 30.2 1090.66 29.3333 1091.73 28.64C1092.8 27.9467 1094.09 27.6 1095.61 27.6H1096.25ZM1107.93 40.88C1107.93 41.6267 1108.13 42.1467 1108.53 42.44C1108.95 42.7333 1109.59 42.88 1110.45 42.88C1110.98 42.88 1111.57 42.84 1112.21 42.76V48C1110.87 48.1333 1109.77 48.2 1108.89 48.2C1106.65 48.2 1104.97 47.7067 1103.85 46.72C1102.75 45.7067 1102.21 43.88 1102.21 41.24V33.08H1098.77V28H1102.21V23.36L1107.93 21.44V28H1112.13V33.08H1107.93V40.88Z" fill="#EAEAEA"/>
<path d="M47.2799 0.696279C48.8447 2.14924 50.8167 9.04855 51.562 11.3535C52.7262 14.9541 53.7031 17.8834 55.1769 21.3565C56.3528 24.1258 56.8354 28.5849 59.368 30.3786C61.016 31.5467 63.9727 32.0046 64.3929 34.5034C64.8351 37.1349 64.1522 39.8509 62.6576 42.0193C62.0723 42.8687 60.3201 44.3555 60.181 45.2348C59.6606 48.514 62.0306 51.9988 61.5403 55.3288C61.1955 57.6754 59.8844 58.7901 57.5443 57.799C56.8432 57.5024 56.2292 56.5242 55.2822 57.0016C53.9385 58.4389 55.4995 60.3498 53.8657 61.6844C53.0995 62.3113 52.163 62.3426 51.2095 62.0915C49.897 61.7468 49.2961 59.7137 47.6987 60.1937C47.1186 60.368 43.6416 64.5214 42.6725 65.3382C38.9627 68.4679 33.4878 70.8652 28.6268 69.4032C26.4233 68.7411 23.0191 65.9327 21.3034 64.3223C20.3343 63.4131 17.5728 59.9335 16.6362 59.633C14.6174 58.9866 14.5446 61.661 13.7849 62.4987C13.0734 63.2843 11.9079 63.2843 11.0611 62.7653C9.20882 61.6297 9.84489 57.7912 8.97208 57.5258C7.80398 57.1694 6.65019 60.7998 4.36733 59.144C3.07176 58.2035 3.09258 55.7997 3.18884 54.3558C3.41908 50.9244 5.74745 47.2874 3.56996 44.0368C1.61099 41.1113 -0.68617 40.3894 0.193153 36.1255C0.752486 33.412 3.24998 32.616 4.83042 30.8001C6.83101 28.5016 8.24884 24.6682 9.534 21.8846C11.8637 16.835 12.1499 12.0598 14.1804 7.01934C14.6109 5.95141 16.5374 1.68747 17.1474 1.04229C18.0411 0.0979235 19.0127 0.0237792 20.0716 0.739205C21.8302 1.92941 23.9453 8.41507 25.0665 10.5835C25.8327 12.065 26.9228 14.2334 28.7334 14.439C30.2111 14.6068 35.9605 14.6289 37.1807 14.1372C38.8092 13.4816 39.7406 9.67942 40.3936 8.20305C40.8228 7.23397 41.4888 6.38326 41.8934 5.4337C42.4943 4.02106 42.6075 2.22079 43.6039 1.04619C44.6003 -0.128411 46.0936 -0.408078 47.2812 0.693678L47.2799 0.696279ZM18.8189 8.99262C16.9029 9.4674 16.1185 14.7355 16.4307 16.3654C16.7286 17.9237 19.178 16.3875 20.0209 15.8984C21.9135 14.798 22.0045 14.8617 21.453 12.5697C21.2084 11.5564 20.1301 8.66742 18.8189 8.99131V8.99262ZM44.5535 9.41407C43.877 10.0619 42.8898 13.9108 43.172 14.8565C43.6169 16.3459 47.86 18.5312 48.327 16.9403C48.7068 15.6513 47.782 10.7669 46.8519 9.75877C46.3264 9.19033 45.144 8.84823 44.5535 9.41407ZM27.4131 49.3855C27.5276 44.3073 25.1056 34.48 19.6748 32.6303C15.3979 31.1734 12.7443 35.7222 12.3814 39.354C11.8897 44.2696 13.1983 48.7209 16.138 52.6193C19.0648 56.4982 24.3641 63.0268 28.6242 65.1418C34.0458 67.8344 38.9549 64.8439 42.3499 60.5436C47.3436 54.2179 52.8849 47.7609 52.2436 39.1185C51.8443 33.7385 47.2265 28.9075 42.5685 33.9428C39.0356 37.7618 37.5267 44.3242 37.1781 49.3855C37.0207 49.569 34.9823 48.1576 34.5934 48.0067C32.174 47.0637 30.6833 47.6607 28.5656 48.8106C28.1832 49.0187 27.9907 49.5312 27.4145 49.3855H27.4131Z" fill="white"/>
<path d="M27.4136 49.3847C27.9898 49.5304 28.1823 49.0179 28.5648 48.8098C30.6824 47.6599 32.1731 47.0628 34.5925 48.0059C34.9815 48.1568 37.0198 49.5694 37.1772 49.3847C37.5258 44.3234 39.0334 37.761 42.5676 33.9419C47.2257 28.9066 51.8434 33.7377 52.2427 39.1177C52.8853 47.76 47.3427 54.2171 42.3491 60.5427C38.954 64.8431 34.0462 67.8336 28.6233 65.141C24.3632 63.0259 19.0639 56.4986 16.1372 52.6184C13.1961 48.72 11.8888 44.2688 12.3805 39.3531C12.7434 35.7214 15.397 31.1726 19.674 32.6294C25.1047 34.4791 27.5267 44.3065 27.4123 49.3847H27.4136ZM21.2531 36.416C19.9692 36.6111 19.5374 39.8956 19.4788 40.957C19.406 42.2721 19.5712 47.5948 21.4053 47.6807C22.7906 47.7444 23.268 45.0414 23.35 44.0099C23.4592 42.6207 23.6361 36.0544 21.2531 36.416ZM43.6368 36.4147C43.2362 36.4901 43.0398 36.7282 42.829 37.0482C41.6909 38.7717 41.7169 45.1325 42.8316 46.8898C43.7773 48.3805 44.8049 47.5792 45.3252 46.2459C46.1382 44.1647 46.0927 39.4962 45.1509 37.4631C44.84 36.7919 44.5044 36.2508 43.6368 36.4147Z" fill="black"/>
<path d="M44.554 9.4149C45.1458 8.84906 46.3269 9.19117 46.8524 9.7596C47.7838 10.7677 48.7073 15.6521 48.3275 16.9412C47.8592 18.532 43.6174 16.3467 43.1725 14.8573C42.8903 13.9117 43.8776 10.0627 44.554 9.4149Z" fill="black"/>
<path d="M18.8181 8.99217C20.1292 8.66698 21.2076 11.556 21.4521 12.5706C22.005 14.8626 21.9126 14.7988 20.02 15.8993C19.1771 16.3897 16.7277 17.9246 16.4298 16.3663C16.1177 14.7351 16.902 9.46696 18.8181 8.99347V8.99217Z" fill="black"/>
<path d="M43.6367 36.4147C44.5056 36.2495 44.8399 36.7907 45.1508 37.4632C46.0939 39.4963 46.1381 44.1661 45.3251 46.246C44.8048 47.5793 43.7772 48.3806 42.8315 46.8899C41.7155 45.1325 41.6895 38.7717 42.8289 37.0482C43.0397 36.7282 43.2361 36.4915 43.6367 36.4147Z" fill="white"/>
<path d="M21.2527 36.4167C23.6357 36.0551 23.4601 42.6214 23.3495 44.0106C23.2676 45.0422 22.7902 47.7452 21.4048 47.6814C19.5694 47.5969 19.4056 42.2728 19.4784 40.9577C19.5369 39.8976 19.9688 36.6118 21.2527 36.4167Z" fill="white"/>
<path d="M28.429 54.4453L31.08 58.6039C31.4781 58.9447 32.014 59.8318 32.5837 59.7421L36.3625 54.95L36.0581 54.4453H28.4277H28.429Z" fill="white"/>
</svg>
