<svg width="751" height="70" viewBox="0 0 751 70" fill="none" xmlns="http://www.w3.org/2000/svg">
<path d="M104.622 20C107.235 20 109.635 20.6267 111.822 21.88C114.035 23.1067 115.782 24.8 117.062 26.96C118.369 29.0933 119.022 31.4667 119.022 34.08C119.022 36.6933 118.382 39.0667 117.102 41.2C115.822 43.3067 114.075 44.9733 111.862 46.2C109.649 47.4 107.235 48 104.622 48H93.1419V20H104.622ZM104.622 42.28C106.142 42.28 107.542 41.92 108.822 41.2C110.129 40.4533 111.155 39.4533 111.902 38.2C112.649 36.9467 113.022 35.56 113.022 34.04C113.022 32.52 112.649 31.12 111.902 29.84C111.155 28.56 110.129 27.5467 108.822 26.8C107.542 26.0533 106.142 25.68 104.622 25.68H99.1419V42.28H104.622ZM131.561 27.48C133.507 27.48 135.241 27.9467 136.761 28.88C138.307 29.8133 139.507 31.08 140.361 32.68C141.214 34.28 141.641 36.0533 141.641 38C141.641 38.7467 141.587 39.4267 141.481 40.04H126.681C127.187 41.2667 127.867 42.1867 128.721 42.8C129.574 43.3867 130.681 43.68 132.041 43.68C132.867 43.68 133.667 43.5067 134.441 43.16C135.241 42.8133 135.867 42.3467 136.321 41.76L140.641 44.32C139.707 45.68 138.494 46.72 137.001 47.44C135.534 48.16 133.841 48.52 131.921 48.52C129.761 48.52 127.854 48.0667 126.201 47.16C124.547 46.2267 123.267 44.96 122.361 43.36C121.454 41.76 121.001 39.9733 121.001 38C121.001 36.0267 121.441 34.24 122.321 32.64C123.227 31.04 124.481 29.7867 126.081 28.88C127.681 27.9467 129.507 27.48 131.561 27.48ZM136.281 35.6C136.094 34.5867 135.561 33.8 134.681 33.24C133.827 32.68 132.774 32.4 131.521 32.4C130.214 32.4 129.081 32.72 128.121 33.36C127.161 33.9733 126.654 34.72 126.601 35.6H136.281ZM149.74 33.68C149.74 34.1333 150.02 34.48 150.58 34.72C151.14 34.9333 152.033 35.16 153.26 35.4C154.833 35.72 156.14 36.08 157.18 36.48C158.22 36.8533 159.126 37.4933 159.9 38.4C160.7 39.28 161.1 40.5067 161.1 42.08C161.1 43.44 160.686 44.6133 159.86 45.6C159.033 46.56 157.94 47.2933 156.58 47.8C155.22 48.28 153.753 48.52 152.18 48.52C150.02 48.52 148.18 48.1333 146.66 47.36C145.14 46.56 143.993 45.3867 143.22 43.84L147.9 41.44C148.54 43.1467 149.966 44 152.18 44C153.086 44 153.873 43.84 154.54 43.52C155.233 43.1733 155.58 42.6933 155.58 42.08C155.58 41.5467 155.26 41.1467 154.62 40.88C154.006 40.6133 153.02 40.3333 151.66 40.04C150.113 39.6933 148.82 39.3333 147.78 38.96C146.74 38.56 145.846 37.96 145.1 37.16C144.353 36.3333 143.98 35.24 143.98 33.88C143.98 32.5733 144.353 31.44 145.1 30.48C145.846 29.4933 146.846 28.7467 148.1 28.24C149.38 27.7333 150.766 27.48 152.26 27.48C154.02 27.48 155.606 27.84 157.02 28.56C158.433 29.28 159.54 30.32 160.34 31.68L155.7 33.96C155.38 33.2933 154.94 32.8 154.38 32.48C153.846 32.16 153.14 32 152.26 32C151.486 32 150.873 32.16 150.42 32.48C149.966 32.7733 149.74 33.1733 149.74 33.68ZM166.916 25.28C165.849 25.28 165.009 25 164.396 24.44C163.809 23.8533 163.516 23.0667 163.516 22.08C163.516 21.0667 163.809 20.2667 164.396 19.68C165.009 19.0933 165.849 18.8 166.916 18.8C167.956 18.8 168.782 19.0933 169.396 19.68C170.009 20.2667 170.316 21.0667 170.316 22.08C170.316 23.0667 170.009 23.8533 169.396 24.44C168.782 25 167.956 25.28 166.916 25.28ZM164.036 48V28H169.756V48H164.036ZM189.158 28H194.878V47C194.878 48.8667 194.384 50.52 193.398 51.96C192.438 53.4 191.104 54.52 189.398 55.32C187.691 56.12 185.771 56.52 183.638 56.52C181.318 56.52 179.184 56.0667 177.238 55.16C175.318 54.28 173.971 53.1333 173.198 51.72L178.078 48.88C178.424 49.5733 179.118 50.1467 180.158 50.6C181.198 51.0533 182.411 51.28 183.798 51.28C185.344 51.28 186.624 50.88 187.638 50.08C188.651 49.28 189.158 48.2533 189.158 47V46.48C188.278 47.1467 187.318 47.6533 186.278 48C185.264 48.3733 184.211 48.56 183.118 48.56C181.038 48.56 179.238 48.1067 177.718 47.2C176.224 46.2933 175.078 45.0533 174.278 43.48C173.478 41.88 173.078 40.0667 173.078 38.04C173.078 36.0133 173.478 34.2 174.278 32.6C175.078 30.9733 176.224 29.7067 177.718 28.8C179.238 27.8933 181.038 27.44 183.118 27.44C184.184 27.44 185.238 27.6267 186.278 28C187.318 28.3467 188.278 28.8533 189.158 29.52V28ZM183.878 43.12C185.371 43.12 186.624 42.64 187.638 41.68C188.651 40.72 189.158 39.48 189.158 37.96C189.158 36.4933 188.651 35.2933 187.638 34.36C186.624 33.4267 185.371 32.96 183.878 32.96C182.384 32.96 181.158 33.4267 180.198 34.36C179.264 35.2933 178.798 36.52 178.798 38.04C178.798 39.56 179.264 40.7867 180.198 41.72C181.158 42.6533 182.384 43.12 183.878 43.12ZM210.336 27.44C211.509 27.44 212.696 27.6933 213.896 28.2C215.096 28.7067 216.123 29.6 216.976 30.88C217.829 32.16 218.256 33.88 218.256 36.04V48H212.536V36.04C212.536 34.76 212.176 33.84 211.456 33.28C210.763 32.72 209.923 32.44 208.936 32.44C207.949 32.44 207.123 32.7867 206.456 33.48C205.816 34.1733 205.496 35.28 205.496 36.8V48H199.776V28H205.496V29.36C207.016 28.08 208.629 27.44 210.336 27.44ZM224.963 25.28C223.896 25.28 223.056 25 222.443 24.44C221.856 23.8533 221.563 23.0667 221.563 22.08C221.563 21.0667 221.856 20.2667 222.443 19.68C223.056 19.0933 223.896 18.8 224.963 18.8C226.003 18.8 226.829 19.0933 227.443 19.68C228.056 20.2667 228.363 21.0667 228.363 22.08C228.363 23.0667 228.056 23.8533 227.443 24.44C226.829 25 226.003 25.28 224.963 25.28ZM222.083 48V28H227.803V48H222.083ZM243.07 27.44C244.244 27.44 245.43 27.6933 246.63 28.2C247.83 28.7067 248.857 29.6 249.71 30.88C250.564 32.16 250.99 33.88 250.99 36.04V48H245.27V36.04C245.27 34.76 244.91 33.84 244.19 33.28C243.497 32.72 242.657 32.44 241.67 32.44C240.684 32.44 239.857 32.7867 239.19 33.48C238.55 34.1733 238.23 35.28 238.23 36.8V48H232.51V28H238.23V29.36C239.75 28.08 241.364 27.44 243.07 27.44ZM270.017 28H275.737V47C275.737 48.8667 275.244 50.52 274.257 51.96C273.297 53.4 271.964 54.52 270.257 55.32C268.55 56.12 266.63 56.52 264.497 56.52C262.177 56.52 260.044 56.0667 258.097 55.16C256.177 54.28 254.83 53.1333 254.057 51.72L258.937 48.88C259.284 49.5733 259.977 50.1467 261.017 50.6C262.057 51.0533 263.27 51.28 264.657 51.28C266.204 51.28 267.484 50.88 268.497 50.08C269.51 49.28 270.017 48.2533 270.017 47V46.48C269.137 47.1467 268.177 47.6533 267.137 48C266.124 48.3733 265.07 48.56 263.977 48.56C261.897 48.56 260.097 48.1067 258.577 47.2C257.084 46.2933 255.937 45.0533 255.137 43.48C254.337 41.88 253.937 40.0667 253.937 38.04C253.937 36.0133 254.337 34.2 255.137 32.6C255.937 30.9733 257.084 29.7067 258.577 28.8C260.097 27.8933 261.897 27.44 263.977 27.44C265.044 27.44 266.097 27.6267 267.137 28C268.177 28.3467 269.137 28.8533 270.017 29.52V28ZM264.737 43.12C266.23 43.12 267.484 42.64 268.497 41.68C269.51 40.72 270.017 39.48 270.017 37.96C270.017 36.4933 269.51 35.2933 268.497 34.36C267.484 33.4267 266.23 32.96 264.737 32.96C263.244 32.96 262.017 33.4267 261.057 34.36C260.124 35.2933 259.657 36.52 259.657 38.04C259.657 39.56 260.124 40.7867 261.057 41.72C262.017 42.6533 263.244 43.12 264.737 43.12ZM289.83 34.08C289.83 31.4667 290.47 29.0533 291.75 26.84C293.056 24.6267 294.816 22.88 297.03 21.6C299.243 20.2933 301.656 19.64 304.27 19.64C306.936 19.64 309.403 20.3333 311.67 21.72C313.936 23.1067 315.696 24.9333 316.95 27.2L311.67 30.04C310.923 28.7067 309.896 27.6533 308.59 26.88C307.283 26.08 305.843 25.68 304.27 25.68C302.75 25.68 301.336 26.0533 300.03 26.8C298.75 27.5467 297.736 28.5733 296.99 29.88C296.243 31.16 295.87 32.56 295.87 34.08C295.87 35.6 296.243 37.0133 296.99 38.32C297.763 39.6 298.79 40.6267 300.07 41.4C301.35 42.1467 302.75 42.52 304.27 42.52C305.843 42.52 307.296 42.12 308.63 41.32C309.963 40.4933 310.99 39.4 311.71 38.04L317.03 40.92C315.776 43.2133 314.003 45.0667 311.71 46.48C309.443 47.8667 306.963 48.56 304.27 48.56C301.656 48.56 299.243 47.9067 297.03 46.6C294.816 45.2933 293.056 43.5333 291.75 41.32C290.47 39.1067 289.83 36.6933 289.83 34.08ZM328.943 48.6C327.023 48.6 325.25 48.1333 323.623 47.2C322.023 46.24 320.743 44.9467 319.783 43.32C318.85 41.6933 318.383 39.9333 318.383 38.04C318.383 36.12 318.85 34.36 319.783 32.76C320.743 31.1333 322.023 29.8533 323.623 28.92C325.25 27.96 327.023 27.48 328.943 27.48C330.837 27.48 332.583 27.96 334.183 28.92C335.81 29.8533 337.09 31.1333 338.023 32.76C338.983 34.36 339.463 36.12 339.463 38.04C339.463 39.9333 338.983 41.6933 338.023 43.32C337.09 44.9467 335.81 46.24 334.183 47.2C332.583 48.1333 330.837 48.6 328.943 48.6ZM328.903 42.88C330.237 42.88 331.383 42.4133 332.343 41.48C333.303 40.52 333.783 39.3733 333.783 38.04C333.783 36.7067 333.303 35.56 332.343 34.6C331.383 33.64 330.237 33.16 328.903 33.16C327.57 33.16 326.423 33.64 325.463 34.6C324.53 35.56 324.063 36.7067 324.063 38.04C324.063 39.3733 324.53 40.52 325.463 41.48C326.423 42.4133 327.57 42.88 328.903 42.88ZM353.031 27.44C354.205 27.44 355.391 27.6933 356.591 28.2C357.791 28.7067 358.818 29.6 359.671 30.88C360.525 32.16 360.951 33.88 360.951 36.04V48H355.231V36.04C355.231 34.76 354.871 33.84 354.151 33.28C353.458 32.72 352.618 32.44 351.631 32.44C350.645 32.44 349.818 32.7867 349.151 33.48C348.511 34.1733 348.191 35.28 348.191 36.8V48H342.471V28H348.191V29.36C349.711 28.08 351.325 27.44 353.031 27.44ZM382.778 44.08C381.791 45.4667 380.538 46.5733 379.018 47.4C377.524 48.2 375.911 48.6 374.178 48.6C372.258 48.6 370.484 48.1333 368.858 47.2C367.258 46.24 365.978 44.9467 365.018 43.32C364.084 41.6933 363.618 39.9333 363.618 38.04C363.618 36.12 364.084 34.36 365.018 32.76C365.978 31.1333 367.258 29.8533 368.858 28.92C370.484 27.96 372.258 27.48 374.178 27.48C375.911 27.48 377.524 27.88 379.018 28.68C380.511 29.48 381.751 30.56 382.738 31.92L378.018 35.04C376.898 33.7867 375.618 33.16 374.178 33.16C372.844 33.16 371.698 33.64 370.738 34.6C369.778 35.56 369.298 36.7067 369.298 38.04C369.298 39.3733 369.778 40.52 370.738 41.48C371.698 42.4133 372.844 42.88 374.178 42.88C375.618 42.88 376.898 42.2533 378.018 41L382.778 44.08ZM394.647 27.48C396.593 27.48 398.327 27.9467 399.847 28.88C401.393 29.8133 402.593 31.08 403.447 32.68C404.3 34.28 404.727 36.0533 404.727 38C404.727 38.7467 404.673 39.4267 404.567 40.04H389.767C390.273 41.2667 390.953 42.1867 391.807 42.8C392.66 43.3867 393.767 43.68 395.127 43.68C395.953 43.68 396.753 43.5067 397.527 43.16C398.327 42.8133 398.953 42.3467 399.407 41.76L403.727 44.32C402.793 45.68 401.58 46.72 400.087 47.44C398.62 48.16 396.927 48.52 395.007 48.52C392.847 48.52 390.94 48.0667 389.287 47.16C387.633 46.2267 386.353 44.96 385.447 43.36C384.54 41.76 384.087 39.9733 384.087 38C384.087 36.0267 384.527 34.24 385.407 32.64C386.313 31.04 387.567 29.7867 389.167 28.88C390.767 27.9467 392.593 27.48 394.647 27.48ZM399.367 35.6C399.18 34.5867 398.647 33.8 397.767 33.24C396.913 32.68 395.86 32.4 394.607 32.4C393.3 32.4 392.167 32.72 391.207 33.36C390.247 33.9733 389.74 34.72 389.687 35.6H399.367ZM420.247 27.48C422.327 27.48 424.114 27.9333 425.607 28.84C427.127 29.7467 428.287 31 429.087 32.6C429.887 34.1733 430.287 35.9733 430.287 38C430.287 40.0267 429.887 41.84 429.087 43.44C428.287 45.04 427.127 46.3067 425.607 47.24C424.114 48.1467 422.327 48.6 420.247 48.6C419.18 48.6 418.127 48.4133 417.087 48.04C416.047 47.6933 415.087 47.1867 414.207 46.52V56H408.487V28H414.207V29.56C415.087 28.8933 416.034 28.3867 417.047 28.04C418.087 27.6667 419.154 27.48 420.247 27.48ZM419.487 43.04C420.98 43.04 422.194 42.5867 423.127 41.68C424.087 40.7467 424.567 39.52 424.567 38C424.567 36.48 424.087 35.2533 423.127 34.32C422.194 33.3867 420.98 32.92 419.487 32.92C417.994 32.92 416.74 33.4 415.727 34.36C414.714 35.32 414.207 36.5467 414.207 38.04C414.207 39.5333 414.7 40.7467 415.687 41.68C416.7 42.5867 417.967 43.04 419.487 43.04ZM440.771 40.88C440.771 41.6267 440.971 42.1467 441.371 42.44C441.797 42.7333 442.437 42.88 443.291 42.88C443.824 42.88 444.411 42.84 445.051 42.76V48C443.717 48.1333 442.611 48.2 441.731 48.2C439.491 48.2 437.811 47.7067 436.691 46.72C435.597 45.7067 435.051 43.88 435.051 41.24V33.08H431.611V28H435.051V23.36L440.771 21.44V28H444.971V33.08H440.771V40.88ZM471.103 24.88C470.463 24.8 469.876 24.76 469.343 24.76C468.489 24.76 467.849 24.9067 467.423 25.2C467.023 25.4933 466.823 26.0133 466.823 26.76V28H471.063V33.08H466.823V48H461.103V33.08H457.983V28H461.103V26.4C461.103 23.76 461.649 21.9467 462.743 20.96C463.863 19.9467 465.556 19.44 467.823 19.44C468.729 19.44 469.823 19.5067 471.103 19.64V24.88ZM482.693 48.6C480.773 48.6 479 48.1333 477.373 47.2C475.773 46.24 474.493 44.9467 473.533 43.32C472.6 41.6933 472.133 39.9333 472.133 38.04C472.133 36.12 472.6 34.36 473.533 32.76C474.493 31.1333 475.773 29.8533 477.373 28.92C479 27.96 480.773 27.48 482.693 27.48C484.587 27.48 486.333 27.96 487.933 28.92C489.56 29.8533 490.84 31.1333 491.773 32.76C492.733 34.36 493.213 36.12 493.213 38.04C493.213 39.9333 492.733 41.6933 491.773 43.32C490.84 44.9467 489.56 46.24 487.933 47.2C486.333 48.1333 484.587 48.6 482.693 48.6ZM482.653 42.88C483.987 42.88 485.133 42.4133 486.093 41.48C487.053 40.52 487.533 39.3733 487.533 38.04C487.533 36.7067 487.053 35.56 486.093 34.6C485.133 33.64 483.987 33.16 482.653 33.16C481.32 33.16 480.173 33.64 479.213 34.6C478.28 35.56 477.813 36.7067 477.813 38.04C477.813 39.3733 478.28 40.52 479.213 41.48C480.173 42.4133 481.32 42.88 482.653 42.88ZM508.781 27.6L508.381 33C508.195 32.92 507.888 32.88 507.461 32.88C505.835 32.88 504.501 33.3467 503.461 34.28C502.448 35.1867 501.941 36.3867 501.941 37.88V48H496.221V28H501.941V31.24C502.421 30.2 503.195 29.3333 504.261 28.64C505.328 27.9467 506.621 27.6 508.141 27.6H508.781ZM546.76 47.96L539.24 48L531.08 37.52L528.4 40.72V48H522.4V20H528.4V31.28L537.92 20H545.64L535 32.76L546.76 47.96ZM551.681 25.28C550.615 25.28 549.775 25 549.161 24.44C548.575 23.8533 548.281 23.0667 548.281 22.08C548.281 21.0667 548.575 20.2667 549.161 19.68C549.775 19.0933 550.615 18.8 551.681 18.8C552.721 18.8 553.548 19.0933 554.161 19.68C554.775 20.2667 555.081 21.0667 555.081 22.08C555.081 23.0667 554.775 23.8533 554.161 24.44C553.548 25 552.721 25.28 551.681 25.28ZM548.801 48V28H554.521V48H548.801ZM573.688 20H579.368V48H573.688V46.48C572.808 47.1467 571.848 47.6533 570.808 48C569.794 48.3733 568.741 48.56 567.648 48.56C565.568 48.56 563.768 48.1067 562.248 47.2C560.754 46.2933 559.608 45.0533 558.808 43.48C558.008 41.88 557.608 40.0667 557.608 38.04C557.608 36.0133 558.008 34.2 558.808 32.6C559.608 30.9733 560.754 29.7067 562.248 28.8C563.768 27.8933 565.568 27.44 567.648 27.44C568.714 27.44 569.768 27.6267 570.808 28C571.848 28.3467 572.808 28.8533 573.688 29.52V20ZM568.408 43.12C569.901 43.12 571.154 42.64 572.168 41.68C573.181 40.72 573.688 39.48 573.688 37.96C573.688 36.4933 573.181 35.2933 572.168 34.36C571.154 33.4267 569.901 32.96 568.408 32.96C566.914 32.96 565.688 33.4267 564.728 34.36C563.768 35.2933 563.288 36.52 563.288 38.04C563.288 39.56 563.768 40.7867 564.728 41.72C565.688 42.6533 566.914 43.12 568.408 43.12ZM586.107 27.12C585.227 26.8533 584.654 26.5333 584.387 26.16C584.147 25.7867 584.027 25.08 584.027 24.04C584.027 23.0267 584.294 22.2533 584.827 21.72C585.387 21.1867 586.161 20.92 587.147 20.92C588.134 20.92 588.907 21.2 589.467 21.76C590.054 22.32 590.347 23.0933 590.347 24.08C590.347 25.2 590.214 26.1067 589.947 26.8C589.707 27.4933 589.227 28.32 588.507 29.28L586.267 32.16L584.547 30.72L586.107 27.12ZM599.818 33.68C599.818 34.1333 600.098 34.48 600.658 34.72C601.218 34.9333 602.111 35.16 603.338 35.4C604.911 35.72 606.218 36.08 607.258 36.48C608.298 36.8533 609.204 37.4933 609.978 38.4C610.778 39.28 611.178 40.5067 611.178 42.08C611.178 43.44 610.764 44.6133 609.938 45.6C609.111 46.56 608.018 47.2933 606.658 47.8C605.298 48.28 603.831 48.52 602.258 48.52C600.098 48.52 598.258 48.1333 596.738 47.36C595.218 46.56 594.071 45.3867 593.298 43.84L597.978 41.44C598.618 43.1467 600.044 44 602.258 44C603.164 44 603.951 43.84 604.618 43.52C605.311 43.1733 605.658 42.6933 605.658 42.08C605.658 41.5467 605.338 41.1467 604.698 40.88C604.084 40.6133 603.098 40.3333 601.738 40.04C600.191 39.6933 598.898 39.3333 597.858 38.96C596.818 38.56 595.924 37.96 595.178 37.16C594.431 36.3333 594.058 35.24 594.058 33.88C594.058 32.5733 594.431 31.44 595.178 30.48C595.924 29.4933 596.924 28.7467 598.178 28.24C599.458 27.7333 600.844 27.48 602.338 27.48C604.098 27.48 605.684 27.84 607.098 28.56C608.511 29.28 609.618 30.32 610.418 31.68L605.778 33.96C605.458 33.2933 605.018 32.8 604.458 32.48C603.924 32.16 603.218 32 602.338 32C601.564 32 600.951 32.16 600.498 32.48C600.044 32.7733 599.818 33.1733 599.818 33.68ZM649.929 48H643.529L641.569 42.72H631.209L629.249 48H622.809L633.169 20H639.609L649.929 48ZM636.409 28.72L633.289 37.04H639.489L636.409 28.72ZM658.529 40.92L663.209 28H669.249L661.969 48H655.049L647.769 28H653.809L658.529 40.92ZM685.915 28H691.595V48H685.915V46.48C685.035 47.1467 684.062 47.6533 682.995 48C681.955 48.3733 680.902 48.56 679.835 48.56C677.755 48.56 675.955 48.1067 674.435 47.2C672.942 46.2933 671.795 45.0533 670.995 43.48C670.195 41.88 669.795 40.0667 669.795 38.04C669.795 36.0133 670.195 34.2 670.995 32.6C671.795 30.9733 672.942 29.7067 674.435 28.8C675.955 27.8933 677.755 27.44 679.835 27.44C680.929 27.44 681.995 27.6267 683.035 28C684.075 28.3733 685.035 28.8933 685.915 29.56V28ZM680.595 43.12C682.089 43.12 683.342 42.64 684.355 41.68C685.369 40.72 685.875 39.48 685.875 37.96C685.875 36.4933 685.369 35.2933 684.355 34.36C683.342 33.4267 682.089 32.96 680.595 32.96C679.102 32.96 677.875 33.4267 676.915 34.36C675.955 35.2933 675.475 36.52 675.475 38.04C675.475 39.56 675.955 40.7867 676.915 41.72C677.875 42.6533 679.102 43.12 680.595 43.12ZM703.427 40.88C703.427 41.6267 703.627 42.1467 704.027 42.44C704.454 42.7333 705.094 42.88 705.947 42.88C706.48 42.88 707.067 42.84 707.707 42.76V48C706.374 48.1333 705.267 48.2 704.387 48.2C702.147 48.2 700.467 47.7067 699.347 46.72C698.254 45.7067 697.707 43.88 697.707 41.24V33.08H694.267V28H697.707V23.36L703.427 21.44V28H707.627V33.08H703.427V40.88ZM726.267 28H731.947V48H726.267V46.48C725.387 47.1467 724.414 47.6533 723.347 48C722.307 48.3733 721.254 48.56 720.187 48.56C718.107 48.56 716.307 48.1067 714.787 47.2C713.294 46.2933 712.147 45.0533 711.347 43.48C710.547 41.88 710.147 40.0667 710.147 38.04C710.147 36.0133 710.547 34.2 711.347 32.6C712.147 30.9733 713.294 29.7067 714.787 28.8C716.307 27.8933 718.107 27.44 720.187 27.44C721.28 27.44 722.347 27.6267 723.387 28C724.427 28.3733 725.387 28.8933 726.267 29.56V28ZM720.947 43.12C722.44 43.12 723.694 42.64 724.707 41.68C725.72 40.72 726.227 39.48 726.227 37.96C726.227 36.4933 725.72 35.2933 724.707 34.36C723.694 33.4267 722.44 32.96 720.947 32.96C719.454 32.96 718.227 33.4267 717.267 34.36C716.307 35.2933 715.827 36.52 715.827 38.04C715.827 39.56 716.307 40.7867 717.267 41.72C718.227 42.6533 719.454 43.12 720.947 43.12ZM749.406 27.6L749.006 33C748.82 32.92 748.513 32.88 748.086 32.88C746.46 32.88 745.126 33.3467 744.086 34.28C743.073 35.1867 742.566 36.3867 742.566 37.88V48H736.846V28H742.566V31.24C743.046 30.2 743.82 29.3333 744.886 28.64C745.953 27.9467 747.246 27.6 748.766 27.6H749.406Z" fill="#EAEAEA"/>
<path d="M47.2799 0.696279C48.8447 2.14924 50.8167 9.04855 51.562 11.3535C52.7262 14.9541 53.7031 17.8834 55.1769 21.3565C56.3528 24.1258 56.8354 28.5849 59.368 30.3786C61.016 31.5467 63.9727 32.0046 64.3929 34.5034C64.8351 37.1349 64.1522 39.8509 62.6576 42.0193C62.0723 42.8687 60.3201 44.3555 60.181 45.2348C59.6606 48.514 62.0306 51.9988 61.5403 55.3288C61.1955 57.6754 59.8844 58.7901 57.5443 57.799C56.8432 57.5024 56.2292 56.5242 55.2822 57.0016C53.9385 58.4389 55.4995 60.3498 53.8657 61.6844C53.0995 62.3113 52.163 62.3426 51.2095 62.0915C49.897 61.7468 49.2961 59.7137 47.6987 60.1937C47.1186 60.368 43.6416 64.5214 42.6725 65.3382C38.9627 68.4679 33.4878 70.8652 28.6268 69.4032C26.4233 68.7411 23.0191 65.9327 21.3034 64.3223C20.3343 63.4131 17.5728 59.9335 16.6362 59.633C14.6174 58.9866 14.5446 61.661 13.7849 62.4987C13.0734 63.2843 11.9079 63.2843 11.0611 62.7653C9.20882 61.6297 9.84489 57.7912 8.97208 57.5258C7.80398 57.1694 6.65019 60.7998 4.36733 59.144C3.07176 58.2035 3.09258 55.7997 3.18884 54.3558C3.41908 50.9244 5.74745 47.2874 3.56996 44.0368C1.61099 41.1113 -0.68617 40.3894 0.193153 36.1255C0.752486 33.412 3.24998 32.616 4.83042 30.8001C6.83101 28.5016 8.24884 24.6682 9.534 21.8846C11.8637 16.835 12.1499 12.0598 14.1804 7.01934C14.6109 5.95141 16.5374 1.68747 17.1474 1.04229C18.0411 0.0979235 19.0127 0.0237792 20.0716 0.739205C21.8302 1.92941 23.9453 8.41507 25.0665 10.5835C25.8327 12.065 26.9228 14.2334 28.7334 14.439C30.2111 14.6068 35.9605 14.6289 37.1807 14.1372C38.8092 13.4816 39.7406 9.67942 40.3936 8.20305C40.8228 7.23397 41.4888 6.38326 41.8934 5.4337C42.4943 4.02106 42.6075 2.22079 43.6039 1.04619C44.6003 -0.128411 46.0936 -0.408078 47.2812 0.693678L47.2799 0.696279ZM18.8189 8.99262C16.9029 9.4674 16.1185 14.7355 16.4307 16.3654C16.7286 17.9237 19.178 16.3875 20.0209 15.8984C21.9135 14.798 22.0045 14.8617 21.453 12.5697C21.2084 11.5564 20.1301 8.66742 18.8189 8.99131V8.99262ZM44.5535 9.41407C43.877 10.0619 42.8898 13.9108 43.172 14.8565C43.6169 16.3459 47.86 18.5312 48.327 16.9403C48.7068 15.6513 47.782 10.7669 46.8519 9.75877C46.3264 9.19033 45.144 8.84823 44.5535 9.41407ZM27.4131 49.3855C27.5276 44.3073 25.1056 34.48 19.6748 32.6303C15.3979 31.1734 12.7443 35.7222 12.3814 39.354C11.8897 44.2696 13.1983 48.7209 16.138 52.6193C19.0648 56.4982 24.3641 63.0268 28.6242 65.1418C34.0458 67.8344 38.9549 64.8439 42.3499 60.5436C47.3436 54.2179 52.8849 47.7609 52.2436 39.1185C51.8443 33.7385 47.2265 28.9075 42.5685 33.9428C39.0356 37.7618 37.5267 44.3242 37.1781 49.3855C37.0207 49.569 34.9823 48.1576 34.5934 48.0067C32.174 47.0637 30.6833 47.6607 28.5656 48.8106C28.1832 49.0187 27.9907 49.5312 27.4145 49.3855H27.4131Z" fill="white"/>
<path d="M27.4136 49.3847C27.9898 49.5304 28.1823 49.0179 28.5648 48.8098C30.6824 47.6599 32.1731 47.0628 34.5925 48.0059C34.9815 48.1568 37.0198 49.5694 37.1772 49.3847C37.5258 44.3234 39.0334 37.761 42.5676 33.9419C47.2257 28.9066 51.8434 33.7377 52.2427 39.1177C52.8853 47.76 47.3427 54.2171 42.3491 60.5427C38.954 64.8431 34.0462 67.8336 28.6233 65.141C24.3632 63.0259 19.0639 56.4986 16.1372 52.6184C13.1961 48.72 11.8888 44.2688 12.3805 39.3531C12.7434 35.7214 15.397 31.1726 19.674 32.6294C25.1047 34.4791 27.5267 44.3065 27.4123 49.3847H27.4136ZM21.2531 36.416C19.9692 36.6111 19.5374 39.8956 19.4788 40.957C19.406 42.2721 19.5712 47.5948 21.4053 47.6807C22.7906 47.7444 23.268 45.0414 23.35 44.0099C23.4592 42.6207 23.6361 36.0544 21.2531 36.416ZM43.6368 36.4147C43.2362 36.4901 43.0398 36.7282 42.829 37.0482C41.6909 38.7717 41.7169 45.1325 42.8316 46.8898C43.7773 48.3805 44.8049 47.5792 45.3252 46.2459C46.1382 44.1647 46.0927 39.4962 45.1509 37.4631C44.84 36.7919 44.5044 36.2508 43.6368 36.4147Z" fill="black"/>
<path d="M44.554 9.4149C45.1458 8.84906 46.3269 9.19117 46.8524 9.7596C47.7838 10.7677 48.7073 15.6521 48.3275 16.9412C47.8592 18.532 43.6174 16.3467 43.1725 14.8573C42.8903 13.9117 43.8776 10.0627 44.554 9.4149Z" fill="black"/>
<path d="M18.8181 8.99217C20.1292 8.66698 21.2076 11.556 21.4521 12.5706C22.005 14.8626 21.9126 14.7988 20.02 15.8993C19.1771 16.3897 16.7277 17.9246 16.4298 16.3663C16.1177 14.7351 16.902 9.46696 18.8181 8.99347V8.99217Z" fill="black"/>
<path d="M43.6367 36.4147C44.5056 36.2495 44.8399 36.7907 45.1508 37.4632C46.0939 39.4963 46.1381 44.1661 45.3251 46.246C44.8048 47.5793 43.7772 48.3806 42.8315 46.8899C41.7155 45.1325 41.6895 38.7717 42.8289 37.0482C43.0397 36.7282 43.2361 36.4915 43.6367 36.4147Z" fill="white"/>
<path d="M21.2527 36.4167C23.6357 36.0551 23.4601 42.6214 23.3495 44.0106C23.2676 45.0422 22.7902 47.7452 21.4048 47.6814C19.5694 47.5969 19.4056 42.2728 19.4784 40.9577C19.5369 39.8976 19.9688 36.6118 21.2527 36.4167Z" fill="white"/>
<path d="M28.429 54.4453L31.08 58.6039C31.4781 58.9447 32.014 59.8318 32.5837 59.7421L36.3625 54.95L36.0581 54.4453H28.4277H28.429Z" fill="white"/>
</svg>
