<svg width="1139" height="70" viewBox="0 0 1139 70" fill="none" xmlns="http://www.w3.org/2000/svg">
<path d="M109.84 20V25.68H98.72V31.32H109.44V37H98.72V48H92.72V20H109.84ZM122.584 48.6C120.664 48.6 118.891 48.1333 117.264 47.2C115.664 46.24 114.384 44.9467 113.424 43.32C112.491 41.6933 112.024 39.9333 112.024 38.04C112.024 36.12 112.491 34.36 113.424 32.76C114.384 31.1333 115.664 29.8533 117.264 28.92C118.891 27.96 120.664 27.48 122.584 27.48C124.477 27.48 126.224 27.96 127.824 28.92C129.451 29.8533 130.731 31.1333 131.664 32.76C132.624 34.36 133.104 36.12 133.104 38.04C133.104 39.9333 132.624 41.6933 131.664 43.32C130.731 44.9467 129.451 46.24 127.824 47.2C126.224 48.1333 124.477 48.6 122.584 48.6ZM122.544 42.88C123.877 42.88 125.024 42.4133 125.984 41.48C126.944 40.52 127.424 39.3733 127.424 38.04C127.424 36.7067 126.944 35.56 125.984 34.6C125.024 33.64 123.877 33.16 122.544 33.16C121.211 33.16 120.064 33.64 119.104 34.6C118.171 35.56 117.704 36.7067 117.704 38.04C117.704 39.3733 118.171 40.52 119.104 41.48C120.064 42.4133 121.211 42.88 122.544 42.88ZM145.592 48.6C143.672 48.6 141.899 48.1333 140.272 47.2C138.672 46.24 137.392 44.9467 136.432 43.32C135.499 41.6933 135.032 39.9333 135.032 38.04C135.032 36.12 135.499 34.36 136.432 32.76C137.392 31.1333 138.672 29.8533 140.272 28.92C141.899 27.96 143.672 27.48 145.592 27.48C147.485 27.48 149.232 27.96 150.832 28.92C152.459 29.8533 153.739 31.1333 154.672 32.76C155.632 34.36 156.112 36.12 156.112 38.04C156.112 39.9333 155.632 41.6933 154.672 43.32C153.739 44.9467 152.459 46.24 150.832 47.2C149.232 48.1333 147.485 48.6 145.592 48.6ZM145.552 42.88C146.885 42.88 148.032 42.4133 148.992 41.48C149.952 40.52 150.432 39.3733 150.432 38.04C150.432 36.7067 149.952 35.56 148.992 34.6C148.032 33.64 146.885 33.16 145.552 33.16C144.219 33.16 143.072 33.64 142.112 34.6C141.179 35.56 140.712 36.7067 140.712 38.04C140.712 39.3733 141.179 40.52 142.112 41.48C143.072 42.4133 144.219 42.88 145.552 42.88ZM174.36 20H180.04V48H174.36V46.48C173.48 47.1467 172.52 47.6533 171.48 48C170.466 48.3733 169.413 48.56 168.32 48.56C166.24 48.56 164.44 48.1067 162.92 47.2C161.426 46.2933 160.28 45.0533 159.48 43.48C158.68 41.88 158.28 40.0667 158.28 38.04C158.28 36.0133 158.68 34.2 159.48 32.6C160.28 30.9733 161.426 29.7067 162.92 28.8C164.44 27.8933 166.24 27.44 168.32 27.44C169.386 27.44 170.44 27.6267 171.48 28C172.52 28.3467 173.48 28.8533 174.36 29.52V20ZM169.08 43.12C170.573 43.12 171.826 42.64 172.84 41.68C173.853 40.72 174.36 39.48 174.36 37.96C174.36 36.4933 173.853 35.2933 172.84 34.36C171.826 33.4267 170.573 32.96 169.08 32.96C167.586 32.96 166.36 33.4267 165.4 34.36C164.44 35.2933 163.96 36.52 163.96 38.04C163.96 39.56 164.44 40.7867 165.4 41.72C166.36 42.6533 167.586 43.12 169.08 43.12ZM201.493 36.6V42.28H212.853V48H195.493V20H212.613V25.68H201.493V30.88H211.653V36.6H201.493ZM228.82 28H235.78L228.58 38.04L235.78 48L228.78 48.04L225.1 42.92L221.42 48.04L214.42 48L221.62 38.04L214.42 28H221.38L225.1 33.16L228.82 28ZM249.513 27.48C251.593 27.48 253.379 27.9333 254.873 28.84C256.393 29.7467 257.553 31 258.353 32.6C259.153 34.1733 259.553 35.9733 259.553 38C259.553 40.0267 259.153 41.84 258.353 43.44C257.553 45.04 256.393 46.3067 254.873 47.24C253.379 48.1467 251.593 48.6 249.513 48.6C248.446 48.6 247.393 48.4133 246.353 48.04C245.313 47.6933 244.353 47.1867 243.473 46.52V56H237.753V28H243.473V29.56C244.353 28.8933 245.299 28.3867 246.313 28.04C247.353 27.6667 248.419 27.48 249.513 27.48ZM248.753 43.04C250.246 43.04 251.459 42.5867 252.393 41.68C253.353 40.7467 253.833 39.52 253.833 38C253.833 36.48 253.353 35.2533 252.393 34.32C251.459 33.3867 250.246 32.92 248.753 32.92C247.259 32.92 246.006 33.4 244.993 34.36C243.979 35.32 243.473 36.5467 243.473 38.04C243.473 39.5333 243.966 40.7467 244.953 41.68C245.966 42.5867 247.233 43.04 248.753 43.04ZM268.551 41.68C268.551 42.1067 268.644 42.4133 268.831 42.6C269.044 42.7867 269.391 42.88 269.871 42.88C270.217 42.88 270.631 42.84 271.111 42.76V48C269.804 48.1867 268.791 48.28 268.071 48.28C266.337 48.28 265.031 47.8267 264.151 46.92C263.271 45.9867 262.831 44.36 262.831 42.04V20H268.551V41.68ZM282.897 48.6C280.977 48.6 279.203 48.1333 277.577 47.2C275.977 46.24 274.697 44.9467 273.737 43.32C272.803 41.6933 272.337 39.9333 272.337 38.04C272.337 36.12 272.803 34.36 273.737 32.76C274.697 31.1333 275.977 29.8533 277.577 28.92C279.203 27.96 280.977 27.48 282.897 27.48C284.79 27.48 286.537 27.96 288.137 28.92C289.763 29.8533 291.043 31.1333 291.977 32.76C292.937 34.36 293.417 36.12 293.417 38.04C293.417 39.9333 292.937 41.6933 291.977 43.32C291.043 44.9467 289.763 46.24 288.137 47.2C286.537 48.1333 284.79 48.6 282.897 48.6ZM282.857 42.88C284.19 42.88 285.337 42.4133 286.297 41.48C287.257 40.52 287.737 39.3733 287.737 38.04C287.737 36.7067 287.257 35.56 286.297 34.6C285.337 33.64 284.19 33.16 282.857 33.16C281.523 33.16 280.377 33.64 279.417 34.6C278.483 35.56 278.017 36.7067 278.017 38.04C278.017 39.3733 278.483 40.52 279.417 41.48C280.377 42.4133 281.523 42.88 282.857 42.88ZM308.984 27.6L308.584 33C308.398 32.92 308.091 32.88 307.664 32.88C306.038 32.88 304.704 33.3467 303.664 34.28C302.651 35.1867 302.144 36.3867 302.144 37.88V48H296.424V28H302.144V31.24C302.624 30.2 303.398 29.3333 304.464 28.64C305.531 27.9467 306.824 27.6 308.344 27.6H308.984ZM320.553 27.48C322.499 27.48 324.233 27.9467 325.753 28.88C327.299 29.8133 328.499 31.08 329.353 32.68C330.206 34.28 330.633 36.0533 330.633 38C330.633 38.7467 330.579 39.4267 330.473 40.04H315.673C316.179 41.2667 316.859 42.1867 317.713 42.8C318.566 43.3867 319.673 43.68 321.033 43.68C321.859 43.68 322.659 43.5067 323.433 43.16C324.233 42.8133 324.859 42.3467 325.313 41.76L329.633 44.32C328.699 45.68 327.486 46.72 325.993 47.44C324.526 48.16 322.833 48.52 320.913 48.52C318.753 48.52 316.846 48.0667 315.193 47.16C313.539 46.2267 312.259 44.96 311.353 43.36C310.446 41.76 309.993 39.9733 309.993 38C309.993 36.0267 310.433 34.24 311.313 32.64C312.219 31.04 313.473 29.7867 315.073 28.88C316.673 27.9467 318.499 27.48 320.553 27.48ZM325.273 35.6C325.086 34.5867 324.553 33.8 323.673 33.24C322.819 32.68 321.766 32.4 320.513 32.4C319.206 32.4 318.073 32.72 317.113 33.36C316.153 33.9733 315.646 34.72 315.593 35.6H325.273ZM346.172 27.6L345.772 33C345.585 32.92 345.279 32.88 344.852 32.88C343.225 32.88 341.892 33.3467 340.852 34.28C339.839 35.1867 339.332 36.3867 339.332 37.88V48H333.612V28H339.332V31.24C339.812 30.2 340.585 29.3333 341.652 28.64C342.719 27.9467 344.012 27.6 345.532 27.6H346.172ZM376.91 20V25.68H365.79V31.32H376.51V37H365.79V48H359.79V20H376.91ZM389.576 27.48C391.523 27.48 393.256 27.9467 394.776 28.88C396.323 29.8133 397.523 31.08 398.376 32.68C399.23 34.28 399.656 36.0533 399.656 38C399.656 38.7467 399.603 39.4267 399.496 40.04H384.696C385.203 41.2667 385.883 42.1867 386.736 42.8C387.59 43.3867 388.696 43.68 390.056 43.68C390.883 43.68 391.683 43.5067 392.456 43.16C393.256 42.8133 393.883 42.3467 394.336 41.76L398.656 44.32C397.723 45.68 396.51 46.72 395.016 47.44C393.55 48.16 391.856 48.52 389.936 48.52C387.776 48.52 385.87 48.0667 384.216 47.16C382.563 46.2267 381.283 44.96 380.376 43.36C379.47 41.76 379.016 39.9733 379.016 38C379.016 36.0267 379.456 34.24 380.336 32.64C381.243 31.04 382.496 29.7867 384.096 28.88C385.696 27.9467 387.523 27.48 389.576 27.48ZM394.296 35.6C394.11 34.5867 393.576 33.8 392.696 33.24C391.843 32.68 390.79 32.4 389.536 32.4C388.23 32.4 387.096 32.72 386.136 33.36C385.176 33.9733 384.67 34.72 384.616 35.6H394.296ZM417.915 28H423.595V48H417.915V46.48C417.035 47.1467 416.062 47.6533 414.995 48C413.955 48.3733 412.902 48.56 411.835 48.56C409.755 48.56 407.955 48.1067 406.435 47.2C404.942 46.2933 403.795 45.0533 402.995 43.48C402.195 41.88 401.795 40.0667 401.795 38.04C401.795 36.0133 402.195 34.2 402.995 32.6C403.795 30.9733 404.942 29.7067 406.435 28.8C407.955 27.8933 409.755 27.44 411.835 27.44C412.929 27.44 413.995 27.6267 415.035 28C416.075 28.3733 417.035 28.8933 417.915 29.56V28ZM412.595 43.12C414.089 43.12 415.342 42.64 416.355 41.68C417.369 40.72 417.875 39.48 417.875 37.96C417.875 36.4933 417.369 35.2933 416.355 34.36C415.342 33.4267 414.089 32.96 412.595 32.96C411.102 32.96 409.875 33.4267 408.915 34.36C407.955 35.2933 407.475 36.52 407.475 38.04C407.475 39.56 407.955 40.7867 408.915 41.72C409.875 42.6533 411.102 43.12 412.595 43.12ZM435.427 40.88C435.427 41.6267 435.627 42.1467 436.027 42.44C436.454 42.7333 437.094 42.88 437.947 42.88C438.48 42.88 439.067 42.84 439.707 42.76V48C438.374 48.1333 437.267 48.2 436.387 48.2C434.147 48.2 432.467 47.7067 431.347 46.72C430.254 45.7067 429.707 43.88 429.707 41.24V33.08H426.267V28H429.707V23.36L435.427 21.44V28H439.627V33.08H435.427V40.88ZM455.577 28H461.297V48H455.577V46.64C454.057 47.92 452.443 48.56 450.737 48.56C449.563 48.56 448.377 48.3067 447.177 47.8C445.977 47.2933 444.95 46.4 444.097 45.12C443.243 43.84 442.817 42.12 442.817 39.96V28H448.537V39.96C448.537 41.2133 448.897 42.1333 449.617 42.72C450.337 43.28 451.19 43.56 452.177 43.56C453.137 43.56 453.937 43.2133 454.577 42.52C455.243 41.8267 455.577 40.72 455.577 39.2V28ZM478.75 27.6L478.35 33C478.163 32.92 477.857 32.88 477.43 32.88C475.803 32.88 474.47 33.3467 473.43 34.28C472.417 35.1867 471.91 36.3867 471.91 37.88V48H466.19V28H471.91V31.24C472.39 30.2 473.163 29.3333 474.23 28.64C475.297 27.9467 476.59 27.6 478.11 27.6H478.75ZM490.318 27.48C492.265 27.48 493.998 27.9467 495.518 28.88C497.065 29.8133 498.265 31.08 499.118 32.68C499.972 34.28 500.398 36.0533 500.398 38C500.398 38.7467 500.345 39.4267 500.238 40.04H485.438C485.945 41.2667 486.625 42.1867 487.478 42.8C488.332 43.3867 489.438 43.68 490.798 43.68C491.625 43.68 492.425 43.5067 493.198 43.16C493.998 42.8133 494.625 42.3467 495.078 41.76L499.398 44.32C498.465 45.68 497.252 46.72 495.758 47.44C494.292 48.16 492.598 48.52 490.678 48.52C488.518 48.52 486.612 48.0667 484.958 47.16C483.305 46.2267 482.025 44.96 481.118 43.36C480.212 41.76 479.758 39.9733 479.758 38C479.758 36.0267 480.198 34.24 481.078 32.64C481.985 31.04 483.238 29.7867 484.838 28.88C486.438 27.9467 488.265 27.48 490.318 27.48ZM495.038 35.6C494.852 34.5867 494.318 33.8 493.438 33.24C492.585 32.68 491.532 32.4 490.278 32.4C488.972 32.4 487.838 32.72 486.878 33.36C485.918 33.9733 485.412 34.72 485.358 35.6H495.038ZM525.113 20C526.82 20 528.38 20.4133 529.793 21.24C531.206 22.0667 532.326 23.2 533.153 24.64C534.006 26.0533 534.433 27.6133 534.433 29.32C534.433 31 534.006 32.56 533.153 34C532.326 35.4133 531.193 36.5467 529.753 37.4C528.34 38.2267 526.793 38.64 525.113 38.64H520.673V48H514.673V20H525.113ZM525.113 32.92C526.1 32.92 526.94 32.5733 527.633 31.88C528.353 31.16 528.713 30.3067 528.713 29.32C528.713 28.3067 528.366 27.4533 527.673 26.76C526.98 26.0667 526.126 25.72 525.113 25.72H520.673V32.92H525.113ZM550.391 27.6L549.991 33C549.804 32.92 549.497 32.88 549.071 32.88C547.444 32.88 546.111 33.3467 545.071 34.28C544.057 35.1867 543.551 36.3867 543.551 37.88V48H537.831V28H543.551V31.24C544.031 30.2 544.804 29.3333 545.871 28.64C546.937 27.9467 548.231 27.6 549.751 27.6H550.391ZM561.842 48.6C559.922 48.6 558.149 48.1333 556.522 47.2C554.922 46.24 553.642 44.9467 552.682 43.32C551.749 41.6933 551.282 39.9333 551.282 38.04C551.282 36.12 551.749 34.36 552.682 32.76C553.642 31.1333 554.922 29.8533 556.522 28.92C558.149 27.96 559.922 27.48 561.842 27.48C563.735 27.48 565.482 27.96 567.082 28.92C568.709 29.8533 569.989 31.1333 570.922 32.76C571.882 34.36 572.362 36.12 572.362 38.04C572.362 39.9333 571.882 41.6933 570.922 43.32C569.989 44.9467 568.709 46.24 567.082 47.2C565.482 48.1333 563.735 48.6 561.842 48.6ZM561.802 42.88C563.135 42.88 564.282 42.4133 565.242 41.48C566.202 40.52 566.682 39.3733 566.682 38.04C566.682 36.7067 566.202 35.56 565.242 34.6C564.282 33.64 563.135 33.16 561.802 33.16C560.469 33.16 559.322 33.64 558.362 34.6C557.429 35.56 556.962 36.7067 556.962 38.04C556.962 39.3733 557.429 40.52 558.362 41.48C559.322 42.4133 560.469 42.88 561.802 42.88ZM587.13 27.48C589.21 27.48 590.996 27.9333 592.49 28.84C594.01 29.7467 595.17 31 595.97 32.6C596.77 34.1733 597.17 35.9733 597.17 38C597.17 40.0267 596.77 41.84 595.97 43.44C595.17 45.04 594.01 46.3067 592.49 47.24C590.996 48.1467 589.21 48.6 587.13 48.6C586.063 48.6 585.01 48.4133 583.97 48.04C582.93 47.6933 581.97 47.1867 581.09 46.52V56H575.37V28H581.09V29.56C581.97 28.8933 582.916 28.3867 583.93 28.04C584.97 27.6667 586.036 27.48 587.13 27.48ZM586.37 43.04C587.863 43.04 589.076 42.5867 590.01 41.68C590.97 40.7467 591.45 39.52 591.45 38C591.45 36.48 590.97 35.2533 590.01 34.32C589.076 33.3867 587.863 32.92 586.37 32.92C584.876 32.92 583.623 33.4 582.61 34.36C581.596 35.32 581.09 36.5467 581.09 38.04C581.09 39.5333 581.583 40.7467 582.57 41.68C583.583 42.5867 584.85 43.04 586.37 43.04ZM609.928 48.6C608.008 48.6 606.234 48.1333 604.608 47.2C603.008 46.24 601.728 44.9467 600.768 43.32C599.834 41.6933 599.368 39.9333 599.368 38.04C599.368 36.12 599.834 34.36 600.768 32.76C601.728 31.1333 603.008 29.8533 604.608 28.92C606.234 27.96 608.008 27.48 609.928 27.48C611.821 27.48 613.568 27.96 615.168 28.92C616.794 29.8533 618.074 31.1333 619.008 32.76C619.968 34.36 620.448 36.12 620.448 38.04C620.448 39.9333 619.968 41.6933 619.008 43.32C618.074 44.9467 616.794 46.24 615.168 47.2C613.568 48.1333 611.821 48.6 609.928 48.6ZM609.888 42.88C611.221 42.88 612.368 42.4133 613.328 41.48C614.288 40.52 614.768 39.3733 614.768 38.04C614.768 36.7067 614.288 35.56 613.328 34.6C612.368 33.64 611.221 33.16 609.888 33.16C608.554 33.16 607.408 33.64 606.448 34.6C605.514 35.56 605.048 36.7067 605.048 38.04C605.048 39.3733 605.514 40.52 606.448 41.48C607.408 42.4133 608.554 42.88 609.888 42.88ZM628.576 33.68C628.576 34.1333 628.856 34.48 629.416 34.72C629.976 34.9333 630.869 35.16 632.096 35.4C633.669 35.72 634.976 36.08 636.016 36.48C637.056 36.8533 637.962 37.4933 638.736 38.4C639.536 39.28 639.936 40.5067 639.936 42.08C639.936 43.44 639.522 44.6133 638.696 45.6C637.869 46.56 636.776 47.2933 635.416 47.8C634.056 48.28 632.589 48.52 631.016 48.52C628.856 48.52 627.016 48.1333 625.496 47.36C623.976 46.56 622.829 45.3867 622.056 43.84L626.736 41.44C627.376 43.1467 628.802 44 631.016 44C631.922 44 632.709 43.84 633.376 43.52C634.069 43.1733 634.416 42.6933 634.416 42.08C634.416 41.5467 634.096 41.1467 633.456 40.88C632.842 40.6133 631.856 40.3333 630.496 40.04C628.949 39.6933 627.656 39.3333 626.616 38.96C625.576 38.56 624.682 37.96 623.936 37.16C623.189 36.3333 622.816 35.24 622.816 33.88C622.816 32.5733 623.189 31.44 623.936 30.48C624.682 29.4933 625.682 28.7467 626.936 28.24C628.216 27.7333 629.602 27.48 631.096 27.48C632.856 27.48 634.442 27.84 635.856 28.56C637.269 29.28 638.376 30.32 639.176 31.68L634.536 33.96C634.216 33.2933 633.776 32.8 633.216 32.48C632.682 32.16 631.976 32 631.096 32C630.322 32 629.709 32.16 629.256 32.48C628.802 32.7733 628.576 33.1733 628.576 33.68ZM658.072 28H663.752V48H658.072V46.48C657.192 47.1467 656.218 47.6533 655.152 48C654.112 48.3733 653.058 48.56 651.992 48.56C649.912 48.56 648.112 48.1067 646.592 47.2C645.098 46.2933 643.952 45.0533 643.152 43.48C642.352 41.88 641.952 40.0667 641.952 38.04C641.952 36.0133 642.352 34.2 643.152 32.6C643.952 30.9733 645.098 29.7067 646.592 28.8C648.112 27.8933 649.912 27.44 651.992 27.44C653.085 27.44 654.152 27.6267 655.192 28C656.232 28.3733 657.192 28.8933 658.072 29.56V28ZM652.752 43.12C654.245 43.12 655.498 42.64 656.512 41.68C657.525 40.72 658.032 39.48 658.032 37.96C658.032 36.4933 657.525 35.2933 656.512 34.36C655.498 33.4267 654.245 32.96 652.752 32.96C651.258 32.96 650.032 33.4267 649.072 34.36C648.112 35.2933 647.632 36.52 647.632 38.04C647.632 39.56 648.112 40.7867 649.072 41.72C650.032 42.6533 651.258 43.12 652.752 43.12ZM673.824 41.68C673.824 42.1067 673.917 42.4133 674.104 42.6C674.317 42.7867 674.664 42.88 675.144 42.88C675.491 42.88 675.904 42.84 676.384 42.76V48C675.077 48.1867 674.064 48.28 673.344 48.28C671.611 48.28 670.304 47.8267 669.424 46.92C668.544 45.9867 668.104 44.36 668.104 42.04V20H673.824V41.68ZM695.973 51.76C693.973 49.6533 692.373 46.9867 691.173 43.76C689.999 40.5333 689.413 37.3067 689.413 34.08C689.413 30.8533 689.999 27.6267 691.173 24.4C692.373 21.1467 693.973 18.48 695.973 16.4L699.533 19.12C698.119 21.6533 697.093 24.08 696.453 26.4C695.839 28.6933 695.533 31.2533 695.533 34.08C695.533 36.9067 695.839 39.48 696.453 41.8C697.093 44.12 698.119 46.5067 699.533 48.96L695.973 51.76ZM702.954 48V20H708.994V48H702.954ZM724.094 27.44C725.267 27.44 726.454 27.6933 727.654 28.2C728.854 28.7067 729.88 29.6 730.734 30.88C731.587 32.16 732.014 33.88 732.014 36.04V48H726.294V36.04C726.294 34.76 725.934 33.84 725.214 33.28C724.52 32.72 723.68 32.44 722.694 32.44C721.707 32.44 720.88 32.7867 720.214 33.48C719.574 34.1733 719.254 35.28 719.254 36.8V48H713.534V28H719.254V29.36C720.774 28.08 722.387 27.44 724.094 27.44ZM742.966 40.88C742.966 41.6267 743.166 42.1467 743.566 42.44C743.993 42.7333 744.633 42.88 745.486 42.88C746.019 42.88 746.606 42.84 747.246 42.76V48C745.913 48.1333 744.806 48.2 743.926 48.2C741.686 48.2 740.006 47.7067 738.886 46.72C737.793 45.7067 737.246 43.88 737.246 41.24V33.08H733.806V28H737.246V23.36L742.966 21.44V28H747.166V33.08H742.966V40.88ZM759.928 27.48C761.874 27.48 763.608 27.9467 765.128 28.88C766.674 29.8133 767.874 31.08 768.728 32.68C769.581 34.28 770.008 36.0533 770.008 38C770.008 38.7467 769.954 39.4267 769.848 40.04H755.048C755.554 41.2667 756.234 42.1867 757.088 42.8C757.941 43.3867 759.048 43.68 760.408 43.68C761.234 43.68 762.034 43.5067 762.808 43.16C763.608 42.8133 764.234 42.3467 764.688 41.76L769.008 44.32C768.074 45.68 766.861 46.72 765.368 47.44C763.901 48.16 762.208 48.52 760.288 48.52C758.128 48.52 756.221 48.0667 754.568 47.16C752.914 46.2267 751.634 44.96 750.728 43.36C749.821 41.76 749.368 39.9733 749.368 38C749.368 36.0267 749.808 34.24 750.688 32.64C751.594 31.04 752.848 29.7867 754.448 28.88C756.048 27.9467 757.874 27.48 759.928 27.48ZM764.648 35.6C764.461 34.5867 763.928 33.8 763.048 33.24C762.194 32.68 761.141 32.4 759.888 32.4C758.581 32.4 757.448 32.72 756.488 33.36C755.528 33.9733 755.021 34.72 754.968 35.6H764.648ZM785.547 27.6L785.147 33C784.96 32.92 784.654 32.88 784.227 32.88C782.6 32.88 781.267 33.3467 780.227 34.28C779.214 35.1867 778.707 36.3867 778.707 37.88V48H772.987V28H778.707V31.24C779.187 30.2 779.96 29.3333 781.027 28.64C782.094 27.9467 783.387 27.6 784.907 27.6H785.547ZM799.211 27.44C800.384 27.44 801.571 27.6933 802.771 28.2C803.971 28.7067 804.998 29.6 805.851 30.88C806.704 32.16 807.131 33.88 807.131 36.04V48H801.411V36.04C801.411 34.76 801.051 33.84 800.331 33.28C799.638 32.72 798.798 32.44 797.811 32.44C796.824 32.44 795.998 32.7867 795.331 33.48C794.691 34.1733 794.371 35.28 794.371 36.8V48H788.651V28H794.371V29.36C795.891 28.08 797.504 27.44 799.211 27.44ZM826.158 28H831.838V48H826.158V46.48C825.278 47.1467 824.304 47.6533 823.238 48C822.198 48.3733 821.144 48.56 820.078 48.56C817.998 48.56 816.198 48.1067 814.678 47.2C813.184 46.2933 812.038 45.0533 811.238 43.48C810.438 41.88 810.038 40.0667 810.038 38.04C810.038 36.0133 810.438 34.2 811.238 32.6C812.038 30.9733 813.184 29.7067 814.678 28.8C816.198 27.8933 817.998 27.44 820.078 27.44C821.171 27.44 822.238 27.6267 823.278 28C824.318 28.3733 825.278 28.8933 826.158 29.56V28ZM820.838 43.12C822.331 43.12 823.584 42.64 824.598 41.68C825.611 40.72 826.118 39.48 826.118 37.96C826.118 36.4933 825.611 35.2933 824.598 34.36C823.584 33.4267 822.331 32.96 820.838 32.96C819.344 32.96 818.118 33.4267 817.158 34.36C816.198 35.2933 815.718 36.52 815.718 38.04C815.718 39.56 816.198 40.7867 817.158 41.72C818.118 42.6533 819.344 43.12 820.838 43.12ZM841.91 41.68C841.91 42.1067 842.003 42.4133 842.19 42.6C842.403 42.7867 842.75 42.88 843.23 42.88C843.577 42.88 843.99 42.84 844.47 42.76V48C843.163 48.1867 842.15 48.28 841.43 48.28C839.697 48.28 838.39 47.8267 837.51 46.92C836.63 45.9867 836.19 44.36 836.19 42.04V20H841.91V41.68ZM864.618 36.6V42.28H875.978V48H858.618V20H875.738V25.68H864.618V30.88H874.778V36.6H864.618ZM902.865 27.44C904.038 27.44 905.225 27.6933 906.425 28.2C907.625 28.7067 908.651 29.6 909.505 30.88C910.358 32.16 910.785 33.88 910.785 36.04V48H905.105V36.04C905.105 34.76 904.745 33.84 904.025 33.28C903.305 32.72 902.451 32.44 901.465 32.44C900.638 32.44 899.918 32.6933 899.305 33.2C898.718 33.68 898.331 34.44 898.145 35.48V36.04V48H892.425V36.04C892.425 34.76 892.065 33.84 891.345 33.28C890.625 32.72 889.771 32.44 888.785 32.44C887.958 32.44 887.238 32.6933 886.625 33.2C886.011 33.7067 885.625 34.52 885.465 35.64V48H879.745V28H885.465V29.28C886.931 28.0533 888.518 27.44 890.225 27.44C891.398 27.44 892.585 27.6933 893.785 28.2C895.011 28.7067 896.011 29.5467 896.785 30.72C897.478 29.7867 898.358 29.0133 899.425 28.4C900.491 27.76 901.638 27.44 902.865 27.44ZM926.27 27.48C928.35 27.48 930.137 27.9333 931.63 28.84C933.15 29.7467 934.31 31 935.11 32.6C935.91 34.1733 936.31 35.9733 936.31 38C936.31 40.0267 935.91 41.84 935.11 43.44C934.31 45.04 933.15 46.3067 931.63 47.24C930.137 48.1467 928.35 48.6 926.27 48.6C925.204 48.6 924.15 48.4133 923.11 48.04C922.07 47.6933 921.11 47.1867 920.23 46.52V56H914.51V28H920.23V29.56C921.11 28.8933 922.057 28.3867 923.07 28.04C924.11 27.6667 925.177 27.48 926.27 27.48ZM925.51 43.04C927.004 43.04 928.217 42.5867 929.15 41.68C930.11 40.7467 930.59 39.52 930.59 38C930.59 36.48 930.11 35.2533 929.15 34.32C928.217 33.3867 927.004 32.92 925.51 32.92C924.017 32.92 922.764 33.4 921.75 34.36C920.737 35.32 920.23 36.5467 920.23 38.04C920.23 39.5333 920.724 40.7467 921.71 41.68C922.724 42.5867 923.99 43.04 925.51 43.04ZM945.308 41.68C945.308 42.1067 945.402 42.4133 945.588 42.6C945.802 42.7867 946.148 42.88 946.628 42.88C946.975 42.88 947.388 42.84 947.868 42.76V48C946.562 48.1867 945.548 48.28 944.828 48.28C943.095 48.28 941.788 47.8267 940.908 46.92C940.028 45.9867 939.588 44.36 939.588 42.04V20H945.308V41.68ZM959.654 48.6C957.734 48.6 955.961 48.1333 954.334 47.2C952.734 46.24 951.454 44.9467 950.494 43.32C949.561 41.6933 949.094 39.9333 949.094 38.04C949.094 36.12 949.561 34.36 950.494 32.76C951.454 31.1333 952.734 29.8533 954.334 28.92C955.961 27.96 957.734 27.48 959.654 27.48C961.548 27.48 963.294 27.96 964.894 28.92C966.521 29.8533 967.801 31.1333 968.734 32.76C969.694 34.36 970.174 36.12 970.174 38.04C970.174 39.9333 969.694 41.6933 968.734 43.32C967.801 44.9467 966.521 46.24 964.894 47.2C963.294 48.1333 961.548 48.6 959.654 48.6ZM959.614 42.88C960.948 42.88 962.094 42.4133 963.054 41.48C964.014 40.52 964.494 39.3733 964.494 38.04C964.494 36.7067 964.014 35.56 963.054 34.6C962.094 33.64 960.948 33.16 959.614 33.16C958.281 33.16 957.134 33.64 956.174 34.6C955.241 35.56 954.774 36.7067 954.774 38.04C954.774 39.3733 955.241 40.52 956.174 41.48C957.134 42.4133 958.281 42.88 959.614 42.88ZM987.043 28H993.003L986.283 47.72C985.163 50.6 983.643 52.7467 981.723 54.16C979.83 55.5733 977.563 56.1867 974.923 56V50.48C975.083 50.5067 975.323 50.52 975.643 50.52C976.763 50.52 977.697 50.2267 978.443 49.64C979.19 49.0533 979.817 48.24 980.323 47.2L971.683 28H977.843L983.083 39.48L987.043 28ZM1003.87 27.48C1005.82 27.48 1007.55 27.9467 1009.07 28.88C1010.62 29.8133 1011.82 31.08 1012.67 32.68C1013.53 34.28 1013.95 36.0533 1013.95 38C1013.95 38.7467 1013.9 39.4267 1013.79 40.04H998.993C999.5 41.2667 1000.18 42.1867 1001.03 42.8C1001.89 43.3867 1002.99 43.68 1004.35 43.68C1005.18 43.68 1005.98 43.5067 1006.75 43.16C1007.55 42.8133 1008.18 42.3467 1008.63 41.76L1012.95 44.32C1012.02 45.68 1010.81 46.72 1009.31 47.44C1007.85 48.16 1006.15 48.52 1004.23 48.52C1002.07 48.52 1000.17 48.0667 998.513 47.16C996.86 46.2267 995.58 44.96 994.673 43.36C993.766 41.76 993.313 39.9733 993.313 38C993.313 36.0267 993.753 34.24 994.633 32.64C995.54 31.04 996.793 29.7867 998.393 28.88C999.993 27.9467 1001.82 27.48 1003.87 27.48ZM1008.59 35.6C1008.41 34.5867 1007.87 33.8 1006.99 33.24C1006.14 32.68 1005.09 32.4 1003.83 32.4C1002.53 32.4 1001.39 32.72 1000.43 33.36C999.473 33.9733 998.966 34.72 998.913 35.6H1008.59ZM1026.41 27.48C1028.36 27.48 1030.09 27.9467 1031.61 28.88C1033.16 29.8133 1034.36 31.08 1035.21 32.68C1036.07 34.28 1036.49 36.0533 1036.49 38C1036.49 38.7467 1036.44 39.4267 1036.33 40.04H1021.53C1022.04 41.2667 1022.72 42.1867 1023.57 42.8C1024.43 43.3867 1025.53 43.68 1026.89 43.68C1027.72 43.68 1028.52 43.5067 1029.29 43.16C1030.09 42.8133 1030.72 42.3467 1031.17 41.76L1035.49 44.32C1034.56 45.68 1033.35 46.72 1031.85 47.44C1030.39 48.16 1028.69 48.52 1026.77 48.52C1024.61 48.52 1022.71 48.0667 1021.05 47.16C1019.4 46.2267 1018.12 44.96 1017.21 43.36C1016.31 41.76 1015.85 39.9733 1015.85 38C1015.85 36.0267 1016.29 34.24 1017.17 32.64C1018.08 31.04 1019.33 29.7867 1020.93 28.88C1022.53 27.9467 1024.36 27.48 1026.41 27.48ZM1031.13 35.6C1030.95 34.5867 1030.41 33.8 1029.53 33.24C1028.68 32.68 1027.63 32.4 1026.37 32.4C1025.07 32.4 1023.93 32.72 1022.97 33.36C1022.01 33.9733 1021.51 34.72 1021.45 35.6H1031.13ZM1075.37 48H1068.97L1067.01 42.72H1056.65L1054.69 48H1048.25L1058.61 20H1065.05L1075.37 48ZM1061.85 28.72L1058.73 37.04H1064.93L1061.85 28.72ZM1089.79 27.48C1091.87 27.48 1093.65 27.9333 1095.15 28.84C1096.67 29.7467 1097.83 31 1098.63 32.6C1099.43 34.1733 1099.83 35.9733 1099.83 38C1099.83 40.0267 1099.43 41.84 1098.63 43.44C1097.83 45.04 1096.67 46.3067 1095.15 47.24C1093.65 48.1467 1091.87 48.6 1089.79 48.6C1088.72 48.6 1087.67 48.4133 1086.63 48.04C1085.59 47.6933 1084.63 47.1867 1083.75 46.52V56H1078.03V28H1083.75V29.56C1084.63 28.8933 1085.57 28.3867 1086.59 28.04C1087.63 27.6667 1088.69 27.48 1089.79 27.48ZM1089.03 43.04C1090.52 43.04 1091.73 42.5867 1092.67 41.68C1093.63 40.7467 1094.11 39.52 1094.11 38C1094.11 36.48 1093.63 35.2533 1092.67 34.32C1091.73 33.3867 1090.52 32.92 1089.03 32.92C1087.53 32.92 1086.28 33.4 1085.27 34.36C1084.25 35.32 1083.75 36.5467 1083.75 38.04C1083.75 39.5333 1084.24 40.7467 1085.23 41.68C1086.24 42.5867 1087.51 43.04 1089.03 43.04ZM1114.86 27.48C1116.94 27.48 1118.73 27.9333 1120.22 28.84C1121.74 29.7467 1122.9 31 1123.7 32.6C1124.5 34.1733 1124.9 35.9733 1124.9 38C1124.9 40.0267 1124.5 41.84 1123.7 43.44C1122.9 45.04 1121.74 46.3067 1120.22 47.24C1118.73 48.1467 1116.94 48.6 1114.86 48.6C1113.8 48.6 1112.74 48.4133 1111.7 48.04C1110.66 47.6933 1109.7 47.1867 1108.82 46.52V56H1103.1V28H1108.82V29.56C1109.7 28.8933 1110.65 28.3867 1111.66 28.04C1112.7 27.6667 1113.77 27.48 1114.86 27.48ZM1114.1 43.04C1115.6 43.04 1116.81 42.5867 1117.74 41.68C1118.7 40.7467 1119.18 39.52 1119.18 38C1119.18 36.48 1118.7 35.2533 1117.74 34.32C1116.81 33.3867 1115.6 32.92 1114.1 32.92C1112.61 32.92 1111.36 33.4 1110.34 34.36C1109.33 35.32 1108.82 36.5467 1108.82 38.04C1108.82 39.5333 1109.32 40.7467 1110.3 41.68C1111.32 42.5867 1112.58 43.04 1114.1 43.04ZM1130.84 16.4C1132.84 18.48 1134.43 21.1467 1135.6 24.4C1136.8 27.6267 1137.4 30.8533 1137.4 34.08C1137.4 37.3067 1136.8 40.5333 1135.6 43.76C1134.43 46.9867 1132.84 49.6533 1130.84 51.76L1127.28 48.96C1128.7 46.5067 1129.71 44.12 1130.32 41.8C1130.96 39.48 1131.28 36.9067 1131.28 34.08C1131.28 31.2533 1130.96 28.6933 1130.32 26.4C1129.71 24.08 1128.7 21.6533 1127.28 19.12L1130.84 16.4Z" fill="#EAEAEA"/>
<path d="M47.2799 0.696279C48.8447 2.14924 50.8167 9.04855 51.562 11.3535C52.7262 14.9541 53.7031 17.8834 55.1769 21.3565C56.3528 24.1258 56.8354 28.5849 59.368 30.3786C61.016 31.5467 63.9727 32.0046 64.3929 34.5034C64.8351 37.1349 64.1522 39.8509 62.6576 42.0193C62.0723 42.8687 60.3201 44.3555 60.181 45.2348C59.6606 48.514 62.0306 51.9988 61.5403 55.3288C61.1955 57.6754 59.8844 58.7901 57.5443 57.799C56.8432 57.5024 56.2292 56.5242 55.2822 57.0016C53.9385 58.4389 55.4995 60.3498 53.8657 61.6844C53.0995 62.3113 52.163 62.3426 51.2095 62.0915C49.897 61.7468 49.2961 59.7137 47.6987 60.1937C47.1186 60.368 43.6416 64.5214 42.6725 65.3382C38.9627 68.4679 33.4878 70.8652 28.6268 69.4032C26.4233 68.7411 23.0191 65.9327 21.3034 64.3223C20.3343 63.4131 17.5728 59.9335 16.6362 59.633C14.6174 58.9866 14.5446 61.661 13.7849 62.4987C13.0734 63.2843 11.9079 63.2843 11.0611 62.7653C9.20882 61.6297 9.84489 57.7912 8.97208 57.5258C7.80398 57.1694 6.65019 60.7998 4.36733 59.144C3.07176 58.2035 3.09258 55.7997 3.18884 54.3558C3.41908 50.9244 5.74745 47.2874 3.56996 44.0368C1.61099 41.1113 -0.68617 40.3894 0.193153 36.1255C0.752486 33.412 3.24998 32.616 4.83042 30.8001C6.83101 28.5016 8.24884 24.6682 9.534 21.8846C11.8637 16.835 12.1499 12.0598 14.1804 7.01934C14.6109 5.95141 16.5374 1.68747 17.1474 1.04229C18.0411 0.0979235 19.0127 0.0237792 20.0716 0.739205C21.8302 1.92941 23.9453 8.41507 25.0665 10.5835C25.8327 12.065 26.9228 14.2334 28.7334 14.439C30.2111 14.6068 35.9605 14.6289 37.1807 14.1372C38.8092 13.4816 39.7406 9.67942 40.3936 8.20305C40.8228 7.23397 41.4888 6.38326 41.8934 5.4337C42.4943 4.02106 42.6075 2.22079 43.6039 1.04619C44.6003 -0.128411 46.0936 -0.408078 47.2812 0.693678L47.2799 0.696279ZM18.8189 8.99262C16.9029 9.4674 16.1185 14.7355 16.4307 16.3654C16.7286 17.9237 19.178 16.3875 20.0209 15.8984C21.9135 14.798 22.0045 14.8617 21.453 12.5697C21.2084 11.5564 20.1301 8.66742 18.8189 8.99131V8.99262ZM44.5535 9.41407C43.877 10.0619 42.8898 13.9108 43.172 14.8565C43.6169 16.3459 47.86 18.5312 48.327 16.9403C48.7068 15.6513 47.782 10.7669 46.8519 9.75877C46.3264 9.19033 45.144 8.84823 44.5535 9.41407ZM27.4131 49.3855C27.5276 44.3073 25.1056 34.48 19.6748 32.6303C15.3979 31.1734 12.7443 35.7222 12.3814 39.354C11.8897 44.2696 13.1983 48.7209 16.138 52.6193C19.0648 56.4982 24.3641 63.0268 28.6242 65.1418C34.0458 67.8344 38.9549 64.8439 42.3499 60.5436C47.3436 54.2179 52.8849 47.7609 52.2436 39.1185C51.8443 33.7385 47.2265 28.9075 42.5685 33.9428C39.0356 37.7618 37.5267 44.3242 37.1781 49.3855C37.0207 49.569 34.9823 48.1576 34.5934 48.0067C32.174 47.0637 30.6833 47.6607 28.5656 48.8106C28.1832 49.0187 27.9907 49.5312 27.4145 49.3855H27.4131Z" fill="white"/>
<path d="M27.4136 49.3857C27.9898 49.5314 28.1823 49.0189 28.5648 48.8107C30.6824 47.6608 32.1731 47.0638 34.5925 48.0069C34.9815 48.1577 37.0198 49.5704 37.1772 49.3857C37.5258 44.3244 39.0334 37.762 42.5676 33.9429C47.2257 28.9076 51.8434 33.7387 52.2427 39.1187C52.8853 47.761 47.3427 54.218 42.3491 60.5437C38.954 64.8441 34.0462 67.8346 28.6233 65.142C24.3632 63.0269 19.0639 56.4996 16.1372 52.6194C13.1961 48.721 11.8888 44.2697 12.3805 39.3541C12.7434 35.7223 15.397 31.1735 19.674 32.6304C25.1047 34.4801 27.5267 44.3075 27.4123 49.3857H27.4136ZM21.2531 36.417C19.9692 36.6121 19.5374 39.8965 19.4788 40.958C19.406 42.273 19.5712 47.5958 21.4053 47.6817C22.7906 47.7454 23.268 45.0424 23.35 44.0109C23.4592 42.6217 23.6361 36.0553 21.2531 36.417ZM43.6368 36.4157C43.2362 36.4911 43.0398 36.7291 42.829 37.0491C41.6909 38.7727 41.7169 45.1334 42.8316 46.8908C43.7773 48.3815 44.8049 47.5802 45.3252 46.2469C46.1382 44.1657 46.0927 39.4972 45.1509 37.4641C44.84 36.7929 44.5044 36.2518 43.6368 36.4157Z" fill="black"/>
<path d="M44.554 9.41392C45.1458 8.84808 46.3269 9.19019 46.8524 9.75863C47.7838 10.7667 48.7073 15.6511 48.3275 16.9402C47.8592 18.531 43.6174 16.3457 43.1725 14.8564C42.8903 13.9107 43.8776 10.0617 44.554 9.41392Z" fill="black"/>
<path d="M18.8181 8.99217C20.1292 8.66698 21.2076 11.556 21.4521 12.5706C22.005 14.8626 21.9126 14.7988 20.02 15.8993C19.1771 16.3897 16.7277 17.9246 16.4298 16.3663C16.1177 14.7351 16.902 9.46696 18.8181 8.99347V8.99217Z" fill="black"/>
<path d="M43.6367 36.4157C44.5056 36.2505 44.8399 36.7916 45.1508 37.4641C46.0939 39.4972 46.1381 44.167 45.3251 46.247C44.8048 47.5803 43.7772 48.3815 42.8315 46.8908C41.7155 45.1335 41.6895 38.7727 42.8289 37.0492C43.0397 36.7292 43.2361 36.4925 43.6367 36.4157Z" fill="white"/>
<path d="M21.2527 36.4167C23.6357 36.0551 23.4601 42.6214 23.3495 44.0106C23.2676 45.0422 22.7902 47.7452 21.4048 47.6814C19.5694 47.5969 19.4056 42.2728 19.4784 40.9577C19.5369 39.8976 19.9688 36.6118 21.2527 36.4167Z" fill="white"/>
<path d="M28.429 54.4453L31.08 58.6039C31.4781 58.9447 32.014 59.8318 32.5837 59.7421L36.3625 54.95L36.0581 54.4453H28.4277H28.429Z" fill="white"/>
</svg>
