<svg width="817" height="70" viewBox="0 0 817 70" fill="none" xmlns="http://www.w3.org/2000/svg">
<path d="M105.142 32.8H120.422V35.32C120.422 37.6933 119.782 39.8933 118.502 41.92C117.222 43.9467 115.489 45.56 113.302 46.76C111.142 47.96 108.795 48.56 106.262 48.56C103.649 48.56 101.235 47.9067 99.0219 46.6C96.8085 45.2933 95.0485 43.5333 93.7419 41.32C92.4619 39.1067 91.8219 36.6933 91.8219 34.08C91.8219 31.4667 92.4619 29.0533 93.7419 26.84C95.0485 24.6267 96.8085 22.88 99.0219 21.6C101.235 20.2933 103.649 19.64 106.262 19.64C108.609 19.64 110.795 20.1733 112.822 21.24C114.875 22.3067 116.569 23.76 117.902 25.6L113.142 29.32C112.395 28.2 111.409 27.32 110.182 26.68C108.982 26.0133 107.675 25.68 106.262 25.68C104.742 25.68 103.329 26.0533 102.022 26.8C100.742 27.5467 99.7285 28.5733 98.9819 29.88C98.2352 31.16 97.8619 32.56 97.8619 34.08C97.8619 35.6 98.2352 37.0133 98.9819 38.32C99.7552 39.6 100.782 40.6267 102.062 41.4C103.342 42.1467 104.742 42.52 106.262 42.52C107.835 42.52 109.249 42.16 110.502 41.44C111.782 40.72 112.769 39.7333 113.462 38.48H105.142V32.8ZM132.928 27.48C134.874 27.48 136.608 27.9467 138.128 28.88C139.674 29.8133 140.874 31.08 141.728 32.68C142.581 34.28 143.008 36.0533 143.008 38C143.008 38.7467 142.954 39.4267 142.848 40.04H128.048C128.554 41.2667 129.234 42.1867 130.088 42.8C130.941 43.3867 132.048 43.68 133.408 43.68C134.234 43.68 135.034 43.5067 135.808 43.16C136.608 42.8133 137.234 42.3467 137.688 41.76L142.008 44.32C141.074 45.68 139.861 46.72 138.368 47.44C136.901 48.16 135.208 48.52 133.288 48.52C131.128 48.52 129.221 48.0667 127.568 47.16C125.914 46.2267 124.634 44.96 123.728 43.36C122.821 41.76 122.368 39.9733 122.368 38C122.368 36.0267 122.808 34.24 123.688 32.64C124.594 31.04 125.848 29.7867 127.448 28.88C129.048 27.9467 130.874 27.48 132.928 27.48ZM137.648 35.6C137.461 34.5867 136.928 33.8 136.048 33.24C135.194 32.68 134.141 32.4 132.888 32.4C131.581 32.4 130.448 32.72 129.488 33.36C128.528 33.9733 128.021 34.72 127.968 35.6H137.648ZM153.271 40.88C153.271 41.6267 153.471 42.1467 153.871 42.44C154.297 42.7333 154.937 42.88 155.791 42.88C156.324 42.88 156.911 42.84 157.551 42.76V48C156.217 48.1333 155.111 48.2 154.231 48.2C151.991 48.2 150.311 47.7067 149.191 46.72C148.097 45.7067 147.551 43.88 147.551 41.24V33.08H144.111V28H147.551V23.36L153.271 21.44V28H157.471V33.08H153.271V40.88ZM169.521 40.88C169.521 41.6267 169.721 42.1467 170.121 42.44C170.547 42.7333 171.187 42.88 172.041 42.88C172.574 42.88 173.161 42.84 173.801 42.76V48C172.467 48.1333 171.361 48.2 170.481 48.2C168.241 48.2 166.561 47.7067 165.441 46.72C164.347 45.7067 163.801 43.88 163.801 41.24V33.08H160.361V28H163.801V23.36L169.521 21.44V28H173.721V33.08H169.521V40.88ZM180.783 25.28C179.716 25.28 178.876 25 178.263 24.44C177.676 23.8533 177.383 23.0667 177.383 22.08C177.383 21.0667 177.676 20.2667 178.263 19.68C178.876 19.0933 179.716 18.8 180.783 18.8C181.823 18.8 182.649 19.0933 183.263 19.68C183.876 20.2667 184.183 21.0667 184.183 22.08C184.183 23.0667 183.876 23.8533 183.263 24.44C182.649 25 181.823 25.28 180.783 25.28ZM177.903 48V28H183.623V48H177.903ZM198.891 27.44C200.064 27.44 201.251 27.6933 202.451 28.2C203.651 28.7067 204.677 29.6 205.531 30.88C206.384 32.16 206.811 33.88 206.811 36.04V48H201.091V36.04C201.091 34.76 200.731 33.84 200.011 33.28C199.317 32.72 198.477 32.44 197.491 32.44C196.504 32.44 195.677 32.7867 195.011 33.48C194.371 34.1733 194.051 35.28 194.051 36.8V48H188.331V28H194.051V29.36C195.571 28.08 197.184 27.44 198.891 27.44ZM225.837 28H231.557V47C231.557 48.8667 231.064 50.52 230.077 51.96C229.117 53.4 227.784 54.52 226.077 55.32C224.371 56.12 222.451 56.52 220.317 56.52C217.997 56.52 215.864 56.0667 213.917 55.16C211.997 54.28 210.651 53.1333 209.877 51.72L214.757 48.88C215.104 49.5733 215.797 50.1467 216.837 50.6C217.877 51.0533 219.091 51.28 220.477 51.28C222.024 51.28 223.304 50.88 224.317 50.08C225.331 49.28 225.837 48.2533 225.837 47V46.48C224.957 47.1467 223.997 47.6533 222.957 48C221.944 48.3733 220.891 48.56 219.797 48.56C217.717 48.56 215.917 48.1067 214.397 47.2C212.904 46.2933 211.757 45.0533 210.957 43.48C210.157 41.88 209.757 40.0667 209.757 38.04C209.757 36.0133 210.157 34.2 210.957 32.6C211.757 30.9733 212.904 29.7067 214.397 28.8C215.917 27.8933 217.717 27.44 219.797 27.44C220.864 27.44 221.917 27.6267 222.957 28C223.997 28.3467 224.957 28.8533 225.837 29.52V28ZM220.557 43.12C222.051 43.12 223.304 42.64 224.317 41.68C225.331 40.72 225.837 39.48 225.837 37.96C225.837 36.4933 225.331 35.2933 224.317 34.36C223.304 33.4267 222.051 32.96 220.557 32.96C219.064 32.96 217.837 33.4267 216.877 34.36C215.944 35.2933 215.477 36.52 215.477 38.04C215.477 39.56 215.944 40.7867 216.877 41.72C217.837 42.6533 219.064 43.12 220.557 43.12ZM258.29 24.88C257.65 24.8 257.063 24.76 256.53 24.76C255.677 24.76 255.037 24.9067 254.61 25.2C254.21 25.4933 254.01 26.0133 254.01 26.76V28H258.25V33.08H254.01V48H248.29V33.08H245.17V28H248.29V26.4C248.29 23.76 248.837 21.9467 249.93 20.96C251.05 19.9467 252.743 19.44 255.01 19.44C255.917 19.44 257.01 19.5067 258.29 19.64V24.88ZM269.686 27.48C271.632 27.48 273.366 27.9467 274.886 28.88C276.432 29.8133 277.632 31.08 278.486 32.68C279.339 34.28 279.766 36.0533 279.766 38C279.766 38.7467 279.712 39.4267 279.606 40.04H264.806C265.312 41.2667 265.992 42.1867 266.846 42.8C267.699 43.3867 268.806 43.68 270.166 43.68C270.992 43.68 271.792 43.5067 272.566 43.16C273.366 42.8133 273.992 42.3467 274.446 41.76L278.766 44.32C277.832 45.68 276.619 46.72 275.126 47.44C273.659 48.16 271.966 48.52 270.046 48.52C267.886 48.52 265.979 48.0667 264.326 47.16C262.672 46.2267 261.392 44.96 260.486 43.36C259.579 41.76 259.126 39.9733 259.126 38C259.126 36.0267 259.566 34.24 260.446 32.64C261.352 31.04 262.606 29.7867 264.206 28.88C265.806 27.9467 267.632 27.48 269.686 27.48ZM274.406 35.6C274.219 34.5867 273.686 33.8 272.806 33.24C271.952 32.68 270.899 32.4 269.646 32.4C268.339 32.4 267.206 32.72 266.246 33.36C265.286 33.9733 264.779 34.72 264.726 35.6H274.406ZM298.025 28H303.705V48H298.025V46.48C297.145 47.1467 296.171 47.6533 295.105 48C294.065 48.3733 293.011 48.56 291.945 48.56C289.865 48.56 288.065 48.1067 286.545 47.2C285.051 46.2933 283.905 45.0533 283.105 43.48C282.305 41.88 281.905 40.0667 281.905 38.04C281.905 36.0133 282.305 34.2 283.105 32.6C283.905 30.9733 285.051 29.7067 286.545 28.8C288.065 27.8933 289.865 27.44 291.945 27.44C293.038 27.44 294.105 27.6267 295.145 28C296.185 28.3733 297.145 28.8933 298.025 29.56V28ZM292.705 43.12C294.198 43.12 295.451 42.64 296.465 41.68C297.478 40.72 297.985 39.48 297.985 37.96C297.985 36.4933 297.478 35.2933 296.465 34.36C295.451 33.4267 294.198 32.96 292.705 32.96C291.211 32.96 289.985 33.4267 289.025 34.36C288.065 35.2933 287.585 36.52 287.585 38.04C287.585 39.56 288.065 40.7867 289.025 41.72C289.985 42.6533 291.211 43.12 292.705 43.12ZM315.536 40.88C315.536 41.6267 315.736 42.1467 316.136 42.44C316.563 42.7333 317.203 42.88 318.056 42.88C318.59 42.88 319.176 42.84 319.816 42.76V48C318.483 48.1333 317.376 48.2 316.496 48.2C314.256 48.2 312.576 47.7067 311.456 46.72C310.363 45.7067 309.816 43.88 309.816 41.24V33.08H306.376V28H309.816V23.36L315.536 21.44V28H319.736V33.08H315.536V40.88ZM335.686 28H341.406V48H335.686V46.64C334.166 47.92 332.553 48.56 330.846 48.56C329.673 48.56 328.486 48.3067 327.286 47.8C326.086 47.2933 325.059 46.4 324.206 45.12C323.353 43.84 322.926 42.12 322.926 39.96V28H328.646V39.96C328.646 41.2133 329.006 42.1333 329.726 42.72C330.446 43.28 331.299 43.56 332.286 43.56C333.246 43.56 334.046 43.2133 334.686 42.52C335.353 41.8267 335.686 40.72 335.686 39.2V28ZM358.859 27.6L358.459 33C358.273 32.92 357.966 32.88 357.539 32.88C355.913 32.88 354.579 33.3467 353.539 34.28C352.526 35.1867 352.019 36.3867 352.019 37.88V48H346.299V28H352.019V31.24C352.499 30.2 353.273 29.3333 354.339 28.64C355.406 27.9467 356.699 27.6 358.219 27.6H358.859ZM370.428 27.48C372.374 27.48 374.108 27.9467 375.628 28.88C377.174 29.8133 378.374 31.08 379.228 32.68C380.081 34.28 380.508 36.0533 380.508 38C380.508 38.7467 380.454 39.4267 380.348 40.04H365.548C366.054 41.2667 366.734 42.1867 367.588 42.8C368.441 43.3867 369.548 43.68 370.908 43.68C371.734 43.68 372.534 43.5067 373.308 43.16C374.108 42.8133 374.734 42.3467 375.188 41.76L379.508 44.32C378.574 45.68 377.361 46.72 375.868 47.44C374.401 48.16 372.708 48.52 370.788 48.52C368.628 48.52 366.721 48.0667 365.068 47.16C363.414 46.2267 362.134 44.96 361.228 43.36C360.321 41.76 359.868 39.9733 359.868 38C359.868 36.0267 360.308 34.24 361.188 32.64C362.094 31.04 363.348 29.7867 364.948 28.88C366.548 27.9467 368.374 27.48 370.428 27.48ZM375.148 35.6C374.961 34.5867 374.428 33.8 373.548 33.24C372.694 32.68 371.641 32.4 370.388 32.4C369.081 32.4 367.948 32.72 366.988 33.36C366.028 33.9733 365.521 34.72 365.468 35.6H375.148ZM398.727 20H404.407V48H398.727V46.48C397.847 47.1467 396.887 47.6533 395.847 48C394.834 48.3733 393.78 48.56 392.687 48.56C390.607 48.56 388.807 48.1067 387.287 47.2C385.794 46.2933 384.647 45.0533 383.847 43.48C383.047 41.88 382.647 40.0667 382.647 38.04C382.647 36.0133 383.047 34.2 383.847 32.6C384.647 30.9733 385.794 29.7067 387.287 28.8C388.807 27.8933 390.607 27.44 392.687 27.44C393.754 27.44 394.807 27.6267 395.847 28C396.887 28.3467 397.847 28.8533 398.727 29.52V20ZM393.447 43.12C394.94 43.12 396.194 42.64 397.207 41.68C398.22 40.72 398.727 39.48 398.727 37.96C398.727 36.4933 398.22 35.2933 397.207 34.36C396.194 33.4267 394.94 32.96 393.447 32.96C391.954 32.96 390.727 33.4267 389.767 34.36C388.807 35.2933 388.327 36.52 388.327 38.04C388.327 39.56 388.807 40.7867 389.767 41.72C390.727 42.6533 391.954 43.12 393.447 43.12ZM429.061 48.6C427.141 48.6 425.367 48.1333 423.741 47.2C422.141 46.24 420.861 44.9467 419.901 43.32C418.967 41.6933 418.501 39.9333 418.501 38.04C418.501 36.12 418.967 34.36 419.901 32.76C420.861 31.1333 422.141 29.8533 423.741 28.92C425.367 27.96 427.141 27.48 429.061 27.48C430.954 27.48 432.701 27.96 434.301 28.92C435.927 29.8533 437.207 31.1333 438.141 32.76C439.101 34.36 439.581 36.12 439.581 38.04C439.581 39.9333 439.101 41.6933 438.141 43.32C437.207 44.9467 435.927 46.24 434.301 47.2C432.701 48.1333 430.954 48.6 429.061 48.6ZM429.021 42.88C430.354 42.88 431.501 42.4133 432.461 41.48C433.421 40.52 433.901 39.3733 433.901 38.04C433.901 36.7067 433.421 35.56 432.461 34.6C431.501 33.64 430.354 33.16 429.021 33.16C427.687 33.16 426.541 33.64 425.581 34.6C424.647 35.56 424.181 36.7067 424.181 38.04C424.181 39.3733 424.647 40.52 425.581 41.48C426.541 42.4133 427.687 42.88 429.021 42.88ZM453.148 27.44C454.322 27.44 455.508 27.6933 456.708 28.2C457.908 28.7067 458.935 29.6 459.788 30.88C460.642 32.16 461.068 33.88 461.068 36.04V48H455.348V36.04C455.348 34.76 454.988 33.84 454.268 33.28C453.575 32.72 452.735 32.44 451.748 32.44C450.762 32.44 449.935 32.7867 449.268 33.48C448.628 34.1733 448.308 35.28 448.308 36.8V48H442.588V28H448.308V29.36C449.828 28.08 451.442 27.44 453.148 27.44ZM483.271 40.88C483.271 41.6267 483.471 42.1467 483.871 42.44C484.297 42.7333 484.937 42.88 485.791 42.88C486.324 42.88 486.911 42.84 487.551 42.76V48C486.217 48.1333 485.111 48.2 484.231 48.2C481.991 48.2 480.311 47.7067 479.191 46.72C478.097 45.7067 477.551 43.88 477.551 41.24V33.08H474.111V28H477.551V23.36L483.271 21.44V28H487.471V33.08H483.271V40.88ZM509.387 48H503.667V36.2C503.667 34.92 503.307 34 502.587 33.44C501.867 32.8533 501.014 32.56 500.027 32.56C499.2 32.56 498.48 32.8267 497.867 33.36C497.254 33.8667 496.867 34.6667 496.707 35.76V48H490.987V20H496.707V29.44C498.174 28.2133 499.76 27.6 501.467 27.6C502.614 27.6 503.774 27.8533 504.947 28.36C506.147 28.84 507.174 29.7067 508.027 30.96C508.907 32.2133 509.36 33.9067 509.387 36.04V48ZM522.303 27.48C524.249 27.48 525.983 27.9467 527.503 28.88C529.049 29.8133 530.249 31.08 531.103 32.68C531.956 34.28 532.383 36.0533 532.383 38C532.383 38.7467 532.329 39.4267 532.223 40.04H517.423C517.929 41.2667 518.609 42.1867 519.463 42.8C520.316 43.3867 521.423 43.68 522.783 43.68C523.609 43.68 524.409 43.5067 525.183 43.16C525.983 42.8133 526.609 42.3467 527.063 41.76L531.383 44.32C530.449 45.68 529.236 46.72 527.743 47.44C526.276 48.16 524.583 48.52 522.663 48.52C520.503 48.52 518.596 48.0667 516.943 47.16C515.289 46.2267 514.009 44.96 513.103 43.36C512.196 41.76 511.743 39.9733 511.743 38C511.743 36.0267 512.183 34.24 513.063 32.64C513.969 31.04 515.223 29.7867 516.823 28.88C518.423 27.9467 520.249 27.48 522.303 27.48ZM527.023 35.6C526.836 34.5867 526.303 33.8 525.423 33.24C524.569 32.68 523.516 32.4 522.263 32.4C520.956 32.4 519.823 32.72 518.863 33.36C517.903 33.9733 517.396 34.72 517.343 35.6H527.023ZM559.778 48.56C557.164 48.56 554.751 47.9067 552.538 46.6C550.324 45.2933 548.564 43.5333 547.258 41.32C545.978 39.1067 545.338 36.6933 545.338 34.08C545.338 31.4667 545.978 29.0533 547.258 26.84C548.564 24.6267 550.324 22.88 552.538 21.6C554.751 20.2933 557.164 19.64 559.778 19.64C562.391 19.64 564.804 20.2933 567.018 21.6C569.231 22.88 570.978 24.6267 572.258 26.84C573.564 29.0533 574.218 31.4667 574.218 34.08C574.218 36.6933 573.564 39.1067 572.258 41.32C570.978 43.5333 569.231 45.2933 567.018 46.6C564.804 47.9067 562.391 48.56 559.778 48.56ZM559.778 42.52C561.298 42.52 562.698 42.1467 563.978 41.4C565.284 40.6267 566.311 39.6 567.058 38.32C567.831 37.0133 568.218 35.6 568.218 34.08C568.218 32.56 567.831 31.16 567.058 29.88C566.311 28.6 565.284 27.5867 563.978 26.84C562.698 26.0667 561.298 25.68 559.778 25.68C558.258 25.68 556.844 26.0533 555.538 26.8C554.258 27.5467 553.244 28.5733 552.498 29.88C551.751 31.16 551.378 32.56 551.378 34.08C551.378 35.6 551.751 37.0133 552.498 38.32C553.271 39.6 554.298 40.6267 555.578 41.4C556.858 42.1467 558.258 42.52 559.778 42.52ZM576.236 34.08C576.236 31.4667 576.876 29.0533 578.156 26.84C579.463 24.6267 581.223 22.88 583.436 21.6C585.649 20.2933 588.063 19.64 590.676 19.64C593.343 19.64 595.809 20.3333 598.076 21.72C600.343 23.1067 602.103 24.9333 603.356 27.2L598.076 30.04C597.329 28.7067 596.303 27.6533 594.996 26.88C593.689 26.08 592.249 25.68 590.676 25.68C589.156 25.68 587.743 26.0533 586.436 26.8C585.156 27.5467 584.143 28.5733 583.396 29.88C582.649 31.16 582.276 32.56 582.276 34.08C582.276 35.6 582.649 37.0133 583.396 38.32C584.169 39.6 585.196 40.6267 586.476 41.4C587.756 42.1467 589.156 42.52 590.676 42.52C592.249 42.52 593.703 42.12 595.036 41.32C596.369 40.4933 597.396 39.4 598.116 38.04L603.436 40.92C602.183 43.2133 600.409 45.0667 598.116 46.48C595.849 47.8667 593.369 48.56 590.676 48.56C588.063 48.56 585.649 47.9067 583.436 46.6C581.223 45.2933 579.463 43.5333 578.156 41.32C576.876 39.1067 576.236 36.6933 576.236 34.08ZM625.803 33C626.656 33.8 627.323 34.7467 627.803 35.84C628.283 36.9333 628.523 38.0933 628.523 39.32C628.523 40.8667 628.149 42.3067 627.403 43.64C626.656 44.9733 625.643 46.0267 624.363 46.8C623.109 47.5733 621.736 47.96 620.243 47.96H613.283V48H607.283V20H619.603C621.016 20 622.323 20.3733 623.523 21.12C624.723 21.84 625.669 22.8267 626.363 24.08C627.083 25.3067 627.443 26.6267 627.443 28.04C627.443 28.92 627.296 29.8 627.003 30.68C626.736 31.5333 626.336 32.3067 625.803 33ZM613.283 25.72V30.88L619.603 30.84C620.189 30.84 620.723 30.6 621.203 30.12C621.683 29.6133 621.923 29 621.923 28.28C621.923 27.5333 621.683 26.92 621.203 26.44C620.723 25.96 620.189 25.72 619.603 25.72H613.283ZM620.243 42.24C620.936 42.24 621.536 41.9467 622.043 41.36C622.549 40.7733 622.803 40.08 622.803 39.28C622.803 38.48 622.549 37.7867 622.043 37.2C621.536 36.6133 620.936 36.32 620.243 36.32H613.283V42.24H620.243ZM631.002 34.08C631.002 31.4667 631.642 29.0533 632.922 26.84C634.228 24.6267 635.988 22.88 638.202 21.6C640.415 20.2933 642.828 19.64 645.442 19.64C648.108 19.64 650.575 20.3333 652.842 21.72C655.108 23.1067 656.868 24.9333 658.122 27.2L652.842 30.04C652.095 28.7067 651.068 27.6533 649.762 26.88C648.455 26.08 647.015 25.68 645.442 25.68C643.922 25.68 642.508 26.0533 641.202 26.8C639.922 27.5467 638.908 28.5733 638.162 29.88C637.415 31.16 637.042 32.56 637.042 34.08C637.042 35.6 637.415 37.0133 638.162 38.32C638.935 39.6 639.962 40.6267 641.242 41.4C642.522 42.1467 643.922 42.52 645.442 42.52C647.015 42.52 648.468 42.12 649.802 41.32C651.135 40.4933 652.162 39.4 652.882 38.04L658.202 40.92C656.948 43.2133 655.175 45.0667 652.882 46.48C650.615 47.8667 648.135 48.56 645.442 48.56C642.828 48.56 640.415 47.9067 638.202 46.6C635.988 45.2933 634.228 43.5333 632.922 41.32C631.642 39.1067 631.002 36.6933 631.002 34.08ZM691.483 38.76L694.723 28H700.683L694.203 48H688.643L685.323 37.44L681.963 48H676.443L670.043 28H676.043L679.203 38.64L682.283 28H688.323L691.483 38.76ZM711.17 27.48C713.117 27.48 714.85 27.9467 716.37 28.88C717.917 29.8133 719.117 31.08 719.97 32.68C720.823 34.28 721.25 36.0533 721.25 38C721.25 38.7467 721.197 39.4267 721.09 40.04H706.29C706.797 41.2667 707.477 42.1867 708.33 42.8C709.183 43.3867 710.29 43.68 711.65 43.68C712.477 43.68 713.277 43.5067 714.05 43.16C714.85 42.8133 715.477 42.3467 715.93 41.76L720.25 44.32C719.317 45.68 718.103 46.72 716.61 47.44C715.143 48.16 713.45 48.52 711.53 48.52C709.37 48.52 707.463 48.0667 705.81 47.16C704.157 46.2267 702.877 44.96 701.97 43.36C701.063 41.76 700.61 39.9733 700.61 38C700.61 36.0267 701.05 34.24 701.93 32.64C702.837 31.04 704.09 29.7867 705.69 28.88C707.29 27.9467 709.117 27.48 711.17 27.48ZM715.89 35.6C715.703 34.5867 715.17 33.8 714.29 33.24C713.437 32.68 712.383 32.4 711.13 32.4C709.823 32.4 708.69 32.72 707.73 33.36C706.77 33.9733 706.263 34.72 706.21 35.6H715.89ZM736.509 27.44C738.589 27.44 740.376 27.8933 741.869 28.8C743.389 29.7067 744.549 30.9733 745.349 32.6C746.149 34.2 746.549 36.0133 746.549 38.04C746.549 40.0667 746.149 41.88 745.349 43.48C744.549 45.0533 743.389 46.2933 741.869 47.2C740.376 48.1067 738.589 48.56 736.509 48.56C735.309 48.56 734.149 48.3467 733.029 47.92C731.909 47.4933 730.882 46.88 729.949 46.08V48H724.229V20H729.949V29.96C730.882 29.16 731.909 28.5467 733.029 28.12C734.149 27.6667 735.309 27.44 736.509 27.44ZM735.749 43.12C737.242 43.12 738.456 42.6533 739.389 41.72C740.349 40.7867 740.829 39.56 740.829 38.04C740.829 36.52 740.349 35.2933 739.389 34.36C738.456 33.4267 737.242 32.96 735.749 32.96C734.256 32.96 733.002 33.4267 731.989 34.36C730.976 35.2933 730.469 36.4933 730.469 37.96C730.469 39.48 730.976 40.72 731.989 41.68C733.002 42.64 734.256 43.12 735.749 43.12ZM755.365 33.68C755.365 34.1333 755.645 34.48 756.205 34.72C756.765 34.9333 757.658 35.16 758.885 35.4C760.458 35.72 761.765 36.08 762.805 36.48C763.845 36.8533 764.751 37.4933 765.525 38.4C766.325 39.28 766.725 40.5067 766.725 42.08C766.725 43.44 766.311 44.6133 765.485 45.6C764.658 46.56 763.565 47.2933 762.205 47.8C760.845 48.28 759.378 48.52 757.805 48.52C755.645 48.52 753.805 48.1333 752.285 47.36C750.765 46.56 749.618 45.3867 748.845 43.84L753.525 41.44C754.165 43.1467 755.591 44 757.805 44C758.711 44 759.498 43.84 760.165 43.52C760.858 43.1733 761.205 42.6933 761.205 42.08C761.205 41.5467 760.885 41.1467 760.245 40.88C759.631 40.6133 758.645 40.3333 757.285 40.04C755.738 39.6933 754.445 39.3333 753.405 38.96C752.365 38.56 751.471 37.96 750.725 37.16C749.978 36.3333 749.605 35.24 749.605 33.88C749.605 32.5733 749.978 31.44 750.725 30.48C751.471 29.4933 752.471 28.7467 753.725 28.24C755.005 27.7333 756.391 27.48 757.885 27.48C759.645 27.48 761.231 27.84 762.645 28.56C764.058 29.28 765.165 30.32 765.965 31.68L761.325 33.96C761.005 33.2933 760.565 32.8 760.005 32.48C759.471 32.16 758.765 32 757.885 32C757.111 32 756.498 32.16 756.045 32.48C755.591 32.7733 755.365 33.1733 755.365 33.68ZM772.541 25.28C771.474 25.28 770.634 25 770.021 24.44C769.434 23.8533 769.141 23.0667 769.141 22.08C769.141 21.0667 769.434 20.2667 770.021 19.68C770.634 19.0933 771.474 18.8 772.541 18.8C773.581 18.8 774.407 19.0933 775.021 19.68C775.634 20.2667 775.941 21.0667 775.941 22.08C775.941 23.0667 775.634 23.8533 775.021 24.44C774.407 25 773.581 25.28 772.541 25.28ZM769.661 48V28H775.381V48H769.661ZM787.841 40.88C787.841 41.6267 788.041 42.1467 788.441 42.44C788.868 42.7333 789.508 42.88 790.361 42.88C790.894 42.88 791.481 42.84 792.121 42.76V48C790.788 48.1333 789.681 48.2 788.801 48.2C786.561 48.2 784.881 47.7067 783.761 46.72C782.668 45.7067 782.121 43.88 782.121 41.24V33.08H778.681V28H782.121V23.36L787.841 21.44V28H792.041V33.08H787.841V40.88ZM804.803 27.48C806.749 27.48 808.483 27.9467 810.003 28.88C811.549 29.8133 812.749 31.08 813.603 32.68C814.456 34.28 814.883 36.0533 814.883 38C814.883 38.7467 814.829 39.4267 814.723 40.04H799.923C800.429 41.2667 801.109 42.1867 801.963 42.8C802.816 43.3867 803.923 43.68 805.283 43.68C806.109 43.68 806.909 43.5067 807.683 43.16C808.483 42.8133 809.109 42.3467 809.563 41.76L813.883 44.32C812.949 45.68 811.736 46.72 810.243 47.44C808.776 48.16 807.083 48.52 805.163 48.52C803.003 48.52 801.096 48.0667 799.443 47.16C797.789 46.2267 796.509 44.96 795.603 43.36C794.696 41.76 794.243 39.9733 794.243 38C794.243 36.0267 794.683 34.24 795.563 32.64C796.469 31.04 797.723 29.7867 799.323 28.88C800.923 27.9467 802.749 27.48 804.803 27.48ZM809.523 35.6C809.336 34.5867 808.803 33.8 807.923 33.24C807.069 32.68 806.016 32.4 804.763 32.4C803.456 32.4 802.323 32.72 801.363 33.36C800.403 33.9733 799.896 34.72 799.843 35.6H809.523Z" fill="#EAEAEA"/>
<path d="M47.2799 0.696279C48.8447 2.14924 50.8167 9.04855 51.562 11.3535C52.7262 14.9541 53.7031 17.8834 55.1769 21.3565C56.3528 24.1258 56.8354 28.5849 59.368 30.3786C61.016 31.5467 63.9727 32.0046 64.3929 34.5034C64.8351 37.1349 64.1522 39.8509 62.6576 42.0193C62.0723 42.8687 60.3201 44.3555 60.181 45.2348C59.6606 48.514 62.0306 51.9988 61.5403 55.3288C61.1955 57.6754 59.8844 58.7901 57.5443 57.799C56.8432 57.5024 56.2292 56.5242 55.2822 57.0016C53.9385 58.4389 55.4995 60.3498 53.8657 61.6844C53.0995 62.3113 52.163 62.3426 51.2095 62.0915C49.897 61.7468 49.2961 59.7137 47.6987 60.1937C47.1186 60.368 43.6416 64.5214 42.6725 65.3382C38.9627 68.4679 33.4878 70.8652 28.6268 69.4032C26.4233 68.7411 23.0191 65.9327 21.3034 64.3223C20.3343 63.4131 17.5728 59.9335 16.6362 59.633C14.6174 58.9866 14.5446 61.661 13.7849 62.4987C13.0734 63.2843 11.9079 63.2843 11.0611 62.7653C9.20882 61.6297 9.84489 57.7912 8.97208 57.5258C7.80398 57.1694 6.65019 60.7998 4.36733 59.144C3.07176 58.2035 3.09258 55.7997 3.18884 54.3558C3.41908 50.9244 5.74745 47.2874 3.56996 44.0368C1.61099 41.1113 -0.68617 40.3894 0.193153 36.1255C0.752486 33.412 3.24998 32.616 4.83042 30.8001C6.83101 28.5016 8.24884 24.6682 9.534 21.8846C11.8637 16.835 12.1499 12.0598 14.1804 7.01934C14.6109 5.95141 16.5374 1.68747 17.1474 1.04229C18.0411 0.0979235 19.0127 0.0237792 20.0716 0.739205C21.8302 1.92941 23.9453 8.41507 25.0665 10.5835C25.8327 12.065 26.9228 14.2334 28.7334 14.439C30.2111 14.6068 35.9605 14.6289 37.1807 14.1372C38.8092 13.4816 39.7406 9.67942 40.3936 8.20305C40.8228 7.23397 41.4888 6.38326 41.8934 5.4337C42.4943 4.02106 42.6075 2.22079 43.6039 1.04619C44.6003 -0.128411 46.0936 -0.408078 47.2812 0.693678L47.2799 0.696279ZM18.8189 8.99262C16.9029 9.4674 16.1185 14.7355 16.4307 16.3654C16.7286 17.9237 19.178 16.3875 20.0209 15.8984C21.9135 14.798 22.0045 14.8617 21.453 12.5697C21.2084 11.5564 20.1301 8.66742 18.8189 8.99131V8.99262ZM44.5535 9.41407C43.877 10.0619 42.8898 13.9108 43.172 14.8565C43.6169 16.3459 47.86 18.5312 48.327 16.9403C48.7068 15.6513 47.782 10.7669 46.8519 9.75877C46.3264 9.19033 45.144 8.84823 44.5535 9.41407ZM27.4131 49.3855C27.5276 44.3073 25.1056 34.48 19.6748 32.6303C15.3979 31.1734 12.7443 35.7222 12.3814 39.354C11.8897 44.2696 13.1983 48.7209 16.138 52.6193C19.0648 56.4982 24.3641 63.0268 28.6242 65.1418C34.0458 67.8344 38.9549 64.8439 42.3499 60.5436C47.3436 54.2179 52.8849 47.7609 52.2436 39.1185C51.8443 33.7385 47.2265 28.9075 42.5685 33.9428C39.0356 37.7618 37.5267 44.3242 37.1781 49.3855C37.0207 49.569 34.9823 48.1576 34.5934 48.0067C32.174 47.0637 30.6833 47.6607 28.5656 48.8106C28.1832 49.0187 27.9907 49.5312 27.4145 49.3855H27.4131Z" fill="white"/>
<path d="M27.4136 49.3847C27.9898 49.5304 28.1823 49.0179 28.5648 48.8098C30.6824 47.6599 32.1731 47.0628 34.5925 48.0059C34.9815 48.1568 37.0198 49.5694 37.1772 49.3847C37.5258 44.3234 39.0334 37.761 42.5676 33.9419C47.2257 28.9066 51.8434 33.7377 52.2427 39.1177C52.8853 47.76 47.3427 54.2171 42.3491 60.5427C38.954 64.8431 34.0462 67.8336 28.6233 65.141C24.3632 63.0259 19.0639 56.4986 16.1372 52.6184C13.1961 48.72 11.8888 44.2688 12.3805 39.3531C12.7434 35.7214 15.397 31.1726 19.674 32.6294C25.1047 34.4791 27.5267 44.3065 27.4123 49.3847H27.4136ZM21.2531 36.416C19.9692 36.6111 19.5374 39.8956 19.4788 40.957C19.406 42.2721 19.5712 47.5948 21.4053 47.6807C22.7906 47.7444 23.268 45.0414 23.35 44.0099C23.4592 42.6207 23.6361 36.0544 21.2531 36.416ZM43.6368 36.4147C43.2362 36.4901 43.0398 36.7282 42.829 37.0482C41.6909 38.7717 41.7169 45.1325 42.8316 46.8898C43.7773 48.3805 44.8049 47.5792 45.3252 46.2459C46.1382 44.1647 46.0927 39.4962 45.1509 37.4631C44.84 36.7919 44.5044 36.2508 43.6368 36.4147Z" fill="black"/>
<path d="M44.554 9.4149C45.1458 8.84906 46.3269 9.19117 46.8524 9.7596C47.7838 10.7677 48.7073 15.6521 48.3275 16.9412C47.8592 18.532 43.6174 16.3467 43.1725 14.8573C42.8903 13.9117 43.8776 10.0627 44.554 9.4149Z" fill="black"/>
<path d="M18.8181 8.99217C20.1292 8.66698 21.2076 11.556 21.4521 12.5706C22.005 14.8626 21.9126 14.7988 20.02 15.8993C19.1771 16.3897 16.7277 17.9246 16.4298 16.3663C16.1177 14.7351 16.902 9.46696 18.8181 8.99347V8.99217Z" fill="black"/>
<path d="M43.6367 36.4147C44.5056 36.2495 44.8399 36.7907 45.1508 37.4632C46.0939 39.4963 46.1381 44.1661 45.3251 46.246C44.8048 47.5793 43.7772 48.3806 42.8315 46.8899C41.7155 45.1325 41.6895 38.7717 42.8289 37.0482C43.0397 36.7282 43.2361 36.4915 43.6367 36.4147Z" fill="white"/>
<path d="M21.2527 36.4167C23.6357 36.0551 23.4601 42.6214 23.3495 44.0106C23.2676 45.0422 22.7902 47.7452 21.4048 47.6814C19.5694 47.5969 19.4056 42.2728 19.4784 40.9577C19.5369 39.8976 19.9688 36.6118 21.2527 36.4167Z" fill="white"/>
<path d="M28.429 54.4453L31.08 58.6039C31.4781 58.9447 32.014 59.8318 32.5837 59.7421L36.3625 54.95L36.0581 54.4453H28.4277H28.429Z" fill="white"/>
</svg>
