<svg width="967" height="70" viewBox="0 0 967 70" fill="none" xmlns="http://www.w3.org/2000/svg">
<path d="M104.72 32.8H120V35.32C120 37.6933 119.36 39.8933 118.08 41.92C116.8 43.9467 115.067 45.56 112.88 46.76C110.72 47.96 108.373 48.56 105.84 48.56C103.227 48.56 100.813 47.9067 98.6 46.6C96.3867 45.2933 94.6267 43.5333 93.32 41.32C92.04 39.1067 91.4 36.6933 91.4 34.08C91.4 31.4667 92.04 29.0533 93.32 26.84C94.6267 24.6267 96.3867 22.88 98.6 21.6C100.813 20.2933 103.227 19.64 105.84 19.64C108.187 19.64 110.373 20.1733 112.4 21.24C114.453 22.3067 116.147 23.76 117.48 25.6L112.72 29.32C111.973 28.2 110.987 27.32 109.76 26.68C108.56 26.0133 107.253 25.68 105.84 25.68C104.32 25.68 102.907 26.0533 101.6 26.8C100.32 27.5467 99.3067 28.5733 98.56 29.88C97.8133 31.16 97.44 32.56 97.44 34.08C97.44 35.6 97.8133 37.0133 98.56 38.32C99.3333 39.6 100.36 40.6267 101.64 41.4C102.92 42.1467 104.32 42.52 105.84 42.52C107.413 42.52 108.827 42.16 110.08 41.44C111.36 40.72 112.347 39.7333 113.04 38.48H104.72V32.8ZM135.996 48.56C133.383 48.56 130.97 47.9067 128.756 46.6C126.543 45.2933 124.783 43.5333 123.476 41.32C122.196 39.1067 121.556 36.6933 121.556 34.08C121.556 31.4667 122.196 29.0533 123.476 26.84C124.783 24.6267 126.543 22.88 128.756 21.6C130.97 20.2933 133.383 19.64 135.996 19.64C138.61 19.64 141.023 20.2933 143.236 21.6C145.45 22.88 147.196 24.6267 148.476 26.84C149.783 29.0533 150.436 31.4667 150.436 34.08C150.436 36.6933 149.783 39.1067 148.476 41.32C147.196 43.5333 145.45 45.2933 143.236 46.6C141.023 47.9067 138.61 48.56 135.996 48.56ZM135.996 42.52C137.516 42.52 138.916 42.1467 140.196 41.4C141.503 40.6267 142.53 39.6 143.276 38.32C144.05 37.0133 144.436 35.6 144.436 34.08C144.436 32.56 144.05 31.16 143.276 29.88C142.53 28.6 141.503 27.5867 140.196 26.84C138.916 26.0667 137.516 25.68 135.996 25.68C134.476 25.68 133.063 26.0533 131.756 26.8C130.476 27.5467 129.463 28.5733 128.716 29.88C127.97 31.16 127.596 32.56 127.596 34.08C127.596 35.6 127.97 37.0133 128.716 38.32C129.49 39.6 130.516 40.6267 131.796 41.4C133.076 42.1467 134.476 42.52 135.996 42.52ZM156.476 29.64C156.076 28.76 155.876 27.84 155.876 26.88C155.876 24.9333 156.609 23.4267 158.076 22.36C159.543 21.2933 161.423 20.76 163.716 20.76C165.983 20.76 167.769 21.2933 169.076 22.36C170.409 23.4267 171.076 24.9467 171.076 26.92C171.076 28.28 170.729 29.44 170.036 30.4C169.369 31.3333 168.223 32.4133 166.596 33.64L169.916 37.28C170.156 36.7467 170.276 36.04 170.276 35.16H175.716C175.716 36.4133 175.596 37.5467 175.356 38.56C175.116 39.5467 174.756 40.5333 174.276 41.52L180.676 48H173.556L170.916 45.24C169.503 46.3067 167.996 47.0667 166.396 47.52C164.823 47.9467 163.476 48.16 162.356 48.16C159.503 48.16 157.156 47.5067 155.316 46.2C153.503 44.8933 152.596 43 152.596 40.52C152.596 37.4267 154.569 34.8 158.516 32.64C157.583 31.52 156.903 30.52 156.476 29.64ZM165.636 26.92C165.636 25.7733 164.996 25.2 163.716 25.2C162.863 25.2 162.236 25.3467 161.836 25.64C161.463 25.9067 161.276 26.3733 161.276 27.04C161.276 27.6267 161.423 28.1467 161.716 28.6C162.009 29.0267 162.463 29.5733 163.076 30.24C163.929 29.68 164.569 29.1733 164.996 28.72C165.423 28.24 165.636 27.64 165.636 26.92ZM167.036 41.36L162.036 36.08C160.596 36.88 159.609 37.6 159.076 38.24C158.543 38.8533 158.276 39.6133 158.276 40.52C158.276 41.4267 158.649 42.1467 159.396 42.68C160.143 43.2133 161.129 43.48 162.356 43.48C163.983 43.48 165.543 42.7733 167.036 41.36ZM199.329 20V25.68H191.929V48H185.889V25.68H178.529V20H199.329ZM211.478 34.08C211.478 31.4667 212.118 29.0533 213.398 26.84C214.705 24.6267 216.465 22.88 218.678 21.6C220.891 20.2933 223.305 19.64 225.918 19.64C228.585 19.64 231.051 20.3333 233.318 21.72C235.585 23.1067 237.345 24.9333 238.598 27.2L233.318 30.04C232.571 28.7067 231.545 27.6533 230.238 26.88C228.931 26.08 227.491 25.68 225.918 25.68C224.398 25.68 222.985 26.0533 221.678 26.8C220.398 27.5467 219.385 28.5733 218.638 29.88C217.891 31.16 217.518 32.56 217.518 34.08C217.518 35.6 217.891 37.0133 218.638 38.32C219.411 39.6 220.438 40.6267 221.718 41.4C222.998 42.1467 224.398 42.52 225.918 42.52C227.491 42.52 228.945 42.12 230.278 41.32C231.611 40.4933 232.638 39.4 233.358 38.04L238.678 40.92C237.425 43.2133 235.651 45.0667 233.358 46.48C231.091 47.8667 228.611 48.56 225.918 48.56C223.305 48.56 220.891 47.9067 218.678 46.6C216.465 45.2933 214.705 43.5333 213.398 41.32C212.118 39.1067 211.478 36.6933 211.478 34.08ZM250.592 48.6C248.672 48.6 246.899 48.1333 245.272 47.2C243.672 46.24 242.392 44.9467 241.432 43.32C240.499 41.6933 240.032 39.9333 240.032 38.04C240.032 36.12 240.499 34.36 241.432 32.76C242.392 31.1333 243.672 29.8533 245.272 28.92C246.899 27.96 248.672 27.48 250.592 27.48C252.485 27.48 254.232 27.96 255.832 28.92C257.459 29.8533 258.739 31.1333 259.672 32.76C260.632 34.36 261.112 36.12 261.112 38.04C261.112 39.9333 260.632 41.6933 259.672 43.32C258.739 44.9467 257.459 46.24 255.832 47.2C254.232 48.1333 252.485 48.6 250.592 48.6ZM250.552 42.88C251.885 42.88 253.032 42.4133 253.992 41.48C254.952 40.52 255.432 39.3733 255.432 38.04C255.432 36.7067 254.952 35.56 253.992 34.6C253.032 33.64 251.885 33.16 250.552 33.16C249.219 33.16 248.072 33.64 247.112 34.6C246.179 35.56 245.712 36.7067 245.712 38.04C245.712 39.3733 246.179 40.52 247.112 41.48C248.072 42.4133 249.219 42.88 250.552 42.88ZM274.68 27.44C275.853 27.44 277.04 27.6933 278.24 28.2C279.44 28.7067 280.466 29.6 281.32 30.88C282.173 32.16 282.6 33.88 282.6 36.04V48H276.88V36.04C276.88 34.76 276.52 33.84 275.8 33.28C275.106 32.72 274.266 32.44 273.28 32.44C272.293 32.44 271.466 32.7867 270.8 33.48C270.16 34.1733 269.84 35.28 269.84 36.8V48H264.12V28H269.84V29.36C271.36 28.08 272.973 27.44 274.68 27.44ZM296.906 27.44C298.08 27.44 299.266 27.6933 300.466 28.2C301.666 28.7067 302.693 29.6 303.546 30.88C304.4 32.16 304.826 33.88 304.826 36.04V48H299.106V36.04C299.106 34.76 298.746 33.84 298.026 33.28C297.333 32.72 296.493 32.44 295.506 32.44C294.52 32.44 293.693 32.7867 293.026 33.48C292.386 34.1733 292.066 35.28 292.066 36.8V48H286.346V28H292.066V29.36C293.586 28.08 295.2 27.44 296.906 27.44ZM318.053 27.48C319.999 27.48 321.733 27.9467 323.253 28.88C324.799 29.8133 325.999 31.08 326.853 32.68C327.706 34.28 328.133 36.0533 328.133 38C328.133 38.7467 328.079 39.4267 327.973 40.04H313.173C313.679 41.2667 314.359 42.1867 315.213 42.8C316.066 43.3867 317.173 43.68 318.533 43.68C319.359 43.68 320.159 43.5067 320.933 43.16C321.733 42.8133 322.359 42.3467 322.813 41.76L327.133 44.32C326.199 45.68 324.986 46.72 323.493 47.44C322.026 48.16 320.333 48.52 318.413 48.52C316.253 48.52 314.346 48.0667 312.693 47.16C311.039 46.2267 309.759 44.96 308.853 43.36C307.946 41.76 307.493 39.9733 307.493 38C307.493 36.0267 307.933 34.24 308.813 32.64C309.719 31.04 310.973 29.7867 312.573 28.88C314.173 27.9467 315.999 27.48 318.053 27.48ZM322.773 35.6C322.586 34.5867 322.053 33.8 321.173 33.24C320.319 32.68 319.266 32.4 318.013 32.4C316.706 32.4 315.573 32.72 314.613 33.36C313.653 33.9733 313.146 34.72 313.093 35.6H322.773ZM349.192 44.08C348.205 45.4667 346.952 46.5733 345.432 47.4C343.939 48.2 342.325 48.6 340.592 48.6C338.672 48.6 336.899 48.1333 335.272 47.2C333.672 46.24 332.392 44.9467 331.432 43.32C330.499 41.6933 330.032 39.9333 330.032 38.04C330.032 36.12 330.499 34.36 331.432 32.76C332.392 31.1333 333.672 29.8533 335.272 28.92C336.899 27.96 338.672 27.48 340.592 27.48C342.325 27.48 343.939 27.88 345.432 28.68C346.925 29.48 348.165 30.56 349.152 31.92L344.432 35.04C343.312 33.7867 342.032 33.16 340.592 33.16C339.259 33.16 338.112 33.64 337.152 34.6C336.192 35.56 335.712 36.7067 335.712 38.04C335.712 39.3733 336.192 40.52 337.152 41.48C338.112 42.4133 339.259 42.88 340.592 42.88C342.032 42.88 343.312 42.2533 344.432 41L349.192 44.08ZM359.528 40.88C359.528 41.6267 359.728 42.1467 360.128 42.44C360.555 42.7333 361.195 42.88 362.048 42.88C362.582 42.88 363.168 42.84 363.808 42.76V48C362.475 48.1333 361.368 48.2 360.488 48.2C358.248 48.2 356.568 47.7067 355.448 46.72C354.355 45.7067 353.808 43.88 353.808 41.24V33.08H350.368V28H353.808V23.36L359.528 21.44V28H363.728V33.08H359.528V40.88ZM400.3 20.04V20H406.3V48H400.3V31.04L393.18 42.96H391.7L384.54 31V48H378.54V20H384.54V20.04L384.62 20L392.42 33.12L400.22 20L400.3 20.04ZM425.611 28H431.291V48H425.611V46.48C424.731 47.1467 423.757 47.6533 422.691 48C421.651 48.3733 420.597 48.56 419.531 48.56C417.451 48.56 415.651 48.1067 414.131 47.2C412.637 46.2933 411.491 45.0533 410.691 43.48C409.891 41.88 409.491 40.0667 409.491 38.04C409.491 36.0133 409.891 34.2 410.691 32.6C411.491 30.9733 412.637 29.7067 414.131 28.8C415.651 27.8933 417.451 27.44 419.531 27.44C420.624 27.44 421.691 27.6267 422.731 28C423.771 28.3733 424.731 28.8933 425.611 29.56V28ZM420.291 43.12C421.784 43.12 423.037 42.64 424.051 41.68C425.064 40.72 425.571 39.48 425.571 37.96C425.571 36.4933 425.064 35.2933 424.051 34.36C423.037 33.4267 421.784 32.96 420.291 32.96C418.797 32.96 417.571 33.4267 416.611 34.36C415.651 35.2933 415.171 36.52 415.171 38.04C415.171 39.56 415.651 40.7867 416.611 41.72C417.571 42.6533 418.797 43.12 420.291 43.12ZM440.529 33.68C440.529 34.1333 440.809 34.48 441.369 34.72C441.929 34.9333 442.822 35.16 444.049 35.4C445.622 35.72 446.929 36.08 447.969 36.48C449.009 36.8533 449.915 37.4933 450.689 38.4C451.489 39.28 451.889 40.5067 451.889 42.08C451.889 43.44 451.475 44.6133 450.649 45.6C449.822 46.56 448.729 47.2933 447.369 47.8C446.009 48.28 444.542 48.52 442.969 48.52C440.809 48.52 438.969 48.1333 437.449 47.36C435.929 46.56 434.782 45.3867 434.009 43.84L438.689 41.44C439.329 43.1467 440.755 44 442.969 44C443.875 44 444.662 43.84 445.329 43.52C446.022 43.1733 446.369 42.6933 446.369 42.08C446.369 41.5467 446.049 41.1467 445.409 40.88C444.795 40.6133 443.809 40.3333 442.449 40.04C440.902 39.6933 439.609 39.3333 438.569 38.96C437.529 38.56 436.635 37.96 435.889 37.16C435.142 36.3333 434.769 35.24 434.769 33.88C434.769 32.5733 435.142 31.44 435.889 30.48C436.635 29.4933 437.635 28.7467 438.889 28.24C440.169 27.7333 441.555 27.48 443.049 27.48C444.809 27.48 446.395 27.84 447.809 28.56C449.222 29.28 450.329 30.32 451.129 31.68L446.489 33.96C446.169 33.2933 445.729 32.8 445.169 32.48C444.635 32.16 443.929 32 443.049 32C442.275 32 441.662 32.16 441.209 32.48C440.755 32.7733 440.529 33.1733 440.529 33.68ZM473.098 44.08C472.111 45.4667 470.858 46.5733 469.338 47.4C467.845 48.2 466.231 48.6 464.498 48.6C462.578 48.6 460.805 48.1333 459.178 47.2C457.578 46.24 456.298 44.9467 455.338 43.32C454.405 41.6933 453.938 39.9333 453.938 38.04C453.938 36.12 454.405 34.36 455.338 32.76C456.298 31.1333 457.578 29.8533 459.178 28.92C460.805 27.96 462.578 27.48 464.498 27.48C466.231 27.48 467.845 27.88 469.338 28.68C470.831 29.48 472.071 30.56 473.058 31.92L468.338 35.04C467.218 33.7867 465.938 33.16 464.498 33.16C463.165 33.16 462.018 33.64 461.058 34.6C460.098 35.56 459.618 36.7067 459.618 38.04C459.618 39.3733 460.098 40.52 461.058 41.48C462.018 42.4133 463.165 42.88 464.498 42.88C465.938 42.88 467.218 42.2533 468.338 41L473.098 44.08ZM484.889 48.6C482.969 48.6 481.195 48.1333 479.569 47.2C477.969 46.24 476.689 44.9467 475.729 43.32C474.795 41.6933 474.329 39.9333 474.329 38.04C474.329 36.12 474.795 34.36 475.729 32.76C476.689 31.1333 477.969 29.8533 479.569 28.92C481.195 27.96 482.969 27.48 484.889 27.48C486.782 27.48 488.529 27.96 490.129 28.92C491.755 29.8533 493.035 31.1333 493.969 32.76C494.929 34.36 495.409 36.12 495.409 38.04C495.409 39.9333 494.929 41.6933 493.969 43.32C493.035 44.9467 491.755 46.24 490.129 47.2C488.529 48.1333 486.782 48.6 484.889 48.6ZM484.849 42.88C486.182 42.88 487.329 42.4133 488.289 41.48C489.249 40.52 489.729 39.3733 489.729 38.04C489.729 36.7067 489.249 35.56 488.289 34.6C487.329 33.64 486.182 33.16 484.849 33.16C483.515 33.16 482.369 33.64 481.409 34.6C480.475 35.56 480.009 36.7067 480.009 38.04C480.009 39.3733 480.475 40.52 481.409 41.48C482.369 42.4133 483.515 42.88 484.849 42.88ZM505.232 40.88C505.232 41.6267 505.432 42.1467 505.832 42.44C506.258 42.7333 506.898 42.88 507.752 42.88C508.285 42.88 508.872 42.84 509.512 42.76V48C508.178 48.1333 507.072 48.2 506.192 48.2C503.952 48.2 502.272 47.7067 501.152 46.72C500.058 45.7067 499.512 43.88 499.512 41.24V33.08H496.072V28H499.512V23.36L505.232 21.44V28H509.432V33.08H505.232V40.88ZM535.723 20C538.337 20 540.737 20.6267 542.923 21.88C545.137 23.1067 546.883 24.8 548.163 26.96C549.47 29.0933 550.123 31.4667 550.123 34.08C550.123 36.6933 549.483 39.0667 548.203 41.2C546.923 43.3067 545.177 44.9733 542.963 46.2C540.75 47.4 538.337 48 535.723 48H524.243V20H535.723ZM535.723 42.28C537.243 42.28 538.643 41.92 539.923 41.2C541.23 40.4533 542.257 39.4533 543.003 38.2C543.75 36.9467 544.123 35.56 544.123 34.04C544.123 32.52 543.75 31.12 543.003 29.84C542.257 28.56 541.23 27.5467 539.923 26.8C538.643 26.0533 537.243 25.68 535.723 25.68H530.243V42.28H535.723ZM562.662 27.48C564.609 27.48 566.342 27.9467 567.862 28.88C569.409 29.8133 570.609 31.08 571.462 32.68C572.316 34.28 572.742 36.0533 572.742 38C572.742 38.7467 572.689 39.4267 572.582 40.04H557.782C558.289 41.2667 558.969 42.1867 559.822 42.8C560.676 43.3867 561.782 43.68 563.142 43.68C563.969 43.68 564.769 43.5067 565.542 43.16C566.342 42.8133 566.969 42.3467 567.422 41.76L571.742 44.32C570.809 45.68 569.596 46.72 568.102 47.44C566.636 48.16 564.942 48.52 563.022 48.52C560.862 48.52 558.956 48.0667 557.302 47.16C555.649 46.2267 554.369 44.96 553.462 43.36C552.556 41.76 552.102 39.9733 552.102 38C552.102 36.0267 552.542 34.24 553.422 32.64C554.329 31.04 555.582 29.7867 557.182 28.88C558.782 27.9467 560.609 27.48 562.662 27.48ZM567.382 35.6C567.196 34.5867 566.662 33.8 565.782 33.24C564.929 32.68 563.876 32.4 562.622 32.4C561.316 32.4 560.182 32.72 559.222 33.36C558.262 33.9733 557.756 34.72 557.702 35.6H567.382ZM580.841 33.68C580.841 34.1333 581.121 34.48 581.681 34.72C582.241 34.9333 583.135 35.16 584.361 35.4C585.935 35.72 587.241 36.08 588.281 36.48C589.321 36.8533 590.228 37.4933 591.001 38.4C591.801 39.28 592.201 40.5067 592.201 42.08C592.201 43.44 591.788 44.6133 590.961 45.6C590.135 46.56 589.041 47.2933 587.681 47.8C586.321 48.28 584.855 48.52 583.281 48.52C581.121 48.52 579.281 48.1333 577.761 47.36C576.241 46.56 575.095 45.3867 574.321 43.84L579.001 41.44C579.641 43.1467 581.068 44 583.281 44C584.188 44 584.975 43.84 585.641 43.52C586.335 43.1733 586.681 42.6933 586.681 42.08C586.681 41.5467 586.361 41.1467 585.721 40.88C585.108 40.6133 584.121 40.3333 582.761 40.04C581.215 39.6933 579.921 39.3333 578.881 38.96C577.841 38.56 576.948 37.96 576.201 37.16C575.455 36.3333 575.081 35.24 575.081 33.88C575.081 32.5733 575.455 31.44 576.201 30.48C576.948 29.4933 577.948 28.7467 579.201 28.24C580.481 27.7333 581.868 27.48 583.361 27.48C585.121 27.48 586.708 27.84 588.121 28.56C589.535 29.28 590.641 30.32 591.441 31.68L586.801 33.96C586.481 33.2933 586.041 32.8 585.481 32.48C584.948 32.16 584.241 32 583.361 32C582.588 32 581.975 32.16 581.521 32.48C581.068 32.7733 580.841 33.1733 580.841 33.68ZM598.017 25.28C596.951 25.28 596.111 25 595.497 24.44C594.911 23.8533 594.617 23.0667 594.617 22.08C594.617 21.0667 594.911 20.2667 595.497 19.68C596.111 19.0933 596.951 18.8 598.017 18.8C599.057 18.8 599.884 19.0933 600.497 19.68C601.111 20.2667 601.417 21.0667 601.417 22.08C601.417 23.0667 601.111 23.8533 600.497 24.44C599.884 25 599.057 25.28 598.017 25.28ZM595.137 48V28H600.857V48H595.137ZM620.259 28H625.979V47C625.979 48.8667 625.486 50.52 624.499 51.96C623.539 53.4 622.206 54.52 620.499 55.32C618.792 56.12 616.872 56.52 614.739 56.52C612.419 56.52 610.286 56.0667 608.339 55.16C606.419 54.28 605.072 53.1333 604.299 51.72L609.179 48.88C609.526 49.5733 610.219 50.1467 611.259 50.6C612.299 51.0533 613.512 51.28 614.899 51.28C616.446 51.28 617.726 50.88 618.739 50.08C619.752 49.28 620.259 48.2533 620.259 47V46.48C619.379 47.1467 618.419 47.6533 617.379 48C616.366 48.3733 615.312 48.56 614.219 48.56C612.139 48.56 610.339 48.1067 608.819 47.2C607.326 46.2933 606.179 45.0533 605.379 43.48C604.579 41.88 604.179 40.0667 604.179 38.04C604.179 36.0133 604.579 34.2 605.379 32.6C606.179 30.9733 607.326 29.7067 608.819 28.8C610.339 27.8933 612.139 27.44 614.219 27.44C615.286 27.44 616.339 27.6267 617.379 28C618.419 28.3467 619.379 28.8533 620.259 29.52V28ZM614.979 43.12C616.472 43.12 617.726 42.64 618.739 41.68C619.752 40.72 620.259 39.48 620.259 37.96C620.259 36.4933 619.752 35.2933 618.739 34.36C617.726 33.4267 616.472 32.96 614.979 32.96C613.486 32.96 612.259 33.4267 611.299 34.36C610.366 35.2933 609.899 36.52 609.899 38.04C609.899 39.56 610.366 40.7867 611.299 41.72C612.259 42.6533 613.486 43.12 614.979 43.12ZM641.438 27.44C642.611 27.44 643.798 27.6933 644.998 28.2C646.198 28.7067 647.224 29.6 648.078 30.88C648.931 32.16 649.358 33.88 649.358 36.04V48H643.638V36.04C643.638 34.76 643.278 33.84 642.558 33.28C641.864 32.72 641.024 32.44 640.038 32.44C639.051 32.44 638.224 32.7867 637.558 33.48C636.918 34.1733 636.598 35.28 636.598 36.8V48H630.878V28H636.598V29.36C638.118 28.08 639.731 27.44 641.438 27.44ZM669.84 51.76C667.84 49.6533 666.24 46.9867 665.04 43.76C663.866 40.5333 663.28 37.3067 663.28 34.08C663.28 30.8533 663.866 27.6267 665.04 24.4C666.24 21.1467 667.84 18.48 669.84 16.4L673.4 19.12C671.986 21.6533 670.96 24.08 670.32 26.4C669.706 28.6933 669.4 31.2533 669.4 34.08C669.4 36.9067 669.706 39.48 670.32 41.8C670.96 44.12 671.986 46.5067 673.4 48.96L669.84 51.76ZM676.822 48V20H682.862V48H676.822ZM697.961 27.44C699.134 27.44 700.321 27.6933 701.521 28.2C702.721 28.7067 703.748 29.6 704.601 30.88C705.454 32.16 705.881 33.88 705.881 36.04V48H700.161V36.04C700.161 34.76 699.801 33.84 699.081 33.28C698.388 32.72 697.548 32.44 696.561 32.44C695.574 32.44 694.748 32.7867 694.081 33.48C693.441 34.1733 693.121 35.28 693.121 36.8V48H687.401V28H693.121V29.36C694.641 28.08 696.254 27.44 697.961 27.44ZM716.833 40.88C716.833 41.6267 717.033 42.1467 717.433 42.44C717.86 42.7333 718.5 42.88 719.353 42.88C719.886 42.88 720.473 42.84 721.113 42.76V48C719.78 48.1333 718.673 48.2 717.793 48.2C715.553 48.2 713.873 47.7067 712.753 46.72C711.66 45.7067 711.113 43.88 711.113 41.24V33.08H707.673V28H711.113V23.36L716.833 21.44V28H721.033V33.08H716.833V40.88ZM733.795 27.48C735.742 27.48 737.475 27.9467 738.995 28.88C740.542 29.8133 741.742 31.08 742.595 32.68C743.448 34.28 743.875 36.0533 743.875 38C743.875 38.7467 743.822 39.4267 743.715 40.04H728.915C729.422 41.2667 730.102 42.1867 730.955 42.8C731.808 43.3867 732.915 43.68 734.275 43.68C735.102 43.68 735.902 43.5067 736.675 43.16C737.475 42.8133 738.102 42.3467 738.555 41.76L742.875 44.32C741.942 45.68 740.728 46.72 739.235 47.44C737.768 48.16 736.075 48.52 734.155 48.52C731.995 48.52 730.088 48.0667 728.435 47.16C726.782 46.2267 725.502 44.96 724.595 43.36C723.688 41.76 723.235 39.9733 723.235 38C723.235 36.0267 723.675 34.24 724.555 32.64C725.462 31.04 726.715 29.7867 728.315 28.88C729.915 27.9467 731.742 27.48 733.795 27.48ZM738.515 35.6C738.328 34.5867 737.795 33.8 736.915 33.24C736.062 32.68 735.008 32.4 733.755 32.4C732.448 32.4 731.315 32.72 730.355 33.36C729.395 33.9733 728.888 34.72 728.835 35.6H738.515ZM759.414 27.6L759.014 33C758.827 32.92 758.521 32.88 758.094 32.88C756.467 32.88 755.134 33.3467 754.094 34.28C753.081 35.1867 752.574 36.3867 752.574 37.88V48H746.854V28H752.574V31.24C753.054 30.2 753.827 29.3333 754.894 28.64C755.961 27.9467 757.254 27.6 758.774 27.6H759.414ZM773.078 27.44C774.251 27.44 775.438 27.6933 776.638 28.2C777.838 28.7067 778.865 29.6 779.718 30.88C780.571 32.16 780.998 33.88 780.998 36.04V48H775.278V36.04C775.278 34.76 774.918 33.84 774.198 33.28C773.505 32.72 772.665 32.44 771.678 32.44C770.691 32.44 769.865 32.7867 769.198 33.48C768.558 34.1733 768.238 35.28 768.238 36.8V48H762.518V28H768.238V29.36C769.758 28.08 771.371 27.44 773.078 27.44ZM800.025 28H805.705V48H800.025V46.48C799.145 47.1467 798.171 47.6533 797.105 48C796.065 48.3733 795.011 48.56 793.945 48.56C791.865 48.56 790.065 48.1067 788.545 47.2C787.051 46.2933 785.905 45.0533 785.105 43.48C784.305 41.88 783.905 40.0667 783.905 38.04C783.905 36.0133 784.305 34.2 785.105 32.6C785.905 30.9733 787.051 29.7067 788.545 28.8C790.065 27.8933 791.865 27.44 793.945 27.44C795.038 27.44 796.105 27.6267 797.145 28C798.185 28.3733 799.145 28.8933 800.025 29.56V28ZM794.705 43.12C796.198 43.12 797.451 42.64 798.465 41.68C799.478 40.72 799.985 39.48 799.985 37.96C799.985 36.4933 799.478 35.2933 798.465 34.36C797.451 33.4267 796.198 32.96 794.705 32.96C793.211 32.96 791.985 33.4267 791.025 34.36C790.065 35.2933 789.585 36.52 789.585 38.04C789.585 39.56 790.065 40.7867 791.025 41.72C791.985 42.6533 793.211 43.12 794.705 43.12ZM815.777 41.68C815.777 42.1067 815.871 42.4133 816.057 42.6C816.271 42.7867 816.617 42.88 817.097 42.88C817.444 42.88 817.857 42.84 818.337 42.76V48C817.031 48.1867 816.017 48.28 815.297 48.28C813.564 48.28 812.257 47.8267 811.377 46.92C810.497 45.9867 810.057 44.36 810.057 42.04V20H815.777V41.68ZM857.086 48H850.686L848.726 42.72H838.366L836.406 48H829.966L840.326 20H846.766L857.086 48ZM843.566 28.72L840.446 37.04H846.646L843.566 28.72ZM872.305 27.6L871.905 33C871.718 32.92 871.411 32.88 870.985 32.88C869.358 32.88 868.025 33.3467 866.985 34.28C865.971 35.1867 865.465 36.3867 865.465 37.88V48H859.745V28H865.465V31.24C865.945 30.2 866.718 29.3333 867.785 28.64C868.851 27.9467 870.145 27.6 871.665 27.6H872.305ZM883.982 40.88C883.982 41.6267 884.182 42.1467 884.582 42.44C885.008 42.7333 885.648 42.88 886.502 42.88C887.035 42.88 887.622 42.84 888.262 42.76V48C886.928 48.1333 885.822 48.2 884.942 48.2C882.702 48.2 881.022 47.7067 879.902 46.72C878.808 45.7067 878.262 43.88 878.262 41.24V33.08H874.822V28H878.262V23.36L883.982 21.44V28H888.182V33.08H883.982V40.88ZM895.244 25.28C894.177 25.28 893.337 25 892.724 24.44C892.137 23.8533 891.844 23.0667 891.844 22.08C891.844 21.0667 892.137 20.2667 892.724 19.68C893.337 19.0933 894.177 18.8 895.244 18.8C896.284 18.8 897.11 19.0933 897.724 19.68C898.337 20.2667 898.644 21.0667 898.644 22.08C898.644 23.0667 898.337 23.8533 897.724 24.44C897.11 25 896.284 25.28 895.244 25.28ZM892.364 48V28H898.084V48H892.364ZM920.09 44.08C919.104 45.4667 917.85 46.5733 916.33 47.4C914.837 48.2 913.224 48.6 911.49 48.6C909.57 48.6 907.797 48.1333 906.17 47.2C904.57 46.24 903.29 44.9467 902.33 43.32C901.397 41.6933 900.93 39.9333 900.93 38.04C900.93 36.12 901.397 34.36 902.33 32.76C903.29 31.1333 904.57 29.8533 906.17 28.92C907.797 27.96 909.57 27.48 911.49 27.48C913.224 27.48 914.837 27.88 916.33 28.68C917.824 29.48 919.064 30.56 920.05 31.92L915.33 35.04C914.21 33.7867 912.93 33.16 911.49 33.16C910.157 33.16 909.01 33.64 908.05 34.6C907.09 35.56 906.61 36.7067 906.61 38.04C906.61 39.3733 907.09 40.52 908.05 41.48C909.01 42.4133 910.157 42.88 911.49 42.88C912.93 42.88 914.21 42.2533 915.33 41L920.09 44.08ZM928.394 41.68C928.394 42.1067 928.488 42.4133 928.674 42.6C928.888 42.7867 929.234 42.88 929.714 42.88C930.061 42.88 930.474 42.84 930.954 42.76V48C929.648 48.1867 928.634 48.28 927.914 48.28C926.181 48.28 924.874 47.8267 923.994 46.92C923.114 45.9867 922.674 44.36 922.674 42.04V20H928.394V41.68ZM943.131 27.48C945.078 27.48 946.811 27.9467 948.331 28.88C949.878 29.8133 951.078 31.08 951.931 32.68C952.784 34.28 953.211 36.0533 953.211 38C953.211 38.7467 953.158 39.4267 953.051 40.04H938.251C938.758 41.2667 939.438 42.1867 940.291 42.8C941.144 43.3867 942.251 43.68 943.611 43.68C944.438 43.68 945.238 43.5067 946.011 43.16C946.811 42.8133 947.438 42.3467 947.891 41.76L952.211 44.32C951.278 45.68 950.064 46.72 948.571 47.44C947.104 48.16 945.411 48.52 943.491 48.52C941.331 48.52 939.424 48.0667 937.771 47.16C936.118 46.2267 934.838 44.96 933.931 43.36C933.024 41.76 932.571 39.9733 932.571 38C932.571 36.0267 933.011 34.24 933.891 32.64C934.798 31.04 936.051 29.7867 937.651 28.88C939.251 27.9467 941.078 27.48 943.131 27.48ZM947.851 35.6C947.664 34.5867 947.131 33.8 946.251 33.24C945.398 32.68 944.344 32.4 943.091 32.4C941.784 32.4 940.651 32.72 939.691 33.36C938.731 33.9733 938.224 34.72 938.171 35.6H947.851ZM958.851 16.4C960.851 18.48 962.438 21.1467 963.611 24.4C964.811 27.6267 965.411 30.8533 965.411 34.08C965.411 37.3067 964.811 40.5333 963.611 43.76C962.438 46.9867 960.851 49.6533 958.851 51.76L955.291 48.96C956.705 46.5067 957.718 44.12 958.331 41.8C958.971 39.48 959.291 36.9067 959.291 34.08C959.291 31.2533 958.971 28.6933 958.331 26.4C957.718 24.08 956.705 21.6533 955.291 19.12L958.851 16.4Z" fill="#EAEAEA"/>
<path d="M47.2799 0.696279C48.8447 2.14924 50.8167 9.04855 51.562 11.3535C52.7262 14.9541 53.7031 17.8834 55.1769 21.3565C56.3528 24.1258 56.8354 28.5849 59.368 30.3786C61.016 31.5467 63.9727 32.0046 64.3929 34.5034C64.8351 37.1349 64.1522 39.8509 62.6576 42.0193C62.0723 42.8687 60.3201 44.3555 60.181 45.2348C59.6606 48.514 62.0306 51.9988 61.5403 55.3288C61.1955 57.6754 59.8844 58.7901 57.5443 57.799C56.8432 57.5024 56.2292 56.5242 55.2822 57.0016C53.9385 58.4389 55.4995 60.3498 53.8657 61.6844C53.0995 62.3113 52.163 62.3426 51.2095 62.0915C49.897 61.7468 49.2961 59.7137 47.6987 60.1937C47.1186 60.368 43.6416 64.5214 42.6725 65.3382C38.9627 68.4679 33.4878 70.8652 28.6268 69.4032C26.4233 68.7411 23.0191 65.9327 21.3034 64.3223C20.3343 63.4131 17.5728 59.9335 16.6362 59.633C14.6174 58.9866 14.5446 61.661 13.7849 62.4987C13.0734 63.2843 11.9079 63.2843 11.0611 62.7653C9.20882 61.6297 9.84489 57.7912 8.97208 57.5258C7.80398 57.1694 6.65019 60.7998 4.36733 59.144C3.07176 58.2035 3.09258 55.7997 3.18884 54.3558C3.41908 50.9244 5.74745 47.2874 3.56996 44.0368C1.61099 41.1113 -0.68617 40.3894 0.193153 36.1255C0.752486 33.412 3.24998 32.616 4.83042 30.8001C6.83101 28.5016 8.24884 24.6682 9.534 21.8846C11.8637 16.835 12.1499 12.0598 14.1804 7.01934C14.6109 5.95141 16.5374 1.68747 17.1474 1.04229C18.0411 0.0979235 19.0127 0.0237792 20.0716 0.739205C21.8302 1.92941 23.9453 8.41507 25.0665 10.5835C25.8327 12.065 26.9228 14.2334 28.7334 14.439C30.2111 14.6068 35.9605 14.6289 37.1807 14.1372C38.8092 13.4816 39.7406 9.67942 40.3936 8.20305C40.8228 7.23397 41.4888 6.38326 41.8934 5.4337C42.4943 4.02106 42.6075 2.22079 43.6039 1.04619C44.6003 -0.128411 46.0936 -0.408078 47.2812 0.693678L47.2799 0.696279ZM18.8189 8.99262C16.9029 9.4674 16.1185 14.7355 16.4307 16.3654C16.7286 17.9237 19.178 16.3875 20.0209 15.8984C21.9135 14.798 22.0045 14.8617 21.453 12.5697C21.2084 11.5564 20.1301 8.66742 18.8189 8.99131V8.99262ZM44.5535 9.41407C43.877 10.0619 42.8898 13.9108 43.172 14.8565C43.6169 16.3459 47.86 18.5312 48.327 16.9403C48.7068 15.6513 47.782 10.7669 46.8519 9.75877C46.3264 9.19033 45.144 8.84823 44.5535 9.41407ZM27.4131 49.3855C27.5276 44.3073 25.1056 34.48 19.6748 32.6303C15.3979 31.1734 12.7443 35.7222 12.3814 39.354C11.8897 44.2696 13.1983 48.7209 16.138 52.6193C19.0648 56.4982 24.3641 63.0268 28.6242 65.1418C34.0458 67.8344 38.9549 64.8439 42.3499 60.5436C47.3436 54.2179 52.8849 47.7609 52.2436 39.1185C51.8443 33.7385 47.2265 28.9075 42.5685 33.9428C39.0356 37.7618 37.5267 44.3242 37.1781 49.3855C37.0207 49.569 34.9823 48.1576 34.5934 48.0067C32.174 47.0637 30.6833 47.6607 28.5656 48.8106C28.1832 49.0187 27.9907 49.5312 27.4145 49.3855H27.4131Z" fill="white"/>
<path d="M27.4136 49.3857C27.9898 49.5314 28.1823 49.0189 28.5648 48.8107C30.6824 47.6608 32.1731 47.0638 34.5925 48.0069C34.9815 48.1577 37.0198 49.5704 37.1772 49.3857C37.5258 44.3244 39.0334 37.762 42.5676 33.9429C47.2257 28.9076 51.8434 33.7387 52.2427 39.1187C52.8853 47.761 47.3427 54.218 42.3491 60.5437C38.954 64.8441 34.0462 67.8346 28.6233 65.142C24.3632 63.0269 19.0639 56.4996 16.1372 52.6194C13.1961 48.721 11.8888 44.2697 12.3805 39.3541C12.7434 35.7223 15.397 31.1735 19.674 32.6304C25.1047 34.4801 27.5267 44.3075 27.4123 49.3857H27.4136ZM21.2531 36.417C19.9692 36.6121 19.5374 39.8965 19.4788 40.958C19.406 42.273 19.5712 47.5958 21.4053 47.6817C22.7906 47.7454 23.268 45.0424 23.35 44.0109C23.4592 42.6217 23.6361 36.0553 21.2531 36.417ZM43.6368 36.4157C43.2362 36.4911 43.0398 36.7291 42.829 37.0491C41.6909 38.7727 41.7169 45.1334 42.8316 46.8908C43.7773 48.3815 44.8049 47.5802 45.3252 46.2469C46.1382 44.1657 46.0927 39.4972 45.1509 37.4641C44.84 36.7929 44.5044 36.2518 43.6368 36.4157Z" fill="black"/>
<path d="M44.554 9.41392C45.1458 8.84808 46.3269 9.19019 46.8524 9.75863C47.7838 10.7667 48.7073 15.6511 48.3275 16.9402C47.8592 18.531 43.6174 16.3457 43.1725 14.8564C42.8903 13.9107 43.8776 10.0617 44.554 9.41392Z" fill="black"/>
<path d="M18.8181 8.99217C20.1292 8.66698 21.2076 11.556 21.4521 12.5706C22.005 14.8626 21.9126 14.7988 20.02 15.8993C19.1771 16.3897 16.7277 17.9246 16.4298 16.3663C16.1177 14.7351 16.902 9.46696 18.8181 8.99347V8.99217Z" fill="black"/>
<path d="M43.6367 36.4157C44.5056 36.2505 44.8399 36.7916 45.1508 37.4641C46.0939 39.4972 46.1381 44.167 45.3251 46.247C44.8048 47.5803 43.7772 48.3815 42.8315 46.8908C41.7155 45.1335 41.6895 38.7727 42.8289 37.0492C43.0397 36.7292 43.2361 36.4925 43.6367 36.4157Z" fill="white"/>
<path d="M21.2527 36.4167C23.6357 36.0551 23.4601 42.6214 23.3495 44.0106C23.2676 45.0422 22.7902 47.7452 21.4048 47.6814C19.5694 47.5969 19.4056 42.2728 19.4784 40.9577C19.5369 39.8976 19.9688 36.6118 21.2527 36.4167Z" fill="white"/>
<path d="M28.429 54.4453L31.08 58.6039C31.4781 58.9447 32.014 59.8318 32.5837 59.7421L36.3625 54.95L36.0581 54.4453H28.4277H28.429Z" fill="white"/>
</svg>
