<svg width="1199" height="70" viewBox="0 0 1199 70" fill="none" xmlns="http://www.w3.org/2000/svg">
<path d="M92.72 48V20H98.76V48H92.72ZM119.165 28H124.885V47C124.885 48.8667 124.392 50.52 123.405 51.96C122.445 53.4 121.112 54.52 119.405 55.32C117.699 56.12 115.779 56.52 113.645 56.52C111.325 56.52 109.192 56.0667 107.245 55.16C105.325 54.28 103.979 53.1333 103.205 51.72L108.085 48.88C108.432 49.5733 109.125 50.1467 110.165 50.6C111.205 51.0533 112.419 51.28 113.805 51.28C115.352 51.28 116.632 50.88 117.645 50.08C118.659 49.28 119.165 48.2533 119.165 47V46.48C118.285 47.1467 117.325 47.6533 116.285 48C115.272 48.3733 114.219 48.56 113.125 48.56C111.045 48.56 109.245 48.1067 107.725 47.2C106.232 46.2933 105.085 45.0533 104.285 43.48C103.485 41.88 103.085 40.0667 103.085 38.04C103.085 36.0133 103.485 34.2 104.285 32.6C105.085 30.9733 106.232 29.7067 107.725 28.8C109.245 27.8933 111.045 27.44 113.125 27.44C114.192 27.44 115.245 27.6267 116.285 28C117.325 28.3467 118.285 28.8533 119.165 29.52V28ZM113.885 43.12C115.379 43.12 116.632 42.64 117.645 41.68C118.659 40.72 119.165 39.48 119.165 37.96C119.165 36.4933 118.659 35.2933 117.645 34.36C116.632 33.4267 115.379 32.96 113.885 32.96C112.392 32.96 111.165 33.4267 110.205 34.36C109.272 35.2933 108.805 36.52 108.805 38.04C108.805 39.56 109.272 40.7867 110.205 41.72C111.165 42.6533 112.392 43.12 113.885 43.12ZM140.344 27.44C141.517 27.44 142.704 27.6933 143.904 28.2C145.104 28.7067 146.13 29.6 146.984 30.88C147.837 32.16 148.264 33.88 148.264 36.04V48H142.544V36.04C142.544 34.76 142.184 33.84 141.464 33.28C140.77 32.72 139.93 32.44 138.944 32.44C137.957 32.44 137.13 32.7867 136.464 33.48C135.824 34.1733 135.504 35.28 135.504 36.8V48H129.784V28H135.504V29.36C137.024 28.08 138.637 27.44 140.344 27.44ZM154.97 25.28C153.904 25.28 153.064 25 152.45 24.44C151.864 23.8533 151.57 23.0667 151.57 22.08C151.57 21.0667 151.864 20.2667 152.45 19.68C153.064 19.0933 153.904 18.8 154.97 18.8C156.01 18.8 156.837 19.0933 157.45 19.68C158.064 20.2667 158.37 21.0667 158.37 22.08C158.37 23.0667 158.064 23.8533 157.45 24.44C156.837 25 156.01 25.28 154.97 25.28ZM152.09 48V28H157.81V48H152.09ZM170.271 40.88C170.271 41.6267 170.471 42.1467 170.871 42.44C171.297 42.7333 171.937 42.88 172.791 42.88C173.324 42.88 173.911 42.84 174.551 42.76V48C173.217 48.1333 172.111 48.2 171.231 48.2C168.991 48.2 167.311 47.7067 166.191 46.72C165.097 45.7067 164.551 43.88 164.551 41.24V33.08H161.111V28H164.551V23.36L170.271 21.44V28H174.471V33.08H170.271V40.88ZM187.233 27.48C189.179 27.48 190.913 27.9467 192.433 28.88C193.979 29.8133 195.179 31.08 196.033 32.68C196.886 34.28 197.313 36.0533 197.313 38C197.313 38.7467 197.259 39.4267 197.153 40.04H182.353C182.859 41.2667 183.539 42.1867 184.393 42.8C185.246 43.3867 186.353 43.68 187.713 43.68C188.539 43.68 189.339 43.5067 190.113 43.16C190.913 42.8133 191.539 42.3467 191.993 41.76L196.313 44.32C195.379 45.68 194.166 46.72 192.673 47.44C191.206 48.16 189.513 48.52 187.593 48.52C185.433 48.52 183.526 48.0667 181.873 47.16C180.219 46.2267 178.939 44.96 178.033 43.36C177.126 41.76 176.673 39.9733 176.673 38C176.673 36.0267 177.113 34.24 177.993 32.64C178.899 31.04 180.153 29.7867 181.753 28.88C183.353 27.9467 185.179 27.48 187.233 27.48ZM191.953 35.6C191.766 34.5867 191.233 33.8 190.353 33.24C189.499 32.68 188.446 32.4 187.193 32.4C185.886 32.4 184.753 32.72 183.793 33.36C182.833 33.9733 182.326 34.72 182.273 35.6H191.953ZM231.747 42.28V47.96H210.507V46.68C210.694 44.0133 211.454 41.4133 212.787 38.88C214.121 36.32 216.241 34.4667 219.147 33.32L220.467 32.76C222.281 32.04 223.641 31.3867 224.547 30.8C225.454 30.2133 225.907 29.4667 225.907 28.56C225.907 27.7867 225.681 27.12 225.227 26.56C224.774 26 224.214 25.5867 223.547 25.32C222.881 25.0267 222.214 24.88 221.547 24.88C219.974 24.88 218.654 25.1867 217.587 25.8C216.521 26.3867 215.881 27.3067 215.667 28.56L210.027 27.96C210.267 26.2 210.934 24.68 212.027 23.4C213.147 22.12 214.534 21.1467 216.187 20.48C217.867 19.7867 219.654 19.44 221.547 19.44C223.254 19.44 224.881 19.8 226.427 20.52C228.001 21.24 229.267 22.2667 230.227 23.6C231.187 24.9333 231.667 26.48 231.667 28.24C231.667 30 231.241 31.48 230.387 32.68C229.534 33.88 228.387 34.88 226.947 35.68C225.534 36.4533 223.694 37.2667 221.427 38.12C219.721 38.76 218.454 40.1467 217.627 42.28H231.747ZM245.363 48.52C243.016 48.52 240.963 47.92 239.203 46.72C237.443 45.4933 236.083 43.7867 235.123 41.6C234.163 39.3867 233.683 36.8533 233.683 34C233.683 31.1467 234.163 28.6267 235.123 26.44C236.083 24.2267 237.443 22.52 239.203 21.32C240.963 20.0933 243.016 19.48 245.363 19.48C247.71 19.48 249.763 20.0933 251.523 21.32C253.283 22.52 254.63 24.2267 255.563 26.44C256.523 28.6267 257.003 31.1467 257.003 34C257.003 36.8533 256.523 39.3867 255.563 41.6C254.63 43.7867 253.283 45.4933 251.523 46.72C249.763 47.92 247.71 48.52 245.363 48.52ZM245.363 42.52C247.096 42.52 248.47 41.8267 249.483 40.44C250.496 39.0533 251.003 36.9067 251.003 34C251.003 31.0933 250.496 28.9467 249.483 27.56C248.47 26.1733 247.096 25.48 245.363 25.48C243.63 25.48 242.256 26.1733 241.243 27.56C240.23 28.9467 239.723 31.0933 239.723 34C239.723 36.9067 240.23 39.0533 241.243 40.44C242.256 41.8267 243.63 42.52 245.363 42.52ZM280.419 42.28V47.96H259.179V46.68C259.366 44.0133 260.126 41.4133 261.459 38.88C262.792 36.32 264.912 34.4667 267.819 33.32L269.139 32.76C270.952 32.04 272.312 31.3867 273.219 30.8C274.126 30.2133 274.579 29.4667 274.579 28.56C274.579 27.7867 274.352 27.12 273.899 26.56C273.446 26 272.886 25.5867 272.219 25.32C271.552 25.0267 270.886 24.88 270.219 24.88C268.646 24.88 267.326 25.1867 266.259 25.8C265.192 26.3867 264.552 27.3067 264.339 28.56L258.699 27.96C258.939 26.2 259.606 24.68 260.699 23.4C261.819 22.12 263.206 21.1467 264.859 20.48C266.539 19.7867 268.326 19.44 270.219 19.44C271.926 19.44 273.552 19.8 275.099 20.52C276.672 21.24 277.939 22.2667 278.899 23.6C279.859 24.9333 280.339 26.48 280.339 28.24C280.339 30 279.912 31.48 279.059 32.68C278.206 33.88 277.059 34.88 275.619 35.68C274.206 36.4533 272.366 37.2667 270.099 38.12C268.392 38.76 267.126 40.1467 266.299 42.28H280.419ZM294.275 30.4C297.475 30.4 299.995 31.16 301.835 32.68C303.702 34.2 304.635 36.2667 304.635 38.88C304.635 41.84 303.702 44.1867 301.835 45.92C299.995 47.6267 297.475 48.48 294.275 48.48C290.968 48.48 288.328 47.7467 286.355 46.28C284.408 44.7867 283.408 42.76 283.355 40.2L289.035 39.52C289.195 40.5333 289.742 41.3467 290.675 41.96C291.635 42.5467 292.835 42.84 294.275 42.84C295.768 42.84 296.928 42.4933 297.755 41.8C298.608 41.08 299.035 40.1067 299.035 38.88C299.035 37.8133 298.608 36.9867 297.755 36.4C296.928 35.7867 295.768 35.48 294.275 35.48H289.155V35.4L284.595 35.48L286.515 20H303.555V25.68H291.515L290.955 30.4H294.275ZM337.245 30.8V20H343.245V48H337.245V36.52H325.165V48H319.165V20H325.165V30.8H337.245ZM363.697 28H369.377V48H363.697V46.48C362.817 47.1467 361.843 47.6533 360.777 48C359.737 48.3733 358.683 48.56 357.617 48.56C355.537 48.56 353.737 48.1067 352.217 47.2C350.723 46.2933 349.577 45.0533 348.777 43.48C347.977 41.88 347.577 40.0667 347.577 38.04C347.577 36.0133 347.977 34.2 348.777 32.6C349.577 30.9733 350.723 29.7067 352.217 28.8C353.737 27.8933 355.537 27.44 357.617 27.44C358.71 27.44 359.777 27.6267 360.817 28C361.857 28.3733 362.817 28.8933 363.697 29.56V28ZM358.377 43.12C359.87 43.12 361.123 42.64 362.137 41.68C363.15 40.72 363.657 39.48 363.657 37.96C363.657 36.4933 363.15 35.2933 362.137 34.36C361.123 33.4267 359.87 32.96 358.377 32.96C356.883 32.96 355.657 33.4267 354.697 34.36C353.737 35.2933 353.257 36.52 353.257 38.04C353.257 39.56 353.737 40.7867 354.697 41.72C355.657 42.6533 356.883 43.12 358.377 43.12ZM391.418 44.08C390.432 45.4667 389.178 46.5733 387.658 47.4C386.165 48.2 384.552 48.6 382.818 48.6C380.898 48.6 379.125 48.1333 377.498 47.2C375.898 46.24 374.618 44.9467 373.658 43.32C372.725 41.6933 372.258 39.9333 372.258 38.04C372.258 36.12 372.725 34.36 373.658 32.76C374.618 31.1333 375.898 29.8533 377.498 28.92C379.125 27.96 380.898 27.48 382.818 27.48C384.552 27.48 386.165 27.88 387.658 28.68C389.152 29.48 390.392 30.56 391.378 31.92L386.658 35.04C385.538 33.7867 384.258 33.16 382.818 33.16C381.485 33.16 380.338 33.64 379.378 34.6C378.418 35.56 377.938 36.7067 377.938 38.04C377.938 39.3733 378.418 40.52 379.378 41.48C380.338 42.4133 381.485 42.88 382.818 42.88C384.258 42.88 385.538 42.2533 386.658 41L391.418 44.08ZM414.72 48H407.6L402.48 41.08L399.84 43.96V48H394.12V20H399.84V35.56L406.48 28H414.44L406.36 36.8L414.72 48ZM432.681 28H438.361V48H432.681V46.48C431.801 47.1467 430.828 47.6533 429.761 48C428.721 48.3733 427.668 48.56 426.601 48.56C424.521 48.56 422.721 48.1067 421.201 47.2C419.708 46.2933 418.561 45.0533 417.761 43.48C416.961 41.88 416.561 40.0667 416.561 38.04C416.561 36.0133 416.961 34.2 417.761 32.6C418.561 30.9733 419.708 29.7067 421.201 28.8C422.721 27.8933 424.521 27.44 426.601 27.44C427.694 27.44 428.761 27.6267 429.801 28C430.841 28.3733 431.801 28.8933 432.681 29.56V28ZM427.361 43.12C428.854 43.12 430.108 42.64 431.121 41.68C432.134 40.72 432.641 39.48 432.641 37.96C432.641 36.4933 432.134 35.2933 431.121 34.36C430.108 33.4267 428.854 32.96 427.361 32.96C425.868 32.96 424.641 33.4267 423.681 34.36C422.721 35.2933 422.241 36.52 422.241 38.04C422.241 39.56 422.721 40.7867 423.681 41.72C424.641 42.6533 425.868 43.12 427.361 43.12ZM450.193 40.88C450.193 41.6267 450.393 42.1467 450.793 42.44C451.219 42.7333 451.859 42.88 452.713 42.88C453.246 42.88 453.833 42.84 454.473 42.76V48C453.139 48.1333 452.033 48.2 451.153 48.2C448.913 48.2 447.233 47.7067 446.113 46.72C445.019 45.7067 444.473 43.88 444.473 41.24V33.08H441.033V28H444.473V23.36L450.193 21.44V28H454.393V33.08H450.193V40.88ZM476.309 48H470.589V36.2C470.589 34.92 470.229 34 469.509 33.44C468.789 32.8533 467.935 32.56 466.949 32.56C466.122 32.56 465.402 32.8267 464.789 33.36C464.175 33.8667 463.789 34.6667 463.629 35.76V48H457.909V20H463.629V29.44C465.095 28.2133 466.682 27.6 468.389 27.6C469.535 27.6 470.695 27.8533 471.869 28.36C473.069 28.84 474.095 29.7067 474.949 30.96C475.829 32.2133 476.282 33.9067 476.309 36.04V48ZM489.576 48.6C487.656 48.6 485.883 48.1333 484.256 47.2C482.656 46.24 481.376 44.9467 480.416 43.32C479.483 41.6933 479.016 39.9333 479.016 38.04C479.016 36.12 479.483 34.36 480.416 32.76C481.376 31.1333 482.656 29.8533 484.256 28.92C485.883 27.96 487.656 27.48 489.576 27.48C491.47 27.48 493.216 27.96 494.816 28.92C496.443 29.8533 497.723 31.1333 498.656 32.76C499.616 34.36 500.096 36.12 500.096 38.04C500.096 39.9333 499.616 41.6933 498.656 43.32C497.723 44.9467 496.443 46.24 494.816 47.2C493.216 48.1333 491.47 48.6 489.576 48.6ZM489.536 42.88C490.87 42.88 492.016 42.4133 492.976 41.48C493.936 40.52 494.416 39.3733 494.416 38.04C494.416 36.7067 493.936 35.56 492.976 34.6C492.016 33.64 490.87 33.16 489.536 33.16C488.203 33.16 487.056 33.64 486.096 34.6C485.163 35.56 484.696 36.7067 484.696 38.04C484.696 39.3733 485.163 40.52 486.096 41.48C487.056 42.4133 488.203 42.88 489.536 42.88ZM513.664 27.44C514.837 27.44 516.024 27.6933 517.224 28.2C518.424 28.7067 519.451 29.6 520.304 30.88C521.157 32.16 521.584 33.88 521.584 36.04V48H515.864V36.04C515.864 34.76 515.504 33.84 514.784 33.28C514.091 32.72 513.251 32.44 512.264 32.44C511.277 32.44 510.451 32.7867 509.784 33.48C509.144 34.1733 508.824 35.28 508.824 36.8V48H503.104V28H508.824V29.36C510.344 28.08 511.957 27.44 513.664 27.44ZM547.066 20C548.773 20 550.333 20.4133 551.746 21.24C553.16 22.0667 554.28 23.2 555.106 24.64C555.96 26.0533 556.386 27.6133 556.386 29.32C556.386 31 555.96 32.56 555.106 34C554.28 35.4133 553.146 36.5467 551.706 37.4C550.293 38.2267 548.746 38.64 547.066 38.64H542.626V48H536.626V20H547.066ZM547.066 32.92C548.053 32.92 548.893 32.5733 549.586 31.88C550.306 31.16 550.666 30.3067 550.666 29.32C550.666 28.3067 550.32 27.4533 549.626 26.76C548.933 26.0667 548.08 25.72 547.066 25.72H542.626V32.92H547.066ZM572.344 27.6L571.944 33C571.757 32.92 571.45 32.88 571.024 32.88C569.397 32.88 568.064 33.3467 567.024 34.28C566.01 35.1867 565.504 36.3867 565.504 37.88V48H559.784V28H565.504V31.24C565.984 30.2 566.757 29.3333 567.824 28.64C568.89 27.9467 570.184 27.6 571.704 27.6H572.344ZM583.795 48.6C581.875 48.6 580.102 48.1333 578.475 47.2C576.875 46.24 575.595 44.9467 574.635 43.32C573.702 41.6933 573.235 39.9333 573.235 38.04C573.235 36.12 573.702 34.36 574.635 32.76C575.595 31.1333 576.875 29.8533 578.475 28.92C580.102 27.96 581.875 27.48 583.795 27.48C585.688 27.48 587.435 27.96 589.035 28.92C590.662 29.8533 591.942 31.1333 592.875 32.76C593.835 34.36 594.315 36.12 594.315 38.04C594.315 39.9333 593.835 41.6933 592.875 43.32C591.942 44.9467 590.662 46.24 589.035 47.2C587.435 48.1333 585.688 48.6 583.795 48.6ZM583.755 42.88C585.088 42.88 586.235 42.4133 587.195 41.48C588.155 40.52 588.635 39.3733 588.635 38.04C588.635 36.7067 588.155 35.56 587.195 34.6C586.235 33.64 585.088 33.16 583.755 33.16C582.422 33.16 581.275 33.64 580.315 34.6C579.382 35.56 578.915 36.7067 578.915 38.04C578.915 39.3733 579.382 40.52 580.315 41.48C581.275 42.4133 582.422 42.88 583.755 42.88ZM620.091 27.44C621.265 27.44 622.451 27.6933 623.651 28.2C624.851 28.7067 625.878 29.6 626.731 30.88C627.585 32.16 628.011 33.88 628.011 36.04V48H622.331V36.04C622.331 34.76 621.971 33.84 621.251 33.28C620.531 32.72 619.678 32.44 618.691 32.44C617.865 32.44 617.145 32.6933 616.531 33.2C615.945 33.68 615.558 34.44 615.371 35.48V36.04V48H609.651V36.04C609.651 34.76 609.291 33.84 608.571 33.28C607.851 32.72 606.998 32.44 606.011 32.44C605.185 32.44 604.465 32.6933 603.851 33.2C603.238 33.7067 602.851 34.52 602.691 35.64V48H596.971V28H602.691V29.28C604.158 28.0533 605.745 27.44 607.451 27.44C608.625 27.44 609.811 27.6933 611.011 28.2C612.238 28.7067 613.238 29.5467 614.011 30.72C614.705 29.7867 615.585 29.0133 616.651 28.4C617.718 27.76 618.865 27.44 620.091 27.44ZM641.217 48.6C639.297 48.6 637.524 48.1333 635.897 47.2C634.297 46.24 633.017 44.9467 632.057 43.32C631.124 41.6933 630.657 39.9333 630.657 38.04C630.657 36.12 631.124 34.36 632.057 32.76C633.017 31.1333 634.297 29.8533 635.897 28.92C637.524 27.96 639.297 27.48 641.217 27.48C643.11 27.48 644.857 27.96 646.457 28.92C648.084 29.8533 649.364 31.1333 650.297 32.76C651.257 34.36 651.737 36.12 651.737 38.04C651.737 39.9333 651.257 41.6933 650.297 43.32C649.364 44.9467 648.084 46.24 646.457 47.2C644.857 48.1333 643.11 48.6 641.217 48.6ZM641.177 42.88C642.51 42.88 643.657 42.4133 644.617 41.48C645.577 40.52 646.057 39.3733 646.057 38.04C646.057 36.7067 645.577 35.56 644.617 34.6C643.657 33.64 642.51 33.16 641.177 33.16C639.844 33.16 638.697 33.64 637.737 34.6C636.804 35.56 636.337 36.7067 636.337 38.04C636.337 39.3733 636.804 40.52 637.737 41.48C638.697 42.4133 639.844 42.88 641.177 42.88ZM661.56 40.88C661.56 41.6267 661.76 42.1467 662.16 42.44C662.586 42.7333 663.226 42.88 664.08 42.88C664.613 42.88 665.2 42.84 665.84 42.76V48C664.506 48.1333 663.4 48.2 662.52 48.2C660.28 48.2 658.6 47.7067 657.48 46.72C656.386 45.7067 655.84 43.88 655.84 41.24V33.08H652.4V28H655.84V23.36L661.56 21.44V28H665.76V33.08H661.56V40.88ZM672.822 25.28C671.755 25.28 670.915 25 670.302 24.44C669.715 23.8533 669.422 23.0667 669.422 22.08C669.422 21.0667 669.715 20.2667 670.302 19.68C670.915 19.0933 671.755 18.8 672.822 18.8C673.862 18.8 674.689 19.0933 675.302 19.68C675.915 20.2667 676.222 21.0667 676.222 22.08C676.222 23.0667 675.915 23.8533 675.302 24.44C674.689 25 673.862 25.28 672.822 25.28ZM669.942 48V28H675.662V48H669.942ZM689.068 48.6C687.148 48.6 685.375 48.1333 683.748 47.2C682.148 46.24 680.868 44.9467 679.908 43.32C678.975 41.6933 678.508 39.9333 678.508 38.04C678.508 36.12 678.975 34.36 679.908 32.76C680.868 31.1333 682.148 29.8533 683.748 28.92C685.375 27.96 687.148 27.48 689.068 27.48C690.962 27.48 692.708 27.96 694.308 28.92C695.935 29.8533 697.215 31.1333 698.148 32.76C699.108 34.36 699.588 36.12 699.588 38.04C699.588 39.9333 699.108 41.6933 698.148 43.32C697.215 44.9467 695.935 46.24 694.308 47.2C692.708 48.1333 690.962 48.6 689.068 48.6ZM689.028 42.88C690.362 42.88 691.508 42.4133 692.468 41.48C693.428 40.52 693.908 39.3733 693.908 38.04C693.908 36.7067 693.428 35.56 692.468 34.6C691.508 33.64 690.362 33.16 689.028 33.16C687.695 33.16 686.548 33.64 685.588 34.6C684.655 35.56 684.188 36.7067 684.188 38.04C684.188 39.3733 684.655 40.52 685.588 41.48C686.548 42.4133 687.695 42.88 689.028 42.88ZM713.156 27.44C714.33 27.44 715.516 27.6933 716.716 28.2C717.916 28.7067 718.943 29.6 719.796 30.88C720.65 32.16 721.076 33.88 721.076 36.04V48H715.356V36.04C715.356 34.76 714.996 33.84 714.276 33.28C713.583 32.72 712.743 32.44 711.756 32.44C710.77 32.44 709.943 32.7867 709.276 33.48C708.636 34.1733 708.316 35.28 708.316 36.8V48H702.596V28H708.316V29.36C709.836 28.08 711.45 27.44 713.156 27.44ZM740.103 28H745.783V48H740.103V46.48C739.223 47.1467 738.249 47.6533 737.183 48C736.143 48.3733 735.089 48.56 734.023 48.56C731.943 48.56 730.143 48.1067 728.623 47.2C727.129 46.2933 725.983 45.0533 725.183 43.48C724.383 41.88 723.983 40.0667 723.983 38.04C723.983 36.0133 724.383 34.2 725.183 32.6C725.983 30.9733 727.129 29.7067 728.623 28.8C730.143 27.8933 731.943 27.44 734.023 27.44C735.116 27.44 736.183 27.6267 737.223 28C738.263 28.3733 739.223 28.8933 740.103 29.56V28ZM734.783 43.12C736.276 43.12 737.529 42.64 738.543 41.68C739.556 40.72 740.063 39.48 740.063 37.96C740.063 36.4933 739.556 35.2933 738.543 34.36C737.529 33.4267 736.276 32.96 734.783 32.96C733.289 32.96 732.063 33.4267 731.103 34.36C730.143 35.2933 729.663 36.52 729.663 38.04C729.663 39.56 730.143 40.7867 731.103 41.72C732.063 42.6533 733.289 43.12 734.783 43.12ZM755.855 41.68C755.855 42.1067 755.949 42.4133 756.135 42.6C756.349 42.7867 756.695 42.88 757.175 42.88C757.522 42.88 757.935 42.84 758.415 42.76V48C757.109 48.1867 756.095 48.28 755.375 48.28C753.642 48.28 752.335 47.8267 751.455 46.92C750.575 45.9867 750.135 44.36 750.135 42.04V20H755.855V41.68ZM782.924 39.32L789.444 20H795.804L786.284 48H779.524L770.004 20H776.364L782.924 39.32ZM800.673 25.28C799.607 25.28 798.767 25 798.153 24.44C797.567 23.8533 797.273 23.0667 797.273 22.08C797.273 21.0667 797.567 20.2667 798.153 19.68C798.767 19.0933 799.607 18.8 800.673 18.8C801.713 18.8 802.54 19.0933 803.153 19.68C803.767 20.2667 804.073 21.0667 804.073 22.08C804.073 23.0667 803.767 23.8533 803.153 24.44C802.54 25 801.713 25.28 800.673 25.28ZM797.793 48V28H803.513V48H797.793ZM822.68 20H828.36V48H822.68V46.48C821.8 47.1467 820.84 47.6533 819.8 48C818.787 48.3733 817.733 48.56 816.64 48.56C814.56 48.56 812.76 48.1067 811.24 47.2C809.747 46.2933 808.6 45.0533 807.8 43.48C807 41.88 806.6 40.0667 806.6 38.04C806.6 36.0133 807 34.2 807.8 32.6C808.6 30.9733 809.747 29.7067 811.24 28.8C812.76 27.8933 814.56 27.44 816.64 27.44C817.707 27.44 818.76 27.6267 819.8 28C820.84 28.3467 821.8 28.8533 822.68 29.52V20ZM817.4 43.12C818.893 43.12 820.147 42.64 821.16 41.68C822.173 40.72 822.68 39.48 822.68 37.96C822.68 36.4933 822.173 35.2933 821.16 34.36C820.147 33.4267 818.893 32.96 817.4 32.96C815.907 32.96 814.68 33.4267 813.72 34.36C812.76 35.2933 812.28 36.52 812.28 38.04C812.28 39.56 812.76 40.7867 813.72 41.72C814.68 42.6533 815.907 43.12 817.4 43.12ZM841.998 27.48C843.945 27.48 845.678 27.9467 847.198 28.88C848.745 29.8133 849.945 31.08 850.798 32.68C851.651 34.28 852.078 36.0533 852.078 38C852.078 38.7467 852.025 39.4267 851.918 40.04H837.118C837.625 41.2667 838.305 42.1867 839.158 42.8C840.011 43.3867 841.118 43.68 842.478 43.68C843.305 43.68 844.105 43.5067 844.878 43.16C845.678 42.8133 846.305 42.3467 846.758 41.76L851.078 44.32C850.145 45.68 848.931 46.72 847.438 47.44C845.971 48.16 844.278 48.52 842.358 48.52C840.198 48.52 838.291 48.0667 836.638 47.16C834.985 46.2267 833.705 44.96 832.798 43.36C831.891 41.76 831.438 39.9733 831.438 38C831.438 36.0267 831.878 34.24 832.758 32.64C833.665 31.04 834.918 29.7867 836.518 28.88C838.118 27.9467 839.945 27.48 841.998 27.48ZM846.718 35.6C846.531 34.5867 845.998 33.8 845.118 33.24C844.265 32.68 843.211 32.4 841.958 32.4C840.651 32.4 839.518 32.72 838.558 33.36C837.598 33.9733 837.091 34.72 837.038 35.6H846.718ZM864.537 48.6C862.617 48.6 860.844 48.1333 859.217 47.2C857.617 46.24 856.337 44.9467 855.377 43.32C854.444 41.6933 853.977 39.9333 853.977 38.04C853.977 36.12 854.444 34.36 855.377 32.76C856.337 31.1333 857.617 29.8533 859.217 28.92C860.844 27.96 862.617 27.48 864.537 27.48C866.431 27.48 868.177 27.96 869.777 28.92C871.404 29.8533 872.684 31.1333 873.617 32.76C874.577 34.36 875.057 36.12 875.057 38.04C875.057 39.9333 874.577 41.6933 873.617 43.32C872.684 44.9467 871.404 46.24 869.777 47.2C868.177 48.1333 866.431 48.6 864.537 48.6ZM864.497 42.88C865.831 42.88 866.977 42.4133 867.937 41.48C868.897 40.52 869.377 39.3733 869.377 38.04C869.377 36.7067 868.897 35.56 867.937 34.6C866.977 33.64 865.831 33.16 864.497 33.16C863.164 33.16 862.017 33.64 861.057 34.6C860.124 35.56 859.657 36.7067 859.657 38.04C859.657 39.3733 860.124 40.52 861.057 41.48C862.017 42.4133 863.164 42.88 864.497 42.88ZM918.761 40.72H887.841V35.92H918.761V40.72ZM943.275 39.32L949.795 20H956.155L946.635 48H939.875L930.355 20H936.715L943.275 39.32ZM961.025 25.28C959.958 25.28 959.118 25 958.505 24.44C957.918 23.8533 957.625 23.0667 957.625 22.08C957.625 21.0667 957.918 20.2667 958.505 19.68C959.118 19.0933 959.958 18.8 961.025 18.8C962.065 18.8 962.892 19.0933 963.505 19.68C964.118 20.2667 964.425 21.0667 964.425 22.08C964.425 23.0667 964.118 23.8533 963.505 24.44C962.892 25 962.065 25.28 961.025 25.28ZM958.145 48V28H963.865V48H958.145ZM983.032 20H988.712V48H983.032V46.48C982.152 47.1467 981.192 47.6533 980.152 48C979.138 48.3733 978.085 48.56 976.992 48.56C974.912 48.56 973.112 48.1067 971.592 47.2C970.098 46.2933 968.952 45.0533 968.152 43.48C967.352 41.88 966.952 40.0667 966.952 38.04C966.952 36.0133 967.352 34.2 968.152 32.6C968.952 30.9733 970.098 29.7067 971.592 28.8C973.112 27.8933 974.912 27.44 976.992 27.44C978.058 27.44 979.112 27.6267 980.152 28C981.192 28.3467 982.152 28.8533 983.032 29.52V20ZM977.752 43.12C979.245 43.12 980.498 42.64 981.512 41.68C982.525 40.72 983.032 39.48 983.032 37.96C983.032 36.4933 982.525 35.2933 981.512 34.36C980.498 33.4267 979.245 32.96 977.752 32.96C976.258 32.96 975.032 33.4267 974.072 34.36C973.112 35.2933 972.632 36.52 972.632 38.04C972.632 39.56 973.112 40.7867 974.072 41.72C975.032 42.6533 976.258 43.12 977.752 43.12ZM1002.35 27.48C1004.3 27.48 1006.03 27.9467 1007.55 28.88C1009.1 29.8133 1010.3 31.08 1011.15 32.68C1012 34.28 1012.43 36.0533 1012.43 38C1012.43 38.7467 1012.38 39.4267 1012.27 40.04H997.47C997.976 41.2667 998.656 42.1867 999.51 42.8C1000.36 43.3867 1001.47 43.68 1002.83 43.68C1003.66 43.68 1004.46 43.5067 1005.23 43.16C1006.03 42.8133 1006.66 42.3467 1007.11 41.76L1011.43 44.32C1010.5 45.68 1009.28 46.72 1007.79 47.44C1006.32 48.16 1004.63 48.52 1002.71 48.52C1000.55 48.52 998.643 48.0667 996.99 47.16C995.336 46.2267 994.056 44.96 993.15 43.36C992.243 41.76 991.79 39.9733 991.79 38C991.79 36.0267 992.23 34.24 993.11 32.64C994.016 31.04 995.27 29.7867 996.87 28.88C998.47 27.9467 1000.3 27.48 1002.35 27.48ZM1007.07 35.6C1006.88 34.5867 1006.35 33.8 1005.47 33.24C1004.62 32.68 1003.56 32.4 1002.31 32.4C1001 32.4 999.87 32.72 998.91 33.36C997.95 33.9733 997.443 34.72 997.39 35.6H1007.07ZM1024.89 48.6C1022.97 48.6 1021.2 48.1333 1019.57 47.2C1017.97 46.24 1016.69 44.9467 1015.73 43.32C1014.8 41.6933 1014.33 39.9333 1014.33 38.04C1014.33 36.12 1014.8 34.36 1015.73 32.76C1016.69 31.1333 1017.97 29.8533 1019.57 28.92C1021.2 27.96 1022.97 27.48 1024.89 27.48C1026.78 27.48 1028.53 27.96 1030.13 28.92C1031.76 29.8533 1033.04 31.1333 1033.97 32.76C1034.93 34.36 1035.41 36.12 1035.41 38.04C1035.41 39.9333 1034.93 41.6933 1033.97 43.32C1033.04 44.9467 1031.76 46.24 1030.13 47.2C1028.53 48.1333 1026.78 48.6 1024.89 48.6ZM1024.85 42.88C1026.18 42.88 1027.33 42.4133 1028.29 41.48C1029.25 40.52 1029.73 39.3733 1029.73 38.04C1029.73 36.7067 1029.25 35.56 1028.29 34.6C1027.33 33.64 1026.18 33.16 1024.85 33.16C1023.52 33.16 1022.37 33.64 1021.41 34.6C1020.48 35.56 1020.01 36.7067 1020.01 38.04C1020.01 39.3733 1020.48 40.52 1021.41 41.48C1022.37 42.4133 1023.52 42.88 1024.85 42.88ZM1061.19 20C1063.81 20 1066.21 20.6267 1068.39 21.88C1070.61 23.1067 1072.35 24.8 1073.63 26.96C1074.94 29.0933 1075.59 31.4667 1075.59 34.08C1075.59 36.6933 1074.95 39.0667 1073.67 41.2C1072.39 43.3067 1070.65 44.9733 1068.43 46.2C1066.22 47.4 1063.81 48 1061.19 48H1049.71V20H1061.19ZM1061.19 42.28C1062.71 42.28 1064.11 41.92 1065.39 41.2C1066.7 40.4533 1067.73 39.4533 1068.47 38.2C1069.22 36.9467 1069.59 35.56 1069.59 34.04C1069.59 32.52 1069.22 31.12 1068.47 29.84C1067.73 28.56 1066.7 27.5467 1065.39 26.8C1064.11 26.0533 1062.71 25.68 1061.19 25.68H1055.71V42.28H1061.19ZM1081.61 25.28C1080.54 25.28 1079.7 25 1079.09 24.44C1078.5 23.8533 1078.21 23.0667 1078.21 22.08C1078.21 21.0667 1078.5 20.2667 1079.09 19.68C1079.7 19.0933 1080.54 18.8 1081.61 18.8C1082.65 18.8 1083.48 19.0933 1084.09 19.68C1084.7 20.2667 1085.01 21.0667 1085.01 22.08C1085.01 23.0667 1084.7 23.8533 1084.09 24.44C1083.48 25 1082.65 25.28 1081.61 25.28ZM1078.73 48V28H1084.45V48H1078.73ZM1101.72 27.6L1101.32 33C1101.13 32.92 1100.83 32.88 1100.4 32.88C1098.77 32.88 1097.44 33.3467 1096.4 34.28C1095.39 35.1867 1094.88 36.3867 1094.88 37.88V48H1089.16V28H1094.88V31.24C1095.36 30.2 1096.13 29.3333 1097.2 28.64C1098.27 27.9467 1099.56 27.6 1101.08 27.6H1101.72ZM1113.29 27.48C1115.23 27.48 1116.97 27.9467 1118.49 28.88C1120.03 29.8133 1121.23 31.08 1122.09 32.68C1122.94 34.28 1123.37 36.0533 1123.37 38C1123.37 38.7467 1123.31 39.4267 1123.21 40.04H1108.41C1108.91 41.2667 1109.59 42.1867 1110.45 42.8C1111.3 43.3867 1112.41 43.68 1113.77 43.68C1114.59 43.68 1115.39 43.5067 1116.17 43.16C1116.97 42.8133 1117.59 42.3467 1118.05 41.76L1122.37 44.32C1121.43 45.68 1120.22 46.72 1118.73 47.44C1117.26 48.16 1115.57 48.52 1113.65 48.52C1111.49 48.52 1109.58 48.0667 1107.93 47.16C1106.27 46.2267 1104.99 44.96 1104.09 43.36C1103.18 41.76 1102.73 39.9733 1102.73 38C1102.73 36.0267 1103.17 34.24 1104.05 32.64C1104.95 31.04 1106.21 29.7867 1107.81 28.88C1109.41 27.9467 1111.23 27.48 1113.29 27.48ZM1118.01 35.6C1117.82 34.5867 1117.29 33.8 1116.41 33.24C1115.55 32.68 1114.5 32.4 1113.25 32.4C1111.94 32.4 1110.81 32.72 1109.85 33.36C1108.89 33.9733 1108.38 34.72 1108.33 35.6H1118.01ZM1144.43 44.08C1143.44 45.4667 1142.19 46.5733 1140.67 47.4C1139.17 48.2 1137.56 48.6 1135.83 48.6C1133.91 48.6 1132.13 48.1333 1130.51 47.2C1128.91 46.24 1127.63 44.9467 1126.67 43.32C1125.73 41.6933 1125.27 39.9333 1125.27 38.04C1125.27 36.12 1125.73 34.36 1126.67 32.76C1127.63 31.1333 1128.91 29.8533 1130.51 28.92C1132.13 27.96 1133.91 27.48 1135.83 27.48C1137.56 27.48 1139.17 27.88 1140.67 28.68C1142.16 29.48 1143.4 30.56 1144.39 31.92L1139.67 35.04C1138.55 33.7867 1137.27 33.16 1135.83 33.16C1134.49 33.16 1133.35 33.64 1132.39 34.6C1131.43 35.56 1130.95 36.7067 1130.95 38.04C1130.95 39.3733 1131.43 40.52 1132.39 41.48C1133.35 42.4133 1134.49 42.88 1135.83 42.88C1137.27 42.88 1138.55 42.2533 1139.67 41L1144.43 44.08ZM1154.76 40.88C1154.76 41.6267 1154.96 42.1467 1155.36 42.44C1155.79 42.7333 1156.43 42.88 1157.28 42.88C1157.82 42.88 1158.4 42.84 1159.04 42.76V48C1157.71 48.1333 1156.6 48.2 1155.72 48.2C1153.48 48.2 1151.8 47.7067 1150.68 46.72C1149.59 45.7067 1149.04 43.88 1149.04 41.24V33.08H1145.6V28H1149.04V23.36L1154.76 21.44V28H1158.96V33.08H1154.76V40.88ZM1171.8 48.6C1169.88 48.6 1168.11 48.1333 1166.48 47.2C1164.88 46.24 1163.6 44.9467 1162.64 43.32C1161.71 41.6933 1161.24 39.9333 1161.24 38.04C1161.24 36.12 1161.71 34.36 1162.64 32.76C1163.6 31.1333 1164.88 29.8533 1166.48 28.92C1168.11 27.96 1169.88 27.48 1171.8 27.48C1173.7 27.48 1175.44 27.96 1177.04 28.92C1178.67 29.8533 1179.95 31.1333 1180.88 32.76C1181.84 34.36 1182.32 36.12 1182.32 38.04C1182.32 39.9333 1181.84 41.6933 1180.88 43.32C1179.95 44.9467 1178.67 46.24 1177.04 47.2C1175.44 48.1333 1173.7 48.6 1171.8 48.6ZM1171.76 42.88C1173.1 42.88 1174.24 42.4133 1175.2 41.48C1176.16 40.52 1176.64 39.3733 1176.64 38.04C1176.64 36.7067 1176.16 35.56 1175.2 34.6C1174.24 33.64 1173.1 33.16 1171.76 33.16C1170.43 33.16 1169.28 33.64 1168.32 34.6C1167.39 35.56 1166.92 36.7067 1166.92 38.04C1166.92 39.3733 1167.39 40.52 1168.32 41.48C1169.28 42.4133 1170.43 42.88 1171.76 42.88ZM1197.89 27.6L1197.49 33C1197.3 32.92 1197 32.88 1196.57 32.88C1194.94 32.88 1193.61 33.3467 1192.57 34.28C1191.56 35.1867 1191.05 36.3867 1191.05 37.88V48H1185.33V28H1191.05V31.24C1191.53 30.2 1192.3 29.3333 1193.37 28.64C1194.44 27.9467 1195.73 27.6 1197.25 27.6H1197.89Z" fill="#EAEAEA"/>
<path d="M47.2799 0.696279C48.8447 2.14924 50.8167 9.04855 51.562 11.3535C52.7262 14.9541 53.7031 17.8834 55.1769 21.3565C56.3528 24.1258 56.8354 28.5849 59.368 30.3786C61.016 31.5467 63.9727 32.0046 64.3929 34.5034C64.8351 37.1349 64.1522 39.8509 62.6576 42.0193C62.0723 42.8687 60.3201 44.3555 60.181 45.2348C59.6606 48.514 62.0306 51.9988 61.5403 55.3288C61.1955 57.6754 59.8844 58.7901 57.5443 57.799C56.8432 57.5024 56.2292 56.5242 55.2822 57.0016C53.9385 58.4389 55.4995 60.3498 53.8657 61.6844C53.0995 62.3113 52.163 62.3426 51.2095 62.0915C49.897 61.7468 49.2961 59.7137 47.6987 60.1937C47.1186 60.368 43.6416 64.5214 42.6725 65.3382C38.9627 68.4679 33.4878 70.8652 28.6268 69.4032C26.4233 68.7411 23.0191 65.9327 21.3034 64.3223C20.3343 63.4131 17.5728 59.9335 16.6362 59.633C14.6174 58.9866 14.5446 61.661 13.7849 62.4987C13.0734 63.2843 11.9079 63.2843 11.0611 62.7653C9.20882 61.6297 9.84489 57.7912 8.97208 57.5258C7.80398 57.1694 6.65019 60.7998 4.36733 59.144C3.07176 58.2035 3.09258 55.7997 3.18884 54.3558C3.41908 50.9244 5.74745 47.2874 3.56996 44.0368C1.61099 41.1113 -0.68617 40.3894 0.193153 36.1255C0.752486 33.412 3.24998 32.616 4.83042 30.8001C6.83101 28.5016 8.24884 24.6682 9.534 21.8846C11.8637 16.835 12.1499 12.0598 14.1804 7.01934C14.6109 5.95141 16.5374 1.68747 17.1474 1.04229C18.0411 0.0979235 19.0127 0.0237792 20.0716 0.739205C21.8302 1.92941 23.9453 8.41507 25.0665 10.5835C25.8327 12.065 26.9228 14.2334 28.7334 14.439C30.2111 14.6068 35.9605 14.6289 37.1807 14.1372C38.8092 13.4816 39.7406 9.67942 40.3936 8.20305C40.8228 7.23397 41.4888 6.38326 41.8934 5.4337C42.4943 4.02106 42.6075 2.22079 43.6039 1.04619C44.6003 -0.128411 46.0936 -0.408078 47.2812 0.693678L47.2799 0.696279ZM18.8189 8.99262C16.9029 9.4674 16.1185 14.7355 16.4307 16.3654C16.7286 17.9237 19.178 16.3875 20.0209 15.8984C21.9135 14.798 22.0045 14.8617 21.453 12.5697C21.2084 11.5564 20.1301 8.66742 18.8189 8.99131V8.99262ZM44.5535 9.41407C43.877 10.0619 42.8898 13.9108 43.172 14.8565C43.6169 16.3459 47.86 18.5312 48.327 16.9403C48.7068 15.6513 47.782 10.7669 46.8519 9.75877C46.3264 9.19033 45.144 8.84823 44.5535 9.41407ZM27.4131 49.3855C27.5276 44.3073 25.1056 34.48 19.6748 32.6303C15.3979 31.1734 12.7443 35.7222 12.3814 39.354C11.8897 44.2696 13.1983 48.7209 16.138 52.6193C19.0648 56.4982 24.3641 63.0268 28.6242 65.1418C34.0458 67.8344 38.9549 64.8439 42.3499 60.5436C47.3436 54.2179 52.8849 47.7609 52.2436 39.1185C51.8443 33.7385 47.2265 28.9075 42.5685 33.9428C39.0356 37.7618 37.5267 44.3242 37.1781 49.3855C37.0207 49.569 34.9823 48.1576 34.5934 48.0067C32.174 47.0637 30.6833 47.6607 28.5656 48.8106C28.1832 49.0187 27.9907 49.5312 27.4145 49.3855H27.4131Z" fill="white"/>
<path d="M27.4136 49.3866C27.9898 49.5323 28.1823 49.0198 28.5648 48.8117C30.6824 47.6618 32.1731 47.0648 34.5925 48.0078C34.9815 48.1587 37.0198 49.5714 37.1772 49.3866C37.5258 44.3253 39.0334 37.7629 42.5676 33.9439C47.2257 28.9086 51.8434 33.7396 52.2427 39.1196C52.8853 47.762 47.3427 54.219 42.3491 60.5447C38.954 64.845 34.0462 67.8355 28.6233 65.1429C24.3632 63.0279 19.0639 56.5006 16.1372 52.6204C13.1961 48.722 11.8888 44.2707 12.3805 39.3551C12.7434 35.7233 15.397 31.1745 19.674 32.6314C25.1047 34.4811 27.5267 44.3084 27.4123 49.3866H27.4136ZM21.2531 36.4179C19.9692 36.6131 19.5374 39.8975 19.4788 40.9589C19.406 42.274 19.5712 47.5968 21.4053 47.6826C22.7906 47.7464 23.268 45.0434 23.35 44.0119C23.4592 42.6226 23.6361 36.0563 21.2531 36.4179ZM43.6368 36.4166C43.2362 36.4921 43.0398 36.7301 42.829 37.0501C41.6909 38.7736 41.7169 45.1344 42.8316 46.8918C43.7773 48.3825 44.8049 47.5812 45.3252 46.2479C46.1382 44.1666 46.0927 39.4982 45.1509 37.4651C44.84 36.7939 44.5044 36.2527 43.6368 36.4166Z" fill="black"/>
<path d="M44.554 9.4149C45.1458 8.84906 46.3269 9.19117 46.8524 9.7596C47.7838 10.7677 48.7073 15.6521 48.3275 16.9412C47.8592 18.532 43.6174 16.3467 43.1725 14.8573C42.8903 13.9117 43.8776 10.0627 44.554 9.4149Z" fill="black"/>
<path d="M18.8181 8.99217C20.1292 8.66698 21.2076 11.556 21.4521 12.5706C22.005 14.8626 21.9126 14.7988 20.02 15.8993C19.1771 16.3897 16.7277 17.9246 16.4298 16.3663C16.1177 14.7351 16.902 9.46696 18.8181 8.99347V8.99217Z" fill="black"/>
<path d="M43.6367 36.4167C44.5056 36.2515 44.8399 36.7926 45.1508 37.4651C46.0939 39.4982 46.1381 44.168 45.3251 46.2479C44.8048 47.5812 43.7772 48.3825 42.8315 46.8918C41.7155 45.1345 41.6895 38.7737 42.8289 37.0502C43.0397 36.7302 43.2361 36.4934 43.6367 36.4167Z" fill="white"/>
<path d="M21.2527 36.4167C23.6357 36.0551 23.4601 42.6214 23.3495 44.0106C23.2676 45.0422 22.7902 47.7452 21.4048 47.6814C19.5694 47.5969 19.4056 42.2728 19.4784 40.9577C19.5369 39.8976 19.9688 36.6118 21.2527 36.4167Z" fill="white"/>
<path d="M28.429 54.4453L31.08 58.6039C31.4781 58.9447 32.014 59.8318 32.5837 59.7421L36.3625 54.95L36.0581 54.4453H28.4277H28.429Z" fill="white"/>
</svg>
