<svg width="1094" height="70" viewBox="0 0 1094 70" fill="none" xmlns="http://www.w3.org/2000/svg">
<path d="M100.422 35.96V20H106.422V48H101.342L90.1419 30.48V48H84.1419V20H90.1419L100.422 35.96ZM128.996 20V25.68H117.876V31.32H128.596V37H117.876V48H111.876V20H128.996ZM152.587 20V25.68H145.187V48H139.147V25.68H131.787V20H152.587ZM175.496 48.52C172.723 48.52 170.389 47.9067 168.496 46.68C166.629 45.4533 165.309 43.7867 164.536 41.68L169.616 38.72C170.149 40.0533 170.896 41.04 171.856 41.68C172.843 42.32 174.109 42.64 175.656 42.64C176.909 42.64 177.869 42.3467 178.536 41.76C179.229 41.1733 179.576 40.52 179.576 39.8C179.576 39.2667 179.416 38.8133 179.096 38.44C178.776 38.0667 178.229 37.72 177.456 37.4C176.683 37.0533 175.563 36.6667 174.096 36.24C171.536 35.4933 169.496 34.48 167.976 33.2C166.456 31.92 165.696 30.0933 165.696 27.72C165.696 26.04 166.109 24.5867 166.936 23.36C167.789 22.1067 168.909 21.1467 170.296 20.48C171.709 19.8133 173.229 19.48 174.856 19.48C177.123 19.48 179.109 20.0267 180.816 21.12C182.523 22.1867 183.856 23.7067 184.816 25.68L179.616 28.64C179.109 27.52 178.469 26.7067 177.696 26.2C176.923 25.6667 175.976 25.4 174.856 25.4C174.003 25.4 173.269 25.64 172.656 26.12C172.043 26.5733 171.736 27.1067 171.736 27.72C171.736 28.2267 171.856 28.6667 172.096 29.04C172.363 29.3867 172.829 29.72 173.496 30.04C174.189 30.36 175.203 30.72 176.536 31.12C178.323 31.68 179.856 32.3067 181.136 33C182.443 33.6667 183.509 34.5867 184.336 35.76C185.189 36.9333 185.616 38.4 185.616 40.16C185.616 41.84 185.176 43.32 184.296 44.6C183.416 45.8533 182.203 46.8267 180.656 47.52C179.136 48.1867 177.416 48.52 175.496 48.52ZM197.795 27.48C199.742 27.48 201.475 27.9467 202.995 28.88C204.542 29.8133 205.742 31.08 206.595 32.68C207.448 34.28 207.875 36.0533 207.875 38C207.875 38.7467 207.822 39.4267 207.715 40.04H192.915C193.422 41.2667 194.102 42.1867 194.955 42.8C195.808 43.3867 196.915 43.68 198.275 43.68C199.102 43.68 199.902 43.5067 200.675 43.16C201.475 42.8133 202.102 42.3467 202.555 41.76L206.875 44.32C205.942 45.68 204.728 46.72 203.235 47.44C201.768 48.16 200.075 48.52 198.155 48.52C195.995 48.52 194.088 48.0667 192.435 47.16C190.782 46.2267 189.502 44.96 188.595 43.36C187.688 41.76 187.235 39.9733 187.235 38C187.235 36.0267 187.675 34.24 188.555 32.64C189.462 31.04 190.715 29.7867 192.315 28.88C193.915 27.9467 195.742 27.48 197.795 27.48ZM202.515 35.6C202.328 34.5867 201.795 33.8 200.915 33.24C200.062 32.68 199.008 32.4 197.755 32.4C196.448 32.4 195.315 32.72 194.355 33.36C193.395 33.9733 192.888 34.72 192.835 35.6H202.515ZM216.574 41.68C216.574 42.1067 216.667 42.4133 216.854 42.6C217.067 42.7867 217.414 42.88 217.894 42.88C218.241 42.88 218.654 42.84 219.134 42.76V48C217.827 48.1867 216.814 48.28 216.094 48.28C214.361 48.28 213.054 47.8267 212.174 46.92C211.294 45.9867 210.854 44.36 210.854 42.04V20H216.574V41.68ZM234.368 24.88C233.728 24.8 233.141 24.76 232.608 24.76C231.755 24.76 231.115 24.9067 230.688 25.2C230.288 25.4933 230.088 26.0133 230.088 26.76V28H234.328V33.08H230.088V48H224.368V33.08H221.248V28H224.368V26.4C224.368 23.76 224.915 21.9467 226.008 20.96C227.128 19.9467 228.821 19.44 231.088 19.44C231.995 19.44 233.088 19.5067 234.368 19.64V24.88ZM269.066 20.04V20H275.066V48H269.066V31.04L261.946 42.96H260.466L253.306 31V48H247.306V20H253.306V20.04L253.386 20L261.186 33.12L268.986 20L269.066 20.04ZM283.189 25.28C282.122 25.28 281.282 25 280.669 24.44C280.082 23.8533 279.789 23.0667 279.789 22.08C279.789 21.0667 280.082 20.2667 280.669 19.68C281.282 19.0933 282.122 18.8 283.189 18.8C284.229 18.8 285.056 19.0933 285.669 19.68C286.282 20.2667 286.589 21.0667 286.589 22.08C286.589 23.0667 286.282 23.8533 285.669 24.44C285.056 25 284.229 25.28 283.189 25.28ZM280.309 48V28H286.029V48H280.309ZM301.297 27.44C302.47 27.44 303.657 27.6933 304.857 28.2C306.057 28.7067 307.084 29.6 307.937 30.88C308.79 32.16 309.217 33.88 309.217 36.04V48H303.497V36.04C303.497 34.76 303.137 33.84 302.417 33.28C301.724 32.72 300.884 32.44 299.897 32.44C298.91 32.44 298.084 32.7867 297.417 33.48C296.777 34.1733 296.457 35.28 296.457 36.8V48H290.737V28H296.457V29.36C297.977 28.08 299.59 27.44 301.297 27.44ZM320.169 40.88C320.169 41.6267 320.369 42.1467 320.769 42.44C321.196 42.7333 321.836 42.88 322.689 42.88C323.222 42.88 323.809 42.84 324.449 42.76V48C323.116 48.1333 322.009 48.2 321.129 48.2C318.889 48.2 317.209 47.7067 316.089 46.72C314.996 45.7067 314.449 43.88 314.449 41.24V33.08H311.009V28H314.449V23.36L320.169 21.44V28H324.369V33.08H320.169V40.88ZM363.781 48H357.381L355.421 42.72H345.061L343.101 48H336.661L347.021 20H353.461L363.781 48ZM350.261 28.72L347.141 37.04H353.341L350.261 28.72ZM377.389 28H383.109V48H377.389V46.64C375.869 47.92 374.256 48.56 372.549 48.56C371.376 48.56 370.189 48.3067 368.989 47.8C367.789 47.2933 366.762 46.4 365.909 45.12C365.056 43.84 364.629 42.12 364.629 39.96V28H370.349V39.96C370.349 41.2133 370.709 42.1333 371.429 42.72C372.149 43.28 373.002 43.56 373.989 43.56C374.949 43.56 375.749 43.2133 376.389 42.52C377.056 41.8267 377.389 40.72 377.389 39.2V28ZM394.505 40.88C394.505 41.6267 394.705 42.1467 395.105 42.44C395.532 42.7333 396.172 42.88 397.025 42.88C397.558 42.88 398.145 42.84 398.785 42.76V48C397.452 48.1333 396.345 48.2 395.465 48.2C393.225 48.2 391.545 47.7067 390.425 46.72C389.332 45.7067 388.785 43.88 388.785 41.24V33.08H385.345V28H388.785V23.36L394.505 21.44V28H398.705V33.08H394.505V40.88ZM411.545 48.6C409.625 48.6 407.852 48.1333 406.225 47.2C404.625 46.24 403.345 44.9467 402.385 43.32C401.452 41.6933 400.985 39.9333 400.985 38.04C400.985 36.12 401.452 34.36 402.385 32.76C403.345 31.1333 404.625 29.8533 406.225 28.92C407.852 27.96 409.625 27.48 411.545 27.48C413.438 27.48 415.185 27.96 416.785 28.92C418.412 29.8533 419.692 31.1333 420.625 32.76C421.585 34.36 422.065 36.12 422.065 38.04C422.065 39.9333 421.585 41.6933 420.625 43.32C419.692 44.9467 418.412 46.24 416.785 47.2C415.185 48.1333 413.438 48.6 411.545 48.6ZM411.505 42.88C412.838 42.88 413.985 42.4133 414.945 41.48C415.905 40.52 416.385 39.3733 416.385 38.04C416.385 36.7067 415.905 35.56 414.945 34.6C413.985 33.64 412.838 33.16 411.505 33.16C410.172 33.16 409.025 33.64 408.065 34.6C407.132 35.56 406.665 36.7067 406.665 38.04C406.665 39.3733 407.132 40.52 408.065 41.48C409.025 42.4133 410.172 42.88 411.505 42.88ZM447.841 27.44C449.015 27.44 450.201 27.6933 451.401 28.2C452.601 28.7067 453.628 29.6 454.481 30.88C455.335 32.16 455.761 33.88 455.761 36.04V48H450.081V36.04C450.081 34.76 449.721 33.84 449.001 33.28C448.281 32.72 447.428 32.44 446.441 32.44C445.615 32.44 444.895 32.6933 444.281 33.2C443.695 33.68 443.308 34.44 443.121 35.48V36.04V48H437.401V36.04C437.401 34.76 437.041 33.84 436.321 33.28C435.601 32.72 434.748 32.44 433.761 32.44C432.935 32.44 432.215 32.6933 431.601 33.2C430.988 33.7067 430.601 34.52 430.441 35.64V48H424.721V28H430.441V29.28C431.908 28.0533 433.495 27.44 435.201 27.44C436.375 27.44 437.561 27.6933 438.761 28.2C439.988 28.7067 440.988 29.5467 441.761 30.72C442.455 29.7867 443.335 29.0133 444.401 28.4C445.468 27.76 446.615 27.44 447.841 27.44ZM474.415 28H480.095V48H474.415V46.48C473.535 47.1467 472.562 47.6533 471.495 48C470.455 48.3733 469.402 48.56 468.335 48.56C466.255 48.56 464.455 48.1067 462.935 47.2C461.442 46.2933 460.295 45.0533 459.495 43.48C458.695 41.88 458.295 40.0667 458.295 38.04C458.295 36.0133 458.695 34.2 459.495 32.6C460.295 30.9733 461.442 29.7067 462.935 28.8C464.455 27.8933 466.255 27.44 468.335 27.44C469.429 27.44 470.495 27.6267 471.535 28C472.575 28.3733 473.535 28.8933 474.415 29.56V28ZM469.095 43.12C470.589 43.12 471.842 42.64 472.855 41.68C473.869 40.72 474.375 39.48 474.375 37.96C474.375 36.4933 473.869 35.2933 472.855 34.36C471.842 33.4267 470.589 32.96 469.095 32.96C467.602 32.96 466.375 33.4267 465.415 34.36C464.455 35.2933 463.975 36.52 463.975 38.04C463.975 39.56 464.455 40.7867 465.415 41.72C466.375 42.6533 467.602 43.12 469.095 43.12ZM491.927 40.88C491.927 41.6267 492.127 42.1467 492.527 42.44C492.954 42.7333 493.594 42.88 494.447 42.88C494.98 42.88 495.567 42.84 496.207 42.76V48C494.874 48.1333 493.767 48.2 492.887 48.2C490.647 48.2 488.967 47.7067 487.847 46.72C486.754 45.7067 486.207 43.88 486.207 41.24V33.08H482.767V28H486.207V23.36L491.927 21.44V28H496.127V33.08H491.927V40.88ZM503.189 25.28C502.122 25.28 501.282 25 500.669 24.44C500.082 23.8533 499.789 23.0667 499.789 22.08C499.789 21.0667 500.082 20.2667 500.669 19.68C501.282 19.0933 502.122 18.8 503.189 18.8C504.229 18.8 505.056 19.0933 505.669 19.68C506.282 20.2667 506.589 21.0667 506.589 22.08C506.589 23.0667 506.282 23.8533 505.669 24.44C505.056 25 504.229 25.28 503.189 25.28ZM500.309 48V28H506.029V48H500.309ZM519.436 48.6C517.516 48.6 515.742 48.1333 514.116 47.2C512.516 46.24 511.236 44.9467 510.276 43.32C509.342 41.6933 508.876 39.9333 508.876 38.04C508.876 36.12 509.342 34.36 510.276 32.76C511.236 31.1333 512.516 29.8533 514.116 28.92C515.742 27.96 517.516 27.48 519.436 27.48C521.329 27.48 523.076 27.96 524.676 28.92C526.302 29.8533 527.582 31.1333 528.516 32.76C529.476 34.36 529.956 36.12 529.956 38.04C529.956 39.9333 529.476 41.6933 528.516 43.32C527.582 44.9467 526.302 46.24 524.676 47.2C523.076 48.1333 521.329 48.6 519.436 48.6ZM519.396 42.88C520.729 42.88 521.876 42.4133 522.836 41.48C523.796 40.52 524.276 39.3733 524.276 38.04C524.276 36.7067 523.796 35.56 522.836 34.6C521.876 33.64 520.729 33.16 519.396 33.16C518.062 33.16 516.916 33.64 515.956 34.6C515.022 35.56 514.556 36.7067 514.556 38.04C514.556 39.3733 515.022 40.52 515.956 41.48C516.916 42.4133 518.062 42.88 519.396 42.88ZM543.523 27.44C544.697 27.44 545.883 27.6933 547.083 28.2C548.283 28.7067 549.31 29.6 550.163 30.88C551.017 32.16 551.443 33.88 551.443 36.04V48H545.723V36.04C545.723 34.76 545.363 33.84 544.643 33.28C543.95 32.72 543.11 32.44 542.123 32.44C541.137 32.44 540.31 32.7867 539.643 33.48C539.003 34.1733 538.683 35.28 538.683 36.8V48H532.963V28H538.683V29.36C540.203 28.08 541.817 27.44 543.523 27.44ZM592.206 38.32L597.006 20H603.246L595.566 48H589.126L583.846 30.32L578.526 48H572.086L564.406 20H570.646L575.446 38.32L580.686 20H586.966L592.206 38.32ZM612.795 48.6C610.875 48.6 609.102 48.1333 607.475 47.2C605.875 46.24 604.595 44.9467 603.635 43.32C602.702 41.6933 602.235 39.9333 602.235 38.04C602.235 36.12 602.702 34.36 603.635 32.76C604.595 31.1333 605.875 29.8533 607.475 28.92C609.102 27.96 610.875 27.48 612.795 27.48C614.688 27.48 616.435 27.96 618.035 28.92C619.662 29.8533 620.942 31.1333 621.875 32.76C622.835 34.36 623.315 36.12 623.315 38.04C623.315 39.9333 622.835 41.6933 621.875 43.32C620.942 44.9467 619.662 46.24 618.035 47.2C616.435 48.1333 614.688 48.6 612.795 48.6ZM612.755 42.88C614.088 42.88 615.235 42.4133 616.195 41.48C617.155 40.52 617.635 39.3733 617.635 38.04C617.635 36.7067 617.155 35.56 616.195 34.6C615.235 33.64 614.088 33.16 612.755 33.16C611.422 33.16 610.275 33.64 609.315 34.6C608.382 35.56 607.915 36.7067 607.915 38.04C607.915 39.3733 608.382 40.52 609.315 41.48C610.275 42.4133 611.422 42.88 612.755 42.88ZM638.883 27.6L638.483 33C638.296 32.92 637.989 32.88 637.563 32.88C635.936 32.88 634.603 33.3467 633.563 34.28C632.549 35.1867 632.043 36.3867 632.043 37.88V48H626.323V28H632.043V31.24C632.523 30.2 633.296 29.3333 634.363 28.64C635.429 27.9467 636.723 27.6 638.243 27.6H638.883ZM662.587 48H655.467L650.347 41.08L647.707 43.96V48H641.987V20H647.707V35.56L654.347 28H662.307L654.227 36.8L662.587 48ZM676.868 24.88C676.228 24.8 675.641 24.76 675.108 24.76C674.255 24.76 673.615 24.9067 673.188 25.2C672.788 25.4933 672.588 26.0133 672.588 26.76V28H676.828V33.08H672.588V48H666.868V33.08H663.748V28H666.868V26.4C666.868 23.76 667.415 21.9467 668.508 20.96C669.628 19.9467 671.321 19.44 673.588 19.44C674.495 19.44 675.588 19.5067 676.868 19.64V24.88ZM686.228 41.68C686.228 42.1067 686.321 42.4133 686.508 42.6C686.721 42.7867 687.068 42.88 687.548 42.88C687.895 42.88 688.308 42.84 688.788 42.76V48C687.481 48.1867 686.468 48.28 685.748 48.28C684.015 48.28 682.708 47.8267 681.828 46.92C680.948 45.9867 680.508 44.36 680.508 42.04V20H686.228V41.68ZM701.897 48.6C699.977 48.6 698.203 48.1333 696.577 47.2C694.977 46.24 693.697 44.9467 692.737 43.32C691.803 41.6933 691.337 39.9333 691.337 38.04C691.337 36.12 691.803 34.36 692.737 32.76C693.697 31.1333 694.977 29.8533 696.577 28.92C698.203 27.96 699.977 27.48 701.897 27.48C703.79 27.48 705.537 27.96 707.137 28.92C708.763 29.8533 710.043 31.1333 710.977 32.76C711.937 34.36 712.417 36.12 712.417 38.04C712.417 39.9333 711.937 41.6933 710.977 43.32C710.043 44.9467 708.763 46.24 707.137 47.2C705.537 48.1333 703.79 48.6 701.897 48.6ZM701.857 42.88C703.19 42.88 704.337 42.4133 705.297 41.48C706.257 40.52 706.737 39.3733 706.737 38.04C706.737 36.7067 706.257 35.56 705.297 34.6C704.337 33.64 703.19 33.16 701.857 33.16C700.523 33.16 699.377 33.64 698.417 34.6C697.483 35.56 697.017 36.7067 697.017 38.04C697.017 39.3733 697.483 40.52 698.417 41.48C699.377 42.4133 700.523 42.88 701.857 42.88ZM734.162 38.76L737.402 28H743.362L736.882 48H731.322L728.002 37.44L724.642 48H719.122L712.722 28H718.722L721.882 38.64L724.962 28H731.002L734.162 38.76Z" fill="#EAEAEA"/>
<path d="M42.7268 0.696279C44.1409 2.14924 45.923 9.04855 46.5965 11.3535C47.6486 14.9541 48.5314 17.8834 49.8633 21.3565C50.9259 24.1258 51.3621 28.5849 53.6508 30.3786C55.1401 31.5467 57.8121 32.0046 58.1918 34.5034C58.5914 37.1349 57.9743 39.8509 56.6236 42.0193C56.0946 42.8687 54.5112 44.3555 54.3855 45.2348C53.9153 48.514 56.057 51.9988 55.6139 55.3288C55.3024 57.6754 54.1174 58.7901 52.0027 57.799C51.3691 57.5024 50.8143 56.5242 49.9585 57.0016C48.7442 58.4389 50.1548 60.3498 48.6784 61.6844C47.986 62.3113 47.1396 62.3426 46.278 62.0915C45.0919 61.7468 44.5488 59.7137 43.1053 60.1937C42.581 60.368 39.4389 64.5214 38.5631 65.3382C35.2106 68.4679 30.2629 70.8652 25.87 69.4032C23.8787 68.7411 20.8024 65.9327 19.2519 64.3223C18.3761 63.4131 15.8805 59.9335 15.0342 59.633C13.2098 58.9866 13.1439 61.661 12.4574 62.4987C11.8144 63.2843 10.7612 63.2843 9.99593 62.7653C8.322 61.6297 8.89682 57.7912 8.10805 57.5258C7.05245 57.1694 6.00977 60.7998 3.94675 59.144C2.77595 58.2035 2.79476 55.7997 2.88175 54.3558C3.08982 50.9244 5.19397 47.2874 3.22617 44.0368C1.45585 41.1113 -0.620091 40.3894 0.174552 36.1255C0.680021 33.412 2.937 32.616 4.36524 30.8001C6.17317 28.5016 7.45447 24.6682 8.61587 21.8846C10.7212 16.835 10.9798 12.0598 12.8148 7.01934C13.2039 5.95141 14.9448 1.68747 15.4961 1.04229C16.3037 0.0979235 17.1818 0.0237792 18.1387 0.739205C19.7279 1.92941 21.6393 8.41507 22.6526 10.5835C23.345 12.065 24.3301 14.2334 25.9664 14.439C27.3018 14.6068 32.4975 14.6289 33.6001 14.1372C35.0719 13.4816 35.9135 9.67942 36.5036 8.20305C36.8916 7.23397 37.4934 6.38326 37.859 5.4337C38.4021 4.02106 38.5043 2.22079 39.4048 1.04619C40.3052 -0.128411 41.6547 -0.408078 42.7279 0.693678L42.7268 0.696279ZM17.0066 8.99262C15.2751 9.4674 14.5663 14.7355 14.8484 16.3654C15.1176 17.9237 17.3311 16.3875 18.0928 15.8984C19.8032 14.798 19.8855 14.8617 19.387 12.5697C19.1661 11.5564 18.1916 8.66742 17.0066 8.99131V8.99262ZM40.2629 9.41407C39.6516 10.0619 38.7594 13.9108 39.0145 14.8565C39.4165 16.3459 43.251 18.5312 43.6731 16.9403C44.0163 15.6513 43.1805 10.7669 42.34 9.75877C41.8651 9.19033 40.7966 8.84823 40.2629 9.41407ZM24.7732 49.3855C24.8767 44.3073 22.6879 34.48 17.7801 32.6303C13.9151 31.1734 11.517 35.7222 11.1891 39.354C10.7447 44.2696 11.9273 48.7209 14.5839 52.6193C17.2288 56.4982 22.0178 63.0268 25.8676 65.1418C30.7671 67.8344 35.2035 64.8439 38.2716 60.5436C42.7844 54.2179 47.792 47.7609 47.2125 39.1185C46.8516 33.7385 42.6786 28.9075 38.4691 33.9428C35.2764 37.7618 33.9128 44.3242 33.5978 49.3855C33.4555 49.569 31.6135 48.1576 31.262 48.0067C29.0756 47.0637 27.7285 47.6607 25.8147 48.8106C25.4691 49.0187 25.2952 49.5312 24.7744 49.3855H24.7732Z" fill="white"/>
<path d="M24.7745 49.3854C25.2952 49.5311 25.4692 49.0186 25.8148 48.8105C27.7285 47.6606 29.0757 47.0636 31.2621 48.0066C31.6136 48.1575 33.4556 49.5701 33.5978 49.3854C33.9129 44.3241 35.2753 37.7617 38.4692 33.9426C42.6786 28.9073 46.8517 33.7384 47.2126 39.1184C47.7933 47.7608 42.7844 54.2178 38.2717 60.5435C35.2036 64.8438 30.7684 67.8343 25.8677 65.1417C22.0179 63.0267 17.2289 56.4994 14.584 52.6192C11.9262 48.7207 10.7448 44.2695 11.1891 39.3539C11.5171 35.7221 13.9151 31.1733 17.7802 32.6302C22.688 34.4799 24.8767 44.3072 24.7733 49.3854H24.7745ZM19.2073 36.4167C18.047 36.6118 17.6568 39.8963 17.6039 40.9577C17.5381 42.2728 17.6873 47.5956 19.3448 47.6814C20.5967 47.7452 21.0281 45.0421 21.1022 44.0106C21.2009 42.6214 21.3608 36.0551 19.2073 36.4167ZM39.4354 36.4154C39.0734 36.4909 38.8959 36.7289 38.7054 37.0489C37.6769 38.7724 37.7004 45.1332 38.7078 46.8905C39.5624 48.3812 40.491 47.58 40.9612 46.2467C41.6959 44.1654 41.6548 39.4969 40.8037 37.4638C40.5228 36.7926 40.2195 36.2515 39.4354 36.4154Z" fill="black"/>
<path d="M40.2638 9.41392C40.7987 8.84808 41.866 9.19019 42.3409 9.75863C43.1826 10.7667 44.0172 15.6511 43.674 16.9402C43.2508 18.531 39.4175 16.3457 39.0154 14.8564C38.7604 13.9107 39.6526 10.0617 40.2638 9.41392Z" fill="black"/>
<path d="M17.0055 8.99266C18.1904 8.66747 19.1649 11.5565 19.3859 12.5711C19.8855 14.8631 19.802 14.7993 18.0917 15.8998C17.3299 16.3902 15.1164 17.9251 14.8473 16.3667C14.5651 14.7356 15.274 9.46744 17.0055 8.99396V8.99266Z" fill="black"/>
<path d="M39.4346 36.4153C40.2199 36.2501 40.522 36.7913 40.8029 37.4638C41.6552 39.4969 41.6951 44.1667 40.9604 46.2466C40.4902 47.5799 39.5616 48.3812 38.707 46.8905C37.6984 45.1331 37.6749 38.7723 38.7046 37.0488C38.8951 36.7288 39.0726 36.4921 39.4346 36.4153Z" fill="white"/>
<path d="M19.2055 36.4167C21.359 36.0551 21.2003 42.6214 21.1004 44.0106C21.0264 45.0422 20.5949 47.7452 19.343 47.6814C17.6844 47.5969 17.5363 42.2728 17.6021 40.9577C17.655 39.8976 18.0453 36.6118 19.2055 36.4167Z" fill="white"/>
<path d="M25.6906 54.4456L28.0863 58.6041C28.446 58.9449 28.9303 59.8321 29.4452 59.7423L32.8601 54.9503L32.585 54.4456H25.6895H25.6906Z" fill="white"/>
</svg>
