<svg width="1051" height="70" viewBox="0 0 1051 70" fill="none" xmlns="http://www.w3.org/2000/svg">
<path d="M105.84 48.56C103.227 48.56 100.813 47.9067 98.6 46.6C96.3867 45.2933 94.6267 43.5333 93.32 41.32C92.04 39.1067 91.4 36.6933 91.4 34.08C91.4 31.4667 92.04 29.0533 93.32 26.84C94.6267 24.6267 96.3867 22.88 98.6 21.6C100.813 20.2933 103.227 19.64 105.84 19.64C108.453 19.64 110.867 20.2933 113.08 21.6C115.293 22.88 117.04 24.6267 118.32 26.84C119.627 29.0533 120.28 31.4667 120.28 34.08C120.28 36.6933 119.627 39.1067 118.32 41.32C117.04 43.5333 115.293 45.2933 113.08 46.6C110.867 47.9067 108.453 48.56 105.84 48.56ZM105.84 42.52C107.36 42.52 108.76 42.1467 110.04 41.4C111.347 40.6267 112.373 39.6 113.12 38.32C113.893 37.0133 114.28 35.6 114.28 34.08C114.28 32.56 113.893 31.16 113.12 29.88C112.373 28.6 111.347 27.5867 110.04 26.84C108.76 26.0667 107.36 25.68 105.84 25.68C104.32 25.68 102.907 26.0533 101.6 26.8C100.32 27.5467 99.3067 28.5733 98.56 29.88C97.8133 31.16 97.44 32.56 97.44 34.08C97.44 35.6 97.8133 37.0133 98.56 38.32C99.3333 39.6 100.36 40.6267 101.64 41.4C102.92 42.1467 104.32 42.52 105.84 42.52ZM122.298 34.08C122.298 31.4667 122.938 29.0533 124.218 26.84C125.525 24.6267 127.285 22.88 129.498 21.6C131.712 20.2933 134.125 19.64 136.738 19.64C139.405 19.64 141.872 20.3333 144.138 21.72C146.405 23.1067 148.165 24.9333 149.418 27.2L144.138 30.04C143.392 28.7067 142.365 27.6533 141.058 26.88C139.752 26.08 138.312 25.68 136.738 25.68C135.218 25.68 133.805 26.0533 132.498 26.8C131.218 27.5467 130.205 28.5733 129.458 29.88C128.712 31.16 128.338 32.56 128.338 34.08C128.338 35.6 128.712 37.0133 129.458 38.32C130.232 39.6 131.258 40.6267 132.538 41.4C133.818 42.1467 135.218 42.52 136.738 42.52C138.312 42.52 139.765 42.12 141.098 41.32C142.432 40.4933 143.458 39.4 144.178 38.04L149.498 40.92C148.245 43.2133 146.472 45.0667 144.178 46.48C141.912 47.8667 139.432 48.56 136.738 48.56C134.125 48.56 131.712 47.9067 129.498 46.6C127.285 45.2933 125.525 43.5333 124.218 41.32C122.938 39.1067 122.298 36.6933 122.298 34.08ZM171.865 33C172.718 33.8 173.385 34.7467 173.865 35.84C174.345 36.9333 174.585 38.0933 174.585 39.32C174.585 40.8667 174.212 42.3067 173.465 43.64C172.718 44.9733 171.705 46.0267 170.425 46.8C169.172 47.5733 167.798 47.96 166.305 47.96H159.345V48H153.345V20H165.665C167.078 20 168.385 20.3733 169.585 21.12C170.785 21.84 171.732 22.8267 172.425 24.08C173.145 25.3067 173.505 26.6267 173.505 28.04C173.505 28.92 173.358 29.8 173.065 30.68C172.798 31.5333 172.398 32.3067 171.865 33ZM159.345 25.72V30.88L165.665 30.84C166.252 30.84 166.785 30.6 167.265 30.12C167.745 29.6133 167.985 29 167.985 28.28C167.985 27.5333 167.745 26.92 167.265 26.44C166.785 25.96 166.252 25.72 165.665 25.72H159.345ZM166.305 42.24C166.998 42.24 167.598 41.9467 168.105 41.36C168.612 40.7733 168.865 40.08 168.865 39.28C168.865 38.48 168.612 37.7867 168.105 37.2C167.598 36.6133 166.998 36.32 166.305 36.32H159.345V42.24H166.305ZM177.064 34.08C177.064 31.4667 177.704 29.0533 178.984 26.84C180.291 24.6267 182.051 22.88 184.264 21.6C186.477 20.2933 188.891 19.64 191.504 19.64C194.171 19.64 196.637 20.3333 198.904 21.72C201.171 23.1067 202.931 24.9333 204.184 27.2L198.904 30.04C198.157 28.7067 197.131 27.6533 195.824 26.88C194.517 26.08 193.077 25.68 191.504 25.68C189.984 25.68 188.571 26.0533 187.264 26.8C185.984 27.5467 184.971 28.5733 184.224 29.88C183.477 31.16 183.104 32.56 183.104 34.08C183.104 35.6 183.477 37.0133 184.224 38.32C184.997 39.6 186.024 40.6267 187.304 41.4C188.584 42.1467 189.984 42.52 191.504 42.52C193.077 42.52 194.531 42.12 195.864 41.32C197.197 40.4933 198.224 39.4 198.944 38.04L204.264 40.92C203.011 43.2133 201.237 45.0667 198.944 46.48C196.677 47.8667 194.197 48.56 191.504 48.56C188.891 48.56 186.477 47.9067 184.264 46.6C182.051 45.2933 180.291 43.5333 178.984 41.32C177.704 39.1067 177.064 36.6933 177.064 34.08ZM218.345 48V20H224.385V48H218.345ZM244.79 28H250.51V47C250.51 48.8667 250.017 50.52 249.03 51.96C248.07 53.4 246.737 54.52 245.03 55.32C243.324 56.12 241.404 56.52 239.27 56.52C236.95 56.52 234.817 56.0667 232.87 55.16C230.95 54.28 229.604 53.1333 228.83 51.72L233.71 48.88C234.057 49.5733 234.75 50.1467 235.79 50.6C236.83 51.0533 238.044 51.28 239.43 51.28C240.977 51.28 242.257 50.88 243.27 50.08C244.284 49.28 244.79 48.2533 244.79 47V46.48C243.91 47.1467 242.95 47.6533 241.91 48C240.897 48.3733 239.844 48.56 238.75 48.56C236.67 48.56 234.87 48.1067 233.35 47.2C231.857 46.2933 230.71 45.0533 229.91 43.48C229.11 41.88 228.71 40.0667 228.71 38.04C228.71 36.0133 229.11 34.2 229.91 32.6C230.71 30.9733 231.857 29.7067 233.35 28.8C234.87 27.8933 236.67 27.44 238.75 27.44C239.817 27.44 240.87 27.6267 241.91 28C242.95 28.3467 243.91 28.8533 244.79 29.52V28ZM239.51 43.12C241.004 43.12 242.257 42.64 243.27 41.68C244.284 40.72 244.79 39.48 244.79 37.96C244.79 36.4933 244.284 35.2933 243.27 34.36C242.257 33.4267 241.004 32.96 239.51 32.96C238.017 32.96 236.79 33.4267 235.83 34.36C234.897 35.2933 234.43 36.52 234.43 38.04C234.43 39.56 234.897 40.7867 235.83 41.72C236.79 42.6533 238.017 43.12 239.51 43.12ZM265.969 27.44C267.142 27.44 268.329 27.6933 269.529 28.2C270.729 28.7067 271.755 29.6 272.609 30.88C273.462 32.16 273.889 33.88 273.889 36.04V48H268.169V36.04C268.169 34.76 267.809 33.84 267.089 33.28C266.395 32.72 265.555 32.44 264.569 32.44C263.582 32.44 262.755 32.7867 262.089 33.48C261.449 34.1733 261.129 35.28 261.129 36.8V48H255.409V28H261.129V29.36C262.649 28.08 264.262 27.44 265.969 27.44ZM280.595 25.28C279.529 25.28 278.689 25 278.075 24.44C277.489 23.8533 277.195 23.0667 277.195 22.08C277.195 21.0667 277.489 20.2667 278.075 19.68C278.689 19.0933 279.529 18.8 280.595 18.8C281.635 18.8 282.462 19.0933 283.075 19.68C283.689 20.2667 283.995 21.0667 283.995 22.08C283.995 23.0667 283.689 23.8533 283.075 24.44C282.462 25 281.635 25.28 280.595 25.28ZM277.715 48V28H283.435V48H277.715ZM295.896 40.88C295.896 41.6267 296.096 42.1467 296.496 42.44C296.922 42.7333 297.562 42.88 298.416 42.88C298.949 42.88 299.536 42.84 300.176 42.76V48C298.842 48.1333 297.736 48.2 296.856 48.2C294.616 48.2 292.936 47.7067 291.816 46.72C290.722 45.7067 290.176 43.88 290.176 41.24V33.08H286.736V28H290.176V23.36L295.896 21.44V28H300.096V33.08H295.896V40.88ZM312.858 27.48C314.804 27.48 316.538 27.9467 318.058 28.88C319.604 29.8133 320.804 31.08 321.658 32.68C322.511 34.28 322.938 36.0533 322.938 38C322.938 38.7467 322.884 39.4267 322.778 40.04H307.978C308.484 41.2667 309.164 42.1867 310.018 42.8C310.871 43.3867 311.978 43.68 313.338 43.68C314.164 43.68 314.964 43.5067 315.738 43.16C316.538 42.8133 317.164 42.3467 317.618 41.76L321.938 44.32C321.004 45.68 319.791 46.72 318.298 47.44C316.831 48.16 315.138 48.52 313.218 48.52C311.058 48.52 309.151 48.0667 307.498 47.16C305.844 46.2267 304.564 44.96 303.658 43.36C302.751 41.76 302.298 39.9733 302.298 38C302.298 36.0267 302.738 34.24 303.618 32.64C304.524 31.04 305.778 29.7867 307.378 28.88C308.978 27.9467 310.804 27.48 312.858 27.48ZM317.578 35.6C317.391 34.5867 316.858 33.8 315.978 33.24C315.124 32.68 314.071 32.4 312.818 32.4C311.511 32.4 310.378 32.72 309.418 33.36C308.458 33.9733 307.951 34.72 307.898 35.6H317.578ZM337.212 48V20H343.252V48H337.212ZM358.352 27.44C359.525 27.44 360.712 27.6933 361.912 28.2C363.112 28.7067 364.138 29.6 364.992 30.88C365.845 32.16 366.272 33.88 366.272 36.04V48H360.552V36.04C360.552 34.76 360.192 33.84 359.472 33.28C358.778 32.72 357.938 32.44 356.952 32.44C355.965 32.44 355.138 32.7867 354.472 33.48C353.832 34.1733 353.512 35.28 353.512 36.8V48H347.792V28H353.512V29.36C355.032 28.08 356.645 27.44 358.352 27.44ZM377.224 40.88C377.224 41.6267 377.424 42.1467 377.824 42.44C378.25 42.7333 378.89 42.88 379.744 42.88C380.277 42.88 380.864 42.84 381.504 42.76V48C380.17 48.1333 379.064 48.2 378.184 48.2C375.944 48.2 374.264 47.7067 373.144 46.72C372.05 45.7067 371.504 43.88 371.504 41.24V33.08H368.064V28H371.504V23.36L377.224 21.44V28H381.424V33.08H377.224V40.88ZM394.186 27.48C396.132 27.48 397.866 27.9467 399.386 28.88C400.932 29.8133 402.132 31.08 402.986 32.68C403.839 34.28 404.266 36.0533 404.266 38C404.266 38.7467 404.212 39.4267 404.106 40.04H389.306C389.812 41.2667 390.492 42.1867 391.346 42.8C392.199 43.3867 393.306 43.68 394.666 43.68C395.492 43.68 396.292 43.5067 397.066 43.16C397.866 42.8133 398.492 42.3467 398.946 41.76L403.266 44.32C402.332 45.68 401.119 46.72 399.626 47.44C398.159 48.16 396.466 48.52 394.546 48.52C392.386 48.52 390.479 48.0667 388.826 47.16C387.172 46.2267 385.892 44.96 384.986 43.36C384.079 41.76 383.626 39.9733 383.626 38C383.626 36.0267 384.066 34.24 384.946 32.64C385.852 31.04 387.106 29.7867 388.706 28.88C390.306 27.9467 392.132 27.48 394.186 27.48ZM398.906 35.6C398.719 34.5867 398.186 33.8 397.306 33.24C396.452 32.68 395.399 32.4 394.146 32.4C392.839 32.4 391.706 32.72 390.746 33.36C389.786 33.9733 389.279 34.72 389.226 35.6H398.906ZM419.805 27.6L419.405 33C419.218 32.92 418.911 32.88 418.485 32.88C416.858 32.88 415.525 33.3467 414.485 34.28C413.471 35.1867 412.965 36.3867 412.965 37.88V48H407.245V28H412.965V31.24C413.445 30.2 414.218 29.3333 415.285 28.64C416.351 27.9467 417.645 27.6 419.165 27.6H419.805ZM433.469 27.44C434.642 27.44 435.829 27.6933 437.029 28.2C438.229 28.7067 439.255 29.6 440.109 30.88C440.962 32.16 441.389 33.88 441.389 36.04V48H435.669V36.04C435.669 34.76 435.309 33.84 434.589 33.28C433.895 32.72 433.055 32.44 432.069 32.44C431.082 32.44 430.255 32.7867 429.589 33.48C428.949 34.1733 428.629 35.28 428.629 36.8V48H422.909V28H428.629V29.36C430.149 28.08 431.762 27.44 433.469 27.44ZM450.255 33.68C450.255 34.1333 450.535 34.48 451.095 34.72C451.655 34.9333 452.549 35.16 453.775 35.4C455.349 35.72 456.655 36.08 457.695 36.48C458.735 36.8533 459.642 37.4933 460.415 38.4C461.215 39.28 461.615 40.5067 461.615 42.08C461.615 43.44 461.202 44.6133 460.375 45.6C459.549 46.56 458.455 47.2933 457.095 47.8C455.735 48.28 454.269 48.52 452.695 48.52C450.535 48.52 448.695 48.1333 447.175 47.36C445.655 46.56 444.509 45.3867 443.735 43.84L448.415 41.44C449.055 43.1467 450.482 44 452.695 44C453.602 44 454.389 43.84 455.055 43.52C455.749 43.1733 456.095 42.6933 456.095 42.08C456.095 41.5467 455.775 41.1467 455.135 40.88C454.522 40.6133 453.535 40.3333 452.175 40.04C450.629 39.6933 449.335 39.3333 448.295 38.96C447.255 38.56 446.362 37.96 445.615 37.16C444.869 36.3333 444.495 35.24 444.495 33.88C444.495 32.5733 444.869 31.44 445.615 30.48C446.362 29.4933 447.362 28.7467 448.615 28.24C449.895 27.7333 451.282 27.48 452.775 27.48C454.535 27.48 456.122 27.84 457.535 28.56C458.949 29.28 460.055 30.32 460.855 31.68L456.215 33.96C455.895 33.2933 455.455 32.8 454.895 32.48C454.362 32.16 453.655 32 452.775 32C452.002 32 451.389 32.16 450.935 32.48C450.482 32.7733 450.255 33.1733 450.255 33.68ZM482.52 48H476.8V36.2C476.8 34.92 476.44 34 475.72 33.44C475 32.8533 474.146 32.56 473.16 32.56C472.333 32.56 471.613 32.8267 471 33.36C470.386 33.8667 470 34.6667 469.84 35.76V48H464.12V20H469.84V29.44C471.306 28.2133 472.893 27.6 474.6 27.6C475.746 27.6 476.906 27.8533 478.08 28.36C479.28 28.84 480.306 29.7067 481.16 30.96C482.04 32.2133 482.493 33.9067 482.52 36.04V48ZM490.048 25.28C488.982 25.28 488.142 25 487.528 24.44C486.942 23.8533 486.648 23.0667 486.648 22.08C486.648 21.0667 486.942 20.2667 487.528 19.68C488.142 19.0933 488.982 18.8 490.048 18.8C491.088 18.8 491.915 19.0933 492.528 19.68C493.142 20.2667 493.448 21.0667 493.448 22.08C493.448 23.0667 493.142 23.8533 492.528 24.44C491.915 25 491.088 25.28 490.048 25.28ZM487.168 48V28H492.888V48H487.168ZM509.356 27.48C511.436 27.48 513.223 27.9333 514.716 28.84C516.236 29.7467 517.396 31 518.196 32.6C518.996 34.1733 519.396 35.9733 519.396 38C519.396 40.0267 518.996 41.84 518.196 43.44C517.396 45.04 516.236 46.3067 514.716 47.24C513.223 48.1467 511.436 48.6 509.356 48.6C508.29 48.6 507.236 48.4133 506.196 48.04C505.156 47.6933 504.196 47.1867 503.316 46.52V56H497.596V28H503.316V29.56C504.196 28.8933 505.143 28.3867 506.156 28.04C507.196 27.6667 508.263 27.48 509.356 27.48ZM508.596 43.04C510.09 43.04 511.303 42.5867 512.236 41.68C513.196 40.7467 513.676 39.52 513.676 38C513.676 36.48 513.196 35.2533 512.236 34.32C511.303 33.3867 510.09 32.92 508.596 32.92C507.103 32.92 505.85 33.4 504.836 34.36C503.823 35.32 503.316 36.5467 503.316 38.04C503.316 39.5333 503.81 40.7467 504.796 41.68C505.81 42.5867 507.076 43.04 508.596 43.04ZM543.41 48.52C540.637 48.52 538.303 47.9067 536.41 46.68C534.543 45.4533 533.223 43.7867 532.45 41.68L537.53 38.72C538.063 40.0533 538.81 41.04 539.77 41.68C540.757 42.32 542.023 42.64 543.57 42.64C544.823 42.64 545.783 42.3467 546.45 41.76C547.143 41.1733 547.49 40.52 547.49 39.8C547.49 39.2667 547.33 38.8133 547.01 38.44C546.69 38.0667 546.143 37.72 545.37 37.4C544.597 37.0533 543.477 36.6667 542.01 36.24C539.45 35.4933 537.41 34.48 535.89 33.2C534.37 31.92 533.61 30.0933 533.61 27.72C533.61 26.04 534.023 24.5867 534.85 23.36C535.703 22.1067 536.823 21.1467 538.21 20.48C539.623 19.8133 541.143 19.48 542.77 19.48C545.037 19.48 547.023 20.0267 548.73 21.12C550.437 22.1867 551.77 23.7067 552.73 25.68L547.53 28.64C547.023 27.52 546.383 26.7067 545.61 26.2C544.837 25.6667 543.89 25.4 542.77 25.4C541.917 25.4 541.183 25.64 540.57 26.12C539.957 26.5733 539.65 27.1067 539.65 27.72C539.65 28.2267 539.77 28.6667 540.01 29.04C540.277 29.3867 540.743 29.72 541.41 30.04C542.103 30.36 543.117 30.72 544.45 31.12C546.237 31.68 547.77 32.3067 549.05 33C550.357 33.6667 551.423 34.5867 552.25 35.76C553.103 36.9333 553.53 38.4 553.53 40.16C553.53 41.84 553.09 43.32 552.21 44.6C551.33 45.8533 550.117 46.8267 548.57 47.52C547.05 48.1867 545.33 48.52 543.41 48.52ZM574.629 48H568.909V36.2C568.909 34.92 568.549 34 567.829 33.44C567.109 32.8533 566.256 32.56 565.269 32.56C564.442 32.56 563.722 32.8267 563.109 33.36C562.496 33.8667 562.109 34.6667 561.949 35.76V48H556.229V20H561.949V29.44C563.416 28.2133 565.002 27.6 566.709 27.6C567.856 27.6 569.016 27.8533 570.189 28.36C571.389 28.84 572.416 29.7067 573.269 30.96C574.149 32.2133 574.602 33.9067 574.629 36.04V48ZM593.697 28H599.377V48H593.697V46.48C592.817 47.1467 591.843 47.6533 590.777 48C589.737 48.3733 588.683 48.56 587.617 48.56C585.537 48.56 583.737 48.1067 582.217 47.2C580.723 46.2933 579.577 45.0533 578.777 43.48C577.977 41.88 577.577 40.0667 577.577 38.04C577.577 36.0133 577.977 34.2 578.777 32.6C579.577 30.9733 580.723 29.7067 582.217 28.8C583.737 27.8933 585.537 27.44 587.617 27.44C588.71 27.44 589.777 27.6267 590.817 28C591.857 28.3733 592.817 28.8933 593.697 29.56V28ZM588.377 43.12C589.87 43.12 591.123 42.64 592.137 41.68C593.15 40.72 593.657 39.48 593.657 37.96C593.657 36.4933 593.15 35.2933 592.137 34.36C591.123 33.4267 589.87 32.96 588.377 32.96C586.883 32.96 585.657 33.4267 584.697 34.36C583.737 35.2933 583.257 36.52 583.257 38.04C583.257 39.56 583.737 40.7867 584.697 41.72C585.657 42.6533 586.883 43.12 588.377 43.12ZM616.836 27.6L616.436 33C616.249 32.92 615.943 32.88 615.516 32.88C613.889 32.88 612.556 33.3467 611.516 34.28C610.503 35.1867 609.996 36.3867 609.996 37.88V48H604.276V28H609.996V31.24C610.476 30.2 611.249 29.3333 612.316 28.64C613.383 27.9467 614.676 27.6 616.196 27.6H616.836ZM623.213 25.28C622.146 25.28 621.306 25 620.693 24.44C620.106 23.8533 619.813 23.0667 619.813 22.08C619.813 21.0667 620.106 20.2667 620.693 19.68C621.306 19.0933 622.146 18.8 623.213 18.8C624.253 18.8 625.079 19.0933 625.693 19.68C626.306 20.2667 626.613 21.0667 626.613 22.08C626.613 23.0667 626.306 23.8533 625.693 24.44C625.079 25 624.253 25.28 623.213 25.28ZM620.333 48V28H626.053V48H620.333ZM641.32 27.44C642.494 27.44 643.68 27.6933 644.88 28.2C646.08 28.7067 647.107 29.6 647.96 30.88C648.814 32.16 649.24 33.88 649.24 36.04V48H643.52V36.04C643.52 34.76 643.16 33.84 642.44 33.28C641.747 32.72 640.907 32.44 639.92 32.44C638.934 32.44 638.107 32.7867 637.44 33.48C636.8 34.1733 636.48 35.28 636.48 36.8V48H630.76V28H636.48V29.36C638 28.08 639.614 27.44 641.32 27.44ZM668.267 28H673.987V47C673.987 48.8667 673.494 50.52 672.507 51.96C671.547 53.4 670.214 54.52 668.507 55.32C666.8 56.12 664.88 56.52 662.747 56.52C660.427 56.52 658.294 56.0667 656.347 55.16C654.427 54.28 653.08 53.1333 652.307 51.72L657.187 48.88C657.534 49.5733 658.227 50.1467 659.267 50.6C660.307 51.0533 661.52 51.28 662.907 51.28C664.454 51.28 665.734 50.88 666.747 50.08C667.76 49.28 668.267 48.2533 668.267 47V46.48C667.387 47.1467 666.427 47.6533 665.387 48C664.374 48.3733 663.32 48.56 662.227 48.56C660.147 48.56 658.347 48.1067 656.827 47.2C655.334 46.2933 654.187 45.0533 653.387 43.48C652.587 41.88 652.187 40.0667 652.187 38.04C652.187 36.0133 652.587 34.2 653.387 32.6C654.187 30.9733 655.334 29.7067 656.827 28.8C658.347 27.8933 660.147 27.44 662.227 27.44C663.294 27.44 664.347 27.6267 665.387 28C666.427 28.3467 667.387 28.8533 668.267 29.52V28ZM662.987 43.12C664.48 43.12 665.734 42.64 666.747 41.68C667.76 40.72 668.267 39.48 668.267 37.96C668.267 36.4933 667.76 35.2933 666.747 34.36C665.734 33.4267 664.48 32.96 662.987 32.96C661.494 32.96 660.267 33.4267 659.307 34.36C658.374 35.2933 657.907 36.52 657.907 38.04C657.907 39.56 658.374 40.7867 659.307 41.72C660.267 42.6533 661.494 43.12 662.987 43.12ZM694.84 51.76C692.84 49.6533 691.24 46.9867 690.04 43.76C688.866 40.5333 688.28 37.3067 688.28 34.08C688.28 30.8533 688.866 27.6267 690.04 24.4C691.24 21.1467 692.84 18.48 694.84 16.4L698.4 19.12C696.986 21.6533 695.96 24.08 695.32 26.4C694.706 28.6933 694.4 31.2533 694.4 34.08C694.4 36.9067 694.706 39.48 695.32 41.8C695.96 44.12 696.986 46.5067 698.4 48.96L694.84 51.76ZM711.262 48.52C708.488 48.52 706.155 47.9067 704.262 46.68C702.395 45.4533 701.075 43.7867 700.302 41.68L705.382 38.72C705.915 40.0533 706.662 41.04 707.622 41.68C708.608 42.32 709.875 42.64 711.422 42.64C712.675 42.64 713.635 42.3467 714.302 41.76C714.995 41.1733 715.342 40.52 715.342 39.8C715.342 39.2667 715.182 38.8133 714.862 38.44C714.542 38.0667 713.995 37.72 713.222 37.4C712.448 37.0533 711.328 36.6667 709.862 36.24C707.302 35.4933 705.262 34.48 703.742 33.2C702.222 31.92 701.462 30.0933 701.462 27.72C701.462 26.04 701.875 24.5867 702.702 23.36C703.555 22.1067 704.675 21.1467 706.062 20.48C707.475 19.8133 708.995 19.48 710.622 19.48C712.888 19.48 714.875 20.0267 716.582 21.12C718.288 22.1867 719.622 23.7067 720.582 25.68L715.382 28.64C714.875 27.52 714.235 26.7067 713.462 26.2C712.688 25.6667 711.742 25.4 710.622 25.4C709.768 25.4 709.035 25.64 708.422 26.12C707.808 26.5733 707.502 27.1067 707.502 27.72C707.502 28.2267 707.622 28.6667 707.862 29.04C708.128 29.3867 708.595 29.72 709.262 30.04C709.955 30.36 710.968 30.72 712.302 31.12C714.088 31.68 715.622 32.3067 716.902 33C718.208 33.6667 719.275 34.5867 720.102 35.76C720.955 36.9333 721.382 38.4 721.382 40.16C721.382 41.84 720.942 43.32 720.062 44.6C719.182 45.8533 717.968 46.8267 716.422 47.52C714.902 48.1867 713.182 48.52 711.262 48.52ZM742.161 44.08C741.174 45.4667 739.921 46.5733 738.401 47.4C736.907 48.2 735.294 48.6 733.561 48.6C731.641 48.6 729.867 48.1333 728.241 47.2C726.641 46.24 725.361 44.9467 724.401 43.32C723.467 41.6933 723.001 39.9333 723.001 38.04C723.001 36.12 723.467 34.36 724.401 32.76C725.361 31.1333 726.641 29.8533 728.241 28.92C729.867 27.96 731.641 27.48 733.561 27.48C735.294 27.48 736.907 27.88 738.401 28.68C739.894 29.48 741.134 30.56 742.121 31.92L737.401 35.04C736.281 33.7867 735.001 33.16 733.561 33.16C732.227 33.16 731.081 33.64 730.121 34.6C729.161 35.56 728.681 36.7067 728.681 38.04C728.681 39.3733 729.161 40.52 730.121 41.48C731.081 42.4133 732.227 42.88 733.561 42.88C735.001 42.88 736.281 42.2533 737.401 41L742.161 44.08ZM763.653 48H757.933V36.2C757.933 34.92 757.573 34 756.853 33.44C756.133 32.8533 755.279 32.56 754.293 32.56C753.466 32.56 752.746 32.8267 752.133 33.36C751.519 33.8667 751.133 34.6667 750.973 35.76V48H745.253V20H750.973V29.44C752.439 28.2133 754.026 27.6 755.733 27.6C756.879 27.6 758.039 27.8533 759.213 28.36C760.413 28.84 761.439 29.7067 762.293 30.96C763.173 32.2133 763.626 33.9067 763.653 36.04V48ZM776.92 48.6C775 48.6 773.227 48.1333 771.6 47.2C770 46.24 768.72 44.9467 767.76 43.32C766.827 41.6933 766.36 39.9333 766.36 38.04C766.36 36.12 766.827 34.36 767.76 32.76C768.72 31.1333 770 29.8533 771.6 28.92C773.227 27.96 775 27.48 776.92 27.48C778.813 27.48 780.56 27.96 782.16 28.92C783.787 29.8533 785.067 31.1333 786 32.76C786.96 34.36 787.44 36.12 787.44 38.04C787.44 39.9333 786.96 41.6933 786 43.32C785.067 44.9467 783.787 46.24 782.16 47.2C780.56 48.1333 778.813 48.6 776.92 48.6ZM776.88 42.88C778.213 42.88 779.36 42.4133 780.32 41.48C781.28 40.52 781.76 39.3733 781.76 38.04C781.76 36.7067 781.28 35.56 780.32 34.6C779.36 33.64 778.213 33.16 776.88 33.16C775.547 33.16 774.4 33.64 773.44 34.6C772.507 35.56 772.04 36.7067 772.04 38.04C772.04 39.3733 772.507 40.52 773.44 41.48C774.4 42.4133 775.547 42.88 776.88 42.88ZM799.928 48.6C798.008 48.6 796.234 48.1333 794.608 47.2C793.008 46.24 791.728 44.9467 790.768 43.32C789.834 41.6933 789.368 39.9333 789.368 38.04C789.368 36.12 789.834 34.36 790.768 32.76C791.728 31.1333 793.008 29.8533 794.608 28.92C796.234 27.96 798.008 27.48 799.928 27.48C801.821 27.48 803.568 27.96 805.168 28.92C806.794 29.8533 808.074 31.1333 809.008 32.76C809.968 34.36 810.448 36.12 810.448 38.04C810.448 39.9333 809.968 41.6933 809.008 43.32C808.074 44.9467 806.794 46.24 805.168 47.2C803.568 48.1333 801.821 48.6 799.928 48.6ZM799.888 42.88C801.221 42.88 802.368 42.4133 803.328 41.48C804.288 40.52 804.768 39.3733 804.768 38.04C804.768 36.7067 804.288 35.56 803.328 34.6C802.368 33.64 801.221 33.16 799.888 33.16C798.554 33.16 797.408 33.64 796.448 34.6C795.514 35.56 795.048 36.7067 795.048 38.04C795.048 39.3733 795.514 40.52 796.448 41.48C797.408 42.4133 798.554 42.88 799.888 42.88ZM819.176 41.68C819.176 42.1067 819.269 42.4133 819.456 42.6C819.669 42.7867 820.016 42.88 820.496 42.88C820.842 42.88 821.256 42.84 821.736 42.76V48C820.429 48.1867 819.416 48.28 818.696 48.28C816.962 48.28 815.656 47.8267 814.776 46.92C813.896 45.9867 813.456 44.36 813.456 42.04V20H819.176V41.68ZM854.524 20V25.68H847.124V48H841.084V25.68H833.724V20H854.524ZM868.775 28H874.455V48H868.775V46.48C867.895 47.1467 866.921 47.6533 865.855 48C864.815 48.3733 863.761 48.56 862.695 48.56C860.615 48.56 858.815 48.1067 857.295 47.2C855.801 46.2933 854.655 45.0533 853.855 43.48C853.055 41.88 852.655 40.0667 852.655 38.04C852.655 36.0133 853.055 34.2 853.855 32.6C854.655 30.9733 855.801 29.7067 857.295 28.8C858.815 27.8933 860.615 27.44 862.695 27.44C863.788 27.44 864.855 27.6267 865.895 28C866.935 28.3733 867.895 28.8933 868.775 29.56V28ZM863.455 43.12C864.948 43.12 866.201 42.64 867.215 41.68C868.228 40.72 868.735 39.48 868.735 37.96C868.735 36.4933 868.228 35.2933 867.215 34.36C866.201 33.4267 864.948 32.96 863.455 32.96C861.961 32.96 860.735 33.4267 859.775 34.36C858.815 35.2933 858.335 36.52 858.335 38.04C858.335 39.56 858.815 40.7867 859.775 41.72C860.735 42.6533 861.961 43.12 863.455 43.12ZM884.527 41.68C884.527 42.1067 884.621 42.4133 884.807 42.6C885.021 42.7867 885.367 42.88 885.847 42.88C886.194 42.88 886.607 42.84 887.087 42.76V48C885.781 48.1867 884.767 48.28 884.047 48.28C882.314 48.28 881.007 47.8267 880.127 46.92C879.247 45.9867 878.807 44.36 878.807 42.04V20H884.527V41.68ZM911.321 48H904.201L899.081 41.08L896.441 43.96V48H890.721V20H896.441V35.56L903.081 28H911.041L902.961 36.8L911.321 48ZM940.877 36.24H933.837V44.24H930.037V36.24H922.957V32.76H930.037V25.08H933.837V32.76H940.877V36.24ZM982.706 45.52L978.466 49.8L975.306 46.64C973.039 47.92 970.639 48.56 968.106 48.56C965.492 48.56 963.079 47.9067 960.866 46.6C958.652 45.2933 956.892 43.5333 955.586 41.32C954.306 39.1067 953.666 36.6933 953.666 34.08C953.666 31.4667 954.306 29.0533 955.586 26.84C956.892 24.6267 958.652 22.88 960.866 21.6C963.079 20.2933 965.492 19.64 968.106 19.64C970.719 19.64 973.132 20.2933 975.346 21.6C977.559 22.88 979.306 24.6267 980.586 26.84C981.892 29.0533 982.546 31.4667 982.546 34.08C982.546 35.6267 982.306 37.1333 981.826 38.6C981.346 40.04 980.666 41.3733 979.786 42.6L982.706 45.52ZM968.106 42.52C968.986 42.52 969.866 42.3733 970.746 42.08L967.866 39.2L972.106 34.96L975.426 38.28C976.172 37 976.546 35.6 976.546 34.08C976.546 32.56 976.159 31.16 975.386 29.88C974.639 28.6 973.612 27.5867 972.306 26.84C971.026 26.0667 969.626 25.68 968.106 25.68C966.586 25.68 965.172 26.0533 963.866 26.8C962.586 27.5467 961.572 28.5733 960.826 29.88C960.079 31.16 959.706 32.56 959.706 34.08C959.706 35.6 960.079 37.0133 960.826 38.32C961.599 39.6 962.626 40.6267 963.906 41.4C965.186 42.1467 966.586 42.52 968.106 42.52ZM989.445 29.64C989.045 28.76 988.845 27.84 988.845 26.88C988.845 24.9333 989.578 23.4267 991.045 22.36C992.511 21.2933 994.391 20.76 996.685 20.76C998.951 20.76 1000.74 21.2933 1002.04 22.36C1003.38 23.4267 1004.04 24.9467 1004.04 26.92C1004.04 28.28 1003.7 29.44 1003 30.4C1002.34 31.3333 1001.19 32.4133 999.565 33.64L1002.88 37.28C1003.12 36.7467 1003.24 36.04 1003.24 35.16H1008.68C1008.68 36.4133 1008.56 37.5467 1008.32 38.56C1008.08 39.5467 1007.72 40.5333 1007.24 41.52L1013.64 48H1006.52L1003.88 45.24C1002.47 46.3067 1000.96 47.0667 999.365 47.52C997.791 47.9467 996.445 48.16 995.325 48.16C992.471 48.16 990.125 47.5067 988.285 46.2C986.471 44.8933 985.565 43 985.565 40.52C985.565 37.4267 987.538 34.8 991.485 32.64C990.551 31.52 989.871 30.52 989.445 29.64ZM998.605 26.92C998.605 25.7733 997.965 25.2 996.685 25.2C995.831 25.2 995.205 25.3467 994.805 25.64C994.431 25.9067 994.245 26.3733 994.245 27.04C994.245 27.6267 994.391 28.1467 994.685 28.6C994.978 29.0267 995.431 29.5733 996.045 30.24C996.898 29.68 997.538 29.1733 997.965 28.72C998.391 28.24 998.605 27.64 998.605 26.92ZM1000 41.36L995.005 36.08C993.565 36.88 992.578 37.6 992.045 38.24C991.511 38.8533 991.245 39.6133 991.245 40.52C991.245 41.4267 991.618 42.1467 992.365 42.68C993.111 43.2133 994.098 43.48 995.325 43.48C996.951 43.48 998.511 42.7733 1000 41.36ZM1038.26 48H1031.86L1029.9 42.72H1019.54L1017.58 48H1011.14L1021.5 20H1027.94L1038.26 48ZM1024.74 28.72L1021.62 37.04H1027.82L1024.74 28.72ZM1042.8 16.4C1044.8 18.48 1046.38 21.1467 1047.56 24.4C1048.76 27.6267 1049.36 30.8533 1049.36 34.08C1049.36 37.3067 1048.76 40.5333 1047.56 43.76C1046.38 46.9867 1044.8 49.6533 1042.8 51.76L1039.24 48.96C1040.65 46.5067 1041.66 44.12 1042.28 41.8C1042.92 39.48 1043.24 36.9067 1043.24 34.08C1043.24 31.2533 1042.92 28.6933 1042.28 26.4C1041.66 24.08 1040.65 21.6533 1039.24 19.12L1042.8 16.4Z" fill="#EAEAEA"/>
<path d="M47.2799 0.696279C48.8447 2.14924 50.8167 9.04855 51.562 11.3535C52.7262 14.9541 53.7031 17.8834 55.1769 21.3565C56.3528 24.1258 56.8354 28.5849 59.368 30.3786C61.016 31.5467 63.9727 32.0046 64.3929 34.5034C64.8351 37.1349 64.1522 39.8509 62.6576 42.0193C62.0723 42.8687 60.3201 44.3555 60.181 45.2348C59.6606 48.514 62.0306 51.9988 61.5403 55.3288C61.1955 57.6754 59.8844 58.7901 57.5443 57.799C56.8432 57.5024 56.2292 56.5242 55.2822 57.0016C53.9385 58.4389 55.4995 60.3498 53.8657 61.6844C53.0995 62.3113 52.163 62.3426 51.2095 62.0915C49.897 61.7468 49.2961 59.7137 47.6987 60.1937C47.1186 60.368 43.6416 64.5214 42.6725 65.3382C38.9627 68.4679 33.4878 70.8652 28.6268 69.4032C26.4233 68.7411 23.0191 65.9327 21.3034 64.3223C20.3343 63.4131 17.5728 59.9335 16.6362 59.633C14.6174 58.9866 14.5446 61.661 13.7849 62.4987C13.0734 63.2843 11.9079 63.2843 11.0611 62.7653C9.20882 61.6297 9.84489 57.7912 8.97208 57.5258C7.80398 57.1694 6.65019 60.7998 4.36733 59.144C3.07176 58.2035 3.09258 55.7997 3.18884 54.3558C3.41908 50.9244 5.74745 47.2874 3.56996 44.0368C1.61099 41.1113 -0.68617 40.3894 0.193153 36.1255C0.752486 33.412 3.24998 32.616 4.83042 30.8001C6.83101 28.5016 8.24884 24.6682 9.534 21.8846C11.8637 16.835 12.1499 12.0598 14.1804 7.01934C14.6109 5.95141 16.5374 1.68747 17.1474 1.04229C18.0411 0.0979235 19.0127 0.0237792 20.0716 0.739205C21.8302 1.92941 23.9453 8.41507 25.0665 10.5835C25.8327 12.065 26.9228 14.2334 28.7334 14.439C30.2111 14.6068 35.9605 14.6289 37.1807 14.1372C38.8092 13.4816 39.7406 9.67942 40.3936 8.20305C40.8228 7.23397 41.4888 6.38326 41.8934 5.4337C42.4943 4.02106 42.6075 2.22079 43.6039 1.04619C44.6003 -0.128411 46.0936 -0.408078 47.2812 0.693678L47.2799 0.696279ZM18.8189 8.99262C16.9029 9.4674 16.1185 14.7355 16.4307 16.3654C16.7286 17.9237 19.178 16.3875 20.0209 15.8984C21.9135 14.798 22.0045 14.8617 21.453 12.5697C21.2084 11.5564 20.1301 8.66742 18.8189 8.99131V8.99262ZM44.5535 9.41407C43.877 10.0619 42.8898 13.9108 43.172 14.8565C43.6169 16.3459 47.86 18.5312 48.327 16.9403C48.7068 15.6513 47.782 10.7669 46.8519 9.75877C46.3264 9.19033 45.144 8.84823 44.5535 9.41407ZM27.4131 49.3855C27.5276 44.3073 25.1056 34.48 19.6748 32.6303C15.3979 31.1734 12.7443 35.7222 12.3814 39.354C11.8897 44.2696 13.1983 48.7209 16.138 52.6193C19.0648 56.4982 24.3641 63.0268 28.6242 65.1418C34.0458 67.8344 38.9549 64.8439 42.3499 60.5436C47.3436 54.2179 52.8849 47.7609 52.2436 39.1185C51.8443 33.7385 47.2265 28.9075 42.5685 33.9428C39.0356 37.7618 37.5267 44.3242 37.1781 49.3855C37.0207 49.569 34.9823 48.1576 34.5934 48.0067C32.174 47.0637 30.6833 47.6607 28.5656 48.8106C28.1832 49.0187 27.9907 49.5312 27.4145 49.3855H27.4131Z" fill="white"/>
<path d="M27.4136 49.3857C27.9898 49.5314 28.1823 49.0189 28.5648 48.8107C30.6824 47.6608 32.1731 47.0638 34.5925 48.0069C34.9815 48.1577 37.0198 49.5704 37.1772 49.3857C37.5258 44.3244 39.0334 37.762 42.5676 33.9429C47.2257 28.9076 51.8434 33.7387 52.2427 39.1187C52.8853 47.761 47.3427 54.218 42.3491 60.5437C38.954 64.8441 34.0462 67.8346 28.6233 65.142C24.3632 63.0269 19.0639 56.4996 16.1372 52.6194C13.1961 48.721 11.8888 44.2697 12.3805 39.3541C12.7434 35.7223 15.397 31.1735 19.674 32.6304C25.1047 34.4801 27.5267 44.3075 27.4123 49.3857H27.4136ZM21.2531 36.417C19.9692 36.6121 19.5374 39.8965 19.4788 40.958C19.406 42.273 19.5712 47.5958 21.4053 47.6817C22.7906 47.7454 23.268 45.0424 23.35 44.0109C23.4592 42.6217 23.6361 36.0553 21.2531 36.417ZM43.6368 36.4157C43.2362 36.4911 43.0398 36.7291 42.829 37.0491C41.6909 38.7727 41.7169 45.1334 42.8316 46.8908C43.7773 48.3815 44.8049 47.5802 45.3252 46.2469C46.1382 44.1657 46.0927 39.4972 45.1509 37.4641C44.84 36.7929 44.5044 36.2518 43.6368 36.4157Z" fill="black"/>
<path d="M44.554 9.41392C45.1458 8.84808 46.3269 9.19019 46.8524 9.75863C47.7838 10.7667 48.7073 15.6511 48.3275 16.9402C47.8592 18.531 43.6174 16.3457 43.1725 14.8564C42.8903 13.9107 43.8776 10.0617 44.554 9.41392Z" fill="black"/>
<path d="M18.8181 8.99217C20.1292 8.66698 21.2076 11.556 21.4521 12.5706C22.005 14.8626 21.9126 14.7988 20.02 15.8993C19.1771 16.3897 16.7277 17.9246 16.4298 16.3663C16.1177 14.7351 16.902 9.46696 18.8181 8.99347V8.99217Z" fill="black"/>
<path d="M43.6367 36.4157C44.5056 36.2505 44.8399 36.7916 45.1508 37.4641C46.0939 39.4972 46.1381 44.167 45.3251 46.247C44.8048 47.5803 43.7772 48.3815 42.8315 46.8908C41.7155 45.1335 41.6895 38.7727 42.8289 37.0492C43.0397 36.7292 43.2361 36.4925 43.6367 36.4157Z" fill="white"/>
<path d="M21.2527 36.4167C23.6357 36.0551 23.4601 42.6214 23.3495 44.0106C23.2676 45.0422 22.7902 47.7452 21.4048 47.6814C19.5694 47.5969 19.4056 42.2728 19.4784 40.9577C19.5369 39.8976 19.9688 36.6118 21.2527 36.4167Z" fill="white"/>
<path d="M28.429 54.4453L31.08 58.6039C31.4781 58.9447 32.014 59.8318 32.5837 59.7421L36.3625 54.95L36.0581 54.4453H28.4277H28.429Z" fill="white"/>
</svg>
