<svg width="808" height="70" viewBox="0 0 808 70" fill="none" xmlns="http://www.w3.org/2000/svg">
<path d="M111.36 20V25.68H103.96V48H97.92V25.68H90.56V20H111.36ZM126.166 39.32L132.686 20H139.046L129.526 48H122.766L113.246 20H119.606L126.166 39.32ZM161.613 48.52C158.84 48.52 156.506 47.9067 154.613 46.68C152.746 45.4533 151.426 43.7867 150.653 41.68L155.733 38.72C156.266 40.0533 157.013 41.04 157.973 41.68C158.96 42.32 160.226 42.64 161.773 42.64C163.026 42.64 163.986 42.3467 164.653 41.76C165.346 41.1733 165.693 40.52 165.693 39.8C165.693 39.2667 165.533 38.8133 165.213 38.44C164.893 38.0667 164.346 37.72 163.573 37.4C162.8 37.0533 161.68 36.6667 160.213 36.24C157.653 35.4933 155.613 34.48 154.093 33.2C152.573 31.92 151.813 30.0933 151.813 27.72C151.813 26.04 152.226 24.5867 153.053 23.36C153.906 22.1067 155.026 21.1467 156.413 20.48C157.826 19.8133 159.346 19.48 160.973 19.48C163.24 19.48 165.226 20.0267 166.933 21.12C168.64 22.1867 169.973 23.7067 170.933 25.68L165.733 28.64C165.226 27.52 164.586 26.7067 163.813 26.2C163.04 25.6667 162.093 25.4 160.973 25.4C160.12 25.4 159.386 25.64 158.773 26.12C158.16 26.5733 157.853 27.1067 157.853 27.72C157.853 28.2267 157.973 28.6667 158.213 29.04C158.48 29.3867 158.946 29.72 159.613 30.04C160.306 30.36 161.32 30.72 162.653 31.12C164.44 31.68 165.973 32.3067 167.253 33C168.56 33.6667 169.626 34.5867 170.453 35.76C171.306 36.9333 171.733 38.4 171.733 40.16C171.733 41.84 171.293 43.32 170.413 44.6C169.533 45.8533 168.32 46.8267 166.773 47.52C165.253 48.1867 163.533 48.52 161.613 48.52ZM177.783 25.28C176.716 25.28 175.876 25 175.263 24.44C174.676 23.8533 174.383 23.0667 174.383 22.08C174.383 21.0667 174.676 20.2667 175.263 19.68C175.876 19.0933 176.716 18.8 177.783 18.8C178.823 18.8 179.649 19.0933 180.263 19.68C180.876 20.2667 181.183 21.0667 181.183 22.08C181.183 23.0667 180.876 23.8533 180.263 24.44C179.649 25 178.823 25.28 177.783 25.28ZM174.903 48V28H180.623V48H174.903ZM200.025 28H205.745V47C205.745 48.8667 205.251 50.52 204.265 51.96C203.305 53.4 201.971 54.52 200.265 55.32C198.558 56.12 196.638 56.52 194.505 56.52C192.185 56.52 190.051 56.0667 188.105 55.16C186.185 54.28 184.838 53.1333 184.065 51.72L188.945 48.88C189.291 49.5733 189.985 50.1467 191.025 50.6C192.065 51.0533 193.278 51.28 194.665 51.28C196.211 51.28 197.491 50.88 198.505 50.08C199.518 49.28 200.025 48.2533 200.025 47V46.48C199.145 47.1467 198.185 47.6533 197.145 48C196.131 48.3733 195.078 48.56 193.985 48.56C191.905 48.56 190.105 48.1067 188.585 47.2C187.091 46.2933 185.945 45.0533 185.145 43.48C184.345 41.88 183.945 40.0667 183.945 38.04C183.945 36.0133 184.345 34.2 185.145 32.6C185.945 30.9733 187.091 29.7067 188.585 28.8C190.105 27.8933 191.905 27.44 193.985 27.44C195.051 27.44 196.105 27.6267 197.145 28C198.185 28.3467 199.145 28.8533 200.025 29.52V28ZM194.745 43.12C196.238 43.12 197.491 42.64 198.505 41.68C199.518 40.72 200.025 39.48 200.025 37.96C200.025 36.4933 199.518 35.2933 198.505 34.36C197.491 33.4267 196.238 32.96 194.745 32.96C193.251 32.96 192.025 33.4267 191.065 34.36C190.131 35.2933 189.665 36.52 189.665 38.04C189.665 39.56 190.131 40.7867 191.065 41.72C192.025 42.6533 193.251 43.12 194.745 43.12ZM221.203 27.44C222.376 27.44 223.563 27.6933 224.763 28.2C225.963 28.7067 226.99 29.6 227.843 30.88C228.696 32.16 229.123 33.88 229.123 36.04V48H223.403V36.04C223.403 34.76 223.043 33.84 222.323 33.28C221.63 32.72 220.79 32.44 219.803 32.44C218.816 32.44 217.99 32.7867 217.323 33.48C216.683 34.1733 216.363 35.28 216.363 36.8V48H210.643V28H216.363V29.36C217.883 28.08 219.496 27.44 221.203 27.44ZM248.15 28H253.83V48H248.15V46.48C247.27 47.1467 246.296 47.6533 245.23 48C244.19 48.3733 243.136 48.56 242.07 48.56C239.99 48.56 238.19 48.1067 236.67 47.2C235.176 46.2933 234.03 45.0533 233.23 43.48C232.43 41.88 232.03 40.0667 232.03 38.04C232.03 36.0133 232.43 34.2 233.23 32.6C234.03 30.9733 235.176 29.7067 236.67 28.8C238.19 27.8933 239.99 27.44 242.07 27.44C243.163 27.44 244.23 27.6267 245.27 28C246.31 28.3733 247.27 28.8933 248.15 29.56V28ZM242.83 43.12C244.323 43.12 245.576 42.64 246.59 41.68C247.603 40.72 248.11 39.48 248.11 37.96C248.11 36.4933 247.603 35.2933 246.59 34.36C245.576 33.4267 244.323 32.96 242.83 32.96C241.336 32.96 240.11 33.4267 239.15 34.36C238.19 35.2933 237.71 36.52 237.71 38.04C237.71 39.56 238.19 40.7867 239.15 41.72C240.11 42.6533 241.336 43.12 242.83 43.12ZM273.228 28H278.948V47C278.948 48.8667 278.454 50.52 277.468 51.96C276.508 53.4 275.174 54.52 273.468 55.32C271.761 56.12 269.841 56.52 267.708 56.52C265.388 56.52 263.254 56.0667 261.308 55.16C259.388 54.28 258.041 53.1333 257.268 51.72L262.148 48.88C262.494 49.5733 263.188 50.1467 264.228 50.6C265.268 51.0533 266.481 51.28 267.868 51.28C269.414 51.28 270.694 50.88 271.708 50.08C272.721 49.28 273.228 48.2533 273.228 47V46.48C272.348 47.1467 271.388 47.6533 270.348 48C269.334 48.3733 268.281 48.56 267.188 48.56C265.108 48.56 263.308 48.1067 261.788 47.2C260.294 46.2933 259.148 45.0533 258.348 43.48C257.548 41.88 257.148 40.0667 257.148 38.04C257.148 36.0133 257.548 34.2 258.348 32.6C259.148 30.9733 260.294 29.7067 261.788 28.8C263.308 27.8933 265.108 27.44 267.188 27.44C268.254 27.44 269.308 27.6267 270.348 28C271.388 28.3467 272.348 28.8533 273.228 29.52V28ZM267.948 43.12C269.441 43.12 270.694 42.64 271.708 41.68C272.721 40.72 273.228 39.48 273.228 37.96C273.228 36.4933 272.721 35.2933 271.708 34.36C270.694 33.4267 269.441 32.96 267.948 32.96C266.454 32.96 265.228 33.4267 264.268 34.36C263.334 35.2933 262.868 36.52 262.868 38.04C262.868 39.56 263.334 40.7867 264.268 41.72C265.228 42.6533 266.454 43.12 267.948 43.12ZM292.545 27.48C294.492 27.48 296.225 27.9467 297.745 28.88C299.292 29.8133 300.492 31.08 301.345 32.68C302.198 34.28 302.625 36.0533 302.625 38C302.625 38.7467 302.572 39.4267 302.465 40.04H287.665C288.172 41.2667 288.852 42.1867 289.705 42.8C290.558 43.3867 291.665 43.68 293.025 43.68C293.852 43.68 294.652 43.5067 295.425 43.16C296.225 42.8133 296.852 42.3467 297.305 41.76L301.625 44.32C300.692 45.68 299.478 46.72 297.985 47.44C296.518 48.16 294.825 48.52 292.905 48.52C290.745 48.52 288.838 48.0667 287.185 47.16C285.532 46.2267 284.252 44.96 283.345 43.36C282.438 41.76 281.985 39.9733 281.985 38C281.985 36.0267 282.425 34.24 283.305 32.64C284.212 31.04 285.465 29.7867 287.065 28.88C288.665 27.9467 290.492 27.48 292.545 27.48ZM297.265 35.6C297.078 34.5867 296.545 33.8 295.665 33.24C294.812 32.68 293.758 32.4 292.505 32.4C291.198 32.4 290.065 32.72 289.105 33.36C288.145 33.9733 287.638 34.72 287.585 35.6H297.265ZM310.724 33.68C310.724 34.1333 311.004 34.48 311.564 34.72C312.124 34.9333 313.017 35.16 314.244 35.4C315.817 35.72 317.124 36.08 318.164 36.48C319.204 36.8533 320.111 37.4933 320.884 38.4C321.684 39.28 322.084 40.5067 322.084 42.08C322.084 43.44 321.671 44.6133 320.844 45.6C320.017 46.56 318.924 47.2933 317.564 47.8C316.204 48.28 314.737 48.52 313.164 48.52C311.004 48.52 309.164 48.1333 307.644 47.36C306.124 46.56 304.977 45.3867 304.204 43.84L308.884 41.44C309.524 43.1467 310.951 44 313.164 44C314.071 44 314.857 43.84 315.524 43.52C316.217 43.1733 316.564 42.6933 316.564 42.08C316.564 41.5467 316.244 41.1467 315.604 40.88C314.991 40.6133 314.004 40.3333 312.644 40.04C311.097 39.6933 309.804 39.3333 308.764 38.96C307.724 38.56 306.831 37.96 306.084 37.16C305.337 36.3333 304.964 35.24 304.964 33.88C304.964 32.5733 305.337 31.44 306.084 30.48C306.831 29.4933 307.831 28.7467 309.084 28.24C310.364 27.7333 311.751 27.48 313.244 27.48C315.004 27.48 316.591 27.84 318.004 28.56C319.417 29.28 320.524 30.32 321.324 31.68L316.684 33.96C316.364 33.2933 315.924 32.8 315.364 32.48C314.831 32.16 314.124 32 313.244 32C312.471 32 311.857 32.16 311.404 32.48C310.951 32.7733 310.724 33.1733 310.724 33.68ZM351.716 48L346.516 38.64H342.236V48H336.236V20H347.796C349.502 20 351.062 20.4133 352.476 21.24C353.916 22.0667 355.049 23.2 355.876 24.64C356.729 26.0533 357.156 27.6133 357.156 29.32C357.156 31 356.742 32.5467 355.916 33.96C355.116 35.3733 354.022 36.4933 352.636 37.32L358.636 48H351.716ZM342.236 25.72V32.92H347.796C348.782 32.92 349.636 32.5733 350.356 31.88C351.076 31.16 351.436 30.3067 351.436 29.32C351.436 28.3333 351.076 27.4933 350.356 26.8C349.662 26.08 348.809 25.72 347.796 25.72H342.236ZM369.498 27.48C371.445 27.48 373.178 27.9467 374.698 28.88C376.245 29.8133 377.445 31.08 378.298 32.68C379.151 34.28 379.578 36.0533 379.578 38C379.578 38.7467 379.525 39.4267 379.418 40.04H364.618C365.125 41.2667 365.805 42.1867 366.658 42.8C367.511 43.3867 368.618 43.68 369.978 43.68C370.805 43.68 371.605 43.5067 372.378 43.16C373.178 42.8133 373.805 42.3467 374.258 41.76L378.578 44.32C377.645 45.68 376.431 46.72 374.938 47.44C373.471 48.16 371.778 48.52 369.858 48.52C367.698 48.52 365.791 48.0667 364.138 47.16C362.485 46.2267 361.205 44.96 360.298 43.36C359.391 41.76 358.938 39.9733 358.938 38C358.938 36.0267 359.378 34.24 360.258 32.64C361.165 31.04 362.418 29.7867 364.018 28.88C365.618 27.9467 367.445 27.48 369.498 27.48ZM374.218 35.6C374.031 34.5867 373.498 33.8 372.618 33.24C371.765 32.68 370.711 32.4 369.458 32.4C368.151 32.4 367.018 32.72 366.058 33.36C365.098 33.9733 364.591 34.72 364.538 35.6H374.218ZM390.295 40.92L394.975 28H401.015L393.735 48H386.815L379.535 28H385.575L390.295 40.92ZM406.572 25.28C405.505 25.28 404.665 25 404.052 24.44C403.465 23.8533 403.172 23.0667 403.172 22.08C403.172 21.0667 403.465 20.2667 404.052 19.68C404.665 19.0933 405.505 18.8 406.572 18.8C407.612 18.8 408.439 19.0933 409.052 19.68C409.665 20.2667 409.972 21.0667 409.972 22.08C409.972 23.0667 409.665 23.8533 409.052 24.44C408.439 25 407.612 25.28 406.572 25.28ZM403.692 48V28H409.412V48H403.692ZM422.818 27.48C424.765 27.48 426.498 27.9467 428.018 28.88C429.565 29.8133 430.765 31.08 431.618 32.68C432.472 34.28 432.898 36.0533 432.898 38C432.898 38.7467 432.845 39.4267 432.738 40.04H417.938C418.445 41.2667 419.125 42.1867 419.978 42.8C420.832 43.3867 421.938 43.68 423.298 43.68C424.125 43.68 424.925 43.5067 425.698 43.16C426.498 42.8133 427.125 42.3467 427.578 41.76L431.898 44.32C430.965 45.68 429.752 46.72 428.258 47.44C426.792 48.16 425.098 48.52 423.178 48.52C421.018 48.52 419.112 48.0667 417.458 47.16C415.805 46.2267 414.525 44.96 413.618 43.36C412.712 41.76 412.258 39.9733 412.258 38C412.258 36.0267 412.698 34.24 413.578 32.64C414.485 31.04 415.738 29.7867 417.338 28.88C418.938 27.9467 420.765 27.48 422.818 27.48ZM427.538 35.6C427.352 34.5867 426.818 33.8 425.938 33.24C425.085 32.68 424.032 32.4 422.778 32.4C421.472 32.4 420.338 32.72 419.378 33.36C418.418 33.9733 417.912 34.72 417.858 35.6H427.538ZM454.615 38.76L457.855 28H463.815L457.335 48H451.775L448.455 37.44L445.095 48H439.575L433.175 28H439.175L442.335 38.64L445.415 28H451.455L454.615 38.76ZM482.691 51.76C480.691 49.6533 479.091 46.9867 477.891 43.76C476.718 40.5333 476.131 37.3067 476.131 34.08C476.131 30.8533 476.718 27.6267 477.891 24.4C479.091 21.1467 480.691 18.48 482.691 16.4L486.251 19.12C484.838 21.6533 483.811 24.08 483.171 26.4C482.558 28.6933 482.251 31.2533 482.251 34.08C482.251 36.9067 482.558 39.48 483.171 41.8C483.811 44.12 484.838 46.5067 486.251 48.96L482.691 51.76ZM495.673 36.6V42.28H507.033V48H489.673V20H506.793V25.68H495.673V30.88H505.833V36.6H495.673ZM522.559 20C525.173 20 527.573 20.6267 529.759 21.88C531.973 23.1067 533.719 24.8 534.999 26.96C536.306 29.0933 536.959 31.4667 536.959 34.08C536.959 36.6933 536.319 39.0667 535.039 41.2C533.759 43.3067 532.013 44.9733 529.799 46.2C527.586 47.4 525.173 48 522.559 48H511.079V20H522.559ZM522.559 42.28C524.079 42.28 525.479 41.92 526.759 41.2C528.066 40.4533 529.093 39.4533 529.839 38.2C530.586 36.9467 530.959 35.56 530.959 34.04C530.959 32.52 530.586 31.12 529.839 29.84C529.093 28.56 528.066 27.5467 526.759 26.8C525.479 26.0533 524.079 25.68 522.559 25.68H517.079V42.28H522.559ZM562.253 20.04V20H568.253V48H562.253V31.04L555.133 42.96H553.653L546.493 31V48H540.493V20H546.493V20.04L546.573 20L554.373 33.12L562.173 20L562.253 20.04ZM608.531 48H602.131L600.171 42.72H589.811L587.851 48H581.411L591.771 20H598.211L608.531 48ZM595.011 28.72L591.891 37.04H598.091L595.011 28.72ZM625.219 20H630.899V48H625.219V46.48C624.339 47.1467 623.379 47.6533 622.339 48C621.326 48.3733 620.272 48.56 619.179 48.56C617.099 48.56 615.299 48.1067 613.779 47.2C612.286 46.2933 611.139 45.0533 610.339 43.48C609.539 41.88 609.139 40.0667 609.139 38.04C609.139 36.0133 609.539 34.2 610.339 32.6C611.139 30.9733 612.286 29.7067 613.779 28.8C615.299 27.8933 617.099 27.44 619.179 27.44C620.246 27.44 621.299 27.6267 622.339 28C623.379 28.3467 624.339 28.8533 625.219 29.52V20ZM619.939 43.12C621.432 43.12 622.686 42.64 623.699 41.68C624.712 40.72 625.219 39.48 625.219 37.96C625.219 36.4933 624.712 35.2933 623.699 34.36C622.686 33.4267 621.432 32.96 619.939 32.96C618.446 32.96 617.219 33.4267 616.259 34.36C615.299 35.2933 614.819 36.52 614.819 38.04C614.819 39.56 615.299 40.7867 616.259 41.72C617.219 42.6533 618.446 43.12 619.939 43.12ZM650.337 28H656.017V48H650.337V46.48C649.457 47.1467 648.484 47.6533 647.417 48C646.377 48.3733 645.324 48.56 644.257 48.56C642.177 48.56 640.377 48.1067 638.857 47.2C637.364 46.2933 636.217 45.0533 635.417 43.48C634.617 41.88 634.217 40.0667 634.217 38.04C634.217 36.0133 634.617 34.2 635.417 32.6C636.217 30.9733 637.364 29.7067 638.857 28.8C640.377 27.8933 642.177 27.44 644.257 27.44C645.351 27.44 646.417 27.6267 647.457 28C648.497 28.3733 649.457 28.8933 650.337 29.56V28ZM645.017 43.12C646.511 43.12 647.764 42.64 648.777 41.68C649.791 40.72 650.297 39.48 650.297 37.96C650.297 36.4933 649.791 35.2933 648.777 34.36C647.764 33.4267 646.511 32.96 645.017 32.96C643.524 32.96 642.297 33.4267 641.337 34.36C640.377 35.2933 639.897 36.52 639.897 38.04C639.897 39.56 640.377 40.7867 641.337 41.72C642.297 42.6533 643.524 43.12 645.017 43.12ZM672.677 27.48C674.757 27.48 676.543 27.9333 678.037 28.84C679.557 29.7467 680.717 31 681.517 32.6C682.317 34.1733 682.717 35.9733 682.717 38C682.717 40.0267 682.317 41.84 681.517 43.44C680.717 45.04 679.557 46.3067 678.037 47.24C676.543 48.1467 674.757 48.6 672.677 48.6C671.61 48.6 670.557 48.4133 669.517 48.04C668.477 47.6933 667.517 47.1867 666.637 46.52V56H660.917V28H666.637V29.56C667.517 28.8933 668.463 28.3867 669.477 28.04C670.517 27.6667 671.583 27.48 672.677 27.48ZM671.917 43.04C673.41 43.04 674.623 42.5867 675.557 41.68C676.517 40.7467 676.997 39.52 676.997 38C676.997 36.48 676.517 35.2533 675.557 34.32C674.623 33.3867 673.41 32.92 671.917 32.92C670.423 32.92 669.17 33.4 668.157 34.36C667.143 35.32 666.637 36.5467 666.637 38.04C666.637 39.5333 667.13 40.7467 668.117 41.68C669.13 42.5867 670.397 43.04 671.917 43.04ZM693.2 40.88C693.2 41.6267 693.4 42.1467 693.8 42.44C694.227 42.7333 694.867 42.88 695.72 42.88C696.254 42.88 696.84 42.84 697.48 42.76V48C696.147 48.1333 695.04 48.2 694.16 48.2C691.92 48.2 690.24 47.7067 689.12 46.72C688.027 45.7067 687.48 43.88 687.48 41.24V33.08H684.04V28H687.48V23.36L693.2 21.44V28H697.4V33.08H693.2V40.88ZM716.04 28H721.72V48H716.04V46.48C715.16 47.1467 714.187 47.6533 713.12 48C712.08 48.3733 711.027 48.56 709.96 48.56C707.88 48.56 706.08 48.1067 704.56 47.2C703.067 46.2933 701.92 45.0533 701.12 43.48C700.32 41.88 699.92 40.0667 699.92 38.04C699.92 36.0133 700.32 34.2 701.12 32.6C701.92 30.9733 703.067 29.7067 704.56 28.8C706.08 27.8933 707.88 27.44 709.96 27.44C711.054 27.44 712.12 27.6267 713.16 28C714.2 28.3733 715.16 28.8933 716.04 29.56V28ZM710.72 43.12C712.214 43.12 713.467 42.64 714.48 41.68C715.494 40.72 716 39.48 716 37.96C716 36.4933 715.494 35.2933 714.48 34.36C713.467 33.4267 712.214 32.96 710.72 32.96C709.227 32.96 708 33.4267 707.04 34.36C706.08 35.2933 705.6 36.52 705.6 38.04C705.6 39.56 706.08 40.7867 707.04 41.72C708 42.6533 709.227 43.12 710.72 43.12ZM733.552 40.88C733.552 41.6267 733.752 42.1467 734.152 42.44C734.579 42.7333 735.219 42.88 736.072 42.88C736.605 42.88 737.192 42.84 737.832 42.76V48C736.499 48.1333 735.392 48.2 734.512 48.2C732.272 48.2 730.592 47.7067 729.472 46.72C728.379 45.7067 727.832 43.88 727.832 41.24V33.08H724.392V28H727.832V23.36L733.552 21.44V28H737.752V33.08H733.552V40.88ZM744.814 25.28C743.747 25.28 742.907 25 742.294 24.44C741.707 23.8533 741.414 23.0667 741.414 22.08C741.414 21.0667 741.707 20.2667 742.294 19.68C742.907 19.0933 743.747 18.8 744.814 18.8C745.854 18.8 746.681 19.0933 747.294 19.68C747.907 20.2667 748.214 21.0667 748.214 22.08C748.214 23.0667 747.907 23.8533 747.294 24.44C746.681 25 745.854 25.28 744.814 25.28ZM741.934 48V28H747.654V48H741.934ZM761.061 48.6C759.141 48.6 757.367 48.1333 755.741 47.2C754.141 46.24 752.861 44.9467 751.901 43.32C750.967 41.6933 750.501 39.9333 750.501 38.04C750.501 36.12 750.967 34.36 751.901 32.76C752.861 31.1333 754.141 29.8533 755.741 28.92C757.367 27.96 759.141 27.48 761.061 27.48C762.954 27.48 764.701 27.96 766.301 28.92C767.927 29.8533 769.207 31.1333 770.141 32.76C771.101 34.36 771.581 36.12 771.581 38.04C771.581 39.9333 771.101 41.6933 770.141 43.32C769.207 44.9467 767.927 46.24 766.301 47.2C764.701 48.1333 762.954 48.6 761.061 48.6ZM761.021 42.88C762.354 42.88 763.501 42.4133 764.461 41.48C765.421 40.52 765.901 39.3733 765.901 38.04C765.901 36.7067 765.421 35.56 764.461 34.6C763.501 33.64 762.354 33.16 761.021 33.16C759.687 33.16 758.541 33.64 757.581 34.6C756.647 35.56 756.181 36.7067 756.181 38.04C756.181 39.3733 756.647 40.52 757.581 41.48C758.541 42.4133 759.687 42.88 761.021 42.88ZM785.148 27.44C786.322 27.44 787.508 27.6933 788.708 28.2C789.908 28.7067 790.935 29.6 791.788 30.88C792.642 32.16 793.068 33.88 793.068 36.04V48H787.348V36.04C787.348 34.76 786.988 33.84 786.268 33.28C785.575 32.72 784.735 32.44 783.748 32.44C782.762 32.44 781.935 32.7867 781.268 33.48C780.628 34.1733 780.308 35.28 780.308 36.8V48H774.588V28H780.308V29.36C781.828 28.08 783.442 27.44 785.148 27.44ZM799.476 16.4C801.476 18.48 803.063 21.1467 804.236 24.4C805.436 27.6267 806.036 30.8533 806.036 34.08C806.036 37.3067 805.436 40.5333 804.236 43.76C803.063 46.9867 801.476 49.6533 799.476 51.76L795.916 48.96C797.33 46.5067 798.343 44.12 798.956 41.8C799.596 39.48 799.916 36.9067 799.916 34.08C799.916 31.2533 799.596 28.6933 798.956 26.4C798.343 24.08 797.33 21.6533 795.916 19.12L799.476 16.4Z" fill="#EAEAEA"/>
<path d="M47.2799 0.696279C48.8447 2.14924 50.8167 9.04855 51.562 11.3535C52.7262 14.9541 53.7031 17.8834 55.1769 21.3565C56.3528 24.1258 56.8354 28.5849 59.368 30.3786C61.016 31.5467 63.9727 32.0046 64.3929 34.5034C64.8351 37.1349 64.1522 39.8509 62.6576 42.0193C62.0723 42.8687 60.3201 44.3555 60.181 45.2348C59.6606 48.514 62.0306 51.9988 61.5403 55.3288C61.1955 57.6754 59.8844 58.7901 57.5443 57.799C56.8432 57.5024 56.2292 56.5242 55.2822 57.0016C53.9385 58.4389 55.4995 60.3498 53.8657 61.6844C53.0995 62.3113 52.163 62.3426 51.2095 62.0915C49.897 61.7468 49.2961 59.7137 47.6987 60.1937C47.1186 60.368 43.6416 64.5214 42.6725 65.3382C38.9627 68.4679 33.4878 70.8652 28.6268 69.4032C26.4233 68.7411 23.0191 65.9327 21.3034 64.3223C20.3343 63.4131 17.5728 59.9335 16.6362 59.633C14.6174 58.9866 14.5446 61.661 13.7849 62.4987C13.0734 63.2843 11.9079 63.2843 11.0611 62.7653C9.20882 61.6297 9.84489 57.7912 8.97208 57.5258C7.80398 57.1694 6.65019 60.7998 4.36733 59.144C3.07176 58.2035 3.09258 55.7997 3.18884 54.3558C3.41908 50.9244 5.74745 47.2874 3.56996 44.0368C1.61099 41.1113 -0.68617 40.3894 0.193153 36.1255C0.752486 33.412 3.24998 32.616 4.83042 30.8001C6.83101 28.5016 8.24884 24.6682 9.534 21.8846C11.8637 16.835 12.1499 12.0598 14.1804 7.01934C14.6109 5.95141 16.5374 1.68747 17.1474 1.04229C18.0411 0.0979235 19.0127 0.0237792 20.0716 0.739205C21.8302 1.92941 23.9453 8.41507 25.0665 10.5835C25.8327 12.065 26.9228 14.2334 28.7334 14.439C30.2111 14.6068 35.9605 14.6289 37.1807 14.1372C38.8092 13.4816 39.7406 9.67942 40.3936 8.20305C40.8228 7.23397 41.4888 6.38326 41.8934 5.4337C42.4943 4.02106 42.6075 2.22079 43.6039 1.04619C44.6003 -0.128411 46.0936 -0.408078 47.2812 0.693678L47.2799 0.696279ZM18.8189 8.99262C16.9029 9.4674 16.1185 14.7355 16.4307 16.3654C16.7286 17.9237 19.178 16.3875 20.0209 15.8984C21.9135 14.798 22.0045 14.8617 21.453 12.5697C21.2084 11.5564 20.1301 8.66742 18.8189 8.99131V8.99262ZM44.5535 9.41407C43.877 10.0619 42.8898 13.9108 43.172 14.8565C43.6169 16.3459 47.86 18.5312 48.327 16.9403C48.7068 15.6513 47.782 10.7669 46.8519 9.75877C46.3264 9.19033 45.144 8.84823 44.5535 9.41407ZM27.4131 49.3855C27.5276 44.3073 25.1056 34.48 19.6748 32.6303C15.3979 31.1734 12.7443 35.7222 12.3814 39.354C11.8897 44.2696 13.1983 48.7209 16.138 52.6193C19.0648 56.4982 24.3641 63.0268 28.6242 65.1418C34.0458 67.8344 38.9549 64.8439 42.3499 60.5436C47.3436 54.2179 52.8849 47.7609 52.2436 39.1185C51.8443 33.7385 47.2265 28.9075 42.5685 33.9428C39.0356 37.7618 37.5267 44.3242 37.1781 49.3855C37.0207 49.569 34.9823 48.1576 34.5934 48.0067C32.174 47.0637 30.6833 47.6607 28.5656 48.8106C28.1832 49.0187 27.9907 49.5312 27.4145 49.3855H27.4131Z" fill="white"/>
<path d="M27.4136 49.3852C27.9898 49.5309 28.1823 49.0184 28.5648 48.8102C30.6824 47.6604 32.1731 47.0633 34.5925 48.0064C34.9815 48.1573 37.0198 49.5699 37.1772 49.3852C37.5258 44.3239 39.0334 37.7615 42.5676 33.9424C47.2257 28.9071 51.8434 33.7382 52.2427 39.1182C52.8853 47.7605 47.3427 54.2176 42.3491 60.5432C38.954 64.8436 34.0462 67.8341 28.6233 65.1415C24.3632 63.0264 19.0639 56.4991 16.1372 52.6189C13.1961 48.7205 11.8888 44.2692 12.3805 39.3536C12.7434 35.7219 15.397 31.173 19.674 32.6299C25.1047 34.4796 27.5267 44.307 27.4123 49.3852H27.4136ZM21.2531 36.4165C19.9692 36.6116 19.5374 39.896 19.4788 40.9575C19.406 42.2726 19.5712 47.5953 21.4053 47.6812C22.7906 47.7449 23.268 45.0419 23.35 44.0104C23.4592 42.6212 23.6361 36.0549 21.2531 36.4165ZM43.6368 36.4152C43.2362 36.4906 43.0398 36.7287 42.829 37.0486C41.6909 38.7722 41.7169 45.133 42.8316 46.8903C43.7773 48.381 44.8049 47.5797 45.3252 46.2464C46.1382 44.1652 46.0927 39.4967 45.1509 37.4636C44.84 36.7924 44.5044 36.2513 43.6368 36.4152Z" fill="black"/>
<path d="M44.554 9.41392C45.1458 8.84808 46.3269 9.19019 46.8524 9.75863C47.7838 10.7667 48.7073 15.6511 48.3275 16.9402C47.8592 18.531 43.6174 16.3457 43.1725 14.8564C42.8903 13.9107 43.8776 10.0617 44.554 9.41392Z" fill="black"/>
<path d="M18.8181 8.99266C20.1292 8.66747 21.2076 11.5565 21.4521 12.5711C22.005 14.8631 21.9126 14.7993 20.02 15.8998C19.1771 16.3902 16.7277 17.9251 16.4298 16.3667C16.1177 14.7356 16.902 9.46744 18.8181 8.99396V8.99266Z" fill="black"/>
<path d="M43.6367 36.4152C44.5056 36.25 44.8399 36.7911 45.1508 37.4636C46.0939 39.4968 46.1381 44.1665 45.3251 46.2465C44.8048 47.5798 43.7772 48.381 42.8315 46.8904C41.7155 45.133 41.6895 38.7722 42.8289 37.0487C43.0397 36.7287 43.2361 36.492 43.6367 36.4152Z" fill="white"/>
<path d="M21.2527 36.4167C23.6357 36.0551 23.4601 42.6214 23.3495 44.0106C23.2676 45.0422 22.7902 47.7452 21.4048 47.6814C19.5694 47.5969 19.4056 42.2728 19.4784 40.9577C19.5369 39.8976 19.9688 36.6118 21.2527 36.4167Z" fill="white"/>
<path d="M28.429 54.4453L31.08 58.6039C31.4781 58.9447 32.014 59.8318 32.5837 59.7421L36.3625 54.95L36.0581 54.4453H28.4277H28.429Z" fill="white"/>
</svg>
