<svg width="1150" height="81" viewBox="0 0 1150 81" fill="none" xmlns="http://www.w3.org/2000/svg">
<path d="M16.2454 25.4668C16.566 25.5378 16.6731 25.2881 16.8858 25.1868C18.0639 24.6267 18.8932 24.3359 20.2391 24.7952C20.4555 24.8687 21.5894 25.5568 21.6769 25.4668C21.8709 23.0015 22.7095 19.805 24.6756 17.9448C27.2669 15.4922 29.8358 17.8453 30.058 20.4659C30.4154 24.6755 27.3321 27.8206 24.5541 30.9018C22.6654 32.9964 19.9352 34.453 16.9184 33.1415C14.5485 32.1113 11.6005 28.9319 9.97231 27.0419C8.33619 25.143 7.60895 22.9749 7.88248 20.5805C8.08437 18.8116 9.56057 16.5959 11.9398 17.3055C14.961 18.2065 16.3084 22.9933 16.2447 25.4668H16.2454ZM12.8183 19.1499C12.1041 19.2449 11.8639 20.8448 11.8313 21.3618C11.7908 22.0023 11.8827 24.595 12.903 24.6368C13.6736 24.6679 13.9392 23.3512 13.9848 22.8488C14.0456 22.1721 14.144 18.9738 12.8183 19.1499ZM25.2705 19.1493C25.0476 19.186 24.9383 19.302 24.8211 19.4578C24.1879 20.2973 24.2024 23.3956 24.8225 24.2516C25.3486 24.9777 25.9203 24.5874 26.2097 23.938C26.662 22.9242 26.6367 20.6502 26.1128 19.6599C25.9398 19.333 25.7531 19.0694 25.2705 19.1493Z" fill="black"/>
<path d="M25.778 5.99716C26.1072 5.72155 26.7643 5.88819 27.0566 6.16507C27.5747 6.6561 28.0885 9.03524 27.8772 9.66313C27.6167 10.438 25.257 9.37358 25.0095 8.64811C24.8524 8.18749 25.4017 6.31269 25.778 5.99716Z" fill="black"/>
<path d="M11.4642 5.79215C12.1936 5.63375 12.7935 7.04096 12.9296 7.53516C13.2371 8.65155 13.1857 8.6205 12.1329 9.15652C11.664 9.39538 10.3014 10.143 10.1357 9.38398C9.96199 8.58945 10.3983 6.02341 11.4642 5.79278V5.79215Z" fill="black"/>
<path d="M25.2698 19.1491C25.7532 19.0687 25.9391 19.3322 26.1121 19.6598C26.6367 20.6501 26.6613 22.9247 26.209 23.9378C25.9196 24.5872 25.3479 24.9775 24.8219 24.2514C24.201 23.3955 24.1865 20.2972 24.8204 19.4577C24.9376 19.3018 25.0469 19.1865 25.2698 19.1491Z" fill="white"/>
<path d="M12.8168 19.1501C14.1425 18.9739 14.0448 22.1723 13.9833 22.849C13.9377 23.3514 13.6722 24.668 12.9015 24.637C11.8805 24.5958 11.7893 22.0025 11.8298 21.3619C11.8624 20.8456 12.1026 19.2451 12.8168 19.1501Z" fill="white"/>
<path d="M16.8093 27.9316L18.2841 29.9572C18.5055 30.1232 18.8036 30.5553 19.1206 30.5116L21.2227 28.1775L21.0534 27.9316H16.8086H16.8093Z" fill="white"/>
<path d="M10.3832 0.367052C9.4411 1.133 8.25383 4.77006 7.80508 5.98515C7.10415 7.88323 6.516 9.42747 5.62868 11.2583C4.92071 12.7182 4.63015 15.0689 3.10534 16.0145C2.11307 16.6303 0.332951 16.8716 0.0799901 18.1889C-0.186284 19.5761 0.224882 21.0079 1.12473 22.151C1.47715 22.5988 2.53206 23.3825 2.61586 23.8461C2.92912 25.5748 1.50221 27.4118 1.79746 29.1673C2.005 30.4043 2.79442 30.992 4.20333 30.4695C4.62545 30.3131 4.9951 29.7975 5.56524 30.0491C6.37425 30.8068 5.43446 31.8142 6.4181 32.5177C6.87938 32.8482 7.44326 32.8647 8.01732 32.7323C8.80753 32.5506 9.16935 31.4788 10.1311 31.7319C10.4804 31.8238 12.5737 34.0133 13.1572 34.4439C15.3908 36.0937 18.6871 37.3575 21.6137 36.5868C22.9404 36.2377 24.9899 34.7573 26.0229 33.9083C26.6064 33.429 28.269 31.5947 28.8329 31.4363C30.0484 31.0955 30.0922 32.5054 30.5496 32.947C30.978 33.3611 31.6797 33.3611 32.1895 33.0875C33.3047 32.4889 32.9218 30.4653 33.4473 30.3255C34.1506 30.1376 34.8452 32.0514 36.2197 31.1785C36.9997 30.6827 36.9872 29.4155 36.9292 28.6544C36.7906 26.8454 35.3887 24.9282 36.6998 23.2145C37.8792 21.6724 39.2622 21.2918 38.7328 19.044C38.3961 17.6136 36.8924 17.1939 35.9409 16.2367C34.7364 15.025 33.8827 13.0042 33.109 11.5367C31.7063 8.87478 31.534 6.3575 30.3115 3.70034C30.0523 3.13736 28.8924 0.889571 28.5251 0.549454C27.9871 0.0516216 27.4021 0.0125355 26.7646 0.389681C25.7058 1.01711 24.4323 4.43611 23.7573 5.57921C23.296 6.36024 22.6397 7.50334 21.5495 7.61168C20.6599 7.70014 17.1983 7.71179 16.4637 7.45259C15.4832 7.10699 14.9224 5.10263 14.5293 4.32434C14.2708 3.81348 13.8699 3.36502 13.6263 2.86444C13.2645 2.11975 13.1963 1.17072 12.5964 0.551511C11.9965 -0.0676936 11.0975 -0.215123 10.3825 0.365681L10.3832 0.367052ZM27.5188 4.74057C28.6724 4.99086 29.1446 7.76802 28.9567 8.62723C28.7773 9.44872 27.3026 8.63889 26.7951 8.38106C25.6556 7.80094 25.6008 7.83454 25.9329 6.6263C26.0801 6.09213 26.7293 4.56914 27.5188 4.73989V4.74057ZM12.0247 4.96275C12.432 5.30423 13.0264 7.33328 12.8565 7.8318C12.5886 8.61695 10.0339 9.76895 9.75279 8.93032C9.52411 8.25077 10.0809 5.67589 10.6409 5.14446C10.9573 4.8448 11.6692 4.66446 12.0247 4.96275ZM22.3444 26.0342C22.2755 23.3572 23.7338 18.1766 27.0034 17.2015C29.5785 16.4335 31.1761 18.8314 31.3946 20.746C31.6907 23.3373 30.9028 25.6838 29.1329 27.7389C27.3708 29.7837 24.1802 33.2254 21.6153 34.3403C18.3511 35.7598 15.3955 34.1833 13.3514 31.9163C10.3449 28.5817 7.0086 25.1778 7.3947 20.6218C7.63513 17.7857 10.4153 15.2389 13.2198 17.8934C15.3469 19.9066 16.2554 23.3661 16.4653 26.0342C16.56 26.1309 17.7872 25.3869 18.0214 25.3074C19.4781 24.8102 20.3756 25.125 21.6506 25.7311C21.8808 25.8409 21.9967 26.111 22.3437 26.0342H22.3444Z" fill="white"/>
<path d="M22.3432 26.0344C21.9962 26.1112 21.8803 25.841 21.6501 25.7313C20.3751 25.1251 19.4776 24.8104 18.0209 25.3075C17.7867 25.3871 16.5595 26.1318 16.4648 26.0344C16.2549 23.3662 15.3472 19.9068 13.2194 17.8935C10.4149 15.2391 7.63464 17.7859 7.39421 20.622C7.00733 25.1779 10.3444 28.5818 13.3509 31.9165C15.395 34.1835 18.3498 35.7599 21.6148 34.3405C24.1797 33.2255 27.3703 29.7846 29.1324 27.7391C30.9031 25.684 31.6902 23.3374 31.3941 20.7461C31.1756 18.8316 29.578 16.4336 27.003 17.2016C23.7333 18.1767 22.275 23.3573 22.3439 26.0344H22.3432ZM26.0522 19.1978C26.8252 19.3006 27.0852 21.0321 27.1204 21.5916C27.1643 22.2849 27.0648 25.0908 25.9606 25.1361C25.1265 25.1697 24.8391 23.7448 24.7897 23.201C24.724 22.4686 24.6175 19.0071 26.0522 19.1978ZM12.5756 19.1971C12.8168 19.2368 12.9351 19.3623 13.0619 19.531C13.7472 20.4396 13.7315 23.7928 13.0604 24.7192C12.491 25.505 11.8723 25.0826 11.5591 24.3797C11.0696 23.2826 11.097 20.8215 11.664 19.7498C11.8512 19.3959 12.0532 19.1107 12.5756 19.1971Z" fill="black"/>
<path d="M12.0262 4.96288C11.6698 4.66459 10.9587 4.84494 10.6423 5.1446C10.0816 5.67603 9.52555 8.25091 9.75423 8.93046C10.0362 9.76909 12.5901 8.61708 12.8579 7.83193C13.0278 7.33341 12.4334 5.30437 12.0262 4.96288Z" fill="black"/>
<path d="M27.5201 4.74018C26.7307 4.56875 26.0814 6.09174 25.9342 6.6266C25.6014 7.83484 25.6569 7.80124 26.7964 8.38135C27.3039 8.63987 28.7786 9.44902 28.958 8.62753C29.1459 7.76764 28.6737 4.99047 27.5201 4.74087V4.74018Z" fill="black"/>
<path d="M12.577 19.1967C12.0538 19.1096 11.8525 19.3949 11.6654 19.7494C11.0976 20.8212 11.0709 23.2829 11.5604 24.3794C11.8737 25.0822 12.4924 25.5046 13.0617 24.7188C13.7337 23.7924 13.7493 20.4392 13.0633 19.5307C12.9364 19.362 12.8182 19.2372 12.577 19.1967Z" fill="white"/>
<path d="M26.0545 19.1975C24.6197 19.0069 24.7254 22.4684 24.792 23.2008C24.8414 23.7445 25.1288 25.1695 25.9628 25.1359C27.0679 25.0913 27.1666 22.2846 27.1227 21.5914C27.0875 21.0325 26.8274 19.3004 26.0545 19.1975Z" fill="white"/>
<path d="M21.7341 28.7012L20.138 30.8934C19.8984 31.0731 19.5757 31.5407 19.2327 31.4934L16.9576 28.9672L17.1408 28.7012H21.7349H21.7341Z" fill="white"/>
<path d="M12.5374 36.9648H12.8252L13.113 37.0152L13.3625 37.0992L13.6311 37.2336L14.3794 37.6704L14.8782 37.9224L15.3963 38.1576L15.9527 38.376L16.6243 38.5944L17.4301 38.796L18.1592 38.9304L18.6581 38.9976L19.2721 39.048L19.5599 39.0648H20.6344L21.3251 39.0144L21.9966 38.9304L22.7257 38.796L23.3973 38.628L24.1456 38.3928L24.491 38.2584L25.0282 38.04L25.5462 37.788L25.8916 37.6032L26.3521 37.3344L26.6207 37.1832L26.851 37.0824L27.1004 37.0152L27.3306 36.9816H27.7911L28.7505 37.1328L29.2493 37.2336L29.8825 37.4016L30.4581 37.5696L31.4367 37.9392L31.7437 38.0736L32.2042 38.292L32.6646 38.5272L32.9716 38.6952L33.2594 38.88L33.5856 39.0816L33.8926 39.2832L34.1804 39.5016L34.3723 39.6528L34.5833 39.804L34.8903 40.056L35.0822 40.224L35.2165 40.3584L35.5043 40.6272L35.6962 40.812L35.8689 40.9968L36.1759 41.3496L36.4445 41.6688L36.6747 41.9544L36.9242 42.3072L37.1544 42.6432L37.5382 43.332L37.6533 43.584L37.6725 43.6848V43.8192L37.6341 43.9704L37.4614 44.2392L37.1928 44.6088L36.9817 44.9112L36.809 45.1296L36.5596 45.432L36.291 45.7512L36.0416 46.0368L35.7921 46.3055L35.6386 46.4735L35.4468 46.6583L35.2741 46.8431L35.063 47.0279L34.9287 47.1623L34.6601 47.3975L34.6409 47.4311H34.6025L34.5642 47.4983L33.931 48.0527L33.7775 48.1703L33.7007 48.2375H33.6624V48.2711L33.5089 48.3887L33.3746 48.5063L33.2211 48.6239L32.3001 49.2791L32.0123 49.4639L31.6477 49.6823L31.2064 49.9511L30.9762 50.0855L30.6692 50.2535L29.4604 50.8583L28.9999 51.0599L28.4627 51.2783L27.9638 51.4799L27.2155 51.7319L26.4288 51.9839L25.5846 52.2023L24.7979 52.3871L23.781 52.5719L23.1095 52.6727L22.0542 52.7903L21.0757 52.8743H18.6965V52.8575L18.236 52.8071L17.0848 52.6895L16.5859 52.6223L15.3387 52.4039L14.8207 52.2863L13.6886 52.0007L12.9979 51.7823L12.4415 51.5975L12.0194 51.4463L10.7914 50.9423L10.4268 50.7743L9.96635 50.5391L9.48668 50.3039L9.06456 50.0687L8.08602 49.4807L7.77903 49.2791L7.51041 49.0775L7.31854 48.9431L6.99236 48.7079L6.80049 48.5567L6.64699 48.4391L6.41675 48.2543L6.26325 48.1367L5.95626 47.8847L5.11203 47.1455L4.97772 47.0111L4.76666 46.8263L4.61316 46.6583L4.36373 46.3895L4.19105 46.2048L3.97999 45.9696L3.74974 45.7176L3.25088 45.1128L3.05901 44.8608L2.7712 44.4576L2.59852 44.2056L2.52177 44.0544L2.4834 43.92V43.668L2.57933 43.416L2.7712 43.0632L2.9247 42.7944L3.09738 42.5088L3.28925 42.24L3.55787 41.8536L4.09511 41.2152L4.32536 40.9464L4.53641 40.728L4.80503 40.476L5.03528 40.2576L5.16959 40.14L5.3039 40.0056L5.57251 39.7872L5.78357 39.636L6.033 39.4344L6.24406 39.2832L6.43593 39.1488L6.81967 38.9136L7.14585 38.712L7.43366 38.544L7.87496 38.3256L8.22033 38.1576L8.60407 37.9728L9.27562 37.7208L9.79367 37.536L10.5228 37.3344L11.06 37.2L11.8275 37.0656L12.3647 36.9816L12.5374 36.9648Z" fill="white"/>
<path d="M76.0918 14.4474V14.4154H80.8918V36.8154H76.0918V23.2474L70.3958 32.7834H69.2118L63.4838 23.2154V36.8154H58.6838V14.4154H63.4838V14.4474L63.5478 14.4154L69.7878 24.9114L76.0278 14.4154L76.0918 14.4474ZM95.4863 20.8154H100.254L94.8783 36.5914C93.9823 38.8954 92.7663 40.6128 91.2303 41.7434C89.7156 42.8741 87.9023 43.3648 85.7903 43.2154V38.7994C85.9183 38.8208 86.1103 38.8314 86.3663 38.8314C87.2623 38.8314 88.009 38.5968 88.6063 38.1274C89.2036 37.6581 89.705 37.0074 90.1103 36.1754L83.1983 20.8154H88.1263L92.3183 29.9994L95.4863 20.8154ZM123.13 36.8154L118.97 29.3274H115.546V36.8154H110.746V14.4154H119.994C121.36 14.4154 122.608 14.7461 123.738 15.4074C124.89 16.0688 125.797 16.9754 126.458 18.1274C127.141 19.2581 127.482 20.5061 127.482 21.8714C127.482 23.2154 127.152 24.4528 126.49 25.5834C125.85 26.7141 124.976 27.6101 123.866 28.2714L128.666 36.8154H123.13ZM115.546 18.9914V24.7514H119.994C120.784 24.7514 121.466 24.4741 122.042 23.9194C122.618 23.3434 122.906 22.6608 122.906 21.8714C122.906 21.0821 122.618 20.4101 122.042 19.8554C121.488 19.2794 120.805 18.9914 119.994 18.9914H115.546ZM137.294 37.2954C135.758 37.2954 134.339 36.9221 133.038 36.1754C131.758 35.4074 130.734 34.3728 129.966 33.0714C129.219 31.7701 128.846 30.3621 128.846 28.8474C128.846 27.3114 129.219 25.9034 129.966 24.6234C130.734 23.3221 131.758 22.2981 133.038 21.5514C134.339 20.7834 135.758 20.3994 137.294 20.3994C138.808 20.3994 140.206 20.7834 141.486 21.5514C142.787 22.2981 143.811 23.3221 144.558 24.6234C145.326 25.9034 145.71 27.3114 145.71 28.8474C145.71 30.3621 145.326 31.7701 144.558 33.0714C143.811 34.3728 142.787 35.4074 141.486 36.1754C140.206 36.9221 138.808 37.2954 137.294 37.2954ZM137.262 32.7194C138.328 32.7194 139.246 32.3461 140.014 31.5994C140.782 30.8314 141.166 29.9141 141.166 28.8474C141.166 27.7808 140.782 26.8634 140.014 26.0954C139.246 25.3274 138.328 24.9434 137.262 24.9434C136.195 24.9434 135.278 25.3274 134.51 26.0954C133.763 26.8634 133.39 27.7808 133.39 28.8474C133.39 29.9141 133.763 30.8314 134.51 31.5994C135.278 32.3461 136.195 32.7194 137.262 32.7194ZM152.692 31.7594C152.692 32.1008 152.767 32.3461 152.916 32.4954C153.087 32.6448 153.364 32.7194 153.748 32.7194C154.025 32.7194 154.356 32.6874 154.74 32.6234V36.8154C153.695 36.9648 152.884 37.0394 152.308 37.0394C150.921 37.0394 149.876 36.6768 149.172 35.9514C148.468 35.2048 148.116 33.9034 148.116 32.0474V14.4154H152.692V31.7594ZM164.481 20.3994C166.039 20.3994 167.425 20.7728 168.641 21.5194C169.879 22.2661 170.839 23.2794 171.521 24.5594C172.204 25.8394 172.545 27.2581 172.545 28.8154C172.545 29.4128 172.503 29.9568 172.417 30.4474H160.577C160.983 31.4288 161.527 32.1648 162.209 32.6554C162.892 33.1248 163.777 33.3594 164.865 33.3594C165.527 33.3594 166.167 33.2208 166.785 32.9434C167.425 32.6661 167.927 32.2928 168.289 31.8234L171.745 33.8714C170.999 34.9594 170.028 35.7914 168.833 36.3674C167.66 36.9434 166.305 37.2314 164.769 37.2314C163.041 37.2314 161.516 36.8688 160.193 36.1434C158.871 35.3968 157.847 34.3834 157.121 33.1034C156.396 31.8234 156.033 30.3941 156.033 28.8154C156.033 27.2368 156.385 25.8074 157.089 24.5274C157.815 23.2474 158.817 22.2448 160.097 21.5194C161.377 20.7728 162.839 20.3994 164.481 20.3994ZM168.257 26.8954C168.108 26.0848 167.681 25.4554 166.977 25.0074C166.295 24.5594 165.452 24.3354 164.449 24.3354C163.404 24.3354 162.497 24.5914 161.729 25.1034C160.961 25.5941 160.556 26.1914 160.513 26.8954H168.257ZM188.317 39.8234C186.717 38.1381 185.437 36.0048 184.477 33.4234C183.538 30.8421 183.069 28.2608 183.069 25.6794C183.069 23.0981 183.538 20.5168 184.477 17.9354C185.437 15.3328 186.717 13.1994 188.317 11.5354L191.165 13.7114C190.034 15.7381 189.213 17.6794 188.701 19.5354C188.21 21.3701 187.965 23.4181 187.965 25.6794C187.965 27.9408 188.21 29.9994 188.701 31.8554C189.213 33.7114 190.034 35.6208 191.165 37.5834L188.317 39.8234ZM207.599 14.4154V18.9594H198.703V23.4714H207.279V28.0154H198.703V36.8154H193.903V14.4154H207.599ZM217.731 20.3994C219.289 20.3994 220.675 20.7728 221.891 21.5194C223.129 22.2661 224.089 23.2794 224.771 24.5594C225.454 25.8394 225.795 27.2581 225.795 28.8154C225.795 29.4128 225.753 29.9568 225.667 30.4474H213.827C214.233 31.4288 214.777 32.1648 215.459 32.6554C216.142 33.1248 217.027 33.3594 218.115 33.3594C218.777 33.3594 219.417 33.2208 220.035 32.9434C220.675 32.6661 221.177 32.2928 221.539 31.8234L224.995 33.8714C224.249 34.9594 223.278 35.7914 222.083 36.3674C220.91 36.9434 219.555 37.2314 218.019 37.2314C216.291 37.2314 214.766 36.8688 213.443 36.1434C212.121 35.3968 211.097 34.3834 210.371 33.1034C209.646 31.8234 209.283 30.3941 209.283 28.8154C209.283 27.2368 209.635 25.8074 210.339 24.5274C211.065 23.2474 212.067 22.2448 213.347 21.5194C214.627 20.7728 216.089 20.3994 217.731 20.3994ZM221.507 26.8954C221.358 26.0848 220.931 25.4554 220.227 25.0074C219.545 24.5594 218.702 24.3354 217.699 24.3354C216.654 24.3354 215.747 24.5914 214.979 25.1034C214.211 25.5941 213.806 26.1914 213.763 26.8954H221.507ZM238.003 20.3674C239.667 20.3674 241.096 20.7301 242.291 21.4554C243.507 22.1808 244.435 23.1941 245.075 24.4954C245.715 25.7754 246.035 27.2261 246.035 28.8474C246.035 30.4688 245.715 31.9194 245.075 33.1994C244.435 34.4581 243.507 35.4501 242.291 36.1754C241.096 36.9008 239.667 37.2634 238.003 37.2634C237.043 37.2634 236.115 37.0928 235.219 36.7514C234.323 36.4101 233.501 35.9194 232.755 35.2794V36.8154H228.179V14.4154H232.755V22.3834C233.501 21.7434 234.323 21.2528 235.219 20.9114C236.115 20.5488 237.043 20.3674 238.003 20.3674ZM237.395 32.9114C238.589 32.9114 239.56 32.5381 240.307 31.7914C241.075 31.0448 241.459 30.0634 241.459 28.8474C241.459 27.6314 241.075 26.6501 240.307 25.9034C239.56 25.1568 238.589 24.7834 237.395 24.7834C236.2 24.7834 235.197 25.1568 234.387 25.9034C233.576 26.6501 233.171 27.6101 233.171 28.7834C233.171 29.9994 233.576 30.9914 234.387 31.7594C235.197 32.5274 236.2 32.9114 237.395 32.9114ZM274.156 32.2394V36.7834H257.164V35.7594C257.313 33.6261 257.921 31.5461 258.988 29.5194C260.054 27.4714 261.75 25.9888 264.076 25.0714L265.132 24.6234C266.582 24.0474 267.67 23.5248 268.396 23.0554C269.121 22.5861 269.484 21.9888 269.484 21.2634C269.484 20.6448 269.302 20.1114 268.94 19.6634C268.577 19.2154 268.129 18.8848 267.596 18.6714C267.062 18.4368 266.529 18.3194 265.996 18.3194C264.737 18.3194 263.681 18.5648 262.828 19.0554C261.974 19.5248 261.462 20.2608 261.292 21.2634L256.78 20.7834C256.972 19.3754 257.505 18.1594 258.38 17.1354C259.276 16.1114 260.385 15.3328 261.708 14.7994C263.052 14.2448 264.481 13.9674 265.996 13.9674C267.361 13.9674 268.662 14.2554 269.9 14.8314C271.158 15.4074 272.172 16.2288 272.94 17.2954C273.708 18.3621 274.092 19.5994 274.092 21.0074C274.092 22.4154 273.75 23.5994 273.068 24.5594C272.385 25.5194 271.468 26.3194 270.316 26.9594C269.185 27.5781 267.713 28.2288 265.9 28.9114C264.534 29.4234 263.521 30.5328 262.86 32.2394H274.156ZM285.048 37.2314C283.171 37.2314 281.528 36.7514 280.12 35.7914C278.712 34.8101 277.624 33.4448 276.856 31.6954C276.088 29.9248 275.704 27.8981 275.704 25.6154C275.704 23.3328 276.088 21.3168 276.856 19.5674C277.624 17.7968 278.712 16.4314 280.12 15.4714C281.528 14.4901 283.171 13.9994 285.048 13.9994C286.926 13.9994 288.568 14.4901 289.976 15.4714C291.384 16.4314 292.462 17.7968 293.208 19.5674C293.976 21.3168 294.36 23.3328 294.36 25.6154C294.36 27.8981 293.976 29.9248 293.208 31.6954C292.462 33.4448 291.384 34.8101 289.976 35.7914C288.568 36.7514 286.926 37.2314 285.048 37.2314ZM285.048 32.4314C286.435 32.4314 287.534 31.8768 288.344 30.7674C289.155 29.6581 289.56 27.9408 289.56 25.6154C289.56 23.2901 289.155 21.5728 288.344 20.4634C287.534 19.3541 286.435 18.7994 285.048 18.7994C283.662 18.7994 282.563 19.3541 281.752 20.4634C280.942 21.5728 280.536 23.2901 280.536 25.6154C280.536 27.9408 280.942 29.6581 281.752 30.7674C282.563 31.8768 283.662 32.4314 285.048 32.4314ZM313.093 32.2394V36.7834H296.101V35.7594C296.25 33.6261 296.858 31.5461 297.925 29.5194C298.992 27.4714 300.688 25.9888 303.013 25.0714L304.069 24.6234C305.52 24.0474 306.608 23.5248 307.333 23.0554C308.058 22.5861 308.421 21.9888 308.421 21.2634C308.421 20.6448 308.24 20.1114 307.877 19.6634C307.514 19.2154 307.066 18.8848 306.533 18.6714C306 18.4368 305.466 18.3194 304.933 18.3194C303.674 18.3194 302.618 18.5648 301.765 19.0554C300.912 19.5248 300.4 20.2608 300.229 21.2634L295.717 20.7834C295.909 19.3754 296.442 18.1594 297.317 17.1354C298.213 16.1114 299.322 15.3328 300.645 14.7994C301.989 14.2448 303.418 13.9674 304.933 13.9674C306.298 13.9674 307.6 14.2554 308.837 14.8314C310.096 15.4074 311.109 16.2288 311.877 17.2954C312.645 18.3621 313.029 19.5994 313.029 21.0074C313.029 22.4154 312.688 23.5994 312.005 24.5594C311.322 25.5194 310.405 26.3194 309.253 26.9594C308.122 27.5781 306.65 28.2288 304.837 28.9114C303.472 29.4234 302.458 30.5328 301.797 32.2394H313.093ZM330.546 28.1754H332.786V32.7514H330.546V36.8154H325.746V32.7514H315.058V28.1754L321.778 14.4154H327.09L320.402 28.1754H325.746V23.5354H330.546V28.1754ZM350.554 30.9914H342.874V27.1514H350.554V30.9914ZM381.551 36.8154H376.431L374.863 32.5914H366.575L365.007 36.8154H359.855L368.143 14.4154H373.295L381.551 36.8154ZM370.735 21.3914L368.239 28.0474H373.199L370.735 21.3914ZM393.087 20.3994C394.751 20.3994 396.18 20.7621 397.375 21.4874C398.591 22.2128 399.519 23.2154 400.159 24.4954C400.799 25.7541 401.119 27.1941 401.119 28.8154C401.119 30.4368 400.799 31.8874 400.159 33.1674C399.519 34.4474 398.591 35.4608 397.375 36.2074C396.18 36.9328 394.751 37.2954 393.087 37.2954C392.233 37.2954 391.391 37.1461 390.559 36.8474C389.727 36.5701 388.959 36.1648 388.255 35.6314V43.2154H383.679V20.8154H388.255V22.0634C388.959 21.5301 389.716 21.1248 390.527 20.8474C391.359 20.5488 392.212 20.3994 393.087 20.3994ZM392.479 32.8474C393.673 32.8474 394.644 32.4848 395.391 31.7594C396.159 31.0128 396.543 30.0314 396.543 28.8154C396.543 27.5994 396.159 26.6181 395.391 25.8714C394.644 25.1248 393.673 24.7514 392.479 24.7514C391.284 24.7514 390.281 25.1354 389.471 25.9034C388.66 26.6714 388.255 27.6528 388.255 28.8474C388.255 30.0421 388.649 31.0128 389.439 31.7594C390.249 32.4848 391.263 32.8474 392.479 32.8474ZM413.789 20.4954L413.469 24.8154C413.32 24.7514 413.074 24.7194 412.733 24.7194C411.432 24.7194 410.365 25.0928 409.533 25.8394C408.722 26.5648 408.317 27.5248 408.317 28.7194V36.8154H403.741V20.8154H408.317V23.4074C408.701 22.5754 409.32 21.8821 410.173 21.3274C411.026 20.7728 412.061 20.4954 413.277 20.4954H413.789ZM440.812 32.2394V36.7834H423.82V35.7594C423.969 33.6261 424.577 31.5461 425.644 29.5194C426.71 27.4714 428.406 25.9888 430.732 25.0714L431.788 24.6234C433.238 24.0474 434.326 23.5248 435.052 23.0554C435.777 22.5861 436.14 21.9888 436.14 21.2634C436.14 20.6448 435.958 20.1114 435.596 19.6634C435.233 19.2154 434.785 18.8848 434.252 18.6714C433.718 18.4368 433.185 18.3194 432.652 18.3194C431.393 18.3194 430.337 18.5648 429.484 19.0554C428.63 19.5248 428.118 20.2608 427.948 21.2634L423.436 20.7834C423.628 19.3754 424.161 18.1594 425.036 17.1354C425.932 16.1114 427.041 15.3328 428.364 14.7994C429.708 14.2448 431.137 13.9674 432.652 13.9674C434.017 13.9674 435.318 14.2554 436.556 14.8314C437.814 15.4074 438.828 16.2288 439.596 17.2954C440.364 18.3621 440.748 19.5994 440.748 21.0074C440.748 22.4154 440.406 23.5994 439.724 24.5594C439.041 25.5194 438.124 26.3194 436.972 26.9594C435.841 27.5781 434.369 28.2288 432.556 28.9114C431.19 29.4234 430.177 30.5328 429.516 32.2394H440.812ZM451.705 37.2314C449.827 37.2314 448.185 36.7514 446.777 35.7914C445.369 34.8101 444.281 33.4448 443.513 31.6954C442.745 29.9248 442.361 27.8981 442.361 25.6154C442.361 23.3328 442.745 21.3168 443.513 19.5674C444.281 17.7968 445.369 16.4314 446.777 15.4714C448.185 14.4901 449.827 13.9994 451.705 13.9994C453.582 13.9994 455.225 14.4901 456.633 15.4714C458.041 16.4314 459.118 17.7968 459.865 19.5674C460.633 21.3168 461.017 23.3328 461.017 25.6154C461.017 27.8981 460.633 29.9248 459.865 31.6954C459.118 33.4448 458.041 34.8101 456.633 35.7914C455.225 36.7514 453.582 37.2314 451.705 37.2314ZM451.705 32.4314C453.091 32.4314 454.19 31.8768 455.001 30.7674C455.811 29.6581 456.217 27.9408 456.217 25.6154C456.217 23.2901 455.811 21.5728 455.001 20.4634C454.19 19.3541 453.091 18.7994 451.705 18.7994C450.318 18.7994 449.219 19.3541 448.409 20.4634C447.598 21.5728 447.193 23.2901 447.193 25.6154C447.193 27.9408 447.598 29.6581 448.409 30.7674C449.219 31.8768 450.318 32.4314 451.705 32.4314ZM479.749 32.2394V36.7834H462.757V35.7594C462.907 33.6261 463.515 31.5461 464.581 29.5194C465.648 27.4714 467.344 25.9888 469.669 25.0714L470.725 24.6234C472.176 24.0474 473.264 23.5248 473.989 23.0554C474.715 22.5861 475.077 21.9888 475.077 21.2634C475.077 20.6448 474.896 20.1114 474.533 19.6634C474.171 19.2154 473.723 18.8848 473.189 18.6714C472.656 18.4368 472.123 18.3194 471.589 18.3194C470.331 18.3194 469.275 18.5648 468.421 19.0554C467.568 19.5248 467.056 20.2608 466.885 21.2634L462.373 20.7834C462.565 19.3754 463.099 18.1594 463.973 17.1354C464.869 16.1114 465.979 15.3328 467.301 14.7994C468.645 14.2448 470.075 13.9674 471.589 13.9674C472.955 13.9674 474.256 14.2554 475.493 14.8314C476.752 15.4074 477.765 16.2288 478.533 17.2954C479.301 18.3621 479.685 19.5994 479.685 21.0074C479.685 22.4154 479.344 23.5994 478.661 24.5594C477.979 25.5194 477.061 26.3194 475.909 26.9594C474.779 27.5781 473.307 28.2288 471.493 28.9114C470.128 29.4234 469.115 30.5328 468.453 32.2394H479.749ZM497.202 28.1754H499.442V32.7514H497.202V36.8154H492.402V32.7514H481.714V28.1754L488.434 14.4154H493.746L487.058 28.1754H492.402V23.5354H497.202V28.1754ZM503.839 11.5354C505.439 13.1994 506.708 15.3328 507.647 17.9354C508.607 20.5168 509.087 23.0981 509.087 25.6794C509.087 28.2608 508.607 30.8421 507.647 33.4234C506.708 36.0048 505.439 38.1381 503.839 39.8234L500.991 37.5834C502.121 35.6208 502.932 33.7114 503.423 31.8554C503.935 29.9994 504.191 27.9408 504.191 25.6794C504.191 23.4181 503.935 21.3701 503.423 19.5354C502.932 17.6794 502.121 15.7381 500.991 13.7114L503.839 11.5354Z" fill="white"/>
<path d="M57.8332 76.5352V62.8914H60.7764V76.5352H57.8332ZM77.753 72.0327L79.3317 66.7896H82.2359L79.0783 76.5352H76.3691L74.7513 71.3895L73.1141 76.5352H70.4243L67.3057 66.7896H70.2294L71.7692 71.9742L73.27 66.7896H76.2132L77.753 72.0327ZM90.3247 66.7896H93.0924V76.5352H90.3247V75.7945C89.8959 76.1193 89.4216 76.3662 88.9019 76.5352C88.3951 76.7171 87.8818 76.808 87.3621 76.808C86.3485 76.808 85.4714 76.5871 84.7308 76.1453C84.0031 75.7035 83.4443 75.0993 83.0545 74.3327C82.6647 73.553 82.4698 72.6694 82.4698 71.6819C82.4698 70.6943 82.6647 69.8107 83.0545 69.0311C83.4443 68.2384 84.0031 67.6212 84.7308 67.1794C85.4714 66.7376 86.3485 66.5167 87.3621 66.5167C87.8948 66.5167 88.4146 66.6077 88.9213 66.7896C89.4281 66.9715 89.8959 67.2249 90.3247 67.5498V66.7896ZM87.7324 74.1572C88.4601 74.1572 89.0708 73.9233 89.5646 73.4556C90.0583 72.9878 90.3052 72.3836 90.3052 71.6429C90.3052 70.9282 90.0583 70.3435 89.5646 69.8887C89.0708 69.4339 88.4601 69.2065 87.7324 69.2065C87.0047 69.2065 86.407 69.4339 85.9392 69.8887C85.4714 70.3435 85.2375 70.9412 85.2375 71.6819C85.2375 72.4225 85.4714 73.0203 85.9392 73.4751C86.407 73.9298 87.0047 74.1572 87.7324 74.1572ZM97.594 69.5573C97.594 69.7782 97.7304 69.9472 98.0033 70.0641C98.2762 70.1681 98.7115 70.2785 99.3092 70.3955C100.076 70.5514 100.713 70.7268 101.219 70.9217C101.726 71.1036 102.168 71.4155 102.545 71.8573C102.935 72.2861 103.129 72.8838 103.129 73.6505C103.129 74.3132 102.928 74.8849 102.525 75.3657C102.122 75.8335 101.59 76.1908 100.927 76.4377C100.264 76.6716 99.5496 76.7885 98.7829 76.7885C97.7304 76.7885 96.8338 76.6001 96.0932 76.2233C95.3525 75.8335 94.7937 75.2617 94.4169 74.5081L96.6974 73.3386C97.0092 74.1702 97.7044 74.586 98.7829 74.586C99.2247 74.586 99.608 74.5081 99.9329 74.3522C100.271 74.1832 100.44 73.9493 100.44 73.6505C100.44 73.3906 100.284 73.1957 99.9719 73.0657C99.673 72.9358 99.1922 72.7994 98.5295 72.6564C97.7759 72.4875 97.1457 72.3121 96.6389 72.1302C96.1321 71.9353 95.6968 71.6429 95.333 71.2531C94.9692 70.8503 94.7872 70.3175 94.7872 69.6548C94.7872 69.0181 94.9692 68.4658 95.333 67.9981C95.6968 67.5173 96.1841 67.1534 96.7948 66.9066C97.4185 66.6597 98.0942 66.5362 98.8219 66.5362C99.6795 66.5362 100.453 66.7116 101.141 67.0625C101.83 67.4133 102.369 67.9201 102.759 68.5828L100.498 69.6938C100.342 69.3689 100.128 69.1285 99.8549 68.9726C99.5951 68.8167 99.2507 68.7387 98.8219 68.7387C98.4451 68.7387 98.1462 68.8167 97.9253 68.9726C97.7044 69.1155 97.594 69.3105 97.594 69.5573ZM117.334 66.7896H120.102V76.5352H117.334V75.7945C116.906 76.1193 116.431 76.3662 115.911 76.5352C115.405 76.7171 114.891 76.808 114.372 76.808C113.358 76.808 112.481 76.5871 111.74 76.1453C111.013 75.7035 110.454 75.0993 110.064 74.3327C109.674 73.553 109.479 72.6694 109.479 71.6819C109.479 70.6943 109.674 69.8107 110.064 69.0311C110.454 68.2384 111.013 67.6212 111.74 67.1794C112.481 66.7376 113.358 66.5167 114.372 66.5167C114.904 66.5167 115.424 66.6077 115.931 66.7896C116.438 66.9715 116.906 67.2249 117.334 67.5498V66.7896ZM114.742 74.1572C115.47 74.1572 116.08 73.9233 116.574 73.4556C117.068 72.9878 117.315 72.3836 117.315 71.6429C117.315 70.9282 117.068 70.3435 116.574 69.8887C116.08 69.4339 115.47 69.2065 114.742 69.2065C114.014 69.2065 113.417 69.4339 112.949 69.8887C112.481 70.3435 112.247 70.9412 112.247 71.6819C112.247 72.4225 112.481 73.0203 112.949 73.4751C113.417 73.9298 114.014 74.1572 114.742 74.1572ZM128.22 66.5362C129.233 66.5362 130.104 66.7571 130.832 67.1989C131.572 67.6407 132.138 68.2514 132.527 69.0311C132.917 69.7977 133.112 70.6748 133.112 71.6624C133.112 72.6499 132.917 73.5335 132.527 74.3132C132.138 75.0928 131.572 75.71 130.832 76.1648C130.104 76.6066 129.233 76.8275 128.22 76.8275C127.7 76.8275 127.187 76.7366 126.68 76.5546C126.173 76.3857 125.705 76.1388 125.277 75.814V80.4334H122.489V66.7896H125.277V67.5498C125.705 67.2249 126.167 66.978 126.661 66.8091C127.167 66.6272 127.687 66.5362 128.22 66.5362ZM127.849 74.1183C128.577 74.1183 129.168 73.8974 129.623 73.4556C130.091 73.0008 130.325 72.403 130.325 71.6624C130.325 70.9217 130.091 70.324 129.623 69.8692C129.168 69.4144 128.577 69.187 127.849 69.187C127.122 69.187 126.511 69.4209 126.017 69.8887C125.524 70.3565 125.277 70.9542 125.277 71.6819C125.277 72.4095 125.517 73.0008 125.998 73.4556C126.492 73.8974 127.109 74.1183 127.849 74.1183ZM140.44 66.5362C141.453 66.5362 142.324 66.7571 143.052 67.1989C143.792 67.6407 144.358 68.2514 144.747 69.0311C145.137 69.7977 145.332 70.6748 145.332 71.6624C145.332 72.6499 145.137 73.5335 144.747 74.3132C144.358 75.0928 143.792 75.71 143.052 76.1648C142.324 76.6066 141.453 76.8275 140.44 76.8275C139.92 76.8275 139.407 76.7366 138.9 76.5546C138.393 76.3857 137.925 76.1388 137.497 75.814V80.4334H134.709V66.7896H137.497V67.5498C137.925 67.2249 138.387 66.978 138.881 66.8091C139.387 66.6272 139.907 66.5362 140.44 66.5362ZM140.069 74.1183C140.797 74.1183 141.388 73.8974 141.843 73.4556C142.311 73.0008 142.545 72.403 142.545 71.6624C142.545 70.9217 142.311 70.324 141.843 69.8692C141.388 69.4144 140.797 69.187 140.069 69.187C139.342 69.187 138.731 69.4209 138.237 69.8887C137.744 70.3565 137.497 70.9542 137.497 71.6819C137.497 72.4095 137.737 73.0008 138.218 73.4556C138.712 73.8974 139.329 74.1183 140.069 74.1183ZM151.549 76.8275C150.613 76.8275 149.749 76.6001 148.956 76.1453C148.177 75.6775 147.553 75.0473 147.085 74.2547C146.631 73.4621 146.403 72.6045 146.403 71.6819C146.403 70.7463 146.631 69.8887 147.085 69.1091C147.553 68.3164 148.177 67.6927 148.956 67.2379C149.749 66.7701 150.613 66.5362 151.549 66.5362C152.471 66.5362 153.322 66.7701 154.102 67.2379C154.895 67.6927 155.518 68.3164 155.973 69.1091C156.441 69.8887 156.675 70.7463 156.675 71.6819C156.675 72.6045 156.441 73.4621 155.973 74.2547C155.518 75.0473 154.895 75.6775 154.102 76.1453C153.322 76.6001 152.471 76.8275 151.549 76.8275ZM151.529 74.0403C152.179 74.0403 152.738 73.8129 153.206 73.3581C153.673 72.8903 153.907 72.3316 153.907 71.6819C153.907 71.0322 153.673 70.4734 153.206 70.0056C152.738 69.5379 152.179 69.304 151.529 69.304C150.88 69.304 150.321 69.5379 149.853 70.0056C149.398 70.4734 149.171 71.0322 149.171 71.6819C149.171 72.3316 149.398 72.8903 149.853 73.3581C150.321 73.8129 150.88 74.0403 151.529 74.0403ZM159.621 65.4642C159.101 65.4642 158.692 65.3278 158.393 65.0549C158.107 64.769 157.964 64.3857 157.964 63.9049C157.964 63.4112 158.107 63.0213 158.393 62.7355C158.692 62.4496 159.101 62.3067 159.621 62.3067C160.128 62.3067 160.531 62.4496 160.829 62.7355C161.128 63.0213 161.278 63.4112 161.278 63.9049C161.278 64.3857 161.128 64.769 160.829 65.0549C160.531 65.3278 160.128 65.4642 159.621 65.4642ZM158.218 76.5352V66.7896H161.005V76.5352H158.218ZM168.445 66.5167C169.016 66.5167 169.595 66.6402 170.179 66.8871C170.764 67.134 171.264 67.5693 171.68 68.193C172.096 68.8167 172.304 69.6548 172.304 70.7073V76.5352H169.517V70.7073C169.517 70.0836 169.341 69.6353 168.99 69.3624C168.652 69.0896 168.243 68.9531 167.762 68.9531C167.282 68.9531 166.879 69.122 166.554 69.4599C166.242 69.7977 166.086 70.337 166.086 71.0777V76.5352H163.299V66.7896H166.086V67.4523C166.827 66.8286 167.613 66.5167 168.445 66.5167ZM177.641 73.0657C177.641 73.4296 177.738 73.683 177.933 73.8259C178.141 73.9688 178.453 74.0403 178.868 74.0403C179.128 74.0403 179.414 74.0208 179.726 73.9818V76.5352C179.076 76.6001 178.537 76.6326 178.108 76.6326C177.017 76.6326 176.198 76.3922 175.652 75.9114C175.12 75.4177 174.853 74.5276 174.853 73.2412V69.265H173.177V66.7896H174.853V64.5286L177.641 63.5931V66.7896H179.687V69.265H177.641V73.0657ZM185.906 66.5362C186.854 66.5362 187.699 66.7636 188.44 67.2184C189.193 67.6732 189.778 68.2904 190.194 69.0701C190.61 69.8497 190.817 70.7138 190.817 71.6624C190.817 72.0262 190.791 72.3576 190.739 72.6564H183.528C183.775 73.2542 184.106 73.7025 184.522 74.0013C184.938 74.2872 185.477 74.4301 186.14 74.4301C186.542 74.4301 186.932 74.3457 187.309 74.1767C187.699 74.0078 188.004 73.7804 188.225 73.4945L190.33 74.742C189.875 75.4047 189.284 75.9114 188.556 76.2623C187.842 76.6131 187.017 76.7885 186.081 76.7885C185.029 76.7885 184.099 76.5676 183.294 76.1258C182.488 75.6711 181.865 75.0538 181.423 74.2742C180.981 73.4945 180.76 72.6239 180.76 71.6624C180.76 70.7008 180.974 69.8302 181.403 69.0506C181.845 68.2709 182.456 67.6602 183.235 67.2184C184.015 66.7636 184.905 66.5362 185.906 66.5362ZM188.206 70.4929C188.115 69.9991 187.855 69.6158 187.426 69.3429C187.01 69.0701 186.497 68.9336 185.886 68.9336C185.249 68.9336 184.697 69.0896 184.229 69.4014C183.762 69.7003 183.515 70.0641 183.489 70.4929H188.206ZM199.695 62.8914H202.463V76.5352H199.695V75.7945C199.266 76.1193 198.799 76.3662 198.292 76.5352C197.798 76.7171 197.285 76.808 196.752 76.808C195.738 76.808 194.861 76.5871 194.121 76.1453C193.393 75.7035 192.834 75.0993 192.444 74.3327C192.055 73.553 191.86 72.6694 191.86 71.6819C191.86 70.6943 192.055 69.8107 192.444 69.0311C192.834 68.2384 193.393 67.6212 194.121 67.1794C194.861 66.7376 195.738 66.5167 196.752 66.5167C197.272 66.5167 197.785 66.6077 198.292 66.7896C198.799 66.9585 199.266 67.2054 199.695 67.5303V62.8914ZM197.122 74.1572C197.85 74.1572 198.461 73.9233 198.954 73.4556C199.448 72.9878 199.695 72.3836 199.695 71.6429C199.695 70.9282 199.448 70.3435 198.954 69.8887C198.461 69.4339 197.85 69.2065 197.122 69.2065C196.395 69.2065 195.797 69.4339 195.329 69.8887C194.861 70.3435 194.627 70.9412 194.627 71.6819C194.627 72.4225 194.861 73.0203 195.329 73.4751C195.797 73.9298 196.395 74.1572 197.122 74.1572ZM217.302 66.7896H220.07V76.5352H217.302V75.7945C216.874 76.1193 216.399 76.3662 215.879 76.5352C215.373 76.7171 214.859 76.808 214.34 76.808C213.326 76.808 212.449 76.5871 211.708 76.1453C210.981 75.7035 210.422 75.0993 210.032 74.3327C209.642 73.553 209.447 72.6694 209.447 71.6819C209.447 70.6943 209.642 69.8107 210.032 69.0311C210.422 68.2384 210.981 67.6212 211.708 67.1794C212.449 66.7376 213.326 66.5167 214.34 66.5167C214.872 66.5167 215.392 66.6077 215.899 66.7896C216.406 66.9715 216.874 67.2249 217.302 67.5498V66.7896ZM214.71 74.1572C215.438 74.1572 216.048 73.9233 216.542 73.4556C217.036 72.9878 217.283 72.3836 217.283 71.6429C217.283 70.9282 217.036 70.3435 216.542 69.8887C216.048 69.4339 215.438 69.2065 214.71 69.2065C213.982 69.2065 213.385 69.4339 212.917 69.8887C212.449 70.3435 212.215 70.9412 212.215 71.6819C212.215 72.4225 212.449 73.0203 212.917 73.4751C213.385 73.9298 213.982 74.1572 214.71 74.1572ZM224.572 69.5573C224.572 69.7782 224.708 69.9472 224.981 70.0641C225.254 70.1681 225.689 70.2785 226.287 70.3955C227.053 70.5514 227.69 70.7268 228.197 70.9217C228.704 71.1036 229.145 71.4155 229.522 71.8573C229.912 72.2861 230.107 72.8838 230.107 73.6505C230.107 74.3132 229.906 74.8849 229.503 75.3657C229.1 75.8335 228.567 76.1908 227.905 76.4377C227.242 76.6716 226.527 76.7885 225.761 76.7885C224.708 76.7885 223.811 76.6001 223.071 76.2233C222.33 75.8335 221.771 75.2617 221.395 74.5081L223.675 73.3386C223.987 74.1702 224.682 74.586 225.761 74.586C226.202 74.586 226.586 74.5081 226.911 74.3522C227.248 74.1832 227.417 73.9493 227.417 73.6505C227.417 73.3906 227.261 73.1957 226.949 73.0657C226.651 72.9358 226.17 72.7994 225.507 72.6564C224.753 72.4875 224.123 72.3121 223.617 72.1302C223.11 71.9353 222.674 71.6429 222.311 71.2531C221.947 70.8503 221.765 70.3175 221.765 69.6548C221.765 69.0181 221.947 68.4658 222.311 67.9981C222.674 67.5173 223.162 67.1534 223.772 66.9066C224.396 66.6597 225.072 66.5362 225.8 66.5362C226.657 66.5362 227.43 66.7116 228.119 67.0625C228.808 67.4133 229.347 67.9201 229.737 68.5828L227.476 69.6938C227.32 69.3689 227.105 69.1285 226.833 68.9726C226.573 68.8167 226.228 68.7387 225.8 68.7387C225.423 68.7387 225.124 68.8167 224.903 68.9726C224.682 69.1155 224.572 69.3105 224.572 69.5573ZM240.492 73.0657C240.492 73.4296 240.589 73.683 240.784 73.8259C240.992 73.9688 241.304 74.0403 241.72 74.0403C241.98 74.0403 242.265 74.0208 242.577 73.9818V76.5352C241.928 76.6001 241.388 76.6326 240.959 76.6326C239.868 76.6326 239.049 76.3922 238.504 75.9114C237.971 75.4177 237.704 74.5276 237.704 73.2412V69.265H236.028V66.7896H237.704V64.5286L240.492 63.5931V66.7896H242.538V69.265H240.492V73.0657ZM253.218 76.5352H250.43V70.7853C250.43 70.1616 250.255 69.7133 249.904 69.4404C249.553 69.1545 249.137 69.0116 248.657 69.0116C248.254 69.0116 247.903 69.1415 247.604 69.4014C247.305 69.6483 247.117 70.0381 247.039 70.5709V76.5352H244.252V62.8914H247.039V67.4913C247.754 66.8936 248.527 66.5947 249.358 66.5947C249.917 66.5947 250.482 66.7181 251.054 66.965C251.639 67.1989 252.139 67.6212 252.555 68.232C252.984 68.8427 253.205 69.6678 253.218 70.7073V76.5352ZM259.511 66.5362C260.46 66.5362 261.304 66.7636 262.045 67.2184C262.799 67.6732 263.383 68.2904 263.799 69.0701C264.215 69.8497 264.423 70.7138 264.423 71.6624C264.423 72.0262 264.397 72.3576 264.345 72.6564H257.133C257.38 73.2542 257.712 73.7025 258.127 74.0013C258.543 74.2872 259.082 74.4301 259.745 74.4301C260.148 74.4301 260.538 74.3457 260.915 74.1767C261.304 74.0078 261.61 73.7804 261.831 73.4945L263.936 74.742C263.481 75.4047 262.89 75.9114 262.162 76.2623C261.447 76.6131 260.622 76.7885 259.687 76.7885C258.634 76.7885 257.705 76.5676 256.899 76.1258C256.094 75.6711 255.47 75.0538 255.028 74.2742C254.586 73.4945 254.366 72.6239 254.366 71.6624C254.366 70.7008 254.58 69.8302 255.009 69.0506C255.451 68.2709 256.061 67.6602 256.841 67.2184C257.621 66.7636 258.511 66.5362 259.511 66.5362ZM261.811 70.4929C261.72 69.9991 261.46 69.6158 261.031 69.3429C260.616 69.0701 260.102 68.9336 259.492 68.9336C258.855 68.9336 258.303 69.0896 257.835 69.4014C257.367 69.7003 257.12 70.0641 257.094 70.4929H261.811ZM275.979 76.7885C274.627 76.7885 273.49 76.4897 272.568 75.892C271.658 75.2942 271.015 74.4821 270.638 73.4556L273.113 72.0132C273.373 72.6629 273.737 73.1437 274.205 73.4556C274.686 73.7674 275.303 73.9234 276.057 73.9234C276.667 73.9234 277.135 73.7804 277.46 73.4945C277.798 73.2087 277.967 72.8903 277.967 72.5395C277.967 72.2796 277.889 72.0587 277.733 71.8768C277.577 71.6949 277.31 71.5259 276.934 71.37C276.557 71.2011 276.011 71.0127 275.296 70.8048C274.049 70.4409 273.055 69.9472 272.314 69.3235C271.574 68.6997 271.203 67.8096 271.203 66.6532C271.203 65.8345 271.405 65.1264 271.807 64.5286C272.223 63.9179 272.769 63.4501 273.445 63.1253C274.133 62.8004 274.874 62.638 275.667 62.638C276.771 62.638 277.739 62.9044 278.571 63.4371C279.402 63.9569 280.052 64.6976 280.52 65.6591L277.986 67.1015C277.739 66.5557 277.427 66.1594 277.051 65.9125C276.674 65.6526 276.212 65.5227 275.667 65.5227C275.251 65.5227 274.894 65.6396 274.595 65.8735C274.296 66.0944 274.146 66.3543 274.146 66.6532C274.146 66.9001 274.205 67.1145 274.322 67.2964C274.452 67.4653 274.679 67.6277 275.004 67.7837C275.342 67.9396 275.836 68.115 276.485 68.3099C277.356 68.5828 278.103 68.8882 278.727 69.226C279.364 69.5508 279.883 69.9991 280.286 70.5709C280.702 71.1426 280.91 71.8573 280.91 72.7149C280.91 73.5335 280.695 74.2547 280.267 74.8784C279.838 75.4891 279.247 75.9634 278.493 76.3013C277.752 76.6261 276.914 76.7885 275.979 76.7885ZM286.844 76.8275C285.909 76.8275 285.045 76.6001 284.252 76.1453C283.472 75.6775 282.849 75.0473 282.381 74.2547C281.926 73.4621 281.699 72.6045 281.699 71.6819C281.699 70.7463 281.926 69.8887 282.381 69.1091C282.849 68.3164 283.472 67.6927 284.252 67.2379C285.045 66.7701 285.909 66.5362 286.844 66.5362C287.767 66.5362 288.618 66.7701 289.398 67.2379C290.19 67.6927 290.814 68.3164 291.269 69.1091C291.737 69.8887 291.971 70.7463 291.971 71.6819C291.971 72.6045 291.737 73.4621 291.269 74.2547C290.814 75.0473 290.19 75.6775 289.398 76.1453C288.618 76.6001 287.767 76.8275 286.844 76.8275ZM286.825 74.0403C287.475 74.0403 288.033 73.8129 288.501 73.3581C288.969 72.8903 289.203 72.3316 289.203 71.6819C289.203 71.0322 288.969 70.4734 288.501 70.0056C288.033 69.5379 287.475 69.304 286.825 69.304C286.175 69.304 285.616 69.5379 285.149 70.0056C284.694 70.4734 284.466 71.0322 284.466 71.6819C284.466 72.3316 284.694 72.8903 285.149 73.3581C285.616 73.8129 286.175 74.0403 286.825 74.0403ZM302.246 74.625C301.765 75.3007 301.155 75.84 300.414 76.2428C299.686 76.6326 298.9 76.8275 298.056 76.8275C297.12 76.8275 296.256 76.6001 295.463 76.1453C294.684 75.6775 294.06 75.0473 293.592 74.2547C293.137 73.4621 292.91 72.6045 292.91 71.6819C292.91 70.7463 293.137 69.8887 293.592 69.1091C294.06 68.3164 294.684 67.6927 295.463 67.2379C296.256 66.7701 297.12 66.5362 298.056 66.5362C298.9 66.5362 299.686 66.7311 300.414 67.121C301.142 67.5108 301.746 68.037 302.227 68.6997L299.927 70.22C299.381 69.6093 298.757 69.304 298.056 69.304C297.406 69.304 296.847 69.5379 296.379 70.0056C295.912 70.4734 295.678 71.0322 295.678 71.6819C295.678 72.3316 295.912 72.8903 296.379 73.3581C296.847 73.8129 297.406 74.0403 298.056 74.0403C298.757 74.0403 299.381 73.7349 299.927 73.1242L302.246 74.625ZM305.005 65.4642C304.485 65.4642 304.076 65.3278 303.777 65.0549C303.491 64.769 303.348 64.3857 303.348 63.9049C303.348 63.4112 303.491 63.0213 303.777 62.7355C304.076 62.4496 304.485 62.3067 305.005 62.3067C305.512 62.3067 305.914 62.4496 306.213 62.7355C306.512 63.0213 306.661 63.4112 306.661 63.9049C306.661 64.3857 306.512 64.769 306.213 65.0549C305.914 65.3278 305.512 65.4642 305.005 65.4642ZM303.601 76.5352V66.7896H306.389V76.5352H303.601ZM316.128 66.7896H318.896V76.5352H316.128V75.7945C315.699 76.1193 315.225 76.3662 314.705 76.5352C314.199 76.7171 313.685 76.808 313.166 76.808C312.152 76.808 311.275 76.5871 310.534 76.1453C309.807 75.7035 309.248 75.0993 308.858 74.3327C308.468 73.553 308.273 72.6694 308.273 71.6819C308.273 70.6943 308.468 69.8107 308.858 69.0311C309.248 68.2384 309.807 67.6212 310.534 67.1794C311.275 66.7376 312.152 66.5167 313.166 66.5167C313.698 66.5167 314.218 66.6077 314.725 66.7896C315.232 66.9715 315.699 67.2249 316.128 67.5498V66.7896ZM313.536 74.1572C314.264 74.1572 314.874 73.9233 315.368 73.4556C315.862 72.9878 316.109 72.3836 316.109 71.6429C316.109 70.9282 315.862 70.3435 315.368 69.8887C314.874 69.4339 314.264 69.2065 313.536 69.2065C312.808 69.2065 312.211 69.4339 311.743 69.8887C311.275 70.3435 311.041 70.9412 311.041 71.6819C311.041 72.4225 311.275 73.0203 311.743 73.4751C312.211 73.9298 312.808 74.1572 313.536 74.1572ZM323.804 73.4556C323.804 73.6635 323.85 73.8129 323.941 73.9039C324.044 73.9948 324.213 74.0403 324.447 74.0403C324.616 74.0403 324.818 74.0208 325.051 73.9818V76.5352C324.415 76.6261 323.921 76.6716 323.57 76.6716C322.726 76.6716 322.089 76.4507 321.66 76.0089C321.231 75.5541 321.017 74.7615 321.017 73.631V62.8914H323.804V73.4556ZM342.549 62.9109V62.8914H345.473V76.5352H342.549V68.2709L339.079 74.0793H338.358L334.869 68.2514V76.5352H331.946V62.8914H334.869V62.9109L334.908 62.8914L338.709 69.2845L342.51 62.8914L342.549 62.9109ZM352.608 66.5362C353.556 66.5362 354.401 66.7636 355.142 67.2184C355.895 67.6732 356.48 68.2904 356.896 69.0701C357.312 69.8497 357.52 70.7138 357.52 71.6624C357.52 72.0262 357.494 72.3576 357.442 72.6564H350.23C350.477 73.2542 350.808 73.7025 351.224 74.0013C351.64 74.2872 352.179 74.4301 352.842 74.4301C353.244 74.4301 353.634 74.3457 354.011 74.1767C354.401 74.0078 354.706 73.7804 354.927 73.4945L357.032 74.742C356.577 75.4047 355.986 75.9114 355.259 76.2623C354.544 76.6131 353.719 76.7885 352.783 76.7885C351.731 76.7885 350.802 76.5676 349.996 76.1258C349.19 75.6711 348.567 75.0538 348.125 74.2742C347.683 73.4945 347.462 72.6239 347.462 71.6624C347.462 70.7008 347.677 69.8302 348.105 69.0506C348.547 68.2709 349.158 67.6602 349.938 67.2184C350.717 66.7636 351.607 66.5362 352.608 66.5362ZM354.908 70.4929C354.817 69.9991 354.557 69.6158 354.128 69.3429C353.712 69.0701 353.199 68.9336 352.588 68.9336C351.952 68.9336 351.399 69.0896 350.932 69.4014C350.464 69.7003 350.217 70.0641 350.191 70.4929H354.908ZM366.397 62.8914H369.165V76.5352H366.397V75.7945C365.968 76.1193 365.501 76.3662 364.994 76.5352C364.5 76.7171 363.987 76.808 363.454 76.808C362.441 76.808 361.563 76.5871 360.823 76.1453C360.095 75.7035 359.536 75.0993 359.147 74.3327C358.757 73.553 358.562 72.6694 358.562 71.6819C358.562 70.6943 358.757 69.8107 359.147 69.0311C359.536 68.2384 360.095 67.6212 360.823 67.1794C361.563 66.7376 362.441 66.5167 363.454 66.5167C363.974 66.5167 364.487 66.6077 364.994 66.7896C365.501 66.9585 365.968 67.2054 366.397 67.5303V62.8914ZM363.824 74.1572C364.552 74.1572 365.163 73.9233 365.657 73.4556C366.15 72.9878 366.397 72.3836 366.397 71.6429C366.397 70.9282 366.15 70.3435 365.657 69.8887C365.163 69.4339 364.552 69.2065 363.824 69.2065C363.097 69.2065 362.499 69.4339 362.031 69.8887C361.563 70.3435 361.33 70.9412 361.33 71.6819C361.33 72.4225 361.563 73.0203 362.031 73.4751C362.499 73.9298 363.097 74.1572 363.824 74.1572ZM373.014 65.4642C372.494 65.4642 372.085 65.3278 371.786 65.0549C371.5 64.769 371.357 64.3857 371.357 63.9049C371.357 63.4112 371.5 63.0213 371.786 62.7355C372.085 62.4496 372.494 62.3067 373.014 62.3067C373.521 62.3067 373.924 62.4496 374.223 62.7355C374.522 63.0213 374.671 63.4112 374.671 63.9049C374.671 64.3857 374.522 64.769 374.223 65.0549C373.924 65.3278 373.521 65.4642 373.014 65.4642ZM371.611 76.5352V66.7896H374.398V76.5352H371.611ZM384.138 66.7896H386.905V76.5352H384.138V75.7945C383.709 76.1193 383.235 76.3662 382.715 76.5352C382.208 76.7171 381.695 76.808 381.175 76.808C380.161 76.808 379.284 76.5871 378.544 76.1453C377.816 75.7035 377.257 75.0993 376.867 74.3327C376.478 73.553 376.283 72.6694 376.283 71.6819C376.283 70.6943 376.478 69.8107 376.867 69.0311C377.257 68.2384 377.816 67.6212 378.544 67.1794C379.284 66.7376 380.161 66.5167 381.175 66.5167C381.708 66.5167 382.228 66.6077 382.734 66.7896C383.241 66.9715 383.709 67.2249 384.138 67.5498V66.7896ZM381.545 74.1572C382.273 74.1572 382.884 73.9233 383.378 73.4556C383.871 72.9878 384.118 72.3836 384.118 71.6429C384.118 70.9282 383.871 70.3435 383.378 69.8887C382.884 69.4339 382.273 69.2065 381.545 69.2065C380.818 69.2065 380.22 69.4339 379.752 69.8887C379.284 70.3435 379.05 70.9412 379.05 71.6819C379.05 72.4225 379.284 73.0203 379.752 73.4751C380.22 73.9298 380.818 74.1572 381.545 74.1572ZM397.34 70.9802V73.7479H402.875V76.5352H394.416V62.8914H402.758V65.6591H397.34V68.193H402.291V70.9802H397.34ZM410.655 66.7896H414.047L410.538 71.6819L414.047 76.5352L410.636 76.5546L408.843 74.0598L407.049 76.5546L403.639 76.5352L407.147 71.6819L403.639 66.7896H407.03L408.843 69.304L410.655 66.7896ZM419.19 66.5362C420.138 66.5362 420.983 66.7636 421.724 67.2184C422.477 67.6732 423.062 68.2904 423.478 69.0701C423.894 69.8497 424.101 70.7138 424.101 71.6624C424.101 72.0262 424.075 72.3576 424.023 72.6564H416.812C417.059 73.2542 417.39 73.7025 417.806 74.0013C418.222 74.2872 418.761 74.4301 419.424 74.4301C419.826 74.4301 420.216 74.3457 420.593 74.1767C420.983 74.0078 421.288 73.7804 421.509 73.4945L423.614 74.742C423.159 75.4047 422.568 75.9114 421.84 76.2623C421.126 76.6131 420.301 76.7885 419.365 76.7885C418.313 76.7885 417.383 76.5676 416.578 76.1258C415.772 75.6711 415.149 75.0538 414.707 74.2742C414.265 73.4945 414.044 72.6239 414.044 71.6624C414.044 70.7008 414.258 69.8302 414.687 69.0506C415.129 68.2709 415.74 67.6602 416.519 67.2184C417.299 66.7636 418.189 66.5362 419.19 66.5362ZM421.49 70.4929C421.399 69.9991 421.139 69.6158 420.71 69.3429C420.294 69.0701 419.781 68.9336 419.17 68.9336C418.533 68.9336 417.981 69.0896 417.513 69.4014C417.046 69.7003 416.799 70.0641 416.773 70.4929H421.49ZM434.363 74.625C433.882 75.3007 433.272 75.84 432.531 76.2428C431.803 76.6326 431.017 76.8275 430.172 76.8275C429.237 76.8275 428.373 76.6001 427.58 76.1453C426.8 75.6775 426.177 75.0473 425.709 74.2547C425.254 73.4621 425.027 72.6045 425.027 71.6819C425.027 70.7463 425.254 69.8887 425.709 69.1091C426.177 68.3164 426.8 67.6927 427.58 67.2379C428.373 66.7701 429.237 66.5362 430.172 66.5362C431.017 66.5362 431.803 66.7311 432.531 67.121C433.259 67.5108 433.863 68.037 434.344 68.6997L432.044 70.22C431.498 69.6093 430.874 69.304 430.172 69.304C429.523 69.304 428.964 69.5379 428.496 70.0056C428.028 70.4734 427.795 71.0322 427.795 71.6819C427.795 72.3316 428.028 72.8903 428.496 73.3581C428.964 73.8129 429.523 74.0403 430.172 74.0403C430.874 74.0403 431.498 73.7349 432.044 73.1242L434.363 74.625ZM441.547 66.7896H444.335V76.5352H441.547V75.8725C440.807 76.4962 440.021 76.808 439.189 76.808C438.617 76.808 438.039 76.6846 437.454 76.4377C436.87 76.1908 436.369 75.7555 435.954 75.1318C435.538 74.5081 435.33 73.67 435.33 72.6174V66.7896H438.117V72.6174C438.117 73.2282 438.292 73.6765 438.643 73.9623C438.994 74.2352 439.41 74.3716 439.891 74.3716C440.359 74.3716 440.748 74.2027 441.06 73.8649C441.385 73.527 441.547 72.9878 441.547 72.2471V66.7896ZM449.888 73.0657C449.888 73.4296 449.985 73.683 450.18 73.8259C450.388 73.9688 450.7 74.0403 451.116 74.0403C451.375 74.0403 451.661 74.0208 451.973 73.9818V76.5352C451.324 76.6001 450.784 76.6326 450.355 76.6326C449.264 76.6326 448.445 76.3922 447.9 75.9114C447.367 75.4177 447.1 74.5276 447.1 73.2412V69.265H445.424V66.7896H447.1V64.5286L449.888 63.5931V66.7896H451.934V69.265H449.888V73.0657ZM455.375 65.4642C454.856 65.4642 454.446 65.3278 454.148 65.0549C453.862 64.769 453.719 64.3857 453.719 63.9049C453.719 63.4112 453.862 63.0213 454.148 62.7355C454.446 62.4496 454.856 62.3067 455.375 62.3067C455.882 62.3067 456.285 62.4496 456.584 62.7355C456.883 63.0213 457.032 63.4112 457.032 63.9049C457.032 64.3857 456.883 64.769 456.584 65.0549C456.285 65.3278 455.882 65.4642 455.375 65.4642ZM453.972 76.5352V66.7896H456.759V76.5352H453.972ZM463.185 73.0852L465.466 66.7896H468.409L464.862 76.5352H461.49L457.942 66.7896H460.886L463.185 73.0852ZM473.704 66.5362C474.652 66.5362 475.497 66.7636 476.238 67.2184C476.991 67.6732 477.576 68.2904 477.992 69.0701C478.408 69.8497 478.616 70.7138 478.616 71.6624C478.616 72.0262 478.59 72.3576 478.538 72.6564H471.326C471.573 73.2542 471.904 73.7025 472.32 74.0013C472.736 74.2872 473.275 74.4301 473.938 74.4301C474.341 74.4301 474.73 74.3457 475.107 74.1767C475.497 74.0078 475.802 73.7804 476.023 73.4945L478.128 74.742C477.673 75.4047 477.082 75.9114 476.355 76.2623C475.64 76.6131 474.815 76.7885 473.879 76.7885C472.827 76.7885 471.898 76.5676 471.092 76.1258C470.286 75.6711 469.663 75.0538 469.221 74.2742C468.779 73.4945 468.558 72.6239 468.558 71.6624C468.558 70.7008 468.773 69.8302 469.201 69.0506C469.643 68.2709 470.254 67.6602 471.034 67.2184C471.813 66.7636 472.703 66.5362 473.704 66.5362ZM476.004 70.4929C475.913 69.9991 475.653 69.6158 475.224 69.3429C474.808 69.0701 474.295 68.9336 473.684 68.9336C473.048 68.9336 472.495 69.0896 472.028 69.4014C471.56 69.7003 471.313 70.0641 471.287 70.4929H476.004ZM492.88 66.7896H495.648V76.5352H492.88V75.7945C492.452 76.1193 491.977 76.3662 491.458 76.5352C490.951 76.7171 490.438 76.808 489.918 76.808C488.904 76.808 488.027 76.5871 487.287 76.1453C486.559 75.7035 486 75.0993 485.61 74.3327C485.22 73.553 485.026 72.6694 485.026 71.6819C485.026 70.6943 485.22 69.8107 485.61 69.0311C486 68.2384 486.559 67.6212 487.287 67.1794C488.027 66.7376 488.904 66.5167 489.918 66.5167C490.451 66.5167 490.97 66.6077 491.477 66.7896C491.984 66.9715 492.452 67.2249 492.88 67.5498V66.7896ZM490.288 74.1572C491.016 74.1572 491.627 73.9233 492.12 73.4556C492.614 72.9878 492.861 72.3836 492.861 71.6429C492.861 70.9282 492.614 70.3435 492.12 69.8887C491.627 69.4339 491.016 69.2065 490.288 69.2065C489.56 69.2065 488.963 69.4339 488.495 69.8887C488.027 70.3435 487.793 70.9412 487.793 71.6819C487.793 72.4225 488.027 73.0203 488.495 73.4751C488.963 73.9298 489.56 74.1572 490.288 74.1572ZM503.181 66.5167C503.753 66.5167 504.331 66.6402 504.916 66.8871C505.501 67.134 506.001 67.5693 506.417 68.193C506.833 68.8167 507.04 69.6548 507.04 70.7073V76.5352H504.253V70.7073C504.253 70.0836 504.078 69.6353 503.727 69.3624C503.389 69.0896 502.98 68.9531 502.499 68.9531C502.018 68.9531 501.615 69.122 501.291 69.4599C500.979 69.7977 500.823 70.337 500.823 71.0777V76.5352H498.036V66.7896H500.823V67.4523C501.563 66.8286 502.35 66.5167 503.181 66.5167ZM516.292 62.8914H519.06V76.5352H516.292V75.7945C515.863 76.1193 515.396 76.3662 514.889 76.5352C514.395 76.7171 513.882 76.808 513.349 76.808C512.335 76.808 511.458 76.5871 510.718 76.1453C509.99 75.7035 509.431 75.0993 509.041 74.3327C508.652 73.553 508.457 72.6694 508.457 71.6819C508.457 70.6943 508.652 69.8107 509.041 69.0311C509.431 68.2384 509.99 67.6212 510.718 67.1794C511.458 66.7376 512.335 66.5167 513.349 66.5167C513.869 66.5167 514.382 66.6077 514.889 66.7896C515.396 66.9585 515.863 67.2054 516.292 67.5303V62.8914ZM513.719 74.1572C514.447 74.1572 515.058 73.9233 515.551 73.4556C516.045 72.9878 516.292 72.3836 516.292 71.6429C516.292 70.9282 516.045 70.3435 515.551 69.8887C515.058 69.4339 514.447 69.2065 513.719 69.2065C512.992 69.2065 512.394 69.4339 511.926 69.8887C511.458 70.3435 511.224 70.9412 511.224 71.6819C511.224 72.4225 511.458 73.0203 511.926 73.4751C512.394 73.9298 512.992 74.1572 513.719 74.1572ZM529.514 70.9802V73.7479H535.049V76.5352H526.59V62.8914H534.932V65.6591H529.514V68.193H534.465V70.9802H529.514ZM540.958 72.9878H536.28V70.6488H540.958V72.9878ZM542.221 69.7523C542.221 68.4788 542.533 67.3029 543.157 66.2244C543.794 65.1459 544.651 64.2948 545.73 63.671C546.808 63.0343 547.984 62.716 549.258 62.716C550.557 62.716 551.759 63.0538 552.863 63.7295C553.968 64.4052 554.825 65.2953 555.436 66.3998L552.863 67.7837C552.5 67.134 551.999 66.6207 551.363 66.2439C550.726 65.854 550.024 65.6591 549.258 65.6591C548.517 65.6591 547.828 65.841 547.191 66.2049C546.568 66.5687 546.074 67.069 545.71 67.7057C545.346 68.3294 545.164 69.0116 545.164 69.7523C545.164 70.4929 545.346 71.1816 545.71 71.8183C546.087 72.442 546.587 72.9423 547.211 73.3191C547.835 73.683 548.517 73.8649 549.258 73.8649C550.024 73.8649 550.732 73.67 551.382 73.2801C552.032 72.8773 552.532 72.3446 552.883 71.6819L555.475 73.0852C554.864 74.2027 554 75.1058 552.883 75.7945C551.778 76.4702 550.57 76.808 549.258 76.808C547.984 76.808 546.808 76.4897 545.73 75.853C544.651 75.2163 543.794 74.3587 543.157 73.2801C542.533 72.2016 542.221 71.0257 542.221 69.7523ZM561.28 76.8275C560.345 76.8275 559.481 76.6001 558.688 76.1453C557.909 75.6775 557.285 75.0473 556.817 74.2547C556.362 73.4621 556.135 72.6045 556.135 71.6819C556.135 70.7463 556.362 69.8887 556.817 69.1091C557.285 68.3164 557.909 67.6927 558.688 67.2379C559.481 66.7701 560.345 66.5362 561.28 66.5362C562.203 66.5362 563.054 66.7701 563.834 67.2379C564.626 67.6927 565.25 68.3164 565.705 69.1091C566.173 69.8887 566.407 70.7463 566.407 71.6819C566.407 72.6045 566.173 73.4621 565.705 74.2547C565.25 75.0473 564.626 75.6775 563.834 76.1453C563.054 76.6001 562.203 76.8275 561.28 76.8275ZM561.261 74.0403C561.911 74.0403 562.469 73.8129 562.937 73.3581C563.405 72.8903 563.639 72.3316 563.639 71.6819C563.639 71.0322 563.405 70.4734 562.937 70.0056C562.469 69.5379 561.911 69.304 561.261 69.304C560.611 69.304 560.053 69.5379 559.585 70.0056C559.13 70.4734 558.903 71.0322 558.903 71.6819C558.903 72.3316 559.13 72.8903 559.585 73.3581C560.053 73.8129 560.611 74.0403 561.261 74.0403ZM578.967 66.5167C579.539 66.5167 580.117 66.6402 580.702 66.8871C581.286 67.134 581.787 67.5693 582.202 68.193C582.618 68.8167 582.826 69.6548 582.826 70.7073V76.5352H580.058V70.7073C580.058 70.0836 579.883 69.6353 579.532 69.3624C579.181 69.0896 578.765 68.9531 578.285 68.9531C577.882 68.9531 577.531 69.0766 577.232 69.3235C576.946 69.5573 576.758 69.9277 576.667 70.4344V70.7073V76.5352H573.88V70.7073C573.88 70.0836 573.704 69.6353 573.353 69.3624C573.003 69.0896 572.587 68.9531 572.106 68.9531C571.703 68.9531 571.352 69.0766 571.053 69.3235C570.755 69.5703 570.566 69.9667 570.488 70.5124V76.5352H567.701V66.7896H570.488V67.4133C571.203 66.8156 571.976 66.5167 572.808 66.5167C573.379 66.5167 573.958 66.6402 574.542 66.8871C575.14 67.134 575.627 67.5433 576.004 68.115C576.342 67.6602 576.771 67.2834 577.291 66.9845C577.81 66.6727 578.369 66.5167 578.967 66.5167ZM595.907 66.5167C596.479 66.5167 597.057 66.6402 597.642 66.8871C598.227 67.134 598.727 67.5693 599.143 68.193C599.559 68.8167 599.767 69.6548 599.767 70.7073V76.5352H596.999V70.7073C596.999 70.0836 596.823 69.6353 596.473 69.3624C596.122 69.0896 595.706 68.9531 595.225 68.9531C594.822 68.9531 594.471 69.0766 594.173 69.3235C593.887 69.5573 593.698 69.9277 593.607 70.4344V70.7073V76.5352H590.82V70.7073C590.82 70.0836 590.645 69.6353 590.294 69.3624C589.943 69.0896 589.527 68.9531 589.046 68.9531C588.644 68.9531 588.293 69.0766 587.994 69.3235C587.695 69.5703 587.507 69.9667 587.429 70.5124V76.5352H584.641V66.7896H587.429V67.4133C588.143 66.8156 588.917 66.5167 589.748 66.5167C590.32 66.5167 590.898 66.6402 591.483 66.8871C592.081 67.134 592.568 67.5433 592.945 68.115C593.283 67.6602 593.711 67.2834 594.231 66.9845C594.751 66.6727 595.31 66.5167 595.907 66.5167ZM606.201 66.5362C607.15 66.5362 607.995 66.7636 608.735 67.2184C609.489 67.6732 610.074 68.2904 610.489 69.0701C610.905 69.8497 611.113 70.7138 611.113 71.6624C611.113 72.0262 611.087 72.3576 611.035 72.6564H603.823C604.07 73.2542 604.402 73.7025 604.817 74.0013C605.233 74.2872 605.773 74.4301 606.435 74.4301C606.838 74.4301 607.228 74.3457 607.605 74.1767C607.995 74.0078 608.3 73.7804 608.521 73.4945L610.626 74.742C610.171 75.4047 609.58 75.9114 608.852 76.2623C608.137 76.6131 607.312 76.7885 606.377 76.7885C605.324 76.7885 604.395 76.5676 603.59 76.1258C602.784 75.6711 602.16 75.0538 601.718 74.2742C601.277 73.4945 601.056 72.6239 601.056 71.6624C601.056 70.7008 601.27 69.8302 601.699 69.0506C602.141 68.2709 602.751 67.6602 603.531 67.2184C604.311 66.7636 605.201 66.5362 606.201 66.5362ZM608.501 70.4929C608.41 69.9991 608.15 69.6158 607.722 69.3429C607.306 69.0701 606.793 68.9336 606.182 68.9336C605.545 68.9336 604.993 69.0896 604.525 69.4014C604.057 69.7003 603.81 70.0641 603.784 70.4929H608.501ZM618.685 66.5947L618.49 69.226C618.399 69.187 618.25 69.1675 618.042 69.1675C617.249 69.1675 616.599 69.3949 616.093 69.8497C615.599 70.2915 615.352 70.8762 615.352 71.6039V76.5352H612.565V66.7896H615.352V68.3684C615.586 67.8616 615.963 67.4393 616.482 67.1015C617.002 66.7636 617.632 66.5947 618.373 66.5947H618.685ZM628.627 74.625C628.146 75.3007 627.535 75.84 626.795 76.2428C626.067 76.6326 625.281 76.8275 624.436 76.8275C623.501 76.8275 622.636 76.6001 621.844 76.1453C621.064 75.6775 620.44 75.0473 619.973 74.2547C619.518 73.4621 619.291 72.6045 619.291 71.6819C619.291 70.7463 619.518 69.8887 619.973 69.1091C620.44 68.3164 621.064 67.6927 621.844 67.2379C622.636 66.7701 623.501 66.5362 624.436 66.5362C625.281 66.5362 626.067 66.7311 626.795 67.121C627.522 67.5108 628.126 68.037 628.607 68.6997L626.307 70.22C625.762 69.6093 625.138 69.304 624.436 69.304C623.786 69.304 623.228 69.5379 622.76 70.0056C622.292 70.4734 622.058 71.0322 622.058 71.6819C622.058 72.3316 622.292 72.8903 622.76 73.3581C623.228 73.8129 623.786 74.0403 624.436 74.0403C625.138 74.0403 625.762 73.7349 626.307 73.1242L628.627 74.625ZM634.41 66.5362C635.359 66.5362 636.203 66.7636 636.944 67.2184C637.698 67.6732 638.282 68.2904 638.698 69.0701C639.114 69.8497 639.322 70.7138 639.322 71.6624C639.322 72.0262 639.296 72.3576 639.244 72.6564H632.032C632.279 73.2542 632.61 73.7025 633.026 74.0013C633.442 74.2872 633.981 74.4301 634.644 74.4301C635.047 74.4301 635.437 74.3457 635.814 74.1767C636.203 74.0078 636.509 73.7804 636.73 73.4945L638.835 74.742C638.38 75.4047 637.789 75.9114 637.061 76.2623C636.346 76.6131 635.521 76.7885 634.586 76.7885C633.533 76.7885 632.604 76.5676 631.798 76.1258C630.993 75.6711 630.369 75.0538 629.927 74.2742C629.485 73.4945 629.265 72.6239 629.265 71.6624C629.265 70.7008 629.479 69.8302 629.908 69.0506C630.35 68.2709 630.96 67.6602 631.74 67.2184C632.52 66.7636 633.41 66.5362 634.41 66.5362ZM636.71 70.4929C636.619 69.9991 636.359 69.6158 635.93 69.3429C635.515 69.0701 635.001 68.9336 634.391 68.9336C633.754 68.9336 633.202 69.0896 632.734 69.4014C632.266 69.7003 632.019 70.0641 631.993 70.4929H636.71ZM649.201 70.9802V73.7479H654.737V76.5352H646.278V62.8914H654.62V65.6591H649.201V68.193H654.152V70.9802H649.201ZM662.517 66.7896H665.908L662.4 71.6819L665.908 76.5352L662.497 76.5546L660.704 74.0598L658.911 76.5546L655.5 76.5352L659.008 71.6819L655.5 66.7896H658.891L660.704 69.304L662.517 66.7896ZM671.051 66.5362C672 66.5362 672.844 66.7636 673.585 67.2184C674.339 67.6732 674.923 68.2904 675.339 69.0701C675.755 69.8497 675.963 70.7138 675.963 71.6624C675.963 72.0262 675.937 72.3576 675.885 72.6564H668.673C668.92 73.2542 669.251 73.7025 669.667 74.0013C670.083 74.2872 670.622 74.4301 671.285 74.4301C671.688 74.4301 672.078 74.3457 672.454 74.1767C672.844 74.0078 673.15 73.7804 673.371 73.4945L675.476 74.742C675.021 75.4047 674.43 75.9114 673.702 76.2623C672.987 76.6131 672.162 76.7885 671.227 76.7885C670.174 76.7885 669.245 76.5676 668.439 76.1258C667.634 75.6711 667.01 75.0538 666.568 74.2742C666.126 73.4945 665.905 72.6239 665.905 71.6624C665.905 70.7008 666.12 69.8302 666.549 69.0506C666.99 68.2709 667.601 67.6602 668.381 67.2184C669.16 66.7636 670.051 66.5362 671.051 66.5362ZM673.351 70.4929C673.26 69.9991 673 69.6158 672.571 69.3429C672.156 69.0701 671.642 68.9336 671.032 68.9336C670.395 68.9336 669.843 69.0896 669.375 69.4014C668.907 69.7003 668.66 70.0641 668.634 70.4929H673.351ZM686.224 74.625C685.744 75.3007 685.133 75.84 684.392 76.2428C683.665 76.6326 682.878 76.8275 682.034 76.8275C681.098 76.8275 680.234 76.6001 679.442 76.1453C678.662 75.6775 678.038 75.0473 677.57 74.2547C677.116 73.4621 676.888 72.6045 676.888 71.6819C676.888 70.7463 677.116 69.8887 677.57 69.1091C678.038 68.3164 678.662 67.6927 679.442 67.2379C680.234 66.7701 681.098 66.5362 682.034 66.5362C682.878 66.5362 683.665 66.7311 684.392 67.121C685.12 67.5108 685.724 68.037 686.205 68.6997L683.905 70.22C683.359 69.6093 682.736 69.304 682.034 69.304C681.384 69.304 680.825 69.5379 680.358 70.0056C679.89 70.4734 679.656 71.0322 679.656 71.6819C679.656 72.3316 679.89 72.8903 680.358 73.3581C680.825 73.8129 681.384 74.0403 682.034 74.0403C682.736 74.0403 683.359 73.7349 683.905 73.1242L686.224 74.625ZM693.409 66.7896H696.196V76.5352H693.409V75.8725C692.668 76.4962 691.882 76.808 691.051 76.808C690.479 76.808 689.901 76.6846 689.316 76.4377C688.731 76.1908 688.231 75.7555 687.815 75.1318C687.399 74.5081 687.191 73.67 687.191 72.6174V66.7896H689.978V72.6174C689.978 73.2282 690.154 73.6765 690.505 73.9623C690.856 74.2352 691.271 74.3716 691.752 74.3716C692.22 74.3716 692.61 74.2027 692.922 73.8649C693.247 73.527 693.409 72.9878 693.409 72.2471V66.7896ZM701.749 73.0657C701.749 73.4296 701.847 73.683 702.041 73.8259C702.249 73.9688 702.561 74.0403 702.977 74.0403C703.237 74.0403 703.523 74.0208 703.835 73.9818V76.5352C703.185 76.6001 702.646 76.6326 702.217 76.6326C701.125 76.6326 700.307 76.3922 699.761 75.9114C699.228 75.4177 698.962 74.5276 698.962 73.2412V69.265H697.286V66.7896H698.962V64.5286L701.749 63.5931V66.7896H703.796V69.265H701.749V73.0657ZM707.237 65.4642C706.717 65.4642 706.308 65.3278 706.009 65.0549C705.723 64.769 705.58 64.3857 705.58 63.9049C705.58 63.4112 705.723 63.0213 706.009 62.7355C706.308 62.4496 706.717 62.3067 707.237 62.3067C707.744 62.3067 708.147 62.4496 708.445 62.7355C708.744 63.0213 708.894 63.4112 708.894 63.9049C708.894 64.3857 708.744 64.769 708.445 65.0549C708.147 65.3278 707.744 65.4642 707.237 65.4642ZM705.834 76.5352V66.7896H708.621V76.5352H705.834ZM715.047 73.0852L717.327 66.7896H720.271L716.723 76.5352H713.351L709.804 66.7896H712.747L715.047 73.0852ZM725.565 66.5362C726.514 66.5362 727.358 66.7636 728.099 67.2184C728.853 67.6732 729.437 68.2904 729.853 69.0701C730.269 69.8497 730.477 70.7138 730.477 71.6624C730.477 72.0262 730.451 72.3576 730.399 72.6564H723.187C723.434 73.2542 723.766 73.7025 724.181 74.0013C724.597 74.2872 725.136 74.4301 725.799 74.4301C726.202 74.4301 726.592 74.3457 726.969 74.1767C727.358 74.0078 727.664 73.7804 727.885 73.4945L729.99 74.742C729.535 75.4047 728.944 75.9114 728.216 76.2623C727.501 76.6131 726.676 76.7885 725.741 76.7885C724.688 76.7885 723.759 76.5676 722.953 76.1258C722.148 75.6711 721.524 75.0538 721.082 74.2742C720.64 73.4945 720.42 72.6239 720.42 71.6624C720.42 70.7008 720.634 69.8302 721.063 69.0506C721.505 68.2709 722.115 67.6602 722.895 67.2184C723.675 66.7636 724.565 66.5362 725.565 66.5362ZM727.865 70.4929C727.774 69.9991 727.514 69.6158 727.086 69.3429C726.67 69.0701 726.156 68.9336 725.546 68.9336C724.909 68.9336 724.357 69.0896 723.889 69.4014C723.421 69.7003 723.174 70.0641 723.148 70.4929H727.865Z" fill="#AAAAAA"/>
</svg>
