<svg width="796" height="57" viewBox="0 0 796 57" fill="none" xmlns="http://www.w3.org/2000/svg">
<path d="M15.0704 7.74207H15.7205L16.8434 7.91936L17.6117 8.21486L18.2027 8.56946L18.7937 9.10135L19.3255 9.69235L19.6801 10.2833L19.9756 11.1698L20.1529 12.2336V12.9428L19.9756 14.243L19.6801 15.1295L19.3255 15.7205L18.971 16.1342L18.38 16.4888L17.9663 16.607H17.4935L16.7843 16.3706L16.2524 16.016L15.9569 15.6614L15.8387 15.3659L15.8978 14.834L16.2524 14.3021L16.6661 13.8884L16.9025 13.2974V12.2336L16.7252 11.7608L16.3115 11.288L15.8387 11.0516L15.6614 10.9925H15.0113L14.4203 11.2289L13.8293 11.7608L13.4747 12.2336L13.2383 12.8246L13.1201 13.4747V14.7749L13.2974 15.6023L13.8293 16.7252L14.243 17.3162L14.6567 17.789L15.425 18.3209L16.1342 18.6164L16.9616 18.7937H18.5573L19.4437 18.5573L20.1529 18.2027L20.803 17.6708L21.3349 16.9025L21.8077 15.8387L22.1032 14.6567L22.2214 13.5338H41.3105L41.4287 13.652L41.5469 14.7158L41.8424 15.8978L42.2561 16.8434L42.6698 17.4344L42.9653 17.789L43.6745 18.3209L44.3837 18.6164L45.0929 18.7937L46.0385 18.8528L47.0432 18.7346L47.8706 18.4982L48.6389 18.0845L49.3481 17.4344L49.88 16.607L50.2937 15.7205L50.471 15.1295L50.5301 14.7158V13.5929L50.3528 12.7064L49.9982 11.9972L49.5254 11.4653L48.9344 11.1107L48.5207 10.9925H47.9297L47.2205 11.3471L46.8659 11.8199L46.6886 12.2927L46.6295 12.5291V13.061L46.8068 13.652L47.0432 14.0066L47.516 14.4794L47.7524 14.9522V15.4841L47.4569 15.9569L46.925 16.3115L46.3931 16.5479L46.1567 16.607H45.6839L45.0338 16.3706L44.561 16.016L44.0882 15.4841L43.7927 14.834L43.5563 13.8884L43.4972 13.4747V11.9381L43.6745 11.0516L43.97 10.2242L44.3837 9.57415L44.9156 8.98315L45.4475 8.51036L46.0385 8.15576L46.925 7.86026L47.7524 7.74207H48.4616L49.5845 7.91936L50.4119 8.21486L51.0619 8.56946L51.6529 9.04225L52.2439 9.63325L52.8349 10.5197L53.3077 11.7017L53.5441 12.6473L53.6032 13.061V14.5385L53.4259 15.5432L53.1304 16.5479L52.6576 17.4935L52.2439 18.1436L51.5347 18.9119L50.9437 19.4438L50.1755 19.9165L49.1708 20.3893L47.9297 20.803L47.6342 21.0394L47.5751 24.2308V46.8068L21.2167 46.925L20.5666 47.1023L20.0347 47.3978L19.5028 47.8706L19.0892 48.698L18.971 49.3481V50.471L19.1482 51.653L19.4437 52.4803L19.9165 53.1304L20.3893 53.485L21.0985 53.7214L21.8668 53.7805L22.576 53.6623L23.2852 53.3077L23.758 52.7758L23.9944 52.2439L24.1126 51.7711V51.2393L23.9353 50.5301L23.758 50.0573L24.0535 49.7027L24.1717 49.6436L48.698 49.5845L49.289 49.7618L49.7618 50.1755L49.9391 50.6483V52.0075L49.7027 53.0713L49.4072 53.7805L49.0526 54.3715L48.5798 54.9034L47.8115 55.4944L46.8659 55.9672L45.8612 56.2627L44.4428 56.44H22.8715L21.6304 56.3809L20.4484 56.1445L19.4437 55.7899L18.7346 55.3762L18.1436 54.9034L17.5526 54.3124L16.9616 53.4259L16.5479 52.4803L16.2524 51.2984L16.0751 49.7027V21.2167L15.9569 20.8621L15.3659 20.6848L14.4794 20.3893L13.2383 19.7984L12.5291 19.2665L11.8199 18.6164L11.1698 17.789L10.697 16.9616L10.2833 15.8387L10.0469 14.5976V12.8837L10.2833 11.7017L10.5788 10.8152L11.0516 9.92874L11.7017 9.16045L12.2927 8.68766L13.1201 8.21486L13.9475 7.91936L15.0704 7.74207Z" fill="#FEFEFE"/>
<path d="M27.0085 36.8781H27.9541L28.5451 37.0554L29.1952 37.4099L29.727 37.9418L30.1998 38.7692L30.4953 39.8921L30.6726 41.606L30.7317 41.9015L31.2045 41.7833L31.9728 41.3696L32.9184 40.7786L34.2186 40.0694L35.1051 39.833L35.4597 39.7739H36.228L36.9372 39.9512L37.8828 40.424L39.0057 41.015L39.8331 41.1923L40.7195 41.1332L41.7242 40.8968L42.2561 40.9559L42.5516 41.1332L42.7289 41.4878V41.9015L42.4334 42.4334L42.1379 42.788L41.5469 43.2017L40.6013 43.6745L40.0694 43.7927H38.8875L38.1192 43.6154L36.7599 42.9653L35.9325 42.5516H35.2233L34.2777 43.0244L32.682 44.0882L31.6773 44.561L30.7908 44.7383L30.0225 44.6792L29.4315 44.4428L29.077 44.2064L28.7224 43.9109L28.3087 43.3199L28.0132 42.5516L27.5404 40.3649L27.4222 39.6557L27.1267 39.7148L26.6539 40.1285L26.0038 40.9559L25.1764 42.3743L24.7036 43.379L24.4081 44.0882L24.1717 44.3837L23.3443 44.7974H22.6351L22.1623 44.5019L21.9259 44.2064L21.8668 44.0291V43.6154L22.2214 42.3743L22.6942 41.1332L23.167 40.1876L23.758 39.3011L24.2899 38.651L25.1764 37.7645L25.7674 37.3508L26.5357 36.9963L27.0085 36.8781Z" fill="#010101"/>
<path d="M22.8124 26.0038H40.8377L41.4287 26.2993L41.8424 26.7721L42.0197 27.1858V27.8359L41.7242 28.4269L41.2514 28.8406L40.6604 29.0179H23.1079L22.3987 28.8406L21.9259 28.486L21.6304 28.0132L21.5713 27.7768V27.2449L21.7486 26.7721L22.1623 26.2993L22.576 26.0629L22.8124 26.0038Z" fill="#010101"/>
<path d="M22.8124 20.212H40.9559L41.4287 20.4484L41.8424 20.9212L42.0197 21.3349V22.1032L41.7833 22.576L41.3105 22.9897L40.7786 23.167H23.0488L22.4578 22.9897L21.985 22.6351L21.6895 22.1032L21.6304 21.5713L21.8077 21.0394L22.1623 20.5666L22.6351 20.2711L22.8124 20.212Z" fill="#010101"/>
<path d="M23.0488 31.7365H32.9184L33.3912 31.8546L33.864 32.1501L34.1595 32.5047L34.3368 32.9184V33.5685L34.1595 34.0413L33.9231 34.3368L33.4503 34.6323L33.0366 34.7505H22.9306L22.3396 34.5732L21.9259 34.2777L21.6304 33.8049L21.5713 33.6276V32.9184L21.8668 32.3274L22.2805 31.9728L22.6942 31.7955L23.0488 31.7365Z" fill="#010101"/>
<path d="M0 0H63V0.118199L0.118199 0.177298L0 0.236398V0Z" fill="#212121"/>
<path d="M76.992 31C77.6747 31.64 78.208 32.3973 78.592 33.272C78.976 34.1467 79.168 35.0747 79.168 36.056C79.168 37.2933 78.8693 38.4453 78.272 39.512C77.6747 40.5787 76.864 41.4213 75.84 42.04C74.8373 42.6587 73.7387 42.968 72.544 42.968H66.976V43H62.176V20.6H72.032C73.1627 20.6 74.208 20.8987 75.168 21.496C76.128 22.072 76.8853 22.8613 77.44 23.864C78.016 24.8453 78.304 25.9013 78.304 27.032C78.304 27.736 78.1867 28.44 77.952 29.144C77.7387 29.8267 77.4187 30.4453 76.992 31ZM66.976 25.176V29.304L72.032 29.272C72.5013 29.272 72.928 29.08 73.312 28.696C73.696 28.2907 73.888 27.8 73.888 27.224C73.888 26.6267 73.696 26.136 73.312 25.752C72.928 25.368 72.5013 25.176 72.032 25.176H66.976ZM72.544 38.392C73.0987 38.392 73.5787 38.1573 73.984 37.688C74.3893 37.2187 74.592 36.664 74.592 36.024C74.592 35.384 74.3893 34.8293 73.984 34.36C73.5787 33.8907 73.0987 33.656 72.544 33.656H66.976V38.392H72.544ZM94.2073 27H98.7513V43H94.2073V41.784C93.5033 42.3173 92.7246 42.7227 91.8713 43C91.0393 43.2987 90.1966 43.448 89.3433 43.448C87.6793 43.448 86.2393 43.0853 85.0233 42.36C83.8286 41.6347 82.9113 40.6427 82.2713 39.384C81.6313 38.104 81.3113 36.6533 81.3113 35.032C81.3113 33.4107 81.6313 31.96 82.2713 30.68C82.9113 29.3787 83.8286 28.3653 85.0233 27.64C86.2393 26.9147 87.6793 26.552 89.3433 26.552C90.2179 26.552 91.0713 26.7013 91.9033 27C92.7353 27.2987 93.5033 27.7147 94.2073 28.248V27ZM89.9513 39.096C91.1459 39.096 92.1486 38.712 92.9593 37.944C93.7699 37.176 94.1753 36.184 94.1753 34.968C94.1753 33.7947 93.7699 32.8347 92.9593 32.088C92.1486 31.3413 91.1459 30.968 89.9513 30.968C88.7566 30.968 87.7753 31.3413 87.0073 32.088C86.2393 32.8347 85.8553 33.816 85.8553 35.032C85.8553 36.248 86.2393 37.2293 87.0073 37.976C87.7753 38.7227 88.7566 39.096 89.9513 39.096ZM116.385 39.864C115.595 40.9733 114.593 41.8587 113.377 42.52C112.182 43.16 110.891 43.48 109.505 43.48C107.969 43.48 106.55 43.1067 105.249 42.36C103.969 41.592 102.945 40.5573 102.177 39.256C101.43 37.9547 101.057 36.5467 101.057 35.032C101.057 33.496 101.43 32.088 102.177 30.808C102.945 29.5067 103.969 28.4827 105.249 27.736C106.55 26.968 107.969 26.584 109.505 26.584C110.891 26.584 112.182 26.904 113.377 27.544C114.571 28.184 115.563 29.048 116.353 30.136L112.577 32.632C111.681 31.6293 110.657 31.128 109.505 31.128C108.438 31.128 107.521 31.512 106.753 32.28C105.985 33.048 105.601 33.9653 105.601 35.032C105.601 36.0987 105.985 37.016 106.753 37.784C107.521 38.5307 108.438 38.904 109.505 38.904C110.657 38.904 111.681 38.4027 112.577 37.4L116.385 39.864ZM135.026 43H129.33L125.234 37.464L123.122 39.768V43H118.546V20.6H123.122V33.048L128.434 27H134.802L128.338 34.04L135.026 43ZM149.395 27H153.971V42.2C153.971 43.6933 153.576 45.016 152.787 46.168C152.019 47.32 150.952 48.216 149.587 48.856C148.221 49.496 146.685 49.816 144.979 49.816C143.123 49.816 141.416 49.4533 139.859 48.728C138.323 48.024 137.245 47.1067 136.627 45.976L140.531 43.704C140.808 44.2587 141.363 44.7173 142.195 45.08C143.027 45.4427 143.997 45.624 145.107 45.624C146.344 45.624 147.368 45.304 148.179 44.664C148.989 44.024 149.395 43.2027 149.395 42.2V41.784C148.691 42.3173 147.923 42.7227 147.091 43C146.28 43.2987 145.437 43.448 144.563 43.448C142.899 43.448 141.459 43.0853 140.243 42.36C139.048 41.6347 138.131 40.6427 137.491 39.384C136.851 38.104 136.531 36.6533 136.531 35.032C136.531 33.4107 136.851 31.96 137.491 30.68C138.131 29.3787 139.048 28.3653 140.243 27.64C141.459 26.9147 142.899 26.552 144.563 26.552C145.416 26.552 146.259 26.7013 147.091 27C147.923 27.2773 148.691 27.6827 149.395 28.216V27ZM145.171 39.096C146.365 39.096 147.368 38.712 148.179 37.944C148.989 37.176 149.395 36.184 149.395 34.968C149.395 33.7947 148.989 32.8347 148.179 32.088C147.368 31.3413 146.365 30.968 145.171 30.968C143.976 30.968 142.995 31.3413 142.227 32.088C141.48 32.8347 141.107 33.816 141.107 35.032C141.107 36.248 141.48 37.2293 142.227 37.976C142.995 38.7227 143.976 39.096 145.171 39.096ZM167.938 26.68L167.618 31C167.468 30.936 167.223 30.904 166.882 30.904C165.58 30.904 164.514 31.2773 163.682 32.024C162.871 32.7493 162.466 33.7093 162.466 34.904V43H157.89V27H162.466V29.592C162.85 28.76 163.468 28.0667 164.322 27.512C165.175 26.9573 166.21 26.68 167.426 26.68H167.938ZM177.099 43.48C175.563 43.48 174.144 43.1067 172.843 42.36C171.563 41.592 170.539 40.5573 169.771 39.256C169.024 37.9547 168.651 36.5467 168.651 35.032C168.651 33.496 169.024 32.088 169.771 30.808C170.539 29.5067 171.563 28.4827 172.843 27.736C174.144 26.968 175.563 26.584 177.099 26.584C178.613 26.584 180.011 26.968 181.291 27.736C182.592 28.4827 183.616 29.5067 184.363 30.808C185.131 32.088 185.515 33.496 185.515 35.032C185.515 36.5467 185.131 37.9547 184.363 39.256C183.616 40.5573 182.592 41.592 181.291 42.36C180.011 43.1067 178.613 43.48 177.099 43.48ZM177.067 38.904C178.133 38.904 179.051 38.5307 179.819 37.784C180.587 37.016 180.971 36.0987 180.971 35.032C180.971 33.9653 180.587 33.048 179.819 32.28C179.051 31.512 178.133 31.128 177.067 31.128C176 31.128 175.083 31.512 174.315 32.28C173.568 33.048 173.195 33.9653 173.195 35.032C173.195 36.0987 173.568 37.016 174.315 37.784C175.083 38.5307 176 38.904 177.067 38.904ZM197.649 27H202.225V43H197.649V41.912C196.433 42.936 195.142 43.448 193.777 43.448C192.838 43.448 191.889 43.2453 190.929 42.84C189.969 42.4347 189.147 41.72 188.465 40.696C187.782 39.672 187.441 38.296 187.441 36.568V27H192.017V36.568C192.017 37.5707 192.305 38.3067 192.881 38.776C193.457 39.224 194.139 39.448 194.929 39.448C195.697 39.448 196.337 39.1707 196.849 38.616C197.382 38.0613 197.649 37.176 197.649 35.96V27ZM214.588 26.552C215.526 26.552 216.476 26.7547 217.436 27.16C218.396 27.5653 219.217 28.28 219.9 29.304C220.582 30.328 220.924 31.704 220.924 33.432V43H216.348V33.432C216.348 32.408 216.06 31.672 215.484 31.224C214.929 30.776 214.257 30.552 213.468 30.552C212.678 30.552 212.017 30.8293 211.484 31.384C210.972 31.9387 210.716 32.824 210.716 34.04V43H206.14V27H210.716V28.088C211.932 27.064 213.222 26.552 214.588 26.552ZM236.113 20.6H240.657V43H236.113V41.784C235.409 42.3173 234.641 42.7227 233.809 43C232.998 43.2987 232.155 43.448 231.281 43.448C229.617 43.448 228.177 43.0853 226.961 42.36C225.766 41.6347 224.849 40.6427 224.209 39.384C223.569 38.104 223.249 36.6533 223.249 35.032C223.249 33.4107 223.569 31.96 224.209 30.68C224.849 29.3787 225.766 28.3653 226.961 27.64C228.177 26.9147 229.617 26.552 231.281 26.552C232.134 26.552 232.977 26.7013 233.809 27C234.641 27.2773 235.409 27.6827 236.113 28.216V20.6ZM231.889 39.096C233.083 39.096 234.086 38.712 234.897 37.944C235.707 37.176 236.113 36.184 236.113 34.968C236.113 33.7947 235.707 32.8347 234.897 32.088C234.086 31.3413 233.083 30.968 231.889 30.968C230.694 30.968 229.713 31.3413 228.945 32.088C228.177 32.8347 227.793 33.816 227.793 35.032C227.793 36.248 228.177 37.2293 228.945 37.976C229.713 38.7227 230.694 39.096 231.889 39.096Z" fill="white"/>
</svg>
