<svg width="305" height="73" viewBox="0 0 305 73" fill="none" xmlns="http://www.w3.org/2000/svg">
<path d="M3.06055 36.7529C3.06055 18.8037 17.6113 4.25293 35.5605 4.25293H269.561C287.51 4.25293 302.061 18.8037 302.061 36.7529V36.7529C302.061 54.7022 287.51 69.2529 269.561 69.2529H35.5605C17.6113 69.2529 3.06055 54.7022 3.06055 36.7529V36.7529Z" fill="black"/>
<path d="M35.5937 0.526048C40.0467 0.073266 44.4937 -0.12024 49.0742 0.0769711C50.1179 0.121567 50.0196 0.471522 50.4486 0.528125C51.2373 0.632663 52.5607 0.255044 52.7462 0.255044C53.8977 0.250233 53.4477 0.862757 53.6027 0.886348C55.3304 1.13503 54.8331 0.437341 56.485 0.370299C58.6361 0.282827 61.3963 0.407629 63.9881 0.441944C64.8983 0.455663 64.493 0.921972 66.4575 0.882714C67.8491 0.85527 72.118 0.323794 74.0836 0.89154C74.0952 1.10592 73.847 1.34262 73.7426 1.56386C76.5603 0.670342 77.5688 0.709543 81.5637 0.927362C82.1957 0.961667 82.7941 0.594576 83.9074 0.73008C85.0202 0.865697 85.0673 1.43158 87.3051 1.42472C88.0988 1.42093 88.5805 1.02186 89.7976 1.00472C93.2593 0.954996 99.8522 1.45066 102.693 1.46781C108.289 1.5021 111.333 0.821012 116.302 1.05767C116.685 1.07482 115.844 1.51217 116.546 1.52077C117.253 1.52934 117.99 0.94991 118.164 0.936188C120.042 0.787045 124.012 1.56329 125.056 1.46937C127.596 1.23953 125.094 0.984183 128.613 0.874408C131.965 0.769946 136.592 1.52435 139.914 1.67184C143.764 1.84325 145.005 0.747433 147.904 1.89145C158.086 1.82456 168.308 1.78363 178.501 1.72532C178.472 1.95338 178.439 2.18152 178.404 2.40958C179.21 2.25178 180.016 2.09374 180.822 1.93766C180.7 2.10742 180.585 2.27735 180.463 2.4454C184.249 1.79035 187.623 1.45242 192.046 1.63239C192.132 1.6358 191.905 2.09051 191.977 2.10223C192.974 2.18799 194.088 1.83819 194.964 1.92052C197.08 2.11778 200.675 3.10929 199.093 1.89664C204.027 2.14702 209.825 1.73703 214.527 1.97192C216.562 2.0731 217.171 2.79176 218.145 2.83321C219.118 2.87433 218.623 2.2568 218.968 2.23306C221.044 2.09585 224.46 2.12133 224.82 2.81245C225.237 2.53639 225.679 2.25697 226.102 1.97919C225.854 2.74548 232.268 2.42875 233.951 2.44748C234.259 2.45091 234.302 2.78681 234.534 2.78338C237.118 2.74035 237.75 2.21386 239.965 2.03889C240.742 1.97714 239.537 2.5691 241.531 2.31353C241.705 2.29109 241.613 1.75927 243.996 1.7627C247.799 1.76783 255.076 1.5569 259.605 1.81929C259.976 1.83986 258.846 2.41959 260.543 2.28446C261.158 2.23643 260.863 1.82479 262.353 1.82136C264.707 1.81438 267.124 1.88883 269.561 1.95293C273.361 2.04373 277.133 2.73679 280.753 3.72058C280.376 4.0886 278.138 3.87959 281.364 4.67294C281.879 4.81332 281.652 4.28586 281.883 4.35627C283.757 4.94876 285.166 5.9391 287.064 6.86021C287.624 7.13653 287.929 6.93804 288.635 7.3C289.674 7.84684 289.827 8.51712 291.01 9.1776C292.831 10.2459 293.444 10.1639 294.668 12.6269C300.885 18.9936 304.558 27.8337 304.508 36.7529C304.508 36.7529 304.508 36.7529 304.508 36.7529C304.514 42.5953 302.964 48.4461 300.022 53.4641C298.185 57.2852 295.879 60.6181 292.533 63.6281C291.53 64.4998 290.99 64.2139 289.402 65.5747C289.082 65.9 286.486 68.2044 285.487 67.3331C284.72 67.8466 284.195 68.098 283.498 68.4765C284.118 68.3951 284.756 68.2894 285.358 68.1839C282.249 69.5195 279.763 70.7819 276.819 71.6109C274.651 72.1724 276.12 71.3829 274.785 71.6536C273.453 71.8906 272.82 72.082 271.107 71.5568C270.578 71.8717 270.102 71.9687 269.561 71.969C268.853 71.9689 268.022 71.7937 266.691 71.7826C266.448 71.7809 265.04 72.0548 263.863 72.0001C263.016 71.9607 262.766 71.5202 261.422 71.5884C261.201 71.5987 258.359 72.1446 257.455 72.1943C256.046 72.2732 253.806 71.7085 253.534 71.7016C249.574 71.6022 248.048 72.1598 245.236 71.2422C244.668 71.7875 242.321 72.1067 240.425 72.0536C238.031 71.9867 233.229 70.8717 232.573 72.05C229.802 71.5252 230.103 71.8491 226.817 71.8595C223.825 71.8697 215.904 71.419 213.48 71.4841C211.056 71.5476 212.237 72.2029 211.274 72.2904C209.699 72.4358 210.55 71.9523 209.472 71.9591C206.422 71.9797 203.772 72.0721 200.861 72.2831C200.704 71.9436 200.536 71.6024 200.374 71.2629C200.223 71.3761 200.073 71.4893 199.922 71.6025C199.296 71.599 198.594 71.606 198.015 71.5957C202.907 73.086 193.289 71.4855 190.401 71.4478C187.966 71.4169 183.912 72.1237 181.239 72.2763C180.59 72.3139 181.036 71.9471 180.903 71.9555C179.337 72.0601 179.1 72.3106 176.995 72.2763C175.882 72.2575 174.746 71.7981 173.662 71.7894C165.701 71.7276 158.017 72.1892 150.109 72.239C148.763 72.2475 147.603 71.6867 146.472 71.6746C144.855 71.6575 143.834 72.1166 142.316 72.1237C140.802 72.1306 138.621 71.5818 137.595 71.6658C136.569 71.7481 138.325 72.2799 136.446 72.1341C135.583 72.0671 137.107 71.6711 136.041 71.6591C132.713 71.6213 128.016 72.1117 124.473 71.6367C124.63 71.7551 124.844 71.8615 125.035 71.9747C121.26 71.9284 117.926 71.6436 114.029 71.6025C112.666 71.5872 110.209 71.9348 108.87 71.9332C107.531 71.9315 106.921 71.5543 105.849 71.5438C105.408 71.5387 105.581 71.8767 105.285 71.8698C101.586 71.7806 99.5568 71.1788 95.6842 71.2474C81.4954 71.4978 66.8646 71.714 52.4555 71.9404C51.8761 71.9494 51.4861 72.3898 50.64 72.4549C49.3366 72.5558 49.2727 72.1665 49.0988 72.1528C47.9627 72.0671 48.4261 72.4274 46.9012 72.4274C43.7933 72.4274 38.9213 72.1539 35.5605 72.135C35.2658 72.1335 34.9824 72.13 34.7122 72.1257C26.3564 71.917 19.1681 69.561 12.5756 64.4127C12.1064 64.0343 12.7476 63.9046 11.9789 63.2198C6.92124 58.1222 5.18844 57.1618 1.84197 48.6645C0.798273 45.5976 -0.0831547 41.3617 0.00630832 36.7529C0.00630832 36.7529 0.00630832 36.7529 0.00630832 36.7529C-0.0443563 28.3304 4.00775 19.2202 8.52392 14.1751C8.52485 14.1758 8.52578 14.1766 8.52671 14.1774C9.88582 10.9856 13.4831 8.11145 16.8972 6.88517C7.52905 14.3993 1.95197 25.2335 1.90945 36.7529C1.90945 36.7529 1.90945 36.7529 1.90945 36.7529C1.84454 44.9025 4.78639 53.3786 10.8064 59.7697C16.9861 66.4396 26.3576 70.2718 35.5605 69.8581C48.5098 69.3687 61.5868 68.8256 74.275 68.9641C76.2986 68.9864 77.1116 69.5353 78.8163 69.4204C79.1045 69.401 78.3584 68.9779 79.2446 68.935C91.421 68.3587 104.404 69.323 116.36 69.0555C119.584 68.9834 120.089 68.5117 122.925 68.3899C122.426 68.6128 122.1 68.8459 121.666 69.0705C134.608 69.7669 147.568 69.4564 160.679 69.5559C161.27 69.5612 161.345 70.0226 161.966 70.0398C163.206 70.0757 164.395 69.568 165.479 69.5507C166.894 69.5284 167.139 69.8956 168.443 69.8716C169.08 69.8593 168.89 69.5064 170.274 69.5663C170.39 69.5714 170.466 69.9416 171.387 69.8939C173.909 69.7618 179.064 69.4513 181.152 69.3586C183.818 69.2403 185.958 69.798 186.968 69.8342C189.692 69.9319 189.636 69.3609 191.942 69.3607C208.363 69.3573 224.062 70.007 240.871 70.0019C241.927 70.0016 245.833 69.3659 247.787 69.3913C248.442 69.4016 251.867 69.5696 252.38 69.5834C254.462 69.6366 256.26 70.021 257.408 70.1016C259.635 70.2592 262.123 69.659 263.335 69.599C265.146 69.5085 268.155 69.5523 269.561 69.5768C269.81 69.5811 270.009 69.582 270.143 69.582C272.312 69.546 271.656 70.3128 273.224 69.9955C273.684 69.8856 273.142 69.4023 274.748 69.1654C276.091 68.9464 276.72 69.2382 277.659 69.0899C278.61 68.944 280.058 67.7921 280.595 67.6064C283.449 66.6284 284.889 66.4334 287.743 64.6642C288.924 63.9362 292.073 61.5482 294.414 58.6921C296.811 55.8807 298.368 52.7664 298.54 52.2678C300.054 47.7771 296.78 54.8506 296.337 55.1006C294.844 56.9514 294.867 56.4905 293.7 58.6102C291.38 59.1886 287.011 65.5997 284.275 64.6947C283.152 66.6881 281.31 66.7941 279.331 67.1711C276.559 67.6294 278.805 67.7533 276.809 68.262C276.005 68.468 273.613 68.3039 272.428 68.465C271.357 68.6248 270.856 69.0135 269.561 69.1103C269.416 69.1202 269.262 69.1268 269.096 69.1292C266.157 69.1737 263.791 68.9713 261.322 68.4517C260.869 68.6814 260.447 68.9113 260.001 69.1411C258.296 68.8941 256.585 68.6487 254.88 68.4034C255.153 68.6041 255.426 68.8065 255.698 69.0072C255.199 69.0363 254.699 69.0638 254.201 69.0913C252.542 68.7894 250.959 68.5099 249.254 68.1978C244.622 69.3586 245.966 68.3539 243.392 68.203C240.818 68.0522 239.329 68.7242 237.34 68.7279C234.662 68.733 233.431 68.8169 230.73 68.7689C229.164 68.7414 226.508 68.093 228.688 69.1203C223.8 69.2027 217.108 69.4894 212.736 69.0726C211.445 68.951 213.166 68.6274 212.946 68.5872C211.851 68.3968 210.928 68.9214 209.797 68.8462C207.919 68.721 204.261 68.3126 202.782 68.2165C200.653 68.0775 197.308 68.757 196.966 68.8068C195.053 69.0828 194.541 68.5186 193.927 68.5576C190.431 68.784 189.659 69.0209 188.557 67.8307C187.652 68.3453 183.86 69.2112 182.944 68.3452C182.921 69.1273 179.773 68.9954 177.836 69.1909C177.477 68.9645 177.111 68.7395 176.751 68.5114C172.71 69.9109 164.662 68.8943 159.345 68.7279C159.212 68.7244 158.973 69.3106 158.173 69.1785C158.123 69.1677 158.205 68.9043 157.668 68.8701C155.899 68.7603 149.152 68.1023 148.375 68.0965C145.517 68.0743 145.017 68.5117 143.277 68.5529C140.987 68.6078 140.656 68.213 138.477 68.2694C137.457 68.2952 136.528 68.8148 134.923 68.7414C133.972 68.6985 133.878 68.2904 133.125 68.2575C130.446 68.1391 128.479 68.3967 126.102 67.865C125.481 69.1631 124.345 68.2063 123.168 68.1085C118.39 67.7089 112.436 68.2574 108.336 68.1391C95.5454 67.7669 84.2033 66.9663 71.7081 66.7862C69.6786 66.757 69.1897 67.4088 67.0616 67.3676C66.1051 67.3486 65.1189 66.8766 63.5537 66.8698C62.2958 66.863 60.4934 67.1029 58.9226 67.1013C58.5051 67.1013 58.4679 66.6588 57.8533 66.6553C53.1918 66.6297 48.6397 66.9439 43.9318 67.16C42.1869 67.2404 41.1077 66.654 41.4034 67.6745C40.7366 67.4241 40.0884 67.206 39.4622 66.9591C38.1246 67.3175 36.9237 67.2681 35.5605 67.1825C34.539 67.1132 33.4437 66.9791 32.103 66.902C31.79 66.9038 29.3645 67.2592 28.2018 66.4213C28.0238 66.7518 28.1492 67.1006 28.0339 67.4113C26.6898 67.2421 24.8751 66.1895 24.0734 65.8106C23.2671 65.4449 22.5296 65.6234 22.279 65.5134C21.3376 65.0831 21.8352 64.6234 21.7683 64.5817C17.9025 61.8179 18.3098 62.2854 15.4148 61.2539C14.6136 61.0243 11.6213 57.0639 10.5071 56.6743C10.7139 56.4526 11.0923 56.5031 11.3634 56.3822C10.501 55.1982 9.72111 53.9485 9.03672 52.6598C8.94835 53.0727 8.90314 53.5453 8.81643 53.9454C7.39142 51.2578 5.74001 49.2135 4.95657 46.7804C4.53178 45.3919 5.21002 45.3896 4.85918 44.6169C4.79251 44.4645 4.44247 44.842 4.2911 44.3725C3.34193 41.2576 3.44169 39.404 3.56049 36.7529C3.56049 36.7529 3.56049 36.7529 3.56049 36.7529C3.59723 36.1051 3.64571 35.4202 3.71302 34.6411C3.88795 32.8018 3.31202 30.9952 4.49393 28.4747C4.59434 28.219 5.98368 25.9625 5.73636 24.0844C6.23117 23.723 6.57164 23.3765 6.97535 23.1436C7.18084 19.5585 7.95814 20.8832 10.7788 17.5681C12.1203 15.727 17.6811 10.4876 19.9267 9.3116C21.1687 8.50644 20.899 8.02275 21.1265 7.8757C22.5227 7.04918 22.7564 7.5666 24.0859 6.93575C25.414 6.31663 27.0542 5.15625 28.5904 4.88863C29.7636 4.69618 28.9752 5.54416 30.6355 5.01779C30.9838 4.91723 29.8716 4.46091 31.7309 4.45235C32.0379 4.42035 34.9805 4.87031 35.5605 5.04589C34.0251 5.34086 29.8117 6.31397 28.3293 6.91077C18.3401 9.86689 6.24525 21.5435 6.85133 36.7529C6.85133 36.7529 6.85133 36.7529 6.85133 36.7529C6.69149 52.2074 21.5132 65.6253 35.5605 65.003C44.5843 65.0161 52.8721 65.0715 59.7919 65.1446C62.6732 65.1738 64.5575 65.7845 66.436 65.8377C68.3147 65.8908 66.7262 65.3314 68.431 65.3777C70.1357 65.4257 71.3778 65.8205 72.9723 65.8548C83.722 66.0881 94.5529 66.335 105.216 66.443C107.982 66.4705 110.192 66.0157 112.708 66.0157C113.688 66.016 113.718 66.6023 114.414 66.5972C121.911 66.5508 128.846 65.9866 136.302 66.0552C139.398 66.0844 142.744 66.5784 145.811 66.6247C148.338 66.6642 150.959 66.3264 153.232 66.3195C154.466 66.3143 155.116 66.7609 155.563 66.796C157.117 66.9127 156.574 66.3672 157.368 66.3672C159.559 66.3691 160.649 67.0276 162.702 66.9762C163.507 66.9556 163.404 66.5359 164.574 66.4705C166.058 66.3882 165.509 66.7754 166.569 66.7893C166.632 66.791 166.425 66.4909 166.987 66.4788C170.605 66.3999 175.122 66.1634 178.613 66.1839C185.832 66.2251 192.958 66.8033 199.684 66.9165C201.383 66.9439 200.932 66.5527 201.471 66.5339C204.068 66.4448 204.996 66.9127 207.715 66.7446C208.168 66.7171 209.989 66.1755 211.728 66.3127C212.667 66.3866 213.734 66.7244 214.534 66.8033C215.334 66.8822 215.462 66.3847 216.424 66.3843C218.175 66.3826 217.665 66.7274 220.17 66.6657C221.179 66.6417 224.547 66.1704 227.145 66.2063C231.389 66.2646 236.649 66.6952 241.654 66.7021C243.37 66.7055 245.575 66.1943 248.236 66.1891C251.489 66.1823 257.483 66.2986 260.816 66.3054C262.521 66.3089 262.644 66.8444 262.847 66.8666C264.151 67.0156 263.624 66.4173 264.499 66.4409C265.699 66.4735 266.819 66.9148 267.909 66.944C268.605 66.9627 268.715 66.5217 268.866 66.5183C269.098 66.5122 269.33 66.5065 269.561 66.501C274.41 66.3516 278.732 65.3549 283.037 63.129C292.704 58.1652 299.046 47.5282 298.792 36.7529C298.792 36.7529 298.792 36.7529 298.792 36.7529C298.953 21.1425 284.914 7.4661 269.561 7.72527C268.673 7.71907 267.786 7.71217 266.9 7.70453C264.412 7.68395 264.319 7.12802 262.133 7.21548C259.947 7.30124 257.835 8.50191 256.038 7.17603C255.98 7.4436 255.985 7.63437 255.927 7.87794C251.411 7.50067 246.893 7.89117 242.475 7.9392C239.205 7.9752 236.305 7.93253 233.285 7.90337C230.607 7.87583 230.838 7.40963 228.52 8.01811C216.999 7.63733 205.354 7.73004 193.931 7.09711C191.252 8.09367 188.684 7.46579 184.979 7.31828C184.521 7.29962 185.012 7.66324 183.656 7.63237C181.952 7.59439 181.07 7.03885 178.201 7.0696C177.442 7.07817 171.816 7.6941 169.734 7.3785C167.652 7.06295 164.637 6.87773 162.475 6.57587C162.782 6.81426 163.171 7.04231 163.513 7.27726C162.435 7.31843 161.35 7.3581 160.272 7.39927C160.115 7.11282 159.958 6.82613 159.808 6.53797C159.181 6.81068 158.555 7.08003 157.923 7.35618C156.561 5.88467 157.957 6.36462 154.925 6.73681C153.406 6.92206 152.2 6.66496 150.64 6.81417C150.078 6.86901 149.719 7.30232 149.099 7.35773C147.58 7.49149 148.466 6.89512 147.527 6.89827C146.582 6.90342 145.225 7.55847 143.532 7.26688C145.3 6.09905 140.191 6.48001 139.947 7.38733C139.339 7.389 138.829 7.35129 138.157 7.37694C138.778 5.08538 135.593 6.71158 134.329 7.02547C133.066 7.3389 133.117 6.72319 132.821 6.7472C131.969 6.81413 132.59 7.06979 131.993 7.07842C128.038 7.12988 124.315 6.75398 120.413 6.71968C119.851 6.7148 120.349 7.06274 119.695 7.02858C119.039 6.99428 118.411 6.6479 117.443 6.67192C117.183 6.678 117.102 6.98365 116.697 6.98393C108.214 6.97021 100.159 6.70981 91.508 6.67036C90.7252 6.66693 90.1106 7.21038 88.5975 7.1916C87.0844 7.17274 84.7884 6.6823 82.9099 6.6444C82.4113 6.63411 82.276 7.08679 81.615 7.07479C79.3655 7.03354 77.4279 6.66497 75.0914 6.60494C71.1433 6.50383 67.0095 6.78 63.0034 6.51253C62.2439 6.4628 62.3653 6.08525 61.2699 5.97883C59.3796 5.7953 60.091 6.34585 59.7083 6.4196C58.4563 6.65785 58.0628 5.92613 56.8517 6.11433C56.6665 6.14344 56.9306 6.57738 56.7645 6.58418C54.19 6.65965 54.0548 5.64261 51.3179 6.18806C48.8841 5.60329 52.9494 5.40409 53.3668 5.09366C54.3864 4.33908 51.6911 3.45235 50.1025 3.16756C48.7344 2.92233 48.7444 3.39213 48.1998 3.39236C45.3182 3.39407 41.027 3.4834 38.835 3.26049C37.5072 3.1267 39.9006 2.931 39.2222 2.77663C38.5498 2.62246 38.1145 2.97553 37.4246 2.58973C36.7346 2.2038 35.327 1.06807 35.5937 0.526048ZM277.891 4.09224C275.905 4.35431 272.89 4.20925 269.561 4.43548C264.656 4.75275 258.993 4.64169 255.25 4.53659C250.032 4.38908 245.533 2.96181 246.611 5.03032C252.253 5.04402 256.816 4.83657 262.782 4.90001C263.402 4.90687 267.102 5.09881 268.39 5.13311C268.942 5.14754 269.087 5.34936 269.561 5.4431C269.704 5.47242 269.878 5.49193 270.104 5.49493C270.308 5.49164 271.475 5.09005 271.904 5.13945C273.39 5.20323 277.448 6.71372 277.983 6.91699C279.565 7.32309 279.128 6.64668 279.841 6.77862C282.242 7.31266 282.175 8.1558 284.401 9.006C284.79 9.16271 286.406 9.24208 287.848 10.3555C288.437 10.8026 289.205 11.841 289.638 12.1807C292.038 13.9985 294.7 16.2507 296.213 18.643C297.425 20.6064 296.61 20.3729 297.148 21.4406C297.667 22.5053 298.844 23.5496 299.199 24.3134C299.777 25.5198 299.94 27.171 300.055 27.5569C301.022 30.6275 301.534 33.6952 301.638 36.7529C301.638 36.7529 301.638 36.7529 301.638 36.7529C301.79 41.3364 301.026 45.9083 299.125 50.2813C301.264 46.1351 302.48 41.477 302.688 36.7529C302.688 36.7529 302.688 36.7529 302.688 36.7529C302.721 36.0088 302.731 35.2782 302.716 34.5331C301.885 31.4994 302.558 32.9946 302.422 30.9317C302.252 29.3032 301.267 29.1235 300.779 27.1026C300.78 27.1042 300.78 27.1059 300.781 27.1075C300.529 26.074 300.341 23.5862 299.011 21.6261C298.957 21.561 298.46 21.5817 297.583 20.1131C295.647 16.7529 291.468 12.501 287.92 10.0508C286.887 9.3208 287.387 9.02157 286.109 8.18522C285.161 7.58523 283.817 7.40142 282.277 6.63221C280.35 5.68663 279.531 4.59587 277.795 5.3007C277.779 4.87813 277.938 4.51146 277.891 4.09224ZM158.856 4.04079C158.554 3.99598 154.507 2.73045 155.707 4.08181C161.146 4.66842 167.027 4.37704 172.75 4.70636C170.796 3.37018 167.49 3.89682 163.477 3.99459C163.475 3.99459 163.474 3.99459 163.472 3.99459C163.283 3.99914 164.075 3.64993 162.998 3.7132C162.476 3.74407 160.474 4.27921 158.856 4.04079Z" fill="white"/>
<path d="M71.5969 26.9628V30.6414H63.0531V35.6253H71.2706V39.3039H63.0531V47.729H59.1668V26.9628H71.5969ZM76.5599 30.4337C75.8677 30.4337 75.3238 30.2458 74.9283 29.8701C74.5327 29.4943 74.335 28.9801 74.335 28.3274C74.335 27.655 74.5327 27.1309 74.9283 26.7551C75.3238 26.3794 75.8677 26.1915 76.5599 26.1915C77.2521 26.1915 77.796 26.3794 78.1915 26.7551C78.5871 27.1309 78.7849 27.655 78.7849 28.3274C78.7849 28.9603 78.5772 29.4745 78.1619 29.8701C77.7663 30.2458 77.2323 30.4337 76.5599 30.4337ZM74.691 47.729V32.896H78.3695V47.729H74.691ZM89.584 32.5103C90.4542 32.5103 91.3343 32.6982 92.2243 33.074C93.134 33.43 93.9053 34.0826 94.5382 35.032C95.1909 35.9813 95.5172 37.2569 95.5172 38.8589V47.729H91.8386V38.8589C91.8386 37.7513 91.5222 36.9602 90.8893 36.4856C90.2762 35.9912 89.5543 35.7439 88.7237 35.7439C87.893 35.7439 87.181 36.0406 86.5877 36.6339C86.0142 37.2075 85.7274 38.137 85.7274 39.4225V47.729H82.0488V32.896H85.7274V34.142C86.2614 33.6475 86.8547 33.252 87.5074 32.9553C88.16 32.6587 88.8522 32.5103 89.584 32.5103ZM110.046 26.9628H113.724V47.729H110.046V46.305C109.373 46.8984 108.622 47.3532 107.791 47.6697C106.96 47.9861 106.1 48.1443 105.21 48.1443C103.707 48.1443 102.392 47.8081 101.265 47.1357C100.137 46.4633 99.267 45.5337 98.6539 44.3471C98.0606 43.1604 97.7639 41.8255 97.7639 40.3422C97.7639 38.8589 98.0606 37.5239 98.6539 36.3373C99.267 35.1506 100.137 34.2211 101.265 33.5487C102.392 32.8565 103.707 32.5103 105.21 32.5103C106.1 32.5103 106.95 32.6785 107.761 33.0147C108.592 33.3311 109.353 33.7761 110.046 34.3496V26.9628ZM105.685 44.6141C106.496 44.6141 107.227 44.4361 107.88 44.0801C108.552 43.7043 109.077 43.1901 109.452 42.5375C109.848 41.8848 110.046 41.1432 110.046 40.3125C110.046 39.0665 109.62 38.048 108.77 37.2569C107.939 36.4658 106.911 36.0703 105.685 36.0703C104.439 36.0703 103.41 36.4757 102.599 37.2866C101.808 38.0777 101.413 39.0962 101.413 40.3422C101.413 41.5881 101.808 42.6166 102.599 43.4274C103.41 44.2185 104.439 44.6141 105.685 44.6141ZM132.1 48.1443C130.696 48.1443 129.39 47.7982 128.184 47.106C126.997 46.394 126.048 45.4447 125.336 44.2581C124.644 43.0517 124.298 41.7464 124.298 40.3422C124.298 38.938 124.644 37.6426 125.336 36.4559C126.048 35.2495 126.997 34.3002 128.184 33.608C129.39 32.896 130.696 32.54 132.1 32.54C133.504 32.54 134.799 32.896 135.986 33.608C137.192 34.3002 138.142 35.2495 138.834 36.4559C139.546 37.6426 139.902 38.938 139.902 40.3422C139.902 41.7464 139.546 43.0517 138.834 44.2581C138.142 45.4447 137.192 46.394 135.986 47.106C134.799 47.7982 133.504 48.1443 132.1 48.1443ZM132.07 44.4657C132.822 44.4657 133.514 44.2877 134.147 43.9318C134.78 43.556 135.284 43.0517 135.66 42.4188C136.035 41.7859 136.223 41.0937 136.223 40.3422C136.223 39.5906 136.035 38.8984 135.66 38.2656C135.284 37.6327 134.78 37.1284 134.147 36.7526C133.514 36.3768 132.822 36.1889 132.07 36.1889C131.319 36.1889 130.626 36.3768 129.993 36.7526C129.361 37.1284 128.856 37.6327 128.481 38.2656C128.125 38.8984 127.947 39.5906 127.947 40.3422C127.947 41.0937 128.125 41.7859 128.481 42.4188C128.856 43.0517 129.361 43.556 129.993 43.9318C130.626 44.2877 131.319 44.4657 132.07 44.4657ZM151.595 32.896H155.273V47.729H151.595V46.483C151.061 46.9775 150.467 47.373 149.815 47.6697C149.162 47.9663 148.47 48.1147 147.738 48.1147C146.868 48.1147 145.978 47.9367 145.068 47.5807C144.178 47.2049 143.407 46.5424 142.754 45.5931C142.121 44.6437 141.805 43.3681 141.805 41.7661V32.896H145.484V41.7661C145.484 42.8737 145.79 43.6747 146.403 44.1691C147.036 44.6437 147.768 44.8811 148.598 44.8811C149.429 44.8811 150.131 44.5943 150.705 44.0208C151.298 43.4274 151.595 42.488 151.595 41.2025V32.896ZM163.49 42.6561C163.49 43.3285 163.648 43.7933 163.965 44.0504C164.281 44.3075 164.785 44.4361 165.477 44.4361C165.893 44.4361 166.348 44.4064 166.842 44.3471V47.729C165.913 47.8279 165.141 47.8773 164.528 47.8773C162.946 47.8773 161.759 47.5213 160.968 46.8094C160.197 46.0776 159.811 44.7723 159.811 42.8934V36.1889H157.023V32.896H159.811V29.2471L163.49 28.0011V32.896H166.783V36.1889H163.49V42.6561ZM194.769 32.5103C195.64 32.5103 196.52 32.6982 197.41 33.074C198.3 33.43 199.061 34.0826 199.694 35.032C200.347 35.9813 200.673 37.2569 200.673 38.8589V47.729H197.024V38.8589C197.024 37.7513 196.708 36.9602 196.075 36.4856C195.462 35.9912 194.74 35.7439 193.909 35.7439C193.197 35.7439 192.574 35.9615 192.04 36.3966C191.506 36.8119 191.16 37.4843 191.002 38.4139V38.8589V47.729H187.353V38.8589C187.353 37.7513 187.036 36.9602 186.404 36.4856C185.79 35.9912 185.059 35.7439 184.208 35.7439C183.536 35.7439 182.923 35.9516 182.369 36.3669C181.835 36.7823 181.489 37.4448 181.331 38.3545V47.729H177.652V32.896H181.331V34.053C181.825 33.5783 182.389 33.2026 183.022 32.9257C183.674 32.6488 184.367 32.5103 185.098 32.5103C186.008 32.5103 186.928 32.7081 187.857 33.1037C188.787 33.4992 189.528 34.1618 190.082 35.0913C190.596 34.3595 191.269 33.7464 192.099 33.252C192.93 32.7576 193.82 32.5103 194.769 32.5103ZM210.552 48.1443C209.148 48.1443 207.843 47.7982 206.637 47.106C205.45 46.394 204.501 45.4447 203.789 44.2581C203.096 43.0517 202.75 41.7464 202.75 40.3422C202.75 38.938 203.096 37.6426 203.789 36.4559C204.501 35.2495 205.45 34.3002 206.637 33.608C207.843 32.896 209.148 32.54 210.552 32.54C211.957 32.54 213.252 32.896 214.439 33.608C215.645 34.3002 216.594 35.2495 217.287 36.4559C217.999 37.6426 218.355 38.938 218.355 40.3422C218.355 41.7464 217.999 43.0517 217.287 44.2581C216.594 45.4447 215.645 46.394 214.439 47.106C213.252 47.7982 211.957 48.1443 210.552 48.1443ZM210.523 44.4657C211.274 44.4657 211.966 44.2877 212.599 43.9318C213.232 43.556 213.737 43.0517 214.112 42.4188C214.488 41.7859 214.676 41.0937 214.676 40.3422C214.676 39.5906 214.488 38.8984 214.112 38.2656C213.737 37.6327 213.232 37.1284 212.599 36.7526C211.966 36.3768 211.274 36.1889 210.523 36.1889C209.771 36.1889 209.079 36.3768 208.446 36.7526C207.813 37.1284 207.309 37.6327 206.933 38.2656C206.577 38.8984 206.399 39.5906 206.399 40.3422C206.399 41.0937 206.577 41.7859 206.933 42.4188C207.309 43.0517 207.813 43.556 208.446 43.9318C209.079 44.2877 209.771 44.4657 210.523 44.4657ZM229.513 32.5993L229.246 36.0703C229.128 36.0307 228.92 36.0109 228.623 36.0109C227.397 36.0109 226.379 36.3669 225.568 37.0789C224.777 37.7909 224.381 38.76 224.381 39.9862V47.729H220.703V32.896H224.381V35.3879C224.717 34.5969 225.291 33.9343 226.102 33.4003C226.913 32.8663 227.892 32.5993 229.039 32.5993H229.513ZM238.104 32.5103C239.528 32.5103 240.803 32.8663 241.93 33.5783C243.078 34.2705 243.968 35.21 244.6 36.3966C245.233 37.5832 245.55 38.8984 245.55 40.3422C245.55 40.8168 245.51 41.2519 245.431 41.6475H233.98C234.277 42.6957 234.801 43.5164 235.552 44.1098C236.304 44.6833 237.263 44.9701 238.43 44.9701C239.142 44.9701 239.824 44.8118 240.477 44.4954C241.149 44.179 241.654 43.7735 241.99 43.2791L244.808 44.9404C244.116 45.9688 243.216 46.7599 242.108 47.3137C241.021 47.8477 239.765 48.1147 238.341 48.1147C236.759 48.1147 235.354 47.7784 234.128 47.106C232.902 46.4336 231.953 45.5041 231.28 44.3174C230.628 43.1308 230.301 41.7958 230.301 40.3125C230.301 38.849 230.628 37.5239 231.28 36.3373C231.953 35.1506 232.882 34.2211 234.069 33.5487C235.256 32.8565 236.6 32.5103 238.104 32.5103ZM242.108 38.7699C241.95 37.8206 241.505 37.0789 240.773 36.5449C240.062 35.9912 239.162 35.7143 238.074 35.7143C237.322 35.7143 236.63 35.8527 235.997 36.1296C235.384 36.4065 234.89 36.7823 234.514 37.2569C234.138 37.7316 233.94 38.2359 233.921 38.7699H242.108Z" fill="#E6E8EB"/>
</svg>
