<svg width="789" height="43" viewBox="0 0 789 43" fill="none" xmlns="http://www.w3.org/2000/svg">
<path d="M19.8735 0H21.3024L22.3796 0.0650202L23.259 0.151714L23.9405 0.260081L24.3142 0.368448L24.7099 0.541835L25.0177 0.715222L25.3035 0.931956L25.5893 1.19204L25.7871 1.40877L26.007 1.7122L26.2268 2.12399L26.3587 2.47077L26.4686 2.94758L26.5126 3.51109L26.5566 4.03125L26.6445 4.55141L26.7764 4.98488L26.9962 5.50504L27.2601 5.96018L27.5239 6.30696L27.7217 6.52369L27.8756 6.69708L28.1174 6.91381L28.4032 7.13054L28.8209 7.39062L29.3265 7.62903L29.8542 7.80242L30.4038 7.91079L30.8214 7.95413H31.3051L31.8767 7.88911L32.4043 7.75907L32.822 7.60736L33.3716 7.34728L33.7233 7.17389L34.0751 7.04385L34.4488 6.95716L34.8445 6.91381H35.2182L35.6139 6.95716L36.0316 7.06552L36.4713 7.23891L36.8231 7.43397L37.0869 7.62903L37.3507 7.86744L37.5705 8.08417L37.8123 8.3876L38.1201 8.7994L38.3839 9.16784L38.6257 9.51462L38.9115 9.94808L39.1753 10.3599L39.5051 10.9234L39.7909 11.4435L40.0987 12.0287L40.4284 12.7223L40.7582 13.5025L40.9121 13.9577L40.978 14.2828L41 14.4561V15.0847L40.956 15.3881L40.8461 15.7999L40.6702 16.2117L40.5164 16.4934L40.2965 16.7969L40.0327 17.0786L39.8568 17.252L39.5271 17.4904L39.1094 17.7505L38.8016 17.9672L38.4719 18.249L38.23 18.4874L37.9882 18.7908L37.7684 19.0943L37.5485 19.4844L37.3727 19.8745L37.2407 20.2646L37.1308 20.7198L37.0649 21.3049V21.7167L37.1308 22.2586L37.2407 22.7354L37.3727 23.1255L37.6145 23.6457L37.8563 24.0358L38.0761 24.3175L38.3399 24.621L38.4938 24.7727L38.7357 24.9677L39.0214 25.1845L39.5051 25.4879L39.7689 25.683L39.9887 25.878L40.0767 25.943V25.9864H40.1206L40.3185 26.2248L40.5383 26.5282L40.7142 26.875L40.8461 27.1784L40.956 27.5902L41 27.872V28.5655L40.934 28.9556L40.8021 29.3891L40.6043 29.8659L40.3625 30.4078L40.0987 30.9713L39.8788 31.3831L39.593 31.9249L39.2853 32.4451L39.0214 32.8785L38.6697 33.4204L38.4279 33.7671L38.208 34.0706L37.9003 34.4824L37.6145 34.8508L37.5485 34.9375H37.5046L37.4606 35.0242L37.2407 35.2409L36.933 35.4793L36.6472 35.6527L36.3394 35.8044L35.9657 35.9345L35.482 36.0428L35.2842 36.0645H34.7346L34.2949 35.9995L33.8552 35.8695L32.756 35.3493L32.2944 35.1976L31.8107 35.0892L31.481 35.0459H30.6016L30.052 35.1326L29.5244 35.2843L29.1946 35.4143L28.8429 35.5877L28.4472 35.8261L28.1394 36.0645L27.8097 36.3679L27.5678 36.628L27.2601 37.0398L26.9962 37.495L26.7984 37.9501L26.6665 38.3619L26.5786 38.7737L26.5346 39.1638L26.4906 39.8357L26.4247 40.2475L26.3367 40.5726L26.2048 40.8977L26.0509 41.2011L25.8091 41.5479L25.6113 41.7863L25.4354 41.938L25.2155 42.1331L24.8418 42.3715L24.4241 42.5665L24.0944 42.6749L23.5668 42.7833L22.6654 42.8916L21.874 42.9567L20.7748 43H20.1373L19.4118 42.9783L18.5324 42.9133L17.8729 42.8483L17.2574 42.7616L16.8836 42.6749L16.466 42.5232L16.0922 42.3281L15.7845 42.1114L15.5206 41.873L15.2788 41.6346L15.015 41.2661L14.8172 40.9194L14.6853 40.5943L14.5973 40.2908L14.5314 39.879L14.4654 38.9688L14.3775 38.4703L14.2456 38.0368L14.0697 37.6033L13.8059 37.1048L13.5421 36.7364L13.2783 36.433L13.0145 36.1729L12.7727 35.9778L12.3989 35.7177L12.0032 35.501L11.4976 35.2843L10.948 35.1326L10.3984 35.0459H9.51903L8.96944 35.1326L8.48579 35.2626L8.0681 35.436L7.71635 35.6094L7.21072 35.8478L6.79303 35.9778L6.44129 36.0428L6.24343 36.0645H5.69383L5.36408 36.0212L4.94638 35.9128L4.48472 35.7177L4.11099 35.501L3.75925 35.2193L3.51743 34.9808L3.2756 34.6774L2.96783 34.2873L2.68204 33.8972L2.11046 33.0519L1.84665 32.6401L1.53887 32.12L1.25308 31.5998L1.03324 31.188L0.791421 30.7112L0.50563 30.0827L0.241823 29.4541L0.131903 29.129L0.0439678 28.7606L0 28.3921V28.0887L0.0439678 27.6986L0.153887 27.2434L0.329759 26.81L0.549598 26.4199L0.791421 26.1164L1.05523 25.8347L1.40697 25.5529L1.82466 25.2928L2.17641 25.0544L2.48418 24.7944L2.66005 24.6426L2.68204 24.5993H2.72601L2.76997 24.5126L2.94584 24.3175L3.20965 23.9708L3.40751 23.6457L3.62735 23.1688L3.80322 22.6487L3.89115 22.2369L3.93512 21.9118V21.1316L3.86917 20.6547L3.75925 20.1996L3.58338 19.7228L3.40751 19.3543L3.16568 18.9642L2.90188 18.6174L2.63807 18.3357L2.44021 18.1406L2.13244 17.9022L1.80268 17.6855L1.49491 17.4904L1.2311 17.2954L1.01126 17.1003L0.791421 16.8836L0.50563 16.4934L0.307775 16.1467L0.153887 15.7566L0.0439678 15.3231L0 14.9546V14.6079L0.0439678 14.2394L0.153887 13.7843L0.373727 13.2208L0.681501 12.5272L1.05523 11.7686L1.363 11.1835L1.67078 10.6633L1.9126 10.2515L2.17641 9.83972L2.44021 9.4496L2.68204 9.10282L2.96783 8.7127L3.23164 8.36593L3.51743 8.01915L3.86917 7.67238L4.19893 7.43397L4.55067 7.23891L4.90241 7.0872L5.32011 6.97883L5.58391 6.93548L5.84772 6.91381H6.17748L6.68311 6.97883L7.05684 7.0872L7.3866 7.21724L7.93619 7.49899L8.35389 7.67238L8.7496 7.80242L9.2992 7.91079L9.76086 7.95413H10.2005L10.7721 7.88911L11.3217 7.75907L11.7394 7.60736L12.1571 7.4123L12.5748 7.15222L12.8606 6.93548L13.0804 6.74042L13.1684 6.65373H13.2123L13.2563 6.56704L13.4542 6.37198L13.7399 5.98185L13.9598 5.61341L14.1576 5.20161L14.2895 4.85484L14.4214 4.33468L14.4874 3.81452L14.5314 3.07762L14.6413 2.53579L14.7952 2.12399L15.015 1.7122L15.3448 1.27873H15.3887L15.4327 1.19204L15.6306 0.996976L15.9823 0.736895L16.2681 0.563508L16.5979 0.411794L17.0155 0.281754L17.4772 0.19506L18.4005 0.0866935L19.2799 0.0216734L19.8735 0ZM20.1153 15.128L19.6316 15.1714L18.9501 15.3014L18.3566 15.4748L17.763 15.7132L17.2574 15.9733L16.9496 16.1683L16.5759 16.4284L16.2901 16.6668L16.1142 16.8185L15.6745 17.252L15.4767 17.4904L15.3228 17.6855L15.059 18.0539L14.8172 18.4657L14.5753 18.9425L14.3775 19.4627L14.2236 19.9829L14.1137 20.5247L14.0697 20.8715L14.0477 21.1749V21.8034L14.0917 22.3019L14.2016 22.9088L14.3555 23.4723L14.5753 24.0358L14.8391 24.5776L15.1029 25.0111L15.3228 25.3145L15.6086 25.6613L15.8504 25.9214L16.1582 26.2248L16.6418 26.6149L17.1694 26.9617L17.6531 27.2218L18.0928 27.4168L18.5764 27.5902L19.082 27.7203L19.5437 27.807L20.2032 27.872H20.7748L21.3024 27.8286L21.83 27.7419L22.4236 27.5902L22.9732 27.3952L23.5448 27.1351L23.9625 26.8967L24.3142 26.6583L24.6 26.4415L24.9298 26.1598L25.3035 25.7913L25.5013 25.5529L25.7432 25.2495L25.8971 25.0328L26.0729 24.751L26.2928 24.3609L26.5126 23.8841L26.7544 23.1688L26.8643 22.6704L26.9303 22.2802L26.9523 22.0418V20.9798L26.8643 20.3296L26.7324 19.7661L26.5346 19.1809L26.2928 18.6391L26.0949 18.2707L25.8311 17.8589L25.6332 17.5988L25.4354 17.3604L25.2375 17.1436L25.0836 16.9703L24.7979 16.7102L24.4241 16.4068L23.8965 16.06L23.5008 15.8432L23.1491 15.6699L22.5995 15.4531L22.0499 15.3014L21.6542 15.2147L21.1925 15.1497L20.9067 15.128H20.1153Z" fill="white"/>
<path d="M74.664 30.8423L68.648 30.8743L62.12 22.4903L59.976 25.0503V30.8743H55.176V8.47427H59.976V17.4983L67.592 8.47427H73.768L65.256 18.6823L74.664 30.8423ZM84.286 14.4583C85.8433 14.4583 87.23 14.8316 88.446 15.5783C89.6833 16.3249 90.6433 17.3383 91.326 18.6183C92.0087 19.8983 92.35 21.3169 92.35 22.8743C92.35 23.4716 92.3073 24.0156 92.222 24.5063H80.382C80.7873 25.4876 81.3313 26.2236 82.014 26.7143C82.6967 27.1836 83.582 27.4183 84.67 27.4183C85.3313 27.4183 85.9713 27.2796 86.59 27.0023C87.23 26.7249 87.7313 26.3516 88.094 25.8823L91.55 27.9303C90.8033 29.0183 89.8327 29.8503 88.638 30.4263C87.4647 31.0023 86.11 31.2903 84.574 31.2903C82.846 31.2903 81.3207 30.9276 79.998 30.2023C78.6753 29.4556 77.6513 28.4423 76.926 27.1623C76.2007 25.8823 75.838 24.4529 75.838 22.8743C75.838 21.2956 76.19 19.8663 76.894 18.5863C77.6193 17.3063 78.622 16.3036 79.902 15.5783C81.182 14.8316 82.6433 14.4583 84.286 14.4583ZM88.062 20.9543C87.9127 20.1436 87.486 19.5143 86.782 19.0663C86.0993 18.6183 85.2567 18.3943 84.254 18.3943C83.2087 18.3943 82.302 18.6503 81.534 19.1623C80.766 19.6529 80.3607 20.2503 80.318 20.9543H88.062ZM105.822 14.8743H110.59L105.214 30.6503C104.318 32.9543 103.102 34.6716 101.566 35.8023C100.052 36.9329 98.2383 37.4236 96.1263 37.2743V32.8583C96.2543 32.8796 96.4463 32.8903 96.7023 32.8903C97.5983 32.8903 98.3449 32.6556 98.9423 32.1863C99.5396 31.7169 100.041 31.0663 100.446 30.2343L93.5343 14.8743H98.4623L102.654 24.0583L105.822 14.8743ZM134.778 8.47427V13.0183H125.882V17.5303H134.458V22.0743H125.882V30.8743H121.082V8.47427H134.778ZM144.911 14.4583C146.468 14.4583 147.855 14.8316 149.071 15.5783C150.308 16.3249 151.268 17.3383 151.951 18.6183C152.634 19.8983 152.975 21.3169 152.975 22.8743C152.975 23.4716 152.932 24.0156 152.847 24.5063H141.007C141.412 25.4876 141.956 26.2236 142.639 26.7143C143.322 27.1836 144.207 27.4183 145.295 27.4183C145.956 27.4183 146.596 27.2796 147.215 27.0023C147.855 26.7249 148.356 26.3516 148.719 25.8823L152.175 27.9303C151.428 29.0183 150.458 29.8503 149.263 30.4263C148.09 31.0023 146.735 31.2903 145.199 31.2903C143.471 31.2903 141.946 30.9276 140.623 30.2023C139.3 29.4556 138.276 28.4423 137.551 27.1623C136.826 25.8823 136.463 24.4529 136.463 22.8743C136.463 21.2956 136.815 19.8663 137.519 18.5863C138.244 17.3063 139.247 16.3036 140.527 15.5783C141.807 14.8316 143.268 14.4583 144.911 14.4583ZM148.687 20.9543C148.538 20.1436 148.111 19.5143 147.407 19.0663C146.724 18.6183 145.882 18.3943 144.879 18.3943C143.834 18.3943 142.927 18.6503 142.159 19.1623C141.391 19.6529 140.986 20.2503 140.943 20.9543H148.687ZM167.582 14.8743H172.126V30.8743H167.582V29.6583C166.878 30.1916 166.1 30.5969 165.246 30.8743C164.414 31.1729 163.572 31.3223 162.718 31.3223C161.054 31.3223 159.614 30.9596 158.398 30.2343C157.204 29.5089 156.286 28.5169 155.646 27.2583C155.006 25.9783 154.686 24.5276 154.686 22.9063C154.686 21.2849 155.006 19.8343 155.646 18.5543C156.286 17.2529 157.204 16.2396 158.398 15.5143C159.614 14.7889 161.054 14.4263 162.718 14.4263C163.593 14.4263 164.446 14.5756 165.278 14.8743C166.11 15.1729 166.878 15.5889 167.582 16.1223V14.8743ZM163.326 26.9703C164.521 26.9703 165.524 26.5863 166.334 25.8183C167.145 25.0503 167.55 24.0583 167.55 22.8423C167.55 21.6689 167.145 20.7089 166.334 19.9623C165.524 19.2156 164.521 18.8423 163.326 18.8423C162.132 18.8423 161.15 19.2156 160.382 19.9623C159.614 20.7089 159.23 21.6903 159.23 22.9063C159.23 24.1223 159.614 25.1036 160.382 25.8503C161.15 26.5969 162.132 26.9703 163.326 26.9703ZM181.592 25.1783C181.592 25.7756 181.752 26.1916 182.072 26.4263C182.413 26.6609 182.925 26.7783 183.608 26.7783C184.034 26.7783 184.504 26.7463 185.016 26.6823V30.8743C183.949 30.9809 183.064 31.0343 182.36 31.0343C180.568 31.0343 179.224 30.6396 178.328 29.8503C177.453 29.0396 177.016 27.5783 177.016 25.4663V18.9383H174.264V14.8743H177.016V11.1623L181.592 9.62627V14.8743H184.952V18.9383H181.592V25.1783ZM197.711 14.8743H202.287V30.8743H197.711V29.7863C196.495 30.8103 195.205 31.3223 193.839 31.3223C192.901 31.3223 191.951 31.1196 190.991 30.7143C190.031 30.3089 189.21 29.5943 188.527 28.5703C187.845 27.5463 187.503 26.1703 187.503 24.4423V14.8743H192.079V24.4423C192.079 25.4449 192.367 26.1809 192.943 26.6503C193.519 27.0983 194.202 27.3223 194.991 27.3223C195.759 27.3223 196.399 27.0449 196.911 26.4903C197.445 25.9356 197.711 25.0503 197.711 23.8343V14.8743ZM216.25 14.5543L215.93 18.8743C215.781 18.8103 215.535 18.7783 215.194 18.7783C213.893 18.7783 212.826 19.1516 211.994 19.8983C211.183 20.6236 210.778 21.5836 210.778 22.7783V30.8743H206.202V14.8743H210.778V17.4663C211.162 16.6343 211.781 15.9409 212.634 15.3863C213.487 14.8316 214.522 14.5543 215.738 14.5543H216.25ZM225.505 14.4583C227.062 14.4583 228.449 14.8316 229.665 15.5783C230.902 16.3249 231.862 17.3383 232.545 18.6183C233.227 19.8983 233.569 21.3169 233.569 22.8743C233.569 23.4716 233.526 24.0156 233.441 24.5063H221.601C222.006 25.4876 222.55 26.2236 223.233 26.7143C223.915 27.1836 224.801 27.4183 225.889 27.4183C226.55 27.4183 227.19 27.2796 227.809 27.0023C228.449 26.7249 228.95 26.3516 229.313 25.8823L232.769 27.9303C232.022 29.0183 231.051 29.8503 229.857 30.4263C228.683 31.0023 227.329 31.2903 225.793 31.2903C224.065 31.2903 222.539 30.9276 221.217 30.2023C219.894 29.4556 218.87 28.4423 218.145 27.1623C217.419 25.8823 217.057 24.4529 217.057 22.8743C217.057 21.2956 217.409 19.8663 218.113 18.5863C218.838 17.3063 219.841 16.3036 221.121 15.5783C222.401 14.8316 223.862 14.4583 225.505 14.4583ZM229.281 20.9543C229.131 20.1436 228.705 19.5143 228.001 19.0663C227.318 18.6183 226.475 18.3943 225.473 18.3943C224.427 18.3943 223.521 18.6503 222.753 19.1623C221.985 19.6529 221.579 20.2503 221.537 20.9543H229.281ZM240.048 19.4183C240.048 19.7809 240.272 20.0583 240.72 20.2503C241.168 20.4209 241.883 20.6023 242.864 20.7943C244.123 21.0503 245.168 21.3383 246 21.6583C246.832 21.9569 247.557 22.4689 248.176 23.1943C248.816 23.8983 249.136 24.8796 249.136 26.1383C249.136 27.2263 248.805 28.1649 248.144 28.9543C247.483 29.7223 246.608 30.3089 245.52 30.7143C244.432 31.0983 243.259 31.2903 242 31.2903C240.272 31.2903 238.8 30.9809 237.584 30.3623C236.368 29.7223 235.451 28.7836 234.832 27.5463L238.576 25.6263C239.088 26.9916 240.229 27.6743 242 27.6743C242.725 27.6743 243.355 27.5463 243.888 27.2903C244.443 27.0129 244.72 26.6289 244.72 26.1383C244.72 25.7116 244.464 25.3916 243.952 25.1783C243.461 24.9649 242.672 24.7409 241.584 24.5063C240.347 24.2289 239.312 23.9409 238.48 23.6423C237.648 23.3223 236.933 22.8423 236.336 22.2023C235.739 21.5409 235.44 20.6663 235.44 19.5783C235.44 18.5329 235.739 17.6263 236.336 16.8583C236.933 16.0689 237.733 15.4716 238.736 15.0663C239.76 14.6609 240.869 14.4583 242.064 14.4583C243.472 14.4583 244.741 14.7463 245.872 15.3223C247.003 15.8983 247.888 16.7303 248.528 17.8183L244.816 19.6423C244.56 19.1089 244.208 18.7143 243.76 18.4583C243.333 18.2023 242.768 18.0743 242.064 18.0743C241.445 18.0743 240.955 18.2023 240.592 18.4583C240.229 18.6929 240.048 19.0129 240.048 19.4183Z" fill="white"/>
</svg>
