<svg width="783" height="53" viewBox="0 0 783 53" fill="none" xmlns="http://www.w3.org/2000/svg">
<path d="M14.224 25.4667C14.5047 25.5377 14.5985 25.288 14.7848 25.1866C15.8162 24.6265 16.5423 24.3357 17.7208 24.7951C17.9103 24.8686 18.9031 25.5567 18.9798 25.4667C19.1496 23.0014 19.8839 19.8049 21.6054 17.9447C23.8743 15.492 26.1235 17.8452 26.318 20.4657C26.631 24.6753 23.9313 27.8205 21.4989 30.9016C19.8452 32.9963 17.4547 34.4529 14.8133 33.1414C12.7382 32.1112 10.157 28.9318 8.73141 27.0418C7.29886 25.1429 6.6621 22.9748 6.9016 20.5804C7.07837 18.8114 8.3709 16.5958 10.4542 17.3054C13.0994 18.2064 14.2791 22.9931 14.2234 25.4667H14.224ZM11.2233 19.1498C10.598 19.2448 10.3876 20.8446 10.3591 21.3616C10.3236 22.0022 10.4041 24.5949 11.2975 24.6367C11.9722 24.6677 12.2048 23.3511 12.2447 22.8487C12.2979 22.172 12.3841 18.9736 11.2233 19.1498ZM22.1262 19.1491C21.931 19.1859 21.8354 19.3018 21.7327 19.4577C21.1783 20.2972 21.191 23.3955 21.734 24.2515C22.1946 24.9776 22.6951 24.5873 22.9486 23.9378C23.3446 22.9241 23.3224 20.6501 22.8637 19.6598C22.7123 19.3329 22.5488 19.0693 22.1262 19.1491Z" fill="black"/>
<path d="M22.5704 5.99728C22.8587 5.72167 23.434 5.88831 23.69 6.16519C24.1436 6.65622 24.5935 9.03536 24.4085 9.66325C24.1804 10.4381 22.1142 9.3737 21.8975 8.64823C21.76 8.18761 22.2409 6.31281 22.5704 5.99728Z" fill="black"/>
<path d="M10.0378 5.79215C10.6765 5.63375 11.2017 7.04096 11.3208 7.53516C11.5901 8.65155 11.5451 8.6205 10.6232 9.15652C10.2127 9.39538 9.01961 10.143 8.87452 9.38398C8.72246 8.58945 9.10451 6.02341 10.0378 5.79278V5.79215Z" fill="black"/>
<path d="M22.1257 19.1491C22.5489 19.0687 22.7118 19.3322 22.8632 19.6598C23.3226 20.6501 23.3441 22.9247 22.9481 23.9378C22.6947 24.5872 22.1941 24.9775 21.7335 24.2514C21.1899 23.3955 21.1772 20.2972 21.7322 19.4577C21.8349 19.3018 21.9305 19.1865 22.1257 19.1491Z" fill="white"/>
<path d="M11.2223 19.1499C12.383 18.9738 12.2975 22.1722 12.2436 22.8489C12.2037 23.3513 11.9712 24.6679 11.2964 24.6369C10.4024 24.5957 10.3226 22.0024 10.358 21.3618C10.3866 20.8454 10.5969 19.245 11.2223 19.1499Z" fill="white"/>
<path d="M14.7177 27.9315L16.0089 29.9571C16.2028 30.1231 16.4639 30.5552 16.7414 30.5115L18.582 28.1774L18.4337 27.9315H14.717H14.7177Z" fill="white"/>
<path d="M9.09137 0.367052C8.26645 1.133 7.2269 4.77006 6.83398 5.98515C6.22026 7.88323 5.70529 9.42747 4.92837 11.2583C4.30848 12.7182 4.05407 15.0689 2.71898 16.0145C1.85017 16.6303 0.291527 16.8716 0.0700417 18.1889C-0.163105 19.5761 0.196903 21.0079 0.984798 22.151C1.29337 22.5988 2.21703 23.3825 2.2904 23.8461C2.56469 25.5748 1.31531 27.4118 1.57383 29.1673C1.75554 30.4043 2.44675 30.992 3.68036 30.4695C4.04996 30.3131 4.37362 29.7975 4.87282 30.0491C5.58117 30.8068 4.75831 31.8142 5.61957 32.5177C6.02346 32.8482 6.51718 32.8647 7.01982 32.7323C7.71171 32.5506 8.02851 31.4788 8.87057 31.7319C9.1764 31.8238 11.0093 34.0133 11.5202 34.4439C13.4759 36.0937 16.3621 37.3575 18.9246 36.5868C20.0862 36.2377 21.8807 34.7573 22.7852 33.9083C23.2961 33.429 24.7518 31.5947 25.2456 31.4363C26.3098 31.0955 26.3482 32.5054 26.7487 32.947C27.1237 33.3611 27.7381 33.3611 28.1845 33.0875C29.161 32.4889 28.8257 30.4653 29.2858 30.3255C29.9016 30.1376 30.5098 32.0514 31.7133 31.1785C32.3962 30.6827 32.3853 29.4155 32.3345 28.6544C32.2132 26.8454 30.9857 24.9282 32.1336 23.2145C33.1663 21.6724 34.3773 21.2918 33.9137 19.044C33.6189 17.6136 32.3023 17.1939 31.4691 16.2367C30.4145 15.025 29.6671 13.0042 28.9896 11.5367C27.7615 8.87478 27.6106 6.3575 26.5402 3.70034C26.3132 3.13736 25.2977 0.889571 24.9761 0.549454C24.505 0.0516216 23.9928 0.0125355 23.4346 0.389681C22.5075 1.01711 21.3925 4.43611 20.8014 5.57921C20.3975 6.36024 19.8229 7.50334 18.8684 7.61168C18.0894 7.70014 15.0585 7.71179 14.4153 7.45259C13.5568 7.10699 13.0658 5.10263 12.7216 4.32434C12.4953 3.81348 12.1442 3.36502 11.9309 2.86444C11.6141 2.11975 11.5545 1.17072 11.0292 0.551511C10.504 -0.0676936 9.71675 -0.215123 9.09069 0.365681L9.09137 0.367052ZM24.0949 4.74057C25.105 4.99086 25.5185 7.76802 25.3539 8.62723C25.1969 9.44872 23.9057 8.63889 23.4613 8.38106C22.4636 7.80094 22.4156 7.83454 22.7063 6.6263C22.8353 6.09213 23.4037 4.56914 24.0949 4.73989V4.74057ZM10.5286 4.96275C10.8852 5.30423 11.4057 7.33328 11.2569 7.8318C11.0224 8.61695 8.78554 9.76895 8.53937 8.93032C8.33914 8.25077 8.82669 5.67589 9.31698 5.14446C9.59401 4.8448 10.2173 4.66446 10.5286 4.96275ZM19.5644 26.0342C19.504 23.3572 20.7808 18.1766 23.6437 17.2015C25.8984 16.4335 27.2972 18.8314 27.4886 20.746C27.7478 23.3373 27.0579 25.6838 25.5082 27.7389C23.9653 29.7837 21.1717 33.2254 18.926 34.3403C16.0679 35.7598 13.48 34.1833 11.6903 31.9163C9.05777 28.5817 6.1366 25.1778 6.47466 20.6218C6.68518 17.7857 9.11949 15.2389 11.575 17.8934C13.4375 19.9066 14.2329 23.3661 14.4167 26.0342C14.4996 26.1309 15.5742 25.3869 15.7792 25.3074C17.0546 24.8102 17.8405 25.125 18.9568 25.7311C19.1584 25.8409 19.2599 26.111 19.5637 26.0342H19.5644Z" fill="white"/>
<path d="M19.563 26.0343C19.2593 26.1111 19.1578 25.8409 18.9562 25.7312C17.8398 25.125 17.054 24.8103 15.7786 25.3074C15.5735 25.3869 14.499 26.1316 14.416 26.0343C14.2323 23.3661 13.4375 19.9067 11.5744 17.8934C9.11884 15.239 6.68453 17.7857 6.47402 20.6219C6.13527 25.1778 9.05713 28.5817 11.6896 31.9164C13.4793 34.1834 16.0666 35.7598 18.9253 34.3404C21.1711 33.2254 23.9647 29.7845 25.5075 27.739C27.058 25.6839 27.7471 23.3373 27.4879 20.746C27.2966 18.8315 25.8977 16.4335 23.6431 17.2015C20.7802 18.1766 19.5034 23.3572 19.5637 26.0343H19.563ZM22.8106 19.1976C23.4874 19.3005 23.7151 21.0319 23.7459 21.5915C23.7843 22.2847 23.6972 25.0907 22.7304 25.136C22.0001 25.1696 21.7484 23.7446 21.7052 23.2009C21.6476 22.4685 21.5544 19.007 22.8106 19.1976ZM11.0107 19.197C11.2219 19.2367 11.3255 19.3622 11.4366 19.5309C12.0366 20.4395 12.0229 23.7926 11.4352 24.7191C10.9367 25.5049 10.395 25.0825 10.1207 24.3796C9.6921 23.2825 9.7161 20.8214 10.2126 19.7496C10.3764 19.3958 10.5534 19.1105 11.0107 19.197Z" fill="black"/>
<path d="M10.5299 4.963C10.2179 4.66472 9.59528 4.84506 9.31825 5.14472C8.82727 5.67615 8.34041 8.25103 8.54064 8.93058C8.7875 9.76921 11.0236 8.6172 11.2581 7.83206C11.4069 7.33354 10.8865 5.30449 10.5299 4.963Z" fill="black"/>
<path d="M24.0961 4.74006C23.4049 4.56863 22.8365 6.09162 22.7075 6.62648C22.4161 7.83471 22.4648 7.80111 23.4625 8.38123C23.9069 8.63975 25.1981 9.4489 25.3551 8.62741C25.5197 7.76751 25.1062 4.99035 24.0961 4.74075V4.74006Z" fill="black"/>
<path d="M11.012 19.1966C10.5539 19.1095 10.3777 19.3948 10.2138 19.7493C9.71668 20.8211 9.69337 23.2828 10.1219 24.3793C10.3962 25.0821 10.9379 25.5045 11.4365 24.7187C12.0248 23.7923 12.0385 20.4391 11.4378 19.5305C11.3267 19.3618 11.2232 19.237 11.012 19.1966Z" fill="white"/>
<path d="M22.8127 19.1975C21.5564 19.0069 21.649 22.4684 21.7073 23.2008C21.7505 23.7445 22.0021 25.1695 22.7324 25.1359C23.7 25.0913 23.7864 22.2846 23.748 21.5914C23.7171 21.0325 23.4895 19.3004 22.8127 19.1975Z" fill="white"/>
<path d="M19.0299 28.7013L17.6324 30.8935C17.4226 31.0732 17.14 31.5409 16.8397 31.4935L14.8477 28.9674L15.0081 28.7013H19.0306H19.0299Z" fill="white"/>
<path d="M10.9775 36.9648H11.2295L11.4815 37.0152L11.6999 37.0992L11.9351 37.2336L12.5903 37.6704L13.0271 37.9224L13.4807 38.1576L13.9679 38.376L14.5559 38.5944L15.2614 38.796L15.8998 38.9304L16.3366 38.9976L16.8742 39.048L17.1262 39.0648H18.067L18.6718 39.0144L19.2598 38.9304L19.8982 38.796L20.4862 38.628L21.1414 38.3928L21.4438 38.2584L21.9142 38.04L22.3678 37.788L22.6702 37.6032L23.0734 37.3344L23.3086 37.1832L23.5102 37.0824L23.7286 37.0152L23.9302 36.9816H24.3334L25.1733 37.1328L25.6101 37.2336L26.1645 37.4016L26.6685 37.5696L27.5253 37.9392L27.7941 38.0736L28.1973 38.292L28.6005 38.5272L28.8693 38.6952L29.1213 38.88L29.4069 39.0816L29.6757 39.2832L29.9277 39.5016L30.0957 39.6528L30.2805 39.804L30.5493 40.056L30.7173 40.224L30.8349 40.3584L31.0869 40.6272L31.2549 40.812L31.4061 40.9968L31.6749 41.3496L31.9101 41.6688L32.1117 41.9544L32.3301 42.3072L32.5317 42.6432L32.8677 43.332L32.9685 43.584L32.9853 43.6848V43.8192L32.9517 43.9704L32.8005 44.2392L32.5653 44.6088L32.3805 44.9112L32.2293 45.1296L32.0109 45.432L31.7757 45.7512L31.5573 46.0368L31.3389 46.3055L31.2045 46.4735L31.0365 46.6583L30.8853 46.8431L30.7005 47.0279L30.5829 47.1623L30.3477 47.3975L30.3309 47.4311H30.2973L30.2637 47.4983L29.7093 48.0527L29.5749 48.1703L29.5077 48.2375H29.4741V48.2711L29.3397 48.3887L29.2221 48.5063L29.0877 48.6239L28.2813 49.2791L28.0293 49.4639L27.7101 49.6823L27.3237 49.9511L27.1221 50.0855L26.8533 50.2535L25.7949 50.8583L25.3917 51.0599L24.9214 51.2783L24.4846 51.4799L23.8294 51.7319L23.1406 51.9839L22.4014 52.2023L21.7126 52.3871L20.8222 52.5719L20.2342 52.6727L19.3102 52.7903L18.4534 52.8743H16.3702V52.8575L15.967 52.8071L14.959 52.6895L14.5223 52.6223L13.4303 52.4039L12.9767 52.2863L11.9855 52.0007L11.3807 51.7823L10.8935 51.5975L10.5239 51.4463L9.4487 50.9423L9.12951 50.7743L8.72631 50.5391L8.30632 50.3039L7.93672 50.0687L7.07993 49.4807L6.81113 49.2791L6.57593 49.0775L6.40794 48.9431L6.12234 48.7079L5.95434 48.5567L5.81994 48.4391L5.61834 48.2543L5.48394 48.1367L5.21515 47.8847L4.47595 47.1455L4.35836 47.0111L4.17356 46.8263L4.03916 46.6583L3.82076 46.3895L3.66956 46.2048L3.48476 45.9696L3.28317 45.7176L2.84637 45.1128L2.67837 44.8608L2.42637 44.4576L2.27518 44.2056L2.20798 44.0544L2.17438 43.92V43.668L2.25838 43.416L2.42637 43.0632L2.56077 42.7944L2.71197 42.5088L2.87997 42.24L3.11517 41.8536L3.58556 41.2152L3.78716 40.9464L3.97196 40.728L4.20716 40.476L4.40876 40.2576L4.52635 40.14L4.64395 40.0056L4.87915 39.7872L5.06395 39.636L5.28235 39.4344L5.46714 39.2832L5.63514 39.1488L5.97114 38.9136L6.25674 38.712L6.50873 38.544L6.89513 38.3256L7.19753 38.1576L7.53352 37.9728L8.12152 37.7208L8.57511 37.536L9.21351 37.3344L9.6839 37.2L10.3559 37.0656L10.8263 36.9816L10.9775 36.9648Z" fill="white"/>
<path d="M66.5996 16.5063V16.4743H71.3996V38.8743H66.5996V25.3063L60.9036 34.8423H59.7196L53.9916 25.2743V38.8743H49.1916V16.4743H53.9916V16.5063L54.0556 16.4743L60.2956 26.9703L66.5356 16.4743L66.5996 16.5063ZM85.9941 22.8743H90.7621L85.3861 38.6503C84.4901 40.9543 83.2741 42.6716 81.7381 43.8023C80.2234 44.9329 78.4101 45.4236 76.2981 45.2743V40.8583C76.4261 40.8796 76.6181 40.8903 76.8741 40.8903C77.7701 40.8903 78.5167 40.6556 79.1141 40.1863C79.7114 39.7169 80.2127 39.0663 80.6181 38.2343L73.7061 22.8743H78.6341L82.8261 32.0583L85.9941 22.8743ZM113.638 38.8743L109.478 31.3863H106.054V38.8743H101.254V16.4743H110.502C111.867 16.4743 113.115 16.8049 114.246 17.4663C115.398 18.1276 116.305 19.0343 116.966 20.1863C117.649 21.3169 117.99 22.5649 117.99 23.9303C117.99 25.2743 117.659 26.5116 116.998 27.6423C116.358 28.7729 115.483 29.6689 114.374 30.3303L119.174 38.8743H113.638ZM106.054 21.0503V26.8103H110.502C111.291 26.8103 111.974 26.5329 112.55 25.9783C113.126 25.4023 113.414 24.7196 113.414 23.9303C113.414 23.1409 113.126 22.4689 112.55 21.9143C111.995 21.3383 111.313 21.0503 110.502 21.0503H106.054ZM127.802 39.3543C126.266 39.3543 124.847 38.9809 123.546 38.2343C122.266 37.4663 121.242 36.4316 120.474 35.1303C119.727 33.8289 119.354 32.4209 119.354 30.9063C119.354 29.3703 119.727 27.9623 120.474 26.6823C121.242 25.3809 122.266 24.3569 123.546 23.6103C124.847 22.8423 126.266 22.4583 127.802 22.4583C129.316 22.4583 130.714 22.8423 131.994 23.6103C133.295 24.3569 134.319 25.3809 135.066 26.6823C135.834 27.9623 136.218 29.3703 136.218 30.9063C136.218 32.4209 135.834 33.8289 135.066 35.1303C134.319 36.4316 133.295 37.4663 131.994 38.2343C130.714 38.9809 129.316 39.3543 127.802 39.3543ZM127.77 34.7783C128.836 34.7783 129.754 34.4049 130.522 33.6583C131.29 32.8903 131.674 31.9729 131.674 30.9063C131.674 29.8396 131.29 28.9223 130.522 28.1543C129.754 27.3863 128.836 27.0023 127.77 27.0023C126.703 27.0023 125.786 27.3863 125.018 28.1543C124.271 28.9223 123.898 29.8396 123.898 30.9063C123.898 31.9729 124.271 32.8903 125.018 33.6583C125.786 34.4049 126.703 34.7783 127.77 34.7783ZM143.2 33.8183C143.2 34.1596 143.274 34.4049 143.424 34.5543C143.594 34.7036 143.872 34.7783 144.256 34.7783C144.533 34.7783 144.864 34.7463 145.248 34.6823V38.8743C144.202 39.0236 143.392 39.0983 142.816 39.0983C141.429 39.0983 140.384 38.7356 139.68 38.0103C138.976 37.2636 138.624 35.9623 138.624 34.1063V16.4743H143.2V33.8183ZM154.989 22.4583C156.546 22.4583 157.933 22.8316 159.149 23.5783C160.386 24.3249 161.346 25.3383 162.029 26.6183C162.712 27.8983 163.053 29.3169 163.053 30.8743C163.053 31.4716 163.01 32.0156 162.925 32.5063H151.085C151.49 33.4876 152.034 34.2236 152.717 34.7143C153.4 35.1836 154.285 35.4183 155.373 35.4183C156.034 35.4183 156.674 35.2796 157.293 35.0023C157.933 34.7249 158.434 34.3516 158.797 33.8823L162.253 35.9303C161.506 37.0183 160.536 37.8503 159.341 38.4263C158.168 39.0023 156.813 39.2903 155.277 39.2903C153.549 39.2903 152.024 38.9276 150.701 38.2023C149.378 37.4556 148.354 36.4423 147.629 35.1623C146.904 33.8823 146.541 32.4529 146.541 30.8743C146.541 29.2956 146.893 27.8663 147.597 26.5863C148.322 25.3063 149.325 24.3036 150.605 23.5783C151.885 22.8316 153.346 22.4583 154.989 22.4583ZM158.765 28.9543C158.616 28.1436 158.189 27.5143 157.485 27.0663C156.802 26.6183 155.96 26.3943 154.957 26.3943C153.912 26.3943 153.005 26.6503 152.237 27.1623C151.469 27.6529 151.064 28.2503 151.021 28.9543H158.765Z" fill="white"/>
</svg>
