<svg width="793" height="55" viewBox="0 0 793 55" fill="none" xmlns="http://www.w3.org/2000/svg">
<path d="M68.8169 35.4842C68.8169 36.3772 69.0561 36.9992 69.5345 37.35C70.0449 37.7008 70.8103 37.8763 71.8309 37.8763C72.4688 37.8763 73.1705 37.8284 73.936 37.7327V44C72.3413 44.1595 71.0176 44.2392 69.9651 44.2392C67.286 44.2392 65.2766 43.6492 63.9371 42.4691C62.6294 41.2571 61.9755 39.0723 61.9755 35.9147V26.155H57.8612V20.0791H61.9755V14.5295L68.8169 12.2331V20.0791H73.8403V26.155H68.8169V35.4842ZM96.1346 20.0791H102.928V44H96.1346V42.182C95.0821 42.9794 93.9179 43.5854 92.6421 44C91.3982 44.4465 90.1384 44.6698 88.8626 44.6698C86.3748 44.6698 84.222 44.1276 82.404 43.0432C80.6179 41.9588 79.2464 40.4757 78.2896 38.5939C77.3328 36.6802 76.8543 34.5114 76.8543 32.0874C76.8543 29.6634 77.3328 27.4946 78.2896 25.5809C79.2464 23.6354 80.6179 22.1204 82.404 21.0359C84.222 19.9515 86.3748 19.4093 88.8626 19.4093C90.1703 19.4093 91.4461 19.6326 92.69 20.0791C93.9338 20.5256 95.0821 21.1476 96.1346 21.9449V20.0791ZM89.7716 38.1633C91.5577 38.1633 93.0567 37.5892 94.2687 36.441C95.4807 35.2928 96.0867 33.8097 96.0867 31.9917C96.0867 30.2375 95.4807 28.8023 94.2687 27.686C93.0567 26.5696 91.5577 26.0115 89.7716 26.0115C87.9855 26.0115 86.5184 26.5696 85.3702 27.686C84.222 28.8023 83.6479 30.2694 83.6479 32.0874C83.6479 33.9054 84.222 35.3725 85.3702 36.4888C86.5184 37.6051 87.9855 38.1633 89.7716 38.1633ZM119.893 19.4572C122.221 19.4572 124.294 20.0153 126.112 21.1316C127.962 22.2479 129.397 23.7629 130.418 25.6766C131.439 27.5903 131.949 29.7113 131.949 32.0396C131.949 32.9326 131.885 33.7459 131.758 34.4795H114.056C114.662 35.9466 115.475 37.047 116.496 37.7806C117.517 38.4822 118.84 38.8331 120.467 38.8331C121.456 38.8331 122.413 38.6258 123.337 38.2111C124.294 37.7965 125.044 37.2384 125.586 36.5367L130.753 39.5986C129.637 41.2252 128.185 42.4691 126.399 43.3302C124.645 44.1914 122.62 44.6219 120.323 44.6219C117.74 44.6219 115.46 44.0797 113.482 42.9953C111.505 41.879 109.974 40.364 108.889 38.4504C107.805 36.5367 107.263 34.3998 107.263 32.0396C107.263 29.6794 107.789 27.5424 108.841 25.6288C109.926 23.7151 111.425 22.216 113.339 21.1316C115.252 20.0153 117.437 19.4572 119.893 19.4572ZM125.538 29.1691C125.315 27.9571 124.677 27.0162 123.625 26.3464C122.604 25.6766 121.344 25.3417 119.845 25.3417C118.282 25.3417 116.927 25.7244 115.778 26.4899C114.63 27.2235 114.024 28.1165 113.96 29.1691H125.538ZM153.74 10.5108H160.533V44H153.74V42.182C152.687 42.9794 151.539 43.5854 150.295 44C149.083 44.4465 147.823 44.6698 146.516 44.6698C144.028 44.6698 141.875 44.1276 140.057 43.0432C138.271 41.9588 136.899 40.4757 135.943 38.5939C134.986 36.6802 134.507 34.5114 134.507 32.0874C134.507 29.6634 134.986 27.4946 135.943 25.5809C136.899 23.6354 138.271 22.1204 140.057 21.0359C141.875 19.9515 144.028 19.4093 146.516 19.4093C147.791 19.4093 149.051 19.6326 150.295 20.0791C151.539 20.4937 152.687 21.0997 153.74 21.8971V10.5108ZM147.425 38.1633C149.211 38.1633 150.71 37.5892 151.922 36.441C153.134 35.2928 153.74 33.8097 153.74 31.9917C153.74 30.2375 153.134 28.8023 151.922 27.686C150.71 26.5696 149.211 26.0115 147.425 26.0115C145.639 26.0115 144.171 26.5696 143.023 27.686C141.875 28.8023 141.301 30.2694 141.301 32.0874C141.301 33.9054 141.875 35.3725 143.023 36.4888C144.171 37.6051 145.639 38.1633 147.425 38.1633ZM183.782 20.0791H190.576V44H183.782V42.182C182.73 42.9794 181.566 43.5854 180.29 44C179.046 44.4465 177.786 44.6698 176.51 44.6698C174.022 44.6698 171.87 44.1276 170.052 43.0432C168.266 41.9588 166.894 40.4757 165.937 38.5939C164.98 36.6802 164.502 34.5114 164.502 32.0874C164.502 29.6634 164.98 27.4946 165.937 25.5809C166.894 23.6354 168.266 22.1204 170.052 21.0359C171.87 19.9515 174.022 19.4093 176.51 19.4093C177.818 19.4093 179.094 19.6326 180.338 20.0791C181.581 20.5256 182.73 21.1476 183.782 21.9449V20.0791ZM177.419 38.1633C179.205 38.1633 180.704 37.5892 181.916 36.441C183.128 35.2928 183.734 33.8097 183.734 31.9917C183.734 30.2375 183.128 28.8023 181.916 27.686C180.704 26.5696 179.205 26.0115 177.419 26.0115C175.633 26.0115 174.166 26.5696 173.018 27.686C171.87 28.8023 171.295 30.2694 171.295 32.0874C171.295 33.9054 171.87 35.3725 173.018 36.4888C174.166 37.6051 175.633 38.1633 177.419 38.1633ZM202.623 36.441C202.623 36.9513 202.735 37.3181 202.958 37.5414C203.213 37.7646 203.628 37.8763 204.202 37.8763C204.616 37.8763 205.111 37.8284 205.685 37.7327V44C204.122 44.2233 202.91 44.3349 202.049 44.3349C199.976 44.3349 198.413 43.7927 197.36 42.7083C196.308 41.592 195.782 39.6464 195.782 36.8716V10.5108H202.623V36.441Z" fill="white"/>
<path d="M31.0069 5.45663C32.0332 6.40951 33.3264 10.9342 33.8152 12.4458C34.5787 14.8071 35.2194 16.7282 36.1859 19.0059C36.9571 20.8221 37.2736 23.7464 38.9345 24.9228C40.0153 25.6889 41.9544 25.9891 42.2299 27.6279C42.52 29.3537 42.0721 31.1349 41.0919 32.5569C40.708 33.114 39.5589 34.089 39.4677 34.6657C39.1264 36.8163 40.6807 39.1017 40.3591 41.2855C40.1331 42.8245 39.2732 43.5555 37.7385 42.9055C37.2787 42.711 36.876 42.0695 36.255 42.3826C35.3738 43.3252 36.3975 44.5784 35.326 45.4536C34.8236 45.8648 34.2093 45.8853 33.584 45.7206C32.7233 45.4946 32.3292 44.1612 31.2816 44.476C30.9011 44.5903 28.6209 47.3142 27.9854 47.8499C25.5524 49.9024 21.9618 51.4746 18.7739 50.5157C17.3288 50.0815 15.0963 48.2397 13.9711 47.1837C13.3356 46.5874 11.5245 44.3054 10.9103 44.1083C9.58636 43.6844 9.53858 45.4383 9.04039 45.9877C8.57376 46.5029 7.80942 46.5029 7.25407 46.1625C6.0393 45.4178 6.45645 42.9004 5.88404 42.7264C5.11798 42.4926 4.36131 44.8735 2.86417 43.7876C2.01451 43.1708 2.02817 41.5943 2.09129 40.6474C2.24229 38.397 3.76928 36.0119 2.34124 33.88C1.05652 31.9615 -0.450002 31.488 0.126673 28.6917C0.493493 26.9122 2.13139 26.3901 3.16787 25.1992C4.47989 23.6918 5.40973 21.1778 6.25256 19.3523C7.7804 16.0407 7.96809 12.909 9.29973 9.6034C9.58209 8.90303 10.8455 6.10667 11.2456 5.68355C11.8316 5.06422 12.4689 5.01559 13.1633 5.48478C14.3166 6.26534 15.7037 10.5187 16.4391 11.9408C16.9415 12.9125 17.6564 14.3345 18.8439 14.4693C19.813 14.5794 23.5835 14.5939 24.3837 14.2714C25.4517 13.8414 26.0625 11.3479 26.4908 10.3797C26.7723 9.74416 27.2091 9.18625 27.4744 8.56351C27.8685 7.63708 27.9427 6.45643 28.5962 5.68611C29.2496 4.91579 30.2289 4.73238 31.0078 5.45493L31.0069 5.45663ZM12.3418 10.8975C11.0852 11.2089 10.5708 14.6638 10.7755 15.7327C10.9709 16.7547 12.5772 15.7472 13.13 15.4265C14.3712 14.7048 14.4309 14.7466 14.0692 13.2434C13.9089 12.5789 13.2017 10.6842 12.3418 10.8967V10.8975ZM29.2189 11.1739C28.7753 11.5987 28.1278 14.123 28.3129 14.7431C28.6047 15.7199 31.3874 17.1531 31.6937 16.1098C31.9427 15.2644 31.3362 12.0611 30.7263 11.4C30.3816 11.0272 29.6062 10.8028 29.2189 11.1739ZM17.978 37.3879C18.0531 34.0575 16.4647 27.6125 12.9031 26.3995C10.0982 25.444 8.35793 28.4272 8.11993 30.809C7.79747 34.0327 8.65565 36.9519 10.5836 39.5086C12.503 42.0524 15.9784 46.334 18.7722 47.7211C22.3278 49.4869 25.5473 47.5257 27.7738 44.7055C31.0487 40.557 34.6828 36.3224 34.2622 30.6546C34.0003 27.1263 30.972 23.958 27.9171 27.2602C25.6002 29.7648 24.6106 34.0686 24.382 37.3879C24.2788 37.5081 22.942 36.5826 22.6869 36.4836C21.1002 35.8651 20.1226 36.2567 18.7338 37.0108C18.483 37.1473 18.3568 37.4834 17.9789 37.3879H17.978Z" fill="white"/>
<path d="M17.9785 37.3877C18.3564 37.4833 18.4826 37.1472 18.7334 37.0107C20.1222 36.2566 21.0998 35.865 22.6866 36.4835C22.9416 36.5824 24.2784 37.5089 24.3816 37.3877C24.6102 34.0684 25.5989 29.7647 27.9167 27.2601C30.9716 23.9579 34 27.1262 34.2619 30.6545C34.6833 36.3222 31.0483 40.5569 27.7734 44.7054C25.5469 47.5256 22.3283 49.4868 18.7718 47.721C15.978 46.3339 12.5026 42.0532 10.5832 39.5085C8.65442 36.9518 7.79708 34.0326 8.11954 30.8089C8.35755 28.4271 10.0978 25.4439 12.9027 26.3993C16.4643 27.6124 18.0527 34.0573 17.9776 37.3877H17.9785ZM13.9383 28.8826C13.0964 29.0106 12.8131 31.1646 12.7747 31.8607C12.727 32.7231 12.8353 36.2139 14.0381 36.2702C14.9467 36.312 15.2597 34.5393 15.3135 33.8628C15.3851 32.9518 15.5012 28.6455 13.9383 28.8826ZM28.6179 28.8818C28.3552 28.9313 28.2264 29.0874 28.0882 29.2972C27.3418 30.4275 27.3588 34.599 28.0899 35.7515C28.7101 36.7292 29.384 36.2037 29.7252 35.3293C30.2584 33.9644 30.2285 30.9027 29.6109 29.5693C29.407 29.1292 29.1869 28.7743 28.6179 28.8818Z" fill="black"/>
<path d="M29.2194 11.1738C29.6075 10.8027 30.3821 11.027 30.7267 11.3998C31.3375 12.061 31.9432 15.2642 31.6941 16.1096C31.387 17.1529 28.6052 15.7198 28.3134 14.743C28.1283 14.1228 28.7758 11.5986 29.2194 11.1738Z" fill="black"/>
<path d="M12.3421 10.8975C13.202 10.6842 13.9091 12.5789 14.0695 13.2443C14.4321 14.7474 14.3715 14.7056 13.1303 15.4273C12.5775 15.7489 10.9712 16.7555 10.7758 15.7336C10.5711 14.6638 11.0855 11.2089 12.3421 10.8984V10.8975Z" fill="black"/>
<path d="M28.6175 28.8818C29.1874 28.7735 29.4066 29.1284 29.6105 29.5694C30.229 30.9028 30.258 33.9653 29.7248 35.3293C29.3836 36.2037 28.7096 36.7292 28.0895 35.7516C27.3575 34.5991 27.3405 30.4276 28.0878 29.2973C28.2259 29.0874 28.3548 28.9322 28.6175 28.8818Z" fill="white"/>
<path d="M13.9377 28.8827C15.5005 28.6456 15.3853 32.9519 15.3128 33.8629C15.2591 34.5394 14.946 36.3121 14.0375 36.2703C12.8338 36.2149 12.7263 32.7232 12.7741 31.8608C12.8125 31.1655 13.0957 29.0107 13.9377 28.8827Z" fill="white"/>
<path d="M18.6445 40.7063L20.383 43.4336C20.6441 43.6571 20.9955 44.2389 21.3692 44.18L23.8473 41.0373L23.6477 40.7063H18.6436H18.6445Z" fill="white"/>
</svg>
