<svg width="997" height="182" viewBox="0 0 997 182" fill="none" xmlns="http://www.w3.org/2000/svg">
<rect width="181.792" height="181.792" rx="42.2317" fill="white"/>
<path d="M129.05 54.8032L144.47 67.7351C136.803 68.2226 100.806 70.7917 99.6991 80.1738C98.9249 86.7229 115.452 94.0289 126.067 98.0834C123.739 100.676 120.304 105.16 118.108 111.514C116.834 115.196 111.667 130.181 120.596 141.863C126.595 149.708 138.529 155.506 145.468 151.812C153.732 147.414 155.923 129.034 146.46 107.041C142.148 104.059 137.835 101.071 133.528 98.0892C137.835 98.244 171.309 99.2476 173.328 90.2669C174.624 84.4921 162.403 76.8534 154.919 72.7186C155.923 69.3408 157.293 62.8491 154.919 55.8068C152.086 47.3939 145.606 43.1559 137.566 37.8972C129.342 32.5122 122.931 28.3144 114.621 29.4269C113.262 29.6104 101.597 31.3366 99.2919 39.8757C97.4625 46.6541 102.635 53.685 108.152 56.7875C114.466 60.3373 122.678 59.5631 129.044 54.7975L129.05 54.8032Z" fill="black"/>
<path d="M35.3618 38.8835C33.8593 39.8182 31.5424 40.9365 28.7267 40.8734C25.6701 40.8103 24.9475 39.4168 22.0916 38.8835C16.9475 37.92 10.2034 40.7358 8.49446 45.5128C8.31095 46.0175 7.66292 47.9214 8.31095 50.158C9.62994 54.7057 14.883 55.6347 23.0894 60.773C26.255 62.7515 28.6407 64.6038 30.0514 65.7451C26.5303 63.1874 21.9597 62.935 18.4959 65.0397C15.5253 66.8461 13.541 70.2813 13.7991 73.3723C14.2292 78.482 20.8586 83.5974 30.0514 82.9895C28.1704 84.3371 25.3833 86.3672 22.0916 88.9593C12.0672 96.8446 11.597 98.6511 11.4765 99.5744C10.8228 104.741 17.6242 111.44 24.0815 112.179C32.5862 113.149 42.7768 104.036 46.6363 88.6325C48.3567 92.0217 55.1295 104.397 67.528 106.542C73.6011 107.592 81.3316 106.238 82.123 103.227C82.6276 101.295 80.047 99.5973 72.5058 91.6203C69.7359 88.6898 67.4821 86.1665 65.8707 84.3257C72.5402 82.783 73.8879 80.6554 74.1631 79.3536C75.3961 73.464 58.5761 65.5788 54.5962 63.7666C58.232 63.7608 60.3309 63.0956 60.8987 61.7766C62.3381 58.4103 53.8277 50.7831 35.3618 38.8949V38.8835Z" fill="black"/>
<path d="M77.1443 90.2559C87.4668 102.769 91.636 102.976 93.3966 102.224C96.3041 100.986 95.8166 90.8179 94.7213 70.5283C94.1306 59.5807 93.322 51.3226 87.8224 43.185C86.4747 41.1951 85.1672 39.6811 84.2439 38.689C82.5407 39.2739 80.1665 40.3692 78.1421 42.5255C74.2196 46.7062 73.864 52.5097 74.9708 67.7928C75.4124 73.9462 76.0891 81.5448 77.15 90.2559H77.1443Z" fill="black"/>
<path d="M88.0925 112.248C93.0416 109.656 98.8107 109.524 103.014 112.248C109.07 116.171 111.284 125.645 106.61 133.656C91.3326 140.83 78.6416 140.865 72.1728 140.366C56.97 139.208 33.4632 131.879 31.7141 118.809C31.1865 114.858 32.775 111.348 34.1284 109.077C39.846 112.34 45.5635 115.598 51.2811 118.861C57.5148 118.861 65.1248 118.316 73.6008 116.486C79.0545 115.311 83.9004 113.808 88.0925 112.243V112.248Z" fill="black"/>
<path d="M234.541 99.9175L230.398 92.4592H226.987V99.9175H222.206V77.6064H231.418C232.778 77.6064 234.021 77.9358 235.147 78.5945C236.294 79.2532 237.197 80.1563 237.856 81.3037C238.536 82.4299 238.876 83.6729 238.876 85.0328C238.876 86.3715 238.547 87.6039 237.888 88.7301C237.25 89.8563 236.379 90.7487 235.274 91.4074L240.055 99.9175H234.541ZM226.987 82.1642V87.9014H231.418C232.204 87.9014 232.884 87.6251 233.458 87.0727C234.031 86.499 234.318 85.819 234.318 85.0328C234.318 84.2466 234.031 83.5773 233.458 83.0248C232.905 82.4511 232.225 82.1642 231.418 82.1642H226.987ZM248.711 83.5667C250.262 83.5667 251.643 83.9385 252.854 84.6822C254.087 85.4259 255.043 86.4352 255.723 87.7101C256.403 88.9851 256.743 90.3981 256.743 91.9492C256.743 92.5442 256.7 93.086 256.615 93.5748H244.822C245.226 94.5522 245.768 95.2853 246.448 95.774C247.128 96.2415 248.01 96.4752 249.093 96.4752C249.752 96.4752 250.389 96.3371 251.006 96.0609C251.643 95.7846 252.142 95.4128 252.504 94.9453L255.946 96.9852C255.202 98.0688 254.235 98.8975 253.045 99.4713C251.877 100.045 250.528 100.332 248.998 100.332C247.276 100.332 245.757 99.9706 244.44 99.2481C243.122 98.5044 242.102 97.4951 241.38 96.2202C240.658 94.9453 240.296 93.5216 240.296 91.9492C240.296 90.3768 240.647 88.9532 241.348 87.6783C242.071 86.4034 243.069 85.4047 244.344 84.6822C245.619 83.9385 247.075 83.5667 248.711 83.5667ZM252.472 90.0369C252.323 89.2294 251.898 88.6026 251.197 88.1564C250.517 87.7101 249.678 87.487 248.679 87.487C247.638 87.487 246.735 87.742 245.97 88.252C245.205 88.7407 244.801 89.3357 244.759 90.0369H252.472ZM261.475 81.8136C260.625 81.8136 259.956 81.5905 259.467 81.1443C259 80.6768 258.766 80.05 258.766 79.2638C258.766 78.4564 259 77.8189 259.467 77.3514C259.956 76.884 260.625 76.6502 261.475 76.6502C262.304 76.6502 262.963 76.884 263.451 77.3514C263.94 77.8189 264.184 78.4564 264.184 79.2638C264.184 80.05 263.94 80.6768 263.451 81.1443C262.963 81.5905 262.304 81.8136 261.475 81.8136ZM259.18 99.9175V83.981H263.738V99.9175H259.18ZM285.912 83.5348C286.847 83.5348 287.792 83.7366 288.749 84.1404C289.705 84.5441 290.523 85.2559 291.203 86.2759C291.883 87.2958 292.223 88.6663 292.223 90.3875V99.9175H287.697V90.3875C287.697 89.3675 287.41 88.6345 286.836 88.1882C286.263 87.742 285.583 87.5189 284.796 87.5189C284.138 87.5189 283.564 87.7208 283.075 88.1245C282.608 88.507 282.3 89.1126 282.151 89.9412V90.3875V99.9175H277.593V90.3875C277.593 89.3675 277.306 88.6345 276.733 88.1882C276.159 87.742 275.479 87.5189 274.693 87.5189C274.034 87.5189 273.46 87.7208 272.972 88.1245C272.483 88.5282 272.175 89.1763 272.047 90.0687V99.9175H267.489V83.981H272.047V85.0009C273.216 84.0235 274.48 83.5348 275.84 83.5348C276.775 83.5348 277.721 83.7366 278.677 84.1404C279.654 84.5441 280.451 85.2134 281.067 86.1484C281.62 85.4047 282.321 84.7885 283.171 84.2997C284.021 83.7898 284.935 83.5348 285.912 83.5348ZM307.087 83.981H311.613V99.9175H307.087V98.7063C306.386 99.2375 305.61 99.6412 304.76 99.9175C303.931 100.215 303.092 100.364 302.242 100.364C300.585 100.364 299.15 100.002 297.939 99.28C296.749 98.5576 295.836 97.5695 295.198 96.3158C294.561 95.0409 294.242 93.596 294.242 91.9811C294.242 90.3662 294.561 88.9213 295.198 87.6464C295.836 86.3502 296.749 85.3409 297.939 84.6185C299.15 83.896 300.585 83.5348 302.242 83.5348C303.113 83.5348 303.963 83.6835 304.792 83.981C305.621 84.2785 306.386 84.6928 307.087 85.2241V83.981ZM302.848 96.029C304.038 96.029 305.036 95.6465 305.844 94.8816C306.651 94.1166 307.055 93.1285 307.055 91.9174C307.055 90.7487 306.651 89.7925 305.844 89.0488C305.036 88.3051 304.038 87.9333 302.848 87.9333C301.658 87.9333 300.68 88.3051 299.915 89.0488C299.15 89.7925 298.768 90.7699 298.768 91.9811C298.768 93.1923 299.15 94.1697 299.915 94.9134C300.68 95.6571 301.658 96.029 302.848 96.029ZM327.07 83.981H331.627V99.1207C331.627 100.608 331.234 101.925 330.448 103.073C329.683 104.22 328.621 105.113 327.261 105.75C325.901 106.388 324.371 106.706 322.671 106.706C320.823 106.706 319.123 106.345 317.572 105.623C316.042 104.922 314.969 104.008 314.352 102.882L318.241 100.619C318.517 101.171 319.07 101.628 319.898 101.989C320.727 102.35 321.694 102.531 322.799 102.531C324.031 102.531 325.051 102.212 325.858 101.575C326.666 100.937 327.07 100.119 327.07 99.1207V98.7063C326.368 99.2375 325.604 99.6412 324.775 99.9175C323.967 100.215 323.128 100.364 322.257 100.364C320.599 100.364 319.165 100.002 317.954 99.28C316.764 98.5576 315.85 97.5695 315.213 96.3158C314.575 95.0409 314.257 93.596 314.257 91.9811C314.257 90.3662 314.575 88.9213 315.213 87.6464C315.85 86.3502 316.764 85.3409 317.954 84.6185C319.165 83.896 320.599 83.5348 322.257 83.5348C323.107 83.5348 323.946 83.6835 324.775 83.981C325.604 84.2572 326.368 84.661 327.07 85.1922V83.981ZM322.862 96.029C324.052 96.029 325.051 95.6465 325.858 94.8816C326.666 94.1166 327.07 93.1285 327.07 91.9174C327.07 90.7487 326.666 89.7925 325.858 89.0488C325.051 88.3051 324.052 87.9333 322.862 87.9333C321.673 87.9333 320.695 88.3051 319.93 89.0488C319.186 89.7925 318.815 90.7699 318.815 91.9811C318.815 93.1923 319.186 94.1697 319.93 94.9134C320.695 95.6571 321.673 96.029 322.862 96.029ZM337.889 81.8136C337.039 81.8136 336.37 81.5905 335.881 81.1443C335.414 80.6768 335.18 80.05 335.18 79.2638C335.18 78.4564 335.414 77.8189 335.881 77.3514C336.37 76.884 337.039 76.6502 337.889 76.6502C338.718 76.6502 339.377 76.884 339.865 77.3514C340.354 77.8189 340.598 78.4564 340.598 79.2638C340.598 80.05 340.354 80.6768 339.865 81.1443C339.377 81.5905 338.718 81.8136 337.889 81.8136ZM335.594 99.9175V83.981H340.152V99.9175H335.594ZM352.318 83.5348C353.253 83.5348 354.199 83.7366 355.155 84.1404C356.111 84.5441 356.929 85.2559 357.609 86.2759C358.289 87.2958 358.629 88.6663 358.629 90.3875V99.9175H354.071V90.3875C354.071 89.3675 353.784 88.6345 353.21 88.1882C352.658 87.742 351.989 87.5189 351.202 87.5189C350.416 87.5189 349.758 87.7951 349.226 88.3476C348.716 88.9001 348.461 89.7819 348.461 90.9931V99.9175H343.904V83.981H348.461V85.0647C349.673 84.0448 350.958 83.5348 352.318 83.5348ZM363.973 81.8136C363.123 81.8136 362.454 81.5905 361.965 81.1443C361.497 80.6768 361.264 80.05 361.264 79.2638C361.264 78.4564 361.497 77.8189 361.965 77.3514C362.454 76.884 363.123 76.6502 363.973 76.6502C364.801 76.6502 365.46 76.884 365.949 77.3514C366.438 77.8189 366.682 78.4564 366.682 79.2638C366.682 80.05 366.438 80.6768 365.949 81.1443C365.46 81.5905 364.801 81.8136 363.973 81.8136ZM361.678 99.9175V83.981H366.236V99.9175H361.678ZM378.402 83.5348C379.336 83.5348 380.282 83.7366 381.238 84.1404C382.194 84.5441 383.012 85.2559 383.692 86.2759C384.372 87.2958 384.712 88.6663 384.712 90.3875V99.9175H380.155V90.3875C380.155 89.3675 379.868 88.6345 379.294 88.1882C378.742 87.742 378.072 87.5189 377.286 87.5189C376.5 87.5189 375.841 87.7951 375.31 88.3476C374.8 88.9001 374.545 89.7819 374.545 90.9931V99.9175H369.987V83.981H374.545V85.0647C375.756 84.0448 377.042 83.5348 378.402 83.5348ZM399.873 83.981H404.431V99.1207C404.431 100.608 404.038 101.925 403.252 103.073C402.487 104.22 401.424 105.113 400.064 105.75C398.705 106.388 397.175 106.706 395.475 106.706C393.626 106.706 391.926 106.345 390.375 105.623C388.845 104.922 387.772 104.008 387.156 102.882L391.044 100.619C391.321 101.171 391.873 101.628 392.702 101.989C393.53 102.35 394.497 102.531 395.602 102.531C396.835 102.531 397.855 102.212 398.662 101.575C399.469 100.937 399.873 100.119 399.873 99.1207V98.7063C399.172 99.2375 398.407 99.6412 397.578 99.9175C396.771 100.215 395.932 100.364 395.06 100.364C393.403 100.364 391.969 100.002 390.758 99.28C389.568 98.5576 388.654 97.5695 388.016 96.3158C387.379 95.0409 387.06 93.596 387.06 91.9811C387.06 90.3662 387.379 88.9213 388.016 87.6464C388.654 86.3502 389.568 85.3409 390.758 84.6185C391.969 83.896 393.403 83.5348 395.06 83.5348C395.91 83.5348 396.75 83.6835 397.578 83.981C398.407 84.2572 399.172 84.661 399.873 85.1922V83.981ZM395.666 96.029C396.856 96.029 397.855 95.6465 398.662 94.8816C399.469 94.1166 399.873 93.1285 399.873 91.9174C399.873 90.7487 399.469 89.7925 398.662 89.0488C397.855 88.3051 396.856 87.9333 395.666 87.9333C394.476 87.9333 393.499 88.3051 392.734 89.0488C391.99 89.7925 391.618 90.7699 391.618 91.9811C391.618 93.1923 391.99 94.1697 392.734 94.9134C393.499 95.6571 394.476 96.029 395.666 96.029ZM430.896 96.7939C430.11 97.8989 429.111 98.7807 427.9 99.4394C426.71 100.077 425.424 100.396 424.043 100.396C422.513 100.396 421.1 100.024 419.804 99.28C418.529 98.5151 417.509 97.4845 416.744 96.1883C416 94.8922 415.629 93.4898 415.629 91.9811C415.629 90.4512 416 89.0488 416.744 87.7739C417.509 86.4777 418.529 85.4578 419.804 84.7141C421.1 83.9491 422.513 83.5667 424.043 83.5667C425.424 83.5667 426.71 83.8854 427.9 84.5228C429.09 85.1603 430.078 86.0209 430.864 87.1046L427.103 89.5906C426.21 88.592 425.191 88.0926 424.043 88.0926C422.981 88.0926 422.067 88.4751 421.302 89.24C420.537 90.005 420.155 90.9187 420.155 91.9811C420.155 93.0435 420.537 93.9572 421.302 94.7222C422.067 95.4659 422.981 95.8377 424.043 95.8377C425.191 95.8377 426.21 95.3384 427.103 94.3397L430.896 96.7939ZM448.021 99.9175H443.463V90.515C443.463 89.495 443.176 88.7619 442.603 88.3157C442.029 87.8483 441.349 87.6145 440.563 87.6145C439.904 87.6145 439.33 87.827 438.842 88.252C438.353 88.6557 438.045 89.2932 437.917 90.1644V99.9175H433.359V77.6064H437.917V85.1284C439.086 84.151 440.35 83.6623 441.71 83.6623C442.624 83.6623 443.548 83.8641 444.483 84.2679C445.439 84.6503 446.257 85.3409 446.937 86.3396C447.639 87.3383 448 88.6876 448.021 90.3875V99.9175ZM461.67 83.6623L461.351 87.9651C461.202 87.9014 460.958 87.8695 460.618 87.8695C459.322 87.8695 458.259 88.2414 457.43 88.9851C456.623 89.7075 456.219 90.6637 456.219 91.8536V99.9175H451.661V83.981H456.219V86.5627C456.602 85.734 457.218 85.0434 458.068 84.491C458.918 83.9385 459.948 83.6623 461.16 83.6623H461.67ZM470.794 100.396C469.264 100.396 467.851 100.024 466.555 99.28C465.28 98.5151 464.26 97.4845 463.495 96.1883C462.752 94.8922 462.38 93.4898 462.38 91.9811C462.38 90.4512 462.752 89.0488 463.495 87.7739C464.26 86.4777 465.28 85.4578 466.555 84.7141C467.851 83.9491 469.264 83.5667 470.794 83.5667C472.303 83.5667 473.695 83.9491 474.97 84.7141C476.266 85.4578 477.286 86.4777 478.029 87.7739C478.794 89.0488 479.177 90.4512 479.177 91.9811C479.177 93.4898 478.794 94.8922 478.029 96.1883C477.286 97.4845 476.266 98.5151 474.97 99.28C473.695 100.024 472.303 100.396 470.794 100.396ZM470.762 95.8377C471.825 95.8377 472.738 95.4659 473.503 94.7222C474.268 93.9572 474.651 93.0435 474.651 91.9811C474.651 90.9187 474.268 90.005 473.503 89.24C472.738 88.4751 471.825 88.0926 470.762 88.0926C469.7 88.0926 468.786 88.4751 468.021 89.24C467.278 90.005 466.906 90.9187 466.906 91.9811C466.906 93.0435 467.278 93.9572 468.021 94.7222C468.786 95.4659 469.7 95.8377 470.762 95.8377ZM489.988 83.5348C490.923 83.5348 491.868 83.7366 492.825 84.1404C493.781 84.5441 494.599 85.2559 495.279 86.2759C495.959 87.2958 496.299 88.6663 496.299 90.3875V99.9175H491.741V90.3875C491.741 89.3675 491.454 88.6345 490.88 88.1882C490.328 87.742 489.659 87.5189 488.872 87.5189C488.086 87.5189 487.427 87.7951 486.896 88.3476C486.386 88.9001 486.131 89.7819 486.131 90.9931V99.9175H481.573V83.981H486.131V85.0647C487.342 84.0448 488.628 83.5348 489.988 83.5348ZM501.643 81.8136C500.793 81.8136 500.123 81.5905 499.635 81.1443C499.167 80.6768 498.934 80.05 498.934 79.2638C498.934 78.4564 499.167 77.8189 499.635 77.3514C500.123 76.884 500.793 76.6502 501.643 76.6502C502.471 76.6502 503.13 76.884 503.619 77.3514C504.108 77.8189 504.352 78.4564 504.352 79.2638C504.352 80.05 504.108 80.6768 503.619 81.1443C503.13 81.5905 502.471 81.8136 501.643 81.8136ZM499.348 99.9175V83.981H503.906V99.9175H499.348ZM521.441 96.7939C520.655 97.8989 519.656 98.7807 518.445 99.4394C517.255 100.077 515.97 100.396 514.588 100.396C513.059 100.396 511.645 100.024 510.349 99.28C509.074 98.5151 508.054 97.4845 507.29 96.1883C506.546 94.8922 506.174 93.4898 506.174 91.9811C506.174 90.4512 506.546 89.0488 507.29 87.7739C508.054 86.4777 509.074 85.4578 510.349 84.7141C511.645 83.9491 513.059 83.5667 514.588 83.5667C515.97 83.5667 517.255 83.8854 518.445 84.5228C519.635 85.1603 520.623 86.0209 521.409 87.1046L517.648 89.5906C516.756 88.592 515.736 88.0926 514.588 88.0926C513.526 88.0926 512.612 88.4751 511.847 89.24C511.082 90.005 510.7 90.9187 510.7 91.9811C510.7 93.0435 511.082 93.9572 511.847 94.7222C512.612 95.4659 513.526 95.8377 514.588 95.8377C515.736 95.8377 516.756 95.3384 517.648 94.3397L521.441 96.7939ZM544.203 77.6064H548.729V99.9175H544.203V98.7063C543.502 99.2375 542.737 99.6412 541.908 99.9175C541.101 100.215 540.262 100.364 539.391 100.364C537.733 100.364 536.299 100.002 535.088 99.28C533.898 98.5576 532.984 97.5695 532.347 96.3158C531.709 95.0409 531.39 93.596 531.39 91.9811C531.39 90.3662 531.709 88.9213 532.347 87.6464C532.984 86.3502 533.898 85.3409 535.088 84.6185C536.299 83.896 537.733 83.5348 539.391 83.5348C540.24 83.5348 541.08 83.6835 541.908 83.981C542.737 84.2572 543.502 84.661 544.203 85.1922V77.6064ZM539.996 96.029C541.186 96.029 542.185 95.6465 542.992 94.8816C543.8 94.1166 544.203 93.1285 544.203 91.9174C544.203 90.7487 543.8 89.7925 542.992 89.0488C542.185 88.3051 541.186 87.9333 539.996 87.9333C538.806 87.9333 537.829 88.3051 537.064 89.0488C536.299 89.7925 535.916 90.7699 535.916 91.9811C535.916 93.1923 536.299 94.1697 537.064 94.9134C537.829 95.6571 538.806 96.029 539.996 96.029ZM555.024 81.8136C554.174 81.8136 553.504 81.5905 553.016 81.1443C552.548 80.6768 552.315 80.05 552.315 79.2638C552.315 78.4564 552.548 77.8189 553.016 77.3514C553.504 76.884 554.174 76.6502 555.024 76.6502C555.852 76.6502 556.511 76.884 557 77.3514C557.489 77.8189 557.733 78.4564 557.733 79.2638C557.733 80.05 557.489 80.6768 557 81.1443C556.511 81.5905 555.852 81.8136 555.024 81.8136ZM552.729 99.9175V83.981H557.287V99.9175H552.729ZM564.713 88.507C564.713 88.8682 564.936 89.1444 565.382 89.3357C565.829 89.5057 566.54 89.6863 567.518 89.8775C568.772 90.1325 569.813 90.4193 570.641 90.7381C571.47 91.0356 572.193 91.5455 572.809 92.268C573.446 92.9692 573.765 93.9466 573.765 95.2003C573.765 96.284 573.436 97.2189 572.777 98.0051C572.118 98.7701 571.247 99.3544 570.163 99.7581C569.08 100.141 567.911 100.332 566.657 100.332C564.936 100.332 563.47 100.024 562.259 99.4075C561.048 98.7701 560.134 97.8351 559.518 96.6027L563.247 94.6903C563.757 96.0502 564.894 96.7302 566.657 96.7302C567.38 96.7302 568.007 96.6027 568.538 96.3477C569.09 96.0715 569.367 95.689 569.367 95.2003C569.367 94.7753 569.112 94.4566 568.602 94.2441C568.113 94.0316 567.327 93.8085 566.243 93.5748C565.011 93.2985 563.98 93.0117 563.151 92.7142C562.323 92.3955 561.611 91.9174 561.016 91.2799C560.421 90.6212 560.123 89.75 560.123 88.6663C560.123 87.6251 560.421 86.7221 561.016 85.9571C561.611 85.1709 562.408 84.576 563.406 84.1722C564.426 83.7685 565.531 83.5667 566.721 83.5667C568.123 83.5667 569.388 83.8535 570.514 84.4272C571.64 85.0009 572.522 85.8296 573.159 86.9133L569.462 88.7301C569.207 88.1989 568.857 87.8058 568.41 87.5508C567.985 87.2958 567.422 87.1683 566.721 87.1683C566.105 87.1683 565.616 87.2958 565.255 87.5508C564.894 87.7845 564.713 88.1032 564.713 88.507ZM583.595 83.5667C585.146 83.5667 586.527 83.9385 587.738 84.6822C588.97 85.4259 589.927 86.4352 590.607 87.7101C591.287 88.9851 591.627 90.3981 591.627 91.9492C591.627 92.5442 591.584 93.086 591.499 93.5748H579.706C580.11 94.5522 580.652 95.2853 581.332 95.774C582.012 96.2415 582.893 96.4752 583.977 96.4752C584.636 96.4752 585.273 96.3371 585.889 96.0609C586.527 95.7846 587.026 95.4128 587.387 94.9453L590.83 96.9852C590.086 98.0688 589.119 98.8975 587.929 99.4713C586.761 100.045 585.411 100.332 583.881 100.332C582.16 100.332 580.641 99.9706 579.324 99.2481C578.006 98.5044 576.986 97.4951 576.264 96.2202C575.541 94.9453 575.18 93.5216 575.18 91.9492C575.18 90.3768 575.531 88.9532 576.232 87.6783C576.954 86.4034 577.953 85.4047 579.228 84.6822C580.503 83.9385 581.958 83.5667 583.595 83.5667ZM587.356 90.0369C587.207 89.2294 586.782 88.6026 586.081 88.1564C585.401 87.7101 584.561 87.487 583.563 87.487C582.522 87.487 581.618 87.742 580.854 88.252C580.089 88.7407 579.685 89.3357 579.642 90.0369H587.356ZM606.176 83.981H610.702V99.9175H606.176V98.7063C605.475 99.2375 604.699 99.6412 603.849 99.9175C603.02 100.215 602.181 100.364 601.331 100.364C599.674 100.364 598.239 100.002 597.028 99.28C595.838 98.5576 594.925 97.5695 594.287 96.3158C593.65 95.0409 593.331 93.596 593.331 91.9811C593.331 90.3662 593.65 88.9213 594.287 87.6464C594.925 86.3502 595.838 85.3409 597.028 84.6185C598.239 83.896 599.674 83.5348 601.331 83.5348C602.202 83.5348 603.052 83.6835 603.881 83.981C604.71 84.2785 605.475 84.6928 606.176 85.2241V83.981ZM601.937 96.029C603.127 96.029 604.125 95.6465 604.933 94.8816C605.74 94.1166 606.144 93.1285 606.144 91.9174C606.144 90.7487 605.74 89.7925 604.933 89.0488C604.125 88.3051 603.127 87.9333 601.937 87.9333C600.747 87.9333 599.769 88.3051 599.004 89.0488C598.239 89.7925 597.857 90.7699 597.857 91.9811C597.857 93.1923 598.239 94.1697 599.004 94.9134C599.769 95.6571 600.747 96.029 601.937 96.029ZM618.063 88.507C618.063 88.8682 618.286 89.1444 618.732 89.3357C619.178 89.5057 619.89 89.6863 620.868 89.8775C622.121 90.1325 623.163 90.4193 623.991 90.7381C624.82 91.0356 625.542 91.5455 626.159 92.268C626.796 92.9692 627.115 93.9466 627.115 95.2003C627.115 96.284 626.785 97.2189 626.127 98.0051C625.468 98.7701 624.597 99.3544 623.513 99.7581C622.429 100.141 621.261 100.332 620.007 100.332C618.286 100.332 616.82 100.024 615.609 99.4075C614.398 98.7701 613.484 97.8351 612.868 96.6027L616.597 94.6903C617.107 96.0502 618.244 96.7302 620.007 96.7302C620.73 96.7302 621.356 96.6027 621.888 96.3477C622.44 96.0715 622.716 95.689 622.716 95.2003C622.716 94.7753 622.461 94.4566 621.951 94.2441C621.463 94.0316 620.676 93.8085 619.593 93.5748C618.36 93.2985 617.33 93.0117 616.501 92.7142C615.672 92.3955 614.961 91.9174 614.366 91.2799C613.771 90.6212 613.473 89.75 613.473 88.6663C613.473 87.6251 613.771 86.7221 614.366 85.9571C614.961 85.1709 615.757 84.576 616.756 84.1722C617.776 83.7685 618.881 83.5667 620.071 83.5667C621.473 83.5667 622.738 83.8535 623.864 84.4272C624.99 85.0009 625.872 85.8296 626.509 86.9133L622.812 88.7301C622.557 88.1989 622.206 87.8058 621.76 87.5508C621.335 87.2958 620.772 87.1683 620.071 87.1683C619.455 87.1683 618.966 87.2958 618.605 87.5508C618.244 87.7845 618.063 88.1032 618.063 88.507ZM636.944 83.5667C638.496 83.5667 639.877 83.9385 641.088 84.6822C642.32 85.4259 643.276 86.4352 643.956 87.7101C644.636 88.9851 644.976 90.3981 644.976 91.9492C644.976 92.5442 644.934 93.086 644.849 93.5748H633.056C633.46 94.5522 634.001 95.2853 634.681 95.774C635.361 96.2415 636.243 96.4752 637.327 96.4752C637.986 96.4752 638.623 96.3371 639.239 96.0609C639.877 95.7846 640.376 95.4128 640.737 94.9453L644.18 96.9852C643.436 98.0688 642.469 98.8975 641.279 99.4713C640.11 100.045 638.761 100.332 637.231 100.332C635.51 100.332 633.991 99.9706 632.673 99.2481C631.356 98.5044 630.336 97.4951 629.614 96.2202C628.891 94.9453 628.53 93.5216 628.53 91.9492C628.53 90.3768 628.881 88.9532 629.582 87.6783C630.304 86.4034 631.303 85.4047 632.578 84.6822C633.853 83.9385 635.308 83.5667 636.944 83.5667ZM640.705 90.0369C640.557 89.2294 640.132 88.6026 639.43 88.1564C638.751 87.7101 637.911 87.487 636.913 87.487C635.871 87.487 634.968 87.742 634.203 88.252C633.438 88.7407 633.035 89.3357 632.992 90.0369H640.705ZM674.55 83.5348C675.485 83.5348 676.431 83.7366 677.387 84.1404C678.343 84.5441 679.161 85.2559 679.841 86.2759C680.521 87.2958 680.861 88.6663 680.861 90.3875V99.9175H676.335V90.3875C676.335 89.3675 676.048 88.6345 675.475 88.1882C674.901 87.742 674.221 87.5189 673.435 87.5189C672.776 87.5189 672.202 87.7208 671.714 88.1245C671.246 88.507 670.938 89.1126 670.789 89.9412V90.3875V99.9175H666.231V90.3875C666.231 89.3675 665.945 88.6345 665.371 88.1882C664.797 87.742 664.117 87.5189 663.331 87.5189C662.672 87.5189 662.099 87.7208 661.61 88.1245C661.121 88.5282 660.813 89.1763 660.685 90.0687V99.9175H656.128V83.981H660.685V85.0009C661.854 84.0235 663.118 83.5348 664.478 83.5348C665.413 83.5348 666.359 83.7366 667.315 84.1404C668.293 84.5441 669.089 85.2134 669.706 86.1484C670.258 85.4047 670.959 84.7885 671.809 84.2997C672.659 83.7898 673.573 83.5348 674.55 83.5348ZM695.725 83.981H700.251V99.9175H695.725V98.7063C695.024 99.2375 694.248 99.6412 693.398 99.9175C692.57 100.215 691.73 100.364 690.88 100.364C689.223 100.364 687.789 100.002 686.578 99.28C685.388 98.5576 684.474 97.5695 683.836 96.3158C683.199 95.0409 682.88 93.596 682.88 91.9811C682.88 90.3662 683.199 88.9213 683.836 87.6464C684.474 86.3502 685.388 85.3409 686.578 84.6185C687.789 83.896 689.223 83.5348 690.88 83.5348C691.752 83.5348 692.602 83.6835 693.43 83.981C694.259 84.2785 695.024 84.6928 695.725 85.2241V83.981ZM691.486 96.029C692.676 96.029 693.675 95.6465 694.482 94.8816C695.289 94.1166 695.693 93.1285 695.693 91.9174C695.693 90.7487 695.289 89.7925 694.482 89.0488C693.675 88.3051 692.676 87.9333 691.486 87.9333C690.296 87.9333 689.319 88.3051 688.554 89.0488C687.789 89.7925 687.406 90.7699 687.406 91.9811C687.406 93.1923 687.789 94.1697 688.554 94.9134C689.319 95.6571 690.296 96.029 691.486 96.029ZM712.569 83.5348C713.504 83.5348 714.45 83.7366 715.406 84.1404C716.362 84.5441 717.18 85.2559 717.86 86.2759C718.54 87.2958 718.88 88.6663 718.88 90.3875V99.9175H714.322V90.3875C714.322 89.3675 714.036 88.6345 713.462 88.1882C712.909 87.742 712.24 87.5189 711.454 87.5189C710.668 87.5189 710.009 87.7951 709.478 88.3476C708.968 88.9001 708.713 89.7819 708.713 90.9931V99.9175H704.155V83.981H708.713V85.0647C709.924 84.0448 711.21 83.5348 712.569 83.5348ZM734.041 83.981H738.567V99.9175H734.041V98.7063C733.34 99.2375 732.564 99.6412 731.714 99.9175C730.886 100.215 730.046 100.364 729.196 100.364C727.539 100.364 726.105 100.002 724.894 99.28C723.704 98.5576 722.79 97.5695 722.152 96.3158C721.515 95.0409 721.196 93.596 721.196 91.9811C721.196 90.3662 721.515 88.9213 722.152 87.6464C722.79 86.3502 723.704 85.3409 724.894 84.6185C726.105 83.896 727.539 83.5348 729.196 83.5348C730.068 83.5348 730.918 83.6835 731.746 83.981C732.575 84.2785 733.34 84.6928 734.041 85.2241V83.981ZM729.802 96.029C730.992 96.029 731.991 95.6465 732.798 94.8816C733.605 94.1166 734.009 93.1285 734.009 91.9174C734.009 90.7487 733.605 89.7925 732.798 89.0488C731.991 88.3051 730.992 87.9333 729.802 87.9333C728.612 87.9333 727.635 88.3051 726.87 89.0488C726.105 89.7925 725.722 90.7699 725.722 91.9811C725.722 93.1923 726.105 94.1697 726.87 94.9134C727.635 95.6571 728.612 96.029 729.802 96.029ZM754.024 83.981H758.582V99.1207C758.582 100.608 758.189 101.925 757.402 103.073C756.638 104.22 755.575 105.113 754.215 105.75C752.855 106.388 751.325 106.706 749.625 106.706C747.777 106.706 746.077 106.345 744.526 105.623C742.996 104.922 741.923 104.008 741.307 102.882L745.195 100.619C745.471 101.171 746.024 101.628 746.853 101.989C747.681 102.35 748.648 102.531 749.753 102.531C750.985 102.531 752.005 102.212 752.813 101.575C753.62 100.937 754.024 100.119 754.024 99.1207V98.7063C753.323 99.2375 752.558 99.6412 751.729 99.9175C750.922 100.215 750.082 100.364 749.211 100.364C747.554 100.364 746.119 100.002 744.908 99.28C743.718 98.5576 742.805 97.5695 742.167 96.3158C741.53 95.0409 741.211 93.596 741.211 91.9811C741.211 90.3662 741.53 88.9213 742.167 87.6464C742.805 86.3502 743.718 85.3409 744.908 84.6185C746.119 83.896 747.554 83.5348 749.211 83.5348C750.061 83.5348 750.9 83.6835 751.729 83.981C752.558 84.2572 753.323 84.661 754.024 85.1922V83.981ZM749.817 96.029C751.007 96.029 752.005 95.6465 752.813 94.8816C753.62 94.1166 754.024 93.1285 754.024 91.9174C754.024 90.7487 753.62 89.7925 752.813 89.0488C752.005 88.3051 751.007 87.9333 749.817 87.9333C748.627 87.9333 747.649 88.3051 746.884 89.0488C746.141 89.7925 745.769 90.7699 745.769 91.9811C745.769 93.1923 746.141 94.1697 746.884 94.9134C747.649 95.6571 748.627 96.029 749.817 96.029ZM769.416 83.5667C770.967 83.5667 772.349 83.9385 773.56 84.6822C774.792 85.4259 775.748 86.4352 776.428 87.7101C777.108 88.9851 777.448 90.3981 777.448 91.9492C777.448 92.5442 777.406 93.086 777.321 93.5748H765.528C765.932 94.5522 766.473 95.2853 767.153 95.774C767.833 96.2415 768.715 96.4752 769.799 96.4752C770.457 96.4752 771.095 96.3371 771.711 96.0609C772.349 95.7846 772.848 95.4128 773.209 94.9453L776.651 96.9852C775.908 98.0688 774.941 98.8975 773.751 99.4713C772.582 100.045 771.233 100.332 769.703 100.332C767.982 100.332 766.463 99.9706 765.145 99.2481C763.828 98.5044 762.808 97.4951 762.086 96.2202C761.363 94.9453 761.002 93.5216 761.002 91.9492C761.002 90.3768 761.352 88.9532 762.054 87.6783C762.776 86.4034 763.775 85.4047 765.05 84.6822C766.325 83.9385 767.78 83.5667 769.416 83.5667ZM773.177 90.0369C773.029 89.2294 772.604 88.6026 771.902 88.1564C771.222 87.7101 770.383 87.487 769.384 87.487C768.343 87.487 767.44 87.742 766.675 88.252C765.91 88.7407 765.507 89.3357 765.464 90.0369H773.177ZM798.245 83.5348C799.18 83.5348 800.125 83.7366 801.081 84.1404C802.038 84.5441 802.856 85.2559 803.536 86.2759C804.215 87.2958 804.555 88.6663 804.555 90.3875V99.9175H800.03V90.3875C800.03 89.3675 799.743 88.6345 799.169 88.1882C798.595 87.742 797.915 87.5189 797.129 87.5189C796.47 87.5189 795.897 87.7208 795.408 88.1245C794.94 88.507 794.632 89.1126 794.484 89.9412V90.3875V99.9175H789.926V90.3875C789.926 89.3675 789.639 88.6345 789.065 88.1882C788.491 87.742 787.812 87.5189 787.025 87.5189C786.367 87.5189 785.793 87.7208 785.304 88.1245C784.815 88.5282 784.507 89.1763 784.38 90.0687V99.9175H779.822V83.981H784.38V85.0009C785.549 84.0235 786.813 83.5348 788.173 83.5348C789.108 83.5348 790.053 83.7366 791.009 84.1404C791.987 84.5441 792.784 85.2134 793.4 86.1484C793.952 85.4047 794.654 84.7885 795.504 84.2997C796.353 83.7898 797.267 83.5348 798.245 83.5348ZM815.078 83.5667C816.629 83.5667 818.01 83.9385 819.222 84.6822C820.454 85.4259 821.41 86.4352 822.09 87.7101C822.77 88.9851 823.11 90.3981 823.11 91.9492C823.11 92.5442 823.068 93.086 822.983 93.5748H811.19C811.593 94.5522 812.135 95.2853 812.815 95.774C813.495 96.2415 814.377 96.4752 815.461 96.4752C816.119 96.4752 816.757 96.3371 817.373 96.0609C818.01 95.7846 818.51 95.4128 818.871 94.9453L822.313 96.9852C821.569 98.0688 820.603 98.8975 819.413 99.4713C818.244 100.045 816.895 100.332 815.365 100.332C813.644 100.332 812.124 99.9706 810.807 99.2481C809.49 98.5044 808.47 97.4951 807.747 96.2202C807.025 94.9453 806.664 93.5216 806.664 91.9492C806.664 90.3768 807.014 88.9532 807.715 87.6783C808.438 86.4034 809.437 85.4047 810.711 84.6822C811.986 83.9385 813.442 83.5667 815.078 83.5667ZM818.839 90.0369C818.69 89.2294 818.265 88.6026 817.564 88.1564C816.884 87.7101 816.045 87.487 815.046 87.487C814.005 87.487 813.102 87.742 812.337 88.252C811.572 88.7407 811.168 89.3357 811.126 90.0369H818.839ZM833.898 83.5348C834.833 83.5348 835.779 83.7366 836.735 84.1404C837.691 84.5441 838.509 85.2559 839.189 86.2759C839.869 87.2958 840.209 88.6663 840.209 90.3875V99.9175H835.651V90.3875C835.651 89.3675 835.364 88.6345 834.791 88.1882C834.238 87.742 833.569 87.5189 832.783 87.5189C831.997 87.5189 831.338 87.7951 830.807 88.3476C830.297 88.9001 830.042 89.7819 830.042 90.9931V99.9175H825.484V83.981H830.042V85.0647C831.253 84.0448 832.538 83.5348 833.898 83.5348ZM848.936 94.2441C848.936 94.8391 849.095 95.2534 849.414 95.4871C849.754 95.7209 850.264 95.8377 850.944 95.8377C851.369 95.8377 851.837 95.8059 852.346 95.7421V99.9175C851.284 100.024 850.402 100.077 849.701 100.077C847.916 100.077 846.577 99.6837 845.685 98.8975C844.814 98.0901 844.378 96.6346 844.378 94.531V88.0289H841.637V83.981H844.378V80.2837L848.936 78.7538V83.981H852.283V88.0289H848.936V94.2441ZM869.79 94.2441C869.79 94.8391 869.95 95.2534 870.269 95.4871C870.609 95.7209 871.119 95.8377 871.798 95.8377C872.223 95.8377 872.691 95.8059 873.201 95.7421V99.9175C872.138 100.024 871.257 100.077 870.555 100.077C868.771 100.077 867.432 99.6837 866.539 98.8975C865.668 98.0901 865.233 96.6346 865.233 94.531V88.0289H862.492V83.981H865.233V80.2837L869.79 78.7538V83.981H873.137V88.0289H869.79V94.2441ZM890.6 99.9175H886.043V90.515C886.043 89.495 885.756 88.7619 885.182 88.3157C884.608 87.8483 883.928 87.6145 883.142 87.6145C882.484 87.6145 881.91 87.827 881.421 88.252C880.932 88.6557 880.624 89.2932 880.497 90.1644V99.9175H875.939V77.6064H880.497V85.1284C881.665 84.151 882.93 83.6623 884.29 83.6623C885.203 83.6623 886.128 83.8641 887.063 84.2679C888.019 84.6503 888.837 85.3409 889.517 86.3396C890.218 87.3383 890.579 88.6876 890.6 90.3875V99.9175ZM904.249 83.6623L903.93 87.9651C903.782 87.9014 903.537 87.8695 903.197 87.8695C901.901 87.8695 900.839 88.2414 900.01 88.9851C899.203 89.7075 898.799 90.6637 898.799 91.8536V99.9175H894.241V83.981H898.799V86.5627C899.181 85.734 899.798 85.0434 900.647 84.491C901.497 83.9385 902.528 83.6623 903.739 83.6623H904.249ZM913.374 100.396C911.844 100.396 910.431 100.024 909.135 99.28C907.86 98.5151 906.84 97.4845 906.075 96.1883C905.331 94.8922 904.959 93.4898 904.959 91.9811C904.959 90.4512 905.331 89.0488 906.075 87.7739C906.84 86.4777 907.86 85.4578 909.135 84.7141C910.431 83.9491 911.844 83.5667 913.374 83.5667C914.882 83.5667 916.274 83.9491 917.549 84.7141C918.845 85.4578 919.865 86.4777 920.609 87.7739C921.374 89.0488 921.756 90.4512 921.756 91.9811C921.756 93.4898 921.374 94.8922 920.609 96.1883C919.865 97.4845 918.845 98.5151 917.549 99.28C916.274 100.024 914.882 100.396 913.374 100.396ZM913.342 95.8377C914.404 95.8377 915.318 95.4659 916.083 94.7222C916.848 93.9572 917.23 93.0435 917.23 91.9811C917.23 90.9187 916.848 90.005 916.083 89.24C915.318 88.4751 914.404 88.0926 913.342 88.0926C912.279 88.0926 911.366 88.4751 910.601 89.24C909.857 90.005 909.485 90.9187 909.485 91.9811C909.485 93.0435 909.857 93.9572 910.601 94.7222C911.366 95.4659 912.279 95.8377 913.342 95.8377ZM933.842 83.981H938.4V99.9175H933.842V98.8338C932.631 99.8537 931.346 100.364 929.986 100.364C929.051 100.364 928.105 100.162 927.149 99.7581C926.193 99.3544 925.375 98.6426 924.695 97.6226C924.015 96.6027 923.675 95.2322 923.675 93.511V83.981H928.233V93.511C928.233 94.5097 928.52 95.2428 929.093 95.7103C929.667 96.1565 930.347 96.3796 931.133 96.3796C931.898 96.3796 932.536 96.1034 933.046 95.5509C933.577 94.9984 933.842 94.1166 933.842 92.9054V83.981ZM953.572 83.981H958.13V99.1207C958.13 100.608 957.737 101.925 956.951 103.073C956.186 104.22 955.123 105.113 953.763 105.75C952.404 106.388 950.874 106.706 949.174 106.706C947.325 106.706 945.625 106.345 944.074 105.623C942.544 104.922 941.471 104.008 940.855 102.882L944.743 100.619C945.02 101.171 945.572 101.628 946.401 101.989C947.23 102.35 948.196 102.531 949.301 102.531C950.534 102.531 951.554 102.212 952.361 101.575C953.169 100.937 953.572 100.119 953.572 99.1207V98.7063C952.871 99.2375 952.106 99.6412 951.277 99.9175C950.47 100.215 949.631 100.364 948.759 100.364C947.102 100.364 945.668 100.002 944.457 99.28C943.267 98.5576 942.353 97.5695 941.715 96.3158C941.078 95.0409 940.759 93.596 940.759 91.9811C940.759 90.3662 941.078 88.9213 941.715 87.6464C942.353 86.3502 943.267 85.3409 944.457 84.6185C945.668 83.896 947.102 83.5348 948.759 83.5348C949.609 83.5348 950.449 83.6835 951.277 83.981C952.106 84.2572 952.871 84.661 953.572 85.1922V83.981ZM949.365 96.029C950.555 96.029 951.554 95.6465 952.361 94.8816C953.169 94.1166 953.572 93.1285 953.572 91.9174C953.572 90.7487 953.169 89.7925 952.361 89.0488C951.554 88.3051 950.555 87.9333 949.365 87.9333C948.175 87.9333 947.198 88.3051 946.433 89.0488C945.689 89.7925 945.317 90.7699 945.317 91.9811C945.317 93.1923 945.689 94.1697 946.433 94.9134C947.198 95.6571 948.175 96.029 949.365 96.029ZM976.695 99.9175H972.137V90.515C972.137 89.495 971.85 88.7619 971.276 88.3157C970.703 87.8483 970.023 87.6145 969.237 87.6145C968.578 87.6145 968.004 87.827 967.515 88.252C967.027 88.6557 966.719 89.2932 966.591 90.1644V99.9175H962.033V77.6064H966.591V85.1284C967.76 84.151 969.024 83.6623 970.384 83.6623C971.298 83.6623 972.222 83.8641 973.157 84.2679C974.113 84.6503 974.931 85.3409 975.611 86.3396C976.312 87.3383 976.674 88.6876 976.695 90.3875V99.9175ZM234.159 120.981H238.685V136.917H234.159V135.706C233.458 136.238 232.682 136.641 231.832 136.917C231.003 137.215 230.164 137.364 229.314 137.364C227.657 137.364 226.222 137.002 225.011 136.28C223.821 135.558 222.908 134.57 222.27 133.316C221.633 132.041 221.314 130.596 221.314 128.981C221.314 127.366 221.633 125.921 222.27 124.646C222.908 123.35 223.821 122.341 225.011 121.618C226.222 120.896 227.657 120.535 229.314 120.535C230.185 120.535 231.035 120.684 231.864 120.981C232.693 121.278 233.458 121.693 234.159 122.224V120.981ZM229.92 133.029C231.11 133.029 232.108 132.647 232.916 131.882C233.723 131.117 234.127 130.129 234.127 128.917C234.127 127.749 233.723 126.793 232.916 126.049C232.108 125.305 231.11 124.933 229.92 124.933C228.73 124.933 227.752 125.305 226.987 126.049C226.222 126.793 225.84 127.77 225.84 128.981C225.84 130.192 226.222 131.17 226.987 131.913C227.752 132.657 228.73 133.029 229.92 133.029ZM269.166 120.535C270.101 120.535 271.047 120.737 272.003 121.14C272.959 121.544 273.777 122.256 274.457 123.276C275.137 124.296 275.477 125.666 275.477 127.387V136.917H270.951V127.387C270.951 126.368 270.664 125.634 270.091 125.188C269.517 124.742 268.837 124.519 268.051 124.519C267.392 124.519 266.818 124.721 266.33 125.124C265.862 125.507 265.554 126.113 265.405 126.941V127.387V136.917H260.847V127.387C260.847 126.368 260.561 125.634 259.987 125.188C259.413 124.742 258.733 124.519 257.947 124.519C257.288 124.519 256.715 124.721 256.226 125.124C255.737 125.528 255.429 126.176 255.301 127.069V136.917H250.744V120.981H255.301V122.001C256.47 121.024 257.734 120.535 259.094 120.535C260.029 120.535 260.975 120.737 261.931 121.14C262.909 121.544 263.705 122.213 264.322 123.148C264.874 122.405 265.575 121.788 266.425 121.3C267.275 120.79 268.189 120.535 269.166 120.535ZM286 137.396C284.47 137.396 283.057 137.024 281.761 136.28C280.486 135.515 279.466 134.485 278.701 133.188C277.957 131.892 277.585 130.49 277.585 128.981C277.585 127.451 277.957 126.049 278.701 124.774C279.466 123.478 280.486 122.458 281.761 121.714C283.057 120.949 284.47 120.567 286 120.567C287.508 120.567 288.9 120.949 290.175 121.714C291.471 122.458 292.491 123.478 293.235 124.774C294 126.049 294.382 127.451 294.382 128.981C294.382 130.49 294 131.892 293.235 133.188C292.491 134.485 291.471 135.515 290.175 136.28C288.9 137.024 287.508 137.396 286 137.396ZM285.968 132.838C287.03 132.838 287.944 132.466 288.709 131.722C289.474 130.957 289.856 130.044 289.856 128.981C289.856 127.919 289.474 127.005 288.709 126.24C287.944 125.475 287.03 125.093 285.968 125.093C284.905 125.093 283.992 125.475 283.227 126.24C282.483 127.005 282.111 127.919 282.111 128.981C282.111 130.044 282.483 130.957 283.227 131.722C283.992 132.466 284.905 132.838 285.968 132.838ZM306.787 120.662L306.468 124.965C306.32 124.901 306.075 124.87 305.735 124.87C304.439 124.87 303.377 125.241 302.548 125.985C301.74 126.708 301.337 127.664 301.337 128.854V136.917H296.779V120.981H301.337V123.563C301.719 122.734 302.335 122.043 303.185 121.491C304.035 120.939 305.066 120.662 306.277 120.662H306.787ZM316.005 120.567C317.556 120.567 318.937 120.939 320.148 121.682C321.381 122.426 322.337 123.435 323.017 124.71C323.697 125.985 324.037 127.398 324.037 128.949C324.037 129.544 323.994 130.086 323.91 130.575H312.117C312.52 131.552 313.062 132.285 313.742 132.774C314.422 133.241 315.304 133.475 316.387 133.475C317.046 133.475 317.684 133.337 318.3 133.061C318.937 132.785 319.437 132.413 319.798 131.945L323.24 133.985C322.496 135.069 321.53 135.898 320.34 136.471C319.171 137.045 317.822 137.332 316.292 137.332C314.571 137.332 313.051 136.971 311.734 136.248C310.417 135.504 309.397 134.495 308.674 133.22C307.952 131.945 307.591 130.522 307.591 128.949C307.591 127.377 307.941 125.953 308.642 124.678C309.365 123.403 310.364 122.405 311.638 121.682C312.913 120.939 314.369 120.567 316.005 120.567ZM319.766 127.037C319.617 126.229 319.192 125.603 318.491 125.156C317.811 124.71 316.972 124.487 315.973 124.487C314.932 124.487 314.029 124.742 313.264 125.252C312.499 125.741 312.095 126.336 312.053 127.037H319.766ZM349.85 136.917H345.292V127.515C345.292 126.495 345.005 125.762 344.431 125.316C343.858 124.848 343.178 124.615 342.392 124.615C341.733 124.615 341.159 124.827 340.67 125.252C340.182 125.656 339.874 126.293 339.746 127.164V136.917H335.188V114.606H339.746V122.128C340.915 121.151 342.179 120.662 343.539 120.662C344.453 120.662 345.377 120.864 346.312 121.268C347.268 121.65 348.086 122.341 348.766 123.34C349.467 124.338 349.829 125.688 349.85 127.387V136.917ZM362.868 120.981H367.426V136.917H362.868V135.834C361.657 136.854 360.372 137.364 359.012 137.364C358.077 137.364 357.131 137.162 356.175 136.758C355.219 136.354 354.401 135.643 353.721 134.623C353.041 133.603 352.701 132.232 352.701 130.511V120.981H357.259V130.511C357.259 131.51 357.546 132.243 358.119 132.71C358.693 133.156 359.373 133.38 360.159 133.38C360.924 133.38 361.562 133.103 362.072 132.551C362.603 131.998 362.868 131.117 362.868 129.905V120.981ZM389.748 120.535C390.683 120.535 391.629 120.737 392.585 121.14C393.541 121.544 394.359 122.256 395.039 123.276C395.719 124.296 396.059 125.666 396.059 127.387V136.917H391.533V127.387C391.533 126.368 391.246 125.634 390.672 125.188C390.099 124.742 389.419 124.519 388.632 124.519C387.974 124.519 387.4 124.721 386.911 125.124C386.444 125.507 386.136 126.113 385.987 126.941V127.387V136.917H381.429V127.387C381.429 126.368 381.142 125.634 380.569 125.188C379.995 124.742 379.315 124.519 378.529 124.519C377.87 124.519 377.296 124.721 376.808 125.124C376.319 125.528 376.011 126.176 375.883 127.069V136.917H371.325V120.981H375.883V122.001C377.052 121.024 378.316 120.535 379.676 120.535C380.611 120.535 381.557 120.737 382.513 121.14C383.49 121.544 384.287 122.213 384.903 123.148C385.456 122.405 386.157 121.788 387.007 121.3C387.857 120.79 388.771 120.535 389.748 120.535ZM410.923 120.981H415.449V136.917H410.923V135.706C410.222 136.238 409.446 136.641 408.596 136.917C407.767 137.215 406.928 137.364 406.078 137.364C404.421 137.364 402.987 137.002 401.775 136.28C400.585 135.558 399.672 134.57 399.034 133.316C398.397 132.041 398.078 130.596 398.078 128.981C398.078 127.366 398.397 125.921 399.034 124.646C399.672 123.35 400.585 122.341 401.775 121.618C402.987 120.896 404.421 120.535 406.078 120.535C406.949 120.535 407.799 120.684 408.628 120.981C409.457 121.278 410.222 121.693 410.923 122.224V120.981ZM406.684 133.029C407.874 133.029 408.872 132.647 409.68 131.882C410.487 131.117 410.891 130.129 410.891 128.917C410.891 127.749 410.487 126.793 409.68 126.049C408.872 125.305 407.874 124.933 406.684 124.933C405.494 124.933 404.516 125.305 403.751 126.049C402.987 126.793 402.604 127.77 402.604 128.981C402.604 130.192 402.987 131.17 403.751 131.913C404.516 132.657 405.494 133.029 406.684 133.029ZM427.767 120.535C428.702 120.535 429.648 120.737 430.604 121.14C431.56 121.544 432.378 122.256 433.058 123.276C433.738 124.296 434.078 125.666 434.078 127.387V136.917H429.52V127.387C429.52 126.368 429.233 125.634 428.66 125.188C428.107 124.742 427.438 124.519 426.652 124.519C425.865 124.519 425.207 124.795 424.676 125.348C424.166 125.9 423.911 126.782 423.911 127.993V136.917H419.353V120.981H423.911V122.065C425.122 121.045 426.407 120.535 427.767 120.535ZM439.152 137.204C438.451 136.992 437.994 136.737 437.782 136.439C437.59 136.142 437.495 135.589 437.495 134.782C437.495 133.975 437.707 133.358 438.132 132.933C438.557 132.487 439.173 132.264 439.981 132.264C440.788 132.264 441.415 132.498 441.861 132.965C442.308 133.411 442.531 134.038 442.531 134.846C442.509 135.738 442.393 136.45 442.18 136.981C441.989 137.534 441.617 138.182 441.064 138.925L439.28 141.252L437.909 140.073L439.152 137.204ZM458.772 131.882C458.772 132.222 458.846 132.466 458.995 132.615C459.165 132.763 459.441 132.838 459.823 132.838C460.1 132.838 460.429 132.806 460.812 132.742V136.917C459.77 137.066 458.963 137.141 458.389 137.141C457.008 137.141 455.967 136.779 455.266 136.057C454.564 135.313 454.214 134.017 454.214 132.168V114.606H458.772V131.882ZM470.203 137.396C468.673 137.396 467.26 137.024 465.964 136.28C464.689 135.515 463.669 134.485 462.904 133.188C462.16 131.892 461.788 130.49 461.788 128.981C461.788 127.451 462.16 126.049 462.904 124.774C463.669 123.478 464.689 122.458 465.964 121.714C467.26 120.949 468.673 120.567 470.203 120.567C471.711 120.567 473.103 120.949 474.378 121.714C475.674 122.458 476.694 123.478 477.438 124.774C478.203 126.049 478.585 127.451 478.585 128.981C478.585 130.49 478.203 131.892 477.438 133.188C476.694 134.485 475.674 135.515 474.378 136.28C473.103 137.024 471.711 137.396 470.203 137.396ZM470.171 132.838C471.233 132.838 472.147 132.466 472.912 131.722C473.677 130.957 474.059 130.044 474.059 128.981C474.059 127.919 473.677 127.005 472.912 126.24C472.147 125.475 471.233 125.093 470.171 125.093C469.109 125.093 468.195 125.475 467.43 126.24C466.686 127.005 466.314 127.919 466.314 128.981C466.314 130.044 466.686 130.957 467.43 131.722C468.195 132.466 469.109 132.838 470.171 132.838ZM495.389 133.794C494.602 134.899 493.604 135.781 492.393 136.439C491.203 137.077 489.917 137.396 488.536 137.396C487.006 137.396 485.593 137.024 484.297 136.28C483.022 135.515 482.002 134.485 481.237 133.188C480.493 131.892 480.122 130.49 480.122 128.981C480.122 127.451 480.493 126.049 481.237 124.774C482.002 123.478 483.022 122.458 484.297 121.714C485.593 120.949 487.006 120.567 488.536 120.567C489.917 120.567 491.203 120.885 492.393 121.523C493.583 122.16 494.571 123.021 495.357 124.105L491.596 126.591C490.703 125.592 489.683 125.093 488.536 125.093C487.474 125.093 486.56 125.475 485.795 126.24C485.03 127.005 484.648 127.919 484.648 128.981C484.648 130.044 485.03 130.957 485.795 131.722C486.56 132.466 487.474 132.838 488.536 132.838C489.683 132.838 490.703 132.338 491.596 131.34L495.389 133.794ZM509.125 120.981H513.651V136.917H509.125V135.706C508.424 136.238 507.648 136.641 506.798 136.917C505.97 137.215 505.13 137.364 504.28 137.364C502.623 137.364 501.189 137.002 499.978 136.28C498.788 135.558 497.874 134.57 497.237 133.316C496.599 132.041 496.28 130.596 496.28 128.981C496.28 127.366 496.599 125.921 497.237 124.646C497.874 123.35 498.788 122.341 499.978 121.618C501.189 120.896 502.623 120.535 504.28 120.535C505.152 120.535 506.002 120.684 506.83 120.981C507.659 121.278 508.424 121.693 509.125 122.224V120.981ZM504.886 133.029C506.076 133.029 507.075 132.647 507.882 131.882C508.69 131.117 509.093 130.129 509.093 128.917C509.093 127.749 508.69 126.793 507.882 126.049C507.075 125.305 506.076 124.933 504.886 124.933C503.696 124.933 502.719 125.305 501.954 126.049C501.189 126.793 500.806 127.77 500.806 128.981C500.806 130.192 501.189 131.17 501.954 131.913C502.719 132.657 503.696 133.029 504.886 133.029ZM521.677 131.882C521.677 132.222 521.751 132.466 521.9 132.615C522.07 132.763 522.346 132.838 522.729 132.838C523.005 132.838 523.335 132.806 523.717 132.742V136.917C522.676 137.066 521.868 137.141 521.295 137.141C519.913 137.141 518.872 136.779 518.171 136.057C517.47 135.313 517.119 134.017 517.119 132.168V114.606H521.677V131.882ZM528.079 137.204C527.378 136.992 526.921 136.737 526.708 136.439C526.517 136.142 526.421 135.589 526.421 134.782C526.421 133.975 526.634 133.358 527.059 132.933C527.484 132.487 528.1 132.264 528.908 132.264C529.715 132.264 530.342 132.498 530.788 132.965C531.234 133.411 531.457 134.038 531.457 134.846C531.436 135.738 531.319 136.45 531.107 136.981C530.916 137.534 530.544 138.182 529.991 138.925L528.206 141.252L526.836 140.073L528.079 137.204ZM555.316 120.981H559.842V136.917H555.316V135.706C554.615 136.238 553.839 136.641 552.989 136.917C552.161 137.215 551.321 137.364 550.471 137.364C548.814 137.364 547.38 137.002 546.168 136.28C544.979 135.558 544.065 134.57 543.427 133.316C542.79 132.041 542.471 130.596 542.471 128.981C542.471 127.366 542.79 125.921 543.427 124.646C544.065 123.35 544.979 122.341 546.168 121.618C547.38 120.896 548.814 120.535 550.471 120.535C551.343 120.535 552.192 120.684 553.021 120.981C553.85 121.278 554.615 121.693 555.316 122.224V120.981ZM551.077 133.029C552.267 133.029 553.266 132.647 554.073 131.882C554.88 131.117 555.284 130.129 555.284 128.917C555.284 127.749 554.88 126.793 554.073 126.049C553.266 125.305 552.267 124.933 551.077 124.933C549.887 124.933 548.91 125.305 548.145 126.049C547.38 126.793 546.997 127.77 546.997 128.981C546.997 130.192 547.38 131.17 548.145 131.913C548.91 132.657 549.887 133.029 551.077 133.029ZM572.16 120.535C573.095 120.535 574.041 120.737 574.997 121.14C575.953 121.544 576.771 122.256 577.451 123.276C578.131 124.296 578.471 125.666 578.471 127.387V136.917H573.913V127.387C573.913 126.368 573.627 125.634 573.053 125.188C572.5 124.742 571.831 124.519 571.045 124.519C570.259 124.519 569.6 124.795 569.069 125.348C568.559 125.9 568.304 126.782 568.304 127.993V136.917H563.746V120.981H568.304V122.065C569.515 121.045 570.8 120.535 572.16 120.535ZM593.6 114.606H598.126V136.917H593.6V135.706C592.899 136.238 592.134 136.641 591.305 136.917C590.498 137.215 589.659 137.364 588.787 137.364C587.13 137.364 585.696 137.002 584.485 136.28C583.295 135.558 582.381 134.57 581.743 133.316C581.106 132.041 580.787 130.596 580.787 128.981C580.787 127.366 581.106 125.921 581.743 124.646C582.381 123.35 583.295 122.341 584.485 121.618C585.696 120.896 587.13 120.535 588.787 120.535C589.637 120.535 590.477 120.684 591.305 120.981C592.134 121.257 592.899 121.661 593.6 122.192V114.606ZM589.393 133.029C590.583 133.029 591.582 132.647 592.389 131.882C593.196 131.117 593.6 130.129 593.6 128.917C593.6 127.749 593.196 126.793 592.389 126.049C591.582 125.305 590.583 124.933 589.393 124.933C588.203 124.933 587.226 125.305 586.461 126.049C585.696 126.793 585.313 127.77 585.313 128.981C585.313 130.192 585.696 131.17 586.461 131.913C587.226 132.657 588.203 133.029 589.393 133.029ZM628.639 120.535C629.574 120.535 630.52 120.737 631.476 121.14C632.432 121.544 633.25 122.256 633.93 123.276C634.61 124.296 634.95 125.666 634.95 127.387V136.917H630.424V127.387C630.424 126.368 630.138 125.634 629.564 125.188C628.99 124.742 628.31 124.519 627.524 124.519C626.865 124.519 626.292 124.721 625.803 125.124C625.335 125.507 625.027 126.113 624.878 126.941V127.387V136.917H620.321V127.387C620.321 126.368 620.034 125.634 619.46 125.188C618.886 124.742 618.206 124.519 617.42 124.519C616.762 124.519 616.188 124.721 615.699 125.124C615.21 125.528 614.902 126.176 614.775 127.069V136.917H610.217V120.981H614.775V122.001C615.943 121.024 617.208 120.535 618.568 120.535C619.503 120.535 620.448 120.737 621.404 121.14C622.382 121.544 623.179 122.213 623.795 123.148C624.347 122.405 625.048 121.788 625.898 121.3C626.748 120.79 627.662 120.535 628.639 120.535ZM645.473 137.396C643.943 137.396 642.53 137.024 641.234 136.28C639.959 135.515 638.939 134.485 638.174 133.188C637.43 131.892 637.058 130.49 637.058 128.981C637.058 127.451 637.43 126.049 638.174 124.774C638.939 123.478 639.959 122.458 641.234 121.714C642.53 120.949 643.943 120.567 645.473 120.567C646.982 120.567 648.373 120.949 649.648 121.714C650.944 122.458 651.964 123.478 652.708 124.774C653.473 126.049 653.855 127.451 653.855 128.981C653.855 130.49 653.473 131.892 652.708 133.188C651.964 134.485 650.944 135.515 649.648 136.28C648.373 137.024 646.982 137.396 645.473 137.396ZM645.441 132.838C646.503 132.838 647.417 132.466 648.182 131.722C648.947 130.957 649.33 130.044 649.33 128.981C649.33 127.919 648.947 127.005 648.182 126.24C647.417 125.475 646.503 125.093 645.441 125.093C644.379 125.093 643.465 125.475 642.7 126.24C641.956 127.005 641.584 127.919 641.584 128.981C641.584 130.044 641.956 130.957 642.7 131.722C643.465 132.466 644.379 132.838 645.441 132.838ZM661.683 131.244C661.683 131.839 661.842 132.253 662.161 132.487C662.501 132.721 663.011 132.838 663.691 132.838C664.115 132.838 664.583 132.806 665.093 132.742V136.917C664.03 137.024 663.149 137.077 662.447 137.077C660.663 137.077 659.324 136.684 658.431 135.898C657.56 135.09 657.125 133.635 657.125 131.531V125.029H654.384V120.981H657.125V117.284L661.683 115.754V120.981H665.029V125.029H661.683V131.244ZM670.657 118.814C669.807 118.814 669.137 118.591 668.649 118.144C668.181 117.677 667.947 117.05 667.947 116.264C667.947 115.456 668.181 114.819 668.649 114.351C669.137 113.884 669.807 113.65 670.657 113.65C671.485 113.65 672.144 113.884 672.633 114.351C673.121 114.819 673.366 115.456 673.366 116.264C673.366 117.05 673.121 117.677 672.633 118.144C672.144 118.591 671.485 118.814 670.657 118.814ZM668.362 136.917V120.981H672.919V136.917H668.362ZM683.428 131.276L687.157 120.981H691.97L686.169 136.917H680.655L674.854 120.981H679.667L683.428 131.276ZM705.25 120.981H709.776V136.917H705.25V135.706C704.548 136.238 703.773 136.641 702.923 136.917C702.094 137.215 701.255 137.364 700.405 137.364C698.748 137.364 697.313 137.002 696.102 136.28C694.912 135.558 693.998 134.57 693.361 133.316C692.724 132.041 692.405 130.596 692.405 128.981C692.405 127.366 692.724 125.921 693.361 124.646C693.998 123.35 694.912 122.341 696.102 121.618C697.313 120.896 698.748 120.535 700.405 120.535C701.276 120.535 702.126 120.684 702.955 120.981C703.783 121.278 704.548 121.693 705.25 122.224V120.981ZM701.01 133.029C702.2 133.029 703.199 132.647 704.007 131.882C704.814 131.117 705.218 130.129 705.218 128.917C705.218 127.749 704.814 126.793 704.007 126.049C703.199 125.305 702.2 124.933 701.01 124.933C699.821 124.933 698.843 125.305 698.078 126.049C697.313 126.793 696.931 127.77 696.931 128.981C696.931 130.192 697.313 131.17 698.078 131.913C698.843 132.657 699.821 133.029 701.01 133.029ZM719.203 131.244C719.203 131.839 719.363 132.253 719.681 132.487C720.021 132.721 720.531 132.838 721.211 132.838C721.636 132.838 722.104 132.806 722.614 132.742V136.917C721.551 137.024 720.669 137.077 719.968 137.077C718.183 137.077 716.845 136.684 715.952 135.898C715.081 135.09 714.645 133.635 714.645 131.531V125.029H711.904V120.981H714.645V117.284L719.203 115.754V120.981H722.55V125.029H719.203V131.244ZM728.177 118.814C727.327 118.814 726.658 118.591 726.169 118.144C725.702 117.677 725.468 117.05 725.468 116.264C725.468 115.456 725.702 114.819 726.169 114.351C726.658 113.884 727.327 113.65 728.177 113.65C729.006 113.65 729.665 113.884 730.153 114.351C730.642 114.819 730.886 115.456 730.886 116.264C730.886 117.05 730.642 117.677 730.153 118.144C729.665 118.591 729.006 118.814 728.177 118.814ZM725.882 136.917V120.981H730.44V136.917H725.882ZM742.606 120.535C743.541 120.535 744.486 120.737 745.443 121.14C746.399 121.544 747.217 122.256 747.897 123.276C748.577 124.296 748.917 125.666 748.917 127.387V136.917H744.359V127.387C744.359 126.368 744.072 125.634 743.498 125.188C742.946 124.742 742.277 124.519 741.49 124.519C740.704 124.519 740.046 124.795 739.514 125.348C739.004 125.9 738.749 126.782 738.749 127.993V136.917H734.192V120.981H738.749V122.065C739.961 121.045 741.246 120.535 742.606 120.535ZM764.078 120.981H768.635V136.121C768.635 137.608 768.242 138.925 767.456 140.073C766.691 141.22 765.629 142.113 764.269 142.75C762.909 143.388 761.379 143.706 759.679 143.706C757.831 143.706 756.131 143.345 754.579 142.623C753.05 141.922 751.977 141.008 751.36 139.882L755.249 137.619C755.525 138.171 756.077 138.628 756.906 138.989C757.735 139.35 758.702 139.531 759.807 139.531C761.039 139.531 762.059 139.212 762.866 138.575C763.674 137.937 764.078 137.119 764.078 136.121V135.706C763.376 136.238 762.611 136.641 761.783 136.917C760.975 137.215 760.136 137.364 759.265 137.364C757.607 137.364 756.173 137.002 754.962 136.28C753.772 135.558 752.858 134.57 752.221 133.316C751.583 132.041 751.265 130.596 751.265 128.981C751.265 127.366 751.583 125.921 752.221 124.646C752.858 123.35 753.772 122.341 754.962 121.618C756.173 120.896 757.607 120.535 759.265 120.535C760.115 120.535 760.954 120.684 761.783 120.981C762.611 121.257 763.376 121.661 764.078 122.192V120.981ZM759.87 133.029C761.06 133.029 762.059 132.647 762.866 131.882C763.674 131.117 764.078 130.129 764.078 128.917C764.078 127.749 763.674 126.793 762.866 126.049C762.059 125.305 761.06 124.933 759.87 124.933C758.68 124.933 757.703 125.305 756.938 126.049C756.194 126.793 755.823 127.77 755.823 128.981C755.823 130.192 756.194 131.17 756.938 131.913C757.703 132.657 758.68 133.029 759.87 133.029ZM800.519 136.917H795.419L793.857 132.71H785.602L784.04 136.917H778.909L787.164 114.606H792.295L800.519 136.917ZM789.745 121.555L787.259 128.184H792.2L789.745 121.555ZM802.86 136.917V114.606H807.673V136.917H802.86ZM834.319 133.794C833.533 134.899 832.534 135.781 831.323 136.439C830.133 137.077 828.847 137.396 827.466 137.396C825.936 137.396 824.523 137.024 823.227 136.28C821.952 135.515 820.932 134.485 820.167 133.188C819.424 131.892 819.052 130.49 819.052 128.981C819.052 127.451 819.424 126.049 820.167 124.774C820.932 123.478 821.952 122.458 823.227 121.714C824.523 120.949 825.936 120.567 827.466 120.567C828.847 120.567 830.133 120.885 831.323 121.523C832.513 122.16 833.501 123.021 834.287 124.105L830.526 126.591C829.634 125.592 828.614 125.093 827.466 125.093C826.404 125.093 825.49 125.475 824.725 126.24C823.96 127.005 823.578 127.919 823.578 128.981C823.578 130.044 823.96 130.957 824.725 131.722C825.49 132.466 826.404 132.838 827.466 132.838C828.614 132.838 829.634 132.338 830.526 131.34L834.319 133.794ZM843.714 137.396C842.184 137.396 840.771 137.024 839.475 136.28C838.2 135.515 837.18 134.485 836.415 133.188C835.671 131.892 835.299 130.49 835.299 128.981C835.299 127.451 835.671 126.049 836.415 124.774C837.18 123.478 838.2 122.458 839.475 121.714C840.771 120.949 842.184 120.567 843.714 120.567C845.223 120.567 846.614 120.949 847.889 121.714C849.185 122.458 850.205 123.478 850.949 124.774C851.714 126.049 852.096 127.451 852.096 128.981C852.096 130.49 851.714 131.892 850.949 133.188C850.205 134.485 849.185 135.515 847.889 136.28C846.614 137.024 845.223 137.396 843.714 137.396ZM843.682 132.838C844.744 132.838 845.658 132.466 846.423 131.722C847.188 130.957 847.571 130.044 847.571 128.981C847.571 127.919 847.188 127.005 846.423 126.24C845.658 125.475 844.744 125.093 843.682 125.093C842.62 125.093 841.706 125.475 840.941 126.24C840.197 127.005 839.825 127.919 839.825 128.981C839.825 130.044 840.197 130.957 840.941 131.722C841.706 132.466 842.62 132.838 843.682 132.838ZM872.636 120.535C873.571 120.535 874.516 120.737 875.472 121.14C876.428 121.544 877.247 122.256 877.927 123.276C878.606 124.296 878.946 125.666 878.946 127.387V136.917H874.42V127.387C874.42 126.368 874.134 125.634 873.56 125.188C872.986 124.742 872.306 124.519 871.52 124.519C870.861 124.519 870.288 124.721 869.799 125.124C869.331 125.507 869.023 126.113 868.875 126.941V127.387V136.917H864.317V127.387C864.317 126.368 864.03 125.634 863.456 125.188C862.882 124.742 862.203 124.519 861.416 124.519C860.758 124.519 860.184 124.721 859.695 125.124C859.206 125.528 858.898 126.176 858.771 127.069V136.917H854.213V120.981H858.771V122.001C859.94 121.024 861.204 120.535 862.564 120.535C863.499 120.535 864.444 120.737 865.4 121.14C866.378 121.544 867.175 122.213 867.791 123.148C868.343 122.405 869.045 121.788 869.895 121.3C870.744 120.79 871.658 120.535 872.636 120.535ZM891.286 120.567C892.943 120.567 894.367 120.928 895.557 121.65C896.768 122.373 897.692 123.371 898.33 124.646C898.967 125.9 899.286 127.334 899.286 128.949C899.286 130.564 898.967 132.009 898.33 133.284C897.692 134.559 896.768 135.568 895.557 136.312C894.367 137.034 892.943 137.396 891.286 137.396C890.436 137.396 889.596 137.247 888.768 136.949C887.939 136.673 887.174 136.269 886.473 135.738V143.292H881.915V120.981H886.473V122.224C887.174 121.693 887.928 121.289 888.736 121.013C889.565 120.715 890.415 120.567 891.286 120.567ZM890.68 132.965C891.87 132.965 892.837 132.604 893.581 131.882C894.346 131.138 894.728 130.16 894.728 128.949C894.728 127.738 894.346 126.761 893.581 126.017C892.837 125.273 891.87 124.901 890.68 124.901C889.49 124.901 888.492 125.284 887.684 126.049C886.877 126.814 886.473 127.791 886.473 128.981C886.473 130.171 886.866 131.138 887.652 131.882C888.46 132.604 889.469 132.965 890.68 132.965ZM914.073 120.981H918.599V136.917H914.073V135.706C913.372 136.238 912.597 136.641 911.747 136.917C910.918 137.215 910.079 137.364 909.229 137.364C907.571 137.364 906.137 137.002 904.926 136.28C903.736 135.558 902.822 134.57 902.185 133.316C901.547 132.041 901.229 130.596 901.229 128.981C901.229 127.366 901.547 125.921 902.185 124.646C902.822 123.35 903.736 122.341 904.926 121.618C906.137 120.896 907.571 120.535 909.229 120.535C910.1 120.535 910.95 120.684 911.779 120.981C912.607 121.278 913.372 121.693 914.073 122.224V120.981ZM909.834 133.029C911.024 133.029 912.023 132.647 912.83 131.882C913.638 131.117 914.042 130.129 914.042 128.917C914.042 127.749 913.638 126.793 912.83 126.049C912.023 125.305 911.024 124.933 909.834 124.933C908.644 124.933 907.667 125.305 906.902 126.049C906.137 126.793 905.755 127.77 905.755 128.981C905.755 130.192 906.137 131.17 906.902 131.913C907.667 132.657 908.644 133.029 909.834 133.029ZM930.918 120.535C931.853 120.535 932.798 120.737 933.754 121.14C934.711 121.544 935.529 122.256 936.209 123.276C936.889 124.296 937.229 125.666 937.229 127.387V136.917H932.671V127.387C932.671 126.368 932.384 125.634 931.81 125.188C931.258 124.742 930.588 124.519 929.802 124.519C929.016 124.519 928.357 124.795 927.826 125.348C927.316 125.9 927.061 126.782 927.061 127.993V136.917H922.503V120.981H927.061V122.065C928.272 121.045 929.558 120.535 930.918 120.535ZM942.573 118.814C941.723 118.814 941.053 118.591 940.565 118.144C940.097 117.677 939.863 117.05 939.863 116.264C939.863 115.456 940.097 114.819 940.565 114.351C941.053 113.884 941.723 113.65 942.573 113.65C943.401 113.65 944.06 113.884 944.549 114.351C945.037 114.819 945.282 115.456 945.282 116.264C945.282 117.05 945.037 117.677 944.549 118.144C944.06 118.591 943.401 118.814 942.573 118.814ZM940.278 136.917V120.981H944.836V136.917H940.278ZM955.518 137.396C953.988 137.396 952.575 137.024 951.279 136.28C950.004 135.515 948.984 134.485 948.219 133.188C947.476 131.892 947.104 130.49 947.104 128.981C947.104 127.451 947.476 126.049 948.219 124.774C948.984 123.478 950.004 122.458 951.279 121.714C952.575 120.949 953.988 120.567 955.518 120.567C957.027 120.567 958.419 120.949 959.694 121.714C960.99 122.458 962.01 123.478 962.753 124.774C963.518 126.049 963.901 127.451 963.901 128.981C963.901 130.49 963.518 131.892 962.753 133.188C962.01 134.485 960.99 135.515 959.694 136.28C958.419 137.024 957.027 137.396 955.518 137.396ZM955.486 132.838C956.549 132.838 957.462 132.466 958.227 131.722C958.992 130.957 959.375 130.044 959.375 128.981C959.375 127.919 958.992 127.005 958.227 126.24C957.462 125.475 956.549 125.093 955.486 125.093C954.424 125.093 953.51 125.475 952.745 126.24C952.002 127.005 951.63 127.919 951.63 128.981C951.63 130.044 952.002 130.957 952.745 131.722C953.51 132.466 954.424 132.838 955.486 132.838ZM974.712 120.535C975.647 120.535 976.592 120.737 977.549 121.14C978.505 121.544 979.323 122.256 980.003 123.276C980.683 124.296 981.023 125.666 981.023 127.387V136.917H976.465V127.387C976.465 126.368 976.178 125.634 975.604 125.188C975.052 124.742 974.383 124.519 973.596 124.519C972.81 124.519 972.151 124.795 971.62 125.348C971.11 125.9 970.855 126.782 970.855 127.993V136.917H966.297V120.981H970.855V122.065C972.066 121.045 973.352 120.535 974.712 120.535ZM984.535 134.878C984.535 134.091 984.737 133.496 985.141 133.093C985.566 132.668 986.161 132.455 986.926 132.455C987.69 132.455 988.275 132.668 988.679 133.093C989.103 133.496 989.316 134.091 989.316 134.878C989.316 135.664 989.103 136.269 988.679 136.694C988.275 137.098 987.69 137.3 986.926 137.3C986.161 137.3 985.566 137.098 985.141 136.694C984.737 136.269 984.535 135.664 984.535 134.878Z" fill="#AAAAAA"/>
<path d="M221.824 29.2531C221.824 25.9214 222.64 22.8446 224.272 20.0227C225.938 17.2009 228.182 14.9741 231.003 13.3422C233.825 11.6763 236.902 10.8433 240.234 10.8433C243.634 10.8433 246.778 11.7273 249.668 13.4952C252.558 15.263 254.802 17.5919 256.4 20.4817L249.668 24.1025C248.716 22.4026 247.407 21.0597 245.741 20.0737C244.076 19.0538 242.24 18.5438 240.234 18.5438C238.296 18.5438 236.494 19.0198 234.828 19.9717C233.196 20.9237 231.904 22.2326 230.952 23.8985C230 25.5304 229.524 27.3153 229.524 29.2531C229.524 31.191 230 32.9929 230.952 34.6588C231.938 36.2907 233.247 37.5996 234.879 38.5855C236.511 39.5375 238.296 40.0135 240.234 40.0135C242.24 40.0135 244.093 39.5035 245.792 38.4835C247.492 37.4296 248.801 36.0357 249.719 34.3018L256.502 37.9736C254.904 40.8974 252.643 43.2602 249.719 45.0621C246.829 46.83 243.668 47.714 240.234 47.714C236.902 47.714 233.825 46.881 231.003 45.2151C228.182 43.5492 225.938 41.3054 224.272 38.4835C222.64 35.6617 221.824 32.5849 221.824 29.2531ZM284.358 47H277.065V31.956C277.065 30.3241 276.606 29.1511 275.688 28.4372C274.77 27.6892 273.683 27.3153 272.425 27.3153C271.371 27.3153 270.453 27.6552 269.671 28.3352C268.889 28.9812 268.396 30.0011 268.192 31.395V47H260.899V11.3023H268.192V23.3375C270.062 21.7736 272.085 20.9917 274.261 20.9917C275.722 20.9917 277.201 21.3147 278.697 21.9606C280.227 22.5726 281.536 23.6775 282.624 25.2754C283.746 26.8733 284.324 29.0322 284.358 31.752V47ZM293.956 18.0339C292.596 18.0339 291.526 17.6769 290.744 16.9629C289.996 16.215 289.622 15.212 289.622 13.9541C289.622 12.6622 289.996 11.6423 290.744 10.8943C291.526 10.1464 292.596 9.7724 293.956 9.7724C295.282 9.7724 296.336 10.1464 297.118 10.8943C297.9 11.6423 298.291 12.6622 298.291 13.9541C298.291 15.212 297.9 16.215 297.118 16.9629C296.336 17.6769 295.282 18.0339 293.956 18.0339ZM290.285 47V21.5016H297.577V47H290.285ZM317.042 20.7877C318.538 20.7877 320.051 21.1107 321.581 21.7566C323.111 22.4026 324.42 23.5415 325.508 25.1734C326.596 26.8053 327.14 28.9982 327.14 31.752V47H319.847V31.752C319.847 30.1201 319.388 28.9472 318.47 28.2332C317.586 27.5193 316.515 27.1623 315.257 27.1623C314 27.1623 312.946 27.6042 312.096 28.4882C311.28 29.3721 310.872 30.783 310.872 32.7209V47H303.579V21.5016H310.872V23.2355C312.81 21.6036 314.867 20.7877 317.042 20.7877ZM351.397 21.5016H358.69V45.7251C358.69 48.1049 358.061 50.2128 356.803 52.0487C355.579 53.8846 353.879 55.3125 351.703 56.3324C349.527 57.3523 347.079 57.8623 344.359 57.8623C341.402 57.8623 338.682 57.2843 336.2 56.1284C333.752 55.0065 332.035 53.5446 331.049 51.7427L337.271 48.1219C337.713 49.0059 338.597 49.7368 339.923 50.3148C341.249 50.8927 342.796 51.1817 344.563 51.1817C346.535 51.1817 348.167 50.6718 349.459 49.6518C350.751 48.6319 351.397 47.323 351.397 45.7251V45.0621C350.275 45.9121 349.051 46.558 347.725 47C346.433 47.476 345.09 47.714 343.697 47.714C341.045 47.714 338.75 47.136 336.812 45.9801C334.908 44.8241 333.446 43.2432 332.426 41.2374C331.406 39.1975 330.896 36.8857 330.896 34.3018C330.896 31.718 331.406 29.4061 332.426 27.3663C333.446 25.2924 334.908 23.6775 336.812 22.5216C338.75 21.3657 341.045 20.7877 343.697 20.7877C345.056 20.7877 346.399 21.0257 347.725 21.5016C349.051 21.9436 350.275 22.5896 351.397 23.4395V21.5016ZM344.665 40.7784C346.569 40.7784 348.167 40.1664 349.459 38.9425C350.751 37.7186 351.397 36.1377 351.397 34.1998C351.397 32.3299 350.751 30.8 349.459 29.6101C348.167 28.4202 346.569 27.8252 344.665 27.8252C342.762 27.8252 341.198 28.4202 339.974 29.6101C338.784 30.8 338.189 32.3639 338.189 34.3018C338.189 36.2397 338.784 37.8036 339.974 38.9935C341.198 40.1834 342.762 40.7784 344.665 40.7784ZM379.442 21.5016H386.734V47H379.442V45.2661C377.504 46.898 375.447 47.714 373.271 47.714C371.775 47.714 370.262 47.391 368.732 46.745C367.202 46.0991 365.894 44.9601 364.806 43.3282C363.718 41.6963 363.174 39.5035 363.174 36.7497V21.5016H370.466V36.7497C370.466 38.3476 370.925 39.5205 371.843 40.2684C372.761 40.9824 373.849 41.3394 375.107 41.3394C376.331 41.3394 377.351 40.8974 378.167 40.0135C379.017 39.1295 379.442 37.7186 379.442 35.7807V21.5016Z" fill="white"/>
</svg>
